%TF.GenerationSoftware,KiCad,Pcbnew,7.0.2*%
%TF.CreationDate,2023-05-26T09:26:57+02:00*%
%TF.ProjectId,kleinvoet,6b6c6569-6e76-46f6-9574-2e6b69636164,C*%
%TF.SameCoordinates,Original*%
%TF.FileFunction,AssemblyDrawing,Bot*%
%FSLAX46Y46*%
G04 Gerber Fmt 4.6, Leading zero omitted, Abs format (unit mm)*
G04 Created by KiCad (PCBNEW 7.0.2) date 2023-05-26 09:26:57*
%MOMM*%
%LPD*%
G01*
G04 APERTURE LIST*
%ADD10C,0.150000*%
%ADD11C,0.100000*%
%TA.AperFunction,Profile*%
%ADD12C,0.050000*%
%TD*%
G04 APERTURE END LIST*
D10*
%TO.C,TP904*%
X166295237Y-34612619D02*
X165961904Y-35612619D01*
X165961904Y-35612619D02*
X165628571Y-34612619D01*
X165295237Y-35612619D02*
X165295237Y-34612619D01*
X164819047Y-35612619D02*
X164819047Y-34612619D01*
X164819047Y-34612619D02*
X164247619Y-35612619D01*
X164247619Y-35612619D02*
X164247619Y-34612619D01*
X167414285Y-31612619D02*
X166842857Y-31612619D01*
X167128571Y-32612619D02*
X167128571Y-31612619D01*
X166509523Y-32612619D02*
X166509523Y-31612619D01*
X166509523Y-31612619D02*
X166128571Y-31612619D01*
X166128571Y-31612619D02*
X166033333Y-31660238D01*
X166033333Y-31660238D02*
X165985714Y-31707857D01*
X165985714Y-31707857D02*
X165938095Y-31803095D01*
X165938095Y-31803095D02*
X165938095Y-31945952D01*
X165938095Y-31945952D02*
X165985714Y-32041190D01*
X165985714Y-32041190D02*
X166033333Y-32088809D01*
X166033333Y-32088809D02*
X166128571Y-32136428D01*
X166128571Y-32136428D02*
X166509523Y-32136428D01*
X165461904Y-32612619D02*
X165271428Y-32612619D01*
X165271428Y-32612619D02*
X165176190Y-32565000D01*
X165176190Y-32565000D02*
X165128571Y-32517380D01*
X165128571Y-32517380D02*
X165033333Y-32374523D01*
X165033333Y-32374523D02*
X164985714Y-32184047D01*
X164985714Y-32184047D02*
X164985714Y-31803095D01*
X164985714Y-31803095D02*
X165033333Y-31707857D01*
X165033333Y-31707857D02*
X165080952Y-31660238D01*
X165080952Y-31660238D02*
X165176190Y-31612619D01*
X165176190Y-31612619D02*
X165366666Y-31612619D01*
X165366666Y-31612619D02*
X165461904Y-31660238D01*
X165461904Y-31660238D02*
X165509523Y-31707857D01*
X165509523Y-31707857D02*
X165557142Y-31803095D01*
X165557142Y-31803095D02*
X165557142Y-32041190D01*
X165557142Y-32041190D02*
X165509523Y-32136428D01*
X165509523Y-32136428D02*
X165461904Y-32184047D01*
X165461904Y-32184047D02*
X165366666Y-32231666D01*
X165366666Y-32231666D02*
X165176190Y-32231666D01*
X165176190Y-32231666D02*
X165080952Y-32184047D01*
X165080952Y-32184047D02*
X165033333Y-32136428D01*
X165033333Y-32136428D02*
X164985714Y-32041190D01*
X164366666Y-31612619D02*
X164271428Y-31612619D01*
X164271428Y-31612619D02*
X164176190Y-31660238D01*
X164176190Y-31660238D02*
X164128571Y-31707857D01*
X164128571Y-31707857D02*
X164080952Y-31803095D01*
X164080952Y-31803095D02*
X164033333Y-31993571D01*
X164033333Y-31993571D02*
X164033333Y-32231666D01*
X164033333Y-32231666D02*
X164080952Y-32422142D01*
X164080952Y-32422142D02*
X164128571Y-32517380D01*
X164128571Y-32517380D02*
X164176190Y-32565000D01*
X164176190Y-32565000D02*
X164271428Y-32612619D01*
X164271428Y-32612619D02*
X164366666Y-32612619D01*
X164366666Y-32612619D02*
X164461904Y-32565000D01*
X164461904Y-32565000D02*
X164509523Y-32517380D01*
X164509523Y-32517380D02*
X164557142Y-32422142D01*
X164557142Y-32422142D02*
X164604761Y-32231666D01*
X164604761Y-32231666D02*
X164604761Y-31993571D01*
X164604761Y-31993571D02*
X164557142Y-31803095D01*
X164557142Y-31803095D02*
X164509523Y-31707857D01*
X164509523Y-31707857D02*
X164461904Y-31660238D01*
X164461904Y-31660238D02*
X164366666Y-31612619D01*
X163176190Y-31945952D02*
X163176190Y-32612619D01*
X163414285Y-31565000D02*
X163652380Y-32279285D01*
X163652380Y-32279285D02*
X163033333Y-32279285D01*
%TO.C,J202*%
X138066666Y-80862619D02*
X137495238Y-80862619D01*
X137780952Y-81862619D02*
X137780952Y-80862619D01*
X136590476Y-81767380D02*
X136638095Y-81815000D01*
X136638095Y-81815000D02*
X136780952Y-81862619D01*
X136780952Y-81862619D02*
X136876190Y-81862619D01*
X136876190Y-81862619D02*
X137019047Y-81815000D01*
X137019047Y-81815000D02*
X137114285Y-81719761D01*
X137114285Y-81719761D02*
X137161904Y-81624523D01*
X137161904Y-81624523D02*
X137209523Y-81434047D01*
X137209523Y-81434047D02*
X137209523Y-81291190D01*
X137209523Y-81291190D02*
X137161904Y-81100714D01*
X137161904Y-81100714D02*
X137114285Y-81005476D01*
X137114285Y-81005476D02*
X137019047Y-80910238D01*
X137019047Y-80910238D02*
X136876190Y-80862619D01*
X136876190Y-80862619D02*
X136780952Y-80862619D01*
X136780952Y-80862619D02*
X136638095Y-80910238D01*
X136638095Y-80910238D02*
X136590476Y-80957857D01*
X136209523Y-80957857D02*
X136161904Y-80910238D01*
X136161904Y-80910238D02*
X136066666Y-80862619D01*
X136066666Y-80862619D02*
X135828571Y-80862619D01*
X135828571Y-80862619D02*
X135733333Y-80910238D01*
X135733333Y-80910238D02*
X135685714Y-80957857D01*
X135685714Y-80957857D02*
X135638095Y-81053095D01*
X135638095Y-81053095D02*
X135638095Y-81148333D01*
X135638095Y-81148333D02*
X135685714Y-81291190D01*
X135685714Y-81291190D02*
X136257142Y-81862619D01*
X136257142Y-81862619D02*
X135638095Y-81862619D01*
X135019047Y-80862619D02*
X134923809Y-80862619D01*
X134923809Y-80862619D02*
X134828571Y-80910238D01*
X134828571Y-80910238D02*
X134780952Y-80957857D01*
X134780952Y-80957857D02*
X134733333Y-81053095D01*
X134733333Y-81053095D02*
X134685714Y-81243571D01*
X134685714Y-81243571D02*
X134685714Y-81481666D01*
X134685714Y-81481666D02*
X134733333Y-81672142D01*
X134733333Y-81672142D02*
X134780952Y-81767380D01*
X134780952Y-81767380D02*
X134828571Y-81815000D01*
X134828571Y-81815000D02*
X134923809Y-81862619D01*
X134923809Y-81862619D02*
X135019047Y-81862619D01*
X135019047Y-81862619D02*
X135114285Y-81815000D01*
X135114285Y-81815000D02*
X135161904Y-81767380D01*
X135161904Y-81767380D02*
X135209523Y-81672142D01*
X135209523Y-81672142D02*
X135257142Y-81481666D01*
X135257142Y-81481666D02*
X135257142Y-81243571D01*
X135257142Y-81243571D02*
X135209523Y-81053095D01*
X135209523Y-81053095D02*
X135161904Y-80957857D01*
X135161904Y-80957857D02*
X135114285Y-80910238D01*
X135114285Y-80910238D02*
X135019047Y-80862619D01*
X134352380Y-80862619D02*
X133685714Y-80862619D01*
X133685714Y-80862619D02*
X134114285Y-81862619D01*
X133114285Y-80862619D02*
X133019047Y-80862619D01*
X133019047Y-80862619D02*
X132923809Y-80910238D01*
X132923809Y-80910238D02*
X132876190Y-80957857D01*
X132876190Y-80957857D02*
X132828571Y-81053095D01*
X132828571Y-81053095D02*
X132780952Y-81243571D01*
X132780952Y-81243571D02*
X132780952Y-81481666D01*
X132780952Y-81481666D02*
X132828571Y-81672142D01*
X132828571Y-81672142D02*
X132876190Y-81767380D01*
X132876190Y-81767380D02*
X132923809Y-81815000D01*
X132923809Y-81815000D02*
X133019047Y-81862619D01*
X133019047Y-81862619D02*
X133114285Y-81862619D01*
X133114285Y-81862619D02*
X133209523Y-81815000D01*
X133209523Y-81815000D02*
X133257142Y-81767380D01*
X133257142Y-81767380D02*
X133304761Y-81672142D01*
X133304761Y-81672142D02*
X133352380Y-81481666D01*
X133352380Y-81481666D02*
X133352380Y-81243571D01*
X133352380Y-81243571D02*
X133304761Y-81053095D01*
X133304761Y-81053095D02*
X133257142Y-80957857D01*
X133257142Y-80957857D02*
X133209523Y-80910238D01*
X133209523Y-80910238D02*
X133114285Y-80862619D01*
X132352380Y-81481666D02*
X131590476Y-81481666D01*
X131114285Y-81862619D02*
X131114285Y-80862619D01*
X130638095Y-81862619D02*
X130638095Y-80862619D01*
X130638095Y-80862619D02*
X130400000Y-80862619D01*
X130400000Y-80862619D02*
X130257143Y-80910238D01*
X130257143Y-80910238D02*
X130161905Y-81005476D01*
X130161905Y-81005476D02*
X130114286Y-81100714D01*
X130114286Y-81100714D02*
X130066667Y-81291190D01*
X130066667Y-81291190D02*
X130066667Y-81434047D01*
X130066667Y-81434047D02*
X130114286Y-81624523D01*
X130114286Y-81624523D02*
X130161905Y-81719761D01*
X130161905Y-81719761D02*
X130257143Y-81815000D01*
X130257143Y-81815000D02*
X130400000Y-81862619D01*
X130400000Y-81862619D02*
X130638095Y-81862619D01*
X129066667Y-81767380D02*
X129114286Y-81815000D01*
X129114286Y-81815000D02*
X129257143Y-81862619D01*
X129257143Y-81862619D02*
X129352381Y-81862619D01*
X129352381Y-81862619D02*
X129495238Y-81815000D01*
X129495238Y-81815000D02*
X129590476Y-81719761D01*
X129590476Y-81719761D02*
X129638095Y-81624523D01*
X129638095Y-81624523D02*
X129685714Y-81434047D01*
X129685714Y-81434047D02*
X129685714Y-81291190D01*
X129685714Y-81291190D02*
X129638095Y-81100714D01*
X129638095Y-81100714D02*
X129590476Y-81005476D01*
X129590476Y-81005476D02*
X129495238Y-80910238D01*
X129495238Y-80910238D02*
X129352381Y-80862619D01*
X129352381Y-80862619D02*
X129257143Y-80862619D01*
X129257143Y-80862619D02*
X129114286Y-80910238D01*
X129114286Y-80910238D02*
X129066667Y-80957857D01*
X128638095Y-81481666D02*
X127876191Y-81481666D01*
X127066667Y-81338809D02*
X127400000Y-81338809D01*
X127400000Y-81862619D02*
X127400000Y-80862619D01*
X127400000Y-80862619D02*
X126923810Y-80862619D01*
X126542857Y-81862619D02*
X126542857Y-80862619D01*
X126542857Y-80862619D02*
X126161905Y-80862619D01*
X126161905Y-80862619D02*
X126066667Y-80910238D01*
X126066667Y-80910238D02*
X126019048Y-80957857D01*
X126019048Y-80957857D02*
X125971429Y-81053095D01*
X125971429Y-81053095D02*
X125971429Y-81195952D01*
X125971429Y-81195952D02*
X126019048Y-81291190D01*
X126019048Y-81291190D02*
X126066667Y-81338809D01*
X126066667Y-81338809D02*
X126161905Y-81386428D01*
X126161905Y-81386428D02*
X126542857Y-81386428D01*
X124495238Y-82243571D02*
X124542857Y-82195952D01*
X124542857Y-82195952D02*
X124638095Y-82053095D01*
X124638095Y-82053095D02*
X124685714Y-81957857D01*
X124685714Y-81957857D02*
X124733333Y-81815000D01*
X124733333Y-81815000D02*
X124780952Y-81576904D01*
X124780952Y-81576904D02*
X124780952Y-81386428D01*
X124780952Y-81386428D02*
X124733333Y-81148333D01*
X124733333Y-81148333D02*
X124685714Y-81005476D01*
X124685714Y-81005476D02*
X124638095Y-80910238D01*
X124638095Y-80910238D02*
X124542857Y-80767380D01*
X124542857Y-80767380D02*
X124495238Y-80719761D01*
X124114285Y-81862619D02*
X124114285Y-80862619D01*
X124114285Y-80862619D02*
X123876190Y-80862619D01*
X123876190Y-80862619D02*
X123733333Y-80910238D01*
X123733333Y-80910238D02*
X123638095Y-81005476D01*
X123638095Y-81005476D02*
X123590476Y-81100714D01*
X123590476Y-81100714D02*
X123542857Y-81291190D01*
X123542857Y-81291190D02*
X123542857Y-81434047D01*
X123542857Y-81434047D02*
X123590476Y-81624523D01*
X123590476Y-81624523D02*
X123638095Y-81719761D01*
X123638095Y-81719761D02*
X123733333Y-81815000D01*
X123733333Y-81815000D02*
X123876190Y-81862619D01*
X123876190Y-81862619D02*
X124114285Y-81862619D01*
X123114285Y-81862619D02*
X123114285Y-80862619D01*
X123114285Y-80862619D02*
X122542857Y-81862619D01*
X122542857Y-81862619D02*
X122542857Y-80862619D01*
X122066666Y-81862619D02*
X122066666Y-80862619D01*
X122066666Y-80862619D02*
X121685714Y-80862619D01*
X121685714Y-80862619D02*
X121590476Y-80910238D01*
X121590476Y-80910238D02*
X121542857Y-80957857D01*
X121542857Y-80957857D02*
X121495238Y-81053095D01*
X121495238Y-81053095D02*
X121495238Y-81195952D01*
X121495238Y-81195952D02*
X121542857Y-81291190D01*
X121542857Y-81291190D02*
X121590476Y-81338809D01*
X121590476Y-81338809D02*
X121685714Y-81386428D01*
X121685714Y-81386428D02*
X122066666Y-81386428D01*
X121161904Y-82243571D02*
X121114285Y-82195952D01*
X121114285Y-82195952D02*
X121019047Y-82053095D01*
X121019047Y-82053095D02*
X120971428Y-81957857D01*
X120971428Y-81957857D02*
X120923809Y-81815000D01*
X120923809Y-81815000D02*
X120876190Y-81576904D01*
X120876190Y-81576904D02*
X120876190Y-81386428D01*
X120876190Y-81386428D02*
X120923809Y-81148333D01*
X120923809Y-81148333D02*
X120971428Y-81005476D01*
X120971428Y-81005476D02*
X121019047Y-80910238D01*
X121019047Y-80910238D02*
X121114285Y-80767380D01*
X121114285Y-80767380D02*
X121161904Y-80719761D01*
X130685714Y-85662619D02*
X130685714Y-86376904D01*
X130685714Y-86376904D02*
X130733333Y-86519761D01*
X130733333Y-86519761D02*
X130828571Y-86615000D01*
X130828571Y-86615000D02*
X130971428Y-86662619D01*
X130971428Y-86662619D02*
X131066666Y-86662619D01*
X130257142Y-85757857D02*
X130209523Y-85710238D01*
X130209523Y-85710238D02*
X130114285Y-85662619D01*
X130114285Y-85662619D02*
X129876190Y-85662619D01*
X129876190Y-85662619D02*
X129780952Y-85710238D01*
X129780952Y-85710238D02*
X129733333Y-85757857D01*
X129733333Y-85757857D02*
X129685714Y-85853095D01*
X129685714Y-85853095D02*
X129685714Y-85948333D01*
X129685714Y-85948333D02*
X129733333Y-86091190D01*
X129733333Y-86091190D02*
X130304761Y-86662619D01*
X130304761Y-86662619D02*
X129685714Y-86662619D01*
X129066666Y-85662619D02*
X128971428Y-85662619D01*
X128971428Y-85662619D02*
X128876190Y-85710238D01*
X128876190Y-85710238D02*
X128828571Y-85757857D01*
X128828571Y-85757857D02*
X128780952Y-85853095D01*
X128780952Y-85853095D02*
X128733333Y-86043571D01*
X128733333Y-86043571D02*
X128733333Y-86281666D01*
X128733333Y-86281666D02*
X128780952Y-86472142D01*
X128780952Y-86472142D02*
X128828571Y-86567380D01*
X128828571Y-86567380D02*
X128876190Y-86615000D01*
X128876190Y-86615000D02*
X128971428Y-86662619D01*
X128971428Y-86662619D02*
X129066666Y-86662619D01*
X129066666Y-86662619D02*
X129161904Y-86615000D01*
X129161904Y-86615000D02*
X129209523Y-86567380D01*
X129209523Y-86567380D02*
X129257142Y-86472142D01*
X129257142Y-86472142D02*
X129304761Y-86281666D01*
X129304761Y-86281666D02*
X129304761Y-86043571D01*
X129304761Y-86043571D02*
X129257142Y-85853095D01*
X129257142Y-85853095D02*
X129209523Y-85757857D01*
X129209523Y-85757857D02*
X129161904Y-85710238D01*
X129161904Y-85710238D02*
X129066666Y-85662619D01*
X128352380Y-85757857D02*
X128304761Y-85710238D01*
X128304761Y-85710238D02*
X128209523Y-85662619D01*
X128209523Y-85662619D02*
X127971428Y-85662619D01*
X127971428Y-85662619D02*
X127876190Y-85710238D01*
X127876190Y-85710238D02*
X127828571Y-85757857D01*
X127828571Y-85757857D02*
X127780952Y-85853095D01*
X127780952Y-85853095D02*
X127780952Y-85948333D01*
X127780952Y-85948333D02*
X127828571Y-86091190D01*
X127828571Y-86091190D02*
X128399999Y-86662619D01*
X128399999Y-86662619D02*
X127780952Y-86662619D01*
%TO.C,JP1401*%
X147476904Y-72385714D02*
X147476904Y-72861904D01*
X147762619Y-72290476D02*
X146762619Y-72623809D01*
X146762619Y-72623809D02*
X147762619Y-72957142D01*
X147762619Y-73290476D02*
X146762619Y-73290476D01*
X146762619Y-73290476D02*
X146762619Y-73528571D01*
X146762619Y-73528571D02*
X146810238Y-73671428D01*
X146810238Y-73671428D02*
X146905476Y-73766666D01*
X146905476Y-73766666D02*
X147000714Y-73814285D01*
X147000714Y-73814285D02*
X147191190Y-73861904D01*
X147191190Y-73861904D02*
X147334047Y-73861904D01*
X147334047Y-73861904D02*
X147524523Y-73814285D01*
X147524523Y-73814285D02*
X147619761Y-73766666D01*
X147619761Y-73766666D02*
X147715000Y-73671428D01*
X147715000Y-73671428D02*
X147762619Y-73528571D01*
X147762619Y-73528571D02*
X147762619Y-73290476D01*
X147762619Y-74290476D02*
X146762619Y-74290476D01*
X146762619Y-74290476D02*
X146762619Y-74528571D01*
X146762619Y-74528571D02*
X146810238Y-74671428D01*
X146810238Y-74671428D02*
X146905476Y-74766666D01*
X146905476Y-74766666D02*
X147000714Y-74814285D01*
X147000714Y-74814285D02*
X147191190Y-74861904D01*
X147191190Y-74861904D02*
X147334047Y-74861904D01*
X147334047Y-74861904D02*
X147524523Y-74814285D01*
X147524523Y-74814285D02*
X147619761Y-74766666D01*
X147619761Y-74766666D02*
X147715000Y-74671428D01*
X147715000Y-74671428D02*
X147762619Y-74528571D01*
X147762619Y-74528571D02*
X147762619Y-74290476D01*
X147762619Y-75861904D02*
X147286428Y-75528571D01*
X147762619Y-75290476D02*
X146762619Y-75290476D01*
X146762619Y-75290476D02*
X146762619Y-75671428D01*
X146762619Y-75671428D02*
X146810238Y-75766666D01*
X146810238Y-75766666D02*
X146857857Y-75814285D01*
X146857857Y-75814285D02*
X146953095Y-75861904D01*
X146953095Y-75861904D02*
X147095952Y-75861904D01*
X147095952Y-75861904D02*
X147191190Y-75814285D01*
X147191190Y-75814285D02*
X147238809Y-75766666D01*
X147238809Y-75766666D02*
X147286428Y-75671428D01*
X147286428Y-75671428D02*
X147286428Y-75290476D01*
X146762619Y-76480952D02*
X146762619Y-76576190D01*
X146762619Y-76576190D02*
X146810238Y-76671428D01*
X146810238Y-76671428D02*
X146857857Y-76719047D01*
X146857857Y-76719047D02*
X146953095Y-76766666D01*
X146953095Y-76766666D02*
X147143571Y-76814285D01*
X147143571Y-76814285D02*
X147381666Y-76814285D01*
X147381666Y-76814285D02*
X147572142Y-76766666D01*
X147572142Y-76766666D02*
X147667380Y-76719047D01*
X147667380Y-76719047D02*
X147715000Y-76671428D01*
X147715000Y-76671428D02*
X147762619Y-76576190D01*
X147762619Y-76576190D02*
X147762619Y-76480952D01*
X147762619Y-76480952D02*
X147715000Y-76385714D01*
X147715000Y-76385714D02*
X147667380Y-76338095D01*
X147667380Y-76338095D02*
X147572142Y-76290476D01*
X147572142Y-76290476D02*
X147381666Y-76242857D01*
X147381666Y-76242857D02*
X147143571Y-76242857D01*
X147143571Y-76242857D02*
X146953095Y-76290476D01*
X146953095Y-76290476D02*
X146857857Y-76338095D01*
X146857857Y-76338095D02*
X146810238Y-76385714D01*
X146810238Y-76385714D02*
X146762619Y-76480952D01*
%TO.C,JP2*%
X82545238Y-60485238D02*
X82640476Y-60437619D01*
X82640476Y-60437619D02*
X82783333Y-60437619D01*
X82783333Y-60437619D02*
X82926190Y-60485238D01*
X82926190Y-60485238D02*
X83021428Y-60580476D01*
X83021428Y-60580476D02*
X83069047Y-60675714D01*
X83069047Y-60675714D02*
X83116666Y-60866190D01*
X83116666Y-60866190D02*
X83116666Y-61009047D01*
X83116666Y-61009047D02*
X83069047Y-61199523D01*
X83069047Y-61199523D02*
X83021428Y-61294761D01*
X83021428Y-61294761D02*
X82926190Y-61390000D01*
X82926190Y-61390000D02*
X82783333Y-61437619D01*
X82783333Y-61437619D02*
X82688095Y-61437619D01*
X82688095Y-61437619D02*
X82545238Y-61390000D01*
X82545238Y-61390000D02*
X82497619Y-61342380D01*
X82497619Y-61342380D02*
X82497619Y-61009047D01*
X82497619Y-61009047D02*
X82688095Y-61009047D01*
X82069047Y-61437619D02*
X82069047Y-60437619D01*
X82069047Y-60437619D02*
X81497619Y-61437619D01*
X81497619Y-61437619D02*
X81497619Y-60437619D01*
X81069047Y-61390000D02*
X80926190Y-61437619D01*
X80926190Y-61437619D02*
X80688095Y-61437619D01*
X80688095Y-61437619D02*
X80592857Y-61390000D01*
X80592857Y-61390000D02*
X80545238Y-61342380D01*
X80545238Y-61342380D02*
X80497619Y-61247142D01*
X80497619Y-61247142D02*
X80497619Y-61151904D01*
X80497619Y-61151904D02*
X80545238Y-61056666D01*
X80545238Y-61056666D02*
X80592857Y-61009047D01*
X80592857Y-61009047D02*
X80688095Y-60961428D01*
X80688095Y-60961428D02*
X80878571Y-60913809D01*
X80878571Y-60913809D02*
X80973809Y-60866190D01*
X80973809Y-60866190D02*
X81021428Y-60818571D01*
X81021428Y-60818571D02*
X81069047Y-60723333D01*
X81069047Y-60723333D02*
X81069047Y-60628095D01*
X81069047Y-60628095D02*
X81021428Y-60532857D01*
X81021428Y-60532857D02*
X80973809Y-60485238D01*
X80973809Y-60485238D02*
X80878571Y-60437619D01*
X80878571Y-60437619D02*
X80640476Y-60437619D01*
X80640476Y-60437619D02*
X80497619Y-60485238D01*
X80116666Y-61390000D02*
X79973809Y-61437619D01*
X79973809Y-61437619D02*
X79735714Y-61437619D01*
X79735714Y-61437619D02*
X79640476Y-61390000D01*
X79640476Y-61390000D02*
X79592857Y-61342380D01*
X79592857Y-61342380D02*
X79545238Y-61247142D01*
X79545238Y-61247142D02*
X79545238Y-61151904D01*
X79545238Y-61151904D02*
X79592857Y-61056666D01*
X79592857Y-61056666D02*
X79640476Y-61009047D01*
X79640476Y-61009047D02*
X79735714Y-60961428D01*
X79735714Y-60961428D02*
X79926190Y-60913809D01*
X79926190Y-60913809D02*
X80021428Y-60866190D01*
X80021428Y-60866190D02*
X80069047Y-60818571D01*
X80069047Y-60818571D02*
X80116666Y-60723333D01*
X80116666Y-60723333D02*
X80116666Y-60628095D01*
X80116666Y-60628095D02*
X80069047Y-60532857D01*
X80069047Y-60532857D02*
X80021428Y-60485238D01*
X80021428Y-60485238D02*
X79926190Y-60437619D01*
X79926190Y-60437619D02*
X79688095Y-60437619D01*
X79688095Y-60437619D02*
X79545238Y-60485238D01*
X79354762Y-61532857D02*
X78592857Y-61532857D01*
X77783333Y-61342380D02*
X77830952Y-61390000D01*
X77830952Y-61390000D02*
X77973809Y-61437619D01*
X77973809Y-61437619D02*
X78069047Y-61437619D01*
X78069047Y-61437619D02*
X78211904Y-61390000D01*
X78211904Y-61390000D02*
X78307142Y-61294761D01*
X78307142Y-61294761D02*
X78354761Y-61199523D01*
X78354761Y-61199523D02*
X78402380Y-61009047D01*
X78402380Y-61009047D02*
X78402380Y-60866190D01*
X78402380Y-60866190D02*
X78354761Y-60675714D01*
X78354761Y-60675714D02*
X78307142Y-60580476D01*
X78307142Y-60580476D02*
X78211904Y-60485238D01*
X78211904Y-60485238D02*
X78069047Y-60437619D01*
X78069047Y-60437619D02*
X77973809Y-60437619D01*
X77973809Y-60437619D02*
X77830952Y-60485238D01*
X77830952Y-60485238D02*
X77783333Y-60532857D01*
X77164285Y-60437619D02*
X76973809Y-60437619D01*
X76973809Y-60437619D02*
X76878571Y-60485238D01*
X76878571Y-60485238D02*
X76783333Y-60580476D01*
X76783333Y-60580476D02*
X76735714Y-60770952D01*
X76735714Y-60770952D02*
X76735714Y-61104285D01*
X76735714Y-61104285D02*
X76783333Y-61294761D01*
X76783333Y-61294761D02*
X76878571Y-61390000D01*
X76878571Y-61390000D02*
X76973809Y-61437619D01*
X76973809Y-61437619D02*
X77164285Y-61437619D01*
X77164285Y-61437619D02*
X77259523Y-61390000D01*
X77259523Y-61390000D02*
X77354761Y-61294761D01*
X77354761Y-61294761D02*
X77402380Y-61104285D01*
X77402380Y-61104285D02*
X77402380Y-60770952D01*
X77402380Y-60770952D02*
X77354761Y-60580476D01*
X77354761Y-60580476D02*
X77259523Y-60485238D01*
X77259523Y-60485238D02*
X77164285Y-60437619D01*
X76307142Y-61437619D02*
X76307142Y-60437619D01*
X76307142Y-60437619D02*
X75735714Y-61437619D01*
X75735714Y-61437619D02*
X75735714Y-60437619D01*
X75259523Y-61437619D02*
X75259523Y-60437619D01*
X75259523Y-60437619D02*
X74688095Y-61437619D01*
X74688095Y-61437619D02*
X74688095Y-60437619D01*
X74450000Y-61532857D02*
X73688095Y-61532857D01*
X73449999Y-60913809D02*
X73116666Y-60913809D01*
X72973809Y-61437619D02*
X73449999Y-61437619D01*
X73449999Y-61437619D02*
X73449999Y-60437619D01*
X73449999Y-60437619D02*
X72973809Y-60437619D01*
X72640475Y-60437619D02*
X71973809Y-61437619D01*
X71973809Y-60437619D02*
X72640475Y-61437619D01*
X71735713Y-60437619D02*
X71164285Y-60437619D01*
X71449999Y-61437619D02*
X71449999Y-60437619D01*
X71069047Y-61532857D02*
X70307142Y-61532857D01*
X70069046Y-61437619D02*
X70069046Y-60437619D01*
X69592856Y-61437619D02*
X69592856Y-60437619D01*
X69592856Y-60437619D02*
X69021428Y-61437619D01*
X69021428Y-61437619D02*
X69021428Y-60437619D01*
X68688094Y-60437619D02*
X68116666Y-60437619D01*
X68402380Y-61437619D02*
X68402380Y-60437619D01*
X68021428Y-61532857D02*
X67259523Y-61532857D01*
X67069046Y-61390000D02*
X66926189Y-61437619D01*
X66926189Y-61437619D02*
X66688094Y-61437619D01*
X66688094Y-61437619D02*
X66592856Y-61390000D01*
X66592856Y-61390000D02*
X66545237Y-61342380D01*
X66545237Y-61342380D02*
X66497618Y-61247142D01*
X66497618Y-61247142D02*
X66497618Y-61151904D01*
X66497618Y-61151904D02*
X66545237Y-61056666D01*
X66545237Y-61056666D02*
X66592856Y-61009047D01*
X66592856Y-61009047D02*
X66688094Y-60961428D01*
X66688094Y-60961428D02*
X66878570Y-60913809D01*
X66878570Y-60913809D02*
X66973808Y-60866190D01*
X66973808Y-60866190D02*
X67021427Y-60818571D01*
X67021427Y-60818571D02*
X67069046Y-60723333D01*
X67069046Y-60723333D02*
X67069046Y-60628095D01*
X67069046Y-60628095D02*
X67021427Y-60532857D01*
X67021427Y-60532857D02*
X66973808Y-60485238D01*
X66973808Y-60485238D02*
X66878570Y-60437619D01*
X66878570Y-60437619D02*
X66640475Y-60437619D01*
X66640475Y-60437619D02*
X66497618Y-60485238D01*
X66069046Y-60913809D02*
X65735713Y-60913809D01*
X65592856Y-61437619D02*
X66069046Y-61437619D01*
X66069046Y-61437619D02*
X66069046Y-60437619D01*
X66069046Y-60437619D02*
X65592856Y-60437619D01*
X64688094Y-61437619D02*
X65164284Y-61437619D01*
X65164284Y-61437619D02*
X65164284Y-60437619D01*
%TO.C,TP903*%
X157695237Y-72912619D02*
X157361904Y-73912619D01*
X157361904Y-73912619D02*
X157028571Y-72912619D01*
X156695237Y-73912619D02*
X156695237Y-72912619D01*
X156219047Y-73912619D02*
X156219047Y-72912619D01*
X156219047Y-72912619D02*
X155647619Y-73912619D01*
X155647619Y-73912619D02*
X155647619Y-72912619D01*
X158814285Y-69912619D02*
X158242857Y-69912619D01*
X158528571Y-70912619D02*
X158528571Y-69912619D01*
X157909523Y-70912619D02*
X157909523Y-69912619D01*
X157909523Y-69912619D02*
X157528571Y-69912619D01*
X157528571Y-69912619D02*
X157433333Y-69960238D01*
X157433333Y-69960238D02*
X157385714Y-70007857D01*
X157385714Y-70007857D02*
X157338095Y-70103095D01*
X157338095Y-70103095D02*
X157338095Y-70245952D01*
X157338095Y-70245952D02*
X157385714Y-70341190D01*
X157385714Y-70341190D02*
X157433333Y-70388809D01*
X157433333Y-70388809D02*
X157528571Y-70436428D01*
X157528571Y-70436428D02*
X157909523Y-70436428D01*
X156861904Y-70912619D02*
X156671428Y-70912619D01*
X156671428Y-70912619D02*
X156576190Y-70865000D01*
X156576190Y-70865000D02*
X156528571Y-70817380D01*
X156528571Y-70817380D02*
X156433333Y-70674523D01*
X156433333Y-70674523D02*
X156385714Y-70484047D01*
X156385714Y-70484047D02*
X156385714Y-70103095D01*
X156385714Y-70103095D02*
X156433333Y-70007857D01*
X156433333Y-70007857D02*
X156480952Y-69960238D01*
X156480952Y-69960238D02*
X156576190Y-69912619D01*
X156576190Y-69912619D02*
X156766666Y-69912619D01*
X156766666Y-69912619D02*
X156861904Y-69960238D01*
X156861904Y-69960238D02*
X156909523Y-70007857D01*
X156909523Y-70007857D02*
X156957142Y-70103095D01*
X156957142Y-70103095D02*
X156957142Y-70341190D01*
X156957142Y-70341190D02*
X156909523Y-70436428D01*
X156909523Y-70436428D02*
X156861904Y-70484047D01*
X156861904Y-70484047D02*
X156766666Y-70531666D01*
X156766666Y-70531666D02*
X156576190Y-70531666D01*
X156576190Y-70531666D02*
X156480952Y-70484047D01*
X156480952Y-70484047D02*
X156433333Y-70436428D01*
X156433333Y-70436428D02*
X156385714Y-70341190D01*
X155766666Y-69912619D02*
X155671428Y-69912619D01*
X155671428Y-69912619D02*
X155576190Y-69960238D01*
X155576190Y-69960238D02*
X155528571Y-70007857D01*
X155528571Y-70007857D02*
X155480952Y-70103095D01*
X155480952Y-70103095D02*
X155433333Y-70293571D01*
X155433333Y-70293571D02*
X155433333Y-70531666D01*
X155433333Y-70531666D02*
X155480952Y-70722142D01*
X155480952Y-70722142D02*
X155528571Y-70817380D01*
X155528571Y-70817380D02*
X155576190Y-70865000D01*
X155576190Y-70865000D02*
X155671428Y-70912619D01*
X155671428Y-70912619D02*
X155766666Y-70912619D01*
X155766666Y-70912619D02*
X155861904Y-70865000D01*
X155861904Y-70865000D02*
X155909523Y-70817380D01*
X155909523Y-70817380D02*
X155957142Y-70722142D01*
X155957142Y-70722142D02*
X156004761Y-70531666D01*
X156004761Y-70531666D02*
X156004761Y-70293571D01*
X156004761Y-70293571D02*
X155957142Y-70103095D01*
X155957142Y-70103095D02*
X155909523Y-70007857D01*
X155909523Y-70007857D02*
X155861904Y-69960238D01*
X155861904Y-69960238D02*
X155766666Y-69912619D01*
X155099999Y-69912619D02*
X154480952Y-69912619D01*
X154480952Y-69912619D02*
X154814285Y-70293571D01*
X154814285Y-70293571D02*
X154671428Y-70293571D01*
X154671428Y-70293571D02*
X154576190Y-70341190D01*
X154576190Y-70341190D02*
X154528571Y-70388809D01*
X154528571Y-70388809D02*
X154480952Y-70484047D01*
X154480952Y-70484047D02*
X154480952Y-70722142D01*
X154480952Y-70722142D02*
X154528571Y-70817380D01*
X154528571Y-70817380D02*
X154576190Y-70865000D01*
X154576190Y-70865000D02*
X154671428Y-70912619D01*
X154671428Y-70912619D02*
X154957142Y-70912619D01*
X154957142Y-70912619D02*
X155052380Y-70865000D01*
X155052380Y-70865000D02*
X155099999Y-70817380D01*
%TO.C,BT301*%
X63519509Y-68597639D02*
X63586853Y-68597639D01*
X63586853Y-68597639D02*
X63721540Y-68530295D01*
X63721540Y-68530295D02*
X63788883Y-68462952D01*
X63788883Y-68462952D02*
X63856227Y-68328265D01*
X63856227Y-68328265D02*
X63856227Y-68193578D01*
X63856227Y-68193578D02*
X63822555Y-68092563D01*
X63822555Y-68092563D02*
X63721540Y-67924204D01*
X63721540Y-67924204D02*
X63620524Y-67823189D01*
X63620524Y-67823189D02*
X63452166Y-67722173D01*
X63452166Y-67722173D02*
X63351150Y-67688502D01*
X63351150Y-67688502D02*
X63216463Y-67688502D01*
X63216463Y-67688502D02*
X63081776Y-67755845D01*
X63081776Y-67755845D02*
X63014433Y-67823189D01*
X63014433Y-67823189D02*
X62947089Y-67957876D01*
X62947089Y-67957876D02*
X62947089Y-68025219D01*
X62879746Y-69372089D02*
X62778731Y-68799669D01*
X63283807Y-68968028D02*
X62576700Y-68260921D01*
X62576700Y-68260921D02*
X62307326Y-68530295D01*
X62307326Y-68530295D02*
X62273654Y-68631311D01*
X62273654Y-68631311D02*
X62273654Y-68698654D01*
X62273654Y-68698654D02*
X62307326Y-68799669D01*
X62307326Y-68799669D02*
X62408341Y-68900685D01*
X62408341Y-68900685D02*
X62509357Y-68934356D01*
X62509357Y-68934356D02*
X62576700Y-68934356D01*
X62576700Y-68934356D02*
X62677715Y-68900685D01*
X62677715Y-68900685D02*
X62947089Y-68631311D01*
X61970609Y-69001700D02*
X61903265Y-69001700D01*
X61903265Y-69001700D02*
X61802250Y-69035372D01*
X61802250Y-69035372D02*
X61633891Y-69203730D01*
X61633891Y-69203730D02*
X61600219Y-69304746D01*
X61600219Y-69304746D02*
X61600219Y-69372089D01*
X61600219Y-69372089D02*
X61633891Y-69473104D01*
X61633891Y-69473104D02*
X61701235Y-69540448D01*
X61701235Y-69540448D02*
X61835922Y-69607791D01*
X61835922Y-69607791D02*
X62644044Y-69607791D01*
X62644044Y-69607791D02*
X62206311Y-70045524D01*
X61061471Y-69776150D02*
X60994128Y-69843494D01*
X60994128Y-69843494D02*
X60960456Y-69944509D01*
X60960456Y-69944509D02*
X60960456Y-70011853D01*
X60960456Y-70011853D02*
X60994128Y-70112868D01*
X60994128Y-70112868D02*
X61095143Y-70281227D01*
X61095143Y-70281227D02*
X61263502Y-70449585D01*
X61263502Y-70449585D02*
X61431861Y-70550601D01*
X61431861Y-70550601D02*
X61532876Y-70584272D01*
X61532876Y-70584272D02*
X61600219Y-70584272D01*
X61600219Y-70584272D02*
X61701235Y-70550601D01*
X61701235Y-70550601D02*
X61768578Y-70483257D01*
X61768578Y-70483257D02*
X61802250Y-70382242D01*
X61802250Y-70382242D02*
X61802250Y-70314898D01*
X61802250Y-70314898D02*
X61768578Y-70213883D01*
X61768578Y-70213883D02*
X61667563Y-70045524D01*
X61667563Y-70045524D02*
X61499204Y-69877166D01*
X61499204Y-69877166D02*
X61330845Y-69776150D01*
X61330845Y-69776150D02*
X61229830Y-69742479D01*
X61229830Y-69742479D02*
X61162487Y-69742479D01*
X61162487Y-69742479D02*
X61061471Y-69776150D01*
X60590067Y-70247555D02*
X60152334Y-70685288D01*
X60152334Y-70685288D02*
X60657410Y-70718959D01*
X60657410Y-70718959D02*
X60556395Y-70819975D01*
X60556395Y-70819975D02*
X60522723Y-70920990D01*
X60522723Y-70920990D02*
X60522723Y-70988333D01*
X60522723Y-70988333D02*
X60556395Y-71089349D01*
X60556395Y-71089349D02*
X60724754Y-71257707D01*
X60724754Y-71257707D02*
X60825769Y-71291379D01*
X60825769Y-71291379D02*
X60893113Y-71291379D01*
X60893113Y-71291379D02*
X60994128Y-71257707D01*
X60994128Y-71257707D02*
X61196158Y-71055677D01*
X61196158Y-71055677D02*
X61229830Y-70954662D01*
X61229830Y-70954662D02*
X61229830Y-70887318D01*
X59950303Y-71022005D02*
X59882960Y-71022005D01*
X59882960Y-71022005D02*
X59781945Y-71055677D01*
X59781945Y-71055677D02*
X59613586Y-71224036D01*
X59613586Y-71224036D02*
X59579914Y-71325051D01*
X59579914Y-71325051D02*
X59579914Y-71392394D01*
X59579914Y-71392394D02*
X59613586Y-71493410D01*
X59613586Y-71493410D02*
X59680929Y-71560753D01*
X59680929Y-71560753D02*
X59815616Y-71628097D01*
X59815616Y-71628097D02*
X60623738Y-71628097D01*
X60623738Y-71628097D02*
X60186006Y-72065829D01*
X41856787Y-60380047D02*
X41789444Y-60514734D01*
X41789444Y-60514734D02*
X41789444Y-60582078D01*
X41789444Y-60582078D02*
X41823116Y-60683093D01*
X41823116Y-60683093D02*
X41924131Y-60784108D01*
X41924131Y-60784108D02*
X42025146Y-60817780D01*
X42025146Y-60817780D02*
X42092490Y-60817780D01*
X42092490Y-60817780D02*
X42193505Y-60784108D01*
X42193505Y-60784108D02*
X42462879Y-60514734D01*
X42462879Y-60514734D02*
X41755772Y-59807627D01*
X41755772Y-59807627D02*
X41520070Y-60043330D01*
X41520070Y-60043330D02*
X41486398Y-60144345D01*
X41486398Y-60144345D02*
X41486398Y-60211688D01*
X41486398Y-60211688D02*
X41520070Y-60312704D01*
X41520070Y-60312704D02*
X41587413Y-60380047D01*
X41587413Y-60380047D02*
X41688429Y-60413719D01*
X41688429Y-60413719D02*
X41755772Y-60413719D01*
X41755772Y-60413719D02*
X41856787Y-60380047D01*
X41856787Y-60380047D02*
X42092490Y-60144345D01*
X41149681Y-60413719D02*
X40745620Y-60817780D01*
X41654757Y-61322856D02*
X40947650Y-60615749D01*
X40577261Y-60986139D02*
X40139528Y-61423872D01*
X40139528Y-61423872D02*
X40644604Y-61457543D01*
X40644604Y-61457543D02*
X40543589Y-61558559D01*
X40543589Y-61558559D02*
X40509917Y-61659574D01*
X40509917Y-61659574D02*
X40509917Y-61726917D01*
X40509917Y-61726917D02*
X40543589Y-61827933D01*
X40543589Y-61827933D02*
X40711948Y-61996291D01*
X40711948Y-61996291D02*
X40812963Y-62029963D01*
X40812963Y-62029963D02*
X40880306Y-62029963D01*
X40880306Y-62029963D02*
X40981322Y-61996291D01*
X40981322Y-61996291D02*
X41183352Y-61794261D01*
X41183352Y-61794261D02*
X41217024Y-61693246D01*
X41217024Y-61693246D02*
X41217024Y-61625902D01*
X39701795Y-61861605D02*
X39634452Y-61928948D01*
X39634452Y-61928948D02*
X39600780Y-62029963D01*
X39600780Y-62029963D02*
X39600780Y-62097307D01*
X39600780Y-62097307D02*
X39634452Y-62198322D01*
X39634452Y-62198322D02*
X39735467Y-62366681D01*
X39735467Y-62366681D02*
X39903826Y-62535040D01*
X39903826Y-62535040D02*
X40072184Y-62636055D01*
X40072184Y-62636055D02*
X40173200Y-62669727D01*
X40173200Y-62669727D02*
X40240543Y-62669727D01*
X40240543Y-62669727D02*
X40341558Y-62636055D01*
X40341558Y-62636055D02*
X40408902Y-62568711D01*
X40408902Y-62568711D02*
X40442574Y-62467696D01*
X40442574Y-62467696D02*
X40442574Y-62400353D01*
X40442574Y-62400353D02*
X40408902Y-62299337D01*
X40408902Y-62299337D02*
X40307887Y-62130979D01*
X40307887Y-62130979D02*
X40139528Y-61962620D01*
X40139528Y-61962620D02*
X39971169Y-61861605D01*
X39971169Y-61861605D02*
X39870154Y-61827933D01*
X39870154Y-61827933D02*
X39802810Y-61827933D01*
X39802810Y-61827933D02*
X39701795Y-61861605D01*
X39499765Y-63477849D02*
X39903826Y-63073788D01*
X39701795Y-63275818D02*
X38994688Y-62568711D01*
X38994688Y-62568711D02*
X39163047Y-62602383D01*
X39163047Y-62602383D02*
X39297734Y-62602383D01*
X39297734Y-62602383D02*
X39398749Y-62568711D01*
%TO.C,JP1*%
X81973810Y-63035238D02*
X82069048Y-62987619D01*
X82069048Y-62987619D02*
X82211905Y-62987619D01*
X82211905Y-62987619D02*
X82354762Y-63035238D01*
X82354762Y-63035238D02*
X82450000Y-63130476D01*
X82450000Y-63130476D02*
X82497619Y-63225714D01*
X82497619Y-63225714D02*
X82545238Y-63416190D01*
X82545238Y-63416190D02*
X82545238Y-63559047D01*
X82545238Y-63559047D02*
X82497619Y-63749523D01*
X82497619Y-63749523D02*
X82450000Y-63844761D01*
X82450000Y-63844761D02*
X82354762Y-63940000D01*
X82354762Y-63940000D02*
X82211905Y-63987619D01*
X82211905Y-63987619D02*
X82116667Y-63987619D01*
X82116667Y-63987619D02*
X81973810Y-63940000D01*
X81973810Y-63940000D02*
X81926191Y-63892380D01*
X81926191Y-63892380D02*
X81926191Y-63559047D01*
X81926191Y-63559047D02*
X82116667Y-63559047D01*
X81497619Y-63987619D02*
X81497619Y-62987619D01*
X81497619Y-62987619D02*
X80926191Y-63987619D01*
X80926191Y-63987619D02*
X80926191Y-62987619D01*
X80497619Y-63940000D02*
X80354762Y-63987619D01*
X80354762Y-63987619D02*
X80116667Y-63987619D01*
X80116667Y-63987619D02*
X80021429Y-63940000D01*
X80021429Y-63940000D02*
X79973810Y-63892380D01*
X79973810Y-63892380D02*
X79926191Y-63797142D01*
X79926191Y-63797142D02*
X79926191Y-63701904D01*
X79926191Y-63701904D02*
X79973810Y-63606666D01*
X79973810Y-63606666D02*
X80021429Y-63559047D01*
X80021429Y-63559047D02*
X80116667Y-63511428D01*
X80116667Y-63511428D02*
X80307143Y-63463809D01*
X80307143Y-63463809D02*
X80402381Y-63416190D01*
X80402381Y-63416190D02*
X80450000Y-63368571D01*
X80450000Y-63368571D02*
X80497619Y-63273333D01*
X80497619Y-63273333D02*
X80497619Y-63178095D01*
X80497619Y-63178095D02*
X80450000Y-63082857D01*
X80450000Y-63082857D02*
X80402381Y-63035238D01*
X80402381Y-63035238D02*
X80307143Y-62987619D01*
X80307143Y-62987619D02*
X80069048Y-62987619D01*
X80069048Y-62987619D02*
X79926191Y-63035238D01*
X79545238Y-63940000D02*
X79402381Y-63987619D01*
X79402381Y-63987619D02*
X79164286Y-63987619D01*
X79164286Y-63987619D02*
X79069048Y-63940000D01*
X79069048Y-63940000D02*
X79021429Y-63892380D01*
X79021429Y-63892380D02*
X78973810Y-63797142D01*
X78973810Y-63797142D02*
X78973810Y-63701904D01*
X78973810Y-63701904D02*
X79021429Y-63606666D01*
X79021429Y-63606666D02*
X79069048Y-63559047D01*
X79069048Y-63559047D02*
X79164286Y-63511428D01*
X79164286Y-63511428D02*
X79354762Y-63463809D01*
X79354762Y-63463809D02*
X79450000Y-63416190D01*
X79450000Y-63416190D02*
X79497619Y-63368571D01*
X79497619Y-63368571D02*
X79545238Y-63273333D01*
X79545238Y-63273333D02*
X79545238Y-63178095D01*
X79545238Y-63178095D02*
X79497619Y-63082857D01*
X79497619Y-63082857D02*
X79450000Y-63035238D01*
X79450000Y-63035238D02*
X79354762Y-62987619D01*
X79354762Y-62987619D02*
X79116667Y-62987619D01*
X79116667Y-62987619D02*
X78973810Y-63035238D01*
X78783334Y-64082857D02*
X78021429Y-64082857D01*
X77211905Y-63892380D02*
X77259524Y-63940000D01*
X77259524Y-63940000D02*
X77402381Y-63987619D01*
X77402381Y-63987619D02*
X77497619Y-63987619D01*
X77497619Y-63987619D02*
X77640476Y-63940000D01*
X77640476Y-63940000D02*
X77735714Y-63844761D01*
X77735714Y-63844761D02*
X77783333Y-63749523D01*
X77783333Y-63749523D02*
X77830952Y-63559047D01*
X77830952Y-63559047D02*
X77830952Y-63416190D01*
X77830952Y-63416190D02*
X77783333Y-63225714D01*
X77783333Y-63225714D02*
X77735714Y-63130476D01*
X77735714Y-63130476D02*
X77640476Y-63035238D01*
X77640476Y-63035238D02*
X77497619Y-62987619D01*
X77497619Y-62987619D02*
X77402381Y-62987619D01*
X77402381Y-62987619D02*
X77259524Y-63035238D01*
X77259524Y-63035238D02*
X77211905Y-63082857D01*
X76592857Y-62987619D02*
X76402381Y-62987619D01*
X76402381Y-62987619D02*
X76307143Y-63035238D01*
X76307143Y-63035238D02*
X76211905Y-63130476D01*
X76211905Y-63130476D02*
X76164286Y-63320952D01*
X76164286Y-63320952D02*
X76164286Y-63654285D01*
X76164286Y-63654285D02*
X76211905Y-63844761D01*
X76211905Y-63844761D02*
X76307143Y-63940000D01*
X76307143Y-63940000D02*
X76402381Y-63987619D01*
X76402381Y-63987619D02*
X76592857Y-63987619D01*
X76592857Y-63987619D02*
X76688095Y-63940000D01*
X76688095Y-63940000D02*
X76783333Y-63844761D01*
X76783333Y-63844761D02*
X76830952Y-63654285D01*
X76830952Y-63654285D02*
X76830952Y-63320952D01*
X76830952Y-63320952D02*
X76783333Y-63130476D01*
X76783333Y-63130476D02*
X76688095Y-63035238D01*
X76688095Y-63035238D02*
X76592857Y-62987619D01*
X75735714Y-63987619D02*
X75735714Y-62987619D01*
X75735714Y-62987619D02*
X75164286Y-63987619D01*
X75164286Y-63987619D02*
X75164286Y-62987619D01*
X74688095Y-63987619D02*
X74688095Y-62987619D01*
X74688095Y-62987619D02*
X74116667Y-63987619D01*
X74116667Y-63987619D02*
X74116667Y-62987619D01*
X73878572Y-64082857D02*
X73116667Y-64082857D01*
X72307143Y-63987619D02*
X72640476Y-63511428D01*
X72878571Y-63987619D02*
X72878571Y-62987619D01*
X72878571Y-62987619D02*
X72497619Y-62987619D01*
X72497619Y-62987619D02*
X72402381Y-63035238D01*
X72402381Y-63035238D02*
X72354762Y-63082857D01*
X72354762Y-63082857D02*
X72307143Y-63178095D01*
X72307143Y-63178095D02*
X72307143Y-63320952D01*
X72307143Y-63320952D02*
X72354762Y-63416190D01*
X72354762Y-63416190D02*
X72402381Y-63463809D01*
X72402381Y-63463809D02*
X72497619Y-63511428D01*
X72497619Y-63511428D02*
X72878571Y-63511428D01*
X71878571Y-63463809D02*
X71545238Y-63463809D01*
X71402381Y-63987619D02*
X71878571Y-63987619D01*
X71878571Y-63987619D02*
X71878571Y-62987619D01*
X71878571Y-62987619D02*
X71402381Y-62987619D01*
X71021428Y-63940000D02*
X70878571Y-63987619D01*
X70878571Y-63987619D02*
X70640476Y-63987619D01*
X70640476Y-63987619D02*
X70545238Y-63940000D01*
X70545238Y-63940000D02*
X70497619Y-63892380D01*
X70497619Y-63892380D02*
X70450000Y-63797142D01*
X70450000Y-63797142D02*
X70450000Y-63701904D01*
X70450000Y-63701904D02*
X70497619Y-63606666D01*
X70497619Y-63606666D02*
X70545238Y-63559047D01*
X70545238Y-63559047D02*
X70640476Y-63511428D01*
X70640476Y-63511428D02*
X70830952Y-63463809D01*
X70830952Y-63463809D02*
X70926190Y-63416190D01*
X70926190Y-63416190D02*
X70973809Y-63368571D01*
X70973809Y-63368571D02*
X71021428Y-63273333D01*
X71021428Y-63273333D02*
X71021428Y-63178095D01*
X71021428Y-63178095D02*
X70973809Y-63082857D01*
X70973809Y-63082857D02*
X70926190Y-63035238D01*
X70926190Y-63035238D02*
X70830952Y-62987619D01*
X70830952Y-62987619D02*
X70592857Y-62987619D01*
X70592857Y-62987619D02*
X70450000Y-63035238D01*
X70021428Y-63463809D02*
X69688095Y-63463809D01*
X69545238Y-63987619D02*
X70021428Y-63987619D01*
X70021428Y-63987619D02*
X70021428Y-62987619D01*
X70021428Y-62987619D02*
X69545238Y-62987619D01*
X69259523Y-62987619D02*
X68688095Y-62987619D01*
X68973809Y-63987619D02*
X68973809Y-62987619D01*
X73016667Y-62540000D02*
X68692857Y-62540000D01*
X68592857Y-64082857D02*
X67830952Y-64082857D01*
X67640475Y-63940000D02*
X67497618Y-63987619D01*
X67497618Y-63987619D02*
X67259523Y-63987619D01*
X67259523Y-63987619D02*
X67164285Y-63940000D01*
X67164285Y-63940000D02*
X67116666Y-63892380D01*
X67116666Y-63892380D02*
X67069047Y-63797142D01*
X67069047Y-63797142D02*
X67069047Y-63701904D01*
X67069047Y-63701904D02*
X67116666Y-63606666D01*
X67116666Y-63606666D02*
X67164285Y-63559047D01*
X67164285Y-63559047D02*
X67259523Y-63511428D01*
X67259523Y-63511428D02*
X67449999Y-63463809D01*
X67449999Y-63463809D02*
X67545237Y-63416190D01*
X67545237Y-63416190D02*
X67592856Y-63368571D01*
X67592856Y-63368571D02*
X67640475Y-63273333D01*
X67640475Y-63273333D02*
X67640475Y-63178095D01*
X67640475Y-63178095D02*
X67592856Y-63082857D01*
X67592856Y-63082857D02*
X67545237Y-63035238D01*
X67545237Y-63035238D02*
X67449999Y-62987619D01*
X67449999Y-62987619D02*
X67211904Y-62987619D01*
X67211904Y-62987619D02*
X67069047Y-63035238D01*
X66640475Y-63463809D02*
X66307142Y-63463809D01*
X66164285Y-63987619D02*
X66640475Y-63987619D01*
X66640475Y-63987619D02*
X66640475Y-62987619D01*
X66640475Y-62987619D02*
X66164285Y-62987619D01*
X65259523Y-63987619D02*
X65735713Y-63987619D01*
X65735713Y-63987619D02*
X65735713Y-62987619D01*
D11*
%TO.C,BT301*%
X41342789Y-71092211D02*
X44736901Y-67698098D01*
X44949033Y-74698455D02*
X41342789Y-71092211D01*
X44949033Y-74698455D02*
X48343146Y-71304343D01*
X42403449Y-65364646D02*
X43817662Y-57232918D01*
X44736901Y-67698098D02*
X42403449Y-65364646D01*
X48343146Y-71304343D02*
X53116117Y-76077314D01*
X43817662Y-57232918D02*
X49191674Y-51858906D01*
X57288047Y-50409337D02*
X49191674Y-51858906D01*
X59656854Y-52778145D02*
X57288047Y-50409337D01*
X59656854Y-52778145D02*
X63050967Y-49384033D01*
X63263099Y-56384390D02*
X68036070Y-61157361D01*
X68036070Y-61157361D02*
X53116117Y-76077314D01*
X63050967Y-49384033D02*
X66657211Y-52990277D01*
X66657211Y-52990277D02*
X63263099Y-56384390D01*
%TD*%
D12*
X169000000Y-92000000D02*
G75*
G03*
X174000000Y-87000000I0J5000000D01*
G01*
X174000000Y-37000000D02*
G75*
G03*
X169000000Y-32000000I-5000000J0D01*
G01*
X174000000Y-87000000D02*
X174000000Y-37000000D01*
X169000000Y-32000000D02*
X164500000Y-32000000D01*
X114000000Y-87000000D02*
G75*
G03*
X119000000Y-92000000I5000000J0D01*
G01*
X119000000Y-32000000D02*
G75*
G03*
X114000000Y-37000000I0J-5000000D01*
G01*
X164500000Y-92000000D02*
X169000000Y-92000000D01*
X33500000Y-32000000D02*
X29000000Y-32000000D01*
X24000000Y-37000000D02*
X24000000Y-87000000D01*
X79000000Y-92000000D02*
G75*
G03*
X84000000Y-87000000I0J5000000D01*
G01*
X24000000Y-87000000D02*
G75*
G03*
X29000000Y-92000000I5000000J0D01*
G01*
X29000000Y-32000000D02*
G75*
G03*
X24000000Y-37000000I0J-5000000D01*
G01*
X29000000Y-92000000D02*
X33500000Y-92000000D01*
X83999937Y-36975063D02*
G75*
G03*
X79000001Y-31975063I-4999937J63D01*
G01*
X124750000Y-93000000D02*
X124750000Y-94000000D01*
X129250000Y-93000000D02*
X129250000Y-94000000D01*
X130500000Y-92000000D02*
X130250000Y-92000000D01*
X123750000Y-92000000D02*
X123500000Y-92000000D01*
X74500000Y-92000000D02*
X74250000Y-92000000D01*
X124750000Y-93000000D02*
G75*
G03*
X123750000Y-92000000I-1000000J0D01*
G01*
X130250000Y-92000000D02*
G75*
G03*
X129250000Y-93000000I0J-1000000D01*
G01*
X123500000Y-92000000D02*
X119000000Y-92000000D01*
X128250000Y-95000000D02*
G75*
G03*
X129250000Y-94000000I0J1000000D01*
G01*
X74250000Y-92000000D02*
G75*
G03*
X73250000Y-93000000I0J-1000000D01*
G01*
X68750000Y-93000000D02*
G75*
G03*
X67750000Y-92000000I-1000000J0D01*
G01*
X68750000Y-94000000D02*
G75*
G03*
X69750000Y-95000000I1000000J0D01*
G01*
X72250000Y-95000000D02*
X69750000Y-95000000D01*
X72250000Y-95000000D02*
G75*
G03*
X73250000Y-94000000I0J1000000D01*
G01*
X68750000Y-93000000D02*
X68750000Y-94000000D01*
X73250000Y-93000000D02*
X73250000Y-94000000D01*
X157500000Y-92000000D02*
X130500000Y-92000000D01*
X40201249Y-92000000D02*
X67750000Y-92000000D01*
X74500000Y-92000000D02*
X79000000Y-92000000D01*
X40500000Y-32000000D02*
X67500000Y-32000000D01*
X74500000Y-32000000D02*
X79000001Y-31975063D01*
X157500000Y-32000000D02*
X130500000Y-32000000D01*
X123500000Y-32000000D02*
X119000000Y-32000000D01*
X114000000Y-37000000D02*
X114000000Y-87000000D01*
X84000000Y-71250000D02*
X84000000Y-87000000D01*
X128250000Y-95000000D02*
X125750000Y-95000000D01*
X257500000Y-34500000D02*
G75*
G03*
X256500000Y-33500000I-1000000J0D01*
G01*
X260000000Y-33000000D02*
G75*
G03*
X261000000Y-34000000I1000000J0D01*
G01*
X253500000Y-58500000D02*
X256500000Y-58500000D01*
X211000000Y-33000000D02*
G75*
G03*
X212000000Y-34000000I1000000J0D01*
G01*
X82000000Y-69250000D02*
G75*
G03*
X83000000Y-70250000I1000000J0D01*
G01*
X162250000Y-95000000D02*
G75*
G03*
X163250000Y-94000000I0J1000000D01*
G01*
X158750000Y-31000000D02*
X158750000Y-30000000D01*
X73250000Y-30000000D02*
G75*
G03*
X72250000Y-29000000I-1000000J0D01*
G01*
X163250000Y-93000000D02*
X163250000Y-94000000D01*
X218500000Y-56000000D02*
X218500000Y-57500000D01*
X35750000Y-29000000D02*
G75*
G03*
X34750000Y-30000000I0J-1000000D01*
G01*
X157750000Y-92000000D02*
X157500000Y-92000000D01*
X74250000Y-32000000D02*
X74500000Y-32000000D01*
X222500000Y-58500000D02*
G75*
G03*
X223500000Y-57500000I0J1000000D01*
G01*
X272000000Y-55000000D02*
X272000000Y-34000000D01*
X264000000Y-34000000D02*
G75*
G03*
X265000000Y-33000000I0J1000000D01*
G01*
X252500000Y-56000000D02*
X252500000Y-57500000D01*
X39250000Y-93000000D02*
X39250000Y-94000000D01*
X252500000Y-57500000D02*
G75*
G03*
X253500000Y-58500000I1000000J0D01*
G01*
X157500000Y-32000000D02*
X157750000Y-32000000D01*
X163250000Y-30000000D02*
G75*
G03*
X162250000Y-29000000I-1000000J0D01*
G01*
X67750000Y-32000000D02*
G75*
G03*
X68750000Y-31000000I0J1000000D01*
G01*
X270000000Y-70000000D02*
G75*
G03*
X272000000Y-68000000I0J2000000D01*
G01*
X223500000Y-56000000D02*
G75*
G03*
X222500000Y-55000000I-1000000J0D01*
G01*
X34750000Y-31000000D02*
X34750000Y-30000000D01*
X35750000Y-29000000D02*
X38250000Y-29000000D01*
X222500000Y-33500000D02*
X219500000Y-33500000D01*
X33500000Y-32000000D02*
X33750000Y-32000000D01*
X272000000Y-68000000D02*
X272000000Y-55000000D01*
X34750000Y-93000000D02*
G75*
G03*
X33750000Y-92000000I-1000000J0D01*
G01*
X33750000Y-92000000D02*
X33500000Y-92000000D01*
X261000000Y-34000000D02*
X264000000Y-34000000D01*
X40201249Y-91999999D02*
G75*
G03*
X39250000Y-93000000I24351J-975601D01*
G01*
X38250000Y-95000000D02*
X35750000Y-95000000D01*
X158750000Y-93000000D02*
G75*
G03*
X157750000Y-92000000I-1000000J0D01*
G01*
X212000000Y-34000000D02*
X215000000Y-34000000D01*
X252500000Y-34500000D02*
X252500000Y-36000000D01*
X222500000Y-55000000D02*
X219500000Y-55000000D01*
X212000000Y-68000000D02*
G75*
G03*
X211000000Y-69000000I0J-1000000D01*
G01*
X219500000Y-58500000D02*
X222500000Y-58500000D01*
X223500000Y-57500000D02*
X223500000Y-56000000D01*
X257500000Y-36000000D02*
X257500000Y-34500000D01*
X264000000Y-68000000D02*
X261000000Y-68000000D01*
X253500000Y-37000000D02*
X256500000Y-37000000D01*
X129250000Y-31000000D02*
G75*
G03*
X130250000Y-32000000I1000000J0D01*
G01*
X129250000Y-30000000D02*
G75*
G03*
X128250000Y-29000000I-1000000J0D01*
G01*
X34750000Y-94000000D02*
G75*
G03*
X35750000Y-95000000I1000000J0D01*
G01*
X83000000Y-53925000D02*
G75*
G03*
X84000000Y-52925000I0J1000000D01*
G01*
X223500000Y-34500000D02*
G75*
G03*
X222500000Y-33500000I-1000000J0D01*
G01*
X216000000Y-69000000D02*
G75*
G03*
X217000000Y-70000000I1000000J0D01*
G01*
X163250000Y-31000000D02*
G75*
G03*
X164250000Y-32000000I1000000J0D01*
G01*
X204000000Y-68000000D02*
G75*
G03*
X206000000Y-70000000I2000000J0D01*
G01*
X39250000Y-31000000D02*
X39250000Y-30000000D01*
X265000000Y-69000000D02*
G75*
G03*
X266000000Y-70000000I1000000J0D01*
G01*
X266000000Y-32000000D02*
G75*
G03*
X265000000Y-33000000I0J-1000000D01*
G01*
X219500000Y-33500000D02*
G75*
G03*
X218500000Y-34500000I0J-1000000D01*
G01*
X256500000Y-37000000D02*
G75*
G03*
X257500000Y-36000000I0J1000000D01*
G01*
X265000000Y-69000000D02*
G75*
G03*
X264000000Y-68000000I-1000000J0D01*
G01*
X163250000Y-31000000D02*
X163250000Y-30000000D01*
X84000000Y-71250000D02*
G75*
G03*
X83000000Y-70250000I-1000000J0D01*
G01*
X252500000Y-36000000D02*
G75*
G03*
X253500000Y-37000000I1000000J0D01*
G01*
X67500000Y-32000000D02*
X67750000Y-32000000D01*
X40250000Y-32000000D02*
X40500000Y-32000000D01*
X125750000Y-29000000D02*
G75*
G03*
X124750000Y-30000000I0J-1000000D01*
G01*
X253500000Y-55000000D02*
G75*
G03*
X252500000Y-56000000I0J-1000000D01*
G01*
X217000000Y-70000000D02*
X259000000Y-70000000D01*
X83000000Y-53925000D02*
G75*
G03*
X82000000Y-54925000I0J-1000000D01*
G01*
X130250000Y-32000000D02*
X130500000Y-32000000D01*
X129250000Y-31000000D02*
X129250000Y-30000000D01*
X259000000Y-32000000D02*
X217000000Y-32000000D01*
X217000000Y-32000000D02*
G75*
G03*
X216000000Y-33000000I0J-1000000D01*
G01*
X257500000Y-56000000D02*
G75*
G03*
X256500000Y-55000000I-1000000J0D01*
G01*
X257500000Y-57500000D02*
X257500000Y-56000000D01*
X159750000Y-29000000D02*
X162250000Y-29000000D01*
X69750000Y-29000000D02*
X72250000Y-29000000D01*
X219500000Y-37000000D02*
X222500000Y-37000000D01*
X210000000Y-70000000D02*
X206000000Y-70000000D01*
X158750000Y-94000000D02*
G75*
G03*
X159750000Y-95000000I1000000J0D01*
G01*
X218500000Y-57500000D02*
G75*
G03*
X219500000Y-58500000I1000000J0D01*
G01*
X256500000Y-33500000D02*
X253500000Y-33500000D01*
X123500000Y-32000000D02*
X123750000Y-32000000D01*
X222500000Y-37000000D02*
G75*
G03*
X223500000Y-36000000I0J1000000D01*
G01*
X206000000Y-32000000D02*
G75*
G03*
X204000000Y-34000000I0J-2000000D01*
G01*
X34750000Y-93000000D02*
X34750000Y-94000000D01*
X215000000Y-34000000D02*
G75*
G03*
X216000000Y-33000000I0J1000000D01*
G01*
X39250000Y-31000000D02*
G75*
G03*
X40250000Y-32000000I1000000J0D01*
G01*
X84000000Y-52925000D02*
X84000000Y-36975063D01*
X259000000Y-70000000D02*
G75*
G03*
X260000000Y-69000000I0J1000000D01*
G01*
X123750000Y-32000000D02*
G75*
G03*
X124750000Y-31000000I0J1000000D01*
G01*
X73250000Y-31000000D02*
X73250000Y-30000000D01*
X272000000Y-34000000D02*
G75*
G03*
X270000000Y-32000000I-2000000J0D01*
G01*
X256500000Y-58500000D02*
G75*
G03*
X257500000Y-57500000I0J1000000D01*
G01*
X218500000Y-36000000D02*
G75*
G03*
X219500000Y-37000000I1000000J0D01*
G01*
X68750000Y-31000000D02*
X68750000Y-30000000D01*
X39250000Y-30000000D02*
G75*
G03*
X38250000Y-29000000I-1000000J0D01*
G01*
X215000000Y-68000000D02*
X212000000Y-68000000D01*
X270000000Y-70000000D02*
X266000000Y-70000000D01*
X33750000Y-32000000D02*
G75*
G03*
X34750000Y-31000000I0J1000000D01*
G01*
X164500000Y-92000000D02*
X164250000Y-92000000D01*
X210000000Y-70000000D02*
G75*
G03*
X211000000Y-69000000I0J1000000D01*
G01*
X73250000Y-31000000D02*
G75*
G03*
X74250000Y-32000000I1000000J0D01*
G01*
X223500000Y-36000000D02*
X223500000Y-34500000D01*
X124750000Y-94000000D02*
G75*
G03*
X125750000Y-95000000I1000000J0D01*
G01*
X219500000Y-55000000D02*
G75*
G03*
X218500000Y-56000000I0J-1000000D01*
G01*
X210000000Y-32000000D02*
X206000000Y-32000000D01*
X260000000Y-33000000D02*
G75*
G03*
X259000000Y-32000000I-1000000J0D01*
G01*
X164250000Y-32000000D02*
X164500000Y-32000000D01*
X256500000Y-55000000D02*
X253500000Y-55000000D01*
X253500000Y-33500000D02*
G75*
G03*
X252500000Y-34500000I0J-1000000D01*
G01*
X82000000Y-54925000D02*
X82000000Y-69250000D01*
X125750000Y-29000000D02*
X128250000Y-29000000D01*
X159750000Y-29000000D02*
G75*
G03*
X158750000Y-30000000I0J-1000000D01*
G01*
X124750000Y-31000000D02*
X124750000Y-30000000D01*
X211000000Y-33000000D02*
G75*
G03*
X210000000Y-32000000I-1000000J0D01*
G01*
X204000000Y-34000000D02*
X204000000Y-68000000D01*
X38250000Y-95000000D02*
G75*
G03*
X39250000Y-94000000I0J1000000D01*
G01*
X216000000Y-69000000D02*
G75*
G03*
X215000000Y-68000000I-1000000J0D01*
G01*
X164250000Y-92000000D02*
G75*
G03*
X163250000Y-93000000I0J-1000000D01*
G01*
X218500000Y-34500000D02*
X218500000Y-36000000D01*
X157750000Y-32000000D02*
G75*
G03*
X158750000Y-31000000I0J1000000D01*
G01*
X266000000Y-32000000D02*
X270000000Y-32000000D01*
X158750000Y-93000000D02*
X158750000Y-94000000D01*
X69750000Y-29000000D02*
G75*
G03*
X68750000Y-30000000I0J-1000000D01*
G01*
X162250000Y-95000000D02*
X159750000Y-95000000D01*
X261000000Y-68000000D02*
G75*
G03*
X260000000Y-69000000I0J-1000000D01*
G01*
M02*
