%TF.GenerationSoftware,KiCad,Pcbnew,7.0.2*%
%TF.CreationDate,2023-05-26T09:26:57+02:00*%
%TF.ProjectId,kleinvoet,6b6c6569-6e76-46f6-9574-2e6b69636164,C*%
%TF.SameCoordinates,Original*%
%TF.FileFunction,Other,User*%
%FSLAX46Y46*%
G04 Gerber Fmt 4.6, Leading zero omitted, Abs format (unit mm)*
G04 Created by KiCad (PCBNEW 7.0.2) date 2023-05-26 09:26:57*
%MOMM*%
%LPD*%
G01*
G04 APERTURE LIST*
%ADD10C,0.050000*%
%ADD11C,0.120000*%
%TA.AperFunction,Profile*%
%ADD12C,0.050000*%
%TD*%
G04 APERTURE END LIST*
D10*
%TO.C,C502*%
X120190000Y-43940000D02*
X122010000Y-43940000D01*
X120190000Y-44860000D02*
X120190000Y-43940000D01*
X122010000Y-43940000D02*
X122010000Y-44860000D01*
X122010000Y-44860000D02*
X120190000Y-44860000D01*
%TO.C,C501*%
X122010000Y-37660000D02*
X120190000Y-37660000D01*
X122010000Y-36740000D02*
X122010000Y-37660000D01*
X120190000Y-37660000D02*
X120190000Y-36740000D01*
X120190000Y-36740000D02*
X122010000Y-36740000D01*
%TO.C,C903*%
X169390000Y-65340000D02*
X171210000Y-65340000D01*
X169390000Y-66260000D02*
X169390000Y-65340000D01*
X171210000Y-65340000D02*
X171210000Y-66260000D01*
X171210000Y-66260000D02*
X169390000Y-66260000D01*
%TO.C,C904*%
X166610000Y-59460000D02*
X164790000Y-59460000D01*
X166610000Y-58540000D02*
X166610000Y-59460000D01*
X164790000Y-59460000D02*
X164790000Y-58540000D01*
X164790000Y-58540000D02*
X166610000Y-58540000D01*
%TO.C,R905*%
X167737800Y-85070000D02*
X165877800Y-85070000D01*
X167737800Y-84130000D02*
X167737800Y-85070000D01*
X165877800Y-85070000D02*
X165877800Y-84130000D01*
X165877800Y-84130000D02*
X167737800Y-84130000D01*
%TO.C,D901*%
X167887800Y-87330000D02*
X164927800Y-87330000D01*
X167887800Y-85870000D02*
X167887800Y-87330000D01*
X164927800Y-87330000D02*
X164927800Y-85870000D01*
X164927800Y-85870000D02*
X167887800Y-85870000D01*
%TO.C,D902*%
X167887800Y-89130000D02*
X164927800Y-89130000D01*
X167887800Y-87670000D02*
X167887800Y-89130000D01*
X164927800Y-89130000D02*
X164927800Y-87670000D01*
X164927800Y-87670000D02*
X167887800Y-87670000D01*
%TO.C,R908*%
X163477800Y-84130000D02*
X165337800Y-84130000D01*
X163477800Y-85070000D02*
X163477800Y-84130000D01*
X165337800Y-84130000D02*
X165337800Y-85070000D01*
X165337800Y-85070000D02*
X163477800Y-85070000D01*
D11*
%TO.C,Y101*%
X144012400Y-67300000D02*
X144012400Y-70700000D01*
X144012400Y-67300000D02*
X148012400Y-67300000D01*
X148012400Y-67300000D02*
X148012400Y-70700000D01*
X148012400Y-70700000D02*
X144012400Y-70700000D01*
D10*
%TO.C,SW101*%
X123825000Y-62150000D02*
X122375000Y-62150000D01*
X123825000Y-60650000D02*
X123825000Y-62150000D01*
X122375000Y-63500000D02*
X115775000Y-63500000D01*
X122375000Y-62150000D02*
X122375000Y-63500000D01*
X122375000Y-60650000D02*
X123825000Y-60650000D01*
X122375000Y-59300000D02*
X122375000Y-60650000D01*
X115775000Y-63500000D02*
X115775000Y-62150000D01*
X115775000Y-62150000D02*
X114325000Y-62150000D01*
X115775000Y-60650000D02*
X115775000Y-59300000D01*
X115775000Y-59300000D02*
X122375000Y-59300000D01*
X114325000Y-62150000D02*
X114325000Y-60650000D01*
X114325000Y-60650000D02*
X115775000Y-60650000D01*
%TO.C,R209*%
X162720000Y-51070000D02*
X165680000Y-51070000D01*
X162720000Y-52530000D02*
X162720000Y-51070000D01*
X165680000Y-51070000D02*
X165680000Y-52530000D01*
X165680000Y-52530000D02*
X162720000Y-52530000D01*
%TO.C,CB401*%
X149440000Y-46760000D02*
X149440000Y-44940000D01*
X150360000Y-46760000D02*
X149440000Y-46760000D01*
X149440000Y-44940000D02*
X150360000Y-44940000D01*
X150360000Y-44940000D02*
X150360000Y-46760000D01*
%TO.C,C101*%
X155760000Y-55590000D02*
X155760000Y-57410000D01*
X154840000Y-55590000D02*
X155760000Y-55590000D01*
X155760000Y-57410000D02*
X154840000Y-57410000D01*
X154840000Y-57410000D02*
X154840000Y-55590000D01*
%TO.C,C103*%
X139660000Y-62890000D02*
X139660000Y-64710000D01*
X138740000Y-62890000D02*
X139660000Y-62890000D01*
X139660000Y-64710000D02*
X138740000Y-64710000D01*
X138740000Y-64710000D02*
X138740000Y-62890000D01*
%TO.C,C104*%
X147910000Y-67060000D02*
X146090000Y-67060000D01*
X147910000Y-66140000D02*
X147910000Y-67060000D01*
X146090000Y-67060000D02*
X146090000Y-66140000D01*
X146090000Y-66140000D02*
X147910000Y-66140000D01*
%TO.C,C105*%
X139552400Y-70360000D02*
X139552400Y-68540000D01*
X140472400Y-70360000D02*
X139552400Y-70360000D01*
X139552400Y-68540000D02*
X140472400Y-68540000D01*
X140472400Y-68540000D02*
X140472400Y-70360000D01*
%TO.C,C106*%
X140472400Y-66140000D02*
X140472400Y-67960000D01*
X139552400Y-66140000D02*
X140472400Y-66140000D01*
X140472400Y-67960000D02*
X139552400Y-67960000D01*
X139552400Y-67960000D02*
X139552400Y-66140000D01*
%TO.C,C403*%
X146890000Y-42740000D02*
X148710000Y-42740000D01*
X146890000Y-43660000D02*
X146890000Y-42740000D01*
X148710000Y-42740000D02*
X148710000Y-43660000D01*
X148710000Y-43660000D02*
X146890000Y-43660000D01*
%TO.C,CB102*%
X125440000Y-65810000D02*
X125440000Y-63990000D01*
X126360000Y-65810000D02*
X125440000Y-65810000D01*
X125440000Y-63990000D02*
X126360000Y-63990000D01*
X126360000Y-63990000D02*
X126360000Y-65810000D01*
%TO.C,CB101*%
X155760000Y-53590000D02*
X155760000Y-55410000D01*
X154840000Y-53590000D02*
X155760000Y-53590000D01*
X155760000Y-55410000D02*
X154840000Y-55410000D01*
X154840000Y-55410000D02*
X154840000Y-53590000D01*
%TO.C,CB103*%
X138752400Y-62560000D02*
X138752400Y-60740000D01*
X139672400Y-62560000D02*
X138752400Y-62560000D01*
X138752400Y-60740000D02*
X139672400Y-60740000D01*
X139672400Y-60740000D02*
X139672400Y-62560000D01*
%TO.C,CB104*%
X155260000Y-60140000D02*
X155260000Y-61960000D01*
X154340000Y-60140000D02*
X155260000Y-60140000D01*
X155260000Y-61960000D02*
X154340000Y-61960000D01*
X154340000Y-61960000D02*
X154340000Y-60140000D01*
%TO.C,CB105*%
X142790000Y-50240000D02*
X144610000Y-50240000D01*
X142790000Y-51160000D02*
X142790000Y-50240000D01*
X144610000Y-50240000D02*
X144610000Y-51160000D01*
X144610000Y-51160000D02*
X142790000Y-51160000D01*
%TO.C,CB106*%
X141060000Y-62890000D02*
X141060000Y-64710000D01*
X140140000Y-62890000D02*
X141060000Y-62890000D01*
X141060000Y-64710000D02*
X140140000Y-64710000D01*
X140140000Y-64710000D02*
X140140000Y-62890000D01*
%TO.C,CB107*%
X130760000Y-63990000D02*
X130760000Y-65810000D01*
X129840000Y-63990000D02*
X130760000Y-63990000D01*
X130760000Y-65810000D02*
X129840000Y-65810000D01*
X129840000Y-65810000D02*
X129840000Y-63990000D01*
%TO.C,R208*%
X166520000Y-43170000D02*
X169480000Y-43170000D01*
X166520000Y-44630000D02*
X166520000Y-43170000D01*
X169480000Y-43170000D02*
X169480000Y-44630000D01*
X169480000Y-44630000D02*
X166520000Y-44630000D01*
D11*
%TO.C,Y102*%
X140912400Y-70250000D02*
X143112400Y-70250000D01*
X140912400Y-70250000D02*
X140912400Y-66250000D01*
X140912400Y-66250000D02*
X143112400Y-66250000D01*
X143112400Y-66250000D02*
X143112400Y-70250000D01*
D10*
%TO.C,H201*%
X171450000Y-38050000D02*
G75*
G03*
X171450000Y-38050000I-3450000J0D01*
G01*
%TO.C,R106*%
X145930000Y-67070000D02*
X144070000Y-67070000D01*
X145930000Y-66130000D02*
X145930000Y-67070000D01*
X144070000Y-67070000D02*
X144070000Y-66130000D01*
X144070000Y-66130000D02*
X145930000Y-66130000D01*
%TO.C,R101*%
X139682400Y-58570000D02*
X139682400Y-60430000D01*
X138742400Y-58570000D02*
X139682400Y-58570000D01*
X139682400Y-60430000D02*
X138742400Y-60430000D01*
X138742400Y-60430000D02*
X138742400Y-58570000D01*
%TO.C,H202*%
X123450000Y-86050000D02*
G75*
G03*
X123450000Y-86050000I-3450000J0D01*
G01*
%TO.C,SW102*%
X124525000Y-60650000D02*
X125975000Y-60650000D01*
X124525000Y-62150000D02*
X124525000Y-60650000D01*
X125975000Y-59300000D02*
X132575000Y-59300000D01*
X125975000Y-60650000D02*
X125975000Y-59300000D01*
X125975000Y-62150000D02*
X124525000Y-62150000D01*
X125975000Y-63500000D02*
X125975000Y-62150000D01*
X132575000Y-59300000D02*
X132575000Y-60650000D01*
X132575000Y-60650000D02*
X134025000Y-60650000D01*
X132575000Y-62150000D02*
X132575000Y-63500000D01*
X132575000Y-63500000D02*
X125975000Y-63500000D01*
X134025000Y-60650000D02*
X134025000Y-62150000D01*
X134025000Y-62150000D02*
X132575000Y-62150000D01*
%TO.C,U903*%
X163650000Y-43500000D02*
X163650000Y-40100000D01*
X163650000Y-40100000D02*
X159550000Y-40100000D01*
X159550000Y-43500000D02*
X163650000Y-43500000D01*
X159550000Y-40100000D02*
X159550000Y-43500000D01*
%TO.C,F901*%
X168550000Y-59170000D02*
X171850000Y-59170000D01*
X168550000Y-60630000D02*
X168550000Y-59170000D01*
X171850000Y-59170000D02*
X171850000Y-60630000D01*
X171850000Y-60630000D02*
X168550000Y-60630000D01*
%TO.C,J201*%
X163500000Y-76400000D02*
X173700000Y-76400000D01*
X173700000Y-76400000D02*
X173700000Y-67200000D01*
X163500000Y-67200000D02*
X163500000Y-76400000D01*
X173700000Y-67200000D02*
X163500000Y-67200000D01*
%TO.C,C910*%
X158402500Y-43310000D02*
X158402500Y-41490000D01*
X159322500Y-43310000D02*
X158402500Y-43310000D01*
X158402500Y-41490000D02*
X159322500Y-41490000D01*
X159322500Y-41490000D02*
X159322500Y-43310000D01*
%TO.C,U201*%
X162675000Y-48600000D02*
X162675000Y-50800000D01*
X162675000Y-48600000D02*
X165675000Y-48600000D01*
X165675000Y-50800000D02*
X162675000Y-50800000D01*
X165675000Y-50800000D02*
X165675000Y-48600000D01*
%TO.C,D103*%
X156720000Y-53870000D02*
X159680000Y-53870000D01*
X156720000Y-55330000D02*
X156720000Y-53870000D01*
X159680000Y-53870000D02*
X159680000Y-55330000D01*
X159680000Y-55330000D02*
X156720000Y-55330000D01*
%TO.C,R105*%
X160270000Y-54130000D02*
X162130000Y-54130000D01*
X160270000Y-55070000D02*
X160270000Y-54130000D01*
X162130000Y-54130000D02*
X162130000Y-55070000D01*
X162130000Y-55070000D02*
X160270000Y-55070000D01*
%TO.C,C102*%
X144102400Y-70940000D02*
X145922400Y-70940000D01*
X144102400Y-71860000D02*
X144102400Y-70940000D01*
X145922400Y-70940000D02*
X145922400Y-71860000D01*
X145922400Y-71860000D02*
X144102400Y-71860000D01*
%TO.C,U801*%
X126580000Y-50480000D02*
X126580000Y-54720000D01*
X126580000Y-54720000D02*
X130820000Y-54720000D01*
X130820000Y-50480000D02*
X126580000Y-50480000D01*
X130820000Y-54720000D02*
X130820000Y-50480000D01*
%TO.C,U701*%
X126580000Y-38680000D02*
X126580000Y-42920000D01*
X126580000Y-42920000D02*
X130820000Y-42920000D01*
X130820000Y-38680000D02*
X126580000Y-38680000D01*
X130820000Y-42920000D02*
X130820000Y-38680000D01*
%TO.C,C401*%
X142910000Y-36460000D02*
X141090000Y-36460000D01*
X142910000Y-35540000D02*
X142910000Y-36460000D01*
X141090000Y-36460000D02*
X141090000Y-35540000D01*
X141090000Y-35540000D02*
X142910000Y-35540000D01*
%TO.C,C402*%
X142910000Y-39460000D02*
X141090000Y-39460000D01*
X142910000Y-38540000D02*
X142910000Y-39460000D01*
X141090000Y-39460000D02*
X141090000Y-38540000D01*
X141090000Y-38540000D02*
X142910000Y-38540000D01*
%TO.C,C405*%
X142910000Y-35460000D02*
X141090000Y-35460000D01*
X142910000Y-34540000D02*
X142910000Y-35460000D01*
X141090000Y-35460000D02*
X141090000Y-34540000D01*
X141090000Y-34540000D02*
X142910000Y-34540000D01*
%TO.C,C406*%
X142910000Y-40460000D02*
X141090000Y-40460000D01*
X142910000Y-39540000D02*
X142910000Y-40460000D01*
X141090000Y-40460000D02*
X141090000Y-39540000D01*
X141090000Y-39540000D02*
X142910000Y-39540000D01*
%TO.C,C407*%
X146890000Y-41740000D02*
X148710000Y-41740000D01*
X146890000Y-42660000D02*
X146890000Y-41740000D01*
X148710000Y-41740000D02*
X148710000Y-42660000D01*
X148710000Y-42660000D02*
X146890000Y-42660000D01*
%TO.C,C409*%
X145310000Y-43660000D02*
X143490000Y-43660000D01*
X145310000Y-42740000D02*
X145310000Y-43660000D01*
X143490000Y-43660000D02*
X143490000Y-42740000D01*
X143490000Y-42740000D02*
X145310000Y-42740000D01*
%TO.C,C410*%
X145310000Y-42660000D02*
X143490000Y-42660000D01*
X145310000Y-41740000D02*
X145310000Y-42660000D01*
X143490000Y-42660000D02*
X143490000Y-41740000D01*
X143490000Y-41740000D02*
X145310000Y-41740000D01*
%TO.C,C411*%
X153000000Y-40580000D02*
X153000000Y-42400000D01*
X152080000Y-40580000D02*
X153000000Y-40580000D01*
X153000000Y-42400000D02*
X152080000Y-42400000D01*
X152080000Y-42400000D02*
X152080000Y-40580000D01*
%TO.C,C412*%
X154460000Y-40580000D02*
X154460000Y-42400000D01*
X153540000Y-40580000D02*
X154460000Y-40580000D01*
X154460000Y-42400000D02*
X153540000Y-42400000D01*
X153540000Y-42400000D02*
X153540000Y-40580000D01*
%TO.C,C413*%
X147810000Y-44940000D02*
X147810000Y-46760000D01*
X146890000Y-44940000D02*
X147810000Y-44940000D01*
X147810000Y-46760000D02*
X146890000Y-46760000D01*
X146890000Y-46760000D02*
X146890000Y-44940000D01*
%TO.C,C414*%
X146890000Y-43840000D02*
X148710000Y-43840000D01*
X146890000Y-44760000D02*
X146890000Y-43840000D01*
X148710000Y-43840000D02*
X148710000Y-44760000D01*
X148710000Y-44760000D02*
X146890000Y-44760000D01*
%TO.C,C701*%
X124010000Y-44860000D02*
X122190000Y-44860000D01*
X124010000Y-43940000D02*
X124010000Y-44860000D01*
X122190000Y-44860000D02*
X122190000Y-43940000D01*
X122190000Y-43940000D02*
X124010000Y-43940000D01*
%TO.C,C702*%
X124010000Y-37660000D02*
X122190000Y-37660000D01*
X124010000Y-36740000D02*
X124010000Y-37660000D01*
X122190000Y-37660000D02*
X122190000Y-36740000D01*
X122190000Y-36740000D02*
X124010000Y-36740000D01*
%TO.C,C703*%
X124080000Y-39100000D02*
X124080000Y-42500000D01*
X122120000Y-39100000D02*
X124080000Y-39100000D01*
X124080000Y-42500000D02*
X122120000Y-42500000D01*
X122120000Y-42500000D02*
X122120000Y-39100000D01*
%TO.C,C706*%
X125440000Y-42710000D02*
X125440000Y-40890000D01*
X126360000Y-42710000D02*
X125440000Y-42710000D01*
X125440000Y-40890000D02*
X126360000Y-40890000D01*
X126360000Y-40890000D02*
X126360000Y-42710000D01*
%TO.C,C707*%
X126360000Y-38890000D02*
X126360000Y-40710000D01*
X125440000Y-38890000D02*
X126360000Y-38890000D01*
X126360000Y-40710000D02*
X125440000Y-40710000D01*
X125440000Y-40710000D02*
X125440000Y-38890000D01*
%TO.C,C708*%
X126590000Y-43040000D02*
X128410000Y-43040000D01*
X126590000Y-43960000D02*
X126590000Y-43040000D01*
X128410000Y-43040000D02*
X128410000Y-43960000D01*
X128410000Y-43960000D02*
X126590000Y-43960000D01*
%TO.C,C709*%
X135840000Y-42710000D02*
X135840000Y-40890000D01*
X136760000Y-42710000D02*
X135840000Y-42710000D01*
X135840000Y-40890000D02*
X136760000Y-40890000D01*
X136760000Y-40890000D02*
X136760000Y-42710000D01*
%TO.C,C710*%
X133350000Y-43100000D02*
X133350000Y-38500000D01*
X135650000Y-43100000D02*
X133350000Y-43100000D01*
X133350000Y-38500000D02*
X135650000Y-38500000D01*
X135650000Y-38500000D02*
X135650000Y-43100000D01*
%TO.C,C711*%
X135840000Y-40710000D02*
X135840000Y-38890000D01*
X136760000Y-40710000D02*
X135840000Y-40710000D01*
X135840000Y-38890000D02*
X136760000Y-38890000D01*
X136760000Y-38890000D02*
X136760000Y-40710000D01*
%TO.C,C801*%
X124010000Y-56660000D02*
X122190000Y-56660000D01*
X124010000Y-55740000D02*
X124010000Y-56660000D01*
X122190000Y-56660000D02*
X122190000Y-55740000D01*
X122190000Y-55740000D02*
X124010000Y-55740000D01*
%TO.C,C802*%
X124010000Y-49460000D02*
X122190000Y-49460000D01*
X124010000Y-48540000D02*
X124010000Y-49460000D01*
X122190000Y-49460000D02*
X122190000Y-48540000D01*
X122190000Y-48540000D02*
X124010000Y-48540000D01*
%TO.C,C803*%
X124080000Y-50900000D02*
X124080000Y-54300000D01*
X122120000Y-50900000D02*
X124080000Y-50900000D01*
X124080000Y-54300000D02*
X122120000Y-54300000D01*
X122120000Y-54300000D02*
X122120000Y-50900000D01*
%TO.C,C806*%
X125440000Y-54510000D02*
X125440000Y-52690000D01*
X126360000Y-54510000D02*
X125440000Y-54510000D01*
X125440000Y-52690000D02*
X126360000Y-52690000D01*
X126360000Y-52690000D02*
X126360000Y-54510000D01*
%TO.C,C807*%
X126360000Y-50690000D02*
X126360000Y-52510000D01*
X125440000Y-50690000D02*
X126360000Y-50690000D01*
X126360000Y-52510000D02*
X125440000Y-52510000D01*
X125440000Y-52510000D02*
X125440000Y-50690000D01*
%TO.C,C808*%
X126590000Y-54840000D02*
X128410000Y-54840000D01*
X126590000Y-55760000D02*
X126590000Y-54840000D01*
X128410000Y-54840000D02*
X128410000Y-55760000D01*
X128410000Y-55760000D02*
X126590000Y-55760000D01*
%TO.C,C809*%
X135840000Y-54510000D02*
X135840000Y-52690000D01*
X136760000Y-54510000D02*
X135840000Y-54510000D01*
X135840000Y-52690000D02*
X136760000Y-52690000D01*
X136760000Y-52690000D02*
X136760000Y-54510000D01*
%TO.C,C810*%
X133350000Y-54900000D02*
X133350000Y-50300000D01*
X135650000Y-54900000D02*
X133350000Y-54900000D01*
X133350000Y-50300000D02*
X135650000Y-50300000D01*
X135650000Y-50300000D02*
X135650000Y-54900000D01*
%TO.C,C811*%
X135840000Y-52510000D02*
X135840000Y-50690000D01*
X136760000Y-52510000D02*
X135840000Y-52510000D01*
X135840000Y-50690000D02*
X136760000Y-50690000D01*
X136760000Y-50690000D02*
X136760000Y-52510000D01*
%TO.C,D101*%
X132330000Y-82750000D02*
X132330000Y-86050000D01*
X130870000Y-82750000D02*
X132330000Y-82750000D01*
X132330000Y-86050000D02*
X130870000Y-86050000D01*
X130870000Y-86050000D02*
X130870000Y-82750000D01*
%TO.C,D102*%
X129930000Y-82750000D02*
X129930000Y-86050000D01*
X128470000Y-82750000D02*
X129930000Y-82750000D01*
X129930000Y-86050000D02*
X128470000Y-86050000D01*
X128470000Y-86050000D02*
X128470000Y-82750000D01*
%TO.C,D104*%
X156720000Y-55670000D02*
X159680000Y-55670000D01*
X156720000Y-57130000D02*
X156720000Y-55670000D01*
X159680000Y-55670000D02*
X159680000Y-57130000D01*
X159680000Y-57130000D02*
X156720000Y-57130000D01*
%TO.C,R102*%
X131130000Y-88645000D02*
X131130000Y-86785000D01*
X132070000Y-88645000D02*
X131130000Y-88645000D01*
X131130000Y-86785000D02*
X132070000Y-86785000D01*
X132070000Y-86785000D02*
X132070000Y-88645000D01*
%TO.C,R103*%
X128730000Y-88645000D02*
X128730000Y-86785000D01*
X129670000Y-88645000D02*
X128730000Y-88645000D01*
X128730000Y-86785000D02*
X129670000Y-86785000D01*
X129670000Y-86785000D02*
X129670000Y-88645000D01*
%TO.C,R107*%
X160270000Y-55930000D02*
X162130000Y-55930000D01*
X160270000Y-56870000D02*
X160270000Y-55930000D01*
X162130000Y-55930000D02*
X162130000Y-56870000D01*
X162130000Y-56870000D02*
X160270000Y-56870000D01*
%TO.C,R404*%
X150370000Y-42970000D02*
X150370000Y-44830000D01*
X149430000Y-42970000D02*
X150370000Y-42970000D01*
X150370000Y-44830000D02*
X149430000Y-44830000D01*
X149430000Y-44830000D02*
X149430000Y-42970000D01*
%TO.C,R407*%
X155070000Y-35580000D02*
X156930000Y-35580000D01*
X155070000Y-36520000D02*
X155070000Y-35580000D01*
X156930000Y-35580000D02*
X156930000Y-36520000D01*
X156930000Y-36520000D02*
X155070000Y-36520000D01*
%TO.C,R408*%
X155070000Y-34580000D02*
X156930000Y-34580000D01*
X155070000Y-35520000D02*
X155070000Y-34580000D01*
X156930000Y-34580000D02*
X156930000Y-35520000D01*
X156930000Y-35520000D02*
X155070000Y-35520000D01*
%TO.C,R414*%
X147930000Y-46780000D02*
X147930000Y-44920000D01*
X148870000Y-46780000D02*
X147930000Y-46780000D01*
X147930000Y-44920000D02*
X148870000Y-44920000D01*
X148870000Y-44920000D02*
X148870000Y-46780000D01*
%TO.C,R701*%
X124030000Y-43670000D02*
X122170000Y-43670000D01*
X124030000Y-42730000D02*
X124030000Y-43670000D01*
X122170000Y-43670000D02*
X122170000Y-42730000D01*
X122170000Y-42730000D02*
X124030000Y-42730000D01*
%TO.C,R702*%
X124030000Y-38870000D02*
X122170000Y-38870000D01*
X124030000Y-37930000D02*
X124030000Y-38870000D01*
X122170000Y-38870000D02*
X122170000Y-37930000D01*
X122170000Y-37930000D02*
X124030000Y-37930000D01*
%TO.C,R703*%
X125170000Y-41870000D02*
X125170000Y-43730000D01*
X124230000Y-41870000D02*
X125170000Y-41870000D01*
X125170000Y-43730000D02*
X124230000Y-43730000D01*
X124230000Y-43730000D02*
X124230000Y-41870000D01*
%TO.C,R704*%
X124230000Y-39730000D02*
X124230000Y-37870000D01*
X125170000Y-39730000D02*
X124230000Y-39730000D01*
X124230000Y-37870000D02*
X125170000Y-37870000D01*
X125170000Y-37870000D02*
X125170000Y-39730000D01*
%TO.C,R705*%
X126030000Y-44870000D02*
X124170000Y-44870000D01*
X126030000Y-43930000D02*
X126030000Y-44870000D01*
X124170000Y-44870000D02*
X124170000Y-43930000D01*
X124170000Y-43930000D02*
X126030000Y-43930000D01*
%TO.C,R706*%
X126030000Y-37670000D02*
X124170000Y-37670000D01*
X126030000Y-36730000D02*
X126030000Y-37670000D01*
X124170000Y-37670000D02*
X124170000Y-36730000D01*
X124170000Y-36730000D02*
X126030000Y-36730000D01*
%TO.C,R709*%
X133170000Y-40870000D02*
X133170000Y-42730000D01*
X132230000Y-40870000D02*
X133170000Y-40870000D01*
X133170000Y-42730000D02*
X132230000Y-42730000D01*
X132230000Y-42730000D02*
X132230000Y-40870000D01*
%TO.C,R710*%
X132230000Y-40730000D02*
X132230000Y-38870000D01*
X133170000Y-40730000D02*
X132230000Y-40730000D01*
X132230000Y-38870000D02*
X133170000Y-38870000D01*
X133170000Y-38870000D02*
X133170000Y-40730000D01*
%TO.C,R801*%
X124030000Y-55470000D02*
X122170000Y-55470000D01*
X124030000Y-54530000D02*
X124030000Y-55470000D01*
X122170000Y-55470000D02*
X122170000Y-54530000D01*
X122170000Y-54530000D02*
X124030000Y-54530000D01*
%TO.C,R802*%
X124030000Y-50670000D02*
X122170000Y-50670000D01*
X124030000Y-49730000D02*
X124030000Y-50670000D01*
X122170000Y-50670000D02*
X122170000Y-49730000D01*
X122170000Y-49730000D02*
X124030000Y-49730000D01*
%TO.C,R803*%
X125170000Y-53670000D02*
X125170000Y-55530000D01*
X124230000Y-53670000D02*
X125170000Y-53670000D01*
X125170000Y-55530000D02*
X124230000Y-55530000D01*
X124230000Y-55530000D02*
X124230000Y-53670000D01*
%TO.C,R804*%
X124230000Y-51530000D02*
X124230000Y-49670000D01*
X125170000Y-51530000D02*
X124230000Y-51530000D01*
X124230000Y-49670000D02*
X125170000Y-49670000D01*
X125170000Y-49670000D02*
X125170000Y-51530000D01*
%TO.C,R805*%
X126030000Y-56670000D02*
X124170000Y-56670000D01*
X126030000Y-55730000D02*
X126030000Y-56670000D01*
X124170000Y-56670000D02*
X124170000Y-55730000D01*
X124170000Y-55730000D02*
X126030000Y-55730000D01*
%TO.C,R806*%
X126030000Y-49470000D02*
X124170000Y-49470000D01*
X126030000Y-48530000D02*
X126030000Y-49470000D01*
X124170000Y-49470000D02*
X124170000Y-48530000D01*
X124170000Y-48530000D02*
X126030000Y-48530000D01*
%TO.C,R809*%
X133170000Y-52670000D02*
X133170000Y-54530000D01*
X132230000Y-52670000D02*
X133170000Y-52670000D01*
X133170000Y-54530000D02*
X132230000Y-54530000D01*
X132230000Y-54530000D02*
X132230000Y-52670000D01*
%TO.C,R810*%
X132230000Y-52530000D02*
X132230000Y-50670000D01*
X133170000Y-52530000D02*
X132230000Y-52530000D01*
X132230000Y-50670000D02*
X133170000Y-50670000D01*
X133170000Y-50670000D02*
X133170000Y-52530000D01*
D11*
%TO.C,X401*%
X153950000Y-42850000D02*
X153950000Y-46850000D01*
X150550000Y-42850000D02*
X153950000Y-42850000D01*
X153950000Y-46850000D02*
X150550000Y-46850000D01*
X150550000Y-46850000D02*
X150550000Y-42850000D01*
D10*
%TO.C,C408*%
X153010000Y-38590000D02*
X153010000Y-40410000D01*
X152090000Y-38590000D02*
X153010000Y-38590000D01*
X153010000Y-40410000D02*
X152090000Y-40410000D01*
X152090000Y-40410000D02*
X152090000Y-38590000D01*
%TO.C,U101*%
X143050000Y-64742200D02*
X147200000Y-64742200D01*
X151350000Y-64742200D02*
X147200000Y-64742200D01*
X141950000Y-63292200D02*
X143050000Y-63292200D01*
X143050000Y-63292200D02*
X143050000Y-64742200D01*
X151350000Y-63292200D02*
X151350000Y-64742200D01*
X152450000Y-63292200D02*
X151350000Y-63292200D01*
X140500000Y-62192200D02*
X141950000Y-62192200D01*
X141950000Y-62192200D02*
X141950000Y-63292200D01*
X152450000Y-62192200D02*
X152450000Y-63292200D01*
X153900000Y-62192200D02*
X152450000Y-62192200D01*
X140500000Y-58042200D02*
X140500000Y-62192200D01*
X140500000Y-58042200D02*
X140500000Y-53892200D01*
X153900000Y-58042200D02*
X153900000Y-62192200D01*
X153900000Y-58042200D02*
X153900000Y-53892200D01*
X140500000Y-53892200D02*
X141950000Y-53892200D01*
X141950000Y-53892200D02*
X141950000Y-52792200D01*
X152450000Y-53892200D02*
X152450000Y-52792200D01*
X153900000Y-53892200D02*
X152450000Y-53892200D01*
X141950000Y-52792200D02*
X143050000Y-52792200D01*
X143050000Y-52792200D02*
X143050000Y-51342200D01*
X151350000Y-52792200D02*
X151350000Y-51342200D01*
X152450000Y-52792200D02*
X151350000Y-52792200D01*
X143050000Y-51342200D02*
X147200000Y-51342200D01*
X151350000Y-51342200D02*
X147200000Y-51342200D01*
%TO.C,R205*%
X133070000Y-69930000D02*
X134930000Y-69930000D01*
X133070000Y-70870000D02*
X133070000Y-69930000D01*
X134930000Y-69930000D02*
X134930000Y-70870000D01*
X134930000Y-70870000D02*
X133070000Y-70870000D01*
D11*
%TO.C,U401*%
X143465000Y-41500000D02*
X151465000Y-41500000D01*
X151465000Y-41500000D02*
X151465000Y-33500000D01*
X143465000Y-33500000D02*
X143465000Y-41500000D01*
X151465000Y-33500000D02*
X143465000Y-33500000D01*
D10*
%TO.C,J206*%
X166600000Y-55150000D02*
X175000000Y-55150000D01*
X175000000Y-55150000D02*
X175000000Y-44750000D01*
X166600000Y-44750000D02*
X166600000Y-55150000D01*
X175000000Y-44750000D02*
X166600000Y-44750000D01*
%TO.C,J303*%
X25200000Y-54625000D02*
X25200000Y-68375000D01*
X25200000Y-68375000D02*
X28800000Y-68375000D01*
X28800000Y-54625000D02*
X25200000Y-54625000D01*
X28800000Y-68375000D02*
X28800000Y-54625000D01*
%TO.C,H301*%
X81450000Y-38000000D02*
G75*
G03*
X81450000Y-38000000I-3450000J0D01*
G01*
%TO.C,H303*%
X81450000Y-86000000D02*
G75*
G03*
X81450000Y-86000000I-3450000J0D01*
G01*
%TO.C,H304*%
X33450000Y-86000000D02*
G75*
G03*
X33450000Y-86000000I-3450000J0D01*
G01*
%TO.C,H302*%
X33450000Y-38000000D02*
G75*
G03*
X33450000Y-38000000I-3450000J0D01*
G01*
%TO.C,D304*%
X83130000Y-70932500D02*
X83130000Y-73892500D01*
X81670000Y-70932500D02*
X83130000Y-70932500D01*
X83130000Y-73892500D02*
X81670000Y-73892500D01*
X81670000Y-73892500D02*
X81670000Y-70932500D01*
%TO.C,C305*%
X54430000Y-53410000D02*
X52610000Y-53410000D01*
X54430000Y-52490000D02*
X54430000Y-53410000D01*
X52610000Y-53410000D02*
X52610000Y-52490000D01*
X52610000Y-52490000D02*
X54430000Y-52490000D01*
%TO.C,R305*%
X81130000Y-72070000D02*
X79270000Y-72070000D01*
X81130000Y-71130000D02*
X81130000Y-72070000D01*
X79270000Y-72070000D02*
X79270000Y-71130000D01*
X79270000Y-71130000D02*
X81130000Y-71130000D01*
%TO.C,C303*%
X55940000Y-52490000D02*
X57760000Y-52490000D01*
X55940000Y-53410000D02*
X55940000Y-52490000D01*
X57760000Y-52490000D02*
X57760000Y-53410000D01*
X57760000Y-53410000D02*
X55940000Y-53410000D01*
%TO.C,D305*%
X78730000Y-70920000D02*
X78730000Y-73880000D01*
X77270000Y-70920000D02*
X78730000Y-70920000D01*
X78730000Y-73880000D02*
X77270000Y-73880000D01*
X77270000Y-73880000D02*
X77270000Y-70920000D01*
%TO.C,C304*%
X63360000Y-63715000D02*
X63360000Y-65535000D01*
X62440000Y-63715000D02*
X63360000Y-63715000D01*
X63360000Y-65535000D02*
X62440000Y-65535000D01*
X62440000Y-65535000D02*
X62440000Y-63715000D01*
%TO.C,R304*%
X79270000Y-72730000D02*
X81130000Y-72730000D01*
X79270000Y-73670000D02*
X79270000Y-72730000D01*
X81130000Y-72730000D02*
X81130000Y-73670000D01*
X81130000Y-73670000D02*
X79270000Y-73670000D01*
%TO.C,J601*%
X118250000Y-46650000D02*
X118250000Y-48650000D01*
X114750000Y-46650000D02*
X118250000Y-46650000D01*
X119000000Y-48650000D02*
X118250000Y-48650000D01*
X120250000Y-49650000D02*
X119000000Y-49650000D01*
X120250000Y-49650000D02*
X120250000Y-54900000D01*
X119000000Y-49650000D02*
X119000000Y-48650000D01*
X119000000Y-54900000D02*
X120250000Y-54900000D01*
X119000000Y-56150000D02*
X119000000Y-54900000D01*
X118250000Y-56150000D02*
X119000000Y-56150000D01*
X118250000Y-58150000D02*
X118250000Y-56150000D01*
X114750000Y-58150000D02*
X114750000Y-46650000D01*
X114750000Y-58150000D02*
X118250000Y-58150000D01*
%TO.C,C804*%
X125160000Y-51690000D02*
X125160000Y-53510000D01*
X124240000Y-51690000D02*
X125160000Y-51690000D01*
X125160000Y-53510000D02*
X124240000Y-53510000D01*
X124240000Y-53510000D02*
X124240000Y-51690000D01*
%TO.C,CB1403*%
X228510000Y-39840000D02*
X228510000Y-41660000D01*
X227590000Y-39840000D02*
X228510000Y-39840000D01*
X228510000Y-41660000D02*
X227590000Y-41660000D01*
X227590000Y-41660000D02*
X227590000Y-39840000D01*
%TO.C,R1402*%
X137230000Y-67470000D02*
X135370000Y-67470000D01*
X137230000Y-66530000D02*
X137230000Y-67470000D01*
X135370000Y-67470000D02*
X135370000Y-66530000D01*
X135370000Y-66530000D02*
X137230000Y-66530000D01*
%TO.C,R1628*%
X237810000Y-68070000D02*
X235950000Y-68070000D01*
X237810000Y-67130000D02*
X237810000Y-68070000D01*
X235950000Y-68070000D02*
X235950000Y-67130000D01*
X235950000Y-67130000D02*
X237810000Y-67130000D01*
%TO.C,R1607*%
X217170000Y-62270000D02*
X217170000Y-64130000D01*
X216230000Y-62270000D02*
X217170000Y-62270000D01*
X217170000Y-64130000D02*
X216230000Y-64130000D01*
X216230000Y-64130000D02*
X216230000Y-62270000D01*
%TO.C,R1605*%
X223170000Y-60930000D02*
X225030000Y-60930000D01*
X223170000Y-61870000D02*
X223170000Y-60930000D01*
X225030000Y-60930000D02*
X225030000Y-61870000D01*
X225030000Y-61870000D02*
X223170000Y-61870000D01*
%TO.C,R1514*%
X242870000Y-65570000D02*
X242870000Y-67430000D01*
X241930000Y-65570000D02*
X242870000Y-65570000D01*
X242870000Y-67430000D02*
X241930000Y-67430000D01*
X241930000Y-67430000D02*
X241930000Y-65570000D01*
%TO.C,R409*%
X153930000Y-37520000D02*
X152070000Y-37520000D01*
X153930000Y-36580000D02*
X153930000Y-37520000D01*
X152070000Y-37520000D02*
X152070000Y-36580000D01*
X152070000Y-36580000D02*
X153930000Y-36580000D01*
%TO.C,CB1404*%
X248440000Y-47510000D02*
X248440000Y-45690000D01*
X249360000Y-47510000D02*
X248440000Y-47510000D01*
X248440000Y-45690000D02*
X249360000Y-45690000D01*
X249360000Y-45690000D02*
X249360000Y-47510000D01*
%TO.C,R206*%
X126620000Y-64170000D02*
X129580000Y-64170000D01*
X126620000Y-65630000D02*
X126620000Y-64170000D01*
X129580000Y-64170000D02*
X129580000Y-65630000D01*
X129580000Y-65630000D02*
X126620000Y-65630000D01*
%TO.C,R303*%
X81130000Y-76870000D02*
X79270000Y-76870000D01*
X81130000Y-75930000D02*
X81130000Y-76870000D01*
X79270000Y-76870000D02*
X79270000Y-75930000D01*
X79270000Y-75930000D02*
X81130000Y-75930000D01*
%TO.C,FB102*%
X153530000Y-79330000D02*
X153530000Y-77470000D01*
X154470000Y-79330000D02*
X153530000Y-79330000D01*
X153530000Y-77470000D02*
X154470000Y-77470000D01*
X154470000Y-77470000D02*
X154470000Y-79330000D01*
%TO.C,C1505*%
X249440000Y-47510000D02*
X249440000Y-45690000D01*
X250360000Y-47510000D02*
X249440000Y-47510000D01*
X249440000Y-45690000D02*
X250360000Y-45690000D01*
X250360000Y-45690000D02*
X250360000Y-47510000D01*
%TO.C,CB903*%
X165310000Y-83860000D02*
X163490000Y-83860000D01*
X165310000Y-82940000D02*
X165310000Y-83860000D01*
X163490000Y-83860000D02*
X163490000Y-82940000D01*
X163490000Y-82940000D02*
X165310000Y-82940000D01*
%TO.C,R201*%
X133070000Y-74730000D02*
X134930000Y-74730000D01*
X133070000Y-75670000D02*
X133070000Y-74730000D01*
X134930000Y-74730000D02*
X134930000Y-75670000D01*
X134930000Y-75670000D02*
X133070000Y-75670000D01*
%TO.C,CB1607*%
X230190000Y-64340000D02*
X232010000Y-64340000D01*
X230190000Y-65260000D02*
X230190000Y-64340000D01*
X232010000Y-64340000D02*
X232010000Y-65260000D01*
X232010000Y-65260000D02*
X230190000Y-65260000D01*
%TO.C,C306*%
X156860000Y-77510000D02*
X156860000Y-79330000D01*
X155940000Y-77510000D02*
X156860000Y-77510000D01*
X156860000Y-79330000D02*
X155940000Y-79330000D01*
X155940000Y-79330000D02*
X155940000Y-77510000D01*
%TO.C,CB907*%
X159490000Y-66240000D02*
X161310000Y-66240000D01*
X159490000Y-67160000D02*
X159490000Y-66240000D01*
X161310000Y-66240000D02*
X161310000Y-67160000D01*
X161310000Y-67160000D02*
X159490000Y-67160000D01*
%TO.C,U1401*%
X135390000Y-70060000D02*
X138210000Y-70060000D01*
X135390000Y-73140000D02*
X135390000Y-70060000D01*
X138210000Y-70060000D02*
X138210000Y-73140000D01*
X138210000Y-73140000D02*
X135390000Y-73140000D01*
%TO.C,C1608*%
X243200000Y-69180000D02*
X240200000Y-69180000D01*
X243200000Y-67620000D02*
X243200000Y-69180000D01*
X240200000Y-69180000D02*
X240200000Y-67620000D01*
X240200000Y-67620000D02*
X243200000Y-67620000D01*
%TO.C,R207*%
X138730000Y-57930000D02*
X138730000Y-56070000D01*
X139670000Y-57930000D02*
X138730000Y-57930000D01*
X138730000Y-56070000D02*
X139670000Y-56070000D01*
X139670000Y-56070000D02*
X139670000Y-57930000D01*
%TO.C,R204*%
X133070000Y-71130000D02*
X134930000Y-71130000D01*
X133070000Y-72070000D02*
X133070000Y-71130000D01*
X134930000Y-71130000D02*
X134930000Y-72070000D01*
X134930000Y-72070000D02*
X133070000Y-72070000D01*
%TO.C,C1606*%
X227110000Y-61860000D02*
X225290000Y-61860000D01*
X227110000Y-60940000D02*
X227110000Y-61860000D01*
X225290000Y-61860000D02*
X225290000Y-60940000D01*
X225290000Y-60940000D02*
X227110000Y-60940000D01*
%TO.C,CB1408*%
X236490000Y-43140000D02*
X238310000Y-43140000D01*
X236490000Y-44060000D02*
X236490000Y-43140000D01*
X238310000Y-43140000D02*
X238310000Y-44060000D01*
X238310000Y-44060000D02*
X236490000Y-44060000D01*
%TO.C,CB1401*%
X229460000Y-49140000D02*
X229460000Y-50960000D01*
X228540000Y-49140000D02*
X229460000Y-49140000D01*
X229460000Y-50960000D02*
X228540000Y-50960000D01*
X228540000Y-50960000D02*
X228540000Y-49140000D01*
%TO.C,R1618*%
X243970000Y-66530000D02*
X245830000Y-66530000D01*
X243970000Y-67470000D02*
X243970000Y-66530000D01*
X245830000Y-66530000D02*
X245830000Y-67470000D01*
X245830000Y-67470000D02*
X243970000Y-67470000D01*
%TO.C,C1602*%
X224570000Y-63270000D02*
X224570000Y-65130000D01*
X223630000Y-63270000D02*
X224570000Y-63270000D01*
X224570000Y-65130000D02*
X223630000Y-65130000D01*
X223630000Y-65130000D02*
X223630000Y-63270000D01*
%TO.C,CB904*%
X165310000Y-82660000D02*
X163490000Y-82660000D01*
X165310000Y-81740000D02*
X165310000Y-82660000D01*
X163490000Y-82660000D02*
X163490000Y-81740000D01*
X163490000Y-81740000D02*
X165310000Y-81740000D01*
%TO.C,J203*%
X132450000Y-76050000D02*
X132450000Y-82150000D01*
X132450000Y-82150000D02*
X135550000Y-82150000D01*
X135550000Y-76050000D02*
X132450000Y-76050000D01*
X135550000Y-82150000D02*
X135550000Y-76050000D01*
%TO.C,C909*%
X156140000Y-70910000D02*
X156140000Y-69090000D01*
X157060000Y-70910000D02*
X156140000Y-70910000D01*
X156140000Y-69090000D02*
X157060000Y-69090000D01*
X157060000Y-69090000D02*
X157060000Y-70910000D01*
%TO.C,C404*%
X141540000Y-44740000D02*
X143360000Y-44740000D01*
X141540000Y-45660000D02*
X141540000Y-44740000D01*
X143360000Y-44740000D02*
X143360000Y-45660000D01*
X143360000Y-45660000D02*
X141540000Y-45660000D01*
%TO.C,R402*%
X139530000Y-44530000D02*
X139530000Y-42670000D01*
X140470000Y-44530000D02*
X139530000Y-44530000D01*
X139530000Y-42670000D02*
X140470000Y-42670000D01*
X140470000Y-42670000D02*
X140470000Y-44530000D01*
%TO.C,D301*%
X54550000Y-52150000D02*
X52050000Y-52150000D01*
X54550000Y-50750000D02*
X54550000Y-52150000D01*
X52050000Y-52150000D02*
X52050000Y-50750000D01*
X52050000Y-50750000D02*
X54550000Y-50750000D01*
%TO.C,C202*%
X114940000Y-65710000D02*
X114940000Y-63890000D01*
X115860000Y-65710000D02*
X114940000Y-65710000D01*
X114940000Y-63890000D02*
X115860000Y-63890000D01*
X115860000Y-63890000D02*
X115860000Y-65710000D01*
%TO.C,C1503*%
X247490000Y-42860000D02*
X247490000Y-41040000D01*
X248410000Y-42860000D02*
X247490000Y-42860000D01*
X247490000Y-41040000D02*
X248410000Y-41040000D01*
X248410000Y-41040000D02*
X248410000Y-42860000D01*
%TO.C,CB1201*%
X162760000Y-36640000D02*
X162760000Y-38460000D01*
X161840000Y-36640000D02*
X162760000Y-36640000D01*
X162760000Y-38460000D02*
X161840000Y-38460000D01*
X161840000Y-38460000D02*
X161840000Y-36640000D01*
%TO.C,CB201*%
X134910000Y-68660000D02*
X133090000Y-68660000D01*
X134910000Y-67740000D02*
X134910000Y-68660000D01*
X133090000Y-68660000D02*
X133090000Y-67740000D01*
X133090000Y-67740000D02*
X134910000Y-67740000D01*
%TO.C,R916*%
X160180000Y-66030000D02*
X157220000Y-66030000D01*
X160180000Y-64570000D02*
X160180000Y-66030000D01*
X157220000Y-66030000D02*
X157220000Y-64570000D01*
X157220000Y-64570000D02*
X160180000Y-64570000D01*
%TO.C,R912*%
X171830000Y-62930000D02*
X171830000Y-61070000D01*
X172770000Y-62930000D02*
X171830000Y-62930000D01*
X171830000Y-61070000D02*
X172770000Y-61070000D01*
X172770000Y-61070000D02*
X172770000Y-62930000D01*
%TO.C,R906*%
X166630000Y-63570000D02*
X164770000Y-63570000D01*
X166630000Y-62630000D02*
X166630000Y-63570000D01*
X164770000Y-63570000D02*
X164770000Y-62630000D01*
X164770000Y-62630000D02*
X166630000Y-62630000D01*
%TO.C,R1609*%
X239670000Y-43170000D02*
X239670000Y-45030000D01*
X238730000Y-43170000D02*
X239670000Y-43170000D01*
X239670000Y-45030000D02*
X238730000Y-45030000D01*
X238730000Y-45030000D02*
X238730000Y-43170000D01*
%TO.C,R202*%
X133070000Y-73530000D02*
X134930000Y-73530000D01*
X133070000Y-74470000D02*
X133070000Y-73530000D01*
X134930000Y-73530000D02*
X134930000Y-74470000D01*
X134930000Y-74470000D02*
X133070000Y-74470000D01*
%TO.C,CB1202*%
X161110000Y-38410000D02*
X159290000Y-38410000D01*
X161110000Y-37490000D02*
X161110000Y-38410000D01*
X159290000Y-38410000D02*
X159290000Y-37490000D01*
X159290000Y-37490000D02*
X161110000Y-37490000D01*
%TO.C,C415*%
X143490000Y-43740000D02*
X145310000Y-43740000D01*
X143490000Y-44660000D02*
X143490000Y-43740000D01*
X145310000Y-43740000D02*
X145310000Y-44660000D01*
X145310000Y-44660000D02*
X143490000Y-44660000D01*
%TO.C,R1635*%
X230770000Y-59830000D02*
X232630000Y-59830000D01*
X230770000Y-60770000D02*
X230770000Y-59830000D01*
X232630000Y-59830000D02*
X232630000Y-60770000D01*
X232630000Y-60770000D02*
X230770000Y-60770000D01*
%TO.C,CB1406*%
X246490000Y-52160000D02*
X246490000Y-50340000D01*
X247410000Y-52160000D02*
X246490000Y-52160000D01*
X246490000Y-50340000D02*
X247410000Y-50340000D01*
X247410000Y-50340000D02*
X247410000Y-52160000D01*
D11*
%TO.C,MK1404*%
X235900000Y-42900000D02*
X235900000Y-37900000D01*
X240000000Y-42900000D02*
X235900000Y-42900000D01*
X235900000Y-37900000D02*
X240000000Y-37900000D01*
X240000000Y-37900000D02*
X240000000Y-42900000D01*
D10*
%TO.C,R921*%
X161870000Y-43730000D02*
X163730000Y-43730000D01*
X161870000Y-44670000D02*
X161870000Y-43730000D01*
X163730000Y-43730000D02*
X163730000Y-44670000D01*
X163730000Y-44670000D02*
X161870000Y-44670000D01*
%TO.C,FB101*%
X152330000Y-79330000D02*
X152330000Y-77470000D01*
X153270000Y-79330000D02*
X152330000Y-79330000D01*
X152330000Y-77470000D02*
X153270000Y-77470000D01*
X153270000Y-77470000D02*
X153270000Y-79330000D01*
%TO.C,U301*%
X62000000Y-53765000D02*
X46000000Y-53765000D01*
X46000000Y-53765000D02*
X46000000Y-69765000D01*
X62000000Y-69765000D02*
X62000000Y-53765000D01*
X46000000Y-69765000D02*
X62000000Y-69765000D01*
%TO.C,U402*%
X143250000Y-40800000D02*
X140750000Y-40800000D01*
X143250000Y-40800000D02*
X143250000Y-44400000D01*
X140750000Y-40800000D02*
X140750000Y-44400000D01*
X140750000Y-44400000D02*
X143250000Y-44400000D01*
%TO.C,CB1405*%
X227560000Y-44490000D02*
X227560000Y-46310000D01*
X226640000Y-44490000D02*
X227560000Y-44490000D01*
X227560000Y-46310000D02*
X226640000Y-46310000D01*
X226640000Y-46310000D02*
X226640000Y-44490000D01*
%TO.C,D105*%
X156450000Y-50750000D02*
X156450000Y-53650000D01*
X156450000Y-53650000D02*
X159950000Y-53650000D01*
X159950000Y-50750000D02*
X156450000Y-50750000D01*
X159950000Y-53650000D02*
X159950000Y-50750000D01*
%TO.C,R1622*%
X238170000Y-60330000D02*
X240030000Y-60330000D01*
X238170000Y-61270000D02*
X238170000Y-60330000D01*
X240030000Y-60330000D02*
X240030000Y-61270000D01*
X240030000Y-61270000D02*
X238170000Y-61270000D01*
%TO.C,C704*%
X125160000Y-39890000D02*
X125160000Y-41710000D01*
X124240000Y-39890000D02*
X125160000Y-39890000D01*
X125160000Y-41710000D02*
X124240000Y-41710000D01*
X124240000Y-41710000D02*
X124240000Y-39890000D01*
%TO.C,CB1409*%
X135390000Y-73515000D02*
X137210000Y-73515000D01*
X135390000Y-74435000D02*
X135390000Y-73515000D01*
X137210000Y-73515000D02*
X137210000Y-74435000D01*
X137210000Y-74435000D02*
X135390000Y-74435000D01*
%TO.C,CB1602*%
X218320000Y-61910000D02*
X218320000Y-60090000D01*
X219240000Y-61910000D02*
X218320000Y-61910000D01*
X218320000Y-60090000D02*
X219240000Y-60090000D01*
X219240000Y-60090000D02*
X219240000Y-61910000D01*
%TO.C,CB1301*%
X155490000Y-63440000D02*
X157310000Y-63440000D01*
X155490000Y-64360000D02*
X155490000Y-63440000D01*
X157310000Y-63440000D02*
X157310000Y-64360000D01*
X157310000Y-64360000D02*
X155490000Y-64360000D01*
%TO.C,R1612*%
X227530000Y-47670000D02*
X225670000Y-47670000D01*
X227530000Y-46730000D02*
X227530000Y-47670000D01*
X225670000Y-47670000D02*
X225670000Y-46730000D01*
X225670000Y-46730000D02*
X227530000Y-46730000D01*
%TO.C,C1613*%
X232800000Y-67620000D02*
X235800000Y-67620000D01*
X232800000Y-69180000D02*
X232800000Y-67620000D01*
X235800000Y-67620000D02*
X235800000Y-69180000D01*
X235800000Y-69180000D02*
X232800000Y-69180000D01*
%TO.C,C1006*%
X221760000Y-37490000D02*
X221760000Y-39310000D01*
X220840000Y-37490000D02*
X221760000Y-37490000D01*
X221760000Y-39310000D02*
X220840000Y-39310000D01*
X220840000Y-39310000D02*
X220840000Y-37490000D01*
%TO.C,C1501*%
X226560000Y-44490000D02*
X226560000Y-46310000D01*
X225640000Y-44490000D02*
X226560000Y-44490000D01*
X226560000Y-46310000D02*
X225640000Y-46310000D01*
X225640000Y-46310000D02*
X225640000Y-44490000D01*
%TO.C,FB201*%
X117070000Y-63870000D02*
X117070000Y-65730000D01*
X116130000Y-63870000D02*
X117070000Y-63870000D01*
X117070000Y-65730000D02*
X116130000Y-65730000D01*
X116130000Y-65730000D02*
X116130000Y-63870000D01*
%TO.C,CB1606*%
X238170000Y-68240000D02*
X239990000Y-68240000D01*
X238170000Y-69160000D02*
X238170000Y-68240000D01*
X239990000Y-68240000D02*
X239990000Y-69160000D01*
X239990000Y-69160000D02*
X238170000Y-69160000D01*
%TO.C,C1201*%
X157740000Y-37030000D02*
X157740000Y-34870000D01*
X158660000Y-37030000D02*
X157740000Y-37030000D01*
X157740000Y-34870000D02*
X158660000Y-34870000D01*
X158660000Y-34870000D02*
X158660000Y-37030000D01*
%TO.C,C1610*%
X243860000Y-60990000D02*
X243860000Y-62810000D01*
X242940000Y-60990000D02*
X243860000Y-60990000D01*
X243860000Y-62810000D02*
X242940000Y-62810000D01*
X242940000Y-62810000D02*
X242940000Y-60990000D01*
D11*
%TO.C,MK1402*%
X248100000Y-48100000D02*
X243100000Y-48100000D01*
X248100000Y-44000000D02*
X248100000Y-48100000D01*
X243100000Y-48100000D02*
X243100000Y-44000000D01*
X243100000Y-44000000D02*
X248100000Y-44000000D01*
D10*
%TO.C,C301*%
X78090000Y-52340000D02*
X79910000Y-52340000D01*
X78090000Y-53260000D02*
X78090000Y-52340000D01*
X79910000Y-52340000D02*
X79910000Y-53260000D01*
X79910000Y-53260000D02*
X78090000Y-53260000D01*
%TO.C,D904*%
X155930000Y-67120000D02*
X155930000Y-70080000D01*
X154470000Y-67120000D02*
X155930000Y-67120000D01*
X155930000Y-70080000D02*
X154470000Y-70080000D01*
X154470000Y-70080000D02*
X154470000Y-67120000D01*
%TO.C,CB1407*%
X239510000Y-48760000D02*
X237690000Y-48760000D01*
X239510000Y-47840000D02*
X239510000Y-48760000D01*
X237690000Y-48760000D02*
X237690000Y-47840000D01*
X237690000Y-47840000D02*
X239510000Y-47840000D01*
%TO.C,R913*%
X164927800Y-77870000D02*
X167887800Y-77870000D01*
X164927800Y-79330000D02*
X164927800Y-77870000D01*
X167887800Y-77870000D02*
X167887800Y-79330000D01*
X167887800Y-79330000D02*
X164927800Y-79330000D01*
%TO.C,R1403*%
X135370000Y-74730000D02*
X137230000Y-74730000D01*
X135370000Y-75670000D02*
X135370000Y-74730000D01*
X137230000Y-74730000D02*
X137230000Y-75670000D01*
X137230000Y-75670000D02*
X135370000Y-75670000D01*
%TO.C,R405*%
X149420000Y-41730000D02*
X151280000Y-41730000D01*
X149420000Y-42670000D02*
X149420000Y-41730000D01*
X151280000Y-41730000D02*
X151280000Y-42670000D01*
X151280000Y-42670000D02*
X149420000Y-42670000D01*
D11*
%TO.C,MK1401*%
X227900000Y-43900000D02*
X232900000Y-43900000D01*
X227900000Y-48000000D02*
X227900000Y-43900000D01*
X232900000Y-43900000D02*
X232900000Y-48000000D01*
X232900000Y-48000000D02*
X227900000Y-48000000D01*
D10*
%TO.C,FB501*%
X121030000Y-39730000D02*
X121030000Y-37870000D01*
X121970000Y-39730000D02*
X121030000Y-39730000D01*
X121030000Y-37870000D02*
X121970000Y-37870000D01*
X121970000Y-37870000D02*
X121970000Y-39730000D01*
%TO.C,R914*%
X164927800Y-79684000D02*
X167887800Y-79684000D01*
X164927800Y-81144000D02*
X164927800Y-79684000D01*
X167887800Y-79684000D02*
X167887800Y-81144000D01*
X167887800Y-81144000D02*
X164927800Y-81144000D01*
%TO.C,C302*%
X79910000Y-50860000D02*
X78090000Y-50860000D01*
X79910000Y-49940000D02*
X79910000Y-50860000D01*
X78090000Y-50860000D02*
X78090000Y-49940000D01*
X78090000Y-49940000D02*
X79910000Y-49940000D01*
%TO.C,C1604*%
X222040000Y-66110000D02*
X222040000Y-64290000D01*
X222960000Y-66110000D02*
X222040000Y-66110000D01*
X222040000Y-64290000D02*
X222960000Y-64290000D01*
X222960000Y-64290000D02*
X222960000Y-66110000D01*
%TO.C,C901*%
X150410000Y-70060000D02*
X148590000Y-70060000D01*
X150410000Y-69140000D02*
X150410000Y-70060000D01*
X148590000Y-70060000D02*
X148590000Y-69140000D01*
X148590000Y-69140000D02*
X150410000Y-69140000D01*
%TO.C,C1605*%
X221690000Y-60960000D02*
X219870000Y-60960000D01*
X221690000Y-60040000D02*
X221690000Y-60960000D01*
X219870000Y-60960000D02*
X219870000Y-60040000D01*
X219870000Y-60040000D02*
X221690000Y-60040000D01*
%TO.C,FB302*%
X57330000Y-70970000D02*
X55470000Y-70970000D01*
X57330000Y-70030000D02*
X57330000Y-70970000D01*
X55470000Y-70970000D02*
X55470000Y-70030000D01*
X55470000Y-70030000D02*
X57330000Y-70030000D01*
%TO.C,R411*%
X153930000Y-38520000D02*
X152070000Y-38520000D01*
X153930000Y-37580000D02*
X153930000Y-38520000D01*
X152070000Y-38520000D02*
X152070000Y-37580000D01*
X152070000Y-37580000D02*
X153930000Y-37580000D01*
%TO.C,R917*%
X172770000Y-63070000D02*
X172770000Y-64930000D01*
X171830000Y-63070000D02*
X172770000Y-63070000D01*
X172770000Y-64930000D02*
X171830000Y-64930000D01*
X171830000Y-64930000D02*
X171830000Y-63070000D01*
%TO.C,R1613*%
X229430000Y-52320000D02*
X227570000Y-52320000D01*
X229430000Y-51380000D02*
X229430000Y-52320000D01*
X227570000Y-52320000D02*
X227570000Y-51380000D01*
X227570000Y-51380000D02*
X229430000Y-51380000D01*
%TO.C,H1001*%
X259450000Y-46000000D02*
G75*
G03*
X259450000Y-46000000I-3450000J0D01*
G01*
%TO.C,FB901*%
X148570000Y-68130000D02*
X150430000Y-68130000D01*
X148570000Y-69070000D02*
X148570000Y-68130000D01*
X150430000Y-68130000D02*
X150430000Y-69070000D01*
X150430000Y-69070000D02*
X148570000Y-69070000D01*
%TO.C,FB502*%
X121970000Y-41870000D02*
X121970000Y-43730000D01*
X121030000Y-41870000D02*
X121970000Y-41870000D01*
X121970000Y-43730000D02*
X121030000Y-43730000D01*
X121030000Y-43730000D02*
X121030000Y-41870000D01*
%TO.C,R412*%
X152070000Y-35580000D02*
X153930000Y-35580000D01*
X152070000Y-36520000D02*
X152070000Y-35580000D01*
X153930000Y-35580000D02*
X153930000Y-36520000D01*
X153930000Y-36520000D02*
X152070000Y-36520000D01*
%TO.C,R1610*%
X236330000Y-48730000D02*
X236330000Y-46870000D01*
X237270000Y-48730000D02*
X236330000Y-48730000D01*
X236330000Y-46870000D02*
X237270000Y-46870000D01*
X237270000Y-46870000D02*
X237270000Y-48730000D01*
%TO.C,C602*%
X120190000Y-55740000D02*
X122010000Y-55740000D01*
X120190000Y-56660000D02*
X120190000Y-55740000D01*
X122010000Y-55740000D02*
X122010000Y-56660000D01*
X122010000Y-56660000D02*
X120190000Y-56660000D01*
D11*
%TO.C,MK1403*%
X240100000Y-49100000D02*
X240100000Y-54100000D01*
X236000000Y-49100000D02*
X240100000Y-49100000D01*
X240100000Y-54100000D02*
X236000000Y-54100000D01*
X236000000Y-54100000D02*
X236000000Y-49100000D01*
D10*
%TO.C,CB1605*%
X238190000Y-59240000D02*
X240010000Y-59240000D01*
X238190000Y-60160000D02*
X238190000Y-59240000D01*
X240010000Y-59240000D02*
X240010000Y-60160000D01*
X240010000Y-60160000D02*
X238190000Y-60160000D01*
%TO.C,R401*%
X139530000Y-42530000D02*
X139530000Y-40670000D01*
X140470000Y-42530000D02*
X139530000Y-42530000D01*
X139530000Y-40670000D02*
X140470000Y-40670000D01*
X140470000Y-40670000D02*
X140470000Y-42530000D01*
%TO.C,C905*%
X163802500Y-43310000D02*
X163802500Y-41490000D01*
X164722500Y-43310000D02*
X163802500Y-43310000D01*
X163802500Y-41490000D02*
X164722500Y-41490000D01*
X164722500Y-41490000D02*
X164722500Y-43310000D01*
%TO.C,C1603*%
X222960000Y-62290000D02*
X222960000Y-64110000D01*
X222040000Y-62290000D02*
X222960000Y-62290000D01*
X222960000Y-64110000D02*
X222040000Y-64110000D01*
X222040000Y-64110000D02*
X222040000Y-62290000D01*
%TO.C,R1626*%
X232030000Y-66370000D02*
X230170000Y-66370000D01*
X232030000Y-65430000D02*
X232030000Y-66370000D01*
X230170000Y-66370000D02*
X230170000Y-65430000D01*
X230170000Y-65430000D02*
X232030000Y-65430000D01*
%TO.C,R108*%
X132230000Y-65830000D02*
X132230000Y-63970000D01*
X133170000Y-65830000D02*
X132230000Y-65830000D01*
X132230000Y-63970000D02*
X133170000Y-63970000D01*
X133170000Y-63970000D02*
X133170000Y-65830000D01*
%TO.C,C1507*%
X247490000Y-52160000D02*
X247490000Y-50340000D01*
X248410000Y-52160000D02*
X247490000Y-52160000D01*
X247490000Y-50340000D02*
X248410000Y-50340000D01*
X248410000Y-50340000D02*
X248410000Y-52160000D01*
%TO.C,C1005*%
X215260000Y-42890000D02*
X215260000Y-44710000D01*
X214340000Y-42890000D02*
X215260000Y-42890000D01*
X215260000Y-44710000D02*
X214340000Y-44710000D01*
X214340000Y-44710000D02*
X214340000Y-42890000D01*
%TO.C,D1001*%
X208897500Y-39850000D02*
X205937500Y-39850000D01*
X208897500Y-38390000D02*
X208897500Y-39850000D01*
X205937500Y-39850000D02*
X205937500Y-38390000D01*
X205937500Y-38390000D02*
X208897500Y-38390000D01*
%TO.C,U1701*%
X221720000Y-66320000D02*
X221720000Y-62080000D01*
X221720000Y-62080000D02*
X217480000Y-62080000D01*
X217480000Y-66320000D02*
X221720000Y-66320000D01*
X217480000Y-62080000D02*
X217480000Y-66320000D01*
%TO.C,CB1001*%
X222960000Y-37490000D02*
X222960000Y-39310000D01*
X222040000Y-37490000D02*
X222960000Y-37490000D01*
X222960000Y-39310000D02*
X222040000Y-39310000D01*
X222040000Y-39310000D02*
X222040000Y-37490000D01*
%TO.C,C1614*%
X243200000Y-60780000D02*
X240200000Y-60780000D01*
X243200000Y-59220000D02*
X243200000Y-60780000D01*
X240200000Y-60780000D02*
X240200000Y-59220000D01*
X240200000Y-59220000D02*
X243200000Y-59220000D01*
%TO.C,C911*%
X165960000Y-45290000D02*
X165960000Y-47110000D01*
X165040000Y-45290000D02*
X165960000Y-45290000D01*
X165960000Y-47110000D02*
X165040000Y-47110000D01*
X165040000Y-47110000D02*
X165040000Y-45290000D01*
%TO.C,R707*%
X131030000Y-42730000D02*
X131030000Y-40870000D01*
X131970000Y-42730000D02*
X131030000Y-42730000D01*
X131030000Y-40870000D02*
X131970000Y-40870000D01*
X131970000Y-40870000D02*
X131970000Y-42730000D01*
%TO.C,C1601*%
X227080000Y-62500000D02*
X227080000Y-65900000D01*
X225120000Y-62500000D02*
X227080000Y-62500000D01*
X227080000Y-65900000D02*
X225120000Y-65900000D01*
X225120000Y-65900000D02*
X225120000Y-62500000D01*
%TO.C,R807*%
X131030000Y-54530000D02*
X131030000Y-52670000D01*
X131970000Y-54530000D02*
X131030000Y-54530000D01*
X131030000Y-52670000D02*
X131970000Y-52670000D01*
X131970000Y-52670000D02*
X131970000Y-54530000D01*
%TO.C,R1619*%
X243970000Y-62030000D02*
X245830000Y-62030000D01*
X243970000Y-62970000D02*
X243970000Y-62030000D01*
X245830000Y-62030000D02*
X245830000Y-62970000D01*
X245830000Y-62970000D02*
X243970000Y-62970000D01*
%TO.C,FB304*%
X155670000Y-77470000D02*
X155670000Y-79330000D01*
X154730000Y-77470000D02*
X155670000Y-77470000D01*
X155670000Y-79330000D02*
X154730000Y-79330000D01*
X154730000Y-79330000D02*
X154730000Y-77470000D01*
%TO.C,R104*%
X160270000Y-52530000D02*
X162130000Y-52530000D01*
X160270000Y-53470000D02*
X160270000Y-52530000D01*
X162130000Y-52530000D02*
X162130000Y-53470000D01*
X162130000Y-53470000D02*
X160270000Y-53470000D01*
%TO.C,C1609*%
X232800000Y-59220000D02*
X235800000Y-59220000D01*
X232800000Y-60780000D02*
X232800000Y-59220000D01*
X235800000Y-59220000D02*
X235800000Y-60780000D01*
X235800000Y-60780000D02*
X232800000Y-60780000D01*
%TO.C,R1602*%
X227270000Y-64430000D02*
X229130000Y-64430000D01*
X227270000Y-65370000D02*
X227270000Y-64430000D01*
X229130000Y-64430000D02*
X229130000Y-65370000D01*
X229130000Y-65370000D02*
X227270000Y-65370000D01*
%TO.C,R903*%
X166830000Y-58530000D02*
X166830000Y-56670000D01*
X167770000Y-58530000D02*
X166830000Y-58530000D01*
X166830000Y-56670000D02*
X167770000Y-56670000D01*
X167770000Y-56670000D02*
X167770000Y-58530000D01*
%TO.C,C1102*%
X212260000Y-49490000D02*
X212260000Y-51310000D01*
X211340000Y-49490000D02*
X212260000Y-49490000D01*
X212260000Y-51310000D02*
X211340000Y-51310000D01*
X211340000Y-51310000D02*
X211340000Y-49490000D01*
%TO.C,R1401*%
X137230000Y-68570000D02*
X135370000Y-68570000D01*
X137230000Y-67630000D02*
X137230000Y-68570000D01*
X135370000Y-68570000D02*
X135370000Y-67630000D01*
X135370000Y-67630000D02*
X137230000Y-67630000D01*
%TO.C,CB902*%
X150410000Y-66060000D02*
X148590000Y-66060000D01*
X150410000Y-65140000D02*
X150410000Y-66060000D01*
X148590000Y-66060000D02*
X148590000Y-65140000D01*
X148590000Y-65140000D02*
X150410000Y-65140000D01*
%TO.C,R410*%
X152070000Y-34580000D02*
X153930000Y-34580000D01*
X152070000Y-35520000D02*
X152070000Y-34580000D01*
X153930000Y-34580000D02*
X153930000Y-35520000D01*
X153930000Y-35520000D02*
X152070000Y-35520000D01*
%TO.C,R1629*%
X234070000Y-65570000D02*
X234070000Y-67430000D01*
X233130000Y-65570000D02*
X234070000Y-65570000D01*
X234070000Y-67430000D02*
X233130000Y-67430000D01*
X233130000Y-67430000D02*
X233130000Y-65570000D01*
%TO.C,R1631*%
X232030000Y-62970000D02*
X230170000Y-62970000D01*
X232030000Y-62030000D02*
X232030000Y-62970000D01*
X230170000Y-62970000D02*
X230170000Y-62030000D01*
X230170000Y-62030000D02*
X232030000Y-62030000D01*
%TO.C,U1001*%
X223250000Y-37200000D02*
X223250000Y-40600000D01*
X223250000Y-40600000D02*
X227350000Y-40600000D01*
X227350000Y-37200000D02*
X223250000Y-37200000D01*
X227350000Y-40600000D02*
X227350000Y-37200000D01*
D11*
%TO.C,MK1405*%
X229850000Y-48550000D02*
X234850000Y-48550000D01*
X229850000Y-52650000D02*
X229850000Y-48550000D01*
X234850000Y-48550000D02*
X234850000Y-52650000D01*
X234850000Y-52650000D02*
X229850000Y-52650000D01*
D10*
%TO.C,C1101*%
X214940000Y-51310000D02*
X214940000Y-49490000D01*
X215860000Y-51310000D02*
X214940000Y-51310000D01*
X214940000Y-49490000D02*
X215860000Y-49490000D01*
X215860000Y-49490000D02*
X215860000Y-51310000D01*
%TO.C,R1606*%
X223170000Y-66530000D02*
X225030000Y-66530000D01*
X223170000Y-67470000D02*
X223170000Y-66530000D01*
X225030000Y-66530000D02*
X225030000Y-67470000D01*
X225030000Y-67470000D02*
X223170000Y-67470000D01*
%TO.C,R501*%
X121970000Y-39870000D02*
X121970000Y-41730000D01*
X121030000Y-39870000D02*
X121970000Y-39870000D01*
X121970000Y-41730000D02*
X121030000Y-41730000D01*
X121030000Y-41730000D02*
X121030000Y-39870000D01*
%TO.C,FB301*%
X78070000Y-51130000D02*
X79930000Y-51130000D01*
X78070000Y-52070000D02*
X78070000Y-51130000D01*
X79930000Y-51130000D02*
X79930000Y-52070000D01*
X79930000Y-52070000D02*
X78070000Y-52070000D01*
%TO.C,R808*%
X131970000Y-50670000D02*
X131970000Y-52530000D01*
X131030000Y-50670000D02*
X131970000Y-50670000D01*
X131970000Y-52530000D02*
X131030000Y-52530000D01*
X131030000Y-52530000D02*
X131030000Y-50670000D01*
%TO.C,C1504*%
X242940000Y-65110000D02*
X242940000Y-63290000D01*
X243860000Y-65110000D02*
X242940000Y-65110000D01*
X242940000Y-63290000D02*
X243860000Y-63290000D01*
X243860000Y-63290000D02*
X243860000Y-65110000D01*
%TO.C,U1002*%
X215650000Y-40600000D02*
X215650000Y-37200000D01*
X215650000Y-37200000D02*
X211550000Y-37200000D01*
X211550000Y-40600000D02*
X215650000Y-40600000D01*
X211550000Y-37200000D02*
X211550000Y-40600000D01*
%TO.C,R1611*%
X248470000Y-44330000D02*
X250330000Y-44330000D01*
X248470000Y-45270000D02*
X248470000Y-44330000D01*
X250330000Y-44330000D02*
X250330000Y-45270000D01*
X250330000Y-45270000D02*
X248470000Y-45270000D01*
%TO.C,R1201*%
X160730000Y-34270000D02*
X158870000Y-34270000D01*
X160730000Y-33330000D02*
X160730000Y-34270000D01*
X158870000Y-34270000D02*
X158870000Y-33330000D01*
X158870000Y-33330000D02*
X160730000Y-33330000D01*
%TO.C,C712*%
X128410000Y-44960000D02*
X126590000Y-44960000D01*
X128410000Y-44040000D02*
X128410000Y-44960000D01*
X126590000Y-44960000D02*
X126590000Y-44040000D01*
X126590000Y-44040000D02*
X128410000Y-44040000D01*
%TO.C,FB903*%
X164770000Y-59530000D02*
X166630000Y-59530000D01*
X164770000Y-60470000D02*
X164770000Y-59530000D01*
X166630000Y-59530000D02*
X166630000Y-60470000D01*
X166630000Y-60470000D02*
X164770000Y-60470000D01*
%TO.C,CB1502*%
X241940000Y-65110000D02*
X241940000Y-63290000D01*
X242860000Y-65110000D02*
X241940000Y-65110000D01*
X241940000Y-63290000D02*
X242860000Y-63290000D01*
X242860000Y-63290000D02*
X242860000Y-65110000D01*
%TO.C,R210*%
X166520000Y-41570000D02*
X169480000Y-41570000D01*
X166520000Y-43030000D02*
X166520000Y-41570000D01*
X169480000Y-41570000D02*
X169480000Y-43030000D01*
X169480000Y-43030000D02*
X166520000Y-43030000D01*
%TO.C,R910*%
X167730000Y-83870000D02*
X165870000Y-83870000D01*
X167730000Y-82930000D02*
X167730000Y-83870000D01*
X165870000Y-83870000D02*
X165870000Y-82930000D01*
X165870000Y-82930000D02*
X167730000Y-82930000D01*
%TO.C,R918*%
X135470000Y-34730000D02*
X137330000Y-34730000D01*
X135470000Y-35670000D02*
X135470000Y-34730000D01*
X137330000Y-34730000D02*
X137330000Y-35670000D01*
X137330000Y-35670000D02*
X135470000Y-35670000D01*
%TO.C,C1009*%
X229110000Y-61860000D02*
X227290000Y-61860000D01*
X229110000Y-60940000D02*
X229110000Y-61860000D01*
X227290000Y-61860000D02*
X227290000Y-60940000D01*
X227290000Y-60940000D02*
X229110000Y-60940000D01*
%TO.C,C1502*%
X242940000Y-67410000D02*
X242940000Y-65590000D01*
X243860000Y-67410000D02*
X242940000Y-67410000D01*
X242940000Y-65590000D02*
X243860000Y-65590000D01*
X243860000Y-65590000D02*
X243860000Y-67410000D01*
%TO.C,C206*%
X148610000Y-82060000D02*
X146790000Y-82060000D01*
X148610000Y-81140000D02*
X148610000Y-82060000D01*
X146790000Y-82060000D02*
X146790000Y-81140000D01*
X146790000Y-81140000D02*
X148610000Y-81140000D01*
%TO.C,C912*%
X161310000Y-44660000D02*
X159490000Y-44660000D01*
X161310000Y-43740000D02*
X161310000Y-44660000D01*
X159490000Y-44660000D02*
X159490000Y-43740000D01*
X159490000Y-43740000D02*
X161310000Y-43740000D01*
%TO.C,R708*%
X131970000Y-38870000D02*
X131970000Y-40730000D01*
X131030000Y-38870000D02*
X131970000Y-38870000D01*
X131970000Y-40730000D02*
X131030000Y-40730000D01*
X131030000Y-40730000D02*
X131030000Y-38870000D01*
%TO.C,C1506*%
X229510000Y-39840000D02*
X229510000Y-41660000D01*
X228590000Y-39840000D02*
X229510000Y-39840000D01*
X229510000Y-41660000D02*
X228590000Y-41660000D01*
X228590000Y-41660000D02*
X228590000Y-39840000D01*
%TO.C,C902*%
X150410000Y-68060000D02*
X148590000Y-68060000D01*
X150410000Y-67140000D02*
X150410000Y-68060000D01*
X148590000Y-68060000D02*
X148590000Y-67140000D01*
X148590000Y-67140000D02*
X150410000Y-67140000D01*
%TO.C,FB305*%
X72970000Y-62180000D02*
X74830000Y-62180000D01*
X72970000Y-63120000D02*
X72970000Y-62180000D01*
X74830000Y-62180000D02*
X74830000Y-63120000D01*
X74830000Y-63120000D02*
X72970000Y-63120000D01*
%TO.C,R1623*%
X245230000Y-68570000D02*
X243370000Y-68570000D01*
X245230000Y-67630000D02*
X245230000Y-68570000D01*
X243370000Y-68570000D02*
X243370000Y-67630000D01*
X243370000Y-67630000D02*
X245230000Y-67630000D01*
%TO.C,R1633*%
X237830000Y-61270000D02*
X235970000Y-61270000D01*
X237830000Y-60330000D02*
X237830000Y-61270000D01*
X235970000Y-61270000D02*
X235970000Y-60330000D01*
X235970000Y-60330000D02*
X237830000Y-60330000D01*
%TO.C,C1401*%
X236490000Y-44140000D02*
X238310000Y-44140000D01*
X236490000Y-45060000D02*
X236490000Y-44140000D01*
X238310000Y-44140000D02*
X238310000Y-45060000D01*
X238310000Y-45060000D02*
X236490000Y-45060000D01*
%TO.C,U904*%
X159550000Y-44900000D02*
X159550000Y-48300000D01*
X159550000Y-48300000D02*
X163650000Y-48300000D01*
X163650000Y-44900000D02*
X159550000Y-44900000D01*
X163650000Y-48300000D02*
X163650000Y-44900000D01*
%TO.C,J302*%
X77225000Y-70275000D02*
X77225000Y-68275000D01*
X80725000Y-70275000D02*
X77225000Y-70275000D01*
X76475000Y-68275000D02*
X77225000Y-68275000D01*
X75225000Y-67275000D02*
X76475000Y-67275000D01*
X75225000Y-67275000D02*
X75225000Y-57025000D01*
X76475000Y-67275000D02*
X76475000Y-68275000D01*
X76475000Y-57025000D02*
X75225000Y-57025000D01*
X76475000Y-55775000D02*
X76475000Y-57025000D01*
X77225000Y-55775000D02*
X76475000Y-55775000D01*
X77225000Y-53775000D02*
X77225000Y-55775000D01*
X80725000Y-53775000D02*
X80725000Y-70275000D01*
X80725000Y-53775000D02*
X77225000Y-53775000D01*
%TO.C,R902*%
X166830000Y-60475200D02*
X166830000Y-58615200D01*
X167770000Y-60475200D02*
X166830000Y-60475200D01*
X166830000Y-58615200D02*
X167770000Y-58615200D01*
X167770000Y-58615200D02*
X167770000Y-60475200D01*
%TO.C,R1601*%
X227270000Y-63130000D02*
X229130000Y-63130000D01*
X227270000Y-64070000D02*
X227270000Y-63130000D01*
X229130000Y-63130000D02*
X229130000Y-64070000D01*
X229130000Y-64070000D02*
X227270000Y-64070000D01*
%TO.C,CB1402*%
X246490000Y-42860000D02*
X246490000Y-41040000D01*
X247410000Y-42860000D02*
X246490000Y-42860000D01*
X246490000Y-41040000D02*
X247410000Y-41040000D01*
X247410000Y-41040000D02*
X247410000Y-42860000D01*
%TO.C,CB1610*%
X245790000Y-65260000D02*
X243970000Y-65260000D01*
X245790000Y-64340000D02*
X245790000Y-65260000D01*
X243970000Y-65260000D02*
X243970000Y-64340000D01*
X243970000Y-64340000D02*
X245790000Y-64340000D01*
%TO.C,D302*%
X78730000Y-74120000D02*
X78730000Y-77080000D01*
X77270000Y-74120000D02*
X78730000Y-74120000D01*
X78730000Y-77080000D02*
X77270000Y-77080000D01*
X77270000Y-77080000D02*
X77270000Y-74120000D01*
%TO.C,JP101*%
X136750000Y-66150000D02*
X136750000Y-63650000D01*
X136750000Y-66150000D02*
X133450000Y-66150000D01*
X133450000Y-63650000D02*
X136750000Y-63650000D01*
X133450000Y-63650000D02*
X133450000Y-66150000D01*
%TO.C,R1303*%
X159470000Y-63430000D02*
X161330000Y-63430000D01*
X159470000Y-64370000D02*
X159470000Y-63430000D01*
X161330000Y-63430000D02*
X161330000Y-64370000D01*
X161330000Y-64370000D02*
X159470000Y-64370000D01*
%TO.C,D303*%
X83130000Y-74132500D02*
X83130000Y-77092500D01*
X81670000Y-74132500D02*
X83130000Y-74132500D01*
X83130000Y-77092500D02*
X81670000Y-77092500D01*
X81670000Y-77092500D02*
X81670000Y-74132500D01*
%TO.C,R1002*%
X208330000Y-38170000D02*
X206470000Y-38170000D01*
X208330000Y-37230000D02*
X208330000Y-38170000D01*
X206470000Y-38170000D02*
X206470000Y-37230000D01*
X206470000Y-37230000D02*
X208330000Y-37230000D01*
%TO.C,SW901*%
X168300000Y-89900000D02*
X173300000Y-89900000D01*
X173300000Y-89900000D02*
X173300000Y-87400000D01*
X173300000Y-87400000D02*
X175300000Y-87400000D01*
X175300000Y-87400000D02*
X175300000Y-79400000D01*
X173300000Y-79400000D02*
X173300000Y-76900000D01*
X175300000Y-79400000D02*
X173300000Y-79400000D01*
X168300000Y-76900000D02*
X168300000Y-89900000D01*
X173300000Y-76900000D02*
X168300000Y-76900000D01*
%TO.C,R211*%
X170320000Y-43170000D02*
X173280000Y-43170000D01*
X170320000Y-44630000D02*
X170320000Y-43170000D01*
X173280000Y-43170000D02*
X173280000Y-44630000D01*
X173280000Y-44630000D02*
X170320000Y-44630000D01*
%TO.C,R907*%
X172770000Y-65070000D02*
X172770000Y-66930000D01*
X171830000Y-65070000D02*
X172770000Y-65070000D01*
X172770000Y-66930000D02*
X171830000Y-66930000D01*
X171830000Y-66930000D02*
X171830000Y-65070000D01*
%TO.C,FB1102*%
X213470000Y-49470000D02*
X213470000Y-51330000D01*
X212530000Y-49470000D02*
X213470000Y-49470000D01*
X213470000Y-51330000D02*
X212530000Y-51330000D01*
X212530000Y-51330000D02*
X212530000Y-49470000D01*
%TO.C,C805*%
X129960000Y-54890000D02*
X129960000Y-56710000D01*
X129040000Y-54890000D02*
X129960000Y-54890000D01*
X129960000Y-56710000D02*
X129040000Y-56710000D01*
X129040000Y-56710000D02*
X129040000Y-54890000D01*
%TO.C,C1007*%
X217140000Y-40310000D02*
X217140000Y-38490000D01*
X218060000Y-40310000D02*
X217140000Y-40310000D01*
X217140000Y-38490000D02*
X218060000Y-38490000D01*
X218060000Y-38490000D02*
X218060000Y-40310000D01*
%TO.C,H1002*%
X223450000Y-46000000D02*
G75*
G03*
X223450000Y-46000000I-3450000J0D01*
G01*
%TO.C,FB303*%
X52585000Y-70030000D02*
X54445000Y-70030000D01*
X52585000Y-70970000D02*
X52585000Y-70030000D01*
X54445000Y-70030000D02*
X54445000Y-70970000D01*
X54445000Y-70970000D02*
X52585000Y-70970000D01*
%TO.C,CB108*%
X160290000Y-51140000D02*
X162110000Y-51140000D01*
X160290000Y-52060000D02*
X160290000Y-51140000D01*
X162110000Y-51140000D02*
X162110000Y-52060000D01*
X162110000Y-52060000D02*
X160290000Y-52060000D01*
%TO.C,R1301*%
X161470000Y-63430000D02*
X163330000Y-63430000D01*
X161470000Y-64370000D02*
X161470000Y-63430000D01*
X163330000Y-63430000D02*
X163330000Y-64370000D01*
X163330000Y-64370000D02*
X161470000Y-64370000D01*
%TO.C,CB1410*%
X137210000Y-69660000D02*
X135390000Y-69660000D01*
X137210000Y-68740000D02*
X137210000Y-69660000D01*
X135390000Y-69660000D02*
X135390000Y-68740000D01*
X135390000Y-68740000D02*
X137210000Y-68740000D01*
%TO.C,C1003*%
X211940000Y-44710000D02*
X211940000Y-42890000D01*
X212860000Y-44710000D02*
X211940000Y-44710000D01*
X211940000Y-42890000D02*
X212860000Y-42890000D01*
X212860000Y-42890000D02*
X212860000Y-44710000D01*
%TO.C,C1202*%
X161840000Y-36460000D02*
X161840000Y-34640000D01*
X162760000Y-36460000D02*
X161840000Y-36460000D01*
X161840000Y-34640000D02*
X162760000Y-34640000D01*
X162760000Y-34640000D02*
X162760000Y-36460000D01*
%TO.C,CB1608*%
X230190000Y-63140000D02*
X232010000Y-63140000D01*
X230190000Y-64060000D02*
X230190000Y-63140000D01*
X232010000Y-63140000D02*
X232010000Y-64060000D01*
X232010000Y-64060000D02*
X230190000Y-64060000D01*
%TO.C,R904*%
X166630000Y-62511800D02*
X164770000Y-62511800D01*
X166630000Y-61571800D02*
X166630000Y-62511800D01*
X164770000Y-62511800D02*
X164770000Y-61571800D01*
X164770000Y-61571800D02*
X166630000Y-61571800D01*
%TO.C,R1617*%
X243970000Y-65430000D02*
X245830000Y-65430000D01*
X243970000Y-66370000D02*
X243970000Y-65430000D01*
X245830000Y-65430000D02*
X245830000Y-66370000D01*
X245830000Y-66370000D02*
X243970000Y-66370000D01*
%TO.C,C107*%
X142810000Y-49140000D02*
X144630000Y-49140000D01*
X142810000Y-50060000D02*
X142810000Y-49140000D01*
X144630000Y-49140000D02*
X144630000Y-50060000D01*
X144630000Y-50060000D02*
X142810000Y-50060000D01*
%TO.C,C601*%
X122010000Y-49460000D02*
X120190000Y-49460000D01*
X122010000Y-48540000D02*
X122010000Y-49460000D01*
X120190000Y-49460000D02*
X120190000Y-48540000D01*
X120190000Y-48540000D02*
X122010000Y-48540000D01*
%TO.C,R1627*%
X232030000Y-67470000D02*
X230170000Y-67470000D01*
X232030000Y-66530000D02*
X232030000Y-67470000D01*
X230170000Y-67470000D02*
X230170000Y-66530000D01*
X230170000Y-66530000D02*
X232030000Y-66530000D01*
%TO.C,R1624*%
X241930000Y-62830000D02*
X241930000Y-60970000D01*
X242870000Y-62830000D02*
X241930000Y-62830000D01*
X241930000Y-60970000D02*
X242870000Y-60970000D01*
X242870000Y-60970000D02*
X242870000Y-62830000D01*
%TO.C,J205*%
X135750000Y-84550000D02*
X137750000Y-84550000D01*
X135750000Y-88050000D02*
X135750000Y-84550000D01*
X137750000Y-83800000D02*
X137750000Y-84550000D01*
X138750000Y-82550000D02*
X138750000Y-83800000D01*
X138750000Y-82550000D02*
X149000000Y-82550000D01*
X138750000Y-83800000D02*
X137750000Y-83800000D01*
X149000000Y-83800000D02*
X149000000Y-82550000D01*
X150250000Y-83800000D02*
X149000000Y-83800000D01*
X150250000Y-84550000D02*
X150250000Y-83800000D01*
X152250000Y-84550000D02*
X150250000Y-84550000D01*
X152250000Y-88050000D02*
X135750000Y-88050000D01*
X152250000Y-88050000D02*
X152250000Y-84550000D01*
%TO.C,CB906*%
X163740000Y-80410000D02*
X163740000Y-78590000D01*
X164660000Y-80410000D02*
X163740000Y-80410000D01*
X163740000Y-78590000D02*
X164660000Y-78590000D01*
X164660000Y-78590000D02*
X164660000Y-80410000D01*
%TO.C,R1003*%
X217930000Y-38370000D02*
X216070000Y-38370000D01*
X217930000Y-37430000D02*
X217930000Y-38370000D01*
X216070000Y-38370000D02*
X216070000Y-37430000D01*
X216070000Y-37430000D02*
X217930000Y-37430000D01*
%TO.C,C416*%
X120490000Y-47240000D02*
X122310000Y-47240000D01*
X120490000Y-48160000D02*
X120490000Y-47240000D01*
X122310000Y-47240000D02*
X122310000Y-48160000D01*
X122310000Y-48160000D02*
X120490000Y-48160000D01*
D11*
%TO.C,MK1407*%
X229850000Y-39250000D02*
X234850000Y-39250000D01*
X229850000Y-43350000D02*
X229850000Y-39250000D01*
X234850000Y-39250000D02*
X234850000Y-43350000D01*
X234850000Y-43350000D02*
X229850000Y-43350000D01*
D10*
%TO.C,C1001*%
X228560000Y-37490000D02*
X228560000Y-39310000D01*
X227640000Y-37490000D02*
X228560000Y-37490000D01*
X228560000Y-39310000D02*
X227640000Y-39310000D01*
X227640000Y-39310000D02*
X227640000Y-37490000D01*
%TO.C,R1603*%
X223170000Y-62030000D02*
X225030000Y-62030000D01*
X223170000Y-62970000D02*
X223170000Y-62030000D01*
X225030000Y-62030000D02*
X225030000Y-62970000D01*
X225030000Y-62970000D02*
X223170000Y-62970000D01*
%TO.C,C1008*%
X232140000Y-65110000D02*
X232140000Y-63290000D01*
X233060000Y-65110000D02*
X232140000Y-65110000D01*
X232140000Y-63290000D02*
X233060000Y-63290000D01*
X233060000Y-63290000D02*
X233060000Y-65110000D01*
%TO.C,R919*%
X157070000Y-67070000D02*
X157070000Y-68930000D01*
X156130000Y-67070000D02*
X157070000Y-67070000D01*
X157070000Y-68930000D02*
X156130000Y-68930000D01*
X156130000Y-68930000D02*
X156130000Y-67070000D01*
%TO.C,C205*%
X148710000Y-74660000D02*
X146890000Y-74660000D01*
X148710000Y-73740000D02*
X148710000Y-74660000D01*
X146890000Y-74660000D02*
X146890000Y-73740000D01*
X146890000Y-73740000D02*
X148710000Y-73740000D01*
%TO.C,U1301*%
X163100000Y-63250000D02*
X163100000Y-57850000D01*
X163100000Y-57850000D02*
X155700000Y-57850000D01*
X155700000Y-63250000D02*
X163100000Y-63250000D01*
X155700000Y-57850000D02*
X155700000Y-63250000D01*
%TO.C,TP1001*%
X214000000Y-41800000D02*
G75*
G03*
X214000000Y-41800000I-1000000J0D01*
G01*
%TO.C,CB1002*%
X215940000Y-40310000D02*
X215940000Y-38490000D01*
X216860000Y-40310000D02*
X215940000Y-40310000D01*
X215940000Y-38490000D02*
X216860000Y-38490000D01*
X216860000Y-38490000D02*
X216860000Y-40310000D01*
%TO.C,C1004*%
X233140000Y-65110000D02*
X233140000Y-63290000D01*
X234060000Y-65110000D02*
X233140000Y-65110000D01*
X233140000Y-63290000D02*
X234060000Y-63290000D01*
X234060000Y-63290000D02*
X234060000Y-65110000D01*
%TO.C,C201*%
X118260000Y-63890000D02*
X118260000Y-65710000D01*
X117340000Y-63890000D02*
X118260000Y-63890000D01*
X118260000Y-65710000D02*
X117340000Y-65710000D01*
X117340000Y-65710000D02*
X117340000Y-63890000D01*
%TO.C,C1612*%
X233060000Y-60990000D02*
X233060000Y-62810000D01*
X232140000Y-60990000D02*
X233060000Y-60990000D01*
X233060000Y-62810000D02*
X232140000Y-62810000D01*
X232140000Y-62810000D02*
X232140000Y-60990000D01*
%TO.C,R302*%
X81130000Y-75270000D02*
X79270000Y-75270000D01*
X81130000Y-74330000D02*
X81130000Y-75270000D01*
X79270000Y-75270000D02*
X79270000Y-74330000D01*
X79270000Y-74330000D02*
X81130000Y-74330000D01*
D11*
%TO.C,MK1406*%
X246150000Y-43450000D02*
X241150000Y-43450000D01*
X246150000Y-39350000D02*
X246150000Y-43450000D01*
X241150000Y-43450000D02*
X241150000Y-39350000D01*
X241150000Y-39350000D02*
X246150000Y-39350000D01*
D10*
%TO.C,R909*%
X166770000Y-64380000D02*
X166770000Y-66240000D01*
X165830000Y-64380000D02*
X166770000Y-64380000D01*
X166770000Y-66240000D02*
X165830000Y-66240000D01*
X165830000Y-66240000D02*
X165830000Y-64380000D01*
%TO.C,J1101*%
X209250000Y-40250000D02*
X209250000Y-42250000D01*
X205750000Y-40250000D02*
X209250000Y-40250000D01*
X210000000Y-42250000D02*
X209250000Y-42250000D01*
X211250000Y-43250000D02*
X210000000Y-43250000D01*
X211250000Y-43250000D02*
X211250000Y-48500000D01*
X210000000Y-43250000D02*
X210000000Y-42250000D01*
X210000000Y-48500000D02*
X211250000Y-48500000D01*
X210000000Y-49750000D02*
X210000000Y-48500000D01*
X209250000Y-49750000D02*
X210000000Y-49750000D01*
X209250000Y-51750000D02*
X209250000Y-49750000D01*
X205750000Y-51750000D02*
X205750000Y-40250000D01*
X205750000Y-51750000D02*
X209250000Y-51750000D01*
%TO.C,C1508*%
X239510000Y-47760000D02*
X237690000Y-47760000D01*
X239510000Y-46840000D02*
X239510000Y-47760000D01*
X237690000Y-47760000D02*
X237690000Y-46840000D01*
X237690000Y-46840000D02*
X239510000Y-46840000D01*
%TO.C,C417*%
X120690000Y-35340000D02*
X122510000Y-35340000D01*
X120690000Y-36260000D02*
X120690000Y-35340000D01*
X122510000Y-35340000D02*
X122510000Y-36260000D01*
X122510000Y-36260000D02*
X120690000Y-36260000D01*
%TO.C,C1607*%
X227110000Y-67460000D02*
X225290000Y-67460000D01*
X227110000Y-66540000D02*
X227110000Y-67460000D01*
X225290000Y-67460000D02*
X225290000Y-66540000D01*
X225290000Y-66540000D02*
X227110000Y-66540000D01*
%TO.C,R1614*%
X246520000Y-39680000D02*
X248380000Y-39680000D01*
X246520000Y-40620000D02*
X246520000Y-39680000D01*
X248380000Y-39680000D02*
X248380000Y-40620000D01*
X248380000Y-40620000D02*
X246520000Y-40620000D01*
%TO.C,FB1001*%
X213130000Y-44730000D02*
X213130000Y-42870000D01*
X214070000Y-44730000D02*
X213130000Y-44730000D01*
X213130000Y-42870000D02*
X214070000Y-42870000D01*
X214070000Y-42870000D02*
X214070000Y-44730000D01*
%TO.C,J207*%
X135750000Y-77050000D02*
X137750000Y-77050000D01*
X135750000Y-80550000D02*
X135750000Y-77050000D01*
X137750000Y-76300000D02*
X137750000Y-77050000D01*
X138750000Y-75050000D02*
X138750000Y-76300000D01*
X138750000Y-75050000D02*
X149000000Y-75050000D01*
X138750000Y-76300000D02*
X137750000Y-76300000D01*
X149000000Y-76300000D02*
X149000000Y-75050000D01*
X150250000Y-76300000D02*
X149000000Y-76300000D01*
X150250000Y-77050000D02*
X150250000Y-76300000D01*
X152250000Y-77050000D02*
X150250000Y-77050000D01*
X152250000Y-80550000D02*
X135750000Y-80550000D01*
X152250000Y-80550000D02*
X152250000Y-77050000D01*
%TO.C,C812*%
X128410000Y-56760000D02*
X126590000Y-56760000D01*
X128410000Y-55840000D02*
X128410000Y-56760000D01*
X126590000Y-56760000D02*
X126590000Y-55840000D01*
X126590000Y-55840000D02*
X128410000Y-55840000D01*
%TO.C,R1101*%
X214530000Y-49270000D02*
X212670000Y-49270000D01*
X214530000Y-48330000D02*
X214530000Y-49270000D01*
X212670000Y-49270000D02*
X212670000Y-48330000D01*
X212670000Y-48330000D02*
X214530000Y-48330000D01*
%TO.C,J501*%
X118250000Y-34850000D02*
X118250000Y-36850000D01*
X114750000Y-34850000D02*
X118250000Y-34850000D01*
X119000000Y-36850000D02*
X118250000Y-36850000D01*
X120250000Y-37850000D02*
X119000000Y-37850000D01*
X120250000Y-37850000D02*
X120250000Y-43100000D01*
X119000000Y-37850000D02*
X119000000Y-36850000D01*
X119000000Y-43100000D02*
X120250000Y-43100000D01*
X119000000Y-44350000D02*
X119000000Y-43100000D01*
X118250000Y-44350000D02*
X119000000Y-44350000D01*
X118250000Y-46350000D02*
X118250000Y-44350000D01*
X114750000Y-46350000D02*
X114750000Y-34850000D01*
X114750000Y-46350000D02*
X118250000Y-46350000D01*
%TO.C,R1634*%
X233130000Y-62830000D02*
X233130000Y-60970000D01*
X234070000Y-62830000D02*
X233130000Y-62830000D01*
X233130000Y-60970000D02*
X234070000Y-60970000D01*
X234070000Y-60970000D02*
X234070000Y-62830000D01*
%TO.C,U1601*%
X234150000Y-67000000D02*
X241850000Y-67000000D01*
X241850000Y-67000000D02*
X241850000Y-61400000D01*
X241850000Y-61400000D02*
X234150000Y-61400000D01*
X234150000Y-61400000D02*
X234150000Y-67000000D01*
%TO.C,R1632*%
X232030000Y-61870000D02*
X230170000Y-61870000D01*
X232030000Y-60930000D02*
X232030000Y-61870000D01*
X230170000Y-61870000D02*
X230170000Y-60930000D01*
X230170000Y-60930000D02*
X232030000Y-60930000D01*
%TO.C,R406*%
X141380000Y-45670000D02*
X139520000Y-45670000D01*
X141380000Y-44730000D02*
X141380000Y-45670000D01*
X139520000Y-45670000D02*
X139520000Y-44730000D01*
X139520000Y-44730000D02*
X141380000Y-44730000D01*
%TO.C,R1621*%
X238150000Y-67130000D02*
X240010000Y-67130000D01*
X238150000Y-68070000D02*
X238150000Y-67130000D01*
X240010000Y-67130000D02*
X240010000Y-68070000D01*
X240010000Y-68070000D02*
X238150000Y-68070000D01*
%TO.C,C705*%
X129960000Y-43090000D02*
X129960000Y-44910000D01*
X129040000Y-43090000D02*
X129960000Y-43090000D01*
X129960000Y-44910000D02*
X129040000Y-44910000D01*
X129040000Y-44910000D02*
X129040000Y-43090000D01*
%TO.C,C203*%
X172710000Y-42960000D02*
X170890000Y-42960000D01*
X172710000Y-42040000D02*
X172710000Y-42960000D01*
X170890000Y-42960000D02*
X170890000Y-42040000D01*
X170890000Y-42040000D02*
X172710000Y-42040000D01*
%TO.C,D903*%
X137520000Y-34470000D02*
X140480000Y-34470000D01*
X137520000Y-35930000D02*
X137520000Y-34470000D01*
X140480000Y-34470000D02*
X140480000Y-35930000D01*
X140480000Y-35930000D02*
X137520000Y-35930000D01*
%TO.C,R1604*%
X223170000Y-65430000D02*
X225030000Y-65430000D01*
X223170000Y-66370000D02*
X223170000Y-65430000D01*
X225030000Y-65430000D02*
X225030000Y-66370000D01*
X225030000Y-66370000D02*
X223170000Y-66370000D01*
%TO.C,C1002*%
X210340000Y-40310000D02*
X210340000Y-38490000D01*
X211260000Y-40310000D02*
X210340000Y-40310000D01*
X210340000Y-38490000D02*
X211260000Y-38490000D01*
X211260000Y-38490000D02*
X211260000Y-40310000D01*
D11*
%TO.C,MK1408*%
X246150000Y-52750000D02*
X241150000Y-52750000D01*
X246150000Y-48650000D02*
X246150000Y-52750000D01*
X241150000Y-52750000D02*
X241150000Y-48650000D01*
X241150000Y-48650000D02*
X246150000Y-48650000D01*
D10*
%TO.C,C906*%
X161540000Y-70910000D02*
X161540000Y-69090000D01*
X162460000Y-70910000D02*
X161540000Y-70910000D01*
X161540000Y-69090000D02*
X162460000Y-69090000D01*
X162460000Y-69090000D02*
X162460000Y-70910000D01*
%TO.C,R901*%
X165770000Y-64380000D02*
X165770000Y-66240000D01*
X164830000Y-64380000D02*
X165770000Y-64380000D01*
X165770000Y-66240000D02*
X164830000Y-66240000D01*
X164830000Y-66240000D02*
X164830000Y-64380000D01*
%TO.C,R413*%
X145330000Y-45670000D02*
X143470000Y-45670000D01*
X145330000Y-44730000D02*
X145330000Y-45670000D01*
X143470000Y-45670000D02*
X143470000Y-44730000D01*
X143470000Y-44730000D02*
X145330000Y-44730000D01*
%TO.C,R911*%
X165870000Y-81730000D02*
X167730000Y-81730000D01*
X165870000Y-82670000D02*
X165870000Y-81730000D01*
X167730000Y-81730000D02*
X167730000Y-82670000D01*
X167730000Y-82670000D02*
X165870000Y-82670000D01*
%TO.C,R922*%
X163830000Y-47130000D02*
X163830000Y-45270000D01*
X164770000Y-47130000D02*
X163830000Y-47130000D01*
X163830000Y-45270000D02*
X164770000Y-45270000D01*
X164770000Y-45270000D02*
X164770000Y-47130000D01*
%TO.C,C1611*%
X232140000Y-67410000D02*
X232140000Y-65590000D01*
X233060000Y-67410000D02*
X232140000Y-67410000D01*
X232140000Y-65590000D02*
X233060000Y-65590000D01*
X233060000Y-65590000D02*
X233060000Y-67410000D01*
%TO.C,J301*%
X158950000Y-90300000D02*
X158950000Y-88300000D01*
X162450000Y-90300000D02*
X158950000Y-90300000D01*
X158200000Y-88300000D02*
X158950000Y-88300000D01*
X156950000Y-87300000D02*
X158200000Y-87300000D01*
X156950000Y-87300000D02*
X156950000Y-77050000D01*
X158200000Y-87300000D02*
X158200000Y-88300000D01*
X158200000Y-77050000D02*
X156950000Y-77050000D01*
X158200000Y-75800000D02*
X158200000Y-77050000D01*
X158950000Y-75800000D02*
X158200000Y-75800000D01*
X158950000Y-73800000D02*
X158950000Y-75800000D01*
X162450000Y-73800000D02*
X162450000Y-90300000D01*
X162450000Y-73800000D02*
X158950000Y-73800000D01*
%TO.C,C1402*%
X228460000Y-49140000D02*
X228460000Y-50960000D01*
X227540000Y-49140000D02*
X228460000Y-49140000D01*
X228460000Y-50960000D02*
X227540000Y-50960000D01*
X227540000Y-50960000D02*
X227540000Y-49140000D01*
%TO.C,R1302*%
X157470000Y-63430000D02*
X159330000Y-63430000D01*
X157470000Y-64370000D02*
X157470000Y-63430000D01*
X159330000Y-63430000D02*
X159330000Y-64370000D01*
X159330000Y-64370000D02*
X157470000Y-64370000D01*
%TO.C,U901*%
X167074500Y-65111200D02*
X171314500Y-65111200D01*
X171314500Y-65111200D02*
X171314500Y-60871200D01*
X167074500Y-60871200D02*
X167074500Y-65111200D01*
X171314500Y-60871200D02*
X167074500Y-60871200D01*
%TO.C,R920*%
X159270000Y-47070000D02*
X159270000Y-48930000D01*
X158330000Y-47070000D02*
X159270000Y-47070000D01*
X159270000Y-48930000D02*
X158330000Y-48930000D01*
X158330000Y-48930000D02*
X158330000Y-47070000D01*
%TO.C,R1620*%
X243970000Y-60930000D02*
X245830000Y-60930000D01*
X243970000Y-61870000D02*
X243970000Y-60930000D01*
X245830000Y-60930000D02*
X245830000Y-61870000D01*
X245830000Y-61870000D02*
X243970000Y-61870000D01*
%TO.C,R1630*%
X230770000Y-67630000D02*
X232630000Y-67630000D01*
X230770000Y-68570000D02*
X230770000Y-67630000D01*
X232630000Y-67630000D02*
X232630000Y-68570000D01*
X232630000Y-68570000D02*
X230770000Y-68570000D01*
%TO.C,CB1603*%
X237790000Y-69160000D02*
X235970000Y-69160000D01*
X237790000Y-68240000D02*
X237790000Y-69160000D01*
X235970000Y-69160000D02*
X235970000Y-68240000D01*
X235970000Y-68240000D02*
X237790000Y-68240000D01*
%TO.C,C908*%
X166610000Y-61460000D02*
X164790000Y-61460000D01*
X166610000Y-60540000D02*
X166610000Y-61460000D01*
X164790000Y-61460000D02*
X164790000Y-60540000D01*
X164790000Y-60540000D02*
X166610000Y-60540000D01*
%TO.C,C907*%
X159260000Y-45090000D02*
X159260000Y-46910000D01*
X158340000Y-45090000D02*
X159260000Y-45090000D01*
X159260000Y-46910000D02*
X158340000Y-46910000D01*
X158340000Y-46910000D02*
X158340000Y-45090000D01*
%TO.C,C204*%
X134890000Y-69730000D02*
X133070000Y-69730000D01*
X134890000Y-68810000D02*
X134890000Y-69730000D01*
X133070000Y-69730000D02*
X133070000Y-68810000D01*
X133070000Y-68810000D02*
X134890000Y-68810000D01*
%TO.C,CB1609*%
X245810000Y-64060000D02*
X243990000Y-64060000D01*
X245810000Y-63140000D02*
X245810000Y-64060000D01*
X243990000Y-64060000D02*
X243990000Y-63140000D01*
X243990000Y-63140000D02*
X245810000Y-63140000D01*
%TO.C,R915*%
X163380000Y-66030000D02*
X160420000Y-66030000D01*
X163380000Y-64570000D02*
X163380000Y-66030000D01*
X160420000Y-66030000D02*
X160420000Y-64570000D01*
X160420000Y-64570000D02*
X163380000Y-64570000D01*
%TO.C,FB602*%
X121970000Y-53670000D02*
X121970000Y-55530000D01*
X121030000Y-53670000D02*
X121970000Y-53670000D01*
X121970000Y-55530000D02*
X121030000Y-55530000D01*
X121030000Y-55530000D02*
X121030000Y-53670000D01*
%TO.C,CB1601*%
X219870000Y-61040000D02*
X221690000Y-61040000D01*
X219870000Y-61960000D02*
X219870000Y-61040000D01*
X221690000Y-61040000D02*
X221690000Y-61960000D01*
X221690000Y-61960000D02*
X219870000Y-61960000D01*
%TO.C,R1625*%
X245230000Y-60770000D02*
X243370000Y-60770000D01*
X245230000Y-59830000D02*
X245230000Y-60770000D01*
X243370000Y-60770000D02*
X243370000Y-59830000D01*
X243370000Y-59830000D02*
X245230000Y-59830000D01*
%TO.C,R403*%
X153530000Y-40430000D02*
X153530000Y-38570000D01*
X154470000Y-40430000D02*
X153530000Y-40430000D01*
X153530000Y-38570000D02*
X154470000Y-38570000D01*
X154470000Y-38570000D02*
X154470000Y-40430000D01*
%TO.C,R601*%
X121970000Y-51670000D02*
X121970000Y-53530000D01*
X121030000Y-51670000D02*
X121970000Y-51670000D01*
X121970000Y-53530000D02*
X121030000Y-53530000D01*
X121030000Y-53530000D02*
X121030000Y-51670000D01*
%TO.C,CB1604*%
X237810000Y-60160000D02*
X235990000Y-60160000D01*
X237810000Y-59240000D02*
X237810000Y-60160000D01*
X235990000Y-60160000D02*
X235990000Y-59240000D01*
X235990000Y-59240000D02*
X237810000Y-59240000D01*
%TO.C,R203*%
X133070000Y-72330000D02*
X134930000Y-72330000D01*
X133070000Y-73270000D02*
X133070000Y-72330000D01*
X134930000Y-72330000D02*
X134930000Y-73270000D01*
X134930000Y-73270000D02*
X133070000Y-73270000D01*
%TO.C,U1201*%
X161450000Y-34700000D02*
X161450000Y-37200000D01*
X158950000Y-34700000D02*
X161450000Y-34700000D01*
X161450000Y-37200000D02*
X158950000Y-37200000D01*
X158950000Y-37200000D02*
X158950000Y-34700000D01*
%TO.C,CB901*%
X150410000Y-67060000D02*
X148590000Y-67060000D01*
X150410000Y-66140000D02*
X150410000Y-67060000D01*
X148590000Y-67060000D02*
X148590000Y-66140000D01*
X148590000Y-66140000D02*
X150410000Y-66140000D01*
%TO.C,R1001*%
X220970000Y-39430000D02*
X222830000Y-39430000D01*
X220970000Y-40370000D02*
X220970000Y-39430000D01*
X222830000Y-39430000D02*
X222830000Y-40370000D01*
X222830000Y-40370000D02*
X220970000Y-40370000D01*
%TO.C,R1608*%
X216230000Y-66130000D02*
X216230000Y-64270000D01*
X217170000Y-66130000D02*
X216230000Y-66130000D01*
X216230000Y-64270000D02*
X217170000Y-64270000D01*
X217170000Y-64270000D02*
X217170000Y-66130000D01*
%TO.C,CB1003*%
X229110000Y-62960000D02*
X227290000Y-62960000D01*
X229110000Y-62040000D02*
X229110000Y-62960000D01*
X227290000Y-62960000D02*
X227290000Y-62040000D01*
X227290000Y-62040000D02*
X229110000Y-62040000D01*
%TO.C,R1616*%
X246520000Y-48980000D02*
X248380000Y-48980000D01*
X246520000Y-49920000D02*
X246520000Y-48980000D01*
X248380000Y-48980000D02*
X248380000Y-49920000D01*
X248380000Y-49920000D02*
X246520000Y-49920000D01*
%TO.C,FB1101*%
X214670000Y-49470000D02*
X214670000Y-51330000D01*
X213730000Y-49470000D02*
X214670000Y-49470000D01*
X214670000Y-51330000D02*
X213730000Y-51330000D01*
X213730000Y-51330000D02*
X213730000Y-49470000D01*
D11*
%TO.C,J204*%
X111900000Y-81660000D02*
X132150000Y-81660000D01*
X132150000Y-81660000D02*
X132175000Y-66160000D01*
X111925000Y-66160000D02*
X111900000Y-81660000D01*
X132175000Y-66160000D02*
X111925000Y-66160000D01*
D10*
%TO.C,R1615*%
X229480000Y-43020000D02*
X227620000Y-43020000D01*
X229480000Y-42080000D02*
X229480000Y-43020000D01*
X227620000Y-43020000D02*
X227620000Y-42080000D01*
X227620000Y-42080000D02*
X229480000Y-42080000D01*
%TO.C,R1*%
X131970000Y-63970000D02*
X131970000Y-65830000D01*
X131030000Y-63970000D02*
X131970000Y-63970000D01*
X131970000Y-65830000D02*
X131030000Y-65830000D01*
X131030000Y-65830000D02*
X131030000Y-63970000D01*
%TO.C,U902*%
X161336000Y-71208000D02*
X161336000Y-67808000D01*
X161336000Y-67808000D02*
X157236000Y-67808000D01*
X157236000Y-71208000D02*
X161336000Y-71208000D01*
X157236000Y-67808000D02*
X157236000Y-71208000D01*
%TO.C,FB601*%
X121030000Y-51530000D02*
X121030000Y-49670000D01*
X121970000Y-51530000D02*
X121030000Y-51530000D01*
X121030000Y-49670000D02*
X121970000Y-49670000D01*
X121970000Y-49670000D02*
X121970000Y-51530000D01*
%TD*%
D12*
X169000000Y-92000000D02*
G75*
G03*
X174000000Y-87000000I0J5000000D01*
G01*
X174000000Y-37000000D02*
G75*
G03*
X169000000Y-32000000I-5000000J0D01*
G01*
X174000000Y-87000000D02*
X174000000Y-37000000D01*
X169000000Y-32000000D02*
X164500000Y-32000000D01*
X114000000Y-87000000D02*
G75*
G03*
X119000000Y-92000000I5000000J0D01*
G01*
X119000000Y-32000000D02*
G75*
G03*
X114000000Y-37000000I0J-5000000D01*
G01*
X164500000Y-92000000D02*
X169000000Y-92000000D01*
X33500000Y-32000000D02*
X29000000Y-32000000D01*
X24000000Y-37000000D02*
X24000000Y-87000000D01*
X79000000Y-92000000D02*
G75*
G03*
X84000000Y-87000000I0J5000000D01*
G01*
X24000000Y-87000000D02*
G75*
G03*
X29000000Y-92000000I5000000J0D01*
G01*
X29000000Y-32000000D02*
G75*
G03*
X24000000Y-37000000I0J-5000000D01*
G01*
X29000000Y-92000000D02*
X33500000Y-92000000D01*
X83999937Y-36975063D02*
G75*
G03*
X79000001Y-31975063I-4999937J63D01*
G01*
X124750000Y-93000000D02*
X124750000Y-94000000D01*
X129250000Y-93000000D02*
X129250000Y-94000000D01*
X130500000Y-92000000D02*
X130250000Y-92000000D01*
X123750000Y-92000000D02*
X123500000Y-92000000D01*
X74500000Y-92000000D02*
X74250000Y-92000000D01*
X124750000Y-93000000D02*
G75*
G03*
X123750000Y-92000000I-1000000J0D01*
G01*
X130250000Y-92000000D02*
G75*
G03*
X129250000Y-93000000I0J-1000000D01*
G01*
X123500000Y-92000000D02*
X119000000Y-92000000D01*
X128250000Y-95000000D02*
G75*
G03*
X129250000Y-94000000I0J1000000D01*
G01*
X74250000Y-92000000D02*
G75*
G03*
X73250000Y-93000000I0J-1000000D01*
G01*
X68750000Y-93000000D02*
G75*
G03*
X67750000Y-92000000I-1000000J0D01*
G01*
X68750000Y-94000000D02*
G75*
G03*
X69750000Y-95000000I1000000J0D01*
G01*
X72250000Y-95000000D02*
X69750000Y-95000000D01*
X72250000Y-95000000D02*
G75*
G03*
X73250000Y-94000000I0J1000000D01*
G01*
X68750000Y-93000000D02*
X68750000Y-94000000D01*
X73250000Y-93000000D02*
X73250000Y-94000000D01*
X157500000Y-92000000D02*
X130500000Y-92000000D01*
X40201249Y-92000000D02*
X67750000Y-92000000D01*
X74500000Y-92000000D02*
X79000000Y-92000000D01*
X40500000Y-32000000D02*
X67500000Y-32000000D01*
X74500000Y-32000000D02*
X79000001Y-31975063D01*
X157500000Y-32000000D02*
X130500000Y-32000000D01*
X123500000Y-32000000D02*
X119000000Y-32000000D01*
X114000000Y-37000000D02*
X114000000Y-87000000D01*
X84000000Y-71250000D02*
X84000000Y-87000000D01*
X128250000Y-95000000D02*
X125750000Y-95000000D01*
X257500000Y-34500000D02*
G75*
G03*
X256500000Y-33500000I-1000000J0D01*
G01*
X260000000Y-33000000D02*
G75*
G03*
X261000000Y-34000000I1000000J0D01*
G01*
X253500000Y-58500000D02*
X256500000Y-58500000D01*
X211000000Y-33000000D02*
G75*
G03*
X212000000Y-34000000I1000000J0D01*
G01*
X82000000Y-69250000D02*
G75*
G03*
X83000000Y-70250000I1000000J0D01*
G01*
X162250000Y-95000000D02*
G75*
G03*
X163250000Y-94000000I0J1000000D01*
G01*
X158750000Y-31000000D02*
X158750000Y-30000000D01*
X73250000Y-30000000D02*
G75*
G03*
X72250000Y-29000000I-1000000J0D01*
G01*
X163250000Y-93000000D02*
X163250000Y-94000000D01*
X218500000Y-56000000D02*
X218500000Y-57500000D01*
X35750000Y-29000000D02*
G75*
G03*
X34750000Y-30000000I0J-1000000D01*
G01*
X157750000Y-92000000D02*
X157500000Y-92000000D01*
X74250000Y-32000000D02*
X74500000Y-32000000D01*
X222500000Y-58500000D02*
G75*
G03*
X223500000Y-57500000I0J1000000D01*
G01*
X272000000Y-55000000D02*
X272000000Y-34000000D01*
X264000000Y-34000000D02*
G75*
G03*
X265000000Y-33000000I0J1000000D01*
G01*
X252500000Y-56000000D02*
X252500000Y-57500000D01*
X39250000Y-93000000D02*
X39250000Y-94000000D01*
X252500000Y-57500000D02*
G75*
G03*
X253500000Y-58500000I1000000J0D01*
G01*
X157500000Y-32000000D02*
X157750000Y-32000000D01*
X163250000Y-30000000D02*
G75*
G03*
X162250000Y-29000000I-1000000J0D01*
G01*
X67750000Y-32000000D02*
G75*
G03*
X68750000Y-31000000I0J1000000D01*
G01*
X270000000Y-70000000D02*
G75*
G03*
X272000000Y-68000000I0J2000000D01*
G01*
X223500000Y-56000000D02*
G75*
G03*
X222500000Y-55000000I-1000000J0D01*
G01*
X34750000Y-31000000D02*
X34750000Y-30000000D01*
X35750000Y-29000000D02*
X38250000Y-29000000D01*
X222500000Y-33500000D02*
X219500000Y-33500000D01*
X33500000Y-32000000D02*
X33750000Y-32000000D01*
X272000000Y-68000000D02*
X272000000Y-55000000D01*
X34750000Y-93000000D02*
G75*
G03*
X33750000Y-92000000I-1000000J0D01*
G01*
X33750000Y-92000000D02*
X33500000Y-92000000D01*
X261000000Y-34000000D02*
X264000000Y-34000000D01*
X40201249Y-91999999D02*
G75*
G03*
X39250000Y-93000000I24351J-975601D01*
G01*
X38250000Y-95000000D02*
X35750000Y-95000000D01*
X158750000Y-93000000D02*
G75*
G03*
X157750000Y-92000000I-1000000J0D01*
G01*
X212000000Y-34000000D02*
X215000000Y-34000000D01*
X252500000Y-34500000D02*
X252500000Y-36000000D01*
X222500000Y-55000000D02*
X219500000Y-55000000D01*
X212000000Y-68000000D02*
G75*
G03*
X211000000Y-69000000I0J-1000000D01*
G01*
X219500000Y-58500000D02*
X222500000Y-58500000D01*
X223500000Y-57500000D02*
X223500000Y-56000000D01*
X257500000Y-36000000D02*
X257500000Y-34500000D01*
X264000000Y-68000000D02*
X261000000Y-68000000D01*
X253500000Y-37000000D02*
X256500000Y-37000000D01*
X129250000Y-31000000D02*
G75*
G03*
X130250000Y-32000000I1000000J0D01*
G01*
X129250000Y-30000000D02*
G75*
G03*
X128250000Y-29000000I-1000000J0D01*
G01*
X34750000Y-94000000D02*
G75*
G03*
X35750000Y-95000000I1000000J0D01*
G01*
X83000000Y-53925000D02*
G75*
G03*
X84000000Y-52925000I0J1000000D01*
G01*
X223500000Y-34500000D02*
G75*
G03*
X222500000Y-33500000I-1000000J0D01*
G01*
X216000000Y-69000000D02*
G75*
G03*
X217000000Y-70000000I1000000J0D01*
G01*
X163250000Y-31000000D02*
G75*
G03*
X164250000Y-32000000I1000000J0D01*
G01*
X204000000Y-68000000D02*
G75*
G03*
X206000000Y-70000000I2000000J0D01*
G01*
X39250000Y-31000000D02*
X39250000Y-30000000D01*
X265000000Y-69000000D02*
G75*
G03*
X266000000Y-70000000I1000000J0D01*
G01*
X266000000Y-32000000D02*
G75*
G03*
X265000000Y-33000000I0J-1000000D01*
G01*
X219500000Y-33500000D02*
G75*
G03*
X218500000Y-34500000I0J-1000000D01*
G01*
X256500000Y-37000000D02*
G75*
G03*
X257500000Y-36000000I0J1000000D01*
G01*
X265000000Y-69000000D02*
G75*
G03*
X264000000Y-68000000I-1000000J0D01*
G01*
X163250000Y-31000000D02*
X163250000Y-30000000D01*
X84000000Y-71250000D02*
G75*
G03*
X83000000Y-70250000I-1000000J0D01*
G01*
X252500000Y-36000000D02*
G75*
G03*
X253500000Y-37000000I1000000J0D01*
G01*
X67500000Y-32000000D02*
X67750000Y-32000000D01*
X40250000Y-32000000D02*
X40500000Y-32000000D01*
X125750000Y-29000000D02*
G75*
G03*
X124750000Y-30000000I0J-1000000D01*
G01*
X253500000Y-55000000D02*
G75*
G03*
X252500000Y-56000000I0J-1000000D01*
G01*
X217000000Y-70000000D02*
X259000000Y-70000000D01*
X83000000Y-53925000D02*
G75*
G03*
X82000000Y-54925000I0J-1000000D01*
G01*
X130250000Y-32000000D02*
X130500000Y-32000000D01*
X129250000Y-31000000D02*
X129250000Y-30000000D01*
X259000000Y-32000000D02*
X217000000Y-32000000D01*
X217000000Y-32000000D02*
G75*
G03*
X216000000Y-33000000I0J-1000000D01*
G01*
X257500000Y-56000000D02*
G75*
G03*
X256500000Y-55000000I-1000000J0D01*
G01*
X257500000Y-57500000D02*
X257500000Y-56000000D01*
X159750000Y-29000000D02*
X162250000Y-29000000D01*
X69750000Y-29000000D02*
X72250000Y-29000000D01*
X219500000Y-37000000D02*
X222500000Y-37000000D01*
X210000000Y-70000000D02*
X206000000Y-70000000D01*
X158750000Y-94000000D02*
G75*
G03*
X159750000Y-95000000I1000000J0D01*
G01*
X218500000Y-57500000D02*
G75*
G03*
X219500000Y-58500000I1000000J0D01*
G01*
X256500000Y-33500000D02*
X253500000Y-33500000D01*
X123500000Y-32000000D02*
X123750000Y-32000000D01*
X222500000Y-37000000D02*
G75*
G03*
X223500000Y-36000000I0J1000000D01*
G01*
X206000000Y-32000000D02*
G75*
G03*
X204000000Y-34000000I0J-2000000D01*
G01*
X34750000Y-93000000D02*
X34750000Y-94000000D01*
X215000000Y-34000000D02*
G75*
G03*
X216000000Y-33000000I0J1000000D01*
G01*
X39250000Y-31000000D02*
G75*
G03*
X40250000Y-32000000I1000000J0D01*
G01*
X84000000Y-52925000D02*
X84000000Y-36975063D01*
X259000000Y-70000000D02*
G75*
G03*
X260000000Y-69000000I0J1000000D01*
G01*
X123750000Y-32000000D02*
G75*
G03*
X124750000Y-31000000I0J1000000D01*
G01*
X73250000Y-31000000D02*
X73250000Y-30000000D01*
X272000000Y-34000000D02*
G75*
G03*
X270000000Y-32000000I-2000000J0D01*
G01*
X256500000Y-58500000D02*
G75*
G03*
X257500000Y-57500000I0J1000000D01*
G01*
X218500000Y-36000000D02*
G75*
G03*
X219500000Y-37000000I1000000J0D01*
G01*
X68750000Y-31000000D02*
X68750000Y-30000000D01*
X39250000Y-30000000D02*
G75*
G03*
X38250000Y-29000000I-1000000J0D01*
G01*
X215000000Y-68000000D02*
X212000000Y-68000000D01*
X270000000Y-70000000D02*
X266000000Y-70000000D01*
X33750000Y-32000000D02*
G75*
G03*
X34750000Y-31000000I0J1000000D01*
G01*
X164500000Y-92000000D02*
X164250000Y-92000000D01*
X210000000Y-70000000D02*
G75*
G03*
X211000000Y-69000000I0J1000000D01*
G01*
X73250000Y-31000000D02*
G75*
G03*
X74250000Y-32000000I1000000J0D01*
G01*
X223500000Y-36000000D02*
X223500000Y-34500000D01*
X124750000Y-94000000D02*
G75*
G03*
X125750000Y-95000000I1000000J0D01*
G01*
X219500000Y-55000000D02*
G75*
G03*
X218500000Y-56000000I0J-1000000D01*
G01*
X210000000Y-32000000D02*
X206000000Y-32000000D01*
X260000000Y-33000000D02*
G75*
G03*
X259000000Y-32000000I-1000000J0D01*
G01*
X164250000Y-32000000D02*
X164500000Y-32000000D01*
X256500000Y-55000000D02*
X253500000Y-55000000D01*
X253500000Y-33500000D02*
G75*
G03*
X252500000Y-34500000I0J-1000000D01*
G01*
X82000000Y-54925000D02*
X82000000Y-69250000D01*
X125750000Y-29000000D02*
X128250000Y-29000000D01*
X159750000Y-29000000D02*
G75*
G03*
X158750000Y-30000000I0J-1000000D01*
G01*
X124750000Y-31000000D02*
X124750000Y-30000000D01*
X211000000Y-33000000D02*
G75*
G03*
X210000000Y-32000000I-1000000J0D01*
G01*
X204000000Y-34000000D02*
X204000000Y-68000000D01*
X38250000Y-95000000D02*
G75*
G03*
X39250000Y-94000000I0J1000000D01*
G01*
X216000000Y-69000000D02*
G75*
G03*
X215000000Y-68000000I-1000000J0D01*
G01*
X164250000Y-92000000D02*
G75*
G03*
X163250000Y-93000000I0J-1000000D01*
G01*
X218500000Y-34500000D02*
X218500000Y-36000000D01*
X157750000Y-32000000D02*
G75*
G03*
X158750000Y-31000000I0J1000000D01*
G01*
X266000000Y-32000000D02*
X270000000Y-32000000D01*
X158750000Y-93000000D02*
X158750000Y-94000000D01*
X69750000Y-29000000D02*
G75*
G03*
X68750000Y-30000000I0J-1000000D01*
G01*
X162250000Y-95000000D02*
X159750000Y-95000000D01*
X261000000Y-68000000D02*
G75*
G03*
X260000000Y-69000000I0J-1000000D01*
G01*
M02*
