%TF.GenerationSoftware,KiCad,Pcbnew,7.0.2*%
%TF.CreationDate,2023-05-01T18:48:22+02:00*%
%TF.ProjectId,kleinvoet,6b6c6569-6e76-46f6-9574-2e6b69636164,C*%
%TF.SameCoordinates,Original*%
%TF.FileFunction,Soldermask,Bot*%
%TF.FilePolarity,Negative*%
%FSLAX46Y46*%
G04 Gerber Fmt 4.6, Leading zero omitted, Abs format (unit mm)*
G04 Created by KiCad (PCBNEW 7.0.2) date 2023-05-01 18:48:22*
%MOMM*%
%LPD*%
G01*
G04 APERTURE LIST*
G04 Aperture macros list*
%AMRotRect*
0 Rectangle, with rotation*
0 The origin of the aperture is its center*
0 $1 length*
0 $2 width*
0 $3 Rotation angle, in degrees counterclockwise*
0 Add horizontal line*
21,1,$1,$2,0,0,$3*%
%AMFreePoly0*
4,1,19,0.000000,0.744911,0.071157,0.744911,0.207708,0.704816,0.327430,0.627875,0.420627,0.520320,0.479746,0.390866,0.500000,0.250000,0.500000,-0.250000,0.479746,-0.390866,0.420627,-0.520320,0.327430,-0.627875,0.207708,-0.704816,0.071157,-0.744911,0.000000,-0.744911,0.000000,-0.750000,-0.550000,-0.750000,-0.550000,0.750000,0.000000,0.750000,0.000000,0.744911,0.000000,0.744911,
$1*%
%AMFreePoly1*
4,1,19,0.550000,-0.750000,0.000000,-0.750000,0.000000,-0.744911,-0.071157,-0.744911,-0.207708,-0.704816,-0.327430,-0.627875,-0.420627,-0.520320,-0.479746,-0.390866,-0.500000,-0.250000,-0.500000,0.250000,-0.479746,0.390866,-0.420627,0.520320,-0.327430,0.627875,-0.207708,0.704816,-0.071157,0.744911,0.000000,0.744911,0.000000,0.750000,0.550000,0.750000,0.550000,-0.750000,0.550000,-0.750000,
$1*%
%AMFreePoly2*
4,1,19,0.000000,0.744911,0.071157,0.744911,0.207708,0.704816,0.327430,0.627875,0.420627,0.520320,0.479746,0.390866,0.500000,0.250000,0.500000,-0.250000,0.479746,-0.390866,0.420627,-0.520320,0.327430,-0.627875,0.207708,-0.704816,0.071157,-0.744911,0.000000,-0.744911,0.000000,-0.750000,-0.500000,-0.750000,-0.500000,0.750000,0.000000,0.750000,0.000000,0.744911,0.000000,0.744911,
$1*%
%AMFreePoly3*
4,1,19,0.500000,-0.750000,0.000000,-0.750000,0.000000,-0.744911,-0.071157,-0.744911,-0.207708,-0.704816,-0.327430,-0.627875,-0.420627,-0.520320,-0.479746,-0.390866,-0.500000,-0.250000,-0.500000,0.250000,-0.479746,0.390866,-0.420627,0.520320,-0.327430,0.627875,-0.207708,0.704816,-0.071157,0.744911,0.000000,0.744911,0.000000,0.750000,0.500000,0.750000,0.500000,-0.750000,0.500000,-0.750000,
$1*%
G04 Aperture macros list end*
%ADD10C,0.800000*%
%ADD11C,6.400000*%
%ADD12O,1.950000X0.950000*%
%ADD13O,0.650000X0.900000*%
%ADD14C,0.650000*%
%ADD15O,1.700000X1.700000*%
%ADD16R,1.700000X1.700000*%
%ADD17O,1.000000X1.000000*%
%ADD18R,1.000000X1.000000*%
%ADD19C,1.000000*%
%ADD20FreePoly0,270.000000*%
%ADD21R,1.500000X1.000000*%
%ADD22FreePoly1,270.000000*%
%ADD23C,0.787400*%
%ADD24C,0.990600*%
%ADD25C,2.374900*%
%ADD26FreePoly2,180.000000*%
%ADD27FreePoly3,180.000000*%
%ADD28C,17.800000*%
%ADD29RotRect,5.100000X5.100000X45.000000*%
%TA.AperFunction,Profile*%
%ADD30C,0.050000*%
%TD*%
G04 APERTURE END LIST*
D10*
%TO.C,H201*%
X149600000Y-38050000D03*
X150302944Y-39747056D03*
X150302944Y-36352944D03*
X152000000Y-40450000D03*
D11*
X152000000Y-38050000D03*
D10*
X154400000Y-38050000D03*
X153697056Y-36352944D03*
X153697056Y-39747056D03*
X152000000Y-35650000D03*
%TD*%
%TO.C,H202*%
X101600000Y-86050000D03*
X102302944Y-87747056D03*
X102302944Y-84352944D03*
X104000000Y-88450000D03*
D11*
X104000000Y-86050000D03*
D10*
X106400000Y-86050000D03*
X105697056Y-84352944D03*
X105697056Y-87747056D03*
X104000000Y-83650000D03*
%TD*%
D12*
%TO.C,J206*%
X156100000Y-45630000D03*
X152275000Y-45630000D03*
X156100000Y-54270000D03*
X152275000Y-54270000D03*
D13*
X153000000Y-46950000D03*
D14*
X153000000Y-52950000D03*
%TD*%
D15*
%TO.C,J303*%
X27000000Y-66585000D03*
X27000000Y-64045000D03*
X27000000Y-61505000D03*
X27000000Y-58965000D03*
D16*
X27000000Y-56425000D03*
%TD*%
D10*
%TO.C,H301*%
X80400000Y-38000000D03*
X79697056Y-36302944D03*
X79697056Y-39697056D03*
X78000000Y-35600000D03*
D11*
X78000000Y-38000000D03*
D10*
X75600000Y-38000000D03*
X76302944Y-39697056D03*
X76302944Y-36302944D03*
X78000000Y-40400000D03*
%TD*%
%TO.C,H303*%
X80400000Y-86000000D03*
X79697056Y-84302944D03*
X79697056Y-87697056D03*
X78000000Y-83600000D03*
D11*
X78000000Y-86000000D03*
D10*
X75600000Y-86000000D03*
X76302944Y-87697056D03*
X76302944Y-84302944D03*
X78000000Y-88400000D03*
%TD*%
%TO.C,H304*%
X32400000Y-86000000D03*
X31697056Y-84302944D03*
X31697056Y-87697056D03*
X30000000Y-83600000D03*
D11*
X30000000Y-86000000D03*
D10*
X27600000Y-86000000D03*
X28302944Y-87697056D03*
X28302944Y-84302944D03*
X30000000Y-88400000D03*
%TD*%
%TO.C,H302*%
X32400000Y-38000000D03*
X31697056Y-36302944D03*
X31697056Y-39697056D03*
X30000000Y-35600000D03*
D11*
X30000000Y-38000000D03*
D10*
X27600000Y-38000000D03*
X28302944Y-39697056D03*
X28302944Y-36302944D03*
X30000000Y-40400000D03*
%TD*%
D17*
%TO.C,J203*%
X118000000Y-81010000D03*
X118000000Y-79740000D03*
X118000000Y-78470000D03*
D18*
X118000000Y-77200000D03*
%TD*%
D14*
%TO.C,MK1404*%
X209000000Y-39400000D03*
%TD*%
%TO.C,MK1402*%
X215600000Y-46000000D03*
%TD*%
%TO.C,MK1401*%
X202400000Y-46000000D03*
%TD*%
D10*
%TO.C,H1001*%
X224600000Y-46000000D03*
X225302944Y-47697056D03*
X225302944Y-44302944D03*
X227000000Y-48400000D03*
D11*
X227000000Y-46000000D03*
D10*
X229400000Y-46000000D03*
X228697056Y-44302944D03*
X228697056Y-47697056D03*
X227000000Y-43600000D03*
%TD*%
D14*
%TO.C,MK1403*%
X209000000Y-52600000D03*
%TD*%
%TO.C,MK1405*%
X204350000Y-50650000D03*
%TD*%
D10*
%TO.C,H1002*%
X188600000Y-46000000D03*
X189302944Y-47697056D03*
X189302944Y-44302944D03*
X191000000Y-48400000D03*
D11*
X191000000Y-46000000D03*
D10*
X193400000Y-46000000D03*
X192697056Y-44302944D03*
X192697056Y-47697056D03*
X191000000Y-43600000D03*
%TD*%
D14*
%TO.C,MK1407*%
X204350000Y-41350000D03*
%TD*%
%TO.C,MK1406*%
X213650000Y-41350000D03*
%TD*%
%TO.C,MK1408*%
X213650000Y-50650000D03*
%TD*%
D19*
%TO.C,TP902*%
X157200000Y-58900000D03*
%TD*%
D20*
%TO.C,JP401*%
X141700000Y-38150000D03*
D21*
X141700000Y-36850000D03*
D22*
X141700000Y-35550000D03*
%TD*%
D20*
%TO.C,JP402*%
X139500000Y-38150000D03*
D21*
X139500000Y-36850000D03*
D22*
X139500000Y-35550000D03*
%TD*%
D19*
%TO.C,TP406*%
X116075000Y-77175000D03*
%TD*%
%TO.C,TP407*%
X116075000Y-75025000D03*
%TD*%
%TO.C,TP904*%
X149200000Y-33600000D03*
%TD*%
D23*
%TO.C,J202*%
X117210000Y-85565000D03*
X115940000Y-85565000D03*
X114670000Y-85565000D03*
X113400000Y-85565000D03*
X112130000Y-85565000D03*
X110860000Y-85565000D03*
X109590000Y-85565000D03*
X109590000Y-86835000D03*
X110860000Y-86835000D03*
X112130000Y-86835000D03*
X113400000Y-86835000D03*
X114670000Y-86835000D03*
X115940000Y-86835000D03*
X117210000Y-86835000D03*
D24*
X108320000Y-85184000D03*
X118480000Y-86200000D03*
X108320000Y-87216000D03*
D25*
X118480000Y-83660000D03*
X110225000Y-88740000D03*
X110225000Y-83660000D03*
X118480000Y-88740000D03*
%TD*%
D20*
%TO.C,JP1401*%
X129400000Y-75900000D03*
D21*
X129400000Y-74600000D03*
D22*
X129400000Y-73300000D03*
%TD*%
D26*
%TO.C,JP2*%
X73300000Y-59075000D03*
D27*
X74600000Y-59075000D03*
%TD*%
D19*
%TO.C,TP903*%
X140600000Y-71900000D03*
%TD*%
D28*
%TO.C,BT301*%
X54000000Y-62041244D03*
D29*
X44949033Y-71092211D03*
X63050967Y-52990277D03*
%TD*%
D26*
%TO.C,JP1*%
X73300000Y-61625000D03*
D27*
X74600000Y-61625000D03*
%TD*%
G36*
X152999443Y-32000052D02*
G01*
X153000503Y-32000076D01*
X153005454Y-32000239D01*
X153424333Y-32018527D01*
X153425395Y-32018585D01*
X153434669Y-32019192D01*
X153436808Y-32019379D01*
X153446086Y-32020396D01*
X153447143Y-32020523D01*
X153856909Y-32074468D01*
X153857970Y-32074620D01*
X153867147Y-32076033D01*
X153869254Y-32076404D01*
X153878379Y-32078220D01*
X153879421Y-32078440D01*
X154282907Y-32167891D01*
X154283944Y-32168132D01*
X154292987Y-32170344D01*
X154295057Y-32170899D01*
X154303997Y-32173505D01*
X154305019Y-32173815D01*
X154699172Y-32298091D01*
X154700189Y-32298424D01*
X154709017Y-32301421D01*
X154711023Y-32302151D01*
X154719690Y-32305521D01*
X154720683Y-32305920D01*
X155102486Y-32464068D01*
X155103470Y-32464488D01*
X155112006Y-32468244D01*
X155113944Y-32469148D01*
X155122296Y-32473267D01*
X155123249Y-32473749D01*
X155489882Y-32664606D01*
X155490823Y-32665110D01*
X155498935Y-32669560D01*
X155500789Y-32670630D01*
X155508748Y-32675460D01*
X155509655Y-32676024D01*
X155858235Y-32898094D01*
X155859131Y-32898679D01*
X155866850Y-32903837D01*
X155868598Y-32905061D01*
X155876127Y-32910581D01*
X155876984Y-32911224D01*
X156204820Y-33162781D01*
X156205662Y-33163441D01*
X156212962Y-33169300D01*
X156214597Y-33170672D01*
X156221567Y-33176784D01*
X156222365Y-33177499D01*
X156527101Y-33456739D01*
X156527877Y-33457467D01*
X156534589Y-33463891D01*
X156536108Y-33465410D01*
X156542532Y-33472122D01*
X156543260Y-33472898D01*
X156822500Y-33777634D01*
X156823215Y-33778432D01*
X156829327Y-33785402D01*
X156830699Y-33787037D01*
X156836558Y-33794337D01*
X156837218Y-33795179D01*
X157088775Y-34123015D01*
X157089418Y-34123872D01*
X157094938Y-34131401D01*
X157096162Y-34133149D01*
X157101320Y-34140868D01*
X157101905Y-34141764D01*
X157323975Y-34490344D01*
X157324539Y-34491251D01*
X157329369Y-34499210D01*
X157330439Y-34501064D01*
X157334889Y-34509176D01*
X157335393Y-34510117D01*
X157526250Y-34876750D01*
X157526732Y-34877703D01*
X157530851Y-34886055D01*
X157531755Y-34887993D01*
X157535511Y-34896529D01*
X157535931Y-34897513D01*
X157694079Y-35279316D01*
X157694478Y-35280309D01*
X157697848Y-35288976D01*
X157698578Y-35290982D01*
X157701575Y-35299810D01*
X157701908Y-35300827D01*
X157826184Y-35694980D01*
X157826494Y-35696002D01*
X157829100Y-35704942D01*
X157829655Y-35707012D01*
X157831867Y-35716055D01*
X157832108Y-35717092D01*
X157921559Y-36120578D01*
X157921779Y-36121620D01*
X157923595Y-36130745D01*
X157923966Y-36132852D01*
X157925379Y-36142029D01*
X157925531Y-36143090D01*
X157979476Y-36552856D01*
X157979603Y-36553913D01*
X157980620Y-36563191D01*
X157980807Y-36565330D01*
X157981414Y-36574604D01*
X157981472Y-36575667D01*
X157999762Y-36994550D01*
X157999924Y-36999514D01*
X157999946Y-37000537D01*
X158000000Y-37005446D01*
X158000000Y-37749359D01*
X157999078Y-37758819D01*
X157983227Y-37839380D01*
X157976061Y-37856887D01*
X157933549Y-37921381D01*
X157920283Y-37934870D01*
X157856511Y-37978448D01*
X157839124Y-37985906D01*
X157758833Y-38003097D01*
X157749391Y-38004176D01*
X152259045Y-38095682D01*
X152249370Y-38094882D01*
X152166911Y-38079726D01*
X152148972Y-38072556D01*
X152082951Y-38029430D01*
X152069177Y-38015884D01*
X152024955Y-37950588D01*
X152017488Y-37932770D01*
X152000962Y-37850582D01*
X152000000Y-37840923D01*
X152000000Y-32254823D01*
X152000941Y-32245264D01*
X152017127Y-32163890D01*
X152024444Y-32146226D01*
X152067808Y-32081327D01*
X152081327Y-32067808D01*
X152146226Y-32024444D01*
X152163890Y-32017127D01*
X152245264Y-32000941D01*
X152254823Y-32000000D01*
X152994545Y-32000000D01*
X152999443Y-32000052D01*
G37*
D30*
X153000000Y-92000000D02*
G75*
G03*
X158000000Y-87000000I0J5000000D01*
G01*
X158000000Y-37000000D02*
G75*
G03*
X153000000Y-32000000I-5000000J0D01*
G01*
X158000000Y-87000000D02*
X158000000Y-37000000D01*
X153000000Y-32000000D02*
X148500000Y-32000000D01*
X98000000Y-87000000D02*
G75*
G03*
X103000000Y-92000000I5000000J0D01*
G01*
X103000000Y-32000000D02*
G75*
G03*
X98000000Y-37000000I0J-5000000D01*
G01*
X148500000Y-92000000D02*
X153000000Y-92000000D01*
X33500000Y-32000000D02*
X29000000Y-32000000D01*
X24000000Y-37000000D02*
X24000000Y-87000000D01*
X79000000Y-92000000D02*
G75*
G03*
X84000000Y-87000000I0J5000000D01*
G01*
X24000000Y-87000000D02*
G75*
G03*
X29000000Y-92000000I5000000J0D01*
G01*
X29000000Y-32000000D02*
G75*
G03*
X24000000Y-37000000I0J-5000000D01*
G01*
X29000000Y-92000000D02*
X33500000Y-92000000D01*
X83999937Y-36975063D02*
G75*
G03*
X79000001Y-31975063I-4999937J63D01*
G01*
X108750000Y-93000000D02*
X108750000Y-94000000D01*
X113250000Y-93000000D02*
X113250000Y-94000000D01*
X114500000Y-92000000D02*
X114250000Y-92000000D01*
X107750000Y-92000000D02*
X107500000Y-92000000D01*
X74500000Y-92000000D02*
X74250000Y-92000000D01*
X108750000Y-93000000D02*
G75*
G03*
X107750000Y-92000000I-1000000J0D01*
G01*
X114250000Y-92000000D02*
G75*
G03*
X113250000Y-93000000I0J-1000000D01*
G01*
X107500000Y-92000000D02*
X103000000Y-92000000D01*
X112250000Y-95000000D02*
G75*
G03*
X113250000Y-94000000I0J1000000D01*
G01*
X74250000Y-92000000D02*
G75*
G03*
X73250000Y-93000000I0J-1000000D01*
G01*
X68750000Y-93000000D02*
G75*
G03*
X67750000Y-92000000I-1000000J0D01*
G01*
X68750000Y-94000000D02*
G75*
G03*
X69750000Y-95000000I1000000J0D01*
G01*
X72250000Y-95000000D02*
X69750000Y-95000000D01*
X72250000Y-95000000D02*
G75*
G03*
X73250000Y-94000000I0J1000000D01*
G01*
X68750000Y-93000000D02*
X68750000Y-94000000D01*
X73250000Y-93000000D02*
X73250000Y-94000000D01*
X141500000Y-92000000D02*
X114500000Y-92000000D01*
X40201249Y-92000000D02*
X67750000Y-92000000D01*
X74500000Y-92000000D02*
X79000000Y-92000000D01*
X40500000Y-32000000D02*
X67500000Y-32000000D01*
X74500000Y-32000000D02*
X79000001Y-31975063D01*
X141500000Y-32000000D02*
X114500000Y-32000000D01*
X107500000Y-32000000D02*
X103000000Y-32000000D01*
X98000000Y-37000000D02*
X98000000Y-87000000D01*
X84000000Y-71250000D02*
X84000000Y-87000000D01*
X112250000Y-95000000D02*
X109750000Y-95000000D01*
X228500000Y-34500000D02*
G75*
G03*
X227500000Y-33500000I-1000000J0D01*
G01*
X231000000Y-33000000D02*
G75*
G03*
X232000000Y-34000000I1000000J0D01*
G01*
X224500000Y-58500000D02*
X227500000Y-58500000D01*
X182000000Y-33000000D02*
G75*
G03*
X183000000Y-34000000I1000000J0D01*
G01*
X82000000Y-69250000D02*
G75*
G03*
X83000000Y-70250000I1000000J0D01*
G01*
X146250000Y-95000000D02*
G75*
G03*
X147250000Y-94000000I0J1000000D01*
G01*
X142750000Y-31000000D02*
X142750000Y-30000000D01*
X73250000Y-30000000D02*
G75*
G03*
X72250000Y-29000000I-1000000J0D01*
G01*
X147250000Y-93000000D02*
X147250000Y-94000000D01*
X189500000Y-56000000D02*
X189500000Y-57500000D01*
X35750000Y-29000000D02*
G75*
G03*
X34750000Y-30000000I0J-1000000D01*
G01*
X141750000Y-92000000D02*
X141500000Y-92000000D01*
X74250000Y-32000000D02*
X74500000Y-32000000D01*
X193500000Y-58500000D02*
G75*
G03*
X194500000Y-57500000I0J1000000D01*
G01*
X243000000Y-55000000D02*
X243000000Y-34000000D01*
X235000000Y-34000000D02*
G75*
G03*
X236000000Y-33000000I0J1000000D01*
G01*
X223500000Y-56000000D02*
X223500000Y-57500000D01*
X39250000Y-93000000D02*
X39250000Y-94000000D01*
X223500000Y-57500000D02*
G75*
G03*
X224500000Y-58500000I1000000J0D01*
G01*
X141500000Y-32000000D02*
X141750000Y-32000000D01*
X147250000Y-30000000D02*
G75*
G03*
X146250000Y-29000000I-1000000J0D01*
G01*
X67750000Y-32000000D02*
G75*
G03*
X68750000Y-31000000I0J1000000D01*
G01*
X241000000Y-70000000D02*
G75*
G03*
X243000000Y-68000000I0J2000000D01*
G01*
X194500000Y-56000000D02*
G75*
G03*
X193500000Y-55000000I-1000000J0D01*
G01*
X34750000Y-31000000D02*
X34750000Y-30000000D01*
X35750000Y-29000000D02*
X38250000Y-29000000D01*
X193500000Y-33500000D02*
X190500000Y-33500000D01*
X33500000Y-32000000D02*
X33750000Y-32000000D01*
X243000000Y-68000000D02*
X243000000Y-55000000D01*
X34750000Y-93000000D02*
G75*
G03*
X33750000Y-92000000I-1000000J0D01*
G01*
X33750000Y-92000000D02*
X33500000Y-92000000D01*
X232000000Y-34000000D02*
X235000000Y-34000000D01*
X40201249Y-91999999D02*
G75*
G03*
X39250000Y-93000000I24351J-975601D01*
G01*
X38250000Y-95000000D02*
X35750000Y-95000000D01*
X142750000Y-93000000D02*
G75*
G03*
X141750000Y-92000000I-1000000J0D01*
G01*
X183000000Y-34000000D02*
X186000000Y-34000000D01*
X223500000Y-34500000D02*
X223500000Y-36000000D01*
X193500000Y-55000000D02*
X190500000Y-55000000D01*
X183000000Y-68000000D02*
G75*
G03*
X182000000Y-69000000I0J-1000000D01*
G01*
X190500000Y-58500000D02*
X193500000Y-58500000D01*
X194500000Y-57500000D02*
X194500000Y-56000000D01*
X228500000Y-36000000D02*
X228500000Y-34500000D01*
X235000000Y-68000000D02*
X232000000Y-68000000D01*
X224500000Y-37000000D02*
X227500000Y-37000000D01*
X113250000Y-31000000D02*
G75*
G03*
X114250000Y-32000000I1000000J0D01*
G01*
X113250000Y-30000000D02*
G75*
G03*
X112250000Y-29000000I-1000000J0D01*
G01*
X34750000Y-94000000D02*
G75*
G03*
X35750000Y-95000000I1000000J0D01*
G01*
X83000000Y-53925000D02*
G75*
G03*
X84000000Y-52925000I0J1000000D01*
G01*
X194500000Y-34500000D02*
G75*
G03*
X193500000Y-33500000I-1000000J0D01*
G01*
X187000000Y-69000000D02*
G75*
G03*
X188000000Y-70000000I1000000J0D01*
G01*
X147250000Y-31000000D02*
G75*
G03*
X148250000Y-32000000I1000000J0D01*
G01*
X175000000Y-68000000D02*
G75*
G03*
X177000000Y-70000000I2000000J0D01*
G01*
X39250000Y-31000000D02*
X39250000Y-30000000D01*
X236000000Y-69000000D02*
G75*
G03*
X237000000Y-70000000I1000000J0D01*
G01*
X237000000Y-32000000D02*
G75*
G03*
X236000000Y-33000000I0J-1000000D01*
G01*
X190500000Y-33500000D02*
G75*
G03*
X189500000Y-34500000I0J-1000000D01*
G01*
X227500000Y-37000000D02*
G75*
G03*
X228500000Y-36000000I0J1000000D01*
G01*
X236000000Y-69000000D02*
G75*
G03*
X235000000Y-68000000I-1000000J0D01*
G01*
X147250000Y-31000000D02*
X147250000Y-30000000D01*
X84000000Y-71250000D02*
G75*
G03*
X83000000Y-70250000I-1000000J0D01*
G01*
X223500000Y-36000000D02*
G75*
G03*
X224500000Y-37000000I1000000J0D01*
G01*
X67500000Y-32000000D02*
X67750000Y-32000000D01*
X40250000Y-32000000D02*
X40500000Y-32000000D01*
X109750000Y-29000000D02*
G75*
G03*
X108750000Y-30000000I0J-1000000D01*
G01*
X224500000Y-55000000D02*
G75*
G03*
X223500000Y-56000000I0J-1000000D01*
G01*
X188000000Y-70000000D02*
X230000000Y-70000000D01*
X83000000Y-53925000D02*
G75*
G03*
X82000000Y-54925000I0J-1000000D01*
G01*
X114250000Y-32000000D02*
X114500000Y-32000000D01*
X113250000Y-31000000D02*
X113250000Y-30000000D01*
X230000000Y-32000000D02*
X188000000Y-32000000D01*
X188000000Y-32000000D02*
G75*
G03*
X187000000Y-33000000I0J-1000000D01*
G01*
X228500000Y-56000000D02*
G75*
G03*
X227500000Y-55000000I-1000000J0D01*
G01*
X228500000Y-57500000D02*
X228500000Y-56000000D01*
X143750000Y-29000000D02*
X146250000Y-29000000D01*
X69750000Y-29000000D02*
X72250000Y-29000000D01*
X190500000Y-37000000D02*
X193500000Y-37000000D01*
X181000000Y-70000000D02*
X177000000Y-70000000D01*
X142750000Y-94000000D02*
G75*
G03*
X143750000Y-95000000I1000000J0D01*
G01*
X189500000Y-57500000D02*
G75*
G03*
X190500000Y-58500000I1000000J0D01*
G01*
X227500000Y-33500000D02*
X224500000Y-33500000D01*
X107500000Y-32000000D02*
X107750000Y-32000000D01*
X193500000Y-37000000D02*
G75*
G03*
X194500000Y-36000000I0J1000000D01*
G01*
X177000000Y-32000000D02*
G75*
G03*
X175000000Y-34000000I0J-2000000D01*
G01*
X34750000Y-93000000D02*
X34750000Y-94000000D01*
X186000000Y-34000000D02*
G75*
G03*
X187000000Y-33000000I0J1000000D01*
G01*
X39250000Y-31000000D02*
G75*
G03*
X40250000Y-32000000I1000000J0D01*
G01*
X84000000Y-52925000D02*
X84000000Y-36975063D01*
X230000000Y-70000000D02*
G75*
G03*
X231000000Y-69000000I0J1000000D01*
G01*
X107750000Y-32000000D02*
G75*
G03*
X108750000Y-31000000I0J1000000D01*
G01*
X73250000Y-31000000D02*
X73250000Y-30000000D01*
X243000000Y-34000000D02*
G75*
G03*
X241000000Y-32000000I-2000000J0D01*
G01*
X227500000Y-58500000D02*
G75*
G03*
X228500000Y-57500000I0J1000000D01*
G01*
X189500000Y-36000000D02*
G75*
G03*
X190500000Y-37000000I1000000J0D01*
G01*
X68750000Y-31000000D02*
X68750000Y-30000000D01*
X39250000Y-30000000D02*
G75*
G03*
X38250000Y-29000000I-1000000J0D01*
G01*
X186000000Y-68000000D02*
X183000000Y-68000000D01*
X241000000Y-70000000D02*
X237000000Y-70000000D01*
X33750000Y-32000000D02*
G75*
G03*
X34750000Y-31000000I0J1000000D01*
G01*
X148500000Y-92000000D02*
X148250000Y-92000000D01*
X181000000Y-70000000D02*
G75*
G03*
X182000000Y-69000000I0J1000000D01*
G01*
X73250000Y-31000000D02*
G75*
G03*
X74250000Y-32000000I1000000J0D01*
G01*
X194500000Y-36000000D02*
X194500000Y-34500000D01*
X108750000Y-94000000D02*
G75*
G03*
X109750000Y-95000000I1000000J0D01*
G01*
X190500000Y-55000000D02*
G75*
G03*
X189500000Y-56000000I0J-1000000D01*
G01*
X181000000Y-32000000D02*
X177000000Y-32000000D01*
X231000000Y-33000000D02*
G75*
G03*
X230000000Y-32000000I-1000000J0D01*
G01*
X148250000Y-32000000D02*
X148500000Y-32000000D01*
X227500000Y-55000000D02*
X224500000Y-55000000D01*
X224500000Y-33500000D02*
G75*
G03*
X223500000Y-34500000I0J-1000000D01*
G01*
X82000000Y-54925000D02*
X82000000Y-69250000D01*
X109750000Y-29000000D02*
X112250000Y-29000000D01*
X143750000Y-29000000D02*
G75*
G03*
X142750000Y-30000000I0J-1000000D01*
G01*
X108750000Y-31000000D02*
X108750000Y-30000000D01*
X182000000Y-33000000D02*
G75*
G03*
X181000000Y-32000000I-1000000J0D01*
G01*
X175000000Y-34000000D02*
X175000000Y-68000000D01*
X38250000Y-95000000D02*
G75*
G03*
X39250000Y-94000000I0J1000000D01*
G01*
X187000000Y-69000000D02*
G75*
G03*
X186000000Y-68000000I-1000000J0D01*
G01*
X148250000Y-92000000D02*
G75*
G03*
X147250000Y-93000000I0J-1000000D01*
G01*
X189500000Y-34500000D02*
X189500000Y-36000000D01*
X141750000Y-32000000D02*
G75*
G03*
X142750000Y-31000000I0J1000000D01*
G01*
X237000000Y-32000000D02*
X241000000Y-32000000D01*
X142750000Y-93000000D02*
X142750000Y-94000000D01*
X69750000Y-29000000D02*
G75*
G03*
X68750000Y-30000000I0J-1000000D01*
G01*
X146250000Y-95000000D02*
X143750000Y-95000000D01*
X232000000Y-68000000D02*
G75*
G03*
X231000000Y-69000000I0J-1000000D01*
G01*
M02*
