%TF.GenerationSoftware,KiCad,Pcbnew,7.0.2*%
%TF.CreationDate,2023-05-26T09:26:57+02:00*%
%TF.ProjectId,kleinvoet,6b6c6569-6e76-46f6-9574-2e6b69636164,C*%
%TF.SameCoordinates,Original*%
%TF.FileFunction,Other,User*%
%FSLAX46Y46*%
G04 Gerber Fmt 4.6, Leading zero omitted, Abs format (unit mm)*
G04 Created by KiCad (PCBNEW 7.0.2) date 2023-05-26 09:26:57*
%MOMM*%
%LPD*%
G01*
G04 APERTURE LIST*
%ADD10C,0.050000*%
%TA.AperFunction,Profile*%
%ADD11C,0.050000*%
%TD*%
G04 APERTURE END LIST*
D10*
%TO.C,TP902*%
X173200000Y-56500000D02*
G75*
G03*
X173200000Y-56500000I-1000000J0D01*
G01*
%TO.C,JP401*%
X156450000Y-34550000D02*
X158950000Y-34550000D01*
X156450000Y-34550000D02*
X156450000Y-39150000D01*
X158950000Y-39150000D02*
X158950000Y-34550000D01*
X158950000Y-39150000D02*
X156450000Y-39150000D01*
%TO.C,JP402*%
X154250000Y-34550000D02*
X156750000Y-34550000D01*
X154250000Y-34550000D02*
X154250000Y-39150000D01*
X156750000Y-39150000D02*
X156750000Y-34550000D01*
X156750000Y-39150000D02*
X154250000Y-39150000D01*
%TO.C,TP406*%
X133075000Y-77175000D02*
G75*
G03*
X133075000Y-77175000I-1000000J0D01*
G01*
%TO.C,TP407*%
X133075000Y-75025000D02*
G75*
G03*
X133075000Y-75025000I-1000000J0D01*
G01*
%TO.C,TP904*%
X166200000Y-33600000D02*
G75*
G03*
X166200000Y-33600000I-1000000J0D01*
G01*
%TO.C,J202*%
X136150000Y-90450000D02*
X123150000Y-90450000D01*
X136150000Y-81950000D02*
X136150000Y-90450000D01*
X123150000Y-90450000D02*
X123150000Y-81950000D01*
X123150000Y-81950000D02*
X136150000Y-81950000D01*
%TO.C,JP1401*%
X144150000Y-72300000D02*
X146650000Y-72300000D01*
X144150000Y-72300000D02*
X144150000Y-76900000D01*
X146650000Y-76900000D02*
X146650000Y-72300000D01*
X146650000Y-76900000D02*
X144150000Y-76900000D01*
%TO.C,JP2*%
X75600000Y-57825000D02*
X75600000Y-60325000D01*
X75600000Y-57825000D02*
X72300000Y-57825000D01*
X72300000Y-60325000D02*
X75600000Y-60325000D01*
X72300000Y-60325000D02*
X72300000Y-57825000D01*
%TO.C,TP903*%
X157600000Y-71900000D02*
G75*
G03*
X157600000Y-71900000I-1000000J0D01*
G01*
%TO.C,BT301*%
X40635682Y-71092211D02*
X44949033Y-75405562D01*
X44949033Y-75405562D02*
X48343146Y-72011450D01*
X41696342Y-65364646D02*
X44029794Y-67698098D01*
X44029794Y-67698098D02*
X40635682Y-71092211D01*
X48343146Y-72011450D02*
X53116117Y-76784420D01*
X53116117Y-76784420D02*
X58171930Y-71728607D01*
X43110556Y-57232918D02*
X41696342Y-65364646D01*
X49191674Y-51151800D02*
X43110556Y-57232918D01*
X57323402Y-49737586D02*
X49191674Y-51151800D01*
X59656854Y-52071038D02*
X57323402Y-49737586D01*
X63970206Y-56384390D02*
X67364318Y-52990277D01*
X68743176Y-61157361D02*
X63687363Y-66213174D01*
X68743176Y-61157361D02*
X63970206Y-56384390D01*
X63050967Y-48676926D02*
X59656854Y-52071038D01*
X67364318Y-52990277D02*
X63050967Y-48676926D01*
X58171930Y-71728607D02*
G75*
G03*
X63687363Y-66213174I-4171926J9687359D01*
G01*
%TO.C,JP1*%
X75600000Y-60375000D02*
X75600000Y-62875000D01*
X75600000Y-60375000D02*
X72300000Y-60375000D01*
X72300000Y-62875000D02*
X75600000Y-62875000D01*
X72300000Y-62875000D02*
X72300000Y-60375000D01*
%TD*%
D11*
X169000000Y-92000000D02*
G75*
G03*
X174000000Y-87000000I0J5000000D01*
G01*
X174000000Y-37000000D02*
G75*
G03*
X169000000Y-32000000I-5000000J0D01*
G01*
X174000000Y-87000000D02*
X174000000Y-37000000D01*
X169000000Y-32000000D02*
X164500000Y-32000000D01*
X114000000Y-87000000D02*
G75*
G03*
X119000000Y-92000000I5000000J0D01*
G01*
X119000000Y-32000000D02*
G75*
G03*
X114000000Y-37000000I0J-5000000D01*
G01*
X164500000Y-92000000D02*
X169000000Y-92000000D01*
X33500000Y-32000000D02*
X29000000Y-32000000D01*
X24000000Y-37000000D02*
X24000000Y-87000000D01*
X79000000Y-92000000D02*
G75*
G03*
X84000000Y-87000000I0J5000000D01*
G01*
X24000000Y-87000000D02*
G75*
G03*
X29000000Y-92000000I5000000J0D01*
G01*
X29000000Y-32000000D02*
G75*
G03*
X24000000Y-37000000I0J-5000000D01*
G01*
X29000000Y-92000000D02*
X33500000Y-92000000D01*
X83999937Y-36975063D02*
G75*
G03*
X79000001Y-31975063I-4999937J63D01*
G01*
X124750000Y-93000000D02*
X124750000Y-94000000D01*
X129250000Y-93000000D02*
X129250000Y-94000000D01*
X130500000Y-92000000D02*
X130250000Y-92000000D01*
X123750000Y-92000000D02*
X123500000Y-92000000D01*
X74500000Y-92000000D02*
X74250000Y-92000000D01*
X124750000Y-93000000D02*
G75*
G03*
X123750000Y-92000000I-1000000J0D01*
G01*
X130250000Y-92000000D02*
G75*
G03*
X129250000Y-93000000I0J-1000000D01*
G01*
X123500000Y-92000000D02*
X119000000Y-92000000D01*
X128250000Y-95000000D02*
G75*
G03*
X129250000Y-94000000I0J1000000D01*
G01*
X74250000Y-92000000D02*
G75*
G03*
X73250000Y-93000000I0J-1000000D01*
G01*
X68750000Y-93000000D02*
G75*
G03*
X67750000Y-92000000I-1000000J0D01*
G01*
X68750000Y-94000000D02*
G75*
G03*
X69750000Y-95000000I1000000J0D01*
G01*
X72250000Y-95000000D02*
X69750000Y-95000000D01*
X72250000Y-95000000D02*
G75*
G03*
X73250000Y-94000000I0J1000000D01*
G01*
X68750000Y-93000000D02*
X68750000Y-94000000D01*
X73250000Y-93000000D02*
X73250000Y-94000000D01*
X157500000Y-92000000D02*
X130500000Y-92000000D01*
X40201249Y-92000000D02*
X67750000Y-92000000D01*
X74500000Y-92000000D02*
X79000000Y-92000000D01*
X40500000Y-32000000D02*
X67500000Y-32000000D01*
X74500000Y-32000000D02*
X79000001Y-31975063D01*
X157500000Y-32000000D02*
X130500000Y-32000000D01*
X123500000Y-32000000D02*
X119000000Y-32000000D01*
X114000000Y-37000000D02*
X114000000Y-87000000D01*
X84000000Y-71250000D02*
X84000000Y-87000000D01*
X128250000Y-95000000D02*
X125750000Y-95000000D01*
X257500000Y-34500000D02*
G75*
G03*
X256500000Y-33500000I-1000000J0D01*
G01*
X260000000Y-33000000D02*
G75*
G03*
X261000000Y-34000000I1000000J0D01*
G01*
X253500000Y-58500000D02*
X256500000Y-58500000D01*
X211000000Y-33000000D02*
G75*
G03*
X212000000Y-34000000I1000000J0D01*
G01*
X82000000Y-69250000D02*
G75*
G03*
X83000000Y-70250000I1000000J0D01*
G01*
X162250000Y-95000000D02*
G75*
G03*
X163250000Y-94000000I0J1000000D01*
G01*
X158750000Y-31000000D02*
X158750000Y-30000000D01*
X73250000Y-30000000D02*
G75*
G03*
X72250000Y-29000000I-1000000J0D01*
G01*
X163250000Y-93000000D02*
X163250000Y-94000000D01*
X218500000Y-56000000D02*
X218500000Y-57500000D01*
X35750000Y-29000000D02*
G75*
G03*
X34750000Y-30000000I0J-1000000D01*
G01*
X157750000Y-92000000D02*
X157500000Y-92000000D01*
X74250000Y-32000000D02*
X74500000Y-32000000D01*
X222500000Y-58500000D02*
G75*
G03*
X223500000Y-57500000I0J1000000D01*
G01*
X272000000Y-55000000D02*
X272000000Y-34000000D01*
X264000000Y-34000000D02*
G75*
G03*
X265000000Y-33000000I0J1000000D01*
G01*
X252500000Y-56000000D02*
X252500000Y-57500000D01*
X39250000Y-93000000D02*
X39250000Y-94000000D01*
X252500000Y-57500000D02*
G75*
G03*
X253500000Y-58500000I1000000J0D01*
G01*
X157500000Y-32000000D02*
X157750000Y-32000000D01*
X163250000Y-30000000D02*
G75*
G03*
X162250000Y-29000000I-1000000J0D01*
G01*
X67750000Y-32000000D02*
G75*
G03*
X68750000Y-31000000I0J1000000D01*
G01*
X270000000Y-70000000D02*
G75*
G03*
X272000000Y-68000000I0J2000000D01*
G01*
X223500000Y-56000000D02*
G75*
G03*
X222500000Y-55000000I-1000000J0D01*
G01*
X34750000Y-31000000D02*
X34750000Y-30000000D01*
X35750000Y-29000000D02*
X38250000Y-29000000D01*
X222500000Y-33500000D02*
X219500000Y-33500000D01*
X33500000Y-32000000D02*
X33750000Y-32000000D01*
X272000000Y-68000000D02*
X272000000Y-55000000D01*
X34750000Y-93000000D02*
G75*
G03*
X33750000Y-92000000I-1000000J0D01*
G01*
X33750000Y-92000000D02*
X33500000Y-92000000D01*
X261000000Y-34000000D02*
X264000000Y-34000000D01*
X40201249Y-91999999D02*
G75*
G03*
X39250000Y-93000000I24351J-975601D01*
G01*
X38250000Y-95000000D02*
X35750000Y-95000000D01*
X158750000Y-93000000D02*
G75*
G03*
X157750000Y-92000000I-1000000J0D01*
G01*
X212000000Y-34000000D02*
X215000000Y-34000000D01*
X252500000Y-34500000D02*
X252500000Y-36000000D01*
X222500000Y-55000000D02*
X219500000Y-55000000D01*
X212000000Y-68000000D02*
G75*
G03*
X211000000Y-69000000I0J-1000000D01*
G01*
X219500000Y-58500000D02*
X222500000Y-58500000D01*
X223500000Y-57500000D02*
X223500000Y-56000000D01*
X257500000Y-36000000D02*
X257500000Y-34500000D01*
X264000000Y-68000000D02*
X261000000Y-68000000D01*
X253500000Y-37000000D02*
X256500000Y-37000000D01*
X129250000Y-31000000D02*
G75*
G03*
X130250000Y-32000000I1000000J0D01*
G01*
X129250000Y-30000000D02*
G75*
G03*
X128250000Y-29000000I-1000000J0D01*
G01*
X34750000Y-94000000D02*
G75*
G03*
X35750000Y-95000000I1000000J0D01*
G01*
X83000000Y-53925000D02*
G75*
G03*
X84000000Y-52925000I0J1000000D01*
G01*
X223500000Y-34500000D02*
G75*
G03*
X222500000Y-33500000I-1000000J0D01*
G01*
X216000000Y-69000000D02*
G75*
G03*
X217000000Y-70000000I1000000J0D01*
G01*
X163250000Y-31000000D02*
G75*
G03*
X164250000Y-32000000I1000000J0D01*
G01*
X204000000Y-68000000D02*
G75*
G03*
X206000000Y-70000000I2000000J0D01*
G01*
X39250000Y-31000000D02*
X39250000Y-30000000D01*
X265000000Y-69000000D02*
G75*
G03*
X266000000Y-70000000I1000000J0D01*
G01*
X266000000Y-32000000D02*
G75*
G03*
X265000000Y-33000000I0J-1000000D01*
G01*
X219500000Y-33500000D02*
G75*
G03*
X218500000Y-34500000I0J-1000000D01*
G01*
X256500000Y-37000000D02*
G75*
G03*
X257500000Y-36000000I0J1000000D01*
G01*
X265000000Y-69000000D02*
G75*
G03*
X264000000Y-68000000I-1000000J0D01*
G01*
X163250000Y-31000000D02*
X163250000Y-30000000D01*
X84000000Y-71250000D02*
G75*
G03*
X83000000Y-70250000I-1000000J0D01*
G01*
X252500000Y-36000000D02*
G75*
G03*
X253500000Y-37000000I1000000J0D01*
G01*
X67500000Y-32000000D02*
X67750000Y-32000000D01*
X40250000Y-32000000D02*
X40500000Y-32000000D01*
X125750000Y-29000000D02*
G75*
G03*
X124750000Y-30000000I0J-1000000D01*
G01*
X253500000Y-55000000D02*
G75*
G03*
X252500000Y-56000000I0J-1000000D01*
G01*
X217000000Y-70000000D02*
X259000000Y-70000000D01*
X83000000Y-53925000D02*
G75*
G03*
X82000000Y-54925000I0J-1000000D01*
G01*
X130250000Y-32000000D02*
X130500000Y-32000000D01*
X129250000Y-31000000D02*
X129250000Y-30000000D01*
X259000000Y-32000000D02*
X217000000Y-32000000D01*
X217000000Y-32000000D02*
G75*
G03*
X216000000Y-33000000I0J-1000000D01*
G01*
X257500000Y-56000000D02*
G75*
G03*
X256500000Y-55000000I-1000000J0D01*
G01*
X257500000Y-57500000D02*
X257500000Y-56000000D01*
X159750000Y-29000000D02*
X162250000Y-29000000D01*
X69750000Y-29000000D02*
X72250000Y-29000000D01*
X219500000Y-37000000D02*
X222500000Y-37000000D01*
X210000000Y-70000000D02*
X206000000Y-70000000D01*
X158750000Y-94000000D02*
G75*
G03*
X159750000Y-95000000I1000000J0D01*
G01*
X218500000Y-57500000D02*
G75*
G03*
X219500000Y-58500000I1000000J0D01*
G01*
X256500000Y-33500000D02*
X253500000Y-33500000D01*
X123500000Y-32000000D02*
X123750000Y-32000000D01*
X222500000Y-37000000D02*
G75*
G03*
X223500000Y-36000000I0J1000000D01*
G01*
X206000000Y-32000000D02*
G75*
G03*
X204000000Y-34000000I0J-2000000D01*
G01*
X34750000Y-93000000D02*
X34750000Y-94000000D01*
X215000000Y-34000000D02*
G75*
G03*
X216000000Y-33000000I0J1000000D01*
G01*
X39250000Y-31000000D02*
G75*
G03*
X40250000Y-32000000I1000000J0D01*
G01*
X84000000Y-52925000D02*
X84000000Y-36975063D01*
X259000000Y-70000000D02*
G75*
G03*
X260000000Y-69000000I0J1000000D01*
G01*
X123750000Y-32000000D02*
G75*
G03*
X124750000Y-31000000I0J1000000D01*
G01*
X73250000Y-31000000D02*
X73250000Y-30000000D01*
X272000000Y-34000000D02*
G75*
G03*
X270000000Y-32000000I-2000000J0D01*
G01*
X256500000Y-58500000D02*
G75*
G03*
X257500000Y-57500000I0J1000000D01*
G01*
X218500000Y-36000000D02*
G75*
G03*
X219500000Y-37000000I1000000J0D01*
G01*
X68750000Y-31000000D02*
X68750000Y-30000000D01*
X39250000Y-30000000D02*
G75*
G03*
X38250000Y-29000000I-1000000J0D01*
G01*
X215000000Y-68000000D02*
X212000000Y-68000000D01*
X270000000Y-70000000D02*
X266000000Y-70000000D01*
X33750000Y-32000000D02*
G75*
G03*
X34750000Y-31000000I0J1000000D01*
G01*
X164500000Y-92000000D02*
X164250000Y-92000000D01*
X210000000Y-70000000D02*
G75*
G03*
X211000000Y-69000000I0J1000000D01*
G01*
X73250000Y-31000000D02*
G75*
G03*
X74250000Y-32000000I1000000J0D01*
G01*
X223500000Y-36000000D02*
X223500000Y-34500000D01*
X124750000Y-94000000D02*
G75*
G03*
X125750000Y-95000000I1000000J0D01*
G01*
X219500000Y-55000000D02*
G75*
G03*
X218500000Y-56000000I0J-1000000D01*
G01*
X210000000Y-32000000D02*
X206000000Y-32000000D01*
X260000000Y-33000000D02*
G75*
G03*
X259000000Y-32000000I-1000000J0D01*
G01*
X164250000Y-32000000D02*
X164500000Y-32000000D01*
X256500000Y-55000000D02*
X253500000Y-55000000D01*
X253500000Y-33500000D02*
G75*
G03*
X252500000Y-34500000I0J-1000000D01*
G01*
X82000000Y-54925000D02*
X82000000Y-69250000D01*
X125750000Y-29000000D02*
X128250000Y-29000000D01*
X159750000Y-29000000D02*
G75*
G03*
X158750000Y-30000000I0J-1000000D01*
G01*
X124750000Y-31000000D02*
X124750000Y-30000000D01*
X211000000Y-33000000D02*
G75*
G03*
X210000000Y-32000000I-1000000J0D01*
G01*
X204000000Y-34000000D02*
X204000000Y-68000000D01*
X38250000Y-95000000D02*
G75*
G03*
X39250000Y-94000000I0J1000000D01*
G01*
X216000000Y-69000000D02*
G75*
G03*
X215000000Y-68000000I-1000000J0D01*
G01*
X164250000Y-92000000D02*
G75*
G03*
X163250000Y-93000000I0J-1000000D01*
G01*
X218500000Y-34500000D02*
X218500000Y-36000000D01*
X157750000Y-32000000D02*
G75*
G03*
X158750000Y-31000000I0J1000000D01*
G01*
X266000000Y-32000000D02*
X270000000Y-32000000D01*
X158750000Y-93000000D02*
X158750000Y-94000000D01*
X69750000Y-29000000D02*
G75*
G03*
X68750000Y-30000000I0J-1000000D01*
G01*
X162250000Y-95000000D02*
X159750000Y-95000000D01*
X261000000Y-68000000D02*
G75*
G03*
X260000000Y-69000000I0J-1000000D01*
G01*
M02*
