%TF.GenerationSoftware,KiCad,Pcbnew,7.0.2*%
%TF.CreationDate,2023-05-26T09:26:56+02:00*%
%TF.ProjectId,kleinvoet,6b6c6569-6e76-46f6-9574-2e6b69636164,C*%
%TF.SameCoordinates,Original*%
%TF.FileFunction,Soldermask,Bot*%
%TF.FilePolarity,Negative*%
%FSLAX46Y46*%
G04 Gerber Fmt 4.6, Leading zero omitted, Abs format (unit mm)*
G04 Created by KiCad (PCBNEW 7.0.2) date 2023-05-26 09:26:56*
%MOMM*%
%LPD*%
G01*
G04 APERTURE LIST*
G04 Aperture macros list*
%AMRotRect*
0 Rectangle, with rotation*
0 The origin of the aperture is its center*
0 $1 length*
0 $2 width*
0 $3 Rotation angle, in degrees counterclockwise*
0 Add horizontal line*
21,1,$1,$2,0,0,$3*%
%AMFreePoly0*
4,1,19,0.550000,-0.750000,0.000000,-0.750000,0.000000,-0.744911,-0.071157,-0.744911,-0.207708,-0.704816,-0.327430,-0.627875,-0.420627,-0.520320,-0.479746,-0.390866,-0.500000,-0.250000,-0.500000,0.250000,-0.479746,0.390866,-0.420627,0.520320,-0.327430,0.627875,-0.207708,0.704816,-0.071157,0.744911,0.000000,0.744911,0.000000,0.750000,0.550000,0.750000,0.550000,-0.750000,0.550000,-0.750000,
$1*%
%AMFreePoly1*
4,1,19,0.000000,0.744911,0.071157,0.744911,0.207708,0.704816,0.327430,0.627875,0.420627,0.520320,0.479746,0.390866,0.500000,0.250000,0.500000,-0.250000,0.479746,-0.390866,0.420627,-0.520320,0.327430,-0.627875,0.207708,-0.704816,0.071157,-0.744911,0.000000,-0.744911,0.000000,-0.750000,-0.550000,-0.750000,-0.550000,0.750000,0.000000,0.750000,0.000000,0.744911,0.000000,0.744911,
$1*%
%AMFreePoly2*
4,1,19,0.500000,-0.750000,0.000000,-0.750000,0.000000,-0.744911,-0.071157,-0.744911,-0.207708,-0.704816,-0.327430,-0.627875,-0.420627,-0.520320,-0.479746,-0.390866,-0.500000,-0.250000,-0.500000,0.250000,-0.479746,0.390866,-0.420627,0.520320,-0.327430,0.627875,-0.207708,0.704816,-0.071157,0.744911,0.000000,0.744911,0.000000,0.750000,0.500000,0.750000,0.500000,-0.750000,0.500000,-0.750000,
$1*%
%AMFreePoly3*
4,1,19,0.000000,0.744911,0.071157,0.744911,0.207708,0.704816,0.327430,0.627875,0.420627,0.520320,0.479746,0.390866,0.500000,0.250000,0.500000,-0.250000,0.479746,-0.390866,0.420627,-0.520320,0.327430,-0.627875,0.207708,-0.704816,0.071157,-0.744911,0.000000,-0.744911,0.000000,-0.750000,-0.500000,-0.750000,-0.500000,0.750000,0.000000,0.750000,0.000000,0.744911,0.000000,0.744911,
$1*%
G04 Aperture macros list end*
%ADD10C,0.200000*%
%ADD11C,0.800000*%
%ADD12C,6.400000*%
%ADD13C,0.650000*%
%ADD14O,0.650000X0.900000*%
%ADD15O,1.950000X0.950000*%
%ADD16R,1.700000X1.700000*%
%ADD17O,1.700000X1.700000*%
%ADD18R,1.000000X1.000000*%
%ADD19O,1.000000X1.000000*%
%ADD20C,1.000000*%
%ADD21FreePoly0,270.000000*%
%ADD22R,1.500000X1.000000*%
%ADD23FreePoly1,270.000000*%
%ADD24C,2.374900*%
%ADD25C,0.990600*%
%ADD26C,0.787400*%
%ADD27FreePoly2,180.000000*%
%ADD28FreePoly3,180.000000*%
%ADD29RotRect,5.100000X5.100000X45.000000*%
%ADD30C,17.800000*%
%TA.AperFunction,Profile*%
%ADD31C,0.050000*%
%TD*%
G04 APERTURE END LIST*
D10*
X227300000Y-57100000D02*
X230400000Y-60200000D01*
X244550000Y-69500000D02*
X243700000Y-68650000D01*
X231550000Y-63150000D02*
X231550000Y-64300000D01*
X243700000Y-68650000D02*
X243700000Y-63100000D01*
X227050000Y-48850000D02*
X227000000Y-48950000D01*
X250450000Y-49850000D02*
X250450000Y-53250000D01*
X227000000Y-48800000D02*
X227000000Y-52100000D01*
X224300000Y-50700000D02*
X224300000Y-54100000D01*
X230400000Y-60200000D02*
X231550000Y-61350000D01*
X227050000Y-43000000D02*
X227050000Y-48850000D01*
X226150000Y-46350000D02*
X226150000Y-42900000D01*
X232600000Y-63200000D02*
X232600000Y-60350000D01*
X232600000Y-60350000D02*
X225650000Y-53400000D01*
X243250000Y-58350000D02*
X249200000Y-52400000D01*
X231550000Y-64350000D02*
X231550000Y-68350000D01*
X249200000Y-52400000D02*
X249200000Y-49900000D01*
X234150000Y-59250000D02*
X234350000Y-59250000D01*
X251800000Y-54000000D02*
X251800000Y-44800000D01*
X225650000Y-53400000D02*
X225650000Y-46850000D01*
X225650000Y-46850000D02*
X226150000Y-46350000D01*
X243700000Y-62100000D02*
X251800000Y-54000000D01*
X250450000Y-53250000D02*
X242400000Y-61300000D01*
X224300000Y-54100000D02*
X227300000Y-57100000D01*
X227000000Y-52100000D02*
X234150000Y-59250000D01*
X224300000Y-47200000D02*
X224300000Y-50700000D01*
X231550000Y-68350000D02*
X231100000Y-68800000D01*
X231550000Y-61350000D02*
X231550000Y-63150000D01*
X242400000Y-61300000D02*
X242400000Y-63200000D01*
X243700000Y-63100000D02*
X243700000Y-62100000D01*
D11*
%TO.C,H201*%
X165600000Y-38050000D03*
X166302944Y-36352944D03*
X166302944Y-39747056D03*
X168000000Y-35650000D03*
D12*
X168000000Y-38050000D03*
D11*
X168000000Y-40450000D03*
X169697056Y-36352944D03*
X169697056Y-39747056D03*
X170400000Y-38050000D03*
%TD*%
%TO.C,H202*%
X117600000Y-86050000D03*
X118302944Y-84352944D03*
X118302944Y-87747056D03*
X120000000Y-83650000D03*
D12*
X120000000Y-86050000D03*
D11*
X120000000Y-88450000D03*
X121697056Y-84352944D03*
X121697056Y-87747056D03*
X122400000Y-86050000D03*
%TD*%
D13*
%TO.C,J206*%
X169000000Y-52950000D03*
D14*
X169000000Y-46950000D03*
D15*
X168275000Y-54270000D03*
X172100000Y-54270000D03*
X168275000Y-45630000D03*
X172100000Y-45630000D03*
%TD*%
D16*
%TO.C,J303*%
X27000000Y-56425000D03*
D17*
X27000000Y-58965000D03*
X27000000Y-61505000D03*
X27000000Y-64045000D03*
X27000000Y-66585000D03*
%TD*%
D11*
%TO.C,H301*%
X80400000Y-38000000D03*
X79697056Y-39697056D03*
X79697056Y-36302944D03*
X78000000Y-40400000D03*
D12*
X78000000Y-38000000D03*
D11*
X78000000Y-35600000D03*
X76302944Y-39697056D03*
X76302944Y-36302944D03*
X75600000Y-38000000D03*
%TD*%
%TO.C,H303*%
X80400000Y-86000000D03*
X79697056Y-87697056D03*
X79697056Y-84302944D03*
X78000000Y-88400000D03*
D12*
X78000000Y-86000000D03*
D11*
X78000000Y-83600000D03*
X76302944Y-87697056D03*
X76302944Y-84302944D03*
X75600000Y-86000000D03*
%TD*%
%TO.C,H304*%
X32400000Y-86000000D03*
X31697056Y-87697056D03*
X31697056Y-84302944D03*
X30000000Y-88400000D03*
D12*
X30000000Y-86000000D03*
D11*
X30000000Y-83600000D03*
X28302944Y-87697056D03*
X28302944Y-84302944D03*
X27600000Y-86000000D03*
%TD*%
%TO.C,H302*%
X32400000Y-38000000D03*
X31697056Y-39697056D03*
X31697056Y-36302944D03*
X30000000Y-40400000D03*
D12*
X30000000Y-38000000D03*
D11*
X30000000Y-35600000D03*
X28302944Y-39697056D03*
X28302944Y-36302944D03*
X27600000Y-38000000D03*
%TD*%
D18*
%TO.C,J203*%
X134000000Y-77200000D03*
D19*
X134000000Y-78470000D03*
X134000000Y-79740000D03*
X134000000Y-81010000D03*
%TD*%
D13*
%TO.C,MK1404*%
X238000000Y-39400000D03*
%TD*%
%TO.C,MK1402*%
X244600000Y-46000000D03*
%TD*%
%TO.C,MK1401*%
X231400000Y-46000000D03*
%TD*%
D11*
%TO.C,H1001*%
X253600000Y-46000000D03*
X254302944Y-44302944D03*
X254302944Y-47697056D03*
X256000000Y-43600000D03*
D12*
X256000000Y-46000000D03*
D11*
X256000000Y-48400000D03*
X257697056Y-44302944D03*
X257697056Y-47697056D03*
X258400000Y-46000000D03*
%TD*%
D13*
%TO.C,MK1403*%
X238000000Y-52600000D03*
%TD*%
%TO.C,MK1405*%
X233350000Y-50650000D03*
%TD*%
D11*
%TO.C,H1002*%
X217600000Y-46000000D03*
X218302944Y-44302944D03*
X218302944Y-47697056D03*
X220000000Y-43600000D03*
D12*
X220000000Y-46000000D03*
D11*
X220000000Y-48400000D03*
X221697056Y-44302944D03*
X221697056Y-47697056D03*
X222400000Y-46000000D03*
%TD*%
D13*
%TO.C,MK1407*%
X233350000Y-41350000D03*
%TD*%
%TO.C,MK1406*%
X242650000Y-41350000D03*
%TD*%
%TO.C,MK1408*%
X242650000Y-50650000D03*
%TD*%
D20*
%TO.C,TP902*%
X172200000Y-56500000D03*
%TD*%
D21*
%TO.C,JP401*%
X157700000Y-35550000D03*
D22*
X157700000Y-36850000D03*
D23*
X157700000Y-38150000D03*
%TD*%
D21*
%TO.C,JP402*%
X155500000Y-35550000D03*
D22*
X155500000Y-36850000D03*
D23*
X155500000Y-38150000D03*
%TD*%
D20*
%TO.C,TP406*%
X132075000Y-77175000D03*
%TD*%
%TO.C,TP407*%
X132075000Y-75025000D03*
%TD*%
%TO.C,TP904*%
X165200000Y-33600000D03*
%TD*%
D24*
%TO.C,J202*%
X134480000Y-88740000D03*
D25*
X134480000Y-86200000D03*
D24*
X134480000Y-83660000D03*
X126225000Y-88740000D03*
X126225000Y-83660000D03*
D25*
X124320000Y-87216000D03*
X124320000Y-85184000D03*
D26*
X133210000Y-86835000D03*
X131940000Y-86835000D03*
X130670000Y-86835000D03*
X129400000Y-86835000D03*
X128130000Y-86835000D03*
X126860000Y-86835000D03*
X125590000Y-86835000D03*
X125590000Y-85565000D03*
X126860000Y-85565000D03*
X128130000Y-85565000D03*
X129400000Y-85565000D03*
X130670000Y-85565000D03*
X131940000Y-85565000D03*
X133210000Y-85565000D03*
%TD*%
D21*
%TO.C,JP1401*%
X145400000Y-73300000D03*
D22*
X145400000Y-74600000D03*
D23*
X145400000Y-75900000D03*
%TD*%
D27*
%TO.C,JP2*%
X74600000Y-59075000D03*
D28*
X73300000Y-59075000D03*
%TD*%
D20*
%TO.C,TP903*%
X156600000Y-71900000D03*
%TD*%
D29*
%TO.C,BT301*%
X44949033Y-71092211D03*
X63050967Y-52990277D03*
D30*
X54000000Y-62041244D03*
%TD*%
D27*
%TO.C,JP1*%
X74600000Y-61625000D03*
D28*
X73300000Y-61625000D03*
%TD*%
G36*
X79465076Y-32000026D02*
G01*
X79479029Y-32000482D01*
X79482231Y-32000692D01*
X79496110Y-32002059D01*
X79497703Y-32002242D01*
X79856906Y-32049532D01*
X79857967Y-32049684D01*
X79867144Y-32051097D01*
X79869249Y-32051468D01*
X79878331Y-32053275D01*
X79879375Y-32053494D01*
X80282944Y-32142963D01*
X80283986Y-32143206D01*
X80292984Y-32145408D01*
X80295049Y-32145962D01*
X80303992Y-32148569D01*
X80305014Y-32148879D01*
X80699163Y-32273155D01*
X80700174Y-32273486D01*
X80709000Y-32276481D01*
X80711012Y-32277213D01*
X80719676Y-32280582D01*
X80720670Y-32280981D01*
X81102493Y-32439140D01*
X81103476Y-32439560D01*
X81111996Y-32443309D01*
X81113931Y-32444211D01*
X81122319Y-32448347D01*
X81123275Y-32448832D01*
X81489833Y-32639652D01*
X81490775Y-32640155D01*
X81498923Y-32644625D01*
X81500776Y-32645695D01*
X81508735Y-32650525D01*
X81509642Y-32651089D01*
X81858220Y-32873160D01*
X81859116Y-32873745D01*
X81866835Y-32878903D01*
X81868584Y-32880127D01*
X81876091Y-32885631D01*
X81876948Y-32886274D01*
X82204823Y-33137865D01*
X82205660Y-33138522D01*
X82212939Y-33144363D01*
X82214579Y-33145739D01*
X82221574Y-33151873D01*
X82222371Y-33152588D01*
X82527054Y-33431784D01*
X82527828Y-33432508D01*
X82534565Y-33438955D01*
X82536086Y-33440477D01*
X82542510Y-33447189D01*
X82543238Y-33447965D01*
X82822475Y-33752702D01*
X82823190Y-33753500D01*
X82829302Y-33760470D01*
X82830675Y-33762107D01*
X82836511Y-33769379D01*
X82837171Y-33770219D01*
X83088768Y-34098112D01*
X83089409Y-34098968D01*
X83094908Y-34106468D01*
X83096132Y-34108215D01*
X83101304Y-34115954D01*
X83101890Y-34116853D01*
X83323929Y-34465392D01*
X83324492Y-34466297D01*
X83329335Y-34474277D01*
X83330407Y-34476134D01*
X83334867Y-34484265D01*
X83335370Y-34485205D01*
X83526203Y-34851800D01*
X83526686Y-34852753D01*
X83530814Y-34861124D01*
X83531717Y-34863061D01*
X83535473Y-34871597D01*
X83535893Y-34872581D01*
X83694033Y-35254374D01*
X83694430Y-35255363D01*
X83697806Y-35264043D01*
X83698540Y-35266060D01*
X83701539Y-35274898D01*
X83701870Y-35275909D01*
X83826133Y-35670035D01*
X83826443Y-35671057D01*
X83829054Y-35680015D01*
X83829609Y-35682084D01*
X83831809Y-35691078D01*
X83832051Y-35692116D01*
X83921513Y-36095669D01*
X83921733Y-36096719D01*
X83923543Y-36105823D01*
X83923914Y-36107923D01*
X83925327Y-36117102D01*
X83925478Y-36118162D01*
X83979421Y-36527934D01*
X83979548Y-36528991D01*
X83980563Y-36538252D01*
X83980750Y-36540382D01*
X83981358Y-36549650D01*
X83981416Y-36550714D01*
X83999747Y-36969299D01*
X83999768Y-36969840D01*
X83999922Y-36974544D01*
X83999945Y-36975599D01*
X83999997Y-36980250D01*
X84000000Y-36980798D01*
X84000000Y-37749359D01*
X83999078Y-37758819D01*
X83983227Y-37839380D01*
X83976061Y-37856887D01*
X83933549Y-37921381D01*
X83920283Y-37934870D01*
X83856511Y-37978448D01*
X83839124Y-37985906D01*
X83758833Y-38003097D01*
X83749391Y-38004176D01*
X78259045Y-38095682D01*
X78249370Y-38094882D01*
X78166911Y-38079726D01*
X78148972Y-38072556D01*
X78082951Y-38029430D01*
X78069177Y-38015884D01*
X78024955Y-37950588D01*
X78017488Y-37932770D01*
X78000962Y-37850582D01*
X78000000Y-37840923D01*
X78000000Y-32254823D01*
X78000941Y-32245264D01*
X78017127Y-32163890D01*
X78024444Y-32146226D01*
X78067808Y-32081327D01*
X78081327Y-32067808D01*
X78146226Y-32024444D01*
X78163890Y-32017127D01*
X78245264Y-32000941D01*
X78254823Y-32000000D01*
X79463475Y-32000000D01*
X79465076Y-32000026D01*
G37*
G36*
X168994812Y-32000003D02*
G01*
X168999425Y-32000052D01*
X169000516Y-32000075D01*
X169005259Y-32000231D01*
X169005785Y-32000252D01*
X169424332Y-32018527D01*
X169425395Y-32018585D01*
X169434669Y-32019192D01*
X169436808Y-32019379D01*
X169446086Y-32020396D01*
X169447143Y-32020523D01*
X169856909Y-32074468D01*
X169857970Y-32074620D01*
X169867147Y-32076033D01*
X169869254Y-32076404D01*
X169878379Y-32078220D01*
X169879421Y-32078440D01*
X170282907Y-32167891D01*
X170283944Y-32168132D01*
X170292987Y-32170344D01*
X170295057Y-32170899D01*
X170303997Y-32173505D01*
X170305019Y-32173815D01*
X170699172Y-32298091D01*
X170700189Y-32298424D01*
X170709017Y-32301421D01*
X170711023Y-32302151D01*
X170719690Y-32305521D01*
X170720683Y-32305920D01*
X171102486Y-32464068D01*
X171103470Y-32464488D01*
X171112006Y-32468244D01*
X171113944Y-32469148D01*
X171122296Y-32473267D01*
X171123249Y-32473749D01*
X171489882Y-32664606D01*
X171490823Y-32665110D01*
X171498935Y-32669560D01*
X171500789Y-32670630D01*
X171508748Y-32675460D01*
X171509655Y-32676024D01*
X171858235Y-32898094D01*
X171859131Y-32898679D01*
X171866850Y-32903837D01*
X171868598Y-32905061D01*
X171876127Y-32910581D01*
X171876984Y-32911224D01*
X172204820Y-33162781D01*
X172205662Y-33163441D01*
X172212962Y-33169300D01*
X172214597Y-33170672D01*
X172221567Y-33176784D01*
X172222365Y-33177499D01*
X172527101Y-33456739D01*
X172527877Y-33457467D01*
X172534589Y-33463891D01*
X172536108Y-33465410D01*
X172542532Y-33472122D01*
X172543260Y-33472898D01*
X172822500Y-33777634D01*
X172823215Y-33778432D01*
X172829327Y-33785402D01*
X172830699Y-33787037D01*
X172836558Y-33794337D01*
X172837218Y-33795179D01*
X173088775Y-34123015D01*
X173089418Y-34123872D01*
X173094938Y-34131401D01*
X173096162Y-34133149D01*
X173101320Y-34140868D01*
X173101905Y-34141764D01*
X173323975Y-34490344D01*
X173324539Y-34491251D01*
X173329369Y-34499210D01*
X173330439Y-34501064D01*
X173334889Y-34509176D01*
X173335393Y-34510117D01*
X173526250Y-34876750D01*
X173526732Y-34877703D01*
X173530851Y-34886055D01*
X173531755Y-34887993D01*
X173535511Y-34896529D01*
X173535931Y-34897513D01*
X173694079Y-35279316D01*
X173694478Y-35280309D01*
X173697848Y-35288976D01*
X173698578Y-35290982D01*
X173701575Y-35299810D01*
X173701908Y-35300827D01*
X173826184Y-35694980D01*
X173826494Y-35696002D01*
X173829100Y-35704942D01*
X173829655Y-35707012D01*
X173831867Y-35716055D01*
X173832108Y-35717092D01*
X173921559Y-36120578D01*
X173921779Y-36121620D01*
X173923595Y-36130745D01*
X173923966Y-36132852D01*
X173925379Y-36142029D01*
X173925531Y-36143090D01*
X173979476Y-36552856D01*
X173979603Y-36553913D01*
X173980620Y-36563191D01*
X173980807Y-36565330D01*
X173981414Y-36574604D01*
X173981472Y-36575667D01*
X173999747Y-36994214D01*
X173999768Y-36994740D01*
X173999924Y-36999483D01*
X173999947Y-37000563D01*
X173999997Y-37005177D01*
X174000000Y-37005708D01*
X174000000Y-37749359D01*
X173999078Y-37758819D01*
X173983227Y-37839380D01*
X173976061Y-37856887D01*
X173933549Y-37921381D01*
X173920283Y-37934870D01*
X173856511Y-37978448D01*
X173839124Y-37985906D01*
X173758833Y-38003097D01*
X173749391Y-38004176D01*
X168259045Y-38095682D01*
X168249370Y-38094882D01*
X168166911Y-38079726D01*
X168148972Y-38072556D01*
X168082951Y-38029430D01*
X168069177Y-38015884D01*
X168024955Y-37950588D01*
X168017488Y-37932770D01*
X168000962Y-37850582D01*
X168000000Y-37840923D01*
X168000000Y-32254823D01*
X168000941Y-32245264D01*
X168017127Y-32163890D01*
X168024444Y-32146226D01*
X168067808Y-32081327D01*
X168081327Y-32067808D01*
X168146226Y-32024444D01*
X168163890Y-32017127D01*
X168245264Y-32000941D01*
X168254823Y-32000000D01*
X168994292Y-32000000D01*
X168994812Y-32000003D01*
G37*
G36*
X271754736Y-65200942D02*
G01*
X271836109Y-65217128D01*
X271853773Y-65224444D01*
X271918672Y-65267808D01*
X271932191Y-65281327D01*
X271975555Y-65346226D01*
X271982871Y-65363889D01*
X271999058Y-65445263D01*
X272000000Y-65454823D01*
X272000000Y-67990647D01*
X271999992Y-67991526D01*
X271999856Y-67999108D01*
X271999794Y-68000848D01*
X271999385Y-68008489D01*
X271999330Y-68009366D01*
X271980981Y-68265922D01*
X271980825Y-68267666D01*
X271979197Y-68282802D01*
X271978699Y-68286263D01*
X271975997Y-68301237D01*
X271975656Y-68302952D01*
X271922975Y-68545125D01*
X271922573Y-68546826D01*
X271918804Y-68561594D01*
X271917818Y-68564953D01*
X271913019Y-68579370D01*
X271912438Y-68581018D01*
X271825818Y-68813257D01*
X271825178Y-68814883D01*
X271819350Y-68828954D01*
X271817896Y-68832138D01*
X271811084Y-68845746D01*
X271810273Y-68847295D01*
X271691494Y-69064822D01*
X271690630Y-69066341D01*
X271682867Y-69079426D01*
X271680973Y-69082372D01*
X271672287Y-69094881D01*
X271671265Y-69096298D01*
X271522748Y-69294693D01*
X271521675Y-69296074D01*
X271512107Y-69307947D01*
X271509817Y-69310591D01*
X271499449Y-69321727D01*
X271498234Y-69322985D01*
X271322985Y-69498234D01*
X271321727Y-69499449D01*
X271310591Y-69509817D01*
X271307947Y-69512107D01*
X271296074Y-69521675D01*
X271294693Y-69522748D01*
X271096298Y-69671265D01*
X271094881Y-69672287D01*
X271082372Y-69680973D01*
X271079426Y-69682867D01*
X271066341Y-69690630D01*
X271064822Y-69691494D01*
X270847295Y-69810273D01*
X270845746Y-69811084D01*
X270832138Y-69817896D01*
X270828954Y-69819350D01*
X270814883Y-69825178D01*
X270813257Y-69825818D01*
X270581018Y-69912438D01*
X270579370Y-69913019D01*
X270564953Y-69917818D01*
X270561594Y-69918804D01*
X270546826Y-69922573D01*
X270545125Y-69922975D01*
X270302952Y-69975656D01*
X270301237Y-69975997D01*
X270286263Y-69978699D01*
X270282802Y-69979197D01*
X270267666Y-69980825D01*
X270265922Y-69980981D01*
X270009366Y-69999330D01*
X270008489Y-69999385D01*
X270000848Y-69999794D01*
X269999108Y-69999856D01*
X269991526Y-69999992D01*
X269990647Y-70000000D01*
X266012873Y-70000000D01*
X266011668Y-69999985D01*
X266001217Y-69999728D01*
X265998817Y-69999610D01*
X265988380Y-69998840D01*
X265987182Y-69998737D01*
X265830612Y-69983316D01*
X265828225Y-69983022D01*
X265807529Y-69979952D01*
X265802813Y-69979014D01*
X265782504Y-69973927D01*
X265780186Y-69973285D01*
X265642029Y-69931376D01*
X265639744Y-69930621D01*
X265620045Y-69923572D01*
X265615606Y-69921734D01*
X265596693Y-69912790D01*
X265594542Y-69911707D01*
X265467192Y-69843636D01*
X265465101Y-69842451D01*
X265447170Y-69831704D01*
X265443170Y-69829032D01*
X265426369Y-69816571D01*
X265424474Y-69815092D01*
X265312854Y-69723488D01*
X265311033Y-69721917D01*
X265295532Y-69707868D01*
X265292131Y-69704467D01*
X265278082Y-69688966D01*
X265276511Y-69687145D01*
X265184907Y-69575525D01*
X265183428Y-69573630D01*
X265170967Y-69556829D01*
X265168295Y-69552829D01*
X265157548Y-69534898D01*
X265156363Y-69532807D01*
X265088292Y-69405457D01*
X265087209Y-69403306D01*
X265078265Y-69384393D01*
X265076427Y-69379954D01*
X265069378Y-69360255D01*
X265068623Y-69357970D01*
X265026714Y-69219813D01*
X265026072Y-69217495D01*
X265020985Y-69197186D01*
X265020047Y-69192470D01*
X265016977Y-69171774D01*
X265016683Y-69169387D01*
X265001262Y-69012817D01*
X265001159Y-69011619D01*
X265000389Y-69001182D01*
X265000271Y-68998777D01*
X265000015Y-68988327D01*
X265000000Y-68987127D01*
X265000000Y-65454823D01*
X265000941Y-65445264D01*
X265017127Y-65363890D01*
X265024444Y-65346226D01*
X265067808Y-65281327D01*
X265081327Y-65267808D01*
X265146226Y-65224444D01*
X265163890Y-65217127D01*
X265245264Y-65200941D01*
X265254823Y-65200000D01*
X271745177Y-65200000D01*
X271754736Y-65200942D01*
G37*
D31*
X169000000Y-92000000D02*
G75*
G03*
X174000000Y-87000000I0J5000000D01*
G01*
X174000000Y-37000000D02*
G75*
G03*
X169000000Y-32000000I-5000000J0D01*
G01*
X174000000Y-87000000D02*
X174000000Y-37000000D01*
X169000000Y-32000000D02*
X164500000Y-32000000D01*
X114000000Y-87000000D02*
G75*
G03*
X119000000Y-92000000I5000000J0D01*
G01*
X119000000Y-32000000D02*
G75*
G03*
X114000000Y-37000000I0J-5000000D01*
G01*
X164500000Y-92000000D02*
X169000000Y-92000000D01*
X33500000Y-32000000D02*
X29000000Y-32000000D01*
X24000000Y-37000000D02*
X24000000Y-87000000D01*
X79000000Y-92000000D02*
G75*
G03*
X84000000Y-87000000I0J5000000D01*
G01*
X24000000Y-87000000D02*
G75*
G03*
X29000000Y-92000000I5000000J0D01*
G01*
X29000000Y-32000000D02*
G75*
G03*
X24000000Y-37000000I0J-5000000D01*
G01*
X29000000Y-92000000D02*
X33500000Y-92000000D01*
X83999937Y-36975063D02*
G75*
G03*
X79000001Y-31975063I-4999937J63D01*
G01*
X124750000Y-93000000D02*
X124750000Y-94000000D01*
X129250000Y-93000000D02*
X129250000Y-94000000D01*
X130500000Y-92000000D02*
X130250000Y-92000000D01*
X123750000Y-92000000D02*
X123500000Y-92000000D01*
X74500000Y-92000000D02*
X74250000Y-92000000D01*
X124750000Y-93000000D02*
G75*
G03*
X123750000Y-92000000I-1000000J0D01*
G01*
X130250000Y-92000000D02*
G75*
G03*
X129250000Y-93000000I0J-1000000D01*
G01*
X123500000Y-92000000D02*
X119000000Y-92000000D01*
X128250000Y-95000000D02*
G75*
G03*
X129250000Y-94000000I0J1000000D01*
G01*
X74250000Y-92000000D02*
G75*
G03*
X73250000Y-93000000I0J-1000000D01*
G01*
X68750000Y-93000000D02*
G75*
G03*
X67750000Y-92000000I-1000000J0D01*
G01*
X68750000Y-94000000D02*
G75*
G03*
X69750000Y-95000000I1000000J0D01*
G01*
X72250000Y-95000000D02*
X69750000Y-95000000D01*
X72250000Y-95000000D02*
G75*
G03*
X73250000Y-94000000I0J1000000D01*
G01*
X68750000Y-93000000D02*
X68750000Y-94000000D01*
X73250000Y-93000000D02*
X73250000Y-94000000D01*
X157500000Y-92000000D02*
X130500000Y-92000000D01*
X40201249Y-92000000D02*
X67750000Y-92000000D01*
X74500000Y-92000000D02*
X79000000Y-92000000D01*
X40500000Y-32000000D02*
X67500000Y-32000000D01*
X74500000Y-32000000D02*
X79000001Y-31975063D01*
X157500000Y-32000000D02*
X130500000Y-32000000D01*
X123500000Y-32000000D02*
X119000000Y-32000000D01*
X114000000Y-37000000D02*
X114000000Y-87000000D01*
X84000000Y-71250000D02*
X84000000Y-87000000D01*
X128250000Y-95000000D02*
X125750000Y-95000000D01*
X257500000Y-34500000D02*
G75*
G03*
X256500000Y-33500000I-1000000J0D01*
G01*
X260000000Y-33000000D02*
G75*
G03*
X261000000Y-34000000I1000000J0D01*
G01*
X253500000Y-58500000D02*
X256500000Y-58500000D01*
X211000000Y-33000000D02*
G75*
G03*
X212000000Y-34000000I1000000J0D01*
G01*
X82000000Y-69250000D02*
G75*
G03*
X83000000Y-70250000I1000000J0D01*
G01*
X162250000Y-95000000D02*
G75*
G03*
X163250000Y-94000000I0J1000000D01*
G01*
X158750000Y-31000000D02*
X158750000Y-30000000D01*
X73250000Y-30000000D02*
G75*
G03*
X72250000Y-29000000I-1000000J0D01*
G01*
X163250000Y-93000000D02*
X163250000Y-94000000D01*
X218500000Y-56000000D02*
X218500000Y-57500000D01*
X35750000Y-29000000D02*
G75*
G03*
X34750000Y-30000000I0J-1000000D01*
G01*
X157750000Y-92000000D02*
X157500000Y-92000000D01*
X74250000Y-32000000D02*
X74500000Y-32000000D01*
X222500000Y-58500000D02*
G75*
G03*
X223500000Y-57500000I0J1000000D01*
G01*
X272000000Y-55000000D02*
X272000000Y-34000000D01*
X264000000Y-34000000D02*
G75*
G03*
X265000000Y-33000000I0J1000000D01*
G01*
X252500000Y-56000000D02*
X252500000Y-57500000D01*
X39250000Y-93000000D02*
X39250000Y-94000000D01*
X252500000Y-57500000D02*
G75*
G03*
X253500000Y-58500000I1000000J0D01*
G01*
X157500000Y-32000000D02*
X157750000Y-32000000D01*
X163250000Y-30000000D02*
G75*
G03*
X162250000Y-29000000I-1000000J0D01*
G01*
X67750000Y-32000000D02*
G75*
G03*
X68750000Y-31000000I0J1000000D01*
G01*
X270000000Y-70000000D02*
G75*
G03*
X272000000Y-68000000I0J2000000D01*
G01*
X223500000Y-56000000D02*
G75*
G03*
X222500000Y-55000000I-1000000J0D01*
G01*
X34750000Y-31000000D02*
X34750000Y-30000000D01*
X35750000Y-29000000D02*
X38250000Y-29000000D01*
X222500000Y-33500000D02*
X219500000Y-33500000D01*
X33500000Y-32000000D02*
X33750000Y-32000000D01*
X272000000Y-68000000D02*
X272000000Y-55000000D01*
X34750000Y-93000000D02*
G75*
G03*
X33750000Y-92000000I-1000000J0D01*
G01*
X33750000Y-92000000D02*
X33500000Y-92000000D01*
X261000000Y-34000000D02*
X264000000Y-34000000D01*
X40201249Y-91999999D02*
G75*
G03*
X39250000Y-93000000I24351J-975601D01*
G01*
X38250000Y-95000000D02*
X35750000Y-95000000D01*
X158750000Y-93000000D02*
G75*
G03*
X157750000Y-92000000I-1000000J0D01*
G01*
X212000000Y-34000000D02*
X215000000Y-34000000D01*
X252500000Y-34500000D02*
X252500000Y-36000000D01*
X222500000Y-55000000D02*
X219500000Y-55000000D01*
X212000000Y-68000000D02*
G75*
G03*
X211000000Y-69000000I0J-1000000D01*
G01*
X219500000Y-58500000D02*
X222500000Y-58500000D01*
X223500000Y-57500000D02*
X223500000Y-56000000D01*
X257500000Y-36000000D02*
X257500000Y-34500000D01*
X264000000Y-68000000D02*
X261000000Y-68000000D01*
X253500000Y-37000000D02*
X256500000Y-37000000D01*
X129250000Y-31000000D02*
G75*
G03*
X130250000Y-32000000I1000000J0D01*
G01*
X129250000Y-30000000D02*
G75*
G03*
X128250000Y-29000000I-1000000J0D01*
G01*
X34750000Y-94000000D02*
G75*
G03*
X35750000Y-95000000I1000000J0D01*
G01*
X83000000Y-53925000D02*
G75*
G03*
X84000000Y-52925000I0J1000000D01*
G01*
X223500000Y-34500000D02*
G75*
G03*
X222500000Y-33500000I-1000000J0D01*
G01*
X216000000Y-69000000D02*
G75*
G03*
X217000000Y-70000000I1000000J0D01*
G01*
X163250000Y-31000000D02*
G75*
G03*
X164250000Y-32000000I1000000J0D01*
G01*
X204000000Y-68000000D02*
G75*
G03*
X206000000Y-70000000I2000000J0D01*
G01*
X39250000Y-31000000D02*
X39250000Y-30000000D01*
X265000000Y-69000000D02*
G75*
G03*
X266000000Y-70000000I1000000J0D01*
G01*
X266000000Y-32000000D02*
G75*
G03*
X265000000Y-33000000I0J-1000000D01*
G01*
X219500000Y-33500000D02*
G75*
G03*
X218500000Y-34500000I0J-1000000D01*
G01*
X256500000Y-37000000D02*
G75*
G03*
X257500000Y-36000000I0J1000000D01*
G01*
X265000000Y-69000000D02*
G75*
G03*
X264000000Y-68000000I-1000000J0D01*
G01*
X163250000Y-31000000D02*
X163250000Y-30000000D01*
X84000000Y-71250000D02*
G75*
G03*
X83000000Y-70250000I-1000000J0D01*
G01*
X252500000Y-36000000D02*
G75*
G03*
X253500000Y-37000000I1000000J0D01*
G01*
X67500000Y-32000000D02*
X67750000Y-32000000D01*
X40250000Y-32000000D02*
X40500000Y-32000000D01*
X125750000Y-29000000D02*
G75*
G03*
X124750000Y-30000000I0J-1000000D01*
G01*
X253500000Y-55000000D02*
G75*
G03*
X252500000Y-56000000I0J-1000000D01*
G01*
X217000000Y-70000000D02*
X259000000Y-70000000D01*
X83000000Y-53925000D02*
G75*
G03*
X82000000Y-54925000I0J-1000000D01*
G01*
X130250000Y-32000000D02*
X130500000Y-32000000D01*
X129250000Y-31000000D02*
X129250000Y-30000000D01*
X259000000Y-32000000D02*
X217000000Y-32000000D01*
X217000000Y-32000000D02*
G75*
G03*
X216000000Y-33000000I0J-1000000D01*
G01*
X257500000Y-56000000D02*
G75*
G03*
X256500000Y-55000000I-1000000J0D01*
G01*
X257500000Y-57500000D02*
X257500000Y-56000000D01*
X159750000Y-29000000D02*
X162250000Y-29000000D01*
X69750000Y-29000000D02*
X72250000Y-29000000D01*
X219500000Y-37000000D02*
X222500000Y-37000000D01*
X210000000Y-70000000D02*
X206000000Y-70000000D01*
X158750000Y-94000000D02*
G75*
G03*
X159750000Y-95000000I1000000J0D01*
G01*
X218500000Y-57500000D02*
G75*
G03*
X219500000Y-58500000I1000000J0D01*
G01*
X256500000Y-33500000D02*
X253500000Y-33500000D01*
X123500000Y-32000000D02*
X123750000Y-32000000D01*
X222500000Y-37000000D02*
G75*
G03*
X223500000Y-36000000I0J1000000D01*
G01*
X206000000Y-32000000D02*
G75*
G03*
X204000000Y-34000000I0J-2000000D01*
G01*
X34750000Y-93000000D02*
X34750000Y-94000000D01*
X215000000Y-34000000D02*
G75*
G03*
X216000000Y-33000000I0J1000000D01*
G01*
X39250000Y-31000000D02*
G75*
G03*
X40250000Y-32000000I1000000J0D01*
G01*
X84000000Y-52925000D02*
X84000000Y-36975063D01*
X259000000Y-70000000D02*
G75*
G03*
X260000000Y-69000000I0J1000000D01*
G01*
X123750000Y-32000000D02*
G75*
G03*
X124750000Y-31000000I0J1000000D01*
G01*
X73250000Y-31000000D02*
X73250000Y-30000000D01*
X272000000Y-34000000D02*
G75*
G03*
X270000000Y-32000000I-2000000J0D01*
G01*
X256500000Y-58500000D02*
G75*
G03*
X257500000Y-57500000I0J1000000D01*
G01*
X218500000Y-36000000D02*
G75*
G03*
X219500000Y-37000000I1000000J0D01*
G01*
X68750000Y-31000000D02*
X68750000Y-30000000D01*
X39250000Y-30000000D02*
G75*
G03*
X38250000Y-29000000I-1000000J0D01*
G01*
X215000000Y-68000000D02*
X212000000Y-68000000D01*
X270000000Y-70000000D02*
X266000000Y-70000000D01*
X33750000Y-32000000D02*
G75*
G03*
X34750000Y-31000000I0J1000000D01*
G01*
X164500000Y-92000000D02*
X164250000Y-92000000D01*
X210000000Y-70000000D02*
G75*
G03*
X211000000Y-69000000I0J1000000D01*
G01*
X73250000Y-31000000D02*
G75*
G03*
X74250000Y-32000000I1000000J0D01*
G01*
X223500000Y-36000000D02*
X223500000Y-34500000D01*
X124750000Y-94000000D02*
G75*
G03*
X125750000Y-95000000I1000000J0D01*
G01*
X219500000Y-55000000D02*
G75*
G03*
X218500000Y-56000000I0J-1000000D01*
G01*
X210000000Y-32000000D02*
X206000000Y-32000000D01*
X260000000Y-33000000D02*
G75*
G03*
X259000000Y-32000000I-1000000J0D01*
G01*
X164250000Y-32000000D02*
X164500000Y-32000000D01*
X256500000Y-55000000D02*
X253500000Y-55000000D01*
X253500000Y-33500000D02*
G75*
G03*
X252500000Y-34500000I0J-1000000D01*
G01*
X82000000Y-54925000D02*
X82000000Y-69250000D01*
X125750000Y-29000000D02*
X128250000Y-29000000D01*
X159750000Y-29000000D02*
G75*
G03*
X158750000Y-30000000I0J-1000000D01*
G01*
X124750000Y-31000000D02*
X124750000Y-30000000D01*
X211000000Y-33000000D02*
G75*
G03*
X210000000Y-32000000I-1000000J0D01*
G01*
X204000000Y-34000000D02*
X204000000Y-68000000D01*
X38250000Y-95000000D02*
G75*
G03*
X39250000Y-94000000I0J1000000D01*
G01*
X216000000Y-69000000D02*
G75*
G03*
X215000000Y-68000000I-1000000J0D01*
G01*
X164250000Y-92000000D02*
G75*
G03*
X163250000Y-93000000I0J-1000000D01*
G01*
X218500000Y-34500000D02*
X218500000Y-36000000D01*
X157750000Y-32000000D02*
G75*
G03*
X158750000Y-31000000I0J1000000D01*
G01*
X266000000Y-32000000D02*
X270000000Y-32000000D01*
X158750000Y-93000000D02*
X158750000Y-94000000D01*
X69750000Y-29000000D02*
G75*
G03*
X68750000Y-30000000I0J-1000000D01*
G01*
X162250000Y-95000000D02*
X159750000Y-95000000D01*
X261000000Y-68000000D02*
G75*
G03*
X260000000Y-69000000I0J-1000000D01*
G01*
M02*
