%TF.GenerationSoftware,KiCad,Pcbnew,7.0.2*%
%TF.CreationDate,2023-05-26T09:26:56+02:00*%
%TF.ProjectId,kleinvoet,6b6c6569-6e76-46f6-9574-2e6b69636164,C*%
%TF.SameCoordinates,Original*%
%TF.FileFunction,Soldermask,Top*%
%TF.FilePolarity,Negative*%
%FSLAX46Y46*%
G04 Gerber Fmt 4.6, Leading zero omitted, Abs format (unit mm)*
G04 Created by KiCad (PCBNEW 7.0.2) date 2023-05-26 09:26:56*
%MOMM*%
%LPD*%
G01*
G04 APERTURE LIST*
G04 Aperture macros list*
%AMRoundRect*
0 Rectangle with rounded corners*
0 $1 Rounding radius*
0 $2 $3 $4 $5 $6 $7 $8 $9 X,Y pos of 4 corners*
0 Add a 4 corners polygon primitive as box body*
4,1,4,$2,$3,$4,$5,$6,$7,$8,$9,$2,$3,0*
0 Add four circle primitives for the rounded corners*
1,1,$1+$1,$2,$3*
1,1,$1+$1,$4,$5*
1,1,$1+$1,$6,$7*
1,1,$1+$1,$8,$9*
0 Add four rect primitives between the rounded corners*
20,1,$1+$1,$2,$3,$4,$5,0*
20,1,$1+$1,$4,$5,$6,$7,0*
20,1,$1+$1,$6,$7,$8,$9,0*
20,1,$1+$1,$8,$9,$2,$3,0*%
%AMFreePoly0*
4,1,19,0.500000,-0.750000,0.000000,-0.750000,0.000000,-0.744911,-0.071157,-0.744911,-0.207708,-0.704816,-0.327430,-0.627875,-0.420627,-0.520320,-0.479746,-0.390866,-0.500000,-0.250000,-0.500000,0.250000,-0.479746,0.390866,-0.420627,0.520320,-0.327430,0.627875,-0.207708,0.704816,-0.071157,0.744911,0.000000,0.744911,0.000000,0.750000,0.500000,0.750000,0.500000,-0.750000,0.500000,-0.750000,
$1*%
%AMFreePoly1*
4,1,19,0.000000,0.744911,0.071157,0.744911,0.207708,0.704816,0.327430,0.627875,0.420627,0.520320,0.479746,0.390866,0.500000,0.250000,0.500000,-0.250000,0.479746,-0.390866,0.420627,-0.520320,0.327430,-0.627875,0.207708,-0.704816,0.071157,-0.744911,0.000000,-0.744911,0.000000,-0.750000,-0.500000,-0.750000,-0.500000,0.750000,0.000000,0.750000,0.000000,0.744911,0.000000,0.744911,
$1*%
G04 Aperture macros list end*
%ADD10C,0.400000*%
%ADD11RoundRect,0.140000X-0.140000X-0.170000X0.140000X-0.170000X0.140000X0.170000X-0.140000X0.170000X0*%
%ADD12RoundRect,0.140000X0.140000X0.170000X-0.140000X0.170000X-0.140000X-0.170000X0.140000X-0.170000X0*%
%ADD13RoundRect,0.135000X0.135000X0.185000X-0.135000X0.185000X-0.135000X-0.185000X0.135000X-0.185000X0*%
%ADD14RoundRect,0.218750X0.218750X0.256250X-0.218750X0.256250X-0.218750X-0.256250X0.218750X-0.256250X0*%
%ADD15RoundRect,0.135000X-0.135000X-0.185000X0.135000X-0.185000X0.135000X0.185000X-0.135000X0.185000X0*%
%ADD16R,1.300000X1.100000*%
%ADD17R,1.250000X1.000000*%
%ADD18RoundRect,0.200000X-0.200000X-0.275000X0.200000X-0.275000X0.200000X0.275000X-0.200000X0.275000X0*%
%ADD19RoundRect,0.140000X0.170000X-0.140000X0.170000X0.140000X-0.170000X0.140000X-0.170000X-0.140000X0*%
%ADD20RoundRect,0.140000X-0.170000X0.140000X-0.170000X-0.140000X0.170000X-0.140000X0.170000X0.140000X0*%
%ADD21R,1.900000X1.100000*%
%ADD22C,0.800000*%
%ADD23C,6.400000*%
%ADD24RoundRect,0.135000X-0.185000X0.135000X-0.185000X-0.135000X0.185000X-0.135000X0.185000X0.135000X0*%
%ADD25RoundRect,0.150000X0.512500X0.150000X-0.512500X0.150000X-0.512500X-0.150000X0.512500X-0.150000X0*%
%ADD26RoundRect,0.237500X-0.287500X-0.237500X0.287500X-0.237500X0.287500X0.237500X-0.287500X0.237500X0*%
%ADD27RoundRect,0.250000X1.500000X-0.250000X1.500000X0.250000X-1.500000X0.250000X-1.500000X-0.250000X0*%
%ADD28RoundRect,0.250001X1.449999X-0.499999X1.449999X0.499999X-1.449999X0.499999X-1.449999X-0.499999X0*%
%ADD29R,1.000000X0.375000*%
%ADD30R,1.200000X0.300000*%
%ADD31RoundRect,0.218750X-0.218750X-0.256250X0.218750X-0.256250X0.218750X0.256250X-0.218750X0.256250X0*%
%ADD32RoundRect,0.062500X-0.350000X-0.062500X0.350000X-0.062500X0.350000X0.062500X-0.350000X0.062500X0*%
%ADD33RoundRect,0.062500X-0.062500X-0.350000X0.062500X-0.350000X0.062500X0.350000X-0.062500X0.350000X0*%
%ADD34R,1.680000X1.680000*%
%ADD35RoundRect,0.250000X-0.475000X0.250000X-0.475000X-0.250000X0.475000X-0.250000X0.475000X0.250000X0*%
%ADD36RoundRect,0.250000X0.650000X-0.325000X0.650000X0.325000X-0.650000X0.325000X-0.650000X-0.325000X0*%
%ADD37RoundRect,0.237500X-0.237500X0.287500X-0.237500X-0.287500X0.237500X-0.287500X0.237500X0.287500X0*%
%ADD38RoundRect,0.135000X0.185000X-0.135000X0.185000X0.135000X-0.185000X0.135000X-0.185000X-0.135000X0*%
%ADD39RoundRect,0.275000X0.275000X-0.375000X0.275000X0.375000X-0.275000X0.375000X-0.275000X-0.375000X0*%
%ADD40RoundRect,0.275000X-0.275000X0.375000X-0.275000X-0.375000X0.275000X-0.375000X0.275000X0.375000X0*%
%ADD41RoundRect,0.075000X0.075000X-0.700000X0.075000X0.700000X-0.075000X0.700000X-0.075000X-0.700000X0*%
%ADD42RoundRect,0.075000X0.700000X-0.075000X0.700000X0.075000X-0.700000X0.075000X-0.700000X-0.075000X0*%
%ADD43RoundRect,0.075000X0.075000X-0.325000X0.075000X0.325000X-0.075000X0.325000X-0.075000X-0.325000X0*%
%ADD44RoundRect,0.075000X-0.075000X0.325000X-0.075000X-0.325000X0.075000X-0.325000X0.075000X0.325000X0*%
%ADD45RoundRect,0.075000X0.325000X0.075000X-0.325000X0.075000X-0.325000X-0.075000X0.325000X-0.075000X0*%
%ADD46RoundRect,0.075000X-0.325000X-0.075000X0.325000X-0.075000X0.325000X0.075000X-0.325000X0.075000X0*%
%ADD47RoundRect,0.111600X-0.788400X0.788400X-0.788400X-0.788400X0.788400X-0.788400X0.788400X0.788400X0*%
%ADD48RoundRect,0.111600X-0.788400X-0.788400X0.788400X-0.788400X0.788400X0.788400X-0.788400X0.788400X0*%
%ADD49RoundRect,0.111600X0.788400X0.788400X-0.788400X0.788400X-0.788400X-0.788400X0.788400X-0.788400X0*%
%ADD50RoundRect,0.111600X0.788400X-0.788400X0.788400X0.788400X-0.788400X0.788400X-0.788400X-0.788400X0*%
%ADD51C,0.650000*%
%ADD52O,0.650000X0.900000*%
%ADD53R,1.500000X0.520000*%
%ADD54R,1.500000X0.280000*%
%ADD55R,1.500000X0.523000*%
%ADD56O,1.950000X0.950000*%
%ADD57R,1.700000X1.700000*%
%ADD58O,1.700000X1.700000*%
%ADD59RoundRect,0.218750X-0.256250X0.218750X-0.256250X-0.218750X0.256250X-0.218750X0.256250X0.218750X0*%
%ADD60RoundRect,0.525000X-0.975000X0.525000X-0.975000X-0.525000X0.975000X-0.525000X0.975000X0.525000X0*%
%ADD61RoundRect,0.200000X-0.600000X0.200000X-0.600000X-0.200000X0.600000X-0.200000X0.600000X0.200000X0*%
%ADD62RoundRect,0.200000X0.600000X-0.200000X0.600000X0.200000X-0.600000X0.200000X-0.600000X-0.200000X0*%
%ADD63RoundRect,0.147500X0.172500X-0.147500X0.172500X0.147500X-0.172500X0.147500X-0.172500X-0.147500X0*%
%ADD64R,0.350000X0.500000*%
%ADD65RoundRect,0.250000X0.287500X0.275000X-0.287500X0.275000X-0.287500X-0.275000X0.287500X-0.275000X0*%
%ADD66R,1.000000X1.000000*%
%ADD67O,1.000000X1.000000*%
%ADD68RoundRect,0.150000X-0.150000X-0.200000X0.150000X-0.200000X0.150000X0.200000X-0.150000X0.200000X0*%
%ADD69RoundRect,0.200000X0.200000X0.275000X-0.200000X0.275000X-0.200000X-0.275000X0.200000X-0.275000X0*%
%ADD70C,0.900000*%
%ADD71C,0.700000*%
%ADD72RoundRect,0.000001X-0.750000X0.900000X-0.750000X-0.900000X0.750000X-0.900000X0.750000X0.900000X0*%
%ADD73RoundRect,0.000001X-0.900000X0.750000X-0.900000X-0.750000X0.900000X-0.750000X0.900000X0.750000X0*%
%ADD74RoundRect,0.150000X-0.100000X0.350000X-0.100000X-0.350000X0.100000X-0.350000X0.100000X0.350000X0*%
%ADD75R,1.000000X0.600000*%
%ADD76RoundRect,0.250000X-0.287500X-0.275000X0.287500X-0.275000X0.287500X0.275000X-0.287500X0.275000X0*%
%ADD77RoundRect,0.147500X-0.172500X0.147500X-0.172500X-0.147500X0.172500X-0.147500X0.172500X0.147500X0*%
%ADD78RoundRect,0.155000X0.155000X-0.212500X0.155000X0.212500X-0.155000X0.212500X-0.155000X-0.212500X0*%
%ADD79RoundRect,0.147500X0.147500X0.172500X-0.147500X0.172500X-0.147500X-0.172500X0.147500X-0.172500X0*%
%ADD80RoundRect,0.147500X-0.147500X-0.172500X0.147500X-0.172500X0.147500X0.172500X-0.147500X0.172500X0*%
%ADD81RoundRect,0.062500X0.350000X0.062500X-0.350000X0.062500X-0.350000X-0.062500X0.350000X-0.062500X0*%
%ADD82RoundRect,0.062500X0.062500X0.350000X-0.062500X0.350000X-0.062500X-0.350000X0.062500X-0.350000X0*%
%ADD83RoundRect,0.150000X-0.512500X-0.150000X0.512500X-0.150000X0.512500X0.150000X-0.512500X0.150000X0*%
%ADD84RoundRect,0.525000X0.975000X-0.525000X0.975000X0.525000X-0.975000X0.525000X-0.975000X-0.525000X0*%
%ADD85FreePoly0,180.000000*%
%ADD86FreePoly1,180.000000*%
%ADD87RoundRect,0.300000X0.500000X-0.300000X0.500000X0.300000X-0.500000X0.300000X-0.500000X-0.300000X0*%
%ADD88RoundRect,0.525000X-0.525000X-0.975000X0.525000X-0.975000X0.525000X0.975000X-0.525000X0.975000X0*%
%ADD89RoundRect,0.200000X-0.200000X-0.600000X0.200000X-0.600000X0.200000X0.600000X-0.200000X0.600000X0*%
%ADD90RoundRect,0.200000X0.200000X0.600000X-0.200000X0.600000X-0.200000X-0.600000X0.200000X-0.600000X0*%
%ADD91RoundRect,0.150000X0.825000X0.150000X-0.825000X0.150000X-0.825000X-0.150000X0.825000X-0.150000X0*%
%ADD92C,1.000000*%
%ADD93RoundRect,0.087500X0.712500X-0.087500X0.712500X0.087500X-0.712500X0.087500X-0.712500X-0.087500X0*%
%ADD94RoundRect,0.062500X0.062500X-0.350000X0.062500X0.350000X-0.062500X0.350000X-0.062500X-0.350000X0*%
%ADD95RoundRect,0.062500X0.350000X-0.062500X0.350000X0.062500X-0.350000X0.062500X-0.350000X-0.062500X0*%
%ADD96R,0.350000X0.375000*%
%ADD97R,0.375000X0.350000*%
%ADD98R,1.250000X0.800000*%
%ADD99R,1.250000X1.160000*%
%ADD100R,2.500000X0.950000*%
%ADD101R,2.200000X1.150000*%
%ADD102R,1.150000X1.500000*%
%ADD103C,2.374900*%
%ADD104C,0.990600*%
%TA.AperFunction,Profile*%
%ADD105C,0.050000*%
%TD*%
G04 APERTURE END LIST*
D10*
X148300000Y-72200000D02*
X148300000Y-70300000D01*
X139200000Y-70700000D02*
X143500000Y-70700000D01*
X120800000Y-46500000D02*
X136800000Y-46500000D01*
X146200000Y-47200000D02*
X146200000Y-47200000D01*
X139200000Y-47200000D02*
X154400000Y-47200000D01*
X141600000Y-65800000D02*
X139200000Y-65800000D01*
X143500000Y-72200000D02*
X148300000Y-72200000D01*
X120800000Y-34200000D02*
X139200000Y-34200000D01*
X118800000Y-57600000D02*
X133800000Y-57600000D01*
X139200000Y-52200000D02*
X139200000Y-39200000D01*
X154400000Y-47200000D02*
X154400000Y-43250000D01*
X139200000Y-65800000D02*
X139200000Y-70700000D01*
X143500000Y-69600000D02*
X143500000Y-72200000D01*
D11*
%TO.C,C502*%
X120620000Y-44400000D03*
X121580000Y-44400000D03*
%TD*%
D12*
%TO.C,C501*%
X121580000Y-37200000D03*
X120620000Y-37200000D03*
%TD*%
D11*
%TO.C,C903*%
X169820000Y-65800000D03*
X170780000Y-65800000D03*
%TD*%
D12*
%TO.C,C904*%
X166180000Y-59000000D03*
X165220000Y-59000000D03*
%TD*%
D13*
%TO.C,R905*%
X167317800Y-84600000D03*
X166297800Y-84600000D03*
%TD*%
D14*
%TO.C,D901*%
X167195300Y-86600000D03*
X165620300Y-86600000D03*
%TD*%
%TO.C,D902*%
X167195300Y-88400000D03*
X165620300Y-88400000D03*
%TD*%
D15*
%TO.C,R908*%
X163897800Y-84600000D03*
X164917800Y-84600000D03*
%TD*%
D16*
%TO.C,Y101*%
X144862400Y-69950000D03*
X147162400Y-69950000D03*
X147162400Y-68050000D03*
X144862400Y-68050000D03*
%TD*%
D17*
%TO.C,SW101*%
X122950000Y-61400000D03*
X115200000Y-61400000D03*
%TD*%
D18*
%TO.C,R209*%
X163375000Y-51800000D03*
X165025000Y-51800000D03*
%TD*%
D19*
%TO.C,CB401*%
X149900000Y-46330000D03*
X149900000Y-45370000D03*
%TD*%
D20*
%TO.C,C101*%
X155300000Y-56020000D03*
X155300000Y-56980000D03*
%TD*%
%TO.C,C103*%
X139200000Y-63320000D03*
X139200000Y-64280000D03*
%TD*%
D12*
%TO.C,C104*%
X147480000Y-66600000D03*
X146520000Y-66600000D03*
%TD*%
D19*
%TO.C,C105*%
X140012400Y-69930000D03*
X140012400Y-68970000D03*
%TD*%
D20*
%TO.C,C106*%
X140012400Y-66570000D03*
X140012400Y-67530000D03*
%TD*%
D11*
%TO.C,C403*%
X147320000Y-43200000D03*
X148280000Y-43200000D03*
%TD*%
D19*
%TO.C,CB102*%
X125900000Y-65380000D03*
X125900000Y-64420000D03*
%TD*%
D20*
%TO.C,CB101*%
X155300000Y-54020000D03*
X155300000Y-54980000D03*
%TD*%
D19*
%TO.C,CB103*%
X139212400Y-62130000D03*
X139212400Y-61170000D03*
%TD*%
D20*
%TO.C,CB104*%
X154800000Y-60570000D03*
X154800000Y-61530000D03*
%TD*%
D11*
%TO.C,CB105*%
X143220000Y-50700000D03*
X144180000Y-50700000D03*
%TD*%
D20*
%TO.C,CB106*%
X140600000Y-63320000D03*
X140600000Y-64280000D03*
%TD*%
%TO.C,CB107*%
X130300000Y-64420000D03*
X130300000Y-65380000D03*
%TD*%
D18*
%TO.C,R208*%
X167175000Y-43900000D03*
X168825000Y-43900000D03*
%TD*%
D21*
%TO.C,Y102*%
X142012400Y-69500000D03*
X142012400Y-67000000D03*
%TD*%
D22*
%TO.C,H201*%
X165600000Y-38050000D03*
X166302944Y-36352944D03*
X166302944Y-39747056D03*
X168000000Y-35650000D03*
D23*
X168000000Y-38050000D03*
D22*
X168000000Y-40450000D03*
X169697056Y-36352944D03*
X169697056Y-39747056D03*
X170400000Y-38050000D03*
%TD*%
D13*
%TO.C,R106*%
X145510000Y-66600000D03*
X144490000Y-66600000D03*
%TD*%
D24*
%TO.C,R101*%
X139212400Y-58990000D03*
X139212400Y-60010000D03*
%TD*%
D22*
%TO.C,H202*%
X117600000Y-86050000D03*
X118302944Y-84352944D03*
X118302944Y-87747056D03*
X120000000Y-83650000D03*
D23*
X120000000Y-86050000D03*
D22*
X120000000Y-88450000D03*
X121697056Y-84352944D03*
X121697056Y-87747056D03*
X122400000Y-86050000D03*
%TD*%
D17*
%TO.C,SW102*%
X125400000Y-61400000D03*
X133150000Y-61400000D03*
%TD*%
D25*
%TO.C,U903*%
X162737500Y-42750000D03*
X162737500Y-41800000D03*
X162737500Y-40850000D03*
X160462500Y-40850000D03*
X160462500Y-42750000D03*
%TD*%
D26*
%TO.C,F901*%
X169325000Y-59900000D03*
X171075000Y-59900000D03*
%TD*%
D27*
%TO.C,J201*%
X165750000Y-72800000D03*
X165750000Y-70800000D03*
D28*
X171500000Y-75150000D03*
X171500000Y-68450000D03*
%TD*%
D19*
%TO.C,C910*%
X158862500Y-42880000D03*
X158862500Y-41920000D03*
%TD*%
D29*
%TO.C,U201*%
X163325000Y-49162500D03*
D30*
X163250000Y-49700000D03*
D29*
X163325000Y-50237500D03*
X165025000Y-50237500D03*
D30*
X165100000Y-49700000D03*
D29*
X165025000Y-49162500D03*
%TD*%
D31*
%TO.C,D103*%
X157412500Y-54600000D03*
X158987500Y-54600000D03*
%TD*%
D15*
%TO.C,R105*%
X160690000Y-54600000D03*
X161710000Y-54600000D03*
%TD*%
D11*
%TO.C,C102*%
X144532400Y-71400000D03*
X145492400Y-71400000D03*
%TD*%
D32*
%TO.C,U801*%
X127237500Y-51850000D03*
X127237500Y-52350000D03*
X127237500Y-52850000D03*
X127237500Y-53350000D03*
D33*
X127950000Y-54062500D03*
X128450000Y-54062500D03*
X128950000Y-54062500D03*
X129450000Y-54062500D03*
D32*
X130162500Y-53350000D03*
X130162500Y-52850000D03*
X130162500Y-52350000D03*
X130162500Y-51850000D03*
D33*
X129450000Y-51137500D03*
X128950000Y-51137500D03*
X128450000Y-51137500D03*
X127950000Y-51137500D03*
D34*
X128700000Y-52600000D03*
%TD*%
D32*
%TO.C,U701*%
X127237500Y-40050000D03*
X127237500Y-40550000D03*
X127237500Y-41050000D03*
X127237500Y-41550000D03*
D33*
X127950000Y-42262500D03*
X128450000Y-42262500D03*
X128950000Y-42262500D03*
X129450000Y-42262500D03*
D32*
X130162500Y-41550000D03*
X130162500Y-41050000D03*
X130162500Y-40550000D03*
X130162500Y-40050000D03*
D33*
X129450000Y-39337500D03*
X128950000Y-39337500D03*
X128450000Y-39337500D03*
X127950000Y-39337500D03*
D34*
X128700000Y-40800000D03*
%TD*%
D12*
%TO.C,C401*%
X142480000Y-36000000D03*
X141520000Y-36000000D03*
%TD*%
%TO.C,C402*%
X142480000Y-39000000D03*
X141520000Y-39000000D03*
%TD*%
%TO.C,C405*%
X142480000Y-35000000D03*
X141520000Y-35000000D03*
%TD*%
%TO.C,C406*%
X142480000Y-40000000D03*
X141520000Y-40000000D03*
%TD*%
D11*
%TO.C,C407*%
X147320000Y-42200000D03*
X148280000Y-42200000D03*
%TD*%
D12*
%TO.C,C409*%
X144880000Y-43200000D03*
X143920000Y-43200000D03*
%TD*%
%TO.C,C410*%
X144880000Y-42200000D03*
X143920000Y-42200000D03*
%TD*%
D20*
%TO.C,C411*%
X152540000Y-41010000D03*
X152540000Y-41970000D03*
%TD*%
%TO.C,C412*%
X154000000Y-41010000D03*
X154000000Y-41970000D03*
%TD*%
%TO.C,C413*%
X147350000Y-45370000D03*
X147350000Y-46330000D03*
%TD*%
D11*
%TO.C,C414*%
X147320000Y-44300000D03*
X148280000Y-44300000D03*
%TD*%
D12*
%TO.C,C701*%
X123580000Y-44400000D03*
X122620000Y-44400000D03*
%TD*%
%TO.C,C702*%
X123580000Y-37200000D03*
X122620000Y-37200000D03*
%TD*%
D35*
%TO.C,C703*%
X123100000Y-39850000D03*
X123100000Y-41750000D03*
%TD*%
D19*
%TO.C,C706*%
X125900000Y-42280000D03*
X125900000Y-41320000D03*
%TD*%
D20*
%TO.C,C707*%
X125900000Y-39320000D03*
X125900000Y-40280000D03*
%TD*%
D11*
%TO.C,C708*%
X127020000Y-43500000D03*
X127980000Y-43500000D03*
%TD*%
D19*
%TO.C,C709*%
X136300000Y-42280000D03*
X136300000Y-41320000D03*
%TD*%
D36*
%TO.C,C710*%
X134500000Y-42275000D03*
X134500000Y-39325000D03*
%TD*%
D19*
%TO.C,C711*%
X136300000Y-40280000D03*
X136300000Y-39320000D03*
%TD*%
D12*
%TO.C,C801*%
X123580000Y-56200000D03*
X122620000Y-56200000D03*
%TD*%
%TO.C,C802*%
X123580000Y-49000000D03*
X122620000Y-49000000D03*
%TD*%
D35*
%TO.C,C803*%
X123100000Y-51650000D03*
X123100000Y-53550000D03*
%TD*%
D19*
%TO.C,C806*%
X125900000Y-54080000D03*
X125900000Y-53120000D03*
%TD*%
D20*
%TO.C,C807*%
X125900000Y-51120000D03*
X125900000Y-52080000D03*
%TD*%
D11*
%TO.C,C808*%
X127020000Y-55300000D03*
X127980000Y-55300000D03*
%TD*%
D19*
%TO.C,C809*%
X136300000Y-54080000D03*
X136300000Y-53120000D03*
%TD*%
D36*
%TO.C,C810*%
X134500000Y-54075000D03*
X134500000Y-51125000D03*
%TD*%
D19*
%TO.C,C811*%
X136300000Y-52080000D03*
X136300000Y-51120000D03*
%TD*%
D37*
%TO.C,D101*%
X131600000Y-83525000D03*
X131600000Y-85275000D03*
%TD*%
%TO.C,D102*%
X129200000Y-83525000D03*
X129200000Y-85275000D03*
%TD*%
D31*
%TO.C,D104*%
X157412500Y-56400000D03*
X158987500Y-56400000D03*
%TD*%
D38*
%TO.C,R102*%
X131600000Y-88225000D03*
X131600000Y-87205000D03*
%TD*%
%TO.C,R103*%
X129200000Y-88225000D03*
X129200000Y-87205000D03*
%TD*%
D15*
%TO.C,R107*%
X160690000Y-56400000D03*
X161710000Y-56400000D03*
%TD*%
D24*
%TO.C,R404*%
X149900000Y-43390000D03*
X149900000Y-44410000D03*
%TD*%
D15*
%TO.C,R407*%
X155490000Y-36050000D03*
X156510000Y-36050000D03*
%TD*%
%TO.C,R408*%
X155490000Y-35050000D03*
X156510000Y-35050000D03*
%TD*%
D38*
%TO.C,R414*%
X148400000Y-46360000D03*
X148400000Y-45340000D03*
%TD*%
D13*
%TO.C,R701*%
X123610000Y-43200000D03*
X122590000Y-43200000D03*
%TD*%
%TO.C,R702*%
X123610000Y-38400000D03*
X122590000Y-38400000D03*
%TD*%
D24*
%TO.C,R703*%
X124700000Y-42290000D03*
X124700000Y-43310000D03*
%TD*%
D38*
%TO.C,R704*%
X124700000Y-39310000D03*
X124700000Y-38290000D03*
%TD*%
D13*
%TO.C,R705*%
X125610000Y-44400000D03*
X124590000Y-44400000D03*
%TD*%
%TO.C,R706*%
X125610000Y-37200000D03*
X124590000Y-37200000D03*
%TD*%
D24*
%TO.C,R709*%
X132700000Y-41290000D03*
X132700000Y-42310000D03*
%TD*%
D38*
%TO.C,R710*%
X132700000Y-40310000D03*
X132700000Y-39290000D03*
%TD*%
D13*
%TO.C,R801*%
X123610000Y-55000000D03*
X122590000Y-55000000D03*
%TD*%
%TO.C,R802*%
X123610000Y-50200000D03*
X122590000Y-50200000D03*
%TD*%
D24*
%TO.C,R803*%
X124700000Y-54090000D03*
X124700000Y-55110000D03*
%TD*%
D38*
%TO.C,R804*%
X124700000Y-51110000D03*
X124700000Y-50090000D03*
%TD*%
D13*
%TO.C,R805*%
X125610000Y-56200000D03*
X124590000Y-56200000D03*
%TD*%
%TO.C,R806*%
X125610000Y-49000000D03*
X124590000Y-49000000D03*
%TD*%
D24*
%TO.C,R809*%
X132700000Y-53090000D03*
X132700000Y-54110000D03*
%TD*%
D38*
%TO.C,R810*%
X132700000Y-52110000D03*
X132700000Y-51090000D03*
%TD*%
D39*
%TO.C,X401*%
X153200000Y-46000000D03*
X153200000Y-43700000D03*
D40*
X151300000Y-43700000D03*
X151300000Y-46000000D03*
%TD*%
D20*
%TO.C,C408*%
X152550000Y-39020000D03*
X152550000Y-39980000D03*
%TD*%
D41*
%TO.C,U101*%
X143450000Y-63717200D03*
X143950000Y-63717200D03*
X144450000Y-63717200D03*
X144950000Y-63717200D03*
X145450000Y-63717200D03*
X145950000Y-63717200D03*
X146450000Y-63717200D03*
X146950000Y-63717200D03*
X147450000Y-63717200D03*
X147950000Y-63717200D03*
X148450000Y-63717200D03*
X148950000Y-63717200D03*
X149450000Y-63717200D03*
X149950000Y-63717200D03*
X150450000Y-63717200D03*
X150950000Y-63717200D03*
D42*
X152875000Y-61792200D03*
X152875000Y-61292200D03*
X152875000Y-60792200D03*
X152875000Y-60292200D03*
X152875000Y-59792200D03*
X152875000Y-59292200D03*
X152875000Y-58792200D03*
X152875000Y-58292200D03*
X152875000Y-57792200D03*
X152875000Y-57292200D03*
X152875000Y-56792200D03*
X152875000Y-56292200D03*
X152875000Y-55792200D03*
X152875000Y-55292200D03*
X152875000Y-54792200D03*
X152875000Y-54292200D03*
D41*
X150950000Y-52367200D03*
X150450000Y-52367200D03*
X149950000Y-52367200D03*
X149450000Y-52367200D03*
X148950000Y-52367200D03*
X148450000Y-52367200D03*
X147950000Y-52367200D03*
X147450000Y-52367200D03*
X146950000Y-52367200D03*
X146450000Y-52367200D03*
X145950000Y-52367200D03*
X145450000Y-52367200D03*
X144950000Y-52367200D03*
X144450000Y-52367200D03*
X143950000Y-52367200D03*
X143450000Y-52367200D03*
D42*
X141525000Y-54292200D03*
X141525000Y-54792200D03*
X141525000Y-55292200D03*
X141525000Y-55792200D03*
X141525000Y-56292200D03*
X141525000Y-56792200D03*
X141525000Y-57292200D03*
X141525000Y-57792200D03*
X141525000Y-58292200D03*
X141525000Y-58792200D03*
X141525000Y-59292200D03*
X141525000Y-59792200D03*
X141525000Y-60292200D03*
X141525000Y-60792200D03*
X141525000Y-61292200D03*
X141525000Y-61792200D03*
%TD*%
D15*
%TO.C,R205*%
X133490000Y-70400000D03*
X134510000Y-70400000D03*
%TD*%
D43*
%TO.C,U401*%
X145215000Y-40500000D03*
X145715000Y-40500000D03*
X146215000Y-40500000D03*
X146715000Y-40500000D03*
X147215000Y-40500000D03*
D44*
X147715000Y-40500000D03*
X148215000Y-40500000D03*
X148715000Y-40500000D03*
X149215000Y-40500000D03*
X149715000Y-40500000D03*
D45*
X150465000Y-39750000D03*
X150465000Y-39250000D03*
X150465000Y-38750000D03*
X150465000Y-38250000D03*
X150465000Y-37750000D03*
D46*
X150465000Y-37250000D03*
X150465000Y-36750000D03*
X150465000Y-36250000D03*
X150465000Y-35750000D03*
X150465000Y-35250000D03*
D44*
X149715000Y-34500000D03*
X149215000Y-34500000D03*
X148715000Y-34500000D03*
X148215000Y-34500000D03*
X147715000Y-34500000D03*
D43*
X147215000Y-34500000D03*
X146715000Y-34500000D03*
X146215000Y-34500000D03*
X145715000Y-34500000D03*
X145215000Y-34500000D03*
D46*
X144465000Y-35250000D03*
X144465000Y-35750000D03*
X144465000Y-36250000D03*
X144465000Y-36750000D03*
X144465000Y-37250000D03*
D45*
X144465000Y-37750000D03*
X144465000Y-38250000D03*
X144465000Y-38750000D03*
X144465000Y-39250000D03*
X144465000Y-39750000D03*
D47*
X146465000Y-38500000D03*
D48*
X148465000Y-38500000D03*
D49*
X146465000Y-36500000D03*
D50*
X148465000Y-36500000D03*
%TD*%
D51*
%TO.C,J206*%
X169000000Y-52950000D03*
D52*
X169000000Y-46950000D03*
D53*
X167650000Y-53050000D03*
X167650000Y-52300000D03*
D54*
X167650000Y-51700000D03*
X167650000Y-50200000D03*
X167650000Y-49200000D03*
X167650000Y-48200000D03*
D53*
X167650000Y-47600000D03*
D55*
X167650000Y-46850000D03*
D53*
X167650000Y-46850000D03*
X167650000Y-47600000D03*
D54*
X167650000Y-48700000D03*
X167650000Y-49700000D03*
X167650000Y-50700000D03*
X167650000Y-51200000D03*
D53*
X167650000Y-52300000D03*
X167650000Y-53050000D03*
D56*
X168275000Y-54270000D03*
X172100000Y-54270000D03*
X168275000Y-45630000D03*
X172100000Y-45630000D03*
%TD*%
D57*
%TO.C,J303*%
X27000000Y-56425000D03*
D58*
X27000000Y-58965000D03*
X27000000Y-61505000D03*
X27000000Y-64045000D03*
X27000000Y-66585000D03*
%TD*%
D22*
%TO.C,H301*%
X80400000Y-38000000D03*
X79697056Y-39697056D03*
X79697056Y-36302944D03*
X78000000Y-40400000D03*
D23*
X78000000Y-38000000D03*
D22*
X78000000Y-35600000D03*
X76302944Y-39697056D03*
X76302944Y-36302944D03*
X75600000Y-38000000D03*
%TD*%
%TO.C,H303*%
X80400000Y-86000000D03*
X79697056Y-87697056D03*
X79697056Y-84302944D03*
X78000000Y-88400000D03*
D23*
X78000000Y-86000000D03*
D22*
X78000000Y-83600000D03*
X76302944Y-87697056D03*
X76302944Y-84302944D03*
X75600000Y-86000000D03*
%TD*%
%TO.C,H304*%
X32400000Y-86000000D03*
X31697056Y-87697056D03*
X31697056Y-84302944D03*
X30000000Y-88400000D03*
D23*
X30000000Y-86000000D03*
D22*
X30000000Y-83600000D03*
X28302944Y-87697056D03*
X28302944Y-84302944D03*
X27600000Y-86000000D03*
%TD*%
%TO.C,H302*%
X32400000Y-38000000D03*
X31697056Y-39697056D03*
X31697056Y-36302944D03*
X30000000Y-40400000D03*
D23*
X30000000Y-38000000D03*
D22*
X30000000Y-35600000D03*
X28302944Y-39697056D03*
X28302944Y-36302944D03*
X27600000Y-38000000D03*
%TD*%
D59*
%TO.C,D304*%
X82400000Y-71625000D03*
X82400000Y-73200000D03*
%TD*%
D12*
%TO.C,C305*%
X54000000Y-52950000D03*
X53040000Y-52950000D03*
%TD*%
D13*
%TO.C,R305*%
X80710000Y-71600000D03*
X79690000Y-71600000D03*
%TD*%
D11*
%TO.C,C303*%
X56370000Y-52950000D03*
X57330000Y-52950000D03*
%TD*%
D59*
%TO.C,D305*%
X78000000Y-71612500D03*
X78000000Y-73187500D03*
%TD*%
D20*
%TO.C,C304*%
X62900000Y-64145000D03*
X62900000Y-65105000D03*
%TD*%
D15*
%TO.C,R304*%
X79690000Y-73200000D03*
X80710000Y-73200000D03*
%TD*%
D60*
%TO.C,J601*%
X116450000Y-47975000D03*
X116400000Y-56825000D03*
D61*
X119400000Y-54275000D03*
D62*
X119400000Y-53025000D03*
X119400000Y-51775000D03*
X119400000Y-50525000D03*
%TD*%
D20*
%TO.C,C804*%
X124700000Y-52120000D03*
X124700000Y-53080000D03*
%TD*%
%TO.C,CB1403*%
X228050000Y-40270000D03*
X228050000Y-41230000D03*
%TD*%
D13*
%TO.C,R1402*%
X136810000Y-67000000D03*
X135790000Y-67000000D03*
%TD*%
%TO.C,R1628*%
X237390000Y-67600000D03*
X236370000Y-67600000D03*
%TD*%
D24*
%TO.C,R1607*%
X216700000Y-62690000D03*
X216700000Y-63710000D03*
%TD*%
D15*
%TO.C,R1605*%
X223590000Y-61400000D03*
X224610000Y-61400000D03*
%TD*%
D24*
%TO.C,R1514*%
X242400000Y-65990000D03*
X242400000Y-67010000D03*
%TD*%
D13*
%TO.C,R409*%
X153510000Y-37050000D03*
X152490000Y-37050000D03*
%TD*%
D19*
%TO.C,CB1404*%
X248900000Y-47080000D03*
X248900000Y-46120000D03*
%TD*%
D18*
%TO.C,R206*%
X127275000Y-64900000D03*
X128925000Y-64900000D03*
%TD*%
D13*
%TO.C,R303*%
X80710000Y-76400000D03*
X79690000Y-76400000D03*
%TD*%
D63*
%TO.C,FB102*%
X154000000Y-78885000D03*
X154000000Y-77915000D03*
%TD*%
D19*
%TO.C,C1505*%
X249900000Y-47080000D03*
X249900000Y-46120000D03*
%TD*%
D12*
%TO.C,CB903*%
X164880000Y-83400000D03*
X163920000Y-83400000D03*
%TD*%
D15*
%TO.C,R201*%
X133490000Y-75200000D03*
X134510000Y-75200000D03*
%TD*%
D11*
%TO.C,CB1607*%
X230620000Y-64800000D03*
X231580000Y-64800000D03*
%TD*%
D20*
%TO.C,C306*%
X156400000Y-77940000D03*
X156400000Y-78900000D03*
%TD*%
D11*
%TO.C,CB907*%
X159920000Y-66700000D03*
X160880000Y-66700000D03*
%TD*%
D64*
%TO.C,U1401*%
X135825000Y-70575000D03*
X136475000Y-70575000D03*
X137125000Y-70575000D03*
X137775000Y-70575000D03*
X137775000Y-72625000D03*
X137125000Y-72625000D03*
X136475000Y-72625000D03*
X135825000Y-72625000D03*
%TD*%
D65*
%TO.C,C1608*%
X242412500Y-68400000D03*
X240987500Y-68400000D03*
%TD*%
D38*
%TO.C,R207*%
X139200000Y-57510000D03*
X139200000Y-56490000D03*
%TD*%
D15*
%TO.C,R204*%
X133490000Y-71600000D03*
X134510000Y-71600000D03*
%TD*%
D12*
%TO.C,C1606*%
X226680000Y-61400000D03*
X225720000Y-61400000D03*
%TD*%
D11*
%TO.C,CB1408*%
X236920000Y-43600000D03*
X237880000Y-43600000D03*
%TD*%
D20*
%TO.C,CB1401*%
X229000000Y-49570000D03*
X229000000Y-50530000D03*
%TD*%
D15*
%TO.C,R1618*%
X244390000Y-67000000D03*
X245410000Y-67000000D03*
%TD*%
D24*
%TO.C,C1602*%
X224100000Y-63690000D03*
X224100000Y-64710000D03*
%TD*%
D12*
%TO.C,CB904*%
X164880000Y-82200000D03*
X163920000Y-82200000D03*
%TD*%
D66*
%TO.C,J203*%
X134000000Y-77200000D03*
D67*
X134000000Y-78470000D03*
X134000000Y-79740000D03*
X134000000Y-81010000D03*
%TD*%
D19*
%TO.C,C909*%
X156600000Y-70480000D03*
X156600000Y-69520000D03*
%TD*%
D11*
%TO.C,C404*%
X141970000Y-45200000D03*
X142930000Y-45200000D03*
%TD*%
D38*
%TO.C,R402*%
X140000000Y-44110000D03*
X140000000Y-43090000D03*
%TD*%
D68*
%TO.C,D301*%
X54000000Y-51450000D03*
X52600000Y-51450000D03*
%TD*%
D19*
%TO.C,C202*%
X115400000Y-65280000D03*
X115400000Y-64320000D03*
%TD*%
%TO.C,C1503*%
X247950000Y-42430000D03*
X247950000Y-41470000D03*
%TD*%
D20*
%TO.C,CB1201*%
X162300000Y-37070000D03*
X162300000Y-38030000D03*
%TD*%
D12*
%TO.C,CB201*%
X134480000Y-68200000D03*
X133520000Y-68200000D03*
%TD*%
D69*
%TO.C,R916*%
X159525000Y-65300000D03*
X157875000Y-65300000D03*
%TD*%
D38*
%TO.C,R912*%
X172300000Y-62510000D03*
X172300000Y-61490000D03*
%TD*%
D13*
%TO.C,R906*%
X166210000Y-63100000D03*
X165190000Y-63100000D03*
%TD*%
D24*
%TO.C,R1609*%
X239200000Y-43590000D03*
X239200000Y-44610000D03*
%TD*%
D15*
%TO.C,R202*%
X133490000Y-74000000D03*
X134510000Y-74000000D03*
%TD*%
D12*
%TO.C,CB1202*%
X160680000Y-37950000D03*
X159720000Y-37950000D03*
%TD*%
D11*
%TO.C,C415*%
X143920000Y-44200000D03*
X144880000Y-44200000D03*
%TD*%
D15*
%TO.C,R1635*%
X231190000Y-60300000D03*
X232210000Y-60300000D03*
%TD*%
D19*
%TO.C,CB1406*%
X246950000Y-51730000D03*
X246950000Y-50770000D03*
%TD*%
D51*
%TO.C,MK1404*%
X238000000Y-39400000D03*
D70*
X239200000Y-42020000D03*
D71*
X239270000Y-38610000D03*
X236730000Y-38610000D03*
D70*
X236800000Y-42020000D03*
X238000000Y-42020000D03*
%TD*%
D15*
%TO.C,R921*%
X162290000Y-44200000D03*
X163310000Y-44200000D03*
%TD*%
D63*
%TO.C,FB101*%
X152800000Y-78885000D03*
X152800000Y-77915000D03*
%TD*%
D72*
%TO.C,U301*%
X57800000Y-55165000D03*
X55900000Y-55165000D03*
X54000000Y-55165000D03*
X52100000Y-55165000D03*
X50200000Y-55165000D03*
D73*
X47400000Y-57965000D03*
X47400000Y-59865000D03*
X47400000Y-61765000D03*
X47400000Y-63665000D03*
X47400000Y-65565000D03*
D72*
X50200000Y-68365000D03*
X52100000Y-68365000D03*
X54000000Y-68365000D03*
X55900000Y-68365000D03*
X57800000Y-68365000D03*
D73*
X60600000Y-65565000D03*
X60600000Y-63665000D03*
X60600000Y-61765000D03*
X60600000Y-59865000D03*
X60600000Y-57965000D03*
%TD*%
D74*
%TO.C,U402*%
X142650000Y-41500000D03*
X142000000Y-41500000D03*
X141350000Y-41500000D03*
X141350000Y-43700000D03*
X142650000Y-43700000D03*
%TD*%
D20*
%TO.C,CB1405*%
X227100000Y-44920000D03*
X227100000Y-45880000D03*
%TD*%
D75*
%TO.C,D105*%
X157200000Y-51550000D03*
X157200000Y-52850000D03*
X159200000Y-52850000D03*
X159200000Y-51550000D03*
%TD*%
D15*
%TO.C,R1622*%
X238590000Y-60800000D03*
X239610000Y-60800000D03*
%TD*%
D20*
%TO.C,C704*%
X124700000Y-40320000D03*
X124700000Y-41280000D03*
%TD*%
D11*
%TO.C,CB1409*%
X135820000Y-73975000D03*
X136780000Y-73975000D03*
%TD*%
D19*
%TO.C,CB1602*%
X218780000Y-61480000D03*
X218780000Y-60520000D03*
%TD*%
D11*
%TO.C,CB1301*%
X155920000Y-63900000D03*
X156880000Y-63900000D03*
%TD*%
D13*
%TO.C,R1612*%
X227110000Y-47200000D03*
X226090000Y-47200000D03*
%TD*%
D76*
%TO.C,C1613*%
X233587500Y-68400000D03*
X235012500Y-68400000D03*
%TD*%
D20*
%TO.C,C1006*%
X221300000Y-37920000D03*
X221300000Y-38880000D03*
%TD*%
%TO.C,C1501*%
X226100000Y-44920000D03*
X226100000Y-45880000D03*
%TD*%
D77*
%TO.C,FB201*%
X116600000Y-64315000D03*
X116600000Y-65285000D03*
%TD*%
D11*
%TO.C,CB1606*%
X238600000Y-68700000D03*
X239560000Y-68700000D03*
%TD*%
D78*
%TO.C,C1201*%
X158200000Y-36517500D03*
X158200000Y-35382500D03*
%TD*%
D20*
%TO.C,C1610*%
X243400000Y-61420000D03*
X243400000Y-62380000D03*
%TD*%
D51*
%TO.C,MK1402*%
X244600000Y-46000000D03*
D70*
X247220000Y-44800000D03*
D71*
X243810000Y-44730000D03*
X243810000Y-47270000D03*
D70*
X247220000Y-47200000D03*
X247220000Y-46000000D03*
%TD*%
D11*
%TO.C,C301*%
X78520000Y-52800000D03*
X79480000Y-52800000D03*
%TD*%
D59*
%TO.C,D904*%
X155200000Y-67812500D03*
X155200000Y-69387500D03*
%TD*%
D12*
%TO.C,CB1407*%
X239080000Y-48300000D03*
X238120000Y-48300000D03*
%TD*%
D18*
%TO.C,R913*%
X165582800Y-78600000D03*
X167232800Y-78600000D03*
%TD*%
D15*
%TO.C,R1403*%
X135790000Y-75200000D03*
X136810000Y-75200000D03*
%TD*%
%TO.C,R405*%
X149840000Y-42200000D03*
X150860000Y-42200000D03*
%TD*%
D51*
%TO.C,MK1401*%
X231400000Y-46000000D03*
D70*
X228780000Y-47200000D03*
D71*
X232190000Y-47270000D03*
X232190000Y-44730000D03*
D70*
X228780000Y-44800000D03*
X228780000Y-46000000D03*
%TD*%
D63*
%TO.C,FB501*%
X121500000Y-39285000D03*
X121500000Y-38315000D03*
%TD*%
D18*
%TO.C,R914*%
X165582800Y-80414000D03*
X167232800Y-80414000D03*
%TD*%
D12*
%TO.C,C302*%
X79480000Y-50400000D03*
X78520000Y-50400000D03*
%TD*%
D19*
%TO.C,C1604*%
X222500000Y-65680000D03*
X222500000Y-64720000D03*
%TD*%
D12*
%TO.C,C901*%
X149980000Y-69600000D03*
X149020000Y-69600000D03*
%TD*%
%TO.C,C1605*%
X221260000Y-60500000D03*
X220300000Y-60500000D03*
%TD*%
D79*
%TO.C,FB302*%
X56885000Y-70500000D03*
X55915000Y-70500000D03*
%TD*%
D13*
%TO.C,R411*%
X153510000Y-38050000D03*
X152490000Y-38050000D03*
%TD*%
D24*
%TO.C,R917*%
X172300000Y-63490000D03*
X172300000Y-64510000D03*
%TD*%
D13*
%TO.C,R1613*%
X229010000Y-51850000D03*
X227990000Y-51850000D03*
%TD*%
D22*
%TO.C,H1001*%
X253600000Y-46000000D03*
X254302944Y-44302944D03*
X254302944Y-47697056D03*
X256000000Y-43600000D03*
D23*
X256000000Y-46000000D03*
D22*
X256000000Y-48400000D03*
X257697056Y-44302944D03*
X257697056Y-47697056D03*
X258400000Y-46000000D03*
%TD*%
D80*
%TO.C,FB901*%
X149015000Y-68600000D03*
X149985000Y-68600000D03*
%TD*%
D77*
%TO.C,FB502*%
X121500000Y-42315000D03*
X121500000Y-43285000D03*
%TD*%
D15*
%TO.C,R412*%
X152490000Y-36050000D03*
X153510000Y-36050000D03*
%TD*%
D38*
%TO.C,R1610*%
X236800000Y-48310000D03*
X236800000Y-47290000D03*
%TD*%
D11*
%TO.C,C602*%
X120620000Y-56200000D03*
X121580000Y-56200000D03*
%TD*%
D51*
%TO.C,MK1403*%
X238000000Y-52600000D03*
D70*
X236800000Y-49980000D03*
D71*
X236730000Y-53390000D03*
X239270000Y-53390000D03*
D70*
X239200000Y-49980000D03*
X238000000Y-49980000D03*
%TD*%
D11*
%TO.C,CB1605*%
X238620000Y-59700000D03*
X239580000Y-59700000D03*
%TD*%
D38*
%TO.C,R401*%
X140000000Y-42110000D03*
X140000000Y-41090000D03*
%TD*%
D19*
%TO.C,C905*%
X164262500Y-42880000D03*
X164262500Y-41920000D03*
%TD*%
D20*
%TO.C,C1603*%
X222500000Y-62720000D03*
X222500000Y-63680000D03*
%TD*%
D13*
%TO.C,R1626*%
X231610000Y-65900000D03*
X230590000Y-65900000D03*
%TD*%
D38*
%TO.C,R108*%
X132700000Y-65410000D03*
X132700000Y-64390000D03*
%TD*%
D19*
%TO.C,C1507*%
X247950000Y-51730000D03*
X247950000Y-50770000D03*
%TD*%
D20*
%TO.C,C1005*%
X214800000Y-43320000D03*
X214800000Y-44280000D03*
%TD*%
D14*
%TO.C,D1001*%
X208205000Y-39120000D03*
X206630000Y-39120000D03*
%TD*%
D81*
%TO.C,U1701*%
X221062500Y-64950000D03*
X221062500Y-64450000D03*
X221062500Y-63950000D03*
X221062500Y-63450000D03*
D82*
X220350000Y-62737500D03*
X219850000Y-62737500D03*
X219350000Y-62737500D03*
X218850000Y-62737500D03*
D81*
X218137500Y-63450000D03*
X218137500Y-63950000D03*
X218137500Y-64450000D03*
X218137500Y-64950000D03*
D82*
X218850000Y-65662500D03*
X219350000Y-65662500D03*
X219850000Y-65662500D03*
X220350000Y-65662500D03*
D34*
X219600000Y-64200000D03*
%TD*%
D20*
%TO.C,CB1001*%
X222500000Y-37920000D03*
X222500000Y-38880000D03*
%TD*%
D65*
%TO.C,C1614*%
X242412500Y-60000000D03*
X240987500Y-60000000D03*
%TD*%
D20*
%TO.C,C911*%
X165500000Y-45720000D03*
X165500000Y-46680000D03*
%TD*%
D38*
%TO.C,R707*%
X131500000Y-42310000D03*
X131500000Y-41290000D03*
%TD*%
D35*
%TO.C,C1601*%
X226100000Y-63250000D03*
X226100000Y-65150000D03*
%TD*%
D38*
%TO.C,R807*%
X131500000Y-54110000D03*
X131500000Y-53090000D03*
%TD*%
D15*
%TO.C,R1619*%
X244390000Y-62500000D03*
X245410000Y-62500000D03*
%TD*%
D77*
%TO.C,FB304*%
X155200000Y-77915000D03*
X155200000Y-78885000D03*
%TD*%
D15*
%TO.C,R104*%
X160690000Y-53000000D03*
X161710000Y-53000000D03*
%TD*%
D76*
%TO.C,C1609*%
X233587500Y-60000000D03*
X235012500Y-60000000D03*
%TD*%
D15*
%TO.C,R1602*%
X227690000Y-64900000D03*
X228710000Y-64900000D03*
%TD*%
D38*
%TO.C,R903*%
X167300000Y-58110000D03*
X167300000Y-57090000D03*
%TD*%
D20*
%TO.C,C1102*%
X211800000Y-49920000D03*
X211800000Y-50880000D03*
%TD*%
D13*
%TO.C,R1401*%
X136810000Y-68100000D03*
X135790000Y-68100000D03*
%TD*%
D12*
%TO.C,CB902*%
X149980000Y-65600000D03*
X149020000Y-65600000D03*
%TD*%
D15*
%TO.C,R410*%
X152490000Y-35050000D03*
X153510000Y-35050000D03*
%TD*%
D24*
%TO.C,R1629*%
X233600000Y-65990000D03*
X233600000Y-67010000D03*
%TD*%
D13*
%TO.C,R1631*%
X231610000Y-62500000D03*
X230590000Y-62500000D03*
%TD*%
D83*
%TO.C,U1001*%
X224162500Y-37950000D03*
X224162500Y-38900000D03*
X224162500Y-39850000D03*
X226437500Y-39850000D03*
X226437500Y-37950000D03*
%TD*%
D51*
%TO.C,MK1405*%
X233350000Y-50650000D03*
D70*
X230730000Y-51850000D03*
D71*
X234140000Y-51920000D03*
X234140000Y-49380000D03*
D70*
X230730000Y-49450000D03*
X230730000Y-50650000D03*
%TD*%
D19*
%TO.C,C1101*%
X215400000Y-50880000D03*
X215400000Y-49920000D03*
%TD*%
D15*
%TO.C,R1606*%
X223590000Y-67000000D03*
X224610000Y-67000000D03*
%TD*%
D24*
%TO.C,R501*%
X121500000Y-40290000D03*
X121500000Y-41310000D03*
%TD*%
D80*
%TO.C,FB301*%
X78515000Y-51600000D03*
X79485000Y-51600000D03*
%TD*%
D24*
%TO.C,R808*%
X131500000Y-51090000D03*
X131500000Y-52110000D03*
%TD*%
D19*
%TO.C,C1504*%
X243400000Y-64680000D03*
X243400000Y-63720000D03*
%TD*%
D25*
%TO.C,U1002*%
X214737500Y-39850000D03*
X214737500Y-38900000D03*
X214737500Y-37950000D03*
X212462500Y-37950000D03*
X212462500Y-39850000D03*
%TD*%
D15*
%TO.C,R1611*%
X248890000Y-44800000D03*
X249910000Y-44800000D03*
%TD*%
D13*
%TO.C,R1201*%
X160310000Y-33800000D03*
X159290000Y-33800000D03*
%TD*%
D12*
%TO.C,C712*%
X127980000Y-44500000D03*
X127020000Y-44500000D03*
%TD*%
D80*
%TO.C,FB903*%
X165215000Y-60000000D03*
X166185000Y-60000000D03*
%TD*%
D19*
%TO.C,CB1502*%
X242400000Y-64680000D03*
X242400000Y-63720000D03*
%TD*%
D18*
%TO.C,R210*%
X167175000Y-42300000D03*
X168825000Y-42300000D03*
%TD*%
D13*
%TO.C,R910*%
X167310000Y-83400000D03*
X166290000Y-83400000D03*
%TD*%
D15*
%TO.C,R918*%
X135890000Y-35200000D03*
X136910000Y-35200000D03*
%TD*%
D12*
%TO.C,C1009*%
X228680000Y-61400000D03*
X227720000Y-61400000D03*
%TD*%
D19*
%TO.C,C1502*%
X243400000Y-66980000D03*
X243400000Y-66020000D03*
%TD*%
D12*
%TO.C,C206*%
X148180000Y-81600000D03*
X147220000Y-81600000D03*
%TD*%
%TO.C,C912*%
X160880000Y-44200000D03*
X159920000Y-44200000D03*
%TD*%
D24*
%TO.C,R708*%
X131500000Y-39290000D03*
X131500000Y-40310000D03*
%TD*%
D20*
%TO.C,C1506*%
X229050000Y-40270000D03*
X229050000Y-41230000D03*
%TD*%
D12*
%TO.C,C902*%
X149980000Y-67600000D03*
X149020000Y-67600000D03*
%TD*%
D80*
%TO.C,FB305*%
X73415000Y-62650000D03*
X74385000Y-62650000D03*
%TD*%
D13*
%TO.C,R1623*%
X244810000Y-68100000D03*
X243790000Y-68100000D03*
%TD*%
%TO.C,R1633*%
X237410000Y-60800000D03*
X236390000Y-60800000D03*
%TD*%
D11*
%TO.C,C1401*%
X236920000Y-44600000D03*
X237880000Y-44600000D03*
%TD*%
D83*
%TO.C,U904*%
X160462500Y-45650000D03*
X160462500Y-46600000D03*
X160462500Y-47550000D03*
X162737500Y-47550000D03*
X162737500Y-46600000D03*
X162737500Y-45650000D03*
%TD*%
D84*
%TO.C,J302*%
X79025000Y-68950000D03*
X79075000Y-55100000D03*
D62*
X76075000Y-57650000D03*
X76075000Y-58900000D03*
X76075000Y-60150000D03*
D61*
X76075000Y-61400000D03*
X76075000Y-62650000D03*
X76075000Y-63900000D03*
D62*
X76075000Y-65150000D03*
D61*
X76075000Y-66400000D03*
%TD*%
D38*
%TO.C,R902*%
X167300000Y-60055200D03*
X167300000Y-59035200D03*
%TD*%
D15*
%TO.C,R1601*%
X227690000Y-63600000D03*
X228710000Y-63600000D03*
%TD*%
D19*
%TO.C,CB1402*%
X246950000Y-42430000D03*
X246950000Y-41470000D03*
%TD*%
D12*
%TO.C,CB1610*%
X245360000Y-64800000D03*
X244400000Y-64800000D03*
%TD*%
D59*
%TO.C,D302*%
X78000000Y-74812500D03*
X78000000Y-76387500D03*
%TD*%
D85*
%TO.C,JP101*%
X135750000Y-64900000D03*
D86*
X134450000Y-64900000D03*
%TD*%
D15*
%TO.C,R1303*%
X159890000Y-63900000D03*
X160910000Y-63900000D03*
%TD*%
D59*
%TO.C,D303*%
X82400000Y-74825000D03*
X82400000Y-76400000D03*
%TD*%
D13*
%TO.C,R1002*%
X207910000Y-37700000D03*
X206890000Y-37700000D03*
%TD*%
D87*
%TO.C,SW901*%
X172200000Y-87400000D03*
X172200000Y-85400000D03*
X172200000Y-81400000D03*
X172200000Y-79400000D03*
X169400000Y-87400000D03*
X169400000Y-85400000D03*
X169400000Y-81400000D03*
X169400000Y-79400000D03*
%TD*%
D18*
%TO.C,R211*%
X170975000Y-43900000D03*
X172625000Y-43900000D03*
%TD*%
D24*
%TO.C,R907*%
X172300000Y-65490000D03*
X172300000Y-66510000D03*
%TD*%
D77*
%TO.C,FB1102*%
X213000000Y-49915000D03*
X213000000Y-50885000D03*
%TD*%
D20*
%TO.C,C805*%
X129500000Y-55320000D03*
X129500000Y-56280000D03*
%TD*%
D19*
%TO.C,C1007*%
X217600000Y-39880000D03*
X217600000Y-38920000D03*
%TD*%
D22*
%TO.C,H1002*%
X217600000Y-46000000D03*
X218302944Y-44302944D03*
X218302944Y-47697056D03*
X220000000Y-43600000D03*
D23*
X220000000Y-46000000D03*
D22*
X220000000Y-48400000D03*
X221697056Y-44302944D03*
X221697056Y-47697056D03*
X222400000Y-46000000D03*
%TD*%
D80*
%TO.C,FB303*%
X53030000Y-70500000D03*
X54000000Y-70500000D03*
%TD*%
D11*
%TO.C,CB108*%
X160720000Y-51600000D03*
X161680000Y-51600000D03*
%TD*%
D15*
%TO.C,R1301*%
X161890000Y-63900000D03*
X162910000Y-63900000D03*
%TD*%
D12*
%TO.C,CB1410*%
X136780000Y-69200000D03*
X135820000Y-69200000D03*
%TD*%
D19*
%TO.C,C1003*%
X212400000Y-44280000D03*
X212400000Y-43320000D03*
%TD*%
%TO.C,C1202*%
X162300000Y-36030000D03*
X162300000Y-35070000D03*
%TD*%
D11*
%TO.C,CB1608*%
X230620000Y-63600000D03*
X231580000Y-63600000D03*
%TD*%
D13*
%TO.C,R904*%
X166210000Y-62041800D03*
X165190000Y-62041800D03*
%TD*%
D15*
%TO.C,R1617*%
X244390000Y-65900000D03*
X245410000Y-65900000D03*
%TD*%
D11*
%TO.C,C107*%
X143240000Y-49600000D03*
X144200000Y-49600000D03*
%TD*%
D12*
%TO.C,C601*%
X121580000Y-49000000D03*
X120620000Y-49000000D03*
%TD*%
D13*
%TO.C,R1627*%
X231610000Y-67000000D03*
X230590000Y-67000000D03*
%TD*%
D38*
%TO.C,R1624*%
X242400000Y-62410000D03*
X242400000Y-61390000D03*
%TD*%
D88*
%TO.C,J205*%
X137075000Y-86350000D03*
X150925000Y-86400000D03*
D89*
X148375000Y-83400000D03*
X147125000Y-83400000D03*
X145875000Y-83400000D03*
D90*
X144625000Y-83400000D03*
X143375000Y-83400000D03*
X142125000Y-83400000D03*
D89*
X140875000Y-83400000D03*
D90*
X139625000Y-83400000D03*
%TD*%
D19*
%TO.C,CB906*%
X164200000Y-79980000D03*
X164200000Y-79020000D03*
%TD*%
D13*
%TO.C,R1003*%
X217510000Y-37900000D03*
X216490000Y-37900000D03*
%TD*%
D11*
%TO.C,C416*%
X120920000Y-47700000D03*
X121880000Y-47700000D03*
%TD*%
D51*
%TO.C,MK1407*%
X233350000Y-41350000D03*
D70*
X230730000Y-42550000D03*
D71*
X234140000Y-42620000D03*
X234140000Y-40080000D03*
D70*
X230730000Y-40150000D03*
X230730000Y-41350000D03*
%TD*%
D20*
%TO.C,C1001*%
X228100000Y-37920000D03*
X228100000Y-38880000D03*
%TD*%
D15*
%TO.C,R1603*%
X223590000Y-62500000D03*
X224610000Y-62500000D03*
%TD*%
D19*
%TO.C,C1008*%
X232600000Y-64680000D03*
X232600000Y-63720000D03*
%TD*%
D24*
%TO.C,R919*%
X156600000Y-67490000D03*
X156600000Y-68510000D03*
%TD*%
D12*
%TO.C,C205*%
X148280000Y-74200000D03*
X147320000Y-74200000D03*
%TD*%
D91*
%TO.C,U1301*%
X161875000Y-62455000D03*
X161875000Y-61185000D03*
X161875000Y-59915000D03*
X161875000Y-58645000D03*
X156925000Y-58645000D03*
X156925000Y-59915000D03*
X156925000Y-61185000D03*
X156925000Y-62455000D03*
%TD*%
D92*
%TO.C,TP1001*%
X213000000Y-41800000D03*
%TD*%
D19*
%TO.C,CB1002*%
X216400000Y-39880000D03*
X216400000Y-38920000D03*
%TD*%
%TO.C,C1004*%
X233600000Y-64680000D03*
X233600000Y-63720000D03*
%TD*%
D20*
%TO.C,C201*%
X117800000Y-64320000D03*
X117800000Y-65280000D03*
%TD*%
%TO.C,C1612*%
X232600000Y-61420000D03*
X232600000Y-62380000D03*
%TD*%
D13*
%TO.C,R302*%
X80710000Y-74800000D03*
X79690000Y-74800000D03*
%TD*%
D51*
%TO.C,MK1406*%
X242650000Y-41350000D03*
D70*
X245270000Y-40150000D03*
D71*
X241860000Y-40080000D03*
X241860000Y-42620000D03*
D70*
X245270000Y-42550000D03*
X245270000Y-41350000D03*
%TD*%
D24*
%TO.C,R909*%
X166300000Y-64800000D03*
X166300000Y-65820000D03*
%TD*%
D60*
%TO.C,J1101*%
X207450000Y-41575000D03*
X207400000Y-50425000D03*
D61*
X210400000Y-47875000D03*
D62*
X210400000Y-46625000D03*
X210400000Y-45375000D03*
X210400000Y-44125000D03*
%TD*%
D12*
%TO.C,C1508*%
X239080000Y-47300000D03*
X238120000Y-47300000D03*
%TD*%
D11*
%TO.C,C417*%
X121120000Y-35800000D03*
X122080000Y-35800000D03*
%TD*%
D12*
%TO.C,C1607*%
X226680000Y-67000000D03*
X225720000Y-67000000D03*
%TD*%
D15*
%TO.C,R1614*%
X246940000Y-40150000D03*
X247960000Y-40150000D03*
%TD*%
D63*
%TO.C,FB1001*%
X213600000Y-44285000D03*
X213600000Y-43315000D03*
%TD*%
D88*
%TO.C,J207*%
X137075000Y-78850000D03*
X150925000Y-78900000D03*
D89*
X148375000Y-75900000D03*
X147125000Y-75900000D03*
X145875000Y-75900000D03*
D90*
X144625000Y-75900000D03*
X143375000Y-75900000D03*
X142125000Y-75900000D03*
D89*
X140875000Y-75900000D03*
D90*
X139625000Y-75900000D03*
%TD*%
D12*
%TO.C,C812*%
X127980000Y-56300000D03*
X127020000Y-56300000D03*
%TD*%
D13*
%TO.C,R1101*%
X214110000Y-48800000D03*
X213090000Y-48800000D03*
%TD*%
D60*
%TO.C,J501*%
X116450000Y-36175000D03*
X116400000Y-45025000D03*
D61*
X119400000Y-42475000D03*
D62*
X119400000Y-41225000D03*
X119400000Y-39975000D03*
X119400000Y-38725000D03*
%TD*%
D38*
%TO.C,R1634*%
X233600000Y-62410000D03*
X233600000Y-61390000D03*
%TD*%
D93*
%TO.C,U1601*%
X240800000Y-66150000D03*
X240800000Y-65500000D03*
X240800000Y-64850000D03*
X240800000Y-64200000D03*
X240800000Y-63550000D03*
X240800000Y-62900000D03*
X240800000Y-62250000D03*
X235200000Y-62250000D03*
X235200000Y-62900000D03*
X235200000Y-63550000D03*
X235200000Y-64200000D03*
X235200000Y-64850000D03*
X235200000Y-65500000D03*
X235200000Y-66150000D03*
%TD*%
D13*
%TO.C,R1632*%
X231610000Y-61400000D03*
X230590000Y-61400000D03*
%TD*%
%TO.C,R406*%
X140960000Y-45200000D03*
X139940000Y-45200000D03*
%TD*%
D15*
%TO.C,R1621*%
X238570000Y-67600000D03*
X239590000Y-67600000D03*
%TD*%
D20*
%TO.C,C705*%
X129500000Y-43520000D03*
X129500000Y-44480000D03*
%TD*%
D12*
%TO.C,C203*%
X172280000Y-42500000D03*
X171320000Y-42500000D03*
%TD*%
D31*
%TO.C,D903*%
X138212500Y-35200000D03*
X139787500Y-35200000D03*
%TD*%
D15*
%TO.C,R1604*%
X223590000Y-65900000D03*
X224610000Y-65900000D03*
%TD*%
D19*
%TO.C,C1002*%
X210800000Y-39880000D03*
X210800000Y-38920000D03*
%TD*%
D51*
%TO.C,MK1408*%
X242650000Y-50650000D03*
D70*
X245270000Y-49450000D03*
D71*
X241860000Y-49380000D03*
X241860000Y-51920000D03*
D70*
X245270000Y-51850000D03*
X245270000Y-50650000D03*
%TD*%
D19*
%TO.C,C906*%
X162000000Y-70480000D03*
X162000000Y-69520000D03*
%TD*%
D24*
%TO.C,R901*%
X165300000Y-64800000D03*
X165300000Y-65820000D03*
%TD*%
D13*
%TO.C,R413*%
X144910000Y-45200000D03*
X143890000Y-45200000D03*
%TD*%
D15*
%TO.C,R911*%
X166290000Y-82200000D03*
X167310000Y-82200000D03*
%TD*%
D38*
%TO.C,R922*%
X164300000Y-46710000D03*
X164300000Y-45690000D03*
%TD*%
D19*
%TO.C,C1611*%
X232600000Y-66980000D03*
X232600000Y-66020000D03*
%TD*%
D84*
%TO.C,J301*%
X160750000Y-88975000D03*
X160800000Y-75125000D03*
D62*
X157800000Y-77675000D03*
X157800000Y-78925000D03*
X157800000Y-80175000D03*
D61*
X157800000Y-81425000D03*
X157800000Y-82675000D03*
X157800000Y-83925000D03*
D62*
X157800000Y-85175000D03*
D61*
X157800000Y-86425000D03*
%TD*%
D20*
%TO.C,C1402*%
X228000000Y-49570000D03*
X228000000Y-50530000D03*
%TD*%
D15*
%TO.C,R1302*%
X157890000Y-63900000D03*
X158910000Y-63900000D03*
%TD*%
D94*
%TO.C,U901*%
X168444500Y-64453700D03*
X168944500Y-64453700D03*
X169444500Y-64453700D03*
X169944500Y-64453700D03*
D95*
X170657000Y-63741200D03*
X170657000Y-63241200D03*
X170657000Y-62741200D03*
X170657000Y-62241200D03*
D94*
X169944500Y-61528700D03*
X169444500Y-61528700D03*
X168944500Y-61528700D03*
X168444500Y-61528700D03*
D95*
X167732000Y-62241200D03*
X167732000Y-62741200D03*
X167732000Y-63241200D03*
X167732000Y-63741200D03*
D34*
X169194500Y-62991200D03*
%TD*%
D24*
%TO.C,R920*%
X158800000Y-47490000D03*
X158800000Y-48510000D03*
%TD*%
D15*
%TO.C,R1620*%
X244390000Y-61400000D03*
X245410000Y-61400000D03*
%TD*%
%TO.C,R1630*%
X231190000Y-68100000D03*
X232210000Y-68100000D03*
%TD*%
D12*
%TO.C,CB1603*%
X237360000Y-68700000D03*
X236400000Y-68700000D03*
%TD*%
%TO.C,C908*%
X166180000Y-61000000D03*
X165220000Y-61000000D03*
%TD*%
D20*
%TO.C,C907*%
X158800000Y-45520000D03*
X158800000Y-46480000D03*
%TD*%
D12*
%TO.C,C204*%
X134460000Y-69270000D03*
X133500000Y-69270000D03*
%TD*%
%TO.C,CB1609*%
X245380000Y-63600000D03*
X244420000Y-63600000D03*
%TD*%
D69*
%TO.C,R915*%
X162725000Y-65300000D03*
X161075000Y-65300000D03*
%TD*%
D77*
%TO.C,FB602*%
X121500000Y-54115000D03*
X121500000Y-55085000D03*
%TD*%
D11*
%TO.C,CB1601*%
X220300000Y-61500000D03*
X221260000Y-61500000D03*
%TD*%
D13*
%TO.C,R1625*%
X244810000Y-60300000D03*
X243790000Y-60300000D03*
%TD*%
D38*
%TO.C,R403*%
X154000000Y-40010000D03*
X154000000Y-38990000D03*
%TD*%
D24*
%TO.C,R601*%
X121500000Y-52090000D03*
X121500000Y-53110000D03*
%TD*%
D12*
%TO.C,CB1604*%
X237380000Y-59700000D03*
X236420000Y-59700000D03*
%TD*%
D15*
%TO.C,R203*%
X133490000Y-72800000D03*
X134510000Y-72800000D03*
%TD*%
D96*
%TO.C,U1201*%
X160950000Y-35187500D03*
X160450000Y-35187500D03*
X159950000Y-35187500D03*
X159450000Y-35187500D03*
D97*
X159437500Y-35700000D03*
X159437500Y-36200000D03*
D96*
X159450000Y-36712500D03*
X159950000Y-36712500D03*
X160450000Y-36712500D03*
X160950000Y-36712500D03*
D97*
X160962500Y-36200000D03*
X160962500Y-35700000D03*
%TD*%
D12*
%TO.C,CB901*%
X149980000Y-66600000D03*
X149020000Y-66600000D03*
%TD*%
D15*
%TO.C,R1001*%
X221390000Y-39900000D03*
X222410000Y-39900000D03*
%TD*%
D38*
%TO.C,R1608*%
X216700000Y-65710000D03*
X216700000Y-64690000D03*
%TD*%
D12*
%TO.C,CB1003*%
X228680000Y-62500000D03*
X227720000Y-62500000D03*
%TD*%
D15*
%TO.C,R1616*%
X246940000Y-49450000D03*
X247960000Y-49450000D03*
%TD*%
D77*
%TO.C,FB1101*%
X214200000Y-49915000D03*
X214200000Y-50885000D03*
%TD*%
D98*
%TO.C,J204*%
X118775000Y-76840000D03*
X118775000Y-75740000D03*
X118775000Y-74640000D03*
X118775000Y-73540000D03*
X118775000Y-72440000D03*
X118775000Y-71340000D03*
X118775000Y-70240000D03*
X118775000Y-69140000D03*
D99*
X130400000Y-67200000D03*
X121400000Y-67200000D03*
D100*
X119400000Y-81185000D03*
D101*
X130730000Y-81085000D03*
D102*
X131525000Y-76780000D03*
X131525000Y-69000000D03*
D101*
X119250000Y-66795000D03*
%TD*%
D13*
%TO.C,R1615*%
X229060000Y-42550000D03*
X228040000Y-42550000D03*
%TD*%
D24*
%TO.C,R1*%
X131500000Y-64390000D03*
X131500000Y-65410000D03*
%TD*%
D25*
%TO.C,U902*%
X160423500Y-70458000D03*
X160423500Y-69508000D03*
X160423500Y-68558000D03*
X158148500Y-68558000D03*
X158148500Y-70458000D03*
%TD*%
D63*
%TO.C,FB601*%
X121500000Y-51085000D03*
X121500000Y-50115000D03*
%TD*%
D103*
%TO.C,J202*%
X134480000Y-88740000D03*
D104*
X134480000Y-86200000D03*
D103*
X134480000Y-83660000D03*
X126225000Y-88740000D03*
X126225000Y-83660000D03*
D104*
X124320000Y-87216000D03*
X124320000Y-85184000D03*
%TD*%
G36*
X79465076Y-32000026D02*
G01*
X79479029Y-32000482D01*
X79482231Y-32000692D01*
X79496110Y-32002059D01*
X79497703Y-32002242D01*
X79856906Y-32049532D01*
X79857967Y-32049684D01*
X79867144Y-32051097D01*
X79869249Y-32051468D01*
X79878331Y-32053275D01*
X79879375Y-32053494D01*
X80282944Y-32142963D01*
X80283986Y-32143206D01*
X80292984Y-32145408D01*
X80295049Y-32145962D01*
X80303992Y-32148569D01*
X80305014Y-32148879D01*
X80699163Y-32273155D01*
X80700174Y-32273486D01*
X80709000Y-32276481D01*
X80711012Y-32277213D01*
X80719676Y-32280582D01*
X80720670Y-32280981D01*
X81102493Y-32439140D01*
X81103476Y-32439560D01*
X81111996Y-32443309D01*
X81113931Y-32444211D01*
X81122319Y-32448347D01*
X81123275Y-32448832D01*
X81489833Y-32639652D01*
X81490775Y-32640155D01*
X81498923Y-32644625D01*
X81500776Y-32645695D01*
X81508735Y-32650525D01*
X81509642Y-32651089D01*
X81858220Y-32873160D01*
X81859116Y-32873745D01*
X81866835Y-32878903D01*
X81868584Y-32880127D01*
X81876091Y-32885631D01*
X81876948Y-32886274D01*
X82204823Y-33137865D01*
X82205660Y-33138522D01*
X82212939Y-33144363D01*
X82214579Y-33145739D01*
X82221574Y-33151873D01*
X82222371Y-33152588D01*
X82527054Y-33431784D01*
X82527828Y-33432508D01*
X82534565Y-33438955D01*
X82536086Y-33440477D01*
X82542510Y-33447189D01*
X82543238Y-33447965D01*
X82822475Y-33752702D01*
X82823190Y-33753500D01*
X82829302Y-33760470D01*
X82830675Y-33762107D01*
X82836511Y-33769379D01*
X82837171Y-33770219D01*
X83088768Y-34098112D01*
X83089409Y-34098968D01*
X83094908Y-34106468D01*
X83096132Y-34108215D01*
X83101304Y-34115954D01*
X83101890Y-34116853D01*
X83323929Y-34465392D01*
X83324492Y-34466297D01*
X83329335Y-34474277D01*
X83330407Y-34476134D01*
X83334867Y-34484265D01*
X83335370Y-34485205D01*
X83526203Y-34851800D01*
X83526686Y-34852753D01*
X83530814Y-34861124D01*
X83531717Y-34863061D01*
X83535473Y-34871597D01*
X83535893Y-34872581D01*
X83694033Y-35254374D01*
X83694430Y-35255363D01*
X83697806Y-35264043D01*
X83698540Y-35266060D01*
X83701539Y-35274898D01*
X83701870Y-35275909D01*
X83826133Y-35670035D01*
X83826443Y-35671057D01*
X83829054Y-35680015D01*
X83829609Y-35682084D01*
X83831809Y-35691078D01*
X83832051Y-35692116D01*
X83921513Y-36095669D01*
X83921733Y-36096719D01*
X83923543Y-36105823D01*
X83923914Y-36107923D01*
X83925327Y-36117102D01*
X83925478Y-36118162D01*
X83979421Y-36527934D01*
X83979548Y-36528991D01*
X83980563Y-36538252D01*
X83980750Y-36540382D01*
X83981358Y-36549650D01*
X83981416Y-36550714D01*
X83999747Y-36969299D01*
X83999768Y-36969840D01*
X83999922Y-36974544D01*
X83999945Y-36975599D01*
X83999997Y-36980250D01*
X84000000Y-36980798D01*
X84000000Y-37749359D01*
X83999078Y-37758819D01*
X83983227Y-37839380D01*
X83976061Y-37856887D01*
X83933549Y-37921381D01*
X83920283Y-37934870D01*
X83856511Y-37978448D01*
X83839124Y-37985906D01*
X83758833Y-38003097D01*
X83749391Y-38004176D01*
X78259045Y-38095682D01*
X78249370Y-38094882D01*
X78166911Y-38079726D01*
X78148972Y-38072556D01*
X78082951Y-38029430D01*
X78069177Y-38015884D01*
X78024955Y-37950588D01*
X78017488Y-37932770D01*
X78000962Y-37850582D01*
X78000000Y-37840923D01*
X78000000Y-32254823D01*
X78000941Y-32245264D01*
X78017127Y-32163890D01*
X78024444Y-32146226D01*
X78067808Y-32081327D01*
X78081327Y-32067808D01*
X78146226Y-32024444D01*
X78163890Y-32017127D01*
X78245264Y-32000941D01*
X78254823Y-32000000D01*
X79463475Y-32000000D01*
X79465076Y-32000026D01*
G37*
G36*
X168994812Y-32000003D02*
G01*
X168999425Y-32000052D01*
X169000516Y-32000075D01*
X169005259Y-32000231D01*
X169005785Y-32000252D01*
X169424332Y-32018527D01*
X169425395Y-32018585D01*
X169434669Y-32019192D01*
X169436808Y-32019379D01*
X169446086Y-32020396D01*
X169447143Y-32020523D01*
X169856909Y-32074468D01*
X169857970Y-32074620D01*
X169867147Y-32076033D01*
X169869254Y-32076404D01*
X169878379Y-32078220D01*
X169879421Y-32078440D01*
X170282907Y-32167891D01*
X170283944Y-32168132D01*
X170292987Y-32170344D01*
X170295057Y-32170899D01*
X170303997Y-32173505D01*
X170305019Y-32173815D01*
X170699172Y-32298091D01*
X170700189Y-32298424D01*
X170709017Y-32301421D01*
X170711023Y-32302151D01*
X170719690Y-32305521D01*
X170720683Y-32305920D01*
X171102486Y-32464068D01*
X171103470Y-32464488D01*
X171112006Y-32468244D01*
X171113944Y-32469148D01*
X171122296Y-32473267D01*
X171123249Y-32473749D01*
X171489882Y-32664606D01*
X171490823Y-32665110D01*
X171498935Y-32669560D01*
X171500789Y-32670630D01*
X171508748Y-32675460D01*
X171509655Y-32676024D01*
X171858235Y-32898094D01*
X171859131Y-32898679D01*
X171866850Y-32903837D01*
X171868598Y-32905061D01*
X171876127Y-32910581D01*
X171876984Y-32911224D01*
X172204820Y-33162781D01*
X172205662Y-33163441D01*
X172212962Y-33169300D01*
X172214597Y-33170672D01*
X172221567Y-33176784D01*
X172222365Y-33177499D01*
X172527101Y-33456739D01*
X172527877Y-33457467D01*
X172534589Y-33463891D01*
X172536108Y-33465410D01*
X172542532Y-33472122D01*
X172543260Y-33472898D01*
X172822500Y-33777634D01*
X172823215Y-33778432D01*
X172829327Y-33785402D01*
X172830699Y-33787037D01*
X172836558Y-33794337D01*
X172837218Y-33795179D01*
X173088775Y-34123015D01*
X173089418Y-34123872D01*
X173094938Y-34131401D01*
X173096162Y-34133149D01*
X173101320Y-34140868D01*
X173101905Y-34141764D01*
X173323975Y-34490344D01*
X173324539Y-34491251D01*
X173329369Y-34499210D01*
X173330439Y-34501064D01*
X173334889Y-34509176D01*
X173335393Y-34510117D01*
X173526250Y-34876750D01*
X173526732Y-34877703D01*
X173530851Y-34886055D01*
X173531755Y-34887993D01*
X173535511Y-34896529D01*
X173535931Y-34897513D01*
X173694079Y-35279316D01*
X173694478Y-35280309D01*
X173697848Y-35288976D01*
X173698578Y-35290982D01*
X173701575Y-35299810D01*
X173701908Y-35300827D01*
X173826184Y-35694980D01*
X173826494Y-35696002D01*
X173829100Y-35704942D01*
X173829655Y-35707012D01*
X173831867Y-35716055D01*
X173832108Y-35717092D01*
X173921559Y-36120578D01*
X173921779Y-36121620D01*
X173923595Y-36130745D01*
X173923966Y-36132852D01*
X173925379Y-36142029D01*
X173925531Y-36143090D01*
X173979476Y-36552856D01*
X173979603Y-36553913D01*
X173980620Y-36563191D01*
X173980807Y-36565330D01*
X173981414Y-36574604D01*
X173981472Y-36575667D01*
X173999747Y-36994214D01*
X173999768Y-36994740D01*
X173999924Y-36999483D01*
X173999947Y-37000563D01*
X173999997Y-37005177D01*
X174000000Y-37005708D01*
X174000000Y-37749359D01*
X173999078Y-37758819D01*
X173983227Y-37839380D01*
X173976061Y-37856887D01*
X173933549Y-37921381D01*
X173920283Y-37934870D01*
X173856511Y-37978448D01*
X173839124Y-37985906D01*
X173758833Y-38003097D01*
X173749391Y-38004176D01*
X168259045Y-38095682D01*
X168249370Y-38094882D01*
X168166911Y-38079726D01*
X168148972Y-38072556D01*
X168082951Y-38029430D01*
X168069177Y-38015884D01*
X168024955Y-37950588D01*
X168017488Y-37932770D01*
X168000962Y-37850582D01*
X168000000Y-37840923D01*
X168000000Y-32254823D01*
X168000941Y-32245264D01*
X168017127Y-32163890D01*
X168024444Y-32146226D01*
X168067808Y-32081327D01*
X168081327Y-32067808D01*
X168146226Y-32024444D01*
X168163890Y-32017127D01*
X168245264Y-32000941D01*
X168254823Y-32000000D01*
X168994292Y-32000000D01*
X168994812Y-32000003D01*
G37*
G36*
X271754736Y-65200942D02*
G01*
X271836109Y-65217128D01*
X271853773Y-65224444D01*
X271918672Y-65267808D01*
X271932191Y-65281327D01*
X271975555Y-65346226D01*
X271982871Y-65363889D01*
X271999058Y-65445263D01*
X272000000Y-65454823D01*
X272000000Y-67990647D01*
X271999992Y-67991526D01*
X271999856Y-67999108D01*
X271999794Y-68000848D01*
X271999385Y-68008489D01*
X271999330Y-68009366D01*
X271980981Y-68265922D01*
X271980825Y-68267666D01*
X271979197Y-68282802D01*
X271978699Y-68286263D01*
X271975997Y-68301237D01*
X271975656Y-68302952D01*
X271922975Y-68545125D01*
X271922573Y-68546826D01*
X271918804Y-68561594D01*
X271917818Y-68564953D01*
X271913019Y-68579370D01*
X271912438Y-68581018D01*
X271825818Y-68813257D01*
X271825178Y-68814883D01*
X271819350Y-68828954D01*
X271817896Y-68832138D01*
X271811084Y-68845746D01*
X271810273Y-68847295D01*
X271691494Y-69064822D01*
X271690630Y-69066341D01*
X271682867Y-69079426D01*
X271680973Y-69082372D01*
X271672287Y-69094881D01*
X271671265Y-69096298D01*
X271522748Y-69294693D01*
X271521675Y-69296074D01*
X271512107Y-69307947D01*
X271509817Y-69310591D01*
X271499449Y-69321727D01*
X271498234Y-69322985D01*
X271322985Y-69498234D01*
X271321727Y-69499449D01*
X271310591Y-69509817D01*
X271307947Y-69512107D01*
X271296074Y-69521675D01*
X271294693Y-69522748D01*
X271096298Y-69671265D01*
X271094881Y-69672287D01*
X271082372Y-69680973D01*
X271079426Y-69682867D01*
X271066341Y-69690630D01*
X271064822Y-69691494D01*
X270847295Y-69810273D01*
X270845746Y-69811084D01*
X270832138Y-69817896D01*
X270828954Y-69819350D01*
X270814883Y-69825178D01*
X270813257Y-69825818D01*
X270581018Y-69912438D01*
X270579370Y-69913019D01*
X270564953Y-69917818D01*
X270561594Y-69918804D01*
X270546826Y-69922573D01*
X270545125Y-69922975D01*
X270302952Y-69975656D01*
X270301237Y-69975997D01*
X270286263Y-69978699D01*
X270282802Y-69979197D01*
X270267666Y-69980825D01*
X270265922Y-69980981D01*
X270009366Y-69999330D01*
X270008489Y-69999385D01*
X270000848Y-69999794D01*
X269999108Y-69999856D01*
X269991526Y-69999992D01*
X269990647Y-70000000D01*
X266012873Y-70000000D01*
X266011668Y-69999985D01*
X266001217Y-69999728D01*
X265998817Y-69999610D01*
X265988380Y-69998840D01*
X265987182Y-69998737D01*
X265830612Y-69983316D01*
X265828225Y-69983022D01*
X265807529Y-69979952D01*
X265802813Y-69979014D01*
X265782504Y-69973927D01*
X265780186Y-69973285D01*
X265642029Y-69931376D01*
X265639744Y-69930621D01*
X265620045Y-69923572D01*
X265615606Y-69921734D01*
X265596693Y-69912790D01*
X265594542Y-69911707D01*
X265467192Y-69843636D01*
X265465101Y-69842451D01*
X265447170Y-69831704D01*
X265443170Y-69829032D01*
X265426369Y-69816571D01*
X265424474Y-69815092D01*
X265312854Y-69723488D01*
X265311033Y-69721917D01*
X265295532Y-69707868D01*
X265292131Y-69704467D01*
X265278082Y-69688966D01*
X265276511Y-69687145D01*
X265184907Y-69575525D01*
X265183428Y-69573630D01*
X265170967Y-69556829D01*
X265168295Y-69552829D01*
X265157548Y-69534898D01*
X265156363Y-69532807D01*
X265088292Y-69405457D01*
X265087209Y-69403306D01*
X265078265Y-69384393D01*
X265076427Y-69379954D01*
X265069378Y-69360255D01*
X265068623Y-69357970D01*
X265026714Y-69219813D01*
X265026072Y-69217495D01*
X265020985Y-69197186D01*
X265020047Y-69192470D01*
X265016977Y-69171774D01*
X265016683Y-69169387D01*
X265001262Y-69012817D01*
X265001159Y-69011619D01*
X265000389Y-69001182D01*
X265000271Y-68998777D01*
X265000015Y-68988327D01*
X265000000Y-68987127D01*
X265000000Y-65454823D01*
X265000941Y-65445264D01*
X265017127Y-65363890D01*
X265024444Y-65346226D01*
X265067808Y-65281327D01*
X265081327Y-65267808D01*
X265146226Y-65224444D01*
X265163890Y-65217127D01*
X265245264Y-65200941D01*
X265254823Y-65200000D01*
X271745177Y-65200000D01*
X271754736Y-65200942D01*
G37*
D105*
X169000000Y-92000000D02*
G75*
G03*
X174000000Y-87000000I0J5000000D01*
G01*
X174000000Y-37000000D02*
G75*
G03*
X169000000Y-32000000I-5000000J0D01*
G01*
X174000000Y-87000000D02*
X174000000Y-37000000D01*
X169000000Y-32000000D02*
X164500000Y-32000000D01*
X114000000Y-87000000D02*
G75*
G03*
X119000000Y-92000000I5000000J0D01*
G01*
X119000000Y-32000000D02*
G75*
G03*
X114000000Y-37000000I0J-5000000D01*
G01*
X164500000Y-92000000D02*
X169000000Y-92000000D01*
X33500000Y-32000000D02*
X29000000Y-32000000D01*
X24000000Y-37000000D02*
X24000000Y-87000000D01*
X79000000Y-92000000D02*
G75*
G03*
X84000000Y-87000000I0J5000000D01*
G01*
X24000000Y-87000000D02*
G75*
G03*
X29000000Y-92000000I5000000J0D01*
G01*
X29000000Y-32000000D02*
G75*
G03*
X24000000Y-37000000I0J-5000000D01*
G01*
X29000000Y-92000000D02*
X33500000Y-92000000D01*
X83999937Y-36975063D02*
G75*
G03*
X79000001Y-31975063I-4999937J63D01*
G01*
X124750000Y-93000000D02*
X124750000Y-94000000D01*
X129250000Y-93000000D02*
X129250000Y-94000000D01*
X130500000Y-92000000D02*
X130250000Y-92000000D01*
X123750000Y-92000000D02*
X123500000Y-92000000D01*
X74500000Y-92000000D02*
X74250000Y-92000000D01*
X124750000Y-93000000D02*
G75*
G03*
X123750000Y-92000000I-1000000J0D01*
G01*
X130250000Y-92000000D02*
G75*
G03*
X129250000Y-93000000I0J-1000000D01*
G01*
X123500000Y-92000000D02*
X119000000Y-92000000D01*
X128250000Y-95000000D02*
G75*
G03*
X129250000Y-94000000I0J1000000D01*
G01*
X74250000Y-92000000D02*
G75*
G03*
X73250000Y-93000000I0J-1000000D01*
G01*
X68750000Y-93000000D02*
G75*
G03*
X67750000Y-92000000I-1000000J0D01*
G01*
X68750000Y-94000000D02*
G75*
G03*
X69750000Y-95000000I1000000J0D01*
G01*
X72250000Y-95000000D02*
X69750000Y-95000000D01*
X72250000Y-95000000D02*
G75*
G03*
X73250000Y-94000000I0J1000000D01*
G01*
X68750000Y-93000000D02*
X68750000Y-94000000D01*
X73250000Y-93000000D02*
X73250000Y-94000000D01*
X157500000Y-92000000D02*
X130500000Y-92000000D01*
X40201249Y-92000000D02*
X67750000Y-92000000D01*
X74500000Y-92000000D02*
X79000000Y-92000000D01*
X40500000Y-32000000D02*
X67500000Y-32000000D01*
X74500000Y-32000000D02*
X79000001Y-31975063D01*
X157500000Y-32000000D02*
X130500000Y-32000000D01*
X123500000Y-32000000D02*
X119000000Y-32000000D01*
X114000000Y-37000000D02*
X114000000Y-87000000D01*
X84000000Y-71250000D02*
X84000000Y-87000000D01*
X128250000Y-95000000D02*
X125750000Y-95000000D01*
X257500000Y-34500000D02*
G75*
G03*
X256500000Y-33500000I-1000000J0D01*
G01*
X260000000Y-33000000D02*
G75*
G03*
X261000000Y-34000000I1000000J0D01*
G01*
X253500000Y-58500000D02*
X256500000Y-58500000D01*
X211000000Y-33000000D02*
G75*
G03*
X212000000Y-34000000I1000000J0D01*
G01*
X82000000Y-69250000D02*
G75*
G03*
X83000000Y-70250000I1000000J0D01*
G01*
X162250000Y-95000000D02*
G75*
G03*
X163250000Y-94000000I0J1000000D01*
G01*
X158750000Y-31000000D02*
X158750000Y-30000000D01*
X73250000Y-30000000D02*
G75*
G03*
X72250000Y-29000000I-1000000J0D01*
G01*
X163250000Y-93000000D02*
X163250000Y-94000000D01*
X218500000Y-56000000D02*
X218500000Y-57500000D01*
X35750000Y-29000000D02*
G75*
G03*
X34750000Y-30000000I0J-1000000D01*
G01*
X157750000Y-92000000D02*
X157500000Y-92000000D01*
X74250000Y-32000000D02*
X74500000Y-32000000D01*
X222500000Y-58500000D02*
G75*
G03*
X223500000Y-57500000I0J1000000D01*
G01*
X272000000Y-55000000D02*
X272000000Y-34000000D01*
X264000000Y-34000000D02*
G75*
G03*
X265000000Y-33000000I0J1000000D01*
G01*
X252500000Y-56000000D02*
X252500000Y-57500000D01*
X39250000Y-93000000D02*
X39250000Y-94000000D01*
X252500000Y-57500000D02*
G75*
G03*
X253500000Y-58500000I1000000J0D01*
G01*
X157500000Y-32000000D02*
X157750000Y-32000000D01*
X163250000Y-30000000D02*
G75*
G03*
X162250000Y-29000000I-1000000J0D01*
G01*
X67750000Y-32000000D02*
G75*
G03*
X68750000Y-31000000I0J1000000D01*
G01*
X270000000Y-70000000D02*
G75*
G03*
X272000000Y-68000000I0J2000000D01*
G01*
X223500000Y-56000000D02*
G75*
G03*
X222500000Y-55000000I-1000000J0D01*
G01*
X34750000Y-31000000D02*
X34750000Y-30000000D01*
X35750000Y-29000000D02*
X38250000Y-29000000D01*
X222500000Y-33500000D02*
X219500000Y-33500000D01*
X33500000Y-32000000D02*
X33750000Y-32000000D01*
X272000000Y-68000000D02*
X272000000Y-55000000D01*
X34750000Y-93000000D02*
G75*
G03*
X33750000Y-92000000I-1000000J0D01*
G01*
X33750000Y-92000000D02*
X33500000Y-92000000D01*
X261000000Y-34000000D02*
X264000000Y-34000000D01*
X40201249Y-91999999D02*
G75*
G03*
X39250000Y-93000000I24351J-975601D01*
G01*
X38250000Y-95000000D02*
X35750000Y-95000000D01*
X158750000Y-93000000D02*
G75*
G03*
X157750000Y-92000000I-1000000J0D01*
G01*
X212000000Y-34000000D02*
X215000000Y-34000000D01*
X252500000Y-34500000D02*
X252500000Y-36000000D01*
X222500000Y-55000000D02*
X219500000Y-55000000D01*
X212000000Y-68000000D02*
G75*
G03*
X211000000Y-69000000I0J-1000000D01*
G01*
X219500000Y-58500000D02*
X222500000Y-58500000D01*
X223500000Y-57500000D02*
X223500000Y-56000000D01*
X257500000Y-36000000D02*
X257500000Y-34500000D01*
X264000000Y-68000000D02*
X261000000Y-68000000D01*
X253500000Y-37000000D02*
X256500000Y-37000000D01*
X129250000Y-31000000D02*
G75*
G03*
X130250000Y-32000000I1000000J0D01*
G01*
X129250000Y-30000000D02*
G75*
G03*
X128250000Y-29000000I-1000000J0D01*
G01*
X34750000Y-94000000D02*
G75*
G03*
X35750000Y-95000000I1000000J0D01*
G01*
X83000000Y-53925000D02*
G75*
G03*
X84000000Y-52925000I0J1000000D01*
G01*
X223500000Y-34500000D02*
G75*
G03*
X222500000Y-33500000I-1000000J0D01*
G01*
X216000000Y-69000000D02*
G75*
G03*
X217000000Y-70000000I1000000J0D01*
G01*
X163250000Y-31000000D02*
G75*
G03*
X164250000Y-32000000I1000000J0D01*
G01*
X204000000Y-68000000D02*
G75*
G03*
X206000000Y-70000000I2000000J0D01*
G01*
X39250000Y-31000000D02*
X39250000Y-30000000D01*
X265000000Y-69000000D02*
G75*
G03*
X266000000Y-70000000I1000000J0D01*
G01*
X266000000Y-32000000D02*
G75*
G03*
X265000000Y-33000000I0J-1000000D01*
G01*
X219500000Y-33500000D02*
G75*
G03*
X218500000Y-34500000I0J-1000000D01*
G01*
X256500000Y-37000000D02*
G75*
G03*
X257500000Y-36000000I0J1000000D01*
G01*
X265000000Y-69000000D02*
G75*
G03*
X264000000Y-68000000I-1000000J0D01*
G01*
X163250000Y-31000000D02*
X163250000Y-30000000D01*
X84000000Y-71250000D02*
G75*
G03*
X83000000Y-70250000I-1000000J0D01*
G01*
X252500000Y-36000000D02*
G75*
G03*
X253500000Y-37000000I1000000J0D01*
G01*
X67500000Y-32000000D02*
X67750000Y-32000000D01*
X40250000Y-32000000D02*
X40500000Y-32000000D01*
X125750000Y-29000000D02*
G75*
G03*
X124750000Y-30000000I0J-1000000D01*
G01*
X253500000Y-55000000D02*
G75*
G03*
X252500000Y-56000000I0J-1000000D01*
G01*
X217000000Y-70000000D02*
X259000000Y-70000000D01*
X83000000Y-53925000D02*
G75*
G03*
X82000000Y-54925000I0J-1000000D01*
G01*
X130250000Y-32000000D02*
X130500000Y-32000000D01*
X129250000Y-31000000D02*
X129250000Y-30000000D01*
X259000000Y-32000000D02*
X217000000Y-32000000D01*
X217000000Y-32000000D02*
G75*
G03*
X216000000Y-33000000I0J-1000000D01*
G01*
X257500000Y-56000000D02*
G75*
G03*
X256500000Y-55000000I-1000000J0D01*
G01*
X257500000Y-57500000D02*
X257500000Y-56000000D01*
X159750000Y-29000000D02*
X162250000Y-29000000D01*
X69750000Y-29000000D02*
X72250000Y-29000000D01*
X219500000Y-37000000D02*
X222500000Y-37000000D01*
X210000000Y-70000000D02*
X206000000Y-70000000D01*
X158750000Y-94000000D02*
G75*
G03*
X159750000Y-95000000I1000000J0D01*
G01*
X218500000Y-57500000D02*
G75*
G03*
X219500000Y-58500000I1000000J0D01*
G01*
X256500000Y-33500000D02*
X253500000Y-33500000D01*
X123500000Y-32000000D02*
X123750000Y-32000000D01*
X222500000Y-37000000D02*
G75*
G03*
X223500000Y-36000000I0J1000000D01*
G01*
X206000000Y-32000000D02*
G75*
G03*
X204000000Y-34000000I0J-2000000D01*
G01*
X34750000Y-93000000D02*
X34750000Y-94000000D01*
X215000000Y-34000000D02*
G75*
G03*
X216000000Y-33000000I0J1000000D01*
G01*
X39250000Y-31000000D02*
G75*
G03*
X40250000Y-32000000I1000000J0D01*
G01*
X84000000Y-52925000D02*
X84000000Y-36975063D01*
X259000000Y-70000000D02*
G75*
G03*
X260000000Y-69000000I0J1000000D01*
G01*
X123750000Y-32000000D02*
G75*
G03*
X124750000Y-31000000I0J1000000D01*
G01*
X73250000Y-31000000D02*
X73250000Y-30000000D01*
X272000000Y-34000000D02*
G75*
G03*
X270000000Y-32000000I-2000000J0D01*
G01*
X256500000Y-58500000D02*
G75*
G03*
X257500000Y-57500000I0J1000000D01*
G01*
X218500000Y-36000000D02*
G75*
G03*
X219500000Y-37000000I1000000J0D01*
G01*
X68750000Y-31000000D02*
X68750000Y-30000000D01*
X39250000Y-30000000D02*
G75*
G03*
X38250000Y-29000000I-1000000J0D01*
G01*
X215000000Y-68000000D02*
X212000000Y-68000000D01*
X270000000Y-70000000D02*
X266000000Y-70000000D01*
X33750000Y-32000000D02*
G75*
G03*
X34750000Y-31000000I0J1000000D01*
G01*
X164500000Y-92000000D02*
X164250000Y-92000000D01*
X210000000Y-70000000D02*
G75*
G03*
X211000000Y-69000000I0J1000000D01*
G01*
X73250000Y-31000000D02*
G75*
G03*
X74250000Y-32000000I1000000J0D01*
G01*
X223500000Y-36000000D02*
X223500000Y-34500000D01*
X124750000Y-94000000D02*
G75*
G03*
X125750000Y-95000000I1000000J0D01*
G01*
X219500000Y-55000000D02*
G75*
G03*
X218500000Y-56000000I0J-1000000D01*
G01*
X210000000Y-32000000D02*
X206000000Y-32000000D01*
X260000000Y-33000000D02*
G75*
G03*
X259000000Y-32000000I-1000000J0D01*
G01*
X164250000Y-32000000D02*
X164500000Y-32000000D01*
X256500000Y-55000000D02*
X253500000Y-55000000D01*
X253500000Y-33500000D02*
G75*
G03*
X252500000Y-34500000I0J-1000000D01*
G01*
X82000000Y-54925000D02*
X82000000Y-69250000D01*
X125750000Y-29000000D02*
X128250000Y-29000000D01*
X159750000Y-29000000D02*
G75*
G03*
X158750000Y-30000000I0J-1000000D01*
G01*
X124750000Y-31000000D02*
X124750000Y-30000000D01*
X211000000Y-33000000D02*
G75*
G03*
X210000000Y-32000000I-1000000J0D01*
G01*
X204000000Y-34000000D02*
X204000000Y-68000000D01*
X38250000Y-95000000D02*
G75*
G03*
X39250000Y-94000000I0J1000000D01*
G01*
X216000000Y-69000000D02*
G75*
G03*
X215000000Y-68000000I-1000000J0D01*
G01*
X164250000Y-92000000D02*
G75*
G03*
X163250000Y-93000000I0J-1000000D01*
G01*
X218500000Y-34500000D02*
X218500000Y-36000000D01*
X157750000Y-32000000D02*
G75*
G03*
X158750000Y-31000000I0J1000000D01*
G01*
X266000000Y-32000000D02*
X270000000Y-32000000D01*
X158750000Y-93000000D02*
X158750000Y-94000000D01*
X69750000Y-29000000D02*
G75*
G03*
X68750000Y-30000000I0J-1000000D01*
G01*
X162250000Y-95000000D02*
X159750000Y-95000000D01*
X261000000Y-68000000D02*
G75*
G03*
X260000000Y-69000000I0J-1000000D01*
G01*
M02*
