M48
; DRILL file {KiCad 7.0.2} date Fri 26 May 2023 09:27:14
; FORMAT={-:-/ absolute / metric / decimal}
; #@! TF.CreationDate,2023-05-26T09:27:14+02:00
; #@! TF.GenerationSoftware,Kicad,Pcbnew,7.0.2
; #@! TF.FileFunction,Plated,1,4,PTH
FMAT,2
METRIC
; #@! TA.AperFunction,Plated,PTH,ViaDrill
T1C0.200
; #@! TA.AperFunction,Plated,PTH,ComponentDrill
T2C0.200
; #@! TA.AperFunction,Plated,PTH,ViaDrill
T3C0.250
; #@! TA.AperFunction,Plated,PTH,ComponentDrill
T4C0.500
; #@! TA.AperFunction,Plated,PTH,ComponentDrill
T5C0.650
; #@! TA.AperFunction,Plated,PTH,ComponentDrill
T6C1.000
; #@! TA.AperFunction,Plated,PTH,ComponentDrill
T7C3.200
%
G90
G05
T1
X120.45Y-76.816
X121.85Y-76.286
X121.91Y-75.74
X122.7Y-67.2
X122.75Y-72.25
X124.1Y-74.62
X128.0Y-69.3
X128.325Y-69.775
X128.55Y-68.15
X128.925Y-62.025
X137.449Y-57.551
X138.1Y-55.8
X139.79Y-55.233
X142.8Y-56.8
X144.569Y-60.525
X146.097Y-54.0
X146.154Y-53.453
X147.45Y-54.65
X151.125Y-37.75
X225.0Y-47.2
X226.592Y-42.539
X232.8Y-68.4
X232.9Y-59.3
X243.189Y-69.1
X243.2Y-59.4
X249.8Y-49.45
X251.2Y-44.8
T2
X128.11Y-40.21
X128.11Y-41.39
X128.11Y-52.01
X128.11Y-53.19
X129.29Y-40.21
X129.29Y-41.39
X129.29Y-52.01
X129.29Y-53.19
X168.605Y-62.401
X168.605Y-63.581
X169.784Y-62.401
X169.784Y-63.581
X219.01Y-63.61
X219.01Y-64.79
X220.19Y-63.61
X220.19Y-64.79
T3
X30.0Y-44.0
X30.0Y-50.0
X30.0Y-56.0
X30.0Y-62.0
X30.0Y-68.0
X30.0Y-74.0
X30.0Y-80.0
X36.0Y-38.0
X36.0Y-44.0
X36.0Y-50.0
X36.0Y-56.0
X36.0Y-62.0
X36.0Y-68.0
X36.0Y-74.0
X36.0Y-80.0
X36.0Y-86.0
X41.75Y-71.1
X42.0Y-38.0
X42.0Y-44.0
X42.0Y-50.0
X42.0Y-56.0
X42.0Y-62.0
X42.0Y-68.0
X42.0Y-74.0
X42.0Y-80.0
X42.0Y-86.0
X44.5Y-59.9
X44.9Y-67.9
X44.95Y-74.3
X48.0Y-38.0
X48.0Y-44.0
X48.0Y-50.0
X48.0Y-56.0
X48.0Y-68.0
X48.0Y-74.0
X48.0Y-80.0
X48.0Y-86.0
X48.1Y-71.1
X51.8Y-51.45
X52.35Y-52.9
X53.05Y-71.791
X54.0Y-38.0
X54.0Y-44.0
X54.0Y-50.0
X54.0Y-62.0
X54.0Y-74.0
X54.0Y-80.0
X54.0Y-86.0
X56.375Y-51.525
X56.375Y-52.25
X56.9Y-72.325
X57.325Y-51.55
X57.325Y-52.25
X59.8Y-53.0
X60.0Y-38.0
X60.0Y-44.0
X60.0Y-50.0
X60.0Y-56.0
X60.0Y-68.0
X60.0Y-74.0
X60.0Y-80.0
X60.0Y-86.0
X63.036Y-59.841
X63.05Y-49.8
X63.05Y-56.15
X63.35Y-61.75
X63.6Y-64.15
X63.6Y-65.1
X64.25Y-64.15
X64.3Y-65.1
X66.0Y-38.0
X66.0Y-44.0
X66.0Y-50.0
X66.0Y-56.0
X66.0Y-62.0
X66.0Y-68.0
X66.0Y-74.0
X66.0Y-80.0
X66.0Y-86.0
X66.25Y-53.0
X72.0Y-38.0
X72.0Y-44.0
X72.0Y-50.0
X72.0Y-56.0
X72.0Y-62.0
X72.0Y-68.0
X72.0Y-74.0
X72.0Y-80.0
X72.0Y-86.0
X72.75Y-62.65
X74.6Y-59.075
X74.6Y-61.625
X74.875Y-65.175
X74.875Y-66.425
X77.5Y-58.6
X77.5Y-59.2
X77.5Y-63.6
X77.5Y-64.2
X78.0Y-44.0
X78.0Y-62.0
X78.0Y-66.7
X78.0Y-77.2
X78.0Y-80.0
X78.3Y-58.6
X78.3Y-59.2
X78.3Y-63.6
X78.3Y-64.2
X79.0Y-73.2
X79.522Y-73.919
X79.7Y-77.1
X80.4Y-50.0
X80.4Y-50.7
X80.4Y-51.4
X80.4Y-52.0
X81.0Y-50.0
X81.0Y-50.7
X81.0Y-51.35
X81.0Y-52.0
X81.4Y-71.6
X81.4Y-74.8
X115.2Y-62.5
X115.25Y-60.3
X115.4Y-63.8
X116.6Y-63.8
X117.7Y-39.7
X117.7Y-40.3
X117.7Y-51.5
X117.7Y-52.1
X117.8Y-63.8
X117.8Y-65.8
X118.3Y-39.7
X118.3Y-40.3
X118.3Y-51.5
X118.3Y-52.1
X118.8Y-57.6
X119.05Y-78.95
X119.1Y-61.5
X119.8Y-71.3
X119.85Y-73.45
X119.9Y-69.65
X120.237Y-71.654
X120.3Y-71.1
X120.45Y-77.387
X120.6Y-38.3
X120.6Y-43.6
X120.6Y-50.1
X120.6Y-55.4
X120.8Y-34.2
X120.8Y-46.5
X120.8Y-57.6
X122.6Y-36.5
X122.6Y-45.2
X122.6Y-48.3
X122.6Y-56.9
X122.7Y-47.7
X122.8Y-34.2
X122.8Y-46.5
X122.8Y-57.6
X122.9Y-35.8
X123.157Y-72.651
X123.3Y-47.7
X123.3Y-78.9
X123.45Y-73.65
X123.5Y-35.8
X123.8Y-88.9
X124.1Y-74.048
X124.2Y-59.3
X124.8Y-34.2
X124.8Y-46.5
X124.8Y-57.6
X125.2Y-87.5
X125.234Y-64.934
X125.9Y-63.2
X126.4Y-43.49
X126.4Y-44.49
X126.4Y-55.29
X126.4Y-56.29
X126.8Y-34.2
X126.8Y-46.5
X126.8Y-57.6
X127.362Y-87.337
X127.8Y-82.6
X127.8Y-88.1
X127.9Y-67.95
X128.4Y-67.45
X128.4Y-82.6
X128.4Y-87.85
X128.6Y-37.1
X128.6Y-38.1
X128.6Y-43.49
X128.6Y-44.49
X128.6Y-48.9
X128.6Y-49.9
X128.6Y-55.29
X128.6Y-56.29
X128.65Y-71.9
X128.8Y-34.2
X128.8Y-46.5
X128.8Y-57.6
X129.2Y-89.3
X129.5Y-74.4
X129.5Y-77.6
X129.6Y-78.9
X129.85Y-61.75
X129.854Y-75.754
X130.0Y-84.6
X130.1Y-43.49
X130.1Y-44.49
X130.1Y-55.29
X130.1Y-56.29
X130.2Y-39.4
X130.2Y-51.2
X130.444Y-61.144
X130.67Y-87.67
X130.8Y-34.2
X130.8Y-46.5
X131.6Y-84.3
X132.4Y-68.4
X132.5Y-73.4
X132.65Y-67.85
X132.8Y-34.2
X132.8Y-46.5
X132.8Y-57.6
X133.4Y-67.3
X133.8Y-66.9
X134.35Y-61.5
X134.8Y-34.2
X134.8Y-46.5
X135.0Y-80.8
X135.0Y-81.3
X135.1Y-35.2
X135.4Y-56.492
X135.8Y-71.2
X136.0Y-42.9
X136.0Y-54.7
X136.3Y-38.6
X136.3Y-50.4
X136.79Y-76.38
X136.8Y-34.2
X136.8Y-46.5
X136.8Y-75.775
X137.1Y-73.3
X137.5Y-66.2
X137.5Y-67.6
X137.696Y-58.196
X137.8Y-56.979
X137.9Y-62.8
X137.921Y-54.0
X138.0Y-67.0
X138.2Y-62.4
X138.3Y-56.5
X138.6Y-73.2
X139.15Y-71.6
X139.2Y-34.2
X139.2Y-39.2
X139.2Y-41.2
X139.2Y-43.2
X139.2Y-45.2
X139.2Y-47.2
X139.2Y-49.1
X139.2Y-51.2
X139.2Y-65.8
X139.2Y-68.7
X139.2Y-70.7
X139.4Y-65.15
X139.6Y-78.1
X139.6Y-78.7
X139.8Y-36.1
X139.8Y-54.661
X139.8Y-68.2
X139.85Y-88.75
X139.9Y-60.6
X140.3Y-60.2
X140.3Y-68.3
X140.6Y-65.15
X140.8Y-35.0
X140.8Y-36.0
X140.8Y-39.0
X140.8Y-40.0
X140.8Y-77.575
X140.8Y-80.2
X140.9Y-82.1
X141.2Y-45.95
X141.2Y-47.2
X141.6Y-64.3
X141.6Y-65.8
X141.6Y-70.7
X141.6Y-71.6
X141.7Y-45.95
X142.0Y-42.4
X142.1Y-77.075
X142.1Y-80.2
X142.15Y-81.575
X142.15Y-85.4
X142.25Y-53.5
X142.7Y-45.95
X143.2Y-35.0
X143.2Y-36.0
X143.2Y-39.0
X143.2Y-40.0
X143.2Y-44.2
X143.2Y-45.95
X143.2Y-47.2
X143.2Y-48.3
X143.2Y-48.8
X143.25Y-42.2
X143.25Y-43.2
X143.351Y-56.805
X143.4Y-61.3
X143.4Y-79.4
X143.5Y-69.6
X143.5Y-70.7
X143.5Y-72.2
X143.5Y-73.15
X143.6Y-88.9
X144.179Y-57.279
X144.2Y-48.3
X144.2Y-48.8
X144.55Y-40.3
X144.55Y-40.8
X144.6Y-85.45
X144.625Y-79.95
X144.65Y-81.075
X145.079Y-57.079
X145.1Y-80.55
X145.173Y-60.727
X145.2Y-47.2
X145.5Y-39.5
X145.55Y-44.2
X145.6Y-35.6
X145.6Y-37.5
X145.7Y-33.7
X145.7Y-68.8
X145.75Y-58.2
X145.85Y-62.099
X145.85Y-73.2
X145.875Y-80.449
X145.9Y-72.225
X146.0Y-65.9
X146.017Y-45.2
X146.076Y-56.825
X146.1Y-71.4
X146.2Y-33.7
X146.3Y-69.2
X146.8Y-42.15
X146.8Y-43.25
X146.8Y-84.6
X146.8Y-85.1
X146.8Y-85.6
X146.913Y-65.11
X147.2Y-47.2
X147.25Y-41.3
X147.25Y-56.6
X147.25Y-58.768
X147.384Y-49.334
X147.4Y-84.6
X147.4Y-85.1
X147.4Y-85.6
X147.465Y-37.5
X147.475Y-64.9
X147.5Y-35.6
X147.5Y-55.25
X147.55Y-50.85
X147.593Y-39.793
X147.75Y-41.35
X147.95Y-62.45
X148.05Y-59.25
X148.1Y-84.6
X148.1Y-85.1
X148.1Y-85.6
X148.3Y-65.6
X148.3Y-66.6
X148.3Y-67.6
X148.3Y-68.6
X148.3Y-69.6
X148.3Y-70.3
X148.3Y-72.2
X148.3Y-73.05
X148.7Y-84.6
X148.7Y-85.1
X148.7Y-85.6
X148.759Y-62.517
X148.8Y-59.25
X148.9Y-42.45
X148.9Y-43.3
X149.15Y-45.35
X149.158Y-43.816
X149.17Y-46.35
X149.2Y-33.7
X149.215Y-41.118
X149.4Y-35.6
X149.4Y-37.5
X149.4Y-39.5
X149.6Y-60.8
X149.7Y-33.7
X149.75Y-41.252
X149.828Y-54.276
X149.911Y-53.705
X150.258Y-49.908
X150.45Y-53.5
X150.722Y-49.476
X151.349Y-49.639
X151.677Y-37.75
X151.7Y-49.075
X152.15Y-35.35
X152.15Y-36.345
X152.4Y-47.849
X153.1Y-47.2
X153.2Y-39.95
X153.225Y-65.4
X153.23Y-39.05
X153.3Y-41.95
X153.3Y-42.55
X153.4Y-50.25
X153.5Y-44.8
X153.749Y-62.749
X153.95Y-52.95
X154.0Y-55.817
X154.0Y-56.816
X154.3Y-35.45
X154.3Y-36.0
X154.4Y-43.25
X154.4Y-45.2
X154.4Y-47.2
X154.4Y-57.3
X154.5Y-56.3
X154.625Y-39.4
X154.7Y-86.35
X154.8Y-62.2
X154.8Y-70.3
X154.8Y-70.8
X155.3Y-53.1
X155.3Y-70.8
X155.4Y-85.0
X155.435Y-60.735
X155.8Y-64.9
X155.8Y-70.3
X155.8Y-70.8
X155.9Y-49.055
X155.9Y-55.0
X155.959Y-36.764
X156.0Y-56.848
X156.048Y-48.498
X156.2Y-52.8
X156.2Y-83.5
X156.3Y-55.7
X156.35Y-56.35
X156.6Y-81.4
X156.9Y-64.9
X157.1Y-63.15
X157.25Y-67.5
X157.5Y-42.7
X157.5Y-43.2
X157.5Y-69.25
X157.5Y-69.75
X157.538Y-35.405
X157.549Y-36.831
X157.7Y-45.2
X157.7Y-45.7
X157.7Y-73.1
X157.75Y-46.3
X157.75Y-46.8
X157.8Y-89.05
X157.9Y-66.15
X158.0Y-42.7
X158.0Y-43.2
X158.0Y-69.25
X158.0Y-69.75
X158.2Y-45.2
X158.2Y-45.7
X158.25Y-46.3
X158.25Y-46.8
X158.55Y-40.6
X158.55Y-41.1
X158.802Y-36.5
X158.95Y-34.95
X158.95Y-69.25
X158.95Y-69.75
X159.1Y-77.4
X159.1Y-78.0
X159.1Y-78.7
X159.1Y-79.3
X159.15Y-40.6
X159.15Y-41.1
X159.15Y-61.25
X159.2Y-37.05
X159.45Y-46.3
X159.45Y-46.8
X159.45Y-69.25
X159.45Y-69.75
X159.525Y-66.305
X159.6Y-77.4
X159.6Y-78.0
X159.6Y-78.7
X159.6Y-79.3
X159.7Y-38.498
X159.7Y-73.1
X159.7Y-83.9
X160.0Y-36.15
X160.1Y-77.4
X160.1Y-78.0
X160.1Y-78.7
X160.1Y-79.3
X160.15Y-58.65
X160.2Y-71.1
X160.2Y-71.6
X160.45Y-34.52
X160.45Y-35.7
X160.7Y-50.9
X160.7Y-71.1
X160.7Y-71.6
X161.4Y-37.6
X161.563Y-34.075
X161.6Y-36.1
X161.6Y-36.85
X161.65Y-38.35
X161.65Y-63.15
X161.7Y-50.9
X161.7Y-55.8
X161.7Y-66.7
X161.71Y-55.25
X161.85Y-68.55
X162.072Y-34.478
X162.3Y-49.7
X162.8Y-70.5
X162.8Y-71.0
X162.9Y-67.6
X163.2Y-82.2
X163.2Y-83.4
X163.3Y-70.5
X163.3Y-71.0
X163.3Y-80.0
X163.35Y-52.9
X163.45Y-58.65
X163.9Y-41.2
X163.9Y-78.4
X163.9Y-86.2
X164.4Y-41.2
X164.4Y-57.3
X164.4Y-62.0
X164.4Y-63.1
X164.5Y-59.0
X164.6Y-61.0
X164.6Y-85.58
X164.7Y-57.9
X164.9Y-52.9
X164.9Y-55.05
X165.2Y-47.4
X165.2Y-47.9
X165.3Y-66.5
X165.5Y-69.05
X165.5Y-69.55
X165.6Y-82.2
X165.6Y-83.4
X165.75Y-67.6
X165.8Y-47.4
X165.8Y-47.9
X165.95Y-52.3
X166.0Y-69.05
X166.0Y-69.55
X166.05Y-49.7
X166.3Y-66.55
X166.45Y-43.25
X166.5Y-46.3
X166.5Y-46.8
X166.5Y-47.6
X166.5Y-48.15
X166.5Y-52.3
X166.5Y-53.05
X166.5Y-53.55
X166.552Y-41.7
X166.9Y-63.266
X168.05Y-33.4
X168.1Y-80.4
X168.1Y-84.6
X168.2Y-57.05
X169.4Y-84.3
X169.4Y-88.5
X170.5Y-42.5
X170.5Y-61.5
X170.5Y-66.45
X170.5Y-66.95
X170.8Y-58.0
X170.8Y-58.8
X171.05Y-62.0
X171.1Y-66.45
X171.1Y-66.95
X171.5Y-58.0
X171.5Y-58.8
X171.5Y-62.5
X172.1Y-47.6
X172.1Y-49.9
X172.1Y-52.3
X172.2Y-58.0
X172.2Y-58.8
X172.2Y-59.5
X172.2Y-60.2
X172.2Y-78.3
X172.2Y-84.3
X172.35Y-40.9
X172.9Y-63.107
X173.0Y-62.5
X173.25Y-64.5
X173.25Y-66.5
X206.2Y-37.7
X208.0Y-36.0
X208.0Y-46.0
X208.0Y-56.0
X208.0Y-66.0
X209.5Y-39.6
X209.5Y-40.2
X209.9Y-38.6
X209.9Y-39.1
X210.158Y-39.616
X210.2Y-40.2
X211.1Y-43.275
X211.6Y-43.3
X211.7Y-38.6
X211.7Y-39.1
X211.75Y-45.1
X211.75Y-45.6
X211.9Y-49.3
X212.0Y-52.3
X212.0Y-55.85
X212.05Y-59.7
X212.25Y-45.1
X212.25Y-45.6
X212.75Y-45.1
X212.75Y-45.6
X213.55Y-64.35
X213.7Y-38.65
X213.7Y-39.15
X214.8Y-45.0
X214.8Y-45.5
X214.8Y-63.401
X215.15Y-59.9
X215.2Y-55.8
X215.25Y-52.35
X215.321Y-49.2
X216.8Y-59.95
X217.45Y-68.95
X218.0Y-36.0
X218.0Y-56.0
X218.1Y-65.5
X218.18Y-60.51
X218.18Y-61.51
X218.5Y-38.65
X218.5Y-39.15
X219.68Y-60.51
X219.68Y-61.51
X219.68Y-66.9
X219.68Y-67.9
X220.3Y-38.65
X220.3Y-39.15
X220.75Y-52.4
X221.88Y-60.51
X221.88Y-61.51
X222.7Y-68.9
X223.65Y-60.6
X224.3Y-47.2
X224.3Y-50.7
X224.3Y-54.1
X225.0Y-46.648
X225.15Y-38.65
X225.15Y-39.15
X225.5Y-44.55
X225.5Y-45.05
X225.5Y-45.75
X225.5Y-46.25
X225.65Y-50.75
X226.0Y-46.5
X226.141Y-42.901
X226.675Y-67.7
X226.7Y-41.998
X226.7Y-60.55
X227.05Y-43.002
X227.05Y-47.95
X227.05Y-62.5
X227.2Y-52.3
X227.3Y-57.1
X227.35Y-38.65
X227.35Y-39.15
X227.45Y-41.1
X227.45Y-41.6
X227.45Y-49.2
X227.45Y-49.7
X227.45Y-50.4
X227.45Y-50.9
X227.7Y-60.7
X228.0Y-36.0
X228.0Y-66.0
X228.15Y-55.9
X228.85Y-37.6
X228.85Y-38.1
X228.85Y-38.75
X228.85Y-39.25
X229.35Y-37.6
X229.35Y-38.1
X229.35Y-54.4
X229.4Y-61.4
X229.4Y-62.5
X229.4Y-63.6
X229.9Y-61.4
X229.9Y-62.5
X229.9Y-63.6
X229.9Y-64.8
X229.9Y-65.9
X229.9Y-67.0
X230.4Y-60.2
X231.1Y-68.772
X231.4Y-59.15
X231.55Y-63.171
X231.55Y-64.3
X232.2Y-57.3
X232.6Y-63.2
X232.6Y-65.2
X233.15Y-44.75
X233.15Y-46.0
X233.15Y-47.25
X233.6Y-63.2
X233.6Y-65.2
X234.35Y-59.252
X235.0Y-67.3
X235.1Y-40.1
X235.1Y-41.35
X235.1Y-42.6
X235.1Y-49.35
X235.1Y-50.65
X235.1Y-51.9
X235.1Y-61.4
X235.998Y-59.702
X236.5Y-63.9
X236.5Y-64.5
X236.55Y-45.3
X236.75Y-37.7
X236.75Y-54.3
X236.821Y-68.243
X237.0Y-63.9
X237.0Y-64.5
X237.05Y-45.3
X237.75Y-45.3
X237.75Y-46.7
X238.0Y-36.0
X238.0Y-37.7
X238.0Y-54.3
X238.0Y-56.0
X238.0Y-59.4
X238.0Y-60.0
X238.0Y-60.5
X238.0Y-61.1
X238.0Y-66.0
X238.0Y-67.0
X238.0Y-67.6
X238.0Y-68.2
X238.0Y-68.8
X238.25Y-45.3
X238.25Y-46.7
X238.95Y-46.7
X239.0Y-63.9
X239.0Y-64.5
X239.1Y-68.15
X239.25Y-37.7
X239.25Y-54.3
X239.45Y-46.7
X239.5Y-63.9
X239.5Y-64.5
X240.028Y-59.675
X240.9Y-40.1
X240.9Y-41.35
X240.95Y-42.65
X240.95Y-49.375
X240.95Y-50.65
X240.95Y-51.925
X242.4Y-63.15
X242.4Y-65.2
X242.9Y-44.75
X242.9Y-46.0
X242.9Y-47.25
X242.948Y-60.823
X243.25Y-58.348
X243.689Y-63.1
X243.7Y-65.4
X244.1Y-64.2
X244.55Y-69.5
X244.7Y-64.2
X245.3Y-58.4
X245.95Y-55.7
X246.1Y-61.4
X246.1Y-62.5
X246.1Y-63.6
X246.1Y-64.8
X246.1Y-65.9
X246.1Y-67.0
X247.35Y-58.45
X248.0Y-36.0
X248.0Y-55.7
X248.0Y-66.0
X248.55Y-50.3
X248.55Y-51.0
X248.55Y-51.6
X248.55Y-52.1
X248.57Y-41.1
X248.57Y-41.6
X248.57Y-42.3
X248.57Y-42.8
X248.6Y-53.0
X249.198Y-49.901
X249.65Y-48.898
X250.15Y-55.7
X250.45Y-49.85
X250.45Y-52.3
X250.5Y-45.75
X250.5Y-46.25
X250.5Y-46.95
X250.5Y-47.45
X251.2Y-44.248
X251.8Y-44.8
X251.8Y-47.1
X251.8Y-49.9
X251.8Y-52.3
X258.0Y-36.0
X258.0Y-56.0
X258.0Y-66.0
X268.0Y-36.0
X268.0Y-46.0
X268.0Y-56.0
X268.0Y-66.0
T4
X27.6Y-38.0
X27.6Y-86.0
X28.303Y-36.303
X28.303Y-39.697
X28.303Y-84.303
X28.303Y-87.697
X30.0Y-35.6
X30.0Y-40.4
X30.0Y-83.6
X30.0Y-88.4
X31.697Y-36.303
X31.697Y-39.697
X31.697Y-84.303
X31.697Y-87.697
X32.4Y-38.0
X32.4Y-86.0
X75.6Y-38.0
X75.6Y-86.0
X76.303Y-36.303
X76.303Y-39.697
X76.303Y-84.303
X76.303Y-87.697
X78.0Y-35.6
X78.0Y-40.4
X78.0Y-83.6
X78.0Y-88.4
X79.697Y-36.303
X79.697Y-39.697
X79.697Y-84.303
X79.697Y-87.697
X80.4Y-38.0
X80.4Y-86.0
X117.6Y-86.05
X118.303Y-84.353
X118.303Y-87.747
X120.0Y-83.65
X120.0Y-88.45
X121.697Y-84.353
X121.697Y-87.747
X122.4Y-86.05
X165.6Y-38.05
X166.303Y-36.353
X166.303Y-39.747
X168.0Y-35.65
X168.0Y-40.45
X169.697Y-36.353
X169.697Y-39.747
X170.4Y-38.05
X217.6Y-46.0
X218.303Y-44.303
X218.303Y-47.697
X220.0Y-43.6
X220.0Y-48.4
X221.697Y-44.303
X221.697Y-47.697
X222.4Y-46.0
X253.6Y-46.0
X254.303Y-44.303
X254.303Y-47.697
X256.0Y-43.6
X256.0Y-48.4
X257.697Y-44.303
X257.697Y-47.697
X258.4Y-46.0
T5
X134.0Y-77.2
X134.0Y-78.47
X134.0Y-79.74
X134.0Y-81.01
T6
X27.0Y-56.425
X27.0Y-58.965
X27.0Y-61.505
X27.0Y-64.045
X27.0Y-66.585
T7
X30.0Y-38.0
X30.0Y-86.0
X78.0Y-38.0
X78.0Y-86.0
X120.0Y-86.05
X168.0Y-38.05
X220.0Y-46.0
X256.0Y-46.0
T5
G00X167.775Y-45.63
M15
G01X168.775Y-45.63
M16
G05
G00X167.775Y-54.27
M15
G01X168.775Y-54.27
M16
G05
G00X171.6Y-45.63
M15
G01X172.6Y-45.63
M16
G05
G00X171.6Y-54.27
M15
G01X172.6Y-54.27
M16
G05
T0
M30
