M48
; DRILL file {KiCad 7.0.5-7.0.5~ubuntu22.04.1} date Tue 04 Jul 2023 15:33:46
; FORMAT={-:-/ absolute / metric / decimal}
; #@! TF.CreationDate,2023-07-04T15:33:46+02:00
; #@! TF.GenerationSoftware,Kicad,Pcbnew,7.0.5-7.0.5~ubuntu22.04.1
; #@! TF.FileFunction,NonPlated,1,4,NPTH
FMAT,2
METRIC
; #@! TA.AperFunction,NonPlated,NPTH,ComponentDrill
T1C0.500
; #@! TA.AperFunction,NonPlated,NPTH,ComponentDrill
T2C0.650
; #@! TA.AperFunction,NonPlated,NPTH,ComponentDrill
T3C0.991
; #@! TA.AperFunction,NonPlated,NPTH,ComponentDrill
T4C2.375
%
G90
G05
T1
X35.0Y-42.0
X35.0Y-260.0
X35.833Y-42.0
X35.833Y-260.0
X36.667Y-42.0
X36.667Y-260.0
X37.5Y-42.0
X37.5Y-260.0
X38.333Y-42.0
X38.333Y-260.0
X39.167Y-42.0
X39.167Y-260.0
X40.0Y-42.0
X40.0Y-260.0
X42.0Y-58.687
X42.0Y-59.562
X42.0Y-60.438
X42.0Y-61.313
X42.0Y-62.188
X42.0Y-74.249
X42.0Y-75.125
X42.0Y-76.0
X42.0Y-76.875
X42.0Y-77.751
X42.0Y-89.749
X42.0Y-90.624
X42.0Y-91.5
X42.0Y-92.375
X42.0Y-93.251
X42.0Y-112.0
X42.0Y-113.0
X42.0Y-114.0
X42.0Y-115.0
X42.0Y-133.686
X42.0Y-134.562
X42.0Y-135.438
X42.0Y-136.313
X42.0Y-137.188
X42.0Y-149.249
X42.0Y-150.124
X42.0Y-151.0
X42.0Y-151.875
X42.0Y-152.751
X42.0Y-164.749
X42.0Y-165.624
X42.0Y-166.5
X42.0Y-167.375
X42.0Y-168.251
X42.0Y-187.0
X42.0Y-188.0
X42.0Y-189.0
X42.0Y-190.0
X42.0Y-208.686
X42.0Y-209.562
X42.0Y-210.438
X42.0Y-211.313
X42.0Y-212.188
X42.0Y-224.249
X42.0Y-225.124
X42.0Y-226.0
X42.0Y-226.875
X42.0Y-227.751
X42.0Y-239.749
X42.0Y-240.624
X42.0Y-241.5
X42.0Y-242.375
X42.0Y-243.251
X62.049Y-46.0
X62.049Y-106.0
X62.049Y-121.0
X62.049Y-181.0
X62.049Y-196.0
X62.049Y-256.0
X62.925Y-46.0
X62.925Y-106.0
X62.925Y-121.0
X62.925Y-181.0
X62.925Y-196.0
X62.925Y-256.0
X62.95Y-42.0
X62.95Y-260.0
X63.8Y-42.0
X63.8Y-260.0
X63.8Y-46.0
X63.8Y-106.0
X63.8Y-121.0
X63.8Y-181.0
X63.8Y-196.0
X63.8Y-256.0
X64.65Y-42.0
X64.65Y-260.0
X64.675Y-46.0
X64.675Y-106.0
X64.675Y-121.0
X64.675Y-181.0
X64.675Y-196.0
X64.675Y-256.0
X65.551Y-46.0
X65.551Y-106.0
X65.551Y-121.0
X65.551Y-181.0
X65.551Y-196.0
X65.551Y-256.0
X78.649Y-46.0
X78.649Y-106.0
X78.649Y-121.0
X78.649Y-181.0
X78.649Y-196.0
X78.649Y-256.0
X79.525Y-46.0
X79.525Y-106.0
X79.525Y-121.0
X79.525Y-181.0
X79.525Y-196.0
X79.525Y-256.0
X79.549Y-42.0
X79.55Y-260.0
X80.4Y-42.0
X80.4Y-46.0
X80.4Y-106.0
X80.4Y-121.0
X80.4Y-181.0
X80.4Y-196.0
X80.4Y-256.0
X80.4Y-260.0
X81.25Y-42.0
X81.251Y-260.0
X81.275Y-46.0
X81.275Y-106.0
X81.275Y-121.0
X81.275Y-181.0
X81.275Y-196.0
X81.275Y-256.0
X82.151Y-46.0
X82.151Y-106.0
X82.151Y-121.0
X82.151Y-181.0
X82.151Y-196.0
X82.151Y-256.0
X102.0Y-62.249
X102.0Y-63.125
X102.0Y-64.0
X102.0Y-64.876
X102.0Y-65.751
X102.0Y-83.999
X102.0Y-84.874
X102.0Y-85.75
X102.0Y-86.625
X102.0Y-87.501
X102.0Y-112.0
X102.0Y-113.0
X102.0Y-114.0
X102.0Y-115.0
X102.0Y-137.249
X102.0Y-138.124
X102.0Y-139.0
X102.0Y-139.875
X102.0Y-140.751
X102.0Y-158.999
X102.0Y-159.874
X102.0Y-160.75
X102.0Y-161.625
X102.0Y-162.501
X102.0Y-187.0
X102.0Y-188.0
X102.0Y-189.0
X102.0Y-190.0
X102.0Y-212.249
X102.0Y-213.124
X102.0Y-214.0
X102.0Y-214.875
X102.0Y-215.751
X102.0Y-233.999
X102.0Y-234.874
X102.0Y-235.75
X102.0Y-236.625
X102.0Y-237.501
X104.0Y-42.0
X104.0Y-260.0
X105.0Y-42.0
X105.0Y-260.0
X106.0Y-42.0
X106.0Y-260.0
X107.0Y-42.0
X107.0Y-260.0
X109.0Y-58.687
X109.0Y-59.562
X109.0Y-60.438
X109.0Y-61.313
X109.0Y-62.188
X109.0Y-74.249
X109.0Y-75.125
X109.0Y-76.0
X109.0Y-76.875
X109.0Y-77.751
X109.0Y-89.811
X109.0Y-90.687
X109.0Y-91.562
X109.0Y-92.438
X109.0Y-93.313
X109.0Y-112.0
X109.0Y-113.0
X109.0Y-114.0
X109.0Y-115.0
X109.0Y-133.686
X109.0Y-134.562
X109.0Y-135.438
X109.0Y-136.313
X109.0Y-137.188
X109.0Y-149.249
X109.0Y-150.124
X109.0Y-151.0
X109.0Y-151.875
X109.0Y-152.751
X109.0Y-164.811
X109.0Y-165.687
X109.0Y-166.562
X109.0Y-167.438
X109.0Y-168.313
X109.0Y-187.0
X109.0Y-188.0
X109.0Y-189.0
X109.0Y-190.0
X109.0Y-208.686
X109.0Y-209.562
X109.0Y-210.438
X109.0Y-211.313
X109.0Y-212.188
X109.0Y-224.249
X109.0Y-225.124
X109.0Y-226.0
X109.0Y-226.875
X109.0Y-227.751
X109.0Y-239.811
X109.0Y-240.687
X109.0Y-241.562
X109.0Y-242.438
X109.0Y-243.313
X129.049Y-46.0
X129.049Y-106.0
X129.049Y-121.0
X129.049Y-181.0
X129.049Y-196.0
X129.049Y-256.0
X129.925Y-46.0
X129.925Y-106.0
X129.925Y-121.0
X129.925Y-181.0
X129.925Y-196.0
X129.925Y-256.0
X129.95Y-42.0
X129.95Y-260.0
X130.8Y-42.0
X130.8Y-260.0
X130.8Y-46.0
X130.8Y-121.0
X130.8Y-196.0
X130.8Y-106.0
X130.8Y-181.0
X130.8Y-256.0
X131.65Y-42.0
X131.65Y-260.0
X131.675Y-46.0
X131.675Y-106.0
X131.675Y-121.0
X131.675Y-181.0
X131.675Y-196.0
X131.675Y-256.0
X132.551Y-46.0
X132.551Y-106.0
X132.551Y-121.0
X132.551Y-181.0
X132.551Y-196.0
X132.551Y-256.0
X145.649Y-46.0
X145.649Y-106.0
X145.649Y-121.0
X145.649Y-181.0
X145.649Y-196.0
X145.649Y-256.0
X146.524Y-46.0
X146.524Y-106.0
X146.524Y-121.0
X146.524Y-181.0
X146.524Y-196.0
X146.524Y-256.0
X146.549Y-42.0
X146.55Y-260.0
X147.4Y-42.0
X147.4Y-46.0
X147.4Y-106.0
X147.4Y-121.0
X147.4Y-181.0
X147.4Y-196.0
X147.4Y-256.0
X147.4Y-260.0
X148.25Y-42.0
X148.25Y-260.0
X148.275Y-46.0
X148.275Y-106.0
X148.275Y-121.0
X148.275Y-181.0
X148.275Y-196.0
X148.275Y-256.0
X149.151Y-46.0
X149.151Y-106.0
X149.151Y-121.0
X149.151Y-181.0
X149.151Y-196.0
X149.151Y-256.0
X167.0Y-74.249
X167.0Y-75.125
X167.0Y-76.0
X167.0Y-76.875
X167.0Y-77.751
X167.0Y-149.249
X167.0Y-150.124
X167.0Y-151.0
X167.0Y-151.875
X167.0Y-152.751
X167.0Y-224.249
X167.0Y-225.124
X167.0Y-226.0
X167.0Y-226.875
X167.0Y-227.751
X169.0Y-58.687
X169.0Y-59.562
X169.0Y-60.438
X169.0Y-61.313
X169.0Y-62.188
X169.0Y-89.811
X169.0Y-90.687
X169.0Y-91.562
X169.0Y-92.438
X169.0Y-93.313
X169.0Y-112.0
X169.0Y-113.0
X169.0Y-114.0
X169.0Y-115.0
X169.0Y-133.686
X169.0Y-134.562
X169.0Y-135.438
X169.0Y-136.313
X169.0Y-137.188
X169.0Y-164.811
X169.0Y-165.687
X169.0Y-166.562
X169.0Y-167.438
X169.0Y-168.313
X169.0Y-187.0
X169.0Y-188.0
X169.0Y-189.0
X169.0Y-190.0
X169.0Y-208.686
X169.0Y-209.562
X169.0Y-210.438
X169.0Y-211.313
X169.0Y-212.188
X169.0Y-239.811
X169.0Y-240.687
X169.0Y-241.562
X169.0Y-242.438
X169.0Y-243.313
X171.0Y-42.0
X171.0Y-260.0
X172.0Y-42.0
X172.0Y-260.0
X173.0Y-42.0
X173.0Y-260.0
X174.0Y-42.0
X174.0Y-260.0
X176.0Y-56.68
X176.0Y-57.556
X176.0Y-58.431
X176.0Y-59.307
X176.0Y-60.182
X176.0Y-74.243
X176.0Y-75.118
X176.0Y-75.994
X176.0Y-76.869
X176.0Y-77.745
X176.0Y-91.805
X176.0Y-92.681
X176.0Y-93.556
X176.0Y-94.432
X176.0Y-95.307
X176.0Y-111.994
X176.0Y-112.994
X176.0Y-113.994
X176.0Y-114.994
X176.0Y-131.68
X176.0Y-132.556
X176.0Y-133.431
X176.0Y-134.307
X176.0Y-135.182
X176.0Y-149.243
X176.0Y-150.118
X176.0Y-150.994
X176.0Y-151.869
X176.0Y-152.745
X176.0Y-166.805
X176.0Y-167.681
X176.0Y-168.556
X176.0Y-169.432
X176.0Y-170.307
X176.0Y-186.994
X176.0Y-187.994
X176.0Y-188.994
X176.0Y-189.994
X176.0Y-206.68
X176.0Y-207.556
X176.0Y-208.431
X176.0Y-209.307
X176.0Y-210.182
X176.0Y-224.243
X176.0Y-225.118
X176.0Y-225.994
X176.0Y-226.869
X176.0Y-227.745
X176.0Y-241.805
X176.0Y-242.681
X176.0Y-243.556
X176.0Y-244.432
X176.0Y-245.307
X183.187Y-41.994
X183.187Y-109.994
X183.187Y-116.994
X183.187Y-184.994
X183.187Y-191.994
X183.187Y-259.994
X184.062Y-41.994
X184.062Y-109.994
X184.062Y-116.994
X184.062Y-184.994
X184.062Y-191.994
X184.062Y-259.994
X184.938Y-41.994
X184.938Y-109.994
X184.938Y-116.994
X184.938Y-184.994
X184.938Y-191.994
X184.938Y-259.994
X185.813Y-41.994
X185.813Y-109.994
X185.813Y-116.994
X185.813Y-184.994
X185.813Y-191.994
X185.813Y-259.994
X186.689Y-41.994
X186.689Y-109.994
X186.689Y-116.994
X186.689Y-184.994
X186.689Y-191.994
X186.689Y-259.994
X193.249Y-41.994
X193.249Y-109.994
X193.249Y-116.994
X193.249Y-184.994
X193.249Y-191.994
X193.249Y-259.994
X194.125Y-41.994
X194.125Y-109.994
X194.125Y-116.994
X194.125Y-184.994
X194.125Y-191.994
X194.125Y-259.994
X195.0Y-41.994
X195.0Y-109.994
X195.0Y-116.994
X195.0Y-184.994
X195.0Y-191.994
X195.0Y-259.994
X195.875Y-41.994
X195.875Y-109.994
X195.875Y-116.994
X195.875Y-184.994
X195.875Y-191.994
X195.875Y-259.994
X196.751Y-41.994
X196.751Y-109.994
X196.751Y-116.994
X196.751Y-184.994
X196.751Y-191.994
X196.751Y-259.994
X203.311Y-41.994
X203.311Y-109.994
X203.311Y-116.994
X203.311Y-184.994
X203.311Y-191.994
X203.311Y-259.994
X204.187Y-41.994
X204.187Y-109.994
X204.187Y-116.994
X204.187Y-184.994
X204.187Y-191.994
X204.187Y-259.994
X205.062Y-41.994
X205.062Y-109.994
X205.062Y-116.994
X205.062Y-184.994
X205.062Y-191.994
X205.062Y-259.994
X205.938Y-41.994
X205.938Y-109.994
X205.938Y-116.994
X205.938Y-184.994
X205.938Y-191.994
X205.938Y-259.994
X206.813Y-41.994
X206.813Y-109.994
X206.813Y-116.994
X206.813Y-184.994
X206.813Y-191.994
X206.813Y-259.994
X214.0Y-56.68
X214.0Y-57.556
X214.0Y-58.431
X214.0Y-59.307
X214.0Y-60.182
X214.0Y-91.805
X214.0Y-92.681
X214.0Y-93.556
X214.0Y-94.432
X214.0Y-95.307
X214.0Y-131.68
X214.0Y-132.556
X214.0Y-133.431
X214.0Y-134.307
X214.0Y-135.182
X214.0Y-166.805
X214.0Y-167.681
X214.0Y-168.556
X214.0Y-169.432
X214.0Y-170.307
X214.0Y-206.68
X214.0Y-207.556
X214.0Y-208.431
X214.0Y-209.307
X214.0Y-210.182
X214.0Y-241.805
X214.0Y-242.681
X214.0Y-243.556
X214.0Y-244.432
X214.0Y-245.307
X216.0Y-41.994
X216.0Y-111.994
X216.0Y-111.994
X216.0Y-112.994
X216.0Y-113.994
X216.0Y-114.994
X216.0Y-114.994
X216.0Y-186.994
X216.0Y-186.994
X216.0Y-187.994
X216.0Y-188.994
X216.0Y-189.994
X216.0Y-189.994
X216.0Y-259.994
X217.0Y-41.994
X217.0Y-111.994
X217.0Y-114.994
X217.0Y-186.994
X217.0Y-189.994
X217.0Y-259.994
X218.0Y-41.994
X218.0Y-111.994
X218.0Y-114.994
X218.0Y-186.994
X218.0Y-189.994
X218.0Y-259.994
X219.0Y-41.994
X219.0Y-111.994
X219.0Y-111.994
X219.0Y-112.994
X219.0Y-113.994
X219.0Y-114.994
X219.0Y-114.994
X219.0Y-186.994
X219.0Y-186.994
X219.0Y-187.994
X219.0Y-188.994
X219.0Y-189.994
X219.0Y-189.994
X219.0Y-259.994
X221.0Y-56.68
X221.0Y-57.556
X221.0Y-58.431
X221.0Y-59.307
X221.0Y-60.182
X221.0Y-74.243
X221.0Y-75.118
X221.0Y-75.994
X221.0Y-76.869
X221.0Y-77.745
X221.0Y-91.805
X221.0Y-92.681
X221.0Y-93.556
X221.0Y-94.432
X221.0Y-95.307
X221.0Y-131.68
X221.0Y-132.556
X221.0Y-133.431
X221.0Y-134.307
X221.0Y-135.182
X221.0Y-149.243
X221.0Y-150.118
X221.0Y-150.994
X221.0Y-151.869
X221.0Y-152.745
X221.0Y-166.805
X221.0Y-167.681
X221.0Y-168.556
X221.0Y-169.432
X221.0Y-170.307
X221.0Y-206.68
X221.0Y-207.556
X221.0Y-208.431
X221.0Y-209.307
X221.0Y-210.182
X221.0Y-224.243
X221.0Y-225.118
X221.0Y-225.994
X221.0Y-226.869
X221.0Y-227.745
X221.0Y-241.805
X221.0Y-242.681
X221.0Y-243.556
X221.0Y-244.432
X221.0Y-245.307
X228.186Y-41.994
X228.186Y-109.994
X228.186Y-116.994
X228.186Y-184.994
X228.186Y-191.994
X228.186Y-259.994
X229.062Y-41.994
X229.062Y-109.994
X229.062Y-116.994
X229.062Y-184.994
X229.062Y-191.994
X229.062Y-259.994
X229.938Y-41.994
X229.938Y-109.994
X229.938Y-116.994
X229.938Y-184.994
X229.938Y-191.994
X229.938Y-259.994
X230.813Y-41.994
X230.813Y-109.994
X230.813Y-116.994
X230.813Y-184.994
X230.813Y-191.994
X230.813Y-259.994
X231.688Y-41.994
X231.688Y-109.994
X231.688Y-116.994
X231.688Y-184.994
X231.688Y-191.994
X231.688Y-259.994
X238.249Y-41.994
X238.249Y-109.994
X238.249Y-116.994
X238.249Y-184.994
X238.249Y-191.994
X238.249Y-259.994
X239.124Y-41.994
X239.124Y-109.994
X239.124Y-116.994
X239.124Y-184.994
X239.124Y-191.994
X239.124Y-259.994
X240.0Y-41.994
X240.0Y-109.994
X240.0Y-116.994
X240.0Y-184.994
X240.0Y-191.994
X240.0Y-259.994
X240.875Y-41.994
X240.875Y-109.994
X240.875Y-116.994
X240.875Y-184.994
X240.875Y-191.994
X240.875Y-259.994
X241.751Y-41.994
X241.751Y-109.994
X241.751Y-116.994
X241.751Y-184.994
X241.751Y-191.994
X241.751Y-259.994
X248.311Y-41.994
X248.311Y-109.994
X248.311Y-116.994
X248.311Y-184.994
X248.311Y-191.994
X248.311Y-259.994
X249.187Y-41.994
X249.187Y-109.994
X249.187Y-116.994
X249.187Y-184.994
X249.187Y-191.994
X249.187Y-259.994
X250.062Y-41.994
X250.062Y-109.994
X250.062Y-116.994
X250.062Y-184.994
X250.062Y-191.994
X250.062Y-259.994
X250.938Y-41.994
X250.938Y-109.994
X250.938Y-116.994
X250.938Y-184.994
X250.938Y-191.994
X250.938Y-259.994
X251.813Y-41.994
X251.813Y-109.994
X251.813Y-116.994
X251.813Y-184.994
X251.813Y-191.994
X251.813Y-259.994
X259.0Y-56.68
X259.0Y-57.556
X259.0Y-58.431
X259.0Y-59.307
X259.0Y-60.182
X259.0Y-91.805
X259.0Y-92.681
X259.0Y-93.556
X259.0Y-94.432
X259.0Y-95.307
X259.0Y-111.994
X259.0Y-112.994
X259.0Y-113.994
X259.0Y-114.994
X259.0Y-131.68
X259.0Y-132.556
X259.0Y-133.431
X259.0Y-134.307
X259.0Y-135.182
X259.0Y-166.805
X259.0Y-167.681
X259.0Y-168.556
X259.0Y-169.432
X259.0Y-170.307
X259.0Y-186.994
X259.0Y-187.994
X259.0Y-188.994
X259.0Y-189.994
X259.0Y-206.68
X259.0Y-207.556
X259.0Y-208.431
X259.0Y-209.307
X259.0Y-210.182
X259.0Y-241.805
X259.0Y-242.681
X259.0Y-243.556
X259.0Y-244.432
X259.0Y-245.307
X261.0Y-42.0
X261.0Y-260.0
X261.833Y-42.0
X261.833Y-260.0
X262.667Y-42.0
X262.667Y-260.0
X263.5Y-42.0
X263.5Y-260.0
X264.333Y-42.0
X264.333Y-260.0
X265.167Y-42.0
X265.167Y-260.0
X266.0Y-42.0
X266.0Y-260.0
T2
X97.0Y-66.95
X97.0Y-141.95
X97.0Y-216.95
X183.4Y-75.994
X183.4Y-150.994
X183.4Y-225.994
X185.35Y-71.344
X185.35Y-80.644
X185.35Y-146.344
X185.35Y-155.644
X185.35Y-221.344
X185.35Y-230.644
X190.0Y-69.394
X190.0Y-82.594
X190.0Y-144.394
X190.0Y-157.594
X190.0Y-219.394
X190.0Y-232.594
X194.65Y-71.344
X194.65Y-80.644
X194.65Y-146.344
X194.65Y-155.644
X194.65Y-221.344
X194.65Y-230.644
X196.6Y-75.994
X196.6Y-150.994
X196.6Y-225.994
X228.4Y-75.994
X228.4Y-150.994
X228.4Y-225.994
X230.35Y-71.344
X230.35Y-80.644
X230.35Y-146.344
X230.35Y-155.644
X230.35Y-221.344
X230.35Y-230.644
X235.0Y-69.394
X235.0Y-82.594
X235.0Y-144.394
X235.0Y-157.594
X235.0Y-219.394
X235.0Y-232.594
X239.65Y-71.344
X239.65Y-80.644
X239.65Y-146.344
X239.65Y-155.644
X239.65Y-221.344
X239.65Y-230.644
X241.6Y-75.994
X241.6Y-150.994
X241.6Y-225.994
T3
X52.32Y-99.184
X52.32Y-101.216
X52.32Y-174.184
X52.32Y-176.216
X52.32Y-249.184
X52.32Y-251.216
X62.48Y-100.2
X62.48Y-175.2
X62.48Y-250.2
T4
X54.225Y-97.66
X54.225Y-102.74
X54.225Y-172.66
X54.225Y-177.74
X54.225Y-247.66
X54.225Y-252.74
X62.48Y-97.66
X62.48Y-102.74
X62.48Y-172.66
X62.48Y-177.74
X62.48Y-247.66
X62.48Y-252.74
T2
G00X97.0Y-61.075
M15
G01X97.0Y-60.825
M16
G05
G00X97.0Y-136.075
M15
G01X97.0Y-135.825
M16
G05
G00X97.0Y-211.075
M15
G01X97.0Y-210.825
M16
G05
T0
M30
