%TF.GenerationSoftware,KiCad,Pcbnew,7.0.5-7.0.5~ubuntu22.04.1*%
%TF.CreationDate,2023-07-04T15:33:40+02:00*%
%TF.ProjectId,panel,70616e65-6c2e-46b6-9963-61645f706362,C*%
%TF.SameCoordinates,Original*%
%TF.FileFunction,AssemblyDrawing,Bot*%
%FSLAX46Y46*%
G04 Gerber Fmt 4.6, Leading zero omitted, Abs format (unit mm)*
G04 Created by KiCad (PCBNEW 7.0.5-7.0.5~ubuntu22.04.1) date 2023-07-04 15:33:40*
%MOMM*%
%LPD*%
G01*
G04 APERTURE LIST*
%ADD10C,0.150000*%
%ADD11C,0.100000*%
G04 APERTURE END LIST*
D10*
%TO.C,JP1*%
X166973810Y-77027438D02*
X167069048Y-76979819D01*
X167069048Y-76979819D02*
X167211905Y-76979819D01*
X167211905Y-76979819D02*
X167354762Y-77027438D01*
X167354762Y-77027438D02*
X167450000Y-77122676D01*
X167450000Y-77122676D02*
X167497619Y-77217914D01*
X167497619Y-77217914D02*
X167545238Y-77408390D01*
X167545238Y-77408390D02*
X167545238Y-77551247D01*
X167545238Y-77551247D02*
X167497619Y-77741723D01*
X167497619Y-77741723D02*
X167450000Y-77836961D01*
X167450000Y-77836961D02*
X167354762Y-77932200D01*
X167354762Y-77932200D02*
X167211905Y-77979819D01*
X167211905Y-77979819D02*
X167116667Y-77979819D01*
X167116667Y-77979819D02*
X166973810Y-77932200D01*
X166973810Y-77932200D02*
X166926191Y-77884580D01*
X166926191Y-77884580D02*
X166926191Y-77551247D01*
X166926191Y-77551247D02*
X167116667Y-77551247D01*
X166497619Y-77979819D02*
X166497619Y-76979819D01*
X166497619Y-76979819D02*
X165926191Y-77979819D01*
X165926191Y-77979819D02*
X165926191Y-76979819D01*
X165497619Y-77932200D02*
X165354762Y-77979819D01*
X165354762Y-77979819D02*
X165116667Y-77979819D01*
X165116667Y-77979819D02*
X165021429Y-77932200D01*
X165021429Y-77932200D02*
X164973810Y-77884580D01*
X164973810Y-77884580D02*
X164926191Y-77789342D01*
X164926191Y-77789342D02*
X164926191Y-77694104D01*
X164926191Y-77694104D02*
X164973810Y-77598866D01*
X164973810Y-77598866D02*
X165021429Y-77551247D01*
X165021429Y-77551247D02*
X165116667Y-77503628D01*
X165116667Y-77503628D02*
X165307143Y-77456009D01*
X165307143Y-77456009D02*
X165402381Y-77408390D01*
X165402381Y-77408390D02*
X165450000Y-77360771D01*
X165450000Y-77360771D02*
X165497619Y-77265533D01*
X165497619Y-77265533D02*
X165497619Y-77170295D01*
X165497619Y-77170295D02*
X165450000Y-77075057D01*
X165450000Y-77075057D02*
X165402381Y-77027438D01*
X165402381Y-77027438D02*
X165307143Y-76979819D01*
X165307143Y-76979819D02*
X165069048Y-76979819D01*
X165069048Y-76979819D02*
X164926191Y-77027438D01*
X164545238Y-77932200D02*
X164402381Y-77979819D01*
X164402381Y-77979819D02*
X164164286Y-77979819D01*
X164164286Y-77979819D02*
X164069048Y-77932200D01*
X164069048Y-77932200D02*
X164021429Y-77884580D01*
X164021429Y-77884580D02*
X163973810Y-77789342D01*
X163973810Y-77789342D02*
X163973810Y-77694104D01*
X163973810Y-77694104D02*
X164021429Y-77598866D01*
X164021429Y-77598866D02*
X164069048Y-77551247D01*
X164069048Y-77551247D02*
X164164286Y-77503628D01*
X164164286Y-77503628D02*
X164354762Y-77456009D01*
X164354762Y-77456009D02*
X164450000Y-77408390D01*
X164450000Y-77408390D02*
X164497619Y-77360771D01*
X164497619Y-77360771D02*
X164545238Y-77265533D01*
X164545238Y-77265533D02*
X164545238Y-77170295D01*
X164545238Y-77170295D02*
X164497619Y-77075057D01*
X164497619Y-77075057D02*
X164450000Y-77027438D01*
X164450000Y-77027438D02*
X164354762Y-76979819D01*
X164354762Y-76979819D02*
X164116667Y-76979819D01*
X164116667Y-76979819D02*
X163973810Y-77027438D01*
X163783334Y-78075057D02*
X163021429Y-78075057D01*
X162211905Y-77884580D02*
X162259524Y-77932200D01*
X162259524Y-77932200D02*
X162402381Y-77979819D01*
X162402381Y-77979819D02*
X162497619Y-77979819D01*
X162497619Y-77979819D02*
X162640476Y-77932200D01*
X162640476Y-77932200D02*
X162735714Y-77836961D01*
X162735714Y-77836961D02*
X162783333Y-77741723D01*
X162783333Y-77741723D02*
X162830952Y-77551247D01*
X162830952Y-77551247D02*
X162830952Y-77408390D01*
X162830952Y-77408390D02*
X162783333Y-77217914D01*
X162783333Y-77217914D02*
X162735714Y-77122676D01*
X162735714Y-77122676D02*
X162640476Y-77027438D01*
X162640476Y-77027438D02*
X162497619Y-76979819D01*
X162497619Y-76979819D02*
X162402381Y-76979819D01*
X162402381Y-76979819D02*
X162259524Y-77027438D01*
X162259524Y-77027438D02*
X162211905Y-77075057D01*
X161592857Y-76979819D02*
X161402381Y-76979819D01*
X161402381Y-76979819D02*
X161307143Y-77027438D01*
X161307143Y-77027438D02*
X161211905Y-77122676D01*
X161211905Y-77122676D02*
X161164286Y-77313152D01*
X161164286Y-77313152D02*
X161164286Y-77646485D01*
X161164286Y-77646485D02*
X161211905Y-77836961D01*
X161211905Y-77836961D02*
X161307143Y-77932200D01*
X161307143Y-77932200D02*
X161402381Y-77979819D01*
X161402381Y-77979819D02*
X161592857Y-77979819D01*
X161592857Y-77979819D02*
X161688095Y-77932200D01*
X161688095Y-77932200D02*
X161783333Y-77836961D01*
X161783333Y-77836961D02*
X161830952Y-77646485D01*
X161830952Y-77646485D02*
X161830952Y-77313152D01*
X161830952Y-77313152D02*
X161783333Y-77122676D01*
X161783333Y-77122676D02*
X161688095Y-77027438D01*
X161688095Y-77027438D02*
X161592857Y-76979819D01*
X160735714Y-77979819D02*
X160735714Y-76979819D01*
X160735714Y-76979819D02*
X160164286Y-77979819D01*
X160164286Y-77979819D02*
X160164286Y-76979819D01*
X159688095Y-77979819D02*
X159688095Y-76979819D01*
X159688095Y-76979819D02*
X159116667Y-77979819D01*
X159116667Y-77979819D02*
X159116667Y-76979819D01*
X158878572Y-78075057D02*
X158116667Y-78075057D01*
X157307143Y-77979819D02*
X157640476Y-77503628D01*
X157878571Y-77979819D02*
X157878571Y-76979819D01*
X157878571Y-76979819D02*
X157497619Y-76979819D01*
X157497619Y-76979819D02*
X157402381Y-77027438D01*
X157402381Y-77027438D02*
X157354762Y-77075057D01*
X157354762Y-77075057D02*
X157307143Y-77170295D01*
X157307143Y-77170295D02*
X157307143Y-77313152D01*
X157307143Y-77313152D02*
X157354762Y-77408390D01*
X157354762Y-77408390D02*
X157402381Y-77456009D01*
X157402381Y-77456009D02*
X157497619Y-77503628D01*
X157497619Y-77503628D02*
X157878571Y-77503628D01*
X156878571Y-77456009D02*
X156545238Y-77456009D01*
X156402381Y-77979819D02*
X156878571Y-77979819D01*
X156878571Y-77979819D02*
X156878571Y-76979819D01*
X156878571Y-76979819D02*
X156402381Y-76979819D01*
X156021428Y-77932200D02*
X155878571Y-77979819D01*
X155878571Y-77979819D02*
X155640476Y-77979819D01*
X155640476Y-77979819D02*
X155545238Y-77932200D01*
X155545238Y-77932200D02*
X155497619Y-77884580D01*
X155497619Y-77884580D02*
X155450000Y-77789342D01*
X155450000Y-77789342D02*
X155450000Y-77694104D01*
X155450000Y-77694104D02*
X155497619Y-77598866D01*
X155497619Y-77598866D02*
X155545238Y-77551247D01*
X155545238Y-77551247D02*
X155640476Y-77503628D01*
X155640476Y-77503628D02*
X155830952Y-77456009D01*
X155830952Y-77456009D02*
X155926190Y-77408390D01*
X155926190Y-77408390D02*
X155973809Y-77360771D01*
X155973809Y-77360771D02*
X156021428Y-77265533D01*
X156021428Y-77265533D02*
X156021428Y-77170295D01*
X156021428Y-77170295D02*
X155973809Y-77075057D01*
X155973809Y-77075057D02*
X155926190Y-77027438D01*
X155926190Y-77027438D02*
X155830952Y-76979819D01*
X155830952Y-76979819D02*
X155592857Y-76979819D01*
X155592857Y-76979819D02*
X155450000Y-77027438D01*
X155021428Y-77456009D02*
X154688095Y-77456009D01*
X154545238Y-77979819D02*
X155021428Y-77979819D01*
X155021428Y-77979819D02*
X155021428Y-76979819D01*
X155021428Y-76979819D02*
X154545238Y-76979819D01*
X154259523Y-76979819D02*
X153688095Y-76979819D01*
X153973809Y-77979819D02*
X153973809Y-76979819D01*
X158016667Y-76702200D02*
X153692857Y-76702200D01*
X153592857Y-78075057D02*
X152830952Y-78075057D01*
X152640475Y-77932200D02*
X152497618Y-77979819D01*
X152497618Y-77979819D02*
X152259523Y-77979819D01*
X152259523Y-77979819D02*
X152164285Y-77932200D01*
X152164285Y-77932200D02*
X152116666Y-77884580D01*
X152116666Y-77884580D02*
X152069047Y-77789342D01*
X152069047Y-77789342D02*
X152069047Y-77694104D01*
X152069047Y-77694104D02*
X152116666Y-77598866D01*
X152116666Y-77598866D02*
X152164285Y-77551247D01*
X152164285Y-77551247D02*
X152259523Y-77503628D01*
X152259523Y-77503628D02*
X152449999Y-77456009D01*
X152449999Y-77456009D02*
X152545237Y-77408390D01*
X152545237Y-77408390D02*
X152592856Y-77360771D01*
X152592856Y-77360771D02*
X152640475Y-77265533D01*
X152640475Y-77265533D02*
X152640475Y-77170295D01*
X152640475Y-77170295D02*
X152592856Y-77075057D01*
X152592856Y-77075057D02*
X152545237Y-77027438D01*
X152545237Y-77027438D02*
X152449999Y-76979819D01*
X152449999Y-76979819D02*
X152211904Y-76979819D01*
X152211904Y-76979819D02*
X152069047Y-77027438D01*
X151640475Y-77456009D02*
X151307142Y-77456009D01*
X151164285Y-77979819D02*
X151640475Y-77979819D01*
X151640475Y-77979819D02*
X151640475Y-76979819D01*
X151640475Y-76979819D02*
X151164285Y-76979819D01*
X150259523Y-77979819D02*
X150735713Y-77979819D01*
X150735713Y-77979819D02*
X150735713Y-76979819D01*
X166973810Y-152027438D02*
X167069048Y-151979819D01*
X167069048Y-151979819D02*
X167211905Y-151979819D01*
X167211905Y-151979819D02*
X167354762Y-152027438D01*
X167354762Y-152027438D02*
X167450000Y-152122676D01*
X167450000Y-152122676D02*
X167497619Y-152217914D01*
X167497619Y-152217914D02*
X167545238Y-152408390D01*
X167545238Y-152408390D02*
X167545238Y-152551247D01*
X167545238Y-152551247D02*
X167497619Y-152741723D01*
X167497619Y-152741723D02*
X167450000Y-152836961D01*
X167450000Y-152836961D02*
X167354762Y-152932200D01*
X167354762Y-152932200D02*
X167211905Y-152979819D01*
X167211905Y-152979819D02*
X167116667Y-152979819D01*
X167116667Y-152979819D02*
X166973810Y-152932200D01*
X166973810Y-152932200D02*
X166926191Y-152884580D01*
X166926191Y-152884580D02*
X166926191Y-152551247D01*
X166926191Y-152551247D02*
X167116667Y-152551247D01*
X166497619Y-152979819D02*
X166497619Y-151979819D01*
X166497619Y-151979819D02*
X165926191Y-152979819D01*
X165926191Y-152979819D02*
X165926191Y-151979819D01*
X165497619Y-152932200D02*
X165354762Y-152979819D01*
X165354762Y-152979819D02*
X165116667Y-152979819D01*
X165116667Y-152979819D02*
X165021429Y-152932200D01*
X165021429Y-152932200D02*
X164973810Y-152884580D01*
X164973810Y-152884580D02*
X164926191Y-152789342D01*
X164926191Y-152789342D02*
X164926191Y-152694104D01*
X164926191Y-152694104D02*
X164973810Y-152598866D01*
X164973810Y-152598866D02*
X165021429Y-152551247D01*
X165021429Y-152551247D02*
X165116667Y-152503628D01*
X165116667Y-152503628D02*
X165307143Y-152456009D01*
X165307143Y-152456009D02*
X165402381Y-152408390D01*
X165402381Y-152408390D02*
X165450000Y-152360771D01*
X165450000Y-152360771D02*
X165497619Y-152265533D01*
X165497619Y-152265533D02*
X165497619Y-152170295D01*
X165497619Y-152170295D02*
X165450000Y-152075057D01*
X165450000Y-152075057D02*
X165402381Y-152027438D01*
X165402381Y-152027438D02*
X165307143Y-151979819D01*
X165307143Y-151979819D02*
X165069048Y-151979819D01*
X165069048Y-151979819D02*
X164926191Y-152027438D01*
X164545238Y-152932200D02*
X164402381Y-152979819D01*
X164402381Y-152979819D02*
X164164286Y-152979819D01*
X164164286Y-152979819D02*
X164069048Y-152932200D01*
X164069048Y-152932200D02*
X164021429Y-152884580D01*
X164021429Y-152884580D02*
X163973810Y-152789342D01*
X163973810Y-152789342D02*
X163973810Y-152694104D01*
X163973810Y-152694104D02*
X164021429Y-152598866D01*
X164021429Y-152598866D02*
X164069048Y-152551247D01*
X164069048Y-152551247D02*
X164164286Y-152503628D01*
X164164286Y-152503628D02*
X164354762Y-152456009D01*
X164354762Y-152456009D02*
X164450000Y-152408390D01*
X164450000Y-152408390D02*
X164497619Y-152360771D01*
X164497619Y-152360771D02*
X164545238Y-152265533D01*
X164545238Y-152265533D02*
X164545238Y-152170295D01*
X164545238Y-152170295D02*
X164497619Y-152075057D01*
X164497619Y-152075057D02*
X164450000Y-152027438D01*
X164450000Y-152027438D02*
X164354762Y-151979819D01*
X164354762Y-151979819D02*
X164116667Y-151979819D01*
X164116667Y-151979819D02*
X163973810Y-152027438D01*
X163783334Y-153075057D02*
X163021429Y-153075057D01*
X162211905Y-152884580D02*
X162259524Y-152932200D01*
X162259524Y-152932200D02*
X162402381Y-152979819D01*
X162402381Y-152979819D02*
X162497619Y-152979819D01*
X162497619Y-152979819D02*
X162640476Y-152932200D01*
X162640476Y-152932200D02*
X162735714Y-152836961D01*
X162735714Y-152836961D02*
X162783333Y-152741723D01*
X162783333Y-152741723D02*
X162830952Y-152551247D01*
X162830952Y-152551247D02*
X162830952Y-152408390D01*
X162830952Y-152408390D02*
X162783333Y-152217914D01*
X162783333Y-152217914D02*
X162735714Y-152122676D01*
X162735714Y-152122676D02*
X162640476Y-152027438D01*
X162640476Y-152027438D02*
X162497619Y-151979819D01*
X162497619Y-151979819D02*
X162402381Y-151979819D01*
X162402381Y-151979819D02*
X162259524Y-152027438D01*
X162259524Y-152027438D02*
X162211905Y-152075057D01*
X161592857Y-151979819D02*
X161402381Y-151979819D01*
X161402381Y-151979819D02*
X161307143Y-152027438D01*
X161307143Y-152027438D02*
X161211905Y-152122676D01*
X161211905Y-152122676D02*
X161164286Y-152313152D01*
X161164286Y-152313152D02*
X161164286Y-152646485D01*
X161164286Y-152646485D02*
X161211905Y-152836961D01*
X161211905Y-152836961D02*
X161307143Y-152932200D01*
X161307143Y-152932200D02*
X161402381Y-152979819D01*
X161402381Y-152979819D02*
X161592857Y-152979819D01*
X161592857Y-152979819D02*
X161688095Y-152932200D01*
X161688095Y-152932200D02*
X161783333Y-152836961D01*
X161783333Y-152836961D02*
X161830952Y-152646485D01*
X161830952Y-152646485D02*
X161830952Y-152313152D01*
X161830952Y-152313152D02*
X161783333Y-152122676D01*
X161783333Y-152122676D02*
X161688095Y-152027438D01*
X161688095Y-152027438D02*
X161592857Y-151979819D01*
X160735714Y-152979819D02*
X160735714Y-151979819D01*
X160735714Y-151979819D02*
X160164286Y-152979819D01*
X160164286Y-152979819D02*
X160164286Y-151979819D01*
X159688095Y-152979819D02*
X159688095Y-151979819D01*
X159688095Y-151979819D02*
X159116667Y-152979819D01*
X159116667Y-152979819D02*
X159116667Y-151979819D01*
X158878572Y-153075057D02*
X158116667Y-153075057D01*
X157307143Y-152979819D02*
X157640476Y-152503628D01*
X157878571Y-152979819D02*
X157878571Y-151979819D01*
X157878571Y-151979819D02*
X157497619Y-151979819D01*
X157497619Y-151979819D02*
X157402381Y-152027438D01*
X157402381Y-152027438D02*
X157354762Y-152075057D01*
X157354762Y-152075057D02*
X157307143Y-152170295D01*
X157307143Y-152170295D02*
X157307143Y-152313152D01*
X157307143Y-152313152D02*
X157354762Y-152408390D01*
X157354762Y-152408390D02*
X157402381Y-152456009D01*
X157402381Y-152456009D02*
X157497619Y-152503628D01*
X157497619Y-152503628D02*
X157878571Y-152503628D01*
X156878571Y-152456009D02*
X156545238Y-152456009D01*
X156402381Y-152979819D02*
X156878571Y-152979819D01*
X156878571Y-152979819D02*
X156878571Y-151979819D01*
X156878571Y-151979819D02*
X156402381Y-151979819D01*
X156021428Y-152932200D02*
X155878571Y-152979819D01*
X155878571Y-152979819D02*
X155640476Y-152979819D01*
X155640476Y-152979819D02*
X155545238Y-152932200D01*
X155545238Y-152932200D02*
X155497619Y-152884580D01*
X155497619Y-152884580D02*
X155450000Y-152789342D01*
X155450000Y-152789342D02*
X155450000Y-152694104D01*
X155450000Y-152694104D02*
X155497619Y-152598866D01*
X155497619Y-152598866D02*
X155545238Y-152551247D01*
X155545238Y-152551247D02*
X155640476Y-152503628D01*
X155640476Y-152503628D02*
X155830952Y-152456009D01*
X155830952Y-152456009D02*
X155926190Y-152408390D01*
X155926190Y-152408390D02*
X155973809Y-152360771D01*
X155973809Y-152360771D02*
X156021428Y-152265533D01*
X156021428Y-152265533D02*
X156021428Y-152170295D01*
X156021428Y-152170295D02*
X155973809Y-152075057D01*
X155973809Y-152075057D02*
X155926190Y-152027438D01*
X155926190Y-152027438D02*
X155830952Y-151979819D01*
X155830952Y-151979819D02*
X155592857Y-151979819D01*
X155592857Y-151979819D02*
X155450000Y-152027438D01*
X155021428Y-152456009D02*
X154688095Y-152456009D01*
X154545238Y-152979819D02*
X155021428Y-152979819D01*
X155021428Y-152979819D02*
X155021428Y-151979819D01*
X155021428Y-151979819D02*
X154545238Y-151979819D01*
X154259523Y-151979819D02*
X153688095Y-151979819D01*
X153973809Y-152979819D02*
X153973809Y-151979819D01*
X158016667Y-151702200D02*
X153692857Y-151702200D01*
X153592857Y-153075057D02*
X152830952Y-153075057D01*
X152640475Y-152932200D02*
X152497618Y-152979819D01*
X152497618Y-152979819D02*
X152259523Y-152979819D01*
X152259523Y-152979819D02*
X152164285Y-152932200D01*
X152164285Y-152932200D02*
X152116666Y-152884580D01*
X152116666Y-152884580D02*
X152069047Y-152789342D01*
X152069047Y-152789342D02*
X152069047Y-152694104D01*
X152069047Y-152694104D02*
X152116666Y-152598866D01*
X152116666Y-152598866D02*
X152164285Y-152551247D01*
X152164285Y-152551247D02*
X152259523Y-152503628D01*
X152259523Y-152503628D02*
X152449999Y-152456009D01*
X152449999Y-152456009D02*
X152545237Y-152408390D01*
X152545237Y-152408390D02*
X152592856Y-152360771D01*
X152592856Y-152360771D02*
X152640475Y-152265533D01*
X152640475Y-152265533D02*
X152640475Y-152170295D01*
X152640475Y-152170295D02*
X152592856Y-152075057D01*
X152592856Y-152075057D02*
X152545237Y-152027438D01*
X152545237Y-152027438D02*
X152449999Y-151979819D01*
X152449999Y-151979819D02*
X152211904Y-151979819D01*
X152211904Y-151979819D02*
X152069047Y-152027438D01*
X151640475Y-152456009D02*
X151307142Y-152456009D01*
X151164285Y-152979819D02*
X151640475Y-152979819D01*
X151640475Y-152979819D02*
X151640475Y-151979819D01*
X151640475Y-151979819D02*
X151164285Y-151979819D01*
X150259523Y-152979819D02*
X150735713Y-152979819D01*
X150735713Y-152979819D02*
X150735713Y-151979819D01*
%TO.C,TP904*%
X97580952Y-48604819D02*
X96961905Y-48604819D01*
X96961905Y-48604819D02*
X97295238Y-48985771D01*
X97295238Y-48985771D02*
X97152381Y-48985771D01*
X97152381Y-48985771D02*
X97057143Y-49033390D01*
X97057143Y-49033390D02*
X97009524Y-49081009D01*
X97009524Y-49081009D02*
X96961905Y-49176247D01*
X96961905Y-49176247D02*
X96961905Y-49414342D01*
X96961905Y-49414342D02*
X97009524Y-49509580D01*
X97009524Y-49509580D02*
X97057143Y-49557200D01*
X97057143Y-49557200D02*
X97152381Y-49604819D01*
X97152381Y-49604819D02*
X97438095Y-49604819D01*
X97438095Y-49604819D02*
X97533333Y-49557200D01*
X97533333Y-49557200D02*
X97580952Y-49509580D01*
X96628571Y-48938152D02*
X96390476Y-49604819D01*
X96390476Y-49604819D02*
X96152381Y-48938152D01*
X95866666Y-48604819D02*
X95247619Y-48604819D01*
X95247619Y-48604819D02*
X95580952Y-48985771D01*
X95580952Y-48985771D02*
X95438095Y-48985771D01*
X95438095Y-48985771D02*
X95342857Y-49033390D01*
X95342857Y-49033390D02*
X95295238Y-49081009D01*
X95295238Y-49081009D02*
X95247619Y-49176247D01*
X95247619Y-49176247D02*
X95247619Y-49414342D01*
X95247619Y-49414342D02*
X95295238Y-49509580D01*
X95295238Y-49509580D02*
X95342857Y-49557200D01*
X95342857Y-49557200D02*
X95438095Y-49604819D01*
X95438095Y-49604819D02*
X95723809Y-49604819D01*
X95723809Y-49604819D02*
X95819047Y-49557200D01*
X95819047Y-49557200D02*
X95866666Y-49509580D01*
X95057143Y-49700057D02*
X94295238Y-49700057D01*
X94104761Y-49319104D02*
X93628571Y-49319104D01*
X94199999Y-49604819D02*
X93866666Y-48604819D01*
X93866666Y-48604819D02*
X93533333Y-49604819D01*
X93199999Y-49604819D02*
X93199999Y-48604819D01*
X93199999Y-48604819D02*
X92628571Y-49604819D01*
X92628571Y-49604819D02*
X92628571Y-48604819D01*
X92199999Y-49319104D02*
X91723809Y-49319104D01*
X92295237Y-49604819D02*
X91961904Y-48604819D01*
X91961904Y-48604819D02*
X91628571Y-49604819D01*
X90819047Y-49604819D02*
X91295237Y-49604819D01*
X91295237Y-49604819D02*
X91295237Y-48604819D01*
X90295237Y-48604819D02*
X90104761Y-48604819D01*
X90104761Y-48604819D02*
X90009523Y-48652438D01*
X90009523Y-48652438D02*
X89914285Y-48747676D01*
X89914285Y-48747676D02*
X89866666Y-48938152D01*
X89866666Y-48938152D02*
X89866666Y-49271485D01*
X89866666Y-49271485D02*
X89914285Y-49461961D01*
X89914285Y-49461961D02*
X90009523Y-49557200D01*
X90009523Y-49557200D02*
X90104761Y-49604819D01*
X90104761Y-49604819D02*
X90295237Y-49604819D01*
X90295237Y-49604819D02*
X90390475Y-49557200D01*
X90390475Y-49557200D02*
X90485713Y-49461961D01*
X90485713Y-49461961D02*
X90533332Y-49271485D01*
X90533332Y-49271485D02*
X90533332Y-48938152D01*
X90533332Y-48938152D02*
X90485713Y-48747676D01*
X90485713Y-48747676D02*
X90390475Y-48652438D01*
X90390475Y-48652438D02*
X90295237Y-48604819D01*
X88914285Y-48652438D02*
X89009523Y-48604819D01*
X89009523Y-48604819D02*
X89152380Y-48604819D01*
X89152380Y-48604819D02*
X89295237Y-48652438D01*
X89295237Y-48652438D02*
X89390475Y-48747676D01*
X89390475Y-48747676D02*
X89438094Y-48842914D01*
X89438094Y-48842914D02*
X89485713Y-49033390D01*
X89485713Y-49033390D02*
X89485713Y-49176247D01*
X89485713Y-49176247D02*
X89438094Y-49366723D01*
X89438094Y-49366723D02*
X89390475Y-49461961D01*
X89390475Y-49461961D02*
X89295237Y-49557200D01*
X89295237Y-49557200D02*
X89152380Y-49604819D01*
X89152380Y-49604819D02*
X89057142Y-49604819D01*
X89057142Y-49604819D02*
X88914285Y-49557200D01*
X88914285Y-49557200D02*
X88866666Y-49509580D01*
X88866666Y-49509580D02*
X88866666Y-49176247D01*
X88866666Y-49176247D02*
X89057142Y-49176247D01*
X95414285Y-45604819D02*
X94842857Y-45604819D01*
X95128571Y-46604819D02*
X95128571Y-45604819D01*
X94509523Y-46604819D02*
X94509523Y-45604819D01*
X94509523Y-45604819D02*
X94128571Y-45604819D01*
X94128571Y-45604819D02*
X94033333Y-45652438D01*
X94033333Y-45652438D02*
X93985714Y-45700057D01*
X93985714Y-45700057D02*
X93938095Y-45795295D01*
X93938095Y-45795295D02*
X93938095Y-45938152D01*
X93938095Y-45938152D02*
X93985714Y-46033390D01*
X93985714Y-46033390D02*
X94033333Y-46081009D01*
X94033333Y-46081009D02*
X94128571Y-46128628D01*
X94128571Y-46128628D02*
X94509523Y-46128628D01*
X93461904Y-46604819D02*
X93271428Y-46604819D01*
X93271428Y-46604819D02*
X93176190Y-46557200D01*
X93176190Y-46557200D02*
X93128571Y-46509580D01*
X93128571Y-46509580D02*
X93033333Y-46366723D01*
X93033333Y-46366723D02*
X92985714Y-46176247D01*
X92985714Y-46176247D02*
X92985714Y-45795295D01*
X92985714Y-45795295D02*
X93033333Y-45700057D01*
X93033333Y-45700057D02*
X93080952Y-45652438D01*
X93080952Y-45652438D02*
X93176190Y-45604819D01*
X93176190Y-45604819D02*
X93366666Y-45604819D01*
X93366666Y-45604819D02*
X93461904Y-45652438D01*
X93461904Y-45652438D02*
X93509523Y-45700057D01*
X93509523Y-45700057D02*
X93557142Y-45795295D01*
X93557142Y-45795295D02*
X93557142Y-46033390D01*
X93557142Y-46033390D02*
X93509523Y-46128628D01*
X93509523Y-46128628D02*
X93461904Y-46176247D01*
X93461904Y-46176247D02*
X93366666Y-46223866D01*
X93366666Y-46223866D02*
X93176190Y-46223866D01*
X93176190Y-46223866D02*
X93080952Y-46176247D01*
X93080952Y-46176247D02*
X93033333Y-46128628D01*
X93033333Y-46128628D02*
X92985714Y-46033390D01*
X92366666Y-45604819D02*
X92271428Y-45604819D01*
X92271428Y-45604819D02*
X92176190Y-45652438D01*
X92176190Y-45652438D02*
X92128571Y-45700057D01*
X92128571Y-45700057D02*
X92080952Y-45795295D01*
X92080952Y-45795295D02*
X92033333Y-45985771D01*
X92033333Y-45985771D02*
X92033333Y-46223866D01*
X92033333Y-46223866D02*
X92080952Y-46414342D01*
X92080952Y-46414342D02*
X92128571Y-46509580D01*
X92128571Y-46509580D02*
X92176190Y-46557200D01*
X92176190Y-46557200D02*
X92271428Y-46604819D01*
X92271428Y-46604819D02*
X92366666Y-46604819D01*
X92366666Y-46604819D02*
X92461904Y-46557200D01*
X92461904Y-46557200D02*
X92509523Y-46509580D01*
X92509523Y-46509580D02*
X92557142Y-46414342D01*
X92557142Y-46414342D02*
X92604761Y-46223866D01*
X92604761Y-46223866D02*
X92604761Y-45985771D01*
X92604761Y-45985771D02*
X92557142Y-45795295D01*
X92557142Y-45795295D02*
X92509523Y-45700057D01*
X92509523Y-45700057D02*
X92461904Y-45652438D01*
X92461904Y-45652438D02*
X92366666Y-45604819D01*
X91176190Y-45938152D02*
X91176190Y-46604819D01*
X91414285Y-45557200D02*
X91652380Y-46271485D01*
X91652380Y-46271485D02*
X91033333Y-46271485D01*
%TO.C,BT301*%
X148513994Y-232592123D02*
X148581337Y-232592123D01*
X148581337Y-232592123D02*
X148716024Y-232524780D01*
X148716024Y-232524780D02*
X148783368Y-232457436D01*
X148783368Y-232457436D02*
X148850711Y-232322749D01*
X148850711Y-232322749D02*
X148850711Y-232188062D01*
X148850711Y-232188062D02*
X148817040Y-232087047D01*
X148817040Y-232087047D02*
X148716024Y-231918688D01*
X148716024Y-231918688D02*
X148615009Y-231817673D01*
X148615009Y-231817673D02*
X148446650Y-231716658D01*
X148446650Y-231716658D02*
X148345635Y-231682986D01*
X148345635Y-231682986D02*
X148210948Y-231682986D01*
X148210948Y-231682986D02*
X148076261Y-231750330D01*
X148076261Y-231750330D02*
X148008917Y-231817673D01*
X148008917Y-231817673D02*
X147941574Y-231952360D01*
X147941574Y-231952360D02*
X147941574Y-232019704D01*
X147874230Y-233366574D02*
X147773215Y-232794154D01*
X148278292Y-232962513D02*
X147571185Y-232255406D01*
X147571185Y-232255406D02*
X147301811Y-232524780D01*
X147301811Y-232524780D02*
X147268139Y-232625795D01*
X147268139Y-232625795D02*
X147268139Y-232693139D01*
X147268139Y-232693139D02*
X147301811Y-232794154D01*
X147301811Y-232794154D02*
X147402826Y-232895169D01*
X147402826Y-232895169D02*
X147503841Y-232928841D01*
X147503841Y-232928841D02*
X147571185Y-232928841D01*
X147571185Y-232928841D02*
X147672200Y-232895169D01*
X147672200Y-232895169D02*
X147941574Y-232625795D01*
X146965093Y-232996185D02*
X146897750Y-232996185D01*
X146897750Y-232996185D02*
X146796734Y-233029856D01*
X146796734Y-233029856D02*
X146628376Y-233198215D01*
X146628376Y-233198215D02*
X146594704Y-233299230D01*
X146594704Y-233299230D02*
X146594704Y-233366574D01*
X146594704Y-233366574D02*
X146628376Y-233467589D01*
X146628376Y-233467589D02*
X146695719Y-233534933D01*
X146695719Y-233534933D02*
X146830406Y-233602276D01*
X146830406Y-233602276D02*
X147638528Y-233602276D01*
X147638528Y-233602276D02*
X147200795Y-234040009D01*
X146055956Y-233770635D02*
X145988612Y-233837978D01*
X145988612Y-233837978D02*
X145954941Y-233938994D01*
X145954941Y-233938994D02*
X145954941Y-234006337D01*
X145954941Y-234006337D02*
X145988612Y-234107352D01*
X145988612Y-234107352D02*
X146089628Y-234275711D01*
X146089628Y-234275711D02*
X146257986Y-234444070D01*
X146257986Y-234444070D02*
X146426345Y-234545085D01*
X146426345Y-234545085D02*
X146527360Y-234578757D01*
X146527360Y-234578757D02*
X146594704Y-234578757D01*
X146594704Y-234578757D02*
X146695719Y-234545085D01*
X146695719Y-234545085D02*
X146763063Y-234477742D01*
X146763063Y-234477742D02*
X146796734Y-234376726D01*
X146796734Y-234376726D02*
X146796734Y-234309383D01*
X146796734Y-234309383D02*
X146763063Y-234208368D01*
X146763063Y-234208368D02*
X146662047Y-234040009D01*
X146662047Y-234040009D02*
X146493689Y-233871650D01*
X146493689Y-233871650D02*
X146325330Y-233770635D01*
X146325330Y-233770635D02*
X146224315Y-233736963D01*
X146224315Y-233736963D02*
X146156971Y-233736963D01*
X146156971Y-233736963D02*
X146055956Y-233770635D01*
X145584551Y-234242039D02*
X145146819Y-234679772D01*
X145146819Y-234679772D02*
X145651895Y-234713444D01*
X145651895Y-234713444D02*
X145550880Y-234814459D01*
X145550880Y-234814459D02*
X145517208Y-234915474D01*
X145517208Y-234915474D02*
X145517208Y-234982818D01*
X145517208Y-234982818D02*
X145550880Y-235083833D01*
X145550880Y-235083833D02*
X145719238Y-235252192D01*
X145719238Y-235252192D02*
X145820254Y-235285864D01*
X145820254Y-235285864D02*
X145887597Y-235285864D01*
X145887597Y-235285864D02*
X145988612Y-235252192D01*
X145988612Y-235252192D02*
X146190643Y-235050161D01*
X146190643Y-235050161D02*
X146224315Y-234949146D01*
X146224315Y-234949146D02*
X146224315Y-234881803D01*
X144944788Y-235016490D02*
X144877445Y-235016490D01*
X144877445Y-235016490D02*
X144776429Y-235050161D01*
X144776429Y-235050161D02*
X144608070Y-235218520D01*
X144608070Y-235218520D02*
X144574399Y-235319535D01*
X144574399Y-235319535D02*
X144574399Y-235386879D01*
X144574399Y-235386879D02*
X144608070Y-235487894D01*
X144608070Y-235487894D02*
X144675414Y-235555238D01*
X144675414Y-235555238D02*
X144810101Y-235622581D01*
X144810101Y-235622581D02*
X145618223Y-235622581D01*
X145618223Y-235622581D02*
X145180490Y-236060314D01*
X126851272Y-224374532D02*
X126783928Y-224509219D01*
X126783928Y-224509219D02*
X126783928Y-224576562D01*
X126783928Y-224576562D02*
X126817600Y-224677578D01*
X126817600Y-224677578D02*
X126918615Y-224778593D01*
X126918615Y-224778593D02*
X127019631Y-224812265D01*
X127019631Y-224812265D02*
X127086974Y-224812265D01*
X127086974Y-224812265D02*
X127187989Y-224778593D01*
X127187989Y-224778593D02*
X127457363Y-224509219D01*
X127457363Y-224509219D02*
X126750257Y-223802112D01*
X126750257Y-223802112D02*
X126514554Y-224037814D01*
X126514554Y-224037814D02*
X126480883Y-224138830D01*
X126480883Y-224138830D02*
X126480883Y-224206173D01*
X126480883Y-224206173D02*
X126514554Y-224307188D01*
X126514554Y-224307188D02*
X126581898Y-224374532D01*
X126581898Y-224374532D02*
X126682913Y-224408204D01*
X126682913Y-224408204D02*
X126750257Y-224408204D01*
X126750257Y-224408204D02*
X126851272Y-224374532D01*
X126851272Y-224374532D02*
X127086974Y-224138830D01*
X126144165Y-224408204D02*
X125740104Y-224812265D01*
X126649241Y-225317341D02*
X125942135Y-224610234D01*
X125571745Y-224980623D02*
X125134012Y-225418356D01*
X125134012Y-225418356D02*
X125639089Y-225452028D01*
X125639089Y-225452028D02*
X125538073Y-225553043D01*
X125538073Y-225553043D02*
X125504402Y-225654059D01*
X125504402Y-225654059D02*
X125504402Y-225721402D01*
X125504402Y-225721402D02*
X125538073Y-225822417D01*
X125538073Y-225822417D02*
X125706432Y-225990776D01*
X125706432Y-225990776D02*
X125807447Y-226024448D01*
X125807447Y-226024448D02*
X125874791Y-226024448D01*
X125874791Y-226024448D02*
X125975806Y-225990776D01*
X125975806Y-225990776D02*
X126177837Y-225788746D01*
X126177837Y-225788746D02*
X126211508Y-225687730D01*
X126211508Y-225687730D02*
X126211508Y-225620387D01*
X124696280Y-225856089D02*
X124628936Y-225923433D01*
X124628936Y-225923433D02*
X124595264Y-226024448D01*
X124595264Y-226024448D02*
X124595264Y-226091791D01*
X124595264Y-226091791D02*
X124628936Y-226192807D01*
X124628936Y-226192807D02*
X124729951Y-226361165D01*
X124729951Y-226361165D02*
X124898310Y-226529524D01*
X124898310Y-226529524D02*
X125066669Y-226630539D01*
X125066669Y-226630539D02*
X125167684Y-226664211D01*
X125167684Y-226664211D02*
X125235028Y-226664211D01*
X125235028Y-226664211D02*
X125336043Y-226630539D01*
X125336043Y-226630539D02*
X125403386Y-226563196D01*
X125403386Y-226563196D02*
X125437058Y-226462181D01*
X125437058Y-226462181D02*
X125437058Y-226394837D01*
X125437058Y-226394837D02*
X125403386Y-226293822D01*
X125403386Y-226293822D02*
X125302371Y-226125463D01*
X125302371Y-226125463D02*
X125134012Y-225957104D01*
X125134012Y-225957104D02*
X124965654Y-225856089D01*
X124965654Y-225856089D02*
X124864638Y-225822417D01*
X124864638Y-225822417D02*
X124797295Y-225822417D01*
X124797295Y-225822417D02*
X124696280Y-225856089D01*
X124494249Y-227472333D02*
X124898310Y-227068272D01*
X124696280Y-227270303D02*
X123989173Y-226563196D01*
X123989173Y-226563196D02*
X124157532Y-226596868D01*
X124157532Y-226596868D02*
X124292219Y-226596868D01*
X124292219Y-226596868D02*
X124393234Y-226563196D01*
%TO.C,TP903*%
X88909523Y-86904819D02*
X88290476Y-86904819D01*
X88290476Y-86904819D02*
X88623809Y-87285771D01*
X88623809Y-87285771D02*
X88480952Y-87285771D01*
X88480952Y-87285771D02*
X88385714Y-87333390D01*
X88385714Y-87333390D02*
X88338095Y-87381009D01*
X88338095Y-87381009D02*
X88290476Y-87476247D01*
X88290476Y-87476247D02*
X88290476Y-87714342D01*
X88290476Y-87714342D02*
X88338095Y-87809580D01*
X88338095Y-87809580D02*
X88385714Y-87857200D01*
X88385714Y-87857200D02*
X88480952Y-87904819D01*
X88480952Y-87904819D02*
X88766666Y-87904819D01*
X88766666Y-87904819D02*
X88861904Y-87857200D01*
X88861904Y-87857200D02*
X88909523Y-87809580D01*
X88004761Y-86904819D02*
X87671428Y-87904819D01*
X87671428Y-87904819D02*
X87338095Y-86904819D01*
X87099999Y-86904819D02*
X86480952Y-86904819D01*
X86480952Y-86904819D02*
X86814285Y-87285771D01*
X86814285Y-87285771D02*
X86671428Y-87285771D01*
X86671428Y-87285771D02*
X86576190Y-87333390D01*
X86576190Y-87333390D02*
X86528571Y-87381009D01*
X86528571Y-87381009D02*
X86480952Y-87476247D01*
X86480952Y-87476247D02*
X86480952Y-87714342D01*
X86480952Y-87714342D02*
X86528571Y-87809580D01*
X86528571Y-87809580D02*
X86576190Y-87857200D01*
X86576190Y-87857200D02*
X86671428Y-87904819D01*
X86671428Y-87904819D02*
X86957142Y-87904819D01*
X86957142Y-87904819D02*
X87052380Y-87857200D01*
X87052380Y-87857200D02*
X87099999Y-87809580D01*
X86290476Y-88000057D02*
X85528571Y-88000057D01*
X85290475Y-87904819D02*
X85290475Y-86904819D01*
X85290475Y-86904819D02*
X85052380Y-86904819D01*
X85052380Y-86904819D02*
X84909523Y-86952438D01*
X84909523Y-86952438D02*
X84814285Y-87047676D01*
X84814285Y-87047676D02*
X84766666Y-87142914D01*
X84766666Y-87142914D02*
X84719047Y-87333390D01*
X84719047Y-87333390D02*
X84719047Y-87476247D01*
X84719047Y-87476247D02*
X84766666Y-87666723D01*
X84766666Y-87666723D02*
X84814285Y-87761961D01*
X84814285Y-87761961D02*
X84909523Y-87857200D01*
X84909523Y-87857200D02*
X85052380Y-87904819D01*
X85052380Y-87904819D02*
X85290475Y-87904819D01*
X84290475Y-87904819D02*
X84290475Y-86904819D01*
X83290476Y-86952438D02*
X83385714Y-86904819D01*
X83385714Y-86904819D02*
X83528571Y-86904819D01*
X83528571Y-86904819D02*
X83671428Y-86952438D01*
X83671428Y-86952438D02*
X83766666Y-87047676D01*
X83766666Y-87047676D02*
X83814285Y-87142914D01*
X83814285Y-87142914D02*
X83861904Y-87333390D01*
X83861904Y-87333390D02*
X83861904Y-87476247D01*
X83861904Y-87476247D02*
X83814285Y-87666723D01*
X83814285Y-87666723D02*
X83766666Y-87761961D01*
X83766666Y-87761961D02*
X83671428Y-87857200D01*
X83671428Y-87857200D02*
X83528571Y-87904819D01*
X83528571Y-87904819D02*
X83433333Y-87904819D01*
X83433333Y-87904819D02*
X83290476Y-87857200D01*
X83290476Y-87857200D02*
X83242857Y-87809580D01*
X83242857Y-87809580D02*
X83242857Y-87476247D01*
X83242857Y-87476247D02*
X83433333Y-87476247D01*
X82814285Y-87904819D02*
X82814285Y-86904819D01*
X82480952Y-86904819D02*
X81909524Y-86904819D01*
X82195238Y-87904819D02*
X82195238Y-86904819D01*
X81623809Y-87619104D02*
X81147619Y-87619104D01*
X81719047Y-87904819D02*
X81385714Y-86904819D01*
X81385714Y-86904819D02*
X81052381Y-87904819D01*
X80242857Y-87904819D02*
X80719047Y-87904819D01*
X80719047Y-87904819D02*
X80719047Y-86904819D01*
X86814285Y-83904819D02*
X86242857Y-83904819D01*
X86528571Y-84904819D02*
X86528571Y-83904819D01*
X85909523Y-84904819D02*
X85909523Y-83904819D01*
X85909523Y-83904819D02*
X85528571Y-83904819D01*
X85528571Y-83904819D02*
X85433333Y-83952438D01*
X85433333Y-83952438D02*
X85385714Y-84000057D01*
X85385714Y-84000057D02*
X85338095Y-84095295D01*
X85338095Y-84095295D02*
X85338095Y-84238152D01*
X85338095Y-84238152D02*
X85385714Y-84333390D01*
X85385714Y-84333390D02*
X85433333Y-84381009D01*
X85433333Y-84381009D02*
X85528571Y-84428628D01*
X85528571Y-84428628D02*
X85909523Y-84428628D01*
X84861904Y-84904819D02*
X84671428Y-84904819D01*
X84671428Y-84904819D02*
X84576190Y-84857200D01*
X84576190Y-84857200D02*
X84528571Y-84809580D01*
X84528571Y-84809580D02*
X84433333Y-84666723D01*
X84433333Y-84666723D02*
X84385714Y-84476247D01*
X84385714Y-84476247D02*
X84385714Y-84095295D01*
X84385714Y-84095295D02*
X84433333Y-84000057D01*
X84433333Y-84000057D02*
X84480952Y-83952438D01*
X84480952Y-83952438D02*
X84576190Y-83904819D01*
X84576190Y-83904819D02*
X84766666Y-83904819D01*
X84766666Y-83904819D02*
X84861904Y-83952438D01*
X84861904Y-83952438D02*
X84909523Y-84000057D01*
X84909523Y-84000057D02*
X84957142Y-84095295D01*
X84957142Y-84095295D02*
X84957142Y-84333390D01*
X84957142Y-84333390D02*
X84909523Y-84428628D01*
X84909523Y-84428628D02*
X84861904Y-84476247D01*
X84861904Y-84476247D02*
X84766666Y-84523866D01*
X84766666Y-84523866D02*
X84576190Y-84523866D01*
X84576190Y-84523866D02*
X84480952Y-84476247D01*
X84480952Y-84476247D02*
X84433333Y-84428628D01*
X84433333Y-84428628D02*
X84385714Y-84333390D01*
X83766666Y-83904819D02*
X83671428Y-83904819D01*
X83671428Y-83904819D02*
X83576190Y-83952438D01*
X83576190Y-83952438D02*
X83528571Y-84000057D01*
X83528571Y-84000057D02*
X83480952Y-84095295D01*
X83480952Y-84095295D02*
X83433333Y-84285771D01*
X83433333Y-84285771D02*
X83433333Y-84523866D01*
X83433333Y-84523866D02*
X83480952Y-84714342D01*
X83480952Y-84714342D02*
X83528571Y-84809580D01*
X83528571Y-84809580D02*
X83576190Y-84857200D01*
X83576190Y-84857200D02*
X83671428Y-84904819D01*
X83671428Y-84904819D02*
X83766666Y-84904819D01*
X83766666Y-84904819D02*
X83861904Y-84857200D01*
X83861904Y-84857200D02*
X83909523Y-84809580D01*
X83909523Y-84809580D02*
X83957142Y-84714342D01*
X83957142Y-84714342D02*
X84004761Y-84523866D01*
X84004761Y-84523866D02*
X84004761Y-84285771D01*
X84004761Y-84285771D02*
X83957142Y-84095295D01*
X83957142Y-84095295D02*
X83909523Y-84000057D01*
X83909523Y-84000057D02*
X83861904Y-83952438D01*
X83861904Y-83952438D02*
X83766666Y-83904819D01*
X83099999Y-83904819D02*
X82480952Y-83904819D01*
X82480952Y-83904819D02*
X82814285Y-84285771D01*
X82814285Y-84285771D02*
X82671428Y-84285771D01*
X82671428Y-84285771D02*
X82576190Y-84333390D01*
X82576190Y-84333390D02*
X82528571Y-84381009D01*
X82528571Y-84381009D02*
X82480952Y-84476247D01*
X82480952Y-84476247D02*
X82480952Y-84714342D01*
X82480952Y-84714342D02*
X82528571Y-84809580D01*
X82528571Y-84809580D02*
X82576190Y-84857200D01*
X82576190Y-84857200D02*
X82671428Y-84904819D01*
X82671428Y-84904819D02*
X82957142Y-84904819D01*
X82957142Y-84904819D02*
X83052380Y-84857200D01*
X83052380Y-84857200D02*
X83099999Y-84809580D01*
%TO.C,BT301*%
X148513994Y-157592123D02*
X148581337Y-157592123D01*
X148581337Y-157592123D02*
X148716024Y-157524780D01*
X148716024Y-157524780D02*
X148783368Y-157457436D01*
X148783368Y-157457436D02*
X148850711Y-157322749D01*
X148850711Y-157322749D02*
X148850711Y-157188062D01*
X148850711Y-157188062D02*
X148817040Y-157087047D01*
X148817040Y-157087047D02*
X148716024Y-156918688D01*
X148716024Y-156918688D02*
X148615009Y-156817673D01*
X148615009Y-156817673D02*
X148446650Y-156716658D01*
X148446650Y-156716658D02*
X148345635Y-156682986D01*
X148345635Y-156682986D02*
X148210948Y-156682986D01*
X148210948Y-156682986D02*
X148076261Y-156750330D01*
X148076261Y-156750330D02*
X148008917Y-156817673D01*
X148008917Y-156817673D02*
X147941574Y-156952360D01*
X147941574Y-156952360D02*
X147941574Y-157019704D01*
X147874230Y-158366574D02*
X147773215Y-157794154D01*
X148278292Y-157962513D02*
X147571185Y-157255406D01*
X147571185Y-157255406D02*
X147301811Y-157524780D01*
X147301811Y-157524780D02*
X147268139Y-157625795D01*
X147268139Y-157625795D02*
X147268139Y-157693139D01*
X147268139Y-157693139D02*
X147301811Y-157794154D01*
X147301811Y-157794154D02*
X147402826Y-157895169D01*
X147402826Y-157895169D02*
X147503841Y-157928841D01*
X147503841Y-157928841D02*
X147571185Y-157928841D01*
X147571185Y-157928841D02*
X147672200Y-157895169D01*
X147672200Y-157895169D02*
X147941574Y-157625795D01*
X146965093Y-157996185D02*
X146897750Y-157996185D01*
X146897750Y-157996185D02*
X146796734Y-158029856D01*
X146796734Y-158029856D02*
X146628376Y-158198215D01*
X146628376Y-158198215D02*
X146594704Y-158299230D01*
X146594704Y-158299230D02*
X146594704Y-158366574D01*
X146594704Y-158366574D02*
X146628376Y-158467589D01*
X146628376Y-158467589D02*
X146695719Y-158534933D01*
X146695719Y-158534933D02*
X146830406Y-158602276D01*
X146830406Y-158602276D02*
X147638528Y-158602276D01*
X147638528Y-158602276D02*
X147200795Y-159040009D01*
X146055956Y-158770635D02*
X145988612Y-158837978D01*
X145988612Y-158837978D02*
X145954941Y-158938994D01*
X145954941Y-158938994D02*
X145954941Y-159006337D01*
X145954941Y-159006337D02*
X145988612Y-159107352D01*
X145988612Y-159107352D02*
X146089628Y-159275711D01*
X146089628Y-159275711D02*
X146257986Y-159444070D01*
X146257986Y-159444070D02*
X146426345Y-159545085D01*
X146426345Y-159545085D02*
X146527360Y-159578757D01*
X146527360Y-159578757D02*
X146594704Y-159578757D01*
X146594704Y-159578757D02*
X146695719Y-159545085D01*
X146695719Y-159545085D02*
X146763063Y-159477742D01*
X146763063Y-159477742D02*
X146796734Y-159376726D01*
X146796734Y-159376726D02*
X146796734Y-159309383D01*
X146796734Y-159309383D02*
X146763063Y-159208368D01*
X146763063Y-159208368D02*
X146662047Y-159040009D01*
X146662047Y-159040009D02*
X146493689Y-158871650D01*
X146493689Y-158871650D02*
X146325330Y-158770635D01*
X146325330Y-158770635D02*
X146224315Y-158736963D01*
X146224315Y-158736963D02*
X146156971Y-158736963D01*
X146156971Y-158736963D02*
X146055956Y-158770635D01*
X145584551Y-159242039D02*
X145146819Y-159679772D01*
X145146819Y-159679772D02*
X145651895Y-159713444D01*
X145651895Y-159713444D02*
X145550880Y-159814459D01*
X145550880Y-159814459D02*
X145517208Y-159915474D01*
X145517208Y-159915474D02*
X145517208Y-159982818D01*
X145517208Y-159982818D02*
X145550880Y-160083833D01*
X145550880Y-160083833D02*
X145719238Y-160252192D01*
X145719238Y-160252192D02*
X145820254Y-160285864D01*
X145820254Y-160285864D02*
X145887597Y-160285864D01*
X145887597Y-160285864D02*
X145988612Y-160252192D01*
X145988612Y-160252192D02*
X146190643Y-160050161D01*
X146190643Y-160050161D02*
X146224315Y-159949146D01*
X146224315Y-159949146D02*
X146224315Y-159881803D01*
X144944788Y-160016490D02*
X144877445Y-160016490D01*
X144877445Y-160016490D02*
X144776429Y-160050161D01*
X144776429Y-160050161D02*
X144608070Y-160218520D01*
X144608070Y-160218520D02*
X144574399Y-160319535D01*
X144574399Y-160319535D02*
X144574399Y-160386879D01*
X144574399Y-160386879D02*
X144608070Y-160487894D01*
X144608070Y-160487894D02*
X144675414Y-160555238D01*
X144675414Y-160555238D02*
X144810101Y-160622581D01*
X144810101Y-160622581D02*
X145618223Y-160622581D01*
X145618223Y-160622581D02*
X145180490Y-161060314D01*
X126851272Y-149374532D02*
X126783928Y-149509219D01*
X126783928Y-149509219D02*
X126783928Y-149576562D01*
X126783928Y-149576562D02*
X126817600Y-149677578D01*
X126817600Y-149677578D02*
X126918615Y-149778593D01*
X126918615Y-149778593D02*
X127019631Y-149812265D01*
X127019631Y-149812265D02*
X127086974Y-149812265D01*
X127086974Y-149812265D02*
X127187989Y-149778593D01*
X127187989Y-149778593D02*
X127457363Y-149509219D01*
X127457363Y-149509219D02*
X126750257Y-148802112D01*
X126750257Y-148802112D02*
X126514554Y-149037814D01*
X126514554Y-149037814D02*
X126480883Y-149138830D01*
X126480883Y-149138830D02*
X126480883Y-149206173D01*
X126480883Y-149206173D02*
X126514554Y-149307188D01*
X126514554Y-149307188D02*
X126581898Y-149374532D01*
X126581898Y-149374532D02*
X126682913Y-149408204D01*
X126682913Y-149408204D02*
X126750257Y-149408204D01*
X126750257Y-149408204D02*
X126851272Y-149374532D01*
X126851272Y-149374532D02*
X127086974Y-149138830D01*
X126144165Y-149408204D02*
X125740104Y-149812265D01*
X126649241Y-150317341D02*
X125942135Y-149610234D01*
X125571745Y-149980623D02*
X125134012Y-150418356D01*
X125134012Y-150418356D02*
X125639089Y-150452028D01*
X125639089Y-150452028D02*
X125538073Y-150553043D01*
X125538073Y-150553043D02*
X125504402Y-150654059D01*
X125504402Y-150654059D02*
X125504402Y-150721402D01*
X125504402Y-150721402D02*
X125538073Y-150822417D01*
X125538073Y-150822417D02*
X125706432Y-150990776D01*
X125706432Y-150990776D02*
X125807447Y-151024448D01*
X125807447Y-151024448D02*
X125874791Y-151024448D01*
X125874791Y-151024448D02*
X125975806Y-150990776D01*
X125975806Y-150990776D02*
X126177837Y-150788746D01*
X126177837Y-150788746D02*
X126211508Y-150687730D01*
X126211508Y-150687730D02*
X126211508Y-150620387D01*
X124696280Y-150856089D02*
X124628936Y-150923433D01*
X124628936Y-150923433D02*
X124595264Y-151024448D01*
X124595264Y-151024448D02*
X124595264Y-151091791D01*
X124595264Y-151091791D02*
X124628936Y-151192807D01*
X124628936Y-151192807D02*
X124729951Y-151361165D01*
X124729951Y-151361165D02*
X124898310Y-151529524D01*
X124898310Y-151529524D02*
X125066669Y-151630539D01*
X125066669Y-151630539D02*
X125167684Y-151664211D01*
X125167684Y-151664211D02*
X125235028Y-151664211D01*
X125235028Y-151664211D02*
X125336043Y-151630539D01*
X125336043Y-151630539D02*
X125403386Y-151563196D01*
X125403386Y-151563196D02*
X125437058Y-151462181D01*
X125437058Y-151462181D02*
X125437058Y-151394837D01*
X125437058Y-151394837D02*
X125403386Y-151293822D01*
X125403386Y-151293822D02*
X125302371Y-151125463D01*
X125302371Y-151125463D02*
X125134012Y-150957104D01*
X125134012Y-150957104D02*
X124965654Y-150856089D01*
X124965654Y-150856089D02*
X124864638Y-150822417D01*
X124864638Y-150822417D02*
X124797295Y-150822417D01*
X124797295Y-150822417D02*
X124696280Y-150856089D01*
X124494249Y-152472333D02*
X124898310Y-152068272D01*
X124696280Y-152270303D02*
X123989173Y-151563196D01*
X123989173Y-151563196D02*
X124157532Y-151596868D01*
X124157532Y-151596868D02*
X124292219Y-151596868D01*
X124292219Y-151596868D02*
X124393234Y-151563196D01*
%TO.C,JP2*%
X167545238Y-149477438D02*
X167640476Y-149429819D01*
X167640476Y-149429819D02*
X167783333Y-149429819D01*
X167783333Y-149429819D02*
X167926190Y-149477438D01*
X167926190Y-149477438D02*
X168021428Y-149572676D01*
X168021428Y-149572676D02*
X168069047Y-149667914D01*
X168069047Y-149667914D02*
X168116666Y-149858390D01*
X168116666Y-149858390D02*
X168116666Y-150001247D01*
X168116666Y-150001247D02*
X168069047Y-150191723D01*
X168069047Y-150191723D02*
X168021428Y-150286961D01*
X168021428Y-150286961D02*
X167926190Y-150382200D01*
X167926190Y-150382200D02*
X167783333Y-150429819D01*
X167783333Y-150429819D02*
X167688095Y-150429819D01*
X167688095Y-150429819D02*
X167545238Y-150382200D01*
X167545238Y-150382200D02*
X167497619Y-150334580D01*
X167497619Y-150334580D02*
X167497619Y-150001247D01*
X167497619Y-150001247D02*
X167688095Y-150001247D01*
X167069047Y-150429819D02*
X167069047Y-149429819D01*
X167069047Y-149429819D02*
X166497619Y-150429819D01*
X166497619Y-150429819D02*
X166497619Y-149429819D01*
X166069047Y-150382200D02*
X165926190Y-150429819D01*
X165926190Y-150429819D02*
X165688095Y-150429819D01*
X165688095Y-150429819D02*
X165592857Y-150382200D01*
X165592857Y-150382200D02*
X165545238Y-150334580D01*
X165545238Y-150334580D02*
X165497619Y-150239342D01*
X165497619Y-150239342D02*
X165497619Y-150144104D01*
X165497619Y-150144104D02*
X165545238Y-150048866D01*
X165545238Y-150048866D02*
X165592857Y-150001247D01*
X165592857Y-150001247D02*
X165688095Y-149953628D01*
X165688095Y-149953628D02*
X165878571Y-149906009D01*
X165878571Y-149906009D02*
X165973809Y-149858390D01*
X165973809Y-149858390D02*
X166021428Y-149810771D01*
X166021428Y-149810771D02*
X166069047Y-149715533D01*
X166069047Y-149715533D02*
X166069047Y-149620295D01*
X166069047Y-149620295D02*
X166021428Y-149525057D01*
X166021428Y-149525057D02*
X165973809Y-149477438D01*
X165973809Y-149477438D02*
X165878571Y-149429819D01*
X165878571Y-149429819D02*
X165640476Y-149429819D01*
X165640476Y-149429819D02*
X165497619Y-149477438D01*
X165116666Y-150382200D02*
X164973809Y-150429819D01*
X164973809Y-150429819D02*
X164735714Y-150429819D01*
X164735714Y-150429819D02*
X164640476Y-150382200D01*
X164640476Y-150382200D02*
X164592857Y-150334580D01*
X164592857Y-150334580D02*
X164545238Y-150239342D01*
X164545238Y-150239342D02*
X164545238Y-150144104D01*
X164545238Y-150144104D02*
X164592857Y-150048866D01*
X164592857Y-150048866D02*
X164640476Y-150001247D01*
X164640476Y-150001247D02*
X164735714Y-149953628D01*
X164735714Y-149953628D02*
X164926190Y-149906009D01*
X164926190Y-149906009D02*
X165021428Y-149858390D01*
X165021428Y-149858390D02*
X165069047Y-149810771D01*
X165069047Y-149810771D02*
X165116666Y-149715533D01*
X165116666Y-149715533D02*
X165116666Y-149620295D01*
X165116666Y-149620295D02*
X165069047Y-149525057D01*
X165069047Y-149525057D02*
X165021428Y-149477438D01*
X165021428Y-149477438D02*
X164926190Y-149429819D01*
X164926190Y-149429819D02*
X164688095Y-149429819D01*
X164688095Y-149429819D02*
X164545238Y-149477438D01*
X164354762Y-150525057D02*
X163592857Y-150525057D01*
X162783333Y-150334580D02*
X162830952Y-150382200D01*
X162830952Y-150382200D02*
X162973809Y-150429819D01*
X162973809Y-150429819D02*
X163069047Y-150429819D01*
X163069047Y-150429819D02*
X163211904Y-150382200D01*
X163211904Y-150382200D02*
X163307142Y-150286961D01*
X163307142Y-150286961D02*
X163354761Y-150191723D01*
X163354761Y-150191723D02*
X163402380Y-150001247D01*
X163402380Y-150001247D02*
X163402380Y-149858390D01*
X163402380Y-149858390D02*
X163354761Y-149667914D01*
X163354761Y-149667914D02*
X163307142Y-149572676D01*
X163307142Y-149572676D02*
X163211904Y-149477438D01*
X163211904Y-149477438D02*
X163069047Y-149429819D01*
X163069047Y-149429819D02*
X162973809Y-149429819D01*
X162973809Y-149429819D02*
X162830952Y-149477438D01*
X162830952Y-149477438D02*
X162783333Y-149525057D01*
X162164285Y-149429819D02*
X161973809Y-149429819D01*
X161973809Y-149429819D02*
X161878571Y-149477438D01*
X161878571Y-149477438D02*
X161783333Y-149572676D01*
X161783333Y-149572676D02*
X161735714Y-149763152D01*
X161735714Y-149763152D02*
X161735714Y-150096485D01*
X161735714Y-150096485D02*
X161783333Y-150286961D01*
X161783333Y-150286961D02*
X161878571Y-150382200D01*
X161878571Y-150382200D02*
X161973809Y-150429819D01*
X161973809Y-150429819D02*
X162164285Y-150429819D01*
X162164285Y-150429819D02*
X162259523Y-150382200D01*
X162259523Y-150382200D02*
X162354761Y-150286961D01*
X162354761Y-150286961D02*
X162402380Y-150096485D01*
X162402380Y-150096485D02*
X162402380Y-149763152D01*
X162402380Y-149763152D02*
X162354761Y-149572676D01*
X162354761Y-149572676D02*
X162259523Y-149477438D01*
X162259523Y-149477438D02*
X162164285Y-149429819D01*
X161307142Y-150429819D02*
X161307142Y-149429819D01*
X161307142Y-149429819D02*
X160735714Y-150429819D01*
X160735714Y-150429819D02*
X160735714Y-149429819D01*
X160259523Y-150429819D02*
X160259523Y-149429819D01*
X160259523Y-149429819D02*
X159688095Y-150429819D01*
X159688095Y-150429819D02*
X159688095Y-149429819D01*
X159450000Y-150525057D02*
X158688095Y-150525057D01*
X158449999Y-149906009D02*
X158116666Y-149906009D01*
X157973809Y-150429819D02*
X158449999Y-150429819D01*
X158449999Y-150429819D02*
X158449999Y-149429819D01*
X158449999Y-149429819D02*
X157973809Y-149429819D01*
X157640475Y-149429819D02*
X156973809Y-150429819D01*
X156973809Y-149429819D02*
X157640475Y-150429819D01*
X156735713Y-149429819D02*
X156164285Y-149429819D01*
X156449999Y-150429819D02*
X156449999Y-149429819D01*
X156069047Y-150525057D02*
X155307142Y-150525057D01*
X155069046Y-150429819D02*
X155069046Y-149429819D01*
X154592856Y-150429819D02*
X154592856Y-149429819D01*
X154592856Y-149429819D02*
X154021428Y-150429819D01*
X154021428Y-150429819D02*
X154021428Y-149429819D01*
X153688094Y-149429819D02*
X153116666Y-149429819D01*
X153402380Y-150429819D02*
X153402380Y-149429819D01*
X153021428Y-150525057D02*
X152259523Y-150525057D01*
X152069046Y-150382200D02*
X151926189Y-150429819D01*
X151926189Y-150429819D02*
X151688094Y-150429819D01*
X151688094Y-150429819D02*
X151592856Y-150382200D01*
X151592856Y-150382200D02*
X151545237Y-150334580D01*
X151545237Y-150334580D02*
X151497618Y-150239342D01*
X151497618Y-150239342D02*
X151497618Y-150144104D01*
X151497618Y-150144104D02*
X151545237Y-150048866D01*
X151545237Y-150048866D02*
X151592856Y-150001247D01*
X151592856Y-150001247D02*
X151688094Y-149953628D01*
X151688094Y-149953628D02*
X151878570Y-149906009D01*
X151878570Y-149906009D02*
X151973808Y-149858390D01*
X151973808Y-149858390D02*
X152021427Y-149810771D01*
X152021427Y-149810771D02*
X152069046Y-149715533D01*
X152069046Y-149715533D02*
X152069046Y-149620295D01*
X152069046Y-149620295D02*
X152021427Y-149525057D01*
X152021427Y-149525057D02*
X151973808Y-149477438D01*
X151973808Y-149477438D02*
X151878570Y-149429819D01*
X151878570Y-149429819D02*
X151640475Y-149429819D01*
X151640475Y-149429819D02*
X151497618Y-149477438D01*
X151069046Y-149906009D02*
X150735713Y-149906009D01*
X150592856Y-150429819D02*
X151069046Y-150429819D01*
X151069046Y-150429819D02*
X151069046Y-149429819D01*
X151069046Y-149429819D02*
X150592856Y-149429819D01*
X149688094Y-150429819D02*
X150164284Y-150429819D01*
X150164284Y-150429819D02*
X150164284Y-149429819D01*
%TO.C,JP1401*%
X75469104Y-86385714D02*
X75469104Y-86861904D01*
X75754819Y-86290476D02*
X74754819Y-86623809D01*
X74754819Y-86623809D02*
X75754819Y-86957142D01*
X75754819Y-87290476D02*
X74754819Y-87290476D01*
X74754819Y-87290476D02*
X74754819Y-87528571D01*
X74754819Y-87528571D02*
X74802438Y-87671428D01*
X74802438Y-87671428D02*
X74897676Y-87766666D01*
X74897676Y-87766666D02*
X74992914Y-87814285D01*
X74992914Y-87814285D02*
X75183390Y-87861904D01*
X75183390Y-87861904D02*
X75326247Y-87861904D01*
X75326247Y-87861904D02*
X75516723Y-87814285D01*
X75516723Y-87814285D02*
X75611961Y-87766666D01*
X75611961Y-87766666D02*
X75707200Y-87671428D01*
X75707200Y-87671428D02*
X75754819Y-87528571D01*
X75754819Y-87528571D02*
X75754819Y-87290476D01*
X75754819Y-88290476D02*
X74754819Y-88290476D01*
X74754819Y-88290476D02*
X74754819Y-88528571D01*
X74754819Y-88528571D02*
X74802438Y-88671428D01*
X74802438Y-88671428D02*
X74897676Y-88766666D01*
X74897676Y-88766666D02*
X74992914Y-88814285D01*
X74992914Y-88814285D02*
X75183390Y-88861904D01*
X75183390Y-88861904D02*
X75326247Y-88861904D01*
X75326247Y-88861904D02*
X75516723Y-88814285D01*
X75516723Y-88814285D02*
X75611961Y-88766666D01*
X75611961Y-88766666D02*
X75707200Y-88671428D01*
X75707200Y-88671428D02*
X75754819Y-88528571D01*
X75754819Y-88528571D02*
X75754819Y-88290476D01*
X75754819Y-89861904D02*
X75278628Y-89528571D01*
X75754819Y-89290476D02*
X74754819Y-89290476D01*
X74754819Y-89290476D02*
X74754819Y-89671428D01*
X74754819Y-89671428D02*
X74802438Y-89766666D01*
X74802438Y-89766666D02*
X74850057Y-89814285D01*
X74850057Y-89814285D02*
X74945295Y-89861904D01*
X74945295Y-89861904D02*
X75088152Y-89861904D01*
X75088152Y-89861904D02*
X75183390Y-89814285D01*
X75183390Y-89814285D02*
X75231009Y-89766666D01*
X75231009Y-89766666D02*
X75278628Y-89671428D01*
X75278628Y-89671428D02*
X75278628Y-89290476D01*
X74754819Y-90480952D02*
X74754819Y-90576190D01*
X74754819Y-90576190D02*
X74802438Y-90671428D01*
X74802438Y-90671428D02*
X74850057Y-90719047D01*
X74850057Y-90719047D02*
X74945295Y-90766666D01*
X74945295Y-90766666D02*
X75135771Y-90814285D01*
X75135771Y-90814285D02*
X75373866Y-90814285D01*
X75373866Y-90814285D02*
X75564342Y-90766666D01*
X75564342Y-90766666D02*
X75659580Y-90719047D01*
X75659580Y-90719047D02*
X75707200Y-90671428D01*
X75707200Y-90671428D02*
X75754819Y-90576190D01*
X75754819Y-90576190D02*
X75754819Y-90480952D01*
X75754819Y-90480952D02*
X75707200Y-90385714D01*
X75707200Y-90385714D02*
X75659580Y-90338095D01*
X75659580Y-90338095D02*
X75564342Y-90290476D01*
X75564342Y-90290476D02*
X75373866Y-90242857D01*
X75373866Y-90242857D02*
X75135771Y-90242857D01*
X75135771Y-90242857D02*
X74945295Y-90290476D01*
X74945295Y-90290476D02*
X74850057Y-90338095D01*
X74850057Y-90338095D02*
X74802438Y-90385714D01*
X74802438Y-90385714D02*
X74754819Y-90480952D01*
%TO.C,J202*%
X66066666Y-94854819D02*
X65495238Y-94854819D01*
X65780952Y-95854819D02*
X65780952Y-94854819D01*
X64590476Y-95759580D02*
X64638095Y-95807200D01*
X64638095Y-95807200D02*
X64780952Y-95854819D01*
X64780952Y-95854819D02*
X64876190Y-95854819D01*
X64876190Y-95854819D02*
X65019047Y-95807200D01*
X65019047Y-95807200D02*
X65114285Y-95711961D01*
X65114285Y-95711961D02*
X65161904Y-95616723D01*
X65161904Y-95616723D02*
X65209523Y-95426247D01*
X65209523Y-95426247D02*
X65209523Y-95283390D01*
X65209523Y-95283390D02*
X65161904Y-95092914D01*
X65161904Y-95092914D02*
X65114285Y-94997676D01*
X65114285Y-94997676D02*
X65019047Y-94902438D01*
X65019047Y-94902438D02*
X64876190Y-94854819D01*
X64876190Y-94854819D02*
X64780952Y-94854819D01*
X64780952Y-94854819D02*
X64638095Y-94902438D01*
X64638095Y-94902438D02*
X64590476Y-94950057D01*
X64209523Y-94950057D02*
X64161904Y-94902438D01*
X64161904Y-94902438D02*
X64066666Y-94854819D01*
X64066666Y-94854819D02*
X63828571Y-94854819D01*
X63828571Y-94854819D02*
X63733333Y-94902438D01*
X63733333Y-94902438D02*
X63685714Y-94950057D01*
X63685714Y-94950057D02*
X63638095Y-95045295D01*
X63638095Y-95045295D02*
X63638095Y-95140533D01*
X63638095Y-95140533D02*
X63685714Y-95283390D01*
X63685714Y-95283390D02*
X64257142Y-95854819D01*
X64257142Y-95854819D02*
X63638095Y-95854819D01*
X63019047Y-94854819D02*
X62923809Y-94854819D01*
X62923809Y-94854819D02*
X62828571Y-94902438D01*
X62828571Y-94902438D02*
X62780952Y-94950057D01*
X62780952Y-94950057D02*
X62733333Y-95045295D01*
X62733333Y-95045295D02*
X62685714Y-95235771D01*
X62685714Y-95235771D02*
X62685714Y-95473866D01*
X62685714Y-95473866D02*
X62733333Y-95664342D01*
X62733333Y-95664342D02*
X62780952Y-95759580D01*
X62780952Y-95759580D02*
X62828571Y-95807200D01*
X62828571Y-95807200D02*
X62923809Y-95854819D01*
X62923809Y-95854819D02*
X63019047Y-95854819D01*
X63019047Y-95854819D02*
X63114285Y-95807200D01*
X63114285Y-95807200D02*
X63161904Y-95759580D01*
X63161904Y-95759580D02*
X63209523Y-95664342D01*
X63209523Y-95664342D02*
X63257142Y-95473866D01*
X63257142Y-95473866D02*
X63257142Y-95235771D01*
X63257142Y-95235771D02*
X63209523Y-95045295D01*
X63209523Y-95045295D02*
X63161904Y-94950057D01*
X63161904Y-94950057D02*
X63114285Y-94902438D01*
X63114285Y-94902438D02*
X63019047Y-94854819D01*
X62352380Y-94854819D02*
X61685714Y-94854819D01*
X61685714Y-94854819D02*
X62114285Y-95854819D01*
X61114285Y-94854819D02*
X61019047Y-94854819D01*
X61019047Y-94854819D02*
X60923809Y-94902438D01*
X60923809Y-94902438D02*
X60876190Y-94950057D01*
X60876190Y-94950057D02*
X60828571Y-95045295D01*
X60828571Y-95045295D02*
X60780952Y-95235771D01*
X60780952Y-95235771D02*
X60780952Y-95473866D01*
X60780952Y-95473866D02*
X60828571Y-95664342D01*
X60828571Y-95664342D02*
X60876190Y-95759580D01*
X60876190Y-95759580D02*
X60923809Y-95807200D01*
X60923809Y-95807200D02*
X61019047Y-95854819D01*
X61019047Y-95854819D02*
X61114285Y-95854819D01*
X61114285Y-95854819D02*
X61209523Y-95807200D01*
X61209523Y-95807200D02*
X61257142Y-95759580D01*
X61257142Y-95759580D02*
X61304761Y-95664342D01*
X61304761Y-95664342D02*
X61352380Y-95473866D01*
X61352380Y-95473866D02*
X61352380Y-95235771D01*
X61352380Y-95235771D02*
X61304761Y-95045295D01*
X61304761Y-95045295D02*
X61257142Y-94950057D01*
X61257142Y-94950057D02*
X61209523Y-94902438D01*
X61209523Y-94902438D02*
X61114285Y-94854819D01*
X60352380Y-95473866D02*
X59590476Y-95473866D01*
X59114285Y-95854819D02*
X59114285Y-94854819D01*
X58638095Y-95854819D02*
X58638095Y-94854819D01*
X58638095Y-94854819D02*
X58400000Y-94854819D01*
X58400000Y-94854819D02*
X58257143Y-94902438D01*
X58257143Y-94902438D02*
X58161905Y-94997676D01*
X58161905Y-94997676D02*
X58114286Y-95092914D01*
X58114286Y-95092914D02*
X58066667Y-95283390D01*
X58066667Y-95283390D02*
X58066667Y-95426247D01*
X58066667Y-95426247D02*
X58114286Y-95616723D01*
X58114286Y-95616723D02*
X58161905Y-95711961D01*
X58161905Y-95711961D02*
X58257143Y-95807200D01*
X58257143Y-95807200D02*
X58400000Y-95854819D01*
X58400000Y-95854819D02*
X58638095Y-95854819D01*
X57066667Y-95759580D02*
X57114286Y-95807200D01*
X57114286Y-95807200D02*
X57257143Y-95854819D01*
X57257143Y-95854819D02*
X57352381Y-95854819D01*
X57352381Y-95854819D02*
X57495238Y-95807200D01*
X57495238Y-95807200D02*
X57590476Y-95711961D01*
X57590476Y-95711961D02*
X57638095Y-95616723D01*
X57638095Y-95616723D02*
X57685714Y-95426247D01*
X57685714Y-95426247D02*
X57685714Y-95283390D01*
X57685714Y-95283390D02*
X57638095Y-95092914D01*
X57638095Y-95092914D02*
X57590476Y-94997676D01*
X57590476Y-94997676D02*
X57495238Y-94902438D01*
X57495238Y-94902438D02*
X57352381Y-94854819D01*
X57352381Y-94854819D02*
X57257143Y-94854819D01*
X57257143Y-94854819D02*
X57114286Y-94902438D01*
X57114286Y-94902438D02*
X57066667Y-94950057D01*
X56638095Y-95473866D02*
X55876191Y-95473866D01*
X55066667Y-95331009D02*
X55400000Y-95331009D01*
X55400000Y-95854819D02*
X55400000Y-94854819D01*
X55400000Y-94854819D02*
X54923810Y-94854819D01*
X54542857Y-95854819D02*
X54542857Y-94854819D01*
X54542857Y-94854819D02*
X54161905Y-94854819D01*
X54161905Y-94854819D02*
X54066667Y-94902438D01*
X54066667Y-94902438D02*
X54019048Y-94950057D01*
X54019048Y-94950057D02*
X53971429Y-95045295D01*
X53971429Y-95045295D02*
X53971429Y-95188152D01*
X53971429Y-95188152D02*
X54019048Y-95283390D01*
X54019048Y-95283390D02*
X54066667Y-95331009D01*
X54066667Y-95331009D02*
X54161905Y-95378628D01*
X54161905Y-95378628D02*
X54542857Y-95378628D01*
X52495238Y-96235771D02*
X52542857Y-96188152D01*
X52542857Y-96188152D02*
X52638095Y-96045295D01*
X52638095Y-96045295D02*
X52685714Y-95950057D01*
X52685714Y-95950057D02*
X52733333Y-95807200D01*
X52733333Y-95807200D02*
X52780952Y-95569104D01*
X52780952Y-95569104D02*
X52780952Y-95378628D01*
X52780952Y-95378628D02*
X52733333Y-95140533D01*
X52733333Y-95140533D02*
X52685714Y-94997676D01*
X52685714Y-94997676D02*
X52638095Y-94902438D01*
X52638095Y-94902438D02*
X52542857Y-94759580D01*
X52542857Y-94759580D02*
X52495238Y-94711961D01*
X52114285Y-95854819D02*
X52114285Y-94854819D01*
X52114285Y-94854819D02*
X51876190Y-94854819D01*
X51876190Y-94854819D02*
X51733333Y-94902438D01*
X51733333Y-94902438D02*
X51638095Y-94997676D01*
X51638095Y-94997676D02*
X51590476Y-95092914D01*
X51590476Y-95092914D02*
X51542857Y-95283390D01*
X51542857Y-95283390D02*
X51542857Y-95426247D01*
X51542857Y-95426247D02*
X51590476Y-95616723D01*
X51590476Y-95616723D02*
X51638095Y-95711961D01*
X51638095Y-95711961D02*
X51733333Y-95807200D01*
X51733333Y-95807200D02*
X51876190Y-95854819D01*
X51876190Y-95854819D02*
X52114285Y-95854819D01*
X51114285Y-95854819D02*
X51114285Y-94854819D01*
X51114285Y-94854819D02*
X50542857Y-95854819D01*
X50542857Y-95854819D02*
X50542857Y-94854819D01*
X50066666Y-95854819D02*
X50066666Y-94854819D01*
X50066666Y-94854819D02*
X49685714Y-94854819D01*
X49685714Y-94854819D02*
X49590476Y-94902438D01*
X49590476Y-94902438D02*
X49542857Y-94950057D01*
X49542857Y-94950057D02*
X49495238Y-95045295D01*
X49495238Y-95045295D02*
X49495238Y-95188152D01*
X49495238Y-95188152D02*
X49542857Y-95283390D01*
X49542857Y-95283390D02*
X49590476Y-95331009D01*
X49590476Y-95331009D02*
X49685714Y-95378628D01*
X49685714Y-95378628D02*
X50066666Y-95378628D01*
X49161904Y-96235771D02*
X49114285Y-96188152D01*
X49114285Y-96188152D02*
X49019047Y-96045295D01*
X49019047Y-96045295D02*
X48971428Y-95950057D01*
X48971428Y-95950057D02*
X48923809Y-95807200D01*
X48923809Y-95807200D02*
X48876190Y-95569104D01*
X48876190Y-95569104D02*
X48876190Y-95378628D01*
X48876190Y-95378628D02*
X48923809Y-95140533D01*
X48923809Y-95140533D02*
X48971428Y-94997676D01*
X48971428Y-94997676D02*
X49019047Y-94902438D01*
X49019047Y-94902438D02*
X49114285Y-94759580D01*
X49114285Y-94759580D02*
X49161904Y-94711961D01*
X58685714Y-99654819D02*
X58685714Y-100369104D01*
X58685714Y-100369104D02*
X58733333Y-100511961D01*
X58733333Y-100511961D02*
X58828571Y-100607200D01*
X58828571Y-100607200D02*
X58971428Y-100654819D01*
X58971428Y-100654819D02*
X59066666Y-100654819D01*
X58257142Y-99750057D02*
X58209523Y-99702438D01*
X58209523Y-99702438D02*
X58114285Y-99654819D01*
X58114285Y-99654819D02*
X57876190Y-99654819D01*
X57876190Y-99654819D02*
X57780952Y-99702438D01*
X57780952Y-99702438D02*
X57733333Y-99750057D01*
X57733333Y-99750057D02*
X57685714Y-99845295D01*
X57685714Y-99845295D02*
X57685714Y-99940533D01*
X57685714Y-99940533D02*
X57733333Y-100083390D01*
X57733333Y-100083390D02*
X58304761Y-100654819D01*
X58304761Y-100654819D02*
X57685714Y-100654819D01*
X57066666Y-99654819D02*
X56971428Y-99654819D01*
X56971428Y-99654819D02*
X56876190Y-99702438D01*
X56876190Y-99702438D02*
X56828571Y-99750057D01*
X56828571Y-99750057D02*
X56780952Y-99845295D01*
X56780952Y-99845295D02*
X56733333Y-100035771D01*
X56733333Y-100035771D02*
X56733333Y-100273866D01*
X56733333Y-100273866D02*
X56780952Y-100464342D01*
X56780952Y-100464342D02*
X56828571Y-100559580D01*
X56828571Y-100559580D02*
X56876190Y-100607200D01*
X56876190Y-100607200D02*
X56971428Y-100654819D01*
X56971428Y-100654819D02*
X57066666Y-100654819D01*
X57066666Y-100654819D02*
X57161904Y-100607200D01*
X57161904Y-100607200D02*
X57209523Y-100559580D01*
X57209523Y-100559580D02*
X57257142Y-100464342D01*
X57257142Y-100464342D02*
X57304761Y-100273866D01*
X57304761Y-100273866D02*
X57304761Y-100035771D01*
X57304761Y-100035771D02*
X57257142Y-99845295D01*
X57257142Y-99845295D02*
X57209523Y-99750057D01*
X57209523Y-99750057D02*
X57161904Y-99702438D01*
X57161904Y-99702438D02*
X57066666Y-99654819D01*
X56352380Y-99750057D02*
X56304761Y-99702438D01*
X56304761Y-99702438D02*
X56209523Y-99654819D01*
X56209523Y-99654819D02*
X55971428Y-99654819D01*
X55971428Y-99654819D02*
X55876190Y-99702438D01*
X55876190Y-99702438D02*
X55828571Y-99750057D01*
X55828571Y-99750057D02*
X55780952Y-99845295D01*
X55780952Y-99845295D02*
X55780952Y-99940533D01*
X55780952Y-99940533D02*
X55828571Y-100083390D01*
X55828571Y-100083390D02*
X56399999Y-100654819D01*
X56399999Y-100654819D02*
X55780952Y-100654819D01*
%TO.C,JP1*%
X166973810Y-227027438D02*
X167069048Y-226979819D01*
X167069048Y-226979819D02*
X167211905Y-226979819D01*
X167211905Y-226979819D02*
X167354762Y-227027438D01*
X167354762Y-227027438D02*
X167450000Y-227122676D01*
X167450000Y-227122676D02*
X167497619Y-227217914D01*
X167497619Y-227217914D02*
X167545238Y-227408390D01*
X167545238Y-227408390D02*
X167545238Y-227551247D01*
X167545238Y-227551247D02*
X167497619Y-227741723D01*
X167497619Y-227741723D02*
X167450000Y-227836961D01*
X167450000Y-227836961D02*
X167354762Y-227932200D01*
X167354762Y-227932200D02*
X167211905Y-227979819D01*
X167211905Y-227979819D02*
X167116667Y-227979819D01*
X167116667Y-227979819D02*
X166973810Y-227932200D01*
X166973810Y-227932200D02*
X166926191Y-227884580D01*
X166926191Y-227884580D02*
X166926191Y-227551247D01*
X166926191Y-227551247D02*
X167116667Y-227551247D01*
X166497619Y-227979819D02*
X166497619Y-226979819D01*
X166497619Y-226979819D02*
X165926191Y-227979819D01*
X165926191Y-227979819D02*
X165926191Y-226979819D01*
X165497619Y-227932200D02*
X165354762Y-227979819D01*
X165354762Y-227979819D02*
X165116667Y-227979819D01*
X165116667Y-227979819D02*
X165021429Y-227932200D01*
X165021429Y-227932200D02*
X164973810Y-227884580D01*
X164973810Y-227884580D02*
X164926191Y-227789342D01*
X164926191Y-227789342D02*
X164926191Y-227694104D01*
X164926191Y-227694104D02*
X164973810Y-227598866D01*
X164973810Y-227598866D02*
X165021429Y-227551247D01*
X165021429Y-227551247D02*
X165116667Y-227503628D01*
X165116667Y-227503628D02*
X165307143Y-227456009D01*
X165307143Y-227456009D02*
X165402381Y-227408390D01*
X165402381Y-227408390D02*
X165450000Y-227360771D01*
X165450000Y-227360771D02*
X165497619Y-227265533D01*
X165497619Y-227265533D02*
X165497619Y-227170295D01*
X165497619Y-227170295D02*
X165450000Y-227075057D01*
X165450000Y-227075057D02*
X165402381Y-227027438D01*
X165402381Y-227027438D02*
X165307143Y-226979819D01*
X165307143Y-226979819D02*
X165069048Y-226979819D01*
X165069048Y-226979819D02*
X164926191Y-227027438D01*
X164545238Y-227932200D02*
X164402381Y-227979819D01*
X164402381Y-227979819D02*
X164164286Y-227979819D01*
X164164286Y-227979819D02*
X164069048Y-227932200D01*
X164069048Y-227932200D02*
X164021429Y-227884580D01*
X164021429Y-227884580D02*
X163973810Y-227789342D01*
X163973810Y-227789342D02*
X163973810Y-227694104D01*
X163973810Y-227694104D02*
X164021429Y-227598866D01*
X164021429Y-227598866D02*
X164069048Y-227551247D01*
X164069048Y-227551247D02*
X164164286Y-227503628D01*
X164164286Y-227503628D02*
X164354762Y-227456009D01*
X164354762Y-227456009D02*
X164450000Y-227408390D01*
X164450000Y-227408390D02*
X164497619Y-227360771D01*
X164497619Y-227360771D02*
X164545238Y-227265533D01*
X164545238Y-227265533D02*
X164545238Y-227170295D01*
X164545238Y-227170295D02*
X164497619Y-227075057D01*
X164497619Y-227075057D02*
X164450000Y-227027438D01*
X164450000Y-227027438D02*
X164354762Y-226979819D01*
X164354762Y-226979819D02*
X164116667Y-226979819D01*
X164116667Y-226979819D02*
X163973810Y-227027438D01*
X163783334Y-228075057D02*
X163021429Y-228075057D01*
X162211905Y-227884580D02*
X162259524Y-227932200D01*
X162259524Y-227932200D02*
X162402381Y-227979819D01*
X162402381Y-227979819D02*
X162497619Y-227979819D01*
X162497619Y-227979819D02*
X162640476Y-227932200D01*
X162640476Y-227932200D02*
X162735714Y-227836961D01*
X162735714Y-227836961D02*
X162783333Y-227741723D01*
X162783333Y-227741723D02*
X162830952Y-227551247D01*
X162830952Y-227551247D02*
X162830952Y-227408390D01*
X162830952Y-227408390D02*
X162783333Y-227217914D01*
X162783333Y-227217914D02*
X162735714Y-227122676D01*
X162735714Y-227122676D02*
X162640476Y-227027438D01*
X162640476Y-227027438D02*
X162497619Y-226979819D01*
X162497619Y-226979819D02*
X162402381Y-226979819D01*
X162402381Y-226979819D02*
X162259524Y-227027438D01*
X162259524Y-227027438D02*
X162211905Y-227075057D01*
X161592857Y-226979819D02*
X161402381Y-226979819D01*
X161402381Y-226979819D02*
X161307143Y-227027438D01*
X161307143Y-227027438D02*
X161211905Y-227122676D01*
X161211905Y-227122676D02*
X161164286Y-227313152D01*
X161164286Y-227313152D02*
X161164286Y-227646485D01*
X161164286Y-227646485D02*
X161211905Y-227836961D01*
X161211905Y-227836961D02*
X161307143Y-227932200D01*
X161307143Y-227932200D02*
X161402381Y-227979819D01*
X161402381Y-227979819D02*
X161592857Y-227979819D01*
X161592857Y-227979819D02*
X161688095Y-227932200D01*
X161688095Y-227932200D02*
X161783333Y-227836961D01*
X161783333Y-227836961D02*
X161830952Y-227646485D01*
X161830952Y-227646485D02*
X161830952Y-227313152D01*
X161830952Y-227313152D02*
X161783333Y-227122676D01*
X161783333Y-227122676D02*
X161688095Y-227027438D01*
X161688095Y-227027438D02*
X161592857Y-226979819D01*
X160735714Y-227979819D02*
X160735714Y-226979819D01*
X160735714Y-226979819D02*
X160164286Y-227979819D01*
X160164286Y-227979819D02*
X160164286Y-226979819D01*
X159688095Y-227979819D02*
X159688095Y-226979819D01*
X159688095Y-226979819D02*
X159116667Y-227979819D01*
X159116667Y-227979819D02*
X159116667Y-226979819D01*
X158878572Y-228075057D02*
X158116667Y-228075057D01*
X157307143Y-227979819D02*
X157640476Y-227503628D01*
X157878571Y-227979819D02*
X157878571Y-226979819D01*
X157878571Y-226979819D02*
X157497619Y-226979819D01*
X157497619Y-226979819D02*
X157402381Y-227027438D01*
X157402381Y-227027438D02*
X157354762Y-227075057D01*
X157354762Y-227075057D02*
X157307143Y-227170295D01*
X157307143Y-227170295D02*
X157307143Y-227313152D01*
X157307143Y-227313152D02*
X157354762Y-227408390D01*
X157354762Y-227408390D02*
X157402381Y-227456009D01*
X157402381Y-227456009D02*
X157497619Y-227503628D01*
X157497619Y-227503628D02*
X157878571Y-227503628D01*
X156878571Y-227456009D02*
X156545238Y-227456009D01*
X156402381Y-227979819D02*
X156878571Y-227979819D01*
X156878571Y-227979819D02*
X156878571Y-226979819D01*
X156878571Y-226979819D02*
X156402381Y-226979819D01*
X156021428Y-227932200D02*
X155878571Y-227979819D01*
X155878571Y-227979819D02*
X155640476Y-227979819D01*
X155640476Y-227979819D02*
X155545238Y-227932200D01*
X155545238Y-227932200D02*
X155497619Y-227884580D01*
X155497619Y-227884580D02*
X155450000Y-227789342D01*
X155450000Y-227789342D02*
X155450000Y-227694104D01*
X155450000Y-227694104D02*
X155497619Y-227598866D01*
X155497619Y-227598866D02*
X155545238Y-227551247D01*
X155545238Y-227551247D02*
X155640476Y-227503628D01*
X155640476Y-227503628D02*
X155830952Y-227456009D01*
X155830952Y-227456009D02*
X155926190Y-227408390D01*
X155926190Y-227408390D02*
X155973809Y-227360771D01*
X155973809Y-227360771D02*
X156021428Y-227265533D01*
X156021428Y-227265533D02*
X156021428Y-227170295D01*
X156021428Y-227170295D02*
X155973809Y-227075057D01*
X155973809Y-227075057D02*
X155926190Y-227027438D01*
X155926190Y-227027438D02*
X155830952Y-226979819D01*
X155830952Y-226979819D02*
X155592857Y-226979819D01*
X155592857Y-226979819D02*
X155450000Y-227027438D01*
X155021428Y-227456009D02*
X154688095Y-227456009D01*
X154545238Y-227979819D02*
X155021428Y-227979819D01*
X155021428Y-227979819D02*
X155021428Y-226979819D01*
X155021428Y-226979819D02*
X154545238Y-226979819D01*
X154259523Y-226979819D02*
X153688095Y-226979819D01*
X153973809Y-227979819D02*
X153973809Y-226979819D01*
X158016667Y-226702200D02*
X153692857Y-226702200D01*
X153592857Y-228075057D02*
X152830952Y-228075057D01*
X152640475Y-227932200D02*
X152497618Y-227979819D01*
X152497618Y-227979819D02*
X152259523Y-227979819D01*
X152259523Y-227979819D02*
X152164285Y-227932200D01*
X152164285Y-227932200D02*
X152116666Y-227884580D01*
X152116666Y-227884580D02*
X152069047Y-227789342D01*
X152069047Y-227789342D02*
X152069047Y-227694104D01*
X152069047Y-227694104D02*
X152116666Y-227598866D01*
X152116666Y-227598866D02*
X152164285Y-227551247D01*
X152164285Y-227551247D02*
X152259523Y-227503628D01*
X152259523Y-227503628D02*
X152449999Y-227456009D01*
X152449999Y-227456009D02*
X152545237Y-227408390D01*
X152545237Y-227408390D02*
X152592856Y-227360771D01*
X152592856Y-227360771D02*
X152640475Y-227265533D01*
X152640475Y-227265533D02*
X152640475Y-227170295D01*
X152640475Y-227170295D02*
X152592856Y-227075057D01*
X152592856Y-227075057D02*
X152545237Y-227027438D01*
X152545237Y-227027438D02*
X152449999Y-226979819D01*
X152449999Y-226979819D02*
X152211904Y-226979819D01*
X152211904Y-226979819D02*
X152069047Y-227027438D01*
X151640475Y-227456009D02*
X151307142Y-227456009D01*
X151164285Y-227979819D02*
X151640475Y-227979819D01*
X151640475Y-227979819D02*
X151640475Y-226979819D01*
X151640475Y-226979819D02*
X151164285Y-226979819D01*
X150259523Y-227979819D02*
X150735713Y-227979819D01*
X150735713Y-227979819D02*
X150735713Y-226979819D01*
%TO.C,JP1401*%
X75469104Y-236385714D02*
X75469104Y-236861904D01*
X75754819Y-236290476D02*
X74754819Y-236623809D01*
X74754819Y-236623809D02*
X75754819Y-236957142D01*
X75754819Y-237290476D02*
X74754819Y-237290476D01*
X74754819Y-237290476D02*
X74754819Y-237528571D01*
X74754819Y-237528571D02*
X74802438Y-237671428D01*
X74802438Y-237671428D02*
X74897676Y-237766666D01*
X74897676Y-237766666D02*
X74992914Y-237814285D01*
X74992914Y-237814285D02*
X75183390Y-237861904D01*
X75183390Y-237861904D02*
X75326247Y-237861904D01*
X75326247Y-237861904D02*
X75516723Y-237814285D01*
X75516723Y-237814285D02*
X75611961Y-237766666D01*
X75611961Y-237766666D02*
X75707200Y-237671428D01*
X75707200Y-237671428D02*
X75754819Y-237528571D01*
X75754819Y-237528571D02*
X75754819Y-237290476D01*
X75754819Y-238290476D02*
X74754819Y-238290476D01*
X74754819Y-238290476D02*
X74754819Y-238528571D01*
X74754819Y-238528571D02*
X74802438Y-238671428D01*
X74802438Y-238671428D02*
X74897676Y-238766666D01*
X74897676Y-238766666D02*
X74992914Y-238814285D01*
X74992914Y-238814285D02*
X75183390Y-238861904D01*
X75183390Y-238861904D02*
X75326247Y-238861904D01*
X75326247Y-238861904D02*
X75516723Y-238814285D01*
X75516723Y-238814285D02*
X75611961Y-238766666D01*
X75611961Y-238766666D02*
X75707200Y-238671428D01*
X75707200Y-238671428D02*
X75754819Y-238528571D01*
X75754819Y-238528571D02*
X75754819Y-238290476D01*
X75754819Y-239861904D02*
X75278628Y-239528571D01*
X75754819Y-239290476D02*
X74754819Y-239290476D01*
X74754819Y-239290476D02*
X74754819Y-239671428D01*
X74754819Y-239671428D02*
X74802438Y-239766666D01*
X74802438Y-239766666D02*
X74850057Y-239814285D01*
X74850057Y-239814285D02*
X74945295Y-239861904D01*
X74945295Y-239861904D02*
X75088152Y-239861904D01*
X75088152Y-239861904D02*
X75183390Y-239814285D01*
X75183390Y-239814285D02*
X75231009Y-239766666D01*
X75231009Y-239766666D02*
X75278628Y-239671428D01*
X75278628Y-239671428D02*
X75278628Y-239290476D01*
X74754819Y-240480952D02*
X74754819Y-240576190D01*
X74754819Y-240576190D02*
X74802438Y-240671428D01*
X74802438Y-240671428D02*
X74850057Y-240719047D01*
X74850057Y-240719047D02*
X74945295Y-240766666D01*
X74945295Y-240766666D02*
X75135771Y-240814285D01*
X75135771Y-240814285D02*
X75373866Y-240814285D01*
X75373866Y-240814285D02*
X75564342Y-240766666D01*
X75564342Y-240766666D02*
X75659580Y-240719047D01*
X75659580Y-240719047D02*
X75707200Y-240671428D01*
X75707200Y-240671428D02*
X75754819Y-240576190D01*
X75754819Y-240576190D02*
X75754819Y-240480952D01*
X75754819Y-240480952D02*
X75707200Y-240385714D01*
X75707200Y-240385714D02*
X75659580Y-240338095D01*
X75659580Y-240338095D02*
X75564342Y-240290476D01*
X75564342Y-240290476D02*
X75373866Y-240242857D01*
X75373866Y-240242857D02*
X75135771Y-240242857D01*
X75135771Y-240242857D02*
X74945295Y-240290476D01*
X74945295Y-240290476D02*
X74850057Y-240338095D01*
X74850057Y-240338095D02*
X74802438Y-240385714D01*
X74802438Y-240385714D02*
X74754819Y-240480952D01*
%TO.C,J202*%
X66066666Y-244854819D02*
X65495238Y-244854819D01*
X65780952Y-245854819D02*
X65780952Y-244854819D01*
X64590476Y-245759580D02*
X64638095Y-245807200D01*
X64638095Y-245807200D02*
X64780952Y-245854819D01*
X64780952Y-245854819D02*
X64876190Y-245854819D01*
X64876190Y-245854819D02*
X65019047Y-245807200D01*
X65019047Y-245807200D02*
X65114285Y-245711961D01*
X65114285Y-245711961D02*
X65161904Y-245616723D01*
X65161904Y-245616723D02*
X65209523Y-245426247D01*
X65209523Y-245426247D02*
X65209523Y-245283390D01*
X65209523Y-245283390D02*
X65161904Y-245092914D01*
X65161904Y-245092914D02*
X65114285Y-244997676D01*
X65114285Y-244997676D02*
X65019047Y-244902438D01*
X65019047Y-244902438D02*
X64876190Y-244854819D01*
X64876190Y-244854819D02*
X64780952Y-244854819D01*
X64780952Y-244854819D02*
X64638095Y-244902438D01*
X64638095Y-244902438D02*
X64590476Y-244950057D01*
X64209523Y-244950057D02*
X64161904Y-244902438D01*
X64161904Y-244902438D02*
X64066666Y-244854819D01*
X64066666Y-244854819D02*
X63828571Y-244854819D01*
X63828571Y-244854819D02*
X63733333Y-244902438D01*
X63733333Y-244902438D02*
X63685714Y-244950057D01*
X63685714Y-244950057D02*
X63638095Y-245045295D01*
X63638095Y-245045295D02*
X63638095Y-245140533D01*
X63638095Y-245140533D02*
X63685714Y-245283390D01*
X63685714Y-245283390D02*
X64257142Y-245854819D01*
X64257142Y-245854819D02*
X63638095Y-245854819D01*
X63019047Y-244854819D02*
X62923809Y-244854819D01*
X62923809Y-244854819D02*
X62828571Y-244902438D01*
X62828571Y-244902438D02*
X62780952Y-244950057D01*
X62780952Y-244950057D02*
X62733333Y-245045295D01*
X62733333Y-245045295D02*
X62685714Y-245235771D01*
X62685714Y-245235771D02*
X62685714Y-245473866D01*
X62685714Y-245473866D02*
X62733333Y-245664342D01*
X62733333Y-245664342D02*
X62780952Y-245759580D01*
X62780952Y-245759580D02*
X62828571Y-245807200D01*
X62828571Y-245807200D02*
X62923809Y-245854819D01*
X62923809Y-245854819D02*
X63019047Y-245854819D01*
X63019047Y-245854819D02*
X63114285Y-245807200D01*
X63114285Y-245807200D02*
X63161904Y-245759580D01*
X63161904Y-245759580D02*
X63209523Y-245664342D01*
X63209523Y-245664342D02*
X63257142Y-245473866D01*
X63257142Y-245473866D02*
X63257142Y-245235771D01*
X63257142Y-245235771D02*
X63209523Y-245045295D01*
X63209523Y-245045295D02*
X63161904Y-244950057D01*
X63161904Y-244950057D02*
X63114285Y-244902438D01*
X63114285Y-244902438D02*
X63019047Y-244854819D01*
X62352380Y-244854819D02*
X61685714Y-244854819D01*
X61685714Y-244854819D02*
X62114285Y-245854819D01*
X61114285Y-244854819D02*
X61019047Y-244854819D01*
X61019047Y-244854819D02*
X60923809Y-244902438D01*
X60923809Y-244902438D02*
X60876190Y-244950057D01*
X60876190Y-244950057D02*
X60828571Y-245045295D01*
X60828571Y-245045295D02*
X60780952Y-245235771D01*
X60780952Y-245235771D02*
X60780952Y-245473866D01*
X60780952Y-245473866D02*
X60828571Y-245664342D01*
X60828571Y-245664342D02*
X60876190Y-245759580D01*
X60876190Y-245759580D02*
X60923809Y-245807200D01*
X60923809Y-245807200D02*
X61019047Y-245854819D01*
X61019047Y-245854819D02*
X61114285Y-245854819D01*
X61114285Y-245854819D02*
X61209523Y-245807200D01*
X61209523Y-245807200D02*
X61257142Y-245759580D01*
X61257142Y-245759580D02*
X61304761Y-245664342D01*
X61304761Y-245664342D02*
X61352380Y-245473866D01*
X61352380Y-245473866D02*
X61352380Y-245235771D01*
X61352380Y-245235771D02*
X61304761Y-245045295D01*
X61304761Y-245045295D02*
X61257142Y-244950057D01*
X61257142Y-244950057D02*
X61209523Y-244902438D01*
X61209523Y-244902438D02*
X61114285Y-244854819D01*
X60352380Y-245473866D02*
X59590476Y-245473866D01*
X59114285Y-245854819D02*
X59114285Y-244854819D01*
X58638095Y-245854819D02*
X58638095Y-244854819D01*
X58638095Y-244854819D02*
X58400000Y-244854819D01*
X58400000Y-244854819D02*
X58257143Y-244902438D01*
X58257143Y-244902438D02*
X58161905Y-244997676D01*
X58161905Y-244997676D02*
X58114286Y-245092914D01*
X58114286Y-245092914D02*
X58066667Y-245283390D01*
X58066667Y-245283390D02*
X58066667Y-245426247D01*
X58066667Y-245426247D02*
X58114286Y-245616723D01*
X58114286Y-245616723D02*
X58161905Y-245711961D01*
X58161905Y-245711961D02*
X58257143Y-245807200D01*
X58257143Y-245807200D02*
X58400000Y-245854819D01*
X58400000Y-245854819D02*
X58638095Y-245854819D01*
X57066667Y-245759580D02*
X57114286Y-245807200D01*
X57114286Y-245807200D02*
X57257143Y-245854819D01*
X57257143Y-245854819D02*
X57352381Y-245854819D01*
X57352381Y-245854819D02*
X57495238Y-245807200D01*
X57495238Y-245807200D02*
X57590476Y-245711961D01*
X57590476Y-245711961D02*
X57638095Y-245616723D01*
X57638095Y-245616723D02*
X57685714Y-245426247D01*
X57685714Y-245426247D02*
X57685714Y-245283390D01*
X57685714Y-245283390D02*
X57638095Y-245092914D01*
X57638095Y-245092914D02*
X57590476Y-244997676D01*
X57590476Y-244997676D02*
X57495238Y-244902438D01*
X57495238Y-244902438D02*
X57352381Y-244854819D01*
X57352381Y-244854819D02*
X57257143Y-244854819D01*
X57257143Y-244854819D02*
X57114286Y-244902438D01*
X57114286Y-244902438D02*
X57066667Y-244950057D01*
X56638095Y-245473866D02*
X55876191Y-245473866D01*
X55066667Y-245331009D02*
X55400000Y-245331009D01*
X55400000Y-245854819D02*
X55400000Y-244854819D01*
X55400000Y-244854819D02*
X54923810Y-244854819D01*
X54542857Y-245854819D02*
X54542857Y-244854819D01*
X54542857Y-244854819D02*
X54161905Y-244854819D01*
X54161905Y-244854819D02*
X54066667Y-244902438D01*
X54066667Y-244902438D02*
X54019048Y-244950057D01*
X54019048Y-244950057D02*
X53971429Y-245045295D01*
X53971429Y-245045295D02*
X53971429Y-245188152D01*
X53971429Y-245188152D02*
X54019048Y-245283390D01*
X54019048Y-245283390D02*
X54066667Y-245331009D01*
X54066667Y-245331009D02*
X54161905Y-245378628D01*
X54161905Y-245378628D02*
X54542857Y-245378628D01*
X52495238Y-246235771D02*
X52542857Y-246188152D01*
X52542857Y-246188152D02*
X52638095Y-246045295D01*
X52638095Y-246045295D02*
X52685714Y-245950057D01*
X52685714Y-245950057D02*
X52733333Y-245807200D01*
X52733333Y-245807200D02*
X52780952Y-245569104D01*
X52780952Y-245569104D02*
X52780952Y-245378628D01*
X52780952Y-245378628D02*
X52733333Y-245140533D01*
X52733333Y-245140533D02*
X52685714Y-244997676D01*
X52685714Y-244997676D02*
X52638095Y-244902438D01*
X52638095Y-244902438D02*
X52542857Y-244759580D01*
X52542857Y-244759580D02*
X52495238Y-244711961D01*
X52114285Y-245854819D02*
X52114285Y-244854819D01*
X52114285Y-244854819D02*
X51876190Y-244854819D01*
X51876190Y-244854819D02*
X51733333Y-244902438D01*
X51733333Y-244902438D02*
X51638095Y-244997676D01*
X51638095Y-244997676D02*
X51590476Y-245092914D01*
X51590476Y-245092914D02*
X51542857Y-245283390D01*
X51542857Y-245283390D02*
X51542857Y-245426247D01*
X51542857Y-245426247D02*
X51590476Y-245616723D01*
X51590476Y-245616723D02*
X51638095Y-245711961D01*
X51638095Y-245711961D02*
X51733333Y-245807200D01*
X51733333Y-245807200D02*
X51876190Y-245854819D01*
X51876190Y-245854819D02*
X52114285Y-245854819D01*
X51114285Y-245854819D02*
X51114285Y-244854819D01*
X51114285Y-244854819D02*
X50542857Y-245854819D01*
X50542857Y-245854819D02*
X50542857Y-244854819D01*
X50066666Y-245854819D02*
X50066666Y-244854819D01*
X50066666Y-244854819D02*
X49685714Y-244854819D01*
X49685714Y-244854819D02*
X49590476Y-244902438D01*
X49590476Y-244902438D02*
X49542857Y-244950057D01*
X49542857Y-244950057D02*
X49495238Y-245045295D01*
X49495238Y-245045295D02*
X49495238Y-245188152D01*
X49495238Y-245188152D02*
X49542857Y-245283390D01*
X49542857Y-245283390D02*
X49590476Y-245331009D01*
X49590476Y-245331009D02*
X49685714Y-245378628D01*
X49685714Y-245378628D02*
X50066666Y-245378628D01*
X49161904Y-246235771D02*
X49114285Y-246188152D01*
X49114285Y-246188152D02*
X49019047Y-246045295D01*
X49019047Y-246045295D02*
X48971428Y-245950057D01*
X48971428Y-245950057D02*
X48923809Y-245807200D01*
X48923809Y-245807200D02*
X48876190Y-245569104D01*
X48876190Y-245569104D02*
X48876190Y-245378628D01*
X48876190Y-245378628D02*
X48923809Y-245140533D01*
X48923809Y-245140533D02*
X48971428Y-244997676D01*
X48971428Y-244997676D02*
X49019047Y-244902438D01*
X49019047Y-244902438D02*
X49114285Y-244759580D01*
X49114285Y-244759580D02*
X49161904Y-244711961D01*
X58685714Y-249654819D02*
X58685714Y-250369104D01*
X58685714Y-250369104D02*
X58733333Y-250511961D01*
X58733333Y-250511961D02*
X58828571Y-250607200D01*
X58828571Y-250607200D02*
X58971428Y-250654819D01*
X58971428Y-250654819D02*
X59066666Y-250654819D01*
X58257142Y-249750057D02*
X58209523Y-249702438D01*
X58209523Y-249702438D02*
X58114285Y-249654819D01*
X58114285Y-249654819D02*
X57876190Y-249654819D01*
X57876190Y-249654819D02*
X57780952Y-249702438D01*
X57780952Y-249702438D02*
X57733333Y-249750057D01*
X57733333Y-249750057D02*
X57685714Y-249845295D01*
X57685714Y-249845295D02*
X57685714Y-249940533D01*
X57685714Y-249940533D02*
X57733333Y-250083390D01*
X57733333Y-250083390D02*
X58304761Y-250654819D01*
X58304761Y-250654819D02*
X57685714Y-250654819D01*
X57066666Y-249654819D02*
X56971428Y-249654819D01*
X56971428Y-249654819D02*
X56876190Y-249702438D01*
X56876190Y-249702438D02*
X56828571Y-249750057D01*
X56828571Y-249750057D02*
X56780952Y-249845295D01*
X56780952Y-249845295D02*
X56733333Y-250035771D01*
X56733333Y-250035771D02*
X56733333Y-250273866D01*
X56733333Y-250273866D02*
X56780952Y-250464342D01*
X56780952Y-250464342D02*
X56828571Y-250559580D01*
X56828571Y-250559580D02*
X56876190Y-250607200D01*
X56876190Y-250607200D02*
X56971428Y-250654819D01*
X56971428Y-250654819D02*
X57066666Y-250654819D01*
X57066666Y-250654819D02*
X57161904Y-250607200D01*
X57161904Y-250607200D02*
X57209523Y-250559580D01*
X57209523Y-250559580D02*
X57257142Y-250464342D01*
X57257142Y-250464342D02*
X57304761Y-250273866D01*
X57304761Y-250273866D02*
X57304761Y-250035771D01*
X57304761Y-250035771D02*
X57257142Y-249845295D01*
X57257142Y-249845295D02*
X57209523Y-249750057D01*
X57209523Y-249750057D02*
X57161904Y-249702438D01*
X57161904Y-249702438D02*
X57066666Y-249654819D01*
X56352380Y-249750057D02*
X56304761Y-249702438D01*
X56304761Y-249702438D02*
X56209523Y-249654819D01*
X56209523Y-249654819D02*
X55971428Y-249654819D01*
X55971428Y-249654819D02*
X55876190Y-249702438D01*
X55876190Y-249702438D02*
X55828571Y-249750057D01*
X55828571Y-249750057D02*
X55780952Y-249845295D01*
X55780952Y-249845295D02*
X55780952Y-249940533D01*
X55780952Y-249940533D02*
X55828571Y-250083390D01*
X55828571Y-250083390D02*
X56399999Y-250654819D01*
X56399999Y-250654819D02*
X55780952Y-250654819D01*
X66066666Y-169854819D02*
X65495238Y-169854819D01*
X65780952Y-170854819D02*
X65780952Y-169854819D01*
X64590476Y-170759580D02*
X64638095Y-170807200D01*
X64638095Y-170807200D02*
X64780952Y-170854819D01*
X64780952Y-170854819D02*
X64876190Y-170854819D01*
X64876190Y-170854819D02*
X65019047Y-170807200D01*
X65019047Y-170807200D02*
X65114285Y-170711961D01*
X65114285Y-170711961D02*
X65161904Y-170616723D01*
X65161904Y-170616723D02*
X65209523Y-170426247D01*
X65209523Y-170426247D02*
X65209523Y-170283390D01*
X65209523Y-170283390D02*
X65161904Y-170092914D01*
X65161904Y-170092914D02*
X65114285Y-169997676D01*
X65114285Y-169997676D02*
X65019047Y-169902438D01*
X65019047Y-169902438D02*
X64876190Y-169854819D01*
X64876190Y-169854819D02*
X64780952Y-169854819D01*
X64780952Y-169854819D02*
X64638095Y-169902438D01*
X64638095Y-169902438D02*
X64590476Y-169950057D01*
X64209523Y-169950057D02*
X64161904Y-169902438D01*
X64161904Y-169902438D02*
X64066666Y-169854819D01*
X64066666Y-169854819D02*
X63828571Y-169854819D01*
X63828571Y-169854819D02*
X63733333Y-169902438D01*
X63733333Y-169902438D02*
X63685714Y-169950057D01*
X63685714Y-169950057D02*
X63638095Y-170045295D01*
X63638095Y-170045295D02*
X63638095Y-170140533D01*
X63638095Y-170140533D02*
X63685714Y-170283390D01*
X63685714Y-170283390D02*
X64257142Y-170854819D01*
X64257142Y-170854819D02*
X63638095Y-170854819D01*
X63019047Y-169854819D02*
X62923809Y-169854819D01*
X62923809Y-169854819D02*
X62828571Y-169902438D01*
X62828571Y-169902438D02*
X62780952Y-169950057D01*
X62780952Y-169950057D02*
X62733333Y-170045295D01*
X62733333Y-170045295D02*
X62685714Y-170235771D01*
X62685714Y-170235771D02*
X62685714Y-170473866D01*
X62685714Y-170473866D02*
X62733333Y-170664342D01*
X62733333Y-170664342D02*
X62780952Y-170759580D01*
X62780952Y-170759580D02*
X62828571Y-170807200D01*
X62828571Y-170807200D02*
X62923809Y-170854819D01*
X62923809Y-170854819D02*
X63019047Y-170854819D01*
X63019047Y-170854819D02*
X63114285Y-170807200D01*
X63114285Y-170807200D02*
X63161904Y-170759580D01*
X63161904Y-170759580D02*
X63209523Y-170664342D01*
X63209523Y-170664342D02*
X63257142Y-170473866D01*
X63257142Y-170473866D02*
X63257142Y-170235771D01*
X63257142Y-170235771D02*
X63209523Y-170045295D01*
X63209523Y-170045295D02*
X63161904Y-169950057D01*
X63161904Y-169950057D02*
X63114285Y-169902438D01*
X63114285Y-169902438D02*
X63019047Y-169854819D01*
X62352380Y-169854819D02*
X61685714Y-169854819D01*
X61685714Y-169854819D02*
X62114285Y-170854819D01*
X61114285Y-169854819D02*
X61019047Y-169854819D01*
X61019047Y-169854819D02*
X60923809Y-169902438D01*
X60923809Y-169902438D02*
X60876190Y-169950057D01*
X60876190Y-169950057D02*
X60828571Y-170045295D01*
X60828571Y-170045295D02*
X60780952Y-170235771D01*
X60780952Y-170235771D02*
X60780952Y-170473866D01*
X60780952Y-170473866D02*
X60828571Y-170664342D01*
X60828571Y-170664342D02*
X60876190Y-170759580D01*
X60876190Y-170759580D02*
X60923809Y-170807200D01*
X60923809Y-170807200D02*
X61019047Y-170854819D01*
X61019047Y-170854819D02*
X61114285Y-170854819D01*
X61114285Y-170854819D02*
X61209523Y-170807200D01*
X61209523Y-170807200D02*
X61257142Y-170759580D01*
X61257142Y-170759580D02*
X61304761Y-170664342D01*
X61304761Y-170664342D02*
X61352380Y-170473866D01*
X61352380Y-170473866D02*
X61352380Y-170235771D01*
X61352380Y-170235771D02*
X61304761Y-170045295D01*
X61304761Y-170045295D02*
X61257142Y-169950057D01*
X61257142Y-169950057D02*
X61209523Y-169902438D01*
X61209523Y-169902438D02*
X61114285Y-169854819D01*
X60352380Y-170473866D02*
X59590476Y-170473866D01*
X59114285Y-170854819D02*
X59114285Y-169854819D01*
X58638095Y-170854819D02*
X58638095Y-169854819D01*
X58638095Y-169854819D02*
X58400000Y-169854819D01*
X58400000Y-169854819D02*
X58257143Y-169902438D01*
X58257143Y-169902438D02*
X58161905Y-169997676D01*
X58161905Y-169997676D02*
X58114286Y-170092914D01*
X58114286Y-170092914D02*
X58066667Y-170283390D01*
X58066667Y-170283390D02*
X58066667Y-170426247D01*
X58066667Y-170426247D02*
X58114286Y-170616723D01*
X58114286Y-170616723D02*
X58161905Y-170711961D01*
X58161905Y-170711961D02*
X58257143Y-170807200D01*
X58257143Y-170807200D02*
X58400000Y-170854819D01*
X58400000Y-170854819D02*
X58638095Y-170854819D01*
X57066667Y-170759580D02*
X57114286Y-170807200D01*
X57114286Y-170807200D02*
X57257143Y-170854819D01*
X57257143Y-170854819D02*
X57352381Y-170854819D01*
X57352381Y-170854819D02*
X57495238Y-170807200D01*
X57495238Y-170807200D02*
X57590476Y-170711961D01*
X57590476Y-170711961D02*
X57638095Y-170616723D01*
X57638095Y-170616723D02*
X57685714Y-170426247D01*
X57685714Y-170426247D02*
X57685714Y-170283390D01*
X57685714Y-170283390D02*
X57638095Y-170092914D01*
X57638095Y-170092914D02*
X57590476Y-169997676D01*
X57590476Y-169997676D02*
X57495238Y-169902438D01*
X57495238Y-169902438D02*
X57352381Y-169854819D01*
X57352381Y-169854819D02*
X57257143Y-169854819D01*
X57257143Y-169854819D02*
X57114286Y-169902438D01*
X57114286Y-169902438D02*
X57066667Y-169950057D01*
X56638095Y-170473866D02*
X55876191Y-170473866D01*
X55066667Y-170331009D02*
X55400000Y-170331009D01*
X55400000Y-170854819D02*
X55400000Y-169854819D01*
X55400000Y-169854819D02*
X54923810Y-169854819D01*
X54542857Y-170854819D02*
X54542857Y-169854819D01*
X54542857Y-169854819D02*
X54161905Y-169854819D01*
X54161905Y-169854819D02*
X54066667Y-169902438D01*
X54066667Y-169902438D02*
X54019048Y-169950057D01*
X54019048Y-169950057D02*
X53971429Y-170045295D01*
X53971429Y-170045295D02*
X53971429Y-170188152D01*
X53971429Y-170188152D02*
X54019048Y-170283390D01*
X54019048Y-170283390D02*
X54066667Y-170331009D01*
X54066667Y-170331009D02*
X54161905Y-170378628D01*
X54161905Y-170378628D02*
X54542857Y-170378628D01*
X52495238Y-171235771D02*
X52542857Y-171188152D01*
X52542857Y-171188152D02*
X52638095Y-171045295D01*
X52638095Y-171045295D02*
X52685714Y-170950057D01*
X52685714Y-170950057D02*
X52733333Y-170807200D01*
X52733333Y-170807200D02*
X52780952Y-170569104D01*
X52780952Y-170569104D02*
X52780952Y-170378628D01*
X52780952Y-170378628D02*
X52733333Y-170140533D01*
X52733333Y-170140533D02*
X52685714Y-169997676D01*
X52685714Y-169997676D02*
X52638095Y-169902438D01*
X52638095Y-169902438D02*
X52542857Y-169759580D01*
X52542857Y-169759580D02*
X52495238Y-169711961D01*
X52114285Y-170854819D02*
X52114285Y-169854819D01*
X52114285Y-169854819D02*
X51876190Y-169854819D01*
X51876190Y-169854819D02*
X51733333Y-169902438D01*
X51733333Y-169902438D02*
X51638095Y-169997676D01*
X51638095Y-169997676D02*
X51590476Y-170092914D01*
X51590476Y-170092914D02*
X51542857Y-170283390D01*
X51542857Y-170283390D02*
X51542857Y-170426247D01*
X51542857Y-170426247D02*
X51590476Y-170616723D01*
X51590476Y-170616723D02*
X51638095Y-170711961D01*
X51638095Y-170711961D02*
X51733333Y-170807200D01*
X51733333Y-170807200D02*
X51876190Y-170854819D01*
X51876190Y-170854819D02*
X52114285Y-170854819D01*
X51114285Y-170854819D02*
X51114285Y-169854819D01*
X51114285Y-169854819D02*
X50542857Y-170854819D01*
X50542857Y-170854819D02*
X50542857Y-169854819D01*
X50066666Y-170854819D02*
X50066666Y-169854819D01*
X50066666Y-169854819D02*
X49685714Y-169854819D01*
X49685714Y-169854819D02*
X49590476Y-169902438D01*
X49590476Y-169902438D02*
X49542857Y-169950057D01*
X49542857Y-169950057D02*
X49495238Y-170045295D01*
X49495238Y-170045295D02*
X49495238Y-170188152D01*
X49495238Y-170188152D02*
X49542857Y-170283390D01*
X49542857Y-170283390D02*
X49590476Y-170331009D01*
X49590476Y-170331009D02*
X49685714Y-170378628D01*
X49685714Y-170378628D02*
X50066666Y-170378628D01*
X49161904Y-171235771D02*
X49114285Y-171188152D01*
X49114285Y-171188152D02*
X49019047Y-171045295D01*
X49019047Y-171045295D02*
X48971428Y-170950057D01*
X48971428Y-170950057D02*
X48923809Y-170807200D01*
X48923809Y-170807200D02*
X48876190Y-170569104D01*
X48876190Y-170569104D02*
X48876190Y-170378628D01*
X48876190Y-170378628D02*
X48923809Y-170140533D01*
X48923809Y-170140533D02*
X48971428Y-169997676D01*
X48971428Y-169997676D02*
X49019047Y-169902438D01*
X49019047Y-169902438D02*
X49114285Y-169759580D01*
X49114285Y-169759580D02*
X49161904Y-169711961D01*
X58685714Y-174654819D02*
X58685714Y-175369104D01*
X58685714Y-175369104D02*
X58733333Y-175511961D01*
X58733333Y-175511961D02*
X58828571Y-175607200D01*
X58828571Y-175607200D02*
X58971428Y-175654819D01*
X58971428Y-175654819D02*
X59066666Y-175654819D01*
X58257142Y-174750057D02*
X58209523Y-174702438D01*
X58209523Y-174702438D02*
X58114285Y-174654819D01*
X58114285Y-174654819D02*
X57876190Y-174654819D01*
X57876190Y-174654819D02*
X57780952Y-174702438D01*
X57780952Y-174702438D02*
X57733333Y-174750057D01*
X57733333Y-174750057D02*
X57685714Y-174845295D01*
X57685714Y-174845295D02*
X57685714Y-174940533D01*
X57685714Y-174940533D02*
X57733333Y-175083390D01*
X57733333Y-175083390D02*
X58304761Y-175654819D01*
X58304761Y-175654819D02*
X57685714Y-175654819D01*
X57066666Y-174654819D02*
X56971428Y-174654819D01*
X56971428Y-174654819D02*
X56876190Y-174702438D01*
X56876190Y-174702438D02*
X56828571Y-174750057D01*
X56828571Y-174750057D02*
X56780952Y-174845295D01*
X56780952Y-174845295D02*
X56733333Y-175035771D01*
X56733333Y-175035771D02*
X56733333Y-175273866D01*
X56733333Y-175273866D02*
X56780952Y-175464342D01*
X56780952Y-175464342D02*
X56828571Y-175559580D01*
X56828571Y-175559580D02*
X56876190Y-175607200D01*
X56876190Y-175607200D02*
X56971428Y-175654819D01*
X56971428Y-175654819D02*
X57066666Y-175654819D01*
X57066666Y-175654819D02*
X57161904Y-175607200D01*
X57161904Y-175607200D02*
X57209523Y-175559580D01*
X57209523Y-175559580D02*
X57257142Y-175464342D01*
X57257142Y-175464342D02*
X57304761Y-175273866D01*
X57304761Y-175273866D02*
X57304761Y-175035771D01*
X57304761Y-175035771D02*
X57257142Y-174845295D01*
X57257142Y-174845295D02*
X57209523Y-174750057D01*
X57209523Y-174750057D02*
X57161904Y-174702438D01*
X57161904Y-174702438D02*
X57066666Y-174654819D01*
X56352380Y-174750057D02*
X56304761Y-174702438D01*
X56304761Y-174702438D02*
X56209523Y-174654819D01*
X56209523Y-174654819D02*
X55971428Y-174654819D01*
X55971428Y-174654819D02*
X55876190Y-174702438D01*
X55876190Y-174702438D02*
X55828571Y-174750057D01*
X55828571Y-174750057D02*
X55780952Y-174845295D01*
X55780952Y-174845295D02*
X55780952Y-174940533D01*
X55780952Y-174940533D02*
X55828571Y-175083390D01*
X55828571Y-175083390D02*
X56399999Y-175654819D01*
X56399999Y-175654819D02*
X55780952Y-175654819D01*
%TO.C,BT301*%
X148513994Y-82592123D02*
X148581337Y-82592123D01*
X148581337Y-82592123D02*
X148716024Y-82524780D01*
X148716024Y-82524780D02*
X148783368Y-82457436D01*
X148783368Y-82457436D02*
X148850711Y-82322749D01*
X148850711Y-82322749D02*
X148850711Y-82188062D01*
X148850711Y-82188062D02*
X148817040Y-82087047D01*
X148817040Y-82087047D02*
X148716024Y-81918688D01*
X148716024Y-81918688D02*
X148615009Y-81817673D01*
X148615009Y-81817673D02*
X148446650Y-81716658D01*
X148446650Y-81716658D02*
X148345635Y-81682986D01*
X148345635Y-81682986D02*
X148210948Y-81682986D01*
X148210948Y-81682986D02*
X148076261Y-81750330D01*
X148076261Y-81750330D02*
X148008917Y-81817673D01*
X148008917Y-81817673D02*
X147941574Y-81952360D01*
X147941574Y-81952360D02*
X147941574Y-82019704D01*
X147874230Y-83366574D02*
X147773215Y-82794154D01*
X148278292Y-82962513D02*
X147571185Y-82255406D01*
X147571185Y-82255406D02*
X147301811Y-82524780D01*
X147301811Y-82524780D02*
X147268139Y-82625795D01*
X147268139Y-82625795D02*
X147268139Y-82693139D01*
X147268139Y-82693139D02*
X147301811Y-82794154D01*
X147301811Y-82794154D02*
X147402826Y-82895169D01*
X147402826Y-82895169D02*
X147503841Y-82928841D01*
X147503841Y-82928841D02*
X147571185Y-82928841D01*
X147571185Y-82928841D02*
X147672200Y-82895169D01*
X147672200Y-82895169D02*
X147941574Y-82625795D01*
X146965093Y-82996185D02*
X146897750Y-82996185D01*
X146897750Y-82996185D02*
X146796734Y-83029856D01*
X146796734Y-83029856D02*
X146628376Y-83198215D01*
X146628376Y-83198215D02*
X146594704Y-83299230D01*
X146594704Y-83299230D02*
X146594704Y-83366574D01*
X146594704Y-83366574D02*
X146628376Y-83467589D01*
X146628376Y-83467589D02*
X146695719Y-83534933D01*
X146695719Y-83534933D02*
X146830406Y-83602276D01*
X146830406Y-83602276D02*
X147638528Y-83602276D01*
X147638528Y-83602276D02*
X147200795Y-84040009D01*
X146055956Y-83770635D02*
X145988612Y-83837978D01*
X145988612Y-83837978D02*
X145954941Y-83938994D01*
X145954941Y-83938994D02*
X145954941Y-84006337D01*
X145954941Y-84006337D02*
X145988612Y-84107352D01*
X145988612Y-84107352D02*
X146089628Y-84275711D01*
X146089628Y-84275711D02*
X146257986Y-84444070D01*
X146257986Y-84444070D02*
X146426345Y-84545085D01*
X146426345Y-84545085D02*
X146527360Y-84578757D01*
X146527360Y-84578757D02*
X146594704Y-84578757D01*
X146594704Y-84578757D02*
X146695719Y-84545085D01*
X146695719Y-84545085D02*
X146763063Y-84477742D01*
X146763063Y-84477742D02*
X146796734Y-84376726D01*
X146796734Y-84376726D02*
X146796734Y-84309383D01*
X146796734Y-84309383D02*
X146763063Y-84208368D01*
X146763063Y-84208368D02*
X146662047Y-84040009D01*
X146662047Y-84040009D02*
X146493689Y-83871650D01*
X146493689Y-83871650D02*
X146325330Y-83770635D01*
X146325330Y-83770635D02*
X146224315Y-83736963D01*
X146224315Y-83736963D02*
X146156971Y-83736963D01*
X146156971Y-83736963D02*
X146055956Y-83770635D01*
X145584551Y-84242039D02*
X145146819Y-84679772D01*
X145146819Y-84679772D02*
X145651895Y-84713444D01*
X145651895Y-84713444D02*
X145550880Y-84814459D01*
X145550880Y-84814459D02*
X145517208Y-84915474D01*
X145517208Y-84915474D02*
X145517208Y-84982818D01*
X145517208Y-84982818D02*
X145550880Y-85083833D01*
X145550880Y-85083833D02*
X145719238Y-85252192D01*
X145719238Y-85252192D02*
X145820254Y-85285864D01*
X145820254Y-85285864D02*
X145887597Y-85285864D01*
X145887597Y-85285864D02*
X145988612Y-85252192D01*
X145988612Y-85252192D02*
X146190643Y-85050161D01*
X146190643Y-85050161D02*
X146224315Y-84949146D01*
X146224315Y-84949146D02*
X146224315Y-84881803D01*
X144944788Y-85016490D02*
X144877445Y-85016490D01*
X144877445Y-85016490D02*
X144776429Y-85050161D01*
X144776429Y-85050161D02*
X144608070Y-85218520D01*
X144608070Y-85218520D02*
X144574399Y-85319535D01*
X144574399Y-85319535D02*
X144574399Y-85386879D01*
X144574399Y-85386879D02*
X144608070Y-85487894D01*
X144608070Y-85487894D02*
X144675414Y-85555238D01*
X144675414Y-85555238D02*
X144810101Y-85622581D01*
X144810101Y-85622581D02*
X145618223Y-85622581D01*
X145618223Y-85622581D02*
X145180490Y-86060314D01*
X126851272Y-74374532D02*
X126783928Y-74509219D01*
X126783928Y-74509219D02*
X126783928Y-74576562D01*
X126783928Y-74576562D02*
X126817600Y-74677578D01*
X126817600Y-74677578D02*
X126918615Y-74778593D01*
X126918615Y-74778593D02*
X127019631Y-74812265D01*
X127019631Y-74812265D02*
X127086974Y-74812265D01*
X127086974Y-74812265D02*
X127187989Y-74778593D01*
X127187989Y-74778593D02*
X127457363Y-74509219D01*
X127457363Y-74509219D02*
X126750257Y-73802112D01*
X126750257Y-73802112D02*
X126514554Y-74037814D01*
X126514554Y-74037814D02*
X126480883Y-74138830D01*
X126480883Y-74138830D02*
X126480883Y-74206173D01*
X126480883Y-74206173D02*
X126514554Y-74307188D01*
X126514554Y-74307188D02*
X126581898Y-74374532D01*
X126581898Y-74374532D02*
X126682913Y-74408204D01*
X126682913Y-74408204D02*
X126750257Y-74408204D01*
X126750257Y-74408204D02*
X126851272Y-74374532D01*
X126851272Y-74374532D02*
X127086974Y-74138830D01*
X126144165Y-74408204D02*
X125740104Y-74812265D01*
X126649241Y-75317341D02*
X125942135Y-74610234D01*
X125571745Y-74980623D02*
X125134012Y-75418356D01*
X125134012Y-75418356D02*
X125639089Y-75452028D01*
X125639089Y-75452028D02*
X125538073Y-75553043D01*
X125538073Y-75553043D02*
X125504402Y-75654059D01*
X125504402Y-75654059D02*
X125504402Y-75721402D01*
X125504402Y-75721402D02*
X125538073Y-75822417D01*
X125538073Y-75822417D02*
X125706432Y-75990776D01*
X125706432Y-75990776D02*
X125807447Y-76024448D01*
X125807447Y-76024448D02*
X125874791Y-76024448D01*
X125874791Y-76024448D02*
X125975806Y-75990776D01*
X125975806Y-75990776D02*
X126177837Y-75788746D01*
X126177837Y-75788746D02*
X126211508Y-75687730D01*
X126211508Y-75687730D02*
X126211508Y-75620387D01*
X124696280Y-75856089D02*
X124628936Y-75923433D01*
X124628936Y-75923433D02*
X124595264Y-76024448D01*
X124595264Y-76024448D02*
X124595264Y-76091791D01*
X124595264Y-76091791D02*
X124628936Y-76192807D01*
X124628936Y-76192807D02*
X124729951Y-76361165D01*
X124729951Y-76361165D02*
X124898310Y-76529524D01*
X124898310Y-76529524D02*
X125066669Y-76630539D01*
X125066669Y-76630539D02*
X125167684Y-76664211D01*
X125167684Y-76664211D02*
X125235028Y-76664211D01*
X125235028Y-76664211D02*
X125336043Y-76630539D01*
X125336043Y-76630539D02*
X125403386Y-76563196D01*
X125403386Y-76563196D02*
X125437058Y-76462181D01*
X125437058Y-76462181D02*
X125437058Y-76394837D01*
X125437058Y-76394837D02*
X125403386Y-76293822D01*
X125403386Y-76293822D02*
X125302371Y-76125463D01*
X125302371Y-76125463D02*
X125134012Y-75957104D01*
X125134012Y-75957104D02*
X124965654Y-75856089D01*
X124965654Y-75856089D02*
X124864638Y-75822417D01*
X124864638Y-75822417D02*
X124797295Y-75822417D01*
X124797295Y-75822417D02*
X124696280Y-75856089D01*
X124494249Y-77472333D02*
X124898310Y-77068272D01*
X124696280Y-77270303D02*
X123989173Y-76563196D01*
X123989173Y-76563196D02*
X124157532Y-76596868D01*
X124157532Y-76596868D02*
X124292219Y-76596868D01*
X124292219Y-76596868D02*
X124393234Y-76563196D01*
%TO.C,TP903*%
X88909523Y-236904819D02*
X88290476Y-236904819D01*
X88290476Y-236904819D02*
X88623809Y-237285771D01*
X88623809Y-237285771D02*
X88480952Y-237285771D01*
X88480952Y-237285771D02*
X88385714Y-237333390D01*
X88385714Y-237333390D02*
X88338095Y-237381009D01*
X88338095Y-237381009D02*
X88290476Y-237476247D01*
X88290476Y-237476247D02*
X88290476Y-237714342D01*
X88290476Y-237714342D02*
X88338095Y-237809580D01*
X88338095Y-237809580D02*
X88385714Y-237857200D01*
X88385714Y-237857200D02*
X88480952Y-237904819D01*
X88480952Y-237904819D02*
X88766666Y-237904819D01*
X88766666Y-237904819D02*
X88861904Y-237857200D01*
X88861904Y-237857200D02*
X88909523Y-237809580D01*
X88004761Y-236904819D02*
X87671428Y-237904819D01*
X87671428Y-237904819D02*
X87338095Y-236904819D01*
X87099999Y-236904819D02*
X86480952Y-236904819D01*
X86480952Y-236904819D02*
X86814285Y-237285771D01*
X86814285Y-237285771D02*
X86671428Y-237285771D01*
X86671428Y-237285771D02*
X86576190Y-237333390D01*
X86576190Y-237333390D02*
X86528571Y-237381009D01*
X86528571Y-237381009D02*
X86480952Y-237476247D01*
X86480952Y-237476247D02*
X86480952Y-237714342D01*
X86480952Y-237714342D02*
X86528571Y-237809580D01*
X86528571Y-237809580D02*
X86576190Y-237857200D01*
X86576190Y-237857200D02*
X86671428Y-237904819D01*
X86671428Y-237904819D02*
X86957142Y-237904819D01*
X86957142Y-237904819D02*
X87052380Y-237857200D01*
X87052380Y-237857200D02*
X87099999Y-237809580D01*
X86290476Y-238000057D02*
X85528571Y-238000057D01*
X85290475Y-237904819D02*
X85290475Y-236904819D01*
X85290475Y-236904819D02*
X85052380Y-236904819D01*
X85052380Y-236904819D02*
X84909523Y-236952438D01*
X84909523Y-236952438D02*
X84814285Y-237047676D01*
X84814285Y-237047676D02*
X84766666Y-237142914D01*
X84766666Y-237142914D02*
X84719047Y-237333390D01*
X84719047Y-237333390D02*
X84719047Y-237476247D01*
X84719047Y-237476247D02*
X84766666Y-237666723D01*
X84766666Y-237666723D02*
X84814285Y-237761961D01*
X84814285Y-237761961D02*
X84909523Y-237857200D01*
X84909523Y-237857200D02*
X85052380Y-237904819D01*
X85052380Y-237904819D02*
X85290475Y-237904819D01*
X84290475Y-237904819D02*
X84290475Y-236904819D01*
X83290476Y-236952438D02*
X83385714Y-236904819D01*
X83385714Y-236904819D02*
X83528571Y-236904819D01*
X83528571Y-236904819D02*
X83671428Y-236952438D01*
X83671428Y-236952438D02*
X83766666Y-237047676D01*
X83766666Y-237047676D02*
X83814285Y-237142914D01*
X83814285Y-237142914D02*
X83861904Y-237333390D01*
X83861904Y-237333390D02*
X83861904Y-237476247D01*
X83861904Y-237476247D02*
X83814285Y-237666723D01*
X83814285Y-237666723D02*
X83766666Y-237761961D01*
X83766666Y-237761961D02*
X83671428Y-237857200D01*
X83671428Y-237857200D02*
X83528571Y-237904819D01*
X83528571Y-237904819D02*
X83433333Y-237904819D01*
X83433333Y-237904819D02*
X83290476Y-237857200D01*
X83290476Y-237857200D02*
X83242857Y-237809580D01*
X83242857Y-237809580D02*
X83242857Y-237476247D01*
X83242857Y-237476247D02*
X83433333Y-237476247D01*
X82814285Y-237904819D02*
X82814285Y-236904819D01*
X82480952Y-236904819D02*
X81909524Y-236904819D01*
X82195238Y-237904819D02*
X82195238Y-236904819D01*
X81623809Y-237619104D02*
X81147619Y-237619104D01*
X81719047Y-237904819D02*
X81385714Y-236904819D01*
X81385714Y-236904819D02*
X81052381Y-237904819D01*
X80242857Y-237904819D02*
X80719047Y-237904819D01*
X80719047Y-237904819D02*
X80719047Y-236904819D01*
X86814285Y-233904819D02*
X86242857Y-233904819D01*
X86528571Y-234904819D02*
X86528571Y-233904819D01*
X85909523Y-234904819D02*
X85909523Y-233904819D01*
X85909523Y-233904819D02*
X85528571Y-233904819D01*
X85528571Y-233904819D02*
X85433333Y-233952438D01*
X85433333Y-233952438D02*
X85385714Y-234000057D01*
X85385714Y-234000057D02*
X85338095Y-234095295D01*
X85338095Y-234095295D02*
X85338095Y-234238152D01*
X85338095Y-234238152D02*
X85385714Y-234333390D01*
X85385714Y-234333390D02*
X85433333Y-234381009D01*
X85433333Y-234381009D02*
X85528571Y-234428628D01*
X85528571Y-234428628D02*
X85909523Y-234428628D01*
X84861904Y-234904819D02*
X84671428Y-234904819D01*
X84671428Y-234904819D02*
X84576190Y-234857200D01*
X84576190Y-234857200D02*
X84528571Y-234809580D01*
X84528571Y-234809580D02*
X84433333Y-234666723D01*
X84433333Y-234666723D02*
X84385714Y-234476247D01*
X84385714Y-234476247D02*
X84385714Y-234095295D01*
X84385714Y-234095295D02*
X84433333Y-234000057D01*
X84433333Y-234000057D02*
X84480952Y-233952438D01*
X84480952Y-233952438D02*
X84576190Y-233904819D01*
X84576190Y-233904819D02*
X84766666Y-233904819D01*
X84766666Y-233904819D02*
X84861904Y-233952438D01*
X84861904Y-233952438D02*
X84909523Y-234000057D01*
X84909523Y-234000057D02*
X84957142Y-234095295D01*
X84957142Y-234095295D02*
X84957142Y-234333390D01*
X84957142Y-234333390D02*
X84909523Y-234428628D01*
X84909523Y-234428628D02*
X84861904Y-234476247D01*
X84861904Y-234476247D02*
X84766666Y-234523866D01*
X84766666Y-234523866D02*
X84576190Y-234523866D01*
X84576190Y-234523866D02*
X84480952Y-234476247D01*
X84480952Y-234476247D02*
X84433333Y-234428628D01*
X84433333Y-234428628D02*
X84385714Y-234333390D01*
X83766666Y-233904819D02*
X83671428Y-233904819D01*
X83671428Y-233904819D02*
X83576190Y-233952438D01*
X83576190Y-233952438D02*
X83528571Y-234000057D01*
X83528571Y-234000057D02*
X83480952Y-234095295D01*
X83480952Y-234095295D02*
X83433333Y-234285771D01*
X83433333Y-234285771D02*
X83433333Y-234523866D01*
X83433333Y-234523866D02*
X83480952Y-234714342D01*
X83480952Y-234714342D02*
X83528571Y-234809580D01*
X83528571Y-234809580D02*
X83576190Y-234857200D01*
X83576190Y-234857200D02*
X83671428Y-234904819D01*
X83671428Y-234904819D02*
X83766666Y-234904819D01*
X83766666Y-234904819D02*
X83861904Y-234857200D01*
X83861904Y-234857200D02*
X83909523Y-234809580D01*
X83909523Y-234809580D02*
X83957142Y-234714342D01*
X83957142Y-234714342D02*
X84004761Y-234523866D01*
X84004761Y-234523866D02*
X84004761Y-234285771D01*
X84004761Y-234285771D02*
X83957142Y-234095295D01*
X83957142Y-234095295D02*
X83909523Y-234000057D01*
X83909523Y-234000057D02*
X83861904Y-233952438D01*
X83861904Y-233952438D02*
X83766666Y-233904819D01*
X83099999Y-233904819D02*
X82480952Y-233904819D01*
X82480952Y-233904819D02*
X82814285Y-234285771D01*
X82814285Y-234285771D02*
X82671428Y-234285771D01*
X82671428Y-234285771D02*
X82576190Y-234333390D01*
X82576190Y-234333390D02*
X82528571Y-234381009D01*
X82528571Y-234381009D02*
X82480952Y-234476247D01*
X82480952Y-234476247D02*
X82480952Y-234714342D01*
X82480952Y-234714342D02*
X82528571Y-234809580D01*
X82528571Y-234809580D02*
X82576190Y-234857200D01*
X82576190Y-234857200D02*
X82671428Y-234904819D01*
X82671428Y-234904819D02*
X82957142Y-234904819D01*
X82957142Y-234904819D02*
X83052380Y-234857200D01*
X83052380Y-234857200D02*
X83099999Y-234809580D01*
%TO.C,TP904*%
X97580952Y-123604819D02*
X96961905Y-123604819D01*
X96961905Y-123604819D02*
X97295238Y-123985771D01*
X97295238Y-123985771D02*
X97152381Y-123985771D01*
X97152381Y-123985771D02*
X97057143Y-124033390D01*
X97057143Y-124033390D02*
X97009524Y-124081009D01*
X97009524Y-124081009D02*
X96961905Y-124176247D01*
X96961905Y-124176247D02*
X96961905Y-124414342D01*
X96961905Y-124414342D02*
X97009524Y-124509580D01*
X97009524Y-124509580D02*
X97057143Y-124557200D01*
X97057143Y-124557200D02*
X97152381Y-124604819D01*
X97152381Y-124604819D02*
X97438095Y-124604819D01*
X97438095Y-124604819D02*
X97533333Y-124557200D01*
X97533333Y-124557200D02*
X97580952Y-124509580D01*
X96628571Y-123938152D02*
X96390476Y-124604819D01*
X96390476Y-124604819D02*
X96152381Y-123938152D01*
X95866666Y-123604819D02*
X95247619Y-123604819D01*
X95247619Y-123604819D02*
X95580952Y-123985771D01*
X95580952Y-123985771D02*
X95438095Y-123985771D01*
X95438095Y-123985771D02*
X95342857Y-124033390D01*
X95342857Y-124033390D02*
X95295238Y-124081009D01*
X95295238Y-124081009D02*
X95247619Y-124176247D01*
X95247619Y-124176247D02*
X95247619Y-124414342D01*
X95247619Y-124414342D02*
X95295238Y-124509580D01*
X95295238Y-124509580D02*
X95342857Y-124557200D01*
X95342857Y-124557200D02*
X95438095Y-124604819D01*
X95438095Y-124604819D02*
X95723809Y-124604819D01*
X95723809Y-124604819D02*
X95819047Y-124557200D01*
X95819047Y-124557200D02*
X95866666Y-124509580D01*
X95057143Y-124700057D02*
X94295238Y-124700057D01*
X94104761Y-124319104D02*
X93628571Y-124319104D01*
X94199999Y-124604819D02*
X93866666Y-123604819D01*
X93866666Y-123604819D02*
X93533333Y-124604819D01*
X93199999Y-124604819D02*
X93199999Y-123604819D01*
X93199999Y-123604819D02*
X92628571Y-124604819D01*
X92628571Y-124604819D02*
X92628571Y-123604819D01*
X92199999Y-124319104D02*
X91723809Y-124319104D01*
X92295237Y-124604819D02*
X91961904Y-123604819D01*
X91961904Y-123604819D02*
X91628571Y-124604819D01*
X90819047Y-124604819D02*
X91295237Y-124604819D01*
X91295237Y-124604819D02*
X91295237Y-123604819D01*
X90295237Y-123604819D02*
X90104761Y-123604819D01*
X90104761Y-123604819D02*
X90009523Y-123652438D01*
X90009523Y-123652438D02*
X89914285Y-123747676D01*
X89914285Y-123747676D02*
X89866666Y-123938152D01*
X89866666Y-123938152D02*
X89866666Y-124271485D01*
X89866666Y-124271485D02*
X89914285Y-124461961D01*
X89914285Y-124461961D02*
X90009523Y-124557200D01*
X90009523Y-124557200D02*
X90104761Y-124604819D01*
X90104761Y-124604819D02*
X90295237Y-124604819D01*
X90295237Y-124604819D02*
X90390475Y-124557200D01*
X90390475Y-124557200D02*
X90485713Y-124461961D01*
X90485713Y-124461961D02*
X90533332Y-124271485D01*
X90533332Y-124271485D02*
X90533332Y-123938152D01*
X90533332Y-123938152D02*
X90485713Y-123747676D01*
X90485713Y-123747676D02*
X90390475Y-123652438D01*
X90390475Y-123652438D02*
X90295237Y-123604819D01*
X88914285Y-123652438D02*
X89009523Y-123604819D01*
X89009523Y-123604819D02*
X89152380Y-123604819D01*
X89152380Y-123604819D02*
X89295237Y-123652438D01*
X89295237Y-123652438D02*
X89390475Y-123747676D01*
X89390475Y-123747676D02*
X89438094Y-123842914D01*
X89438094Y-123842914D02*
X89485713Y-124033390D01*
X89485713Y-124033390D02*
X89485713Y-124176247D01*
X89485713Y-124176247D02*
X89438094Y-124366723D01*
X89438094Y-124366723D02*
X89390475Y-124461961D01*
X89390475Y-124461961D02*
X89295237Y-124557200D01*
X89295237Y-124557200D02*
X89152380Y-124604819D01*
X89152380Y-124604819D02*
X89057142Y-124604819D01*
X89057142Y-124604819D02*
X88914285Y-124557200D01*
X88914285Y-124557200D02*
X88866666Y-124509580D01*
X88866666Y-124509580D02*
X88866666Y-124176247D01*
X88866666Y-124176247D02*
X89057142Y-124176247D01*
X95414285Y-120604819D02*
X94842857Y-120604819D01*
X95128571Y-121604819D02*
X95128571Y-120604819D01*
X94509523Y-121604819D02*
X94509523Y-120604819D01*
X94509523Y-120604819D02*
X94128571Y-120604819D01*
X94128571Y-120604819D02*
X94033333Y-120652438D01*
X94033333Y-120652438D02*
X93985714Y-120700057D01*
X93985714Y-120700057D02*
X93938095Y-120795295D01*
X93938095Y-120795295D02*
X93938095Y-120938152D01*
X93938095Y-120938152D02*
X93985714Y-121033390D01*
X93985714Y-121033390D02*
X94033333Y-121081009D01*
X94033333Y-121081009D02*
X94128571Y-121128628D01*
X94128571Y-121128628D02*
X94509523Y-121128628D01*
X93461904Y-121604819D02*
X93271428Y-121604819D01*
X93271428Y-121604819D02*
X93176190Y-121557200D01*
X93176190Y-121557200D02*
X93128571Y-121509580D01*
X93128571Y-121509580D02*
X93033333Y-121366723D01*
X93033333Y-121366723D02*
X92985714Y-121176247D01*
X92985714Y-121176247D02*
X92985714Y-120795295D01*
X92985714Y-120795295D02*
X93033333Y-120700057D01*
X93033333Y-120700057D02*
X93080952Y-120652438D01*
X93080952Y-120652438D02*
X93176190Y-120604819D01*
X93176190Y-120604819D02*
X93366666Y-120604819D01*
X93366666Y-120604819D02*
X93461904Y-120652438D01*
X93461904Y-120652438D02*
X93509523Y-120700057D01*
X93509523Y-120700057D02*
X93557142Y-120795295D01*
X93557142Y-120795295D02*
X93557142Y-121033390D01*
X93557142Y-121033390D02*
X93509523Y-121128628D01*
X93509523Y-121128628D02*
X93461904Y-121176247D01*
X93461904Y-121176247D02*
X93366666Y-121223866D01*
X93366666Y-121223866D02*
X93176190Y-121223866D01*
X93176190Y-121223866D02*
X93080952Y-121176247D01*
X93080952Y-121176247D02*
X93033333Y-121128628D01*
X93033333Y-121128628D02*
X92985714Y-121033390D01*
X92366666Y-120604819D02*
X92271428Y-120604819D01*
X92271428Y-120604819D02*
X92176190Y-120652438D01*
X92176190Y-120652438D02*
X92128571Y-120700057D01*
X92128571Y-120700057D02*
X92080952Y-120795295D01*
X92080952Y-120795295D02*
X92033333Y-120985771D01*
X92033333Y-120985771D02*
X92033333Y-121223866D01*
X92033333Y-121223866D02*
X92080952Y-121414342D01*
X92080952Y-121414342D02*
X92128571Y-121509580D01*
X92128571Y-121509580D02*
X92176190Y-121557200D01*
X92176190Y-121557200D02*
X92271428Y-121604819D01*
X92271428Y-121604819D02*
X92366666Y-121604819D01*
X92366666Y-121604819D02*
X92461904Y-121557200D01*
X92461904Y-121557200D02*
X92509523Y-121509580D01*
X92509523Y-121509580D02*
X92557142Y-121414342D01*
X92557142Y-121414342D02*
X92604761Y-121223866D01*
X92604761Y-121223866D02*
X92604761Y-120985771D01*
X92604761Y-120985771D02*
X92557142Y-120795295D01*
X92557142Y-120795295D02*
X92509523Y-120700057D01*
X92509523Y-120700057D02*
X92461904Y-120652438D01*
X92461904Y-120652438D02*
X92366666Y-120604819D01*
X91176190Y-120938152D02*
X91176190Y-121604819D01*
X91414285Y-120557200D02*
X91652380Y-121271485D01*
X91652380Y-121271485D02*
X91033333Y-121271485D01*
%TO.C,TP903*%
X88909523Y-161904819D02*
X88290476Y-161904819D01*
X88290476Y-161904819D02*
X88623809Y-162285771D01*
X88623809Y-162285771D02*
X88480952Y-162285771D01*
X88480952Y-162285771D02*
X88385714Y-162333390D01*
X88385714Y-162333390D02*
X88338095Y-162381009D01*
X88338095Y-162381009D02*
X88290476Y-162476247D01*
X88290476Y-162476247D02*
X88290476Y-162714342D01*
X88290476Y-162714342D02*
X88338095Y-162809580D01*
X88338095Y-162809580D02*
X88385714Y-162857200D01*
X88385714Y-162857200D02*
X88480952Y-162904819D01*
X88480952Y-162904819D02*
X88766666Y-162904819D01*
X88766666Y-162904819D02*
X88861904Y-162857200D01*
X88861904Y-162857200D02*
X88909523Y-162809580D01*
X88004761Y-161904819D02*
X87671428Y-162904819D01*
X87671428Y-162904819D02*
X87338095Y-161904819D01*
X87099999Y-161904819D02*
X86480952Y-161904819D01*
X86480952Y-161904819D02*
X86814285Y-162285771D01*
X86814285Y-162285771D02*
X86671428Y-162285771D01*
X86671428Y-162285771D02*
X86576190Y-162333390D01*
X86576190Y-162333390D02*
X86528571Y-162381009D01*
X86528571Y-162381009D02*
X86480952Y-162476247D01*
X86480952Y-162476247D02*
X86480952Y-162714342D01*
X86480952Y-162714342D02*
X86528571Y-162809580D01*
X86528571Y-162809580D02*
X86576190Y-162857200D01*
X86576190Y-162857200D02*
X86671428Y-162904819D01*
X86671428Y-162904819D02*
X86957142Y-162904819D01*
X86957142Y-162904819D02*
X87052380Y-162857200D01*
X87052380Y-162857200D02*
X87099999Y-162809580D01*
X86290476Y-163000057D02*
X85528571Y-163000057D01*
X85290475Y-162904819D02*
X85290475Y-161904819D01*
X85290475Y-161904819D02*
X85052380Y-161904819D01*
X85052380Y-161904819D02*
X84909523Y-161952438D01*
X84909523Y-161952438D02*
X84814285Y-162047676D01*
X84814285Y-162047676D02*
X84766666Y-162142914D01*
X84766666Y-162142914D02*
X84719047Y-162333390D01*
X84719047Y-162333390D02*
X84719047Y-162476247D01*
X84719047Y-162476247D02*
X84766666Y-162666723D01*
X84766666Y-162666723D02*
X84814285Y-162761961D01*
X84814285Y-162761961D02*
X84909523Y-162857200D01*
X84909523Y-162857200D02*
X85052380Y-162904819D01*
X85052380Y-162904819D02*
X85290475Y-162904819D01*
X84290475Y-162904819D02*
X84290475Y-161904819D01*
X83290476Y-161952438D02*
X83385714Y-161904819D01*
X83385714Y-161904819D02*
X83528571Y-161904819D01*
X83528571Y-161904819D02*
X83671428Y-161952438D01*
X83671428Y-161952438D02*
X83766666Y-162047676D01*
X83766666Y-162047676D02*
X83814285Y-162142914D01*
X83814285Y-162142914D02*
X83861904Y-162333390D01*
X83861904Y-162333390D02*
X83861904Y-162476247D01*
X83861904Y-162476247D02*
X83814285Y-162666723D01*
X83814285Y-162666723D02*
X83766666Y-162761961D01*
X83766666Y-162761961D02*
X83671428Y-162857200D01*
X83671428Y-162857200D02*
X83528571Y-162904819D01*
X83528571Y-162904819D02*
X83433333Y-162904819D01*
X83433333Y-162904819D02*
X83290476Y-162857200D01*
X83290476Y-162857200D02*
X83242857Y-162809580D01*
X83242857Y-162809580D02*
X83242857Y-162476247D01*
X83242857Y-162476247D02*
X83433333Y-162476247D01*
X82814285Y-162904819D02*
X82814285Y-161904819D01*
X82480952Y-161904819D02*
X81909524Y-161904819D01*
X82195238Y-162904819D02*
X82195238Y-161904819D01*
X81623809Y-162619104D02*
X81147619Y-162619104D01*
X81719047Y-162904819D02*
X81385714Y-161904819D01*
X81385714Y-161904819D02*
X81052381Y-162904819D01*
X80242857Y-162904819D02*
X80719047Y-162904819D01*
X80719047Y-162904819D02*
X80719047Y-161904819D01*
X86814285Y-158904819D02*
X86242857Y-158904819D01*
X86528571Y-159904819D02*
X86528571Y-158904819D01*
X85909523Y-159904819D02*
X85909523Y-158904819D01*
X85909523Y-158904819D02*
X85528571Y-158904819D01*
X85528571Y-158904819D02*
X85433333Y-158952438D01*
X85433333Y-158952438D02*
X85385714Y-159000057D01*
X85385714Y-159000057D02*
X85338095Y-159095295D01*
X85338095Y-159095295D02*
X85338095Y-159238152D01*
X85338095Y-159238152D02*
X85385714Y-159333390D01*
X85385714Y-159333390D02*
X85433333Y-159381009D01*
X85433333Y-159381009D02*
X85528571Y-159428628D01*
X85528571Y-159428628D02*
X85909523Y-159428628D01*
X84861904Y-159904819D02*
X84671428Y-159904819D01*
X84671428Y-159904819D02*
X84576190Y-159857200D01*
X84576190Y-159857200D02*
X84528571Y-159809580D01*
X84528571Y-159809580D02*
X84433333Y-159666723D01*
X84433333Y-159666723D02*
X84385714Y-159476247D01*
X84385714Y-159476247D02*
X84385714Y-159095295D01*
X84385714Y-159095295D02*
X84433333Y-159000057D01*
X84433333Y-159000057D02*
X84480952Y-158952438D01*
X84480952Y-158952438D02*
X84576190Y-158904819D01*
X84576190Y-158904819D02*
X84766666Y-158904819D01*
X84766666Y-158904819D02*
X84861904Y-158952438D01*
X84861904Y-158952438D02*
X84909523Y-159000057D01*
X84909523Y-159000057D02*
X84957142Y-159095295D01*
X84957142Y-159095295D02*
X84957142Y-159333390D01*
X84957142Y-159333390D02*
X84909523Y-159428628D01*
X84909523Y-159428628D02*
X84861904Y-159476247D01*
X84861904Y-159476247D02*
X84766666Y-159523866D01*
X84766666Y-159523866D02*
X84576190Y-159523866D01*
X84576190Y-159523866D02*
X84480952Y-159476247D01*
X84480952Y-159476247D02*
X84433333Y-159428628D01*
X84433333Y-159428628D02*
X84385714Y-159333390D01*
X83766666Y-158904819D02*
X83671428Y-158904819D01*
X83671428Y-158904819D02*
X83576190Y-158952438D01*
X83576190Y-158952438D02*
X83528571Y-159000057D01*
X83528571Y-159000057D02*
X83480952Y-159095295D01*
X83480952Y-159095295D02*
X83433333Y-159285771D01*
X83433333Y-159285771D02*
X83433333Y-159523866D01*
X83433333Y-159523866D02*
X83480952Y-159714342D01*
X83480952Y-159714342D02*
X83528571Y-159809580D01*
X83528571Y-159809580D02*
X83576190Y-159857200D01*
X83576190Y-159857200D02*
X83671428Y-159904819D01*
X83671428Y-159904819D02*
X83766666Y-159904819D01*
X83766666Y-159904819D02*
X83861904Y-159857200D01*
X83861904Y-159857200D02*
X83909523Y-159809580D01*
X83909523Y-159809580D02*
X83957142Y-159714342D01*
X83957142Y-159714342D02*
X84004761Y-159523866D01*
X84004761Y-159523866D02*
X84004761Y-159285771D01*
X84004761Y-159285771D02*
X83957142Y-159095295D01*
X83957142Y-159095295D02*
X83909523Y-159000057D01*
X83909523Y-159000057D02*
X83861904Y-158952438D01*
X83861904Y-158952438D02*
X83766666Y-158904819D01*
X83099999Y-158904819D02*
X82480952Y-158904819D01*
X82480952Y-158904819D02*
X82814285Y-159285771D01*
X82814285Y-159285771D02*
X82671428Y-159285771D01*
X82671428Y-159285771D02*
X82576190Y-159333390D01*
X82576190Y-159333390D02*
X82528571Y-159381009D01*
X82528571Y-159381009D02*
X82480952Y-159476247D01*
X82480952Y-159476247D02*
X82480952Y-159714342D01*
X82480952Y-159714342D02*
X82528571Y-159809580D01*
X82528571Y-159809580D02*
X82576190Y-159857200D01*
X82576190Y-159857200D02*
X82671428Y-159904819D01*
X82671428Y-159904819D02*
X82957142Y-159904819D01*
X82957142Y-159904819D02*
X83052380Y-159857200D01*
X83052380Y-159857200D02*
X83099999Y-159809580D01*
%TO.C,TP904*%
X97580952Y-198604819D02*
X96961905Y-198604819D01*
X96961905Y-198604819D02*
X97295238Y-198985771D01*
X97295238Y-198985771D02*
X97152381Y-198985771D01*
X97152381Y-198985771D02*
X97057143Y-199033390D01*
X97057143Y-199033390D02*
X97009524Y-199081009D01*
X97009524Y-199081009D02*
X96961905Y-199176247D01*
X96961905Y-199176247D02*
X96961905Y-199414342D01*
X96961905Y-199414342D02*
X97009524Y-199509580D01*
X97009524Y-199509580D02*
X97057143Y-199557200D01*
X97057143Y-199557200D02*
X97152381Y-199604819D01*
X97152381Y-199604819D02*
X97438095Y-199604819D01*
X97438095Y-199604819D02*
X97533333Y-199557200D01*
X97533333Y-199557200D02*
X97580952Y-199509580D01*
X96628571Y-198938152D02*
X96390476Y-199604819D01*
X96390476Y-199604819D02*
X96152381Y-198938152D01*
X95866666Y-198604819D02*
X95247619Y-198604819D01*
X95247619Y-198604819D02*
X95580952Y-198985771D01*
X95580952Y-198985771D02*
X95438095Y-198985771D01*
X95438095Y-198985771D02*
X95342857Y-199033390D01*
X95342857Y-199033390D02*
X95295238Y-199081009D01*
X95295238Y-199081009D02*
X95247619Y-199176247D01*
X95247619Y-199176247D02*
X95247619Y-199414342D01*
X95247619Y-199414342D02*
X95295238Y-199509580D01*
X95295238Y-199509580D02*
X95342857Y-199557200D01*
X95342857Y-199557200D02*
X95438095Y-199604819D01*
X95438095Y-199604819D02*
X95723809Y-199604819D01*
X95723809Y-199604819D02*
X95819047Y-199557200D01*
X95819047Y-199557200D02*
X95866666Y-199509580D01*
X95057143Y-199700057D02*
X94295238Y-199700057D01*
X94104761Y-199319104D02*
X93628571Y-199319104D01*
X94199999Y-199604819D02*
X93866666Y-198604819D01*
X93866666Y-198604819D02*
X93533333Y-199604819D01*
X93199999Y-199604819D02*
X93199999Y-198604819D01*
X93199999Y-198604819D02*
X92628571Y-199604819D01*
X92628571Y-199604819D02*
X92628571Y-198604819D01*
X92199999Y-199319104D02*
X91723809Y-199319104D01*
X92295237Y-199604819D02*
X91961904Y-198604819D01*
X91961904Y-198604819D02*
X91628571Y-199604819D01*
X90819047Y-199604819D02*
X91295237Y-199604819D01*
X91295237Y-199604819D02*
X91295237Y-198604819D01*
X90295237Y-198604819D02*
X90104761Y-198604819D01*
X90104761Y-198604819D02*
X90009523Y-198652438D01*
X90009523Y-198652438D02*
X89914285Y-198747676D01*
X89914285Y-198747676D02*
X89866666Y-198938152D01*
X89866666Y-198938152D02*
X89866666Y-199271485D01*
X89866666Y-199271485D02*
X89914285Y-199461961D01*
X89914285Y-199461961D02*
X90009523Y-199557200D01*
X90009523Y-199557200D02*
X90104761Y-199604819D01*
X90104761Y-199604819D02*
X90295237Y-199604819D01*
X90295237Y-199604819D02*
X90390475Y-199557200D01*
X90390475Y-199557200D02*
X90485713Y-199461961D01*
X90485713Y-199461961D02*
X90533332Y-199271485D01*
X90533332Y-199271485D02*
X90533332Y-198938152D01*
X90533332Y-198938152D02*
X90485713Y-198747676D01*
X90485713Y-198747676D02*
X90390475Y-198652438D01*
X90390475Y-198652438D02*
X90295237Y-198604819D01*
X88914285Y-198652438D02*
X89009523Y-198604819D01*
X89009523Y-198604819D02*
X89152380Y-198604819D01*
X89152380Y-198604819D02*
X89295237Y-198652438D01*
X89295237Y-198652438D02*
X89390475Y-198747676D01*
X89390475Y-198747676D02*
X89438094Y-198842914D01*
X89438094Y-198842914D02*
X89485713Y-199033390D01*
X89485713Y-199033390D02*
X89485713Y-199176247D01*
X89485713Y-199176247D02*
X89438094Y-199366723D01*
X89438094Y-199366723D02*
X89390475Y-199461961D01*
X89390475Y-199461961D02*
X89295237Y-199557200D01*
X89295237Y-199557200D02*
X89152380Y-199604819D01*
X89152380Y-199604819D02*
X89057142Y-199604819D01*
X89057142Y-199604819D02*
X88914285Y-199557200D01*
X88914285Y-199557200D02*
X88866666Y-199509580D01*
X88866666Y-199509580D02*
X88866666Y-199176247D01*
X88866666Y-199176247D02*
X89057142Y-199176247D01*
X95414285Y-195604819D02*
X94842857Y-195604819D01*
X95128571Y-196604819D02*
X95128571Y-195604819D01*
X94509523Y-196604819D02*
X94509523Y-195604819D01*
X94509523Y-195604819D02*
X94128571Y-195604819D01*
X94128571Y-195604819D02*
X94033333Y-195652438D01*
X94033333Y-195652438D02*
X93985714Y-195700057D01*
X93985714Y-195700057D02*
X93938095Y-195795295D01*
X93938095Y-195795295D02*
X93938095Y-195938152D01*
X93938095Y-195938152D02*
X93985714Y-196033390D01*
X93985714Y-196033390D02*
X94033333Y-196081009D01*
X94033333Y-196081009D02*
X94128571Y-196128628D01*
X94128571Y-196128628D02*
X94509523Y-196128628D01*
X93461904Y-196604819D02*
X93271428Y-196604819D01*
X93271428Y-196604819D02*
X93176190Y-196557200D01*
X93176190Y-196557200D02*
X93128571Y-196509580D01*
X93128571Y-196509580D02*
X93033333Y-196366723D01*
X93033333Y-196366723D02*
X92985714Y-196176247D01*
X92985714Y-196176247D02*
X92985714Y-195795295D01*
X92985714Y-195795295D02*
X93033333Y-195700057D01*
X93033333Y-195700057D02*
X93080952Y-195652438D01*
X93080952Y-195652438D02*
X93176190Y-195604819D01*
X93176190Y-195604819D02*
X93366666Y-195604819D01*
X93366666Y-195604819D02*
X93461904Y-195652438D01*
X93461904Y-195652438D02*
X93509523Y-195700057D01*
X93509523Y-195700057D02*
X93557142Y-195795295D01*
X93557142Y-195795295D02*
X93557142Y-196033390D01*
X93557142Y-196033390D02*
X93509523Y-196128628D01*
X93509523Y-196128628D02*
X93461904Y-196176247D01*
X93461904Y-196176247D02*
X93366666Y-196223866D01*
X93366666Y-196223866D02*
X93176190Y-196223866D01*
X93176190Y-196223866D02*
X93080952Y-196176247D01*
X93080952Y-196176247D02*
X93033333Y-196128628D01*
X93033333Y-196128628D02*
X92985714Y-196033390D01*
X92366666Y-195604819D02*
X92271428Y-195604819D01*
X92271428Y-195604819D02*
X92176190Y-195652438D01*
X92176190Y-195652438D02*
X92128571Y-195700057D01*
X92128571Y-195700057D02*
X92080952Y-195795295D01*
X92080952Y-195795295D02*
X92033333Y-195985771D01*
X92033333Y-195985771D02*
X92033333Y-196223866D01*
X92033333Y-196223866D02*
X92080952Y-196414342D01*
X92080952Y-196414342D02*
X92128571Y-196509580D01*
X92128571Y-196509580D02*
X92176190Y-196557200D01*
X92176190Y-196557200D02*
X92271428Y-196604819D01*
X92271428Y-196604819D02*
X92366666Y-196604819D01*
X92366666Y-196604819D02*
X92461904Y-196557200D01*
X92461904Y-196557200D02*
X92509523Y-196509580D01*
X92509523Y-196509580D02*
X92557142Y-196414342D01*
X92557142Y-196414342D02*
X92604761Y-196223866D01*
X92604761Y-196223866D02*
X92604761Y-195985771D01*
X92604761Y-195985771D02*
X92557142Y-195795295D01*
X92557142Y-195795295D02*
X92509523Y-195700057D01*
X92509523Y-195700057D02*
X92461904Y-195652438D01*
X92461904Y-195652438D02*
X92366666Y-195604819D01*
X91176190Y-195938152D02*
X91176190Y-196604819D01*
X91414285Y-195557200D02*
X91652380Y-196271485D01*
X91652380Y-196271485D02*
X91033333Y-196271485D01*
%TO.C,JP2*%
X167545238Y-74477438D02*
X167640476Y-74429819D01*
X167640476Y-74429819D02*
X167783333Y-74429819D01*
X167783333Y-74429819D02*
X167926190Y-74477438D01*
X167926190Y-74477438D02*
X168021428Y-74572676D01*
X168021428Y-74572676D02*
X168069047Y-74667914D01*
X168069047Y-74667914D02*
X168116666Y-74858390D01*
X168116666Y-74858390D02*
X168116666Y-75001247D01*
X168116666Y-75001247D02*
X168069047Y-75191723D01*
X168069047Y-75191723D02*
X168021428Y-75286961D01*
X168021428Y-75286961D02*
X167926190Y-75382200D01*
X167926190Y-75382200D02*
X167783333Y-75429819D01*
X167783333Y-75429819D02*
X167688095Y-75429819D01*
X167688095Y-75429819D02*
X167545238Y-75382200D01*
X167545238Y-75382200D02*
X167497619Y-75334580D01*
X167497619Y-75334580D02*
X167497619Y-75001247D01*
X167497619Y-75001247D02*
X167688095Y-75001247D01*
X167069047Y-75429819D02*
X167069047Y-74429819D01*
X167069047Y-74429819D02*
X166497619Y-75429819D01*
X166497619Y-75429819D02*
X166497619Y-74429819D01*
X166069047Y-75382200D02*
X165926190Y-75429819D01*
X165926190Y-75429819D02*
X165688095Y-75429819D01*
X165688095Y-75429819D02*
X165592857Y-75382200D01*
X165592857Y-75382200D02*
X165545238Y-75334580D01*
X165545238Y-75334580D02*
X165497619Y-75239342D01*
X165497619Y-75239342D02*
X165497619Y-75144104D01*
X165497619Y-75144104D02*
X165545238Y-75048866D01*
X165545238Y-75048866D02*
X165592857Y-75001247D01*
X165592857Y-75001247D02*
X165688095Y-74953628D01*
X165688095Y-74953628D02*
X165878571Y-74906009D01*
X165878571Y-74906009D02*
X165973809Y-74858390D01*
X165973809Y-74858390D02*
X166021428Y-74810771D01*
X166021428Y-74810771D02*
X166069047Y-74715533D01*
X166069047Y-74715533D02*
X166069047Y-74620295D01*
X166069047Y-74620295D02*
X166021428Y-74525057D01*
X166021428Y-74525057D02*
X165973809Y-74477438D01*
X165973809Y-74477438D02*
X165878571Y-74429819D01*
X165878571Y-74429819D02*
X165640476Y-74429819D01*
X165640476Y-74429819D02*
X165497619Y-74477438D01*
X165116666Y-75382200D02*
X164973809Y-75429819D01*
X164973809Y-75429819D02*
X164735714Y-75429819D01*
X164735714Y-75429819D02*
X164640476Y-75382200D01*
X164640476Y-75382200D02*
X164592857Y-75334580D01*
X164592857Y-75334580D02*
X164545238Y-75239342D01*
X164545238Y-75239342D02*
X164545238Y-75144104D01*
X164545238Y-75144104D02*
X164592857Y-75048866D01*
X164592857Y-75048866D02*
X164640476Y-75001247D01*
X164640476Y-75001247D02*
X164735714Y-74953628D01*
X164735714Y-74953628D02*
X164926190Y-74906009D01*
X164926190Y-74906009D02*
X165021428Y-74858390D01*
X165021428Y-74858390D02*
X165069047Y-74810771D01*
X165069047Y-74810771D02*
X165116666Y-74715533D01*
X165116666Y-74715533D02*
X165116666Y-74620295D01*
X165116666Y-74620295D02*
X165069047Y-74525057D01*
X165069047Y-74525057D02*
X165021428Y-74477438D01*
X165021428Y-74477438D02*
X164926190Y-74429819D01*
X164926190Y-74429819D02*
X164688095Y-74429819D01*
X164688095Y-74429819D02*
X164545238Y-74477438D01*
X164354762Y-75525057D02*
X163592857Y-75525057D01*
X162783333Y-75334580D02*
X162830952Y-75382200D01*
X162830952Y-75382200D02*
X162973809Y-75429819D01*
X162973809Y-75429819D02*
X163069047Y-75429819D01*
X163069047Y-75429819D02*
X163211904Y-75382200D01*
X163211904Y-75382200D02*
X163307142Y-75286961D01*
X163307142Y-75286961D02*
X163354761Y-75191723D01*
X163354761Y-75191723D02*
X163402380Y-75001247D01*
X163402380Y-75001247D02*
X163402380Y-74858390D01*
X163402380Y-74858390D02*
X163354761Y-74667914D01*
X163354761Y-74667914D02*
X163307142Y-74572676D01*
X163307142Y-74572676D02*
X163211904Y-74477438D01*
X163211904Y-74477438D02*
X163069047Y-74429819D01*
X163069047Y-74429819D02*
X162973809Y-74429819D01*
X162973809Y-74429819D02*
X162830952Y-74477438D01*
X162830952Y-74477438D02*
X162783333Y-74525057D01*
X162164285Y-74429819D02*
X161973809Y-74429819D01*
X161973809Y-74429819D02*
X161878571Y-74477438D01*
X161878571Y-74477438D02*
X161783333Y-74572676D01*
X161783333Y-74572676D02*
X161735714Y-74763152D01*
X161735714Y-74763152D02*
X161735714Y-75096485D01*
X161735714Y-75096485D02*
X161783333Y-75286961D01*
X161783333Y-75286961D02*
X161878571Y-75382200D01*
X161878571Y-75382200D02*
X161973809Y-75429819D01*
X161973809Y-75429819D02*
X162164285Y-75429819D01*
X162164285Y-75429819D02*
X162259523Y-75382200D01*
X162259523Y-75382200D02*
X162354761Y-75286961D01*
X162354761Y-75286961D02*
X162402380Y-75096485D01*
X162402380Y-75096485D02*
X162402380Y-74763152D01*
X162402380Y-74763152D02*
X162354761Y-74572676D01*
X162354761Y-74572676D02*
X162259523Y-74477438D01*
X162259523Y-74477438D02*
X162164285Y-74429819D01*
X161307142Y-75429819D02*
X161307142Y-74429819D01*
X161307142Y-74429819D02*
X160735714Y-75429819D01*
X160735714Y-75429819D02*
X160735714Y-74429819D01*
X160259523Y-75429819D02*
X160259523Y-74429819D01*
X160259523Y-74429819D02*
X159688095Y-75429819D01*
X159688095Y-75429819D02*
X159688095Y-74429819D01*
X159450000Y-75525057D02*
X158688095Y-75525057D01*
X158449999Y-74906009D02*
X158116666Y-74906009D01*
X157973809Y-75429819D02*
X158449999Y-75429819D01*
X158449999Y-75429819D02*
X158449999Y-74429819D01*
X158449999Y-74429819D02*
X157973809Y-74429819D01*
X157640475Y-74429819D02*
X156973809Y-75429819D01*
X156973809Y-74429819D02*
X157640475Y-75429819D01*
X156735713Y-74429819D02*
X156164285Y-74429819D01*
X156449999Y-75429819D02*
X156449999Y-74429819D01*
X156069047Y-75525057D02*
X155307142Y-75525057D01*
X155069046Y-75429819D02*
X155069046Y-74429819D01*
X154592856Y-75429819D02*
X154592856Y-74429819D01*
X154592856Y-74429819D02*
X154021428Y-75429819D01*
X154021428Y-75429819D02*
X154021428Y-74429819D01*
X153688094Y-74429819D02*
X153116666Y-74429819D01*
X153402380Y-75429819D02*
X153402380Y-74429819D01*
X153021428Y-75525057D02*
X152259523Y-75525057D01*
X152069046Y-75382200D02*
X151926189Y-75429819D01*
X151926189Y-75429819D02*
X151688094Y-75429819D01*
X151688094Y-75429819D02*
X151592856Y-75382200D01*
X151592856Y-75382200D02*
X151545237Y-75334580D01*
X151545237Y-75334580D02*
X151497618Y-75239342D01*
X151497618Y-75239342D02*
X151497618Y-75144104D01*
X151497618Y-75144104D02*
X151545237Y-75048866D01*
X151545237Y-75048866D02*
X151592856Y-75001247D01*
X151592856Y-75001247D02*
X151688094Y-74953628D01*
X151688094Y-74953628D02*
X151878570Y-74906009D01*
X151878570Y-74906009D02*
X151973808Y-74858390D01*
X151973808Y-74858390D02*
X152021427Y-74810771D01*
X152021427Y-74810771D02*
X152069046Y-74715533D01*
X152069046Y-74715533D02*
X152069046Y-74620295D01*
X152069046Y-74620295D02*
X152021427Y-74525057D01*
X152021427Y-74525057D02*
X151973808Y-74477438D01*
X151973808Y-74477438D02*
X151878570Y-74429819D01*
X151878570Y-74429819D02*
X151640475Y-74429819D01*
X151640475Y-74429819D02*
X151497618Y-74477438D01*
X151069046Y-74906009D02*
X150735713Y-74906009D01*
X150592856Y-75429819D02*
X151069046Y-75429819D01*
X151069046Y-75429819D02*
X151069046Y-74429819D01*
X151069046Y-74429819D02*
X150592856Y-74429819D01*
X149688094Y-75429819D02*
X150164284Y-75429819D01*
X150164284Y-75429819D02*
X150164284Y-74429819D01*
X167545238Y-224477438D02*
X167640476Y-224429819D01*
X167640476Y-224429819D02*
X167783333Y-224429819D01*
X167783333Y-224429819D02*
X167926190Y-224477438D01*
X167926190Y-224477438D02*
X168021428Y-224572676D01*
X168021428Y-224572676D02*
X168069047Y-224667914D01*
X168069047Y-224667914D02*
X168116666Y-224858390D01*
X168116666Y-224858390D02*
X168116666Y-225001247D01*
X168116666Y-225001247D02*
X168069047Y-225191723D01*
X168069047Y-225191723D02*
X168021428Y-225286961D01*
X168021428Y-225286961D02*
X167926190Y-225382200D01*
X167926190Y-225382200D02*
X167783333Y-225429819D01*
X167783333Y-225429819D02*
X167688095Y-225429819D01*
X167688095Y-225429819D02*
X167545238Y-225382200D01*
X167545238Y-225382200D02*
X167497619Y-225334580D01*
X167497619Y-225334580D02*
X167497619Y-225001247D01*
X167497619Y-225001247D02*
X167688095Y-225001247D01*
X167069047Y-225429819D02*
X167069047Y-224429819D01*
X167069047Y-224429819D02*
X166497619Y-225429819D01*
X166497619Y-225429819D02*
X166497619Y-224429819D01*
X166069047Y-225382200D02*
X165926190Y-225429819D01*
X165926190Y-225429819D02*
X165688095Y-225429819D01*
X165688095Y-225429819D02*
X165592857Y-225382200D01*
X165592857Y-225382200D02*
X165545238Y-225334580D01*
X165545238Y-225334580D02*
X165497619Y-225239342D01*
X165497619Y-225239342D02*
X165497619Y-225144104D01*
X165497619Y-225144104D02*
X165545238Y-225048866D01*
X165545238Y-225048866D02*
X165592857Y-225001247D01*
X165592857Y-225001247D02*
X165688095Y-224953628D01*
X165688095Y-224953628D02*
X165878571Y-224906009D01*
X165878571Y-224906009D02*
X165973809Y-224858390D01*
X165973809Y-224858390D02*
X166021428Y-224810771D01*
X166021428Y-224810771D02*
X166069047Y-224715533D01*
X166069047Y-224715533D02*
X166069047Y-224620295D01*
X166069047Y-224620295D02*
X166021428Y-224525057D01*
X166021428Y-224525057D02*
X165973809Y-224477438D01*
X165973809Y-224477438D02*
X165878571Y-224429819D01*
X165878571Y-224429819D02*
X165640476Y-224429819D01*
X165640476Y-224429819D02*
X165497619Y-224477438D01*
X165116666Y-225382200D02*
X164973809Y-225429819D01*
X164973809Y-225429819D02*
X164735714Y-225429819D01*
X164735714Y-225429819D02*
X164640476Y-225382200D01*
X164640476Y-225382200D02*
X164592857Y-225334580D01*
X164592857Y-225334580D02*
X164545238Y-225239342D01*
X164545238Y-225239342D02*
X164545238Y-225144104D01*
X164545238Y-225144104D02*
X164592857Y-225048866D01*
X164592857Y-225048866D02*
X164640476Y-225001247D01*
X164640476Y-225001247D02*
X164735714Y-224953628D01*
X164735714Y-224953628D02*
X164926190Y-224906009D01*
X164926190Y-224906009D02*
X165021428Y-224858390D01*
X165021428Y-224858390D02*
X165069047Y-224810771D01*
X165069047Y-224810771D02*
X165116666Y-224715533D01*
X165116666Y-224715533D02*
X165116666Y-224620295D01*
X165116666Y-224620295D02*
X165069047Y-224525057D01*
X165069047Y-224525057D02*
X165021428Y-224477438D01*
X165021428Y-224477438D02*
X164926190Y-224429819D01*
X164926190Y-224429819D02*
X164688095Y-224429819D01*
X164688095Y-224429819D02*
X164545238Y-224477438D01*
X164354762Y-225525057D02*
X163592857Y-225525057D01*
X162783333Y-225334580D02*
X162830952Y-225382200D01*
X162830952Y-225382200D02*
X162973809Y-225429819D01*
X162973809Y-225429819D02*
X163069047Y-225429819D01*
X163069047Y-225429819D02*
X163211904Y-225382200D01*
X163211904Y-225382200D02*
X163307142Y-225286961D01*
X163307142Y-225286961D02*
X163354761Y-225191723D01*
X163354761Y-225191723D02*
X163402380Y-225001247D01*
X163402380Y-225001247D02*
X163402380Y-224858390D01*
X163402380Y-224858390D02*
X163354761Y-224667914D01*
X163354761Y-224667914D02*
X163307142Y-224572676D01*
X163307142Y-224572676D02*
X163211904Y-224477438D01*
X163211904Y-224477438D02*
X163069047Y-224429819D01*
X163069047Y-224429819D02*
X162973809Y-224429819D01*
X162973809Y-224429819D02*
X162830952Y-224477438D01*
X162830952Y-224477438D02*
X162783333Y-224525057D01*
X162164285Y-224429819D02*
X161973809Y-224429819D01*
X161973809Y-224429819D02*
X161878571Y-224477438D01*
X161878571Y-224477438D02*
X161783333Y-224572676D01*
X161783333Y-224572676D02*
X161735714Y-224763152D01*
X161735714Y-224763152D02*
X161735714Y-225096485D01*
X161735714Y-225096485D02*
X161783333Y-225286961D01*
X161783333Y-225286961D02*
X161878571Y-225382200D01*
X161878571Y-225382200D02*
X161973809Y-225429819D01*
X161973809Y-225429819D02*
X162164285Y-225429819D01*
X162164285Y-225429819D02*
X162259523Y-225382200D01*
X162259523Y-225382200D02*
X162354761Y-225286961D01*
X162354761Y-225286961D02*
X162402380Y-225096485D01*
X162402380Y-225096485D02*
X162402380Y-224763152D01*
X162402380Y-224763152D02*
X162354761Y-224572676D01*
X162354761Y-224572676D02*
X162259523Y-224477438D01*
X162259523Y-224477438D02*
X162164285Y-224429819D01*
X161307142Y-225429819D02*
X161307142Y-224429819D01*
X161307142Y-224429819D02*
X160735714Y-225429819D01*
X160735714Y-225429819D02*
X160735714Y-224429819D01*
X160259523Y-225429819D02*
X160259523Y-224429819D01*
X160259523Y-224429819D02*
X159688095Y-225429819D01*
X159688095Y-225429819D02*
X159688095Y-224429819D01*
X159450000Y-225525057D02*
X158688095Y-225525057D01*
X158449999Y-224906009D02*
X158116666Y-224906009D01*
X157973809Y-225429819D02*
X158449999Y-225429819D01*
X158449999Y-225429819D02*
X158449999Y-224429819D01*
X158449999Y-224429819D02*
X157973809Y-224429819D01*
X157640475Y-224429819D02*
X156973809Y-225429819D01*
X156973809Y-224429819D02*
X157640475Y-225429819D01*
X156735713Y-224429819D02*
X156164285Y-224429819D01*
X156449999Y-225429819D02*
X156449999Y-224429819D01*
X156069047Y-225525057D02*
X155307142Y-225525057D01*
X155069046Y-225429819D02*
X155069046Y-224429819D01*
X154592856Y-225429819D02*
X154592856Y-224429819D01*
X154592856Y-224429819D02*
X154021428Y-225429819D01*
X154021428Y-225429819D02*
X154021428Y-224429819D01*
X153688094Y-224429819D02*
X153116666Y-224429819D01*
X153402380Y-225429819D02*
X153402380Y-224429819D01*
X153021428Y-225525057D02*
X152259523Y-225525057D01*
X152069046Y-225382200D02*
X151926189Y-225429819D01*
X151926189Y-225429819D02*
X151688094Y-225429819D01*
X151688094Y-225429819D02*
X151592856Y-225382200D01*
X151592856Y-225382200D02*
X151545237Y-225334580D01*
X151545237Y-225334580D02*
X151497618Y-225239342D01*
X151497618Y-225239342D02*
X151497618Y-225144104D01*
X151497618Y-225144104D02*
X151545237Y-225048866D01*
X151545237Y-225048866D02*
X151592856Y-225001247D01*
X151592856Y-225001247D02*
X151688094Y-224953628D01*
X151688094Y-224953628D02*
X151878570Y-224906009D01*
X151878570Y-224906009D02*
X151973808Y-224858390D01*
X151973808Y-224858390D02*
X152021427Y-224810771D01*
X152021427Y-224810771D02*
X152069046Y-224715533D01*
X152069046Y-224715533D02*
X152069046Y-224620295D01*
X152069046Y-224620295D02*
X152021427Y-224525057D01*
X152021427Y-224525057D02*
X151973808Y-224477438D01*
X151973808Y-224477438D02*
X151878570Y-224429819D01*
X151878570Y-224429819D02*
X151640475Y-224429819D01*
X151640475Y-224429819D02*
X151497618Y-224477438D01*
X151069046Y-224906009D02*
X150735713Y-224906009D01*
X150592856Y-225429819D02*
X151069046Y-225429819D01*
X151069046Y-225429819D02*
X151069046Y-224429819D01*
X151069046Y-224429819D02*
X150592856Y-224429819D01*
X149688094Y-225429819D02*
X150164284Y-225429819D01*
X150164284Y-225429819D02*
X150164284Y-224429819D01*
%TO.C,JP1401*%
X75469104Y-161385714D02*
X75469104Y-161861904D01*
X75754819Y-161290476D02*
X74754819Y-161623809D01*
X74754819Y-161623809D02*
X75754819Y-161957142D01*
X75754819Y-162290476D02*
X74754819Y-162290476D01*
X74754819Y-162290476D02*
X74754819Y-162528571D01*
X74754819Y-162528571D02*
X74802438Y-162671428D01*
X74802438Y-162671428D02*
X74897676Y-162766666D01*
X74897676Y-162766666D02*
X74992914Y-162814285D01*
X74992914Y-162814285D02*
X75183390Y-162861904D01*
X75183390Y-162861904D02*
X75326247Y-162861904D01*
X75326247Y-162861904D02*
X75516723Y-162814285D01*
X75516723Y-162814285D02*
X75611961Y-162766666D01*
X75611961Y-162766666D02*
X75707200Y-162671428D01*
X75707200Y-162671428D02*
X75754819Y-162528571D01*
X75754819Y-162528571D02*
X75754819Y-162290476D01*
X75754819Y-163290476D02*
X74754819Y-163290476D01*
X74754819Y-163290476D02*
X74754819Y-163528571D01*
X74754819Y-163528571D02*
X74802438Y-163671428D01*
X74802438Y-163671428D02*
X74897676Y-163766666D01*
X74897676Y-163766666D02*
X74992914Y-163814285D01*
X74992914Y-163814285D02*
X75183390Y-163861904D01*
X75183390Y-163861904D02*
X75326247Y-163861904D01*
X75326247Y-163861904D02*
X75516723Y-163814285D01*
X75516723Y-163814285D02*
X75611961Y-163766666D01*
X75611961Y-163766666D02*
X75707200Y-163671428D01*
X75707200Y-163671428D02*
X75754819Y-163528571D01*
X75754819Y-163528571D02*
X75754819Y-163290476D01*
X75754819Y-164861904D02*
X75278628Y-164528571D01*
X75754819Y-164290476D02*
X74754819Y-164290476D01*
X74754819Y-164290476D02*
X74754819Y-164671428D01*
X74754819Y-164671428D02*
X74802438Y-164766666D01*
X74802438Y-164766666D02*
X74850057Y-164814285D01*
X74850057Y-164814285D02*
X74945295Y-164861904D01*
X74945295Y-164861904D02*
X75088152Y-164861904D01*
X75088152Y-164861904D02*
X75183390Y-164814285D01*
X75183390Y-164814285D02*
X75231009Y-164766666D01*
X75231009Y-164766666D02*
X75278628Y-164671428D01*
X75278628Y-164671428D02*
X75278628Y-164290476D01*
X74754819Y-165480952D02*
X74754819Y-165576190D01*
X74754819Y-165576190D02*
X74802438Y-165671428D01*
X74802438Y-165671428D02*
X74850057Y-165719047D01*
X74850057Y-165719047D02*
X74945295Y-165766666D01*
X74945295Y-165766666D02*
X75135771Y-165814285D01*
X75135771Y-165814285D02*
X75373866Y-165814285D01*
X75373866Y-165814285D02*
X75564342Y-165766666D01*
X75564342Y-165766666D02*
X75659580Y-165719047D01*
X75659580Y-165719047D02*
X75707200Y-165671428D01*
X75707200Y-165671428D02*
X75754819Y-165576190D01*
X75754819Y-165576190D02*
X75754819Y-165480952D01*
X75754819Y-165480952D02*
X75707200Y-165385714D01*
X75707200Y-165385714D02*
X75659580Y-165338095D01*
X75659580Y-165338095D02*
X75564342Y-165290476D01*
X75564342Y-165290476D02*
X75373866Y-165242857D01*
X75373866Y-165242857D02*
X75135771Y-165242857D01*
X75135771Y-165242857D02*
X74945295Y-165290476D01*
X74945295Y-165290476D02*
X74850057Y-165338095D01*
X74850057Y-165338095D02*
X74802438Y-165385714D01*
X74802438Y-165385714D02*
X74754819Y-165480952D01*
D11*
%TO.C,BT301*%
X126342789Y-235092211D02*
X129736901Y-231698098D01*
X129949033Y-238698455D02*
X126342789Y-235092211D01*
X129949033Y-238698455D02*
X133343146Y-235304343D01*
X127403449Y-229364646D02*
X128817662Y-221232918D01*
X129736901Y-231698098D02*
X127403449Y-229364646D01*
X133343146Y-235304343D02*
X138116117Y-240077314D01*
X128817662Y-221232918D02*
X134191674Y-215858906D01*
X142288047Y-214409337D02*
X134191674Y-215858906D01*
X144656854Y-216778145D02*
X142288047Y-214409337D01*
X144656854Y-216778145D02*
X148050967Y-213384033D01*
X148263099Y-220384390D02*
X153036070Y-225157361D01*
X153036070Y-225157361D02*
X138116117Y-240077314D01*
X148050967Y-213384033D02*
X151657211Y-216990277D01*
X151657211Y-216990277D02*
X148263099Y-220384390D01*
X126342789Y-160092211D02*
X129736901Y-156698098D01*
X129949033Y-163698455D02*
X126342789Y-160092211D01*
X129949033Y-163698455D02*
X133343146Y-160304343D01*
X127403449Y-154364646D02*
X128817662Y-146232918D01*
X129736901Y-156698098D02*
X127403449Y-154364646D01*
X133343146Y-160304343D02*
X138116117Y-165077314D01*
X128817662Y-146232918D02*
X134191674Y-140858906D01*
X142288047Y-139409337D02*
X134191674Y-140858906D01*
X144656854Y-141778145D02*
X142288047Y-139409337D01*
X144656854Y-141778145D02*
X148050967Y-138384033D01*
X148263099Y-145384390D02*
X153036070Y-150157361D01*
X153036070Y-150157361D02*
X138116117Y-165077314D01*
X148050967Y-138384033D02*
X151657211Y-141990277D01*
X151657211Y-141990277D02*
X148263099Y-145384390D01*
X126342789Y-85092211D02*
X129736901Y-81698098D01*
X129949033Y-88698455D02*
X126342789Y-85092211D01*
X129949033Y-88698455D02*
X133343146Y-85304343D01*
X127403449Y-79364646D02*
X128817662Y-71232918D01*
X129736901Y-81698098D02*
X127403449Y-79364646D01*
X133343146Y-85304343D02*
X138116117Y-90077314D01*
X128817662Y-71232918D02*
X134191674Y-65858906D01*
X142288047Y-64409337D02*
X134191674Y-65858906D01*
X144656854Y-66778145D02*
X142288047Y-64409337D01*
X144656854Y-66778145D02*
X148050967Y-63384033D01*
X148263099Y-70384390D02*
X153036070Y-75157361D01*
X153036070Y-75157361D02*
X138116117Y-90077314D01*
X148050967Y-63384033D02*
X151657211Y-66990277D01*
X151657211Y-66990277D02*
X148263099Y-70384390D01*
%TD*%
M02*
