%TF.GenerationSoftware,KiCad,Pcbnew,7.0.5-7.0.5~ubuntu22.04.1*%
%TF.CreationDate,2023-07-04T15:33:39+02:00*%
%TF.ProjectId,panel,70616e65-6c2e-46b6-9963-61645f706362,C*%
%TF.SameCoordinates,Original*%
%TF.FileFunction,Paste,Top*%
%TF.FilePolarity,Positive*%
%FSLAX46Y46*%
G04 Gerber Fmt 4.6, Leading zero omitted, Abs format (unit mm)*
G04 Created by KiCad (PCBNEW 7.0.5-7.0.5~ubuntu22.04.1) date 2023-07-04 15:33:39*
%MOMM*%
%LPD*%
G01*
G04 APERTURE LIST*
G04 Aperture macros list*
%AMRoundRect*
0 Rectangle with rounded corners*
0 $1 Rounding radius*
0 $2 $3 $4 $5 $6 $7 $8 $9 X,Y pos of 4 corners*
0 Add a 4 corners polygon primitive as box body*
4,1,4,$2,$3,$4,$5,$6,$7,$8,$9,$2,$3,0*
0 Add four circle primitives for the rounded corners*
1,1,$1+$1,$2,$3*
1,1,$1+$1,$4,$5*
1,1,$1+$1,$6,$7*
1,1,$1+$1,$8,$9*
0 Add four rect primitives between the rounded corners*
20,1,$1+$1,$2,$3,$4,$5,0*
20,1,$1+$1,$4,$5,$6,$7,0*
20,1,$1+$1,$6,$7,$8,$9,0*
20,1,$1+$1,$8,$9,$2,$3,0*%
G04 Aperture macros list end*
%ADD10C,0.230000*%
%ADD11RoundRect,0.140000X0.170000X-0.140000X0.170000X0.140000X-0.170000X0.140000X-0.170000X-0.140000X0*%
%ADD12RoundRect,0.135000X0.185000X-0.135000X0.185000X0.135000X-0.185000X0.135000X-0.185000X-0.135000X0*%
%ADD13RoundRect,0.135000X0.135000X0.185000X-0.135000X0.185000X-0.135000X-0.185000X0.135000X-0.185000X0*%
%ADD14RoundRect,0.147500X0.147500X0.172500X-0.147500X0.172500X-0.147500X-0.172500X0.147500X-0.172500X0*%
%ADD15RoundRect,0.135000X-0.185000X0.135000X-0.185000X-0.135000X0.185000X-0.135000X0.185000X0.135000X0*%
%ADD16RoundRect,0.140000X0.140000X0.170000X-0.140000X0.170000X-0.140000X-0.170000X0.140000X-0.170000X0*%
%ADD17C,0.900000*%
%ADD18C,0.700000*%
%ADD19RoundRect,0.218750X-0.256250X0.218750X-0.256250X-0.218750X0.256250X-0.218750X0.256250X0.218750X0*%
%ADD20RoundRect,0.140000X-0.170000X0.140000X-0.170000X-0.140000X0.170000X-0.140000X0.170000X0.140000X0*%
%ADD21RoundRect,0.135000X-0.135000X-0.185000X0.135000X-0.185000X0.135000X0.185000X-0.135000X0.185000X0*%
%ADD22RoundRect,0.140000X-0.140000X-0.170000X0.140000X-0.170000X0.140000X0.170000X-0.140000X0.170000X0*%
%ADD23R,1.900000X1.100000*%
%ADD24RoundRect,0.150000X0.825000X0.150000X-0.825000X0.150000X-0.825000X-0.150000X0.825000X-0.150000X0*%
%ADD25R,0.350000X0.375000*%
%ADD26R,0.375000X0.350000*%
%ADD27RoundRect,0.250000X-0.275000X0.287500X-0.275000X-0.287500X0.275000X-0.287500X0.275000X0.287500X0*%
%ADD28RoundRect,0.147500X0.172500X-0.147500X0.172500X0.147500X-0.172500X0.147500X-0.172500X-0.147500X0*%
%ADD29RoundRect,0.150000X-0.150000X0.512500X-0.150000X-0.512500X0.150000X-0.512500X0.150000X0.512500X0*%
%ADD30RoundRect,0.182500X-0.182500X0.182500X-0.182500X-0.182500X0.182500X-0.182500X0.182500X0.182500X0*%
%ADD31RoundRect,0.062500X-0.062500X0.350000X-0.062500X-0.350000X0.062500X-0.350000X0.062500X0.350000X0*%
%ADD32RoundRect,0.062500X-0.350000X0.062500X-0.350000X-0.062500X0.350000X-0.062500X0.350000X0.062500X0*%
%ADD33RoundRect,0.250000X0.650000X-0.325000X0.650000X0.325000X-0.650000X0.325000X-0.650000X-0.325000X0*%
%ADD34RoundRect,0.147500X-0.172500X0.147500X-0.172500X-0.147500X0.172500X-0.147500X0.172500X0.147500X0*%
%ADD35R,1.250000X0.800000*%
%ADD36R,1.250000X1.160000*%
%ADD37R,2.500000X0.950000*%
%ADD38R,2.200000X1.150000*%
%ADD39R,1.150000X1.500000*%
%ADD40RoundRect,0.218750X0.218750X0.256250X-0.218750X0.256250X-0.218750X-0.256250X0.218750X-0.256250X0*%
%ADD41R,1.250000X1.000000*%
%ADD42RoundRect,0.525000X-0.525000X-0.975000X0.525000X-0.975000X0.525000X0.975000X-0.525000X0.975000X0*%
%ADD43RoundRect,0.200000X-0.200000X-0.600000X0.200000X-0.600000X0.200000X0.600000X-0.200000X0.600000X0*%
%ADD44RoundRect,0.200000X0.200000X0.600000X-0.200000X0.600000X-0.200000X-0.600000X0.200000X-0.600000X0*%
%ADD45RoundRect,0.147500X-0.147500X-0.172500X0.147500X-0.172500X0.147500X0.172500X-0.147500X0.172500X0*%
%ADD46RoundRect,0.250000X-0.250000X-0.475000X0.250000X-0.475000X0.250000X0.475000X-0.250000X0.475000X0*%
%ADD47RoundRect,0.250000X-0.475000X0.250000X-0.475000X-0.250000X0.475000X-0.250000X0.475000X0.250000X0*%
%ADD48RoundRect,0.250000X0.275000X-0.287500X0.275000X0.287500X-0.275000X0.287500X-0.275000X-0.287500X0*%
%ADD49RoundRect,0.182500X-0.182500X-0.182500X0.182500X-0.182500X0.182500X0.182500X-0.182500X0.182500X0*%
%ADD50RoundRect,0.062500X-0.350000X-0.062500X0.350000X-0.062500X0.350000X0.062500X-0.350000X0.062500X0*%
%ADD51RoundRect,0.062500X-0.062500X-0.350000X0.062500X-0.350000X0.062500X0.350000X-0.062500X0.350000X0*%
%ADD52RoundRect,0.200000X-0.200000X-0.275000X0.200000X-0.275000X0.200000X0.275000X-0.200000X0.275000X0*%
%ADD53RoundRect,0.237500X-0.237500X0.287500X-0.237500X-0.287500X0.237500X-0.287500X0.237500X0.287500X0*%
%ADD54RoundRect,0.150000X0.512500X0.150000X-0.512500X0.150000X-0.512500X-0.150000X0.512500X-0.150000X0*%
%ADD55RoundRect,0.150000X-0.512500X-0.150000X0.512500X-0.150000X0.512500X0.150000X-0.512500X0.150000X0*%
%ADD56RoundRect,0.525000X-0.975000X0.525000X-0.975000X-0.525000X0.975000X-0.525000X0.975000X0.525000X0*%
%ADD57RoundRect,0.200000X-0.600000X0.200000X-0.600000X-0.200000X0.600000X-0.200000X0.600000X0.200000X0*%
%ADD58RoundRect,0.200000X0.600000X-0.200000X0.600000X0.200000X-0.600000X0.200000X-0.600000X-0.200000X0*%
%ADD59RoundRect,0.250000X1.500000X-0.250000X1.500000X0.250000X-1.500000X0.250000X-1.500000X-0.250000X0*%
%ADD60RoundRect,0.250001X1.449999X-0.499999X1.449999X0.499999X-1.449999X0.499999X-1.449999X-0.499999X0*%
%ADD61RoundRect,0.218750X-0.218750X-0.256250X0.218750X-0.256250X0.218750X0.256250X-0.218750X0.256250X0*%
%ADD62RoundRect,0.275000X0.275000X-0.375000X0.275000X0.375000X-0.275000X0.375000X-0.275000X-0.375000X0*%
%ADD63RoundRect,0.275000X-0.275000X0.375000X-0.275000X-0.375000X0.275000X-0.375000X0.275000X0.375000X0*%
%ADD64RoundRect,0.525000X0.975000X-0.525000X0.975000X0.525000X-0.975000X0.525000X-0.975000X-0.525000X0*%
%ADD65R,0.580000X0.720000*%
%ADD66R,0.720000X0.580000*%
%ADD67RoundRect,0.237500X-0.287500X-0.237500X0.287500X-0.237500X0.287500X0.237500X-0.287500X0.237500X0*%
%ADD68R,1.000000X0.375000*%
%ADD69R,1.200000X0.300000*%
%ADD70R,1.000000X0.600000*%
%ADD71R,1.300000X1.100000*%
%ADD72RoundRect,0.182500X0.182500X-0.182500X0.182500X0.182500X-0.182500X0.182500X-0.182500X-0.182500X0*%
%ADD73RoundRect,0.062500X0.062500X-0.350000X0.062500X0.350000X-0.062500X0.350000X-0.062500X-0.350000X0*%
%ADD74RoundRect,0.062500X0.350000X-0.062500X0.350000X0.062500X-0.350000X0.062500X-0.350000X-0.062500X0*%
%ADD75RoundRect,0.300000X0.500000X-0.300000X0.500000X0.300000X-0.500000X0.300000X-0.500000X-0.300000X0*%
%ADD76RoundRect,0.075000X0.075000X-0.325000X0.075000X0.325000X-0.075000X0.325000X-0.075000X-0.325000X0*%
%ADD77RoundRect,0.075000X-0.075000X0.325000X-0.075000X-0.325000X0.075000X-0.325000X0.075000X0.325000X0*%
%ADD78RoundRect,0.075000X0.325000X0.075000X-0.325000X0.075000X-0.325000X-0.075000X0.325000X-0.075000X0*%
%ADD79RoundRect,0.075000X-0.325000X-0.075000X0.325000X-0.075000X0.325000X0.075000X-0.325000X0.075000X0*%
%ADD80RoundRect,0.111600X-0.788400X0.788400X-0.788400X-0.788400X0.788400X-0.788400X0.788400X0.788400X0*%
%ADD81RoundRect,0.111600X-0.788400X-0.788400X0.788400X-0.788400X0.788400X0.788400X-0.788400X0.788400X0*%
%ADD82RoundRect,0.111600X0.788400X0.788400X-0.788400X0.788400X-0.788400X-0.788400X0.788400X-0.788400X0*%
%ADD83RoundRect,0.111600X0.788400X-0.788400X0.788400X0.788400X-0.788400X0.788400X-0.788400X-0.788400X0*%
%ADD84RoundRect,0.150000X0.150000X-0.512500X0.150000X0.512500X-0.150000X0.512500X-0.150000X-0.512500X0*%
%ADD85RoundRect,0.075000X-0.100000X0.350000X-0.100000X-0.350000X0.100000X-0.350000X0.100000X0.350000X0*%
%ADD86RoundRect,0.200000X0.200000X0.275000X-0.200000X0.275000X-0.200000X-0.275000X0.200000X-0.275000X0*%
%ADD87RoundRect,0.155000X0.155000X-0.212500X0.155000X0.212500X-0.155000X0.212500X-0.155000X-0.212500X0*%
%ADD88RoundRect,0.087500X0.087500X0.712500X-0.087500X0.712500X-0.087500X-0.712500X0.087500X-0.712500X0*%
%ADD89R,1.500000X0.520000*%
%ADD90R,1.500000X0.280000*%
%ADD91R,1.500000X0.523000*%
%ADD92RoundRect,0.150000X-0.150000X-0.200000X0.150000X-0.200000X0.150000X0.200000X-0.150000X0.200000X0*%
%ADD93RoundRect,0.075000X0.075000X-0.700000X0.075000X0.700000X-0.075000X0.700000X-0.075000X-0.700000X0*%
%ADD94RoundRect,0.075000X0.700000X-0.075000X0.700000X0.075000X-0.700000X0.075000X-0.700000X-0.075000X0*%
%ADD95R,0.350000X0.500000*%
G04 APERTURE END LIST*
D10*
%TO.C,MK1407*%
X229664175Y-80887833D02*
G75*
G03*
X230115000Y-81338658I690408J239583D01*
G01*
X230594164Y-81338658D02*
G75*
G03*
X231044989Y-80887833I-239583J690408D01*
G01*
X230115000Y-79957842D02*
G75*
G03*
X229664175Y-80408667I239583J-690408D01*
G01*
X231044989Y-80408669D02*
G75*
G03*
X230594164Y-79957844I-690408J-239583D01*
G01*
%TO.C,MK1406*%
X231035825Y-146099501D02*
G75*
G03*
X230585000Y-145648676I-690408J-239583D01*
G01*
X230105836Y-145648676D02*
G75*
G03*
X229655011Y-146099501I239583J-690408D01*
G01*
X230585000Y-147029492D02*
G75*
G03*
X231035825Y-146578667I-239583J690408D01*
G01*
X229655011Y-146578665D02*
G75*
G03*
X230105836Y-147029490I690408J239583D01*
G01*
%TO.C,MK1404*%
X228644166Y-151679492D02*
G75*
G03*
X229094991Y-151228667I-239583J690408D01*
G01*
X229094991Y-150749503D02*
G75*
G03*
X228644166Y-150298678I-690408J-239583D01*
G01*
X227714175Y-151228667D02*
G75*
G03*
X228165000Y-151679492I690408J239583D01*
G01*
X228165002Y-150298678D02*
G75*
G03*
X227714177Y-150749503I239583J-690408D01*
G01*
%TO.C,MK1408*%
X195335825Y-146099501D02*
G75*
G03*
X194885000Y-145648676I-690408J-239583D01*
G01*
X194405836Y-145648676D02*
G75*
G03*
X193955011Y-146099501I239583J-690408D01*
G01*
X194885000Y-147029492D02*
G75*
G03*
X195335825Y-146578667I-239583J690408D01*
G01*
X193955011Y-146578665D02*
G75*
G03*
X194405836Y-147029490I690408J239583D01*
G01*
%TO.C,MK1404*%
X183644166Y-151679492D02*
G75*
G03*
X184094991Y-151228667I-239583J690408D01*
G01*
X184094991Y-150749503D02*
G75*
G03*
X183644166Y-150298678I-690408J-239583D01*
G01*
X182714175Y-151228667D02*
G75*
G03*
X183165000Y-151679492I690408J239583D01*
G01*
X183165002Y-150298678D02*
G75*
G03*
X182714177Y-150749503I239583J-690408D01*
G01*
%TO.C,MK1402*%
X190685825Y-144149501D02*
G75*
G03*
X190235000Y-143698676I-690408J-239583D01*
G01*
X189755836Y-143698676D02*
G75*
G03*
X189305011Y-144149501I239583J-690408D01*
G01*
X190235000Y-145079492D02*
G75*
G03*
X190685825Y-144628667I-239583J690408D01*
G01*
X189305011Y-144628665D02*
G75*
G03*
X189755836Y-145079490I690408J239583D01*
G01*
%TO.C,MK1403*%
X241355834Y-225307842D02*
G75*
G03*
X240905009Y-225758667I239583J-690408D01*
G01*
X240905009Y-226237831D02*
G75*
G03*
X241355834Y-226688656I690408J239583D01*
G01*
X242285825Y-225758667D02*
G75*
G03*
X241835000Y-225307842I-690408J-239583D01*
G01*
X241834998Y-226688656D02*
G75*
G03*
X242285823Y-226237831I-239583J690408D01*
G01*
%TO.C,MK1401*%
X189314175Y-232837833D02*
G75*
G03*
X189765000Y-233288658I690408J239583D01*
G01*
X190244164Y-233288658D02*
G75*
G03*
X190694989Y-232837833I-239583J690408D01*
G01*
X189765000Y-231907842D02*
G75*
G03*
X189314175Y-232358667I239583J-690408D01*
G01*
X190694989Y-232358669D02*
G75*
G03*
X190244164Y-231907844I-690408J-239583D01*
G01*
%TO.C,MK1404*%
X228644166Y-76679492D02*
G75*
G03*
X229094991Y-76228667I-239583J690408D01*
G01*
X229094991Y-75749503D02*
G75*
G03*
X228644166Y-75298678I-690408J-239583D01*
G01*
X227714175Y-76228667D02*
G75*
G03*
X228165000Y-76679492I690408J239583D01*
G01*
X228165002Y-75298678D02*
G75*
G03*
X227714177Y-75749503I239583J-690408D01*
G01*
%TO.C,MK1408*%
X240335825Y-146099501D02*
G75*
G03*
X239885000Y-145648676I-690408J-239583D01*
G01*
X239405836Y-145648676D02*
G75*
G03*
X238955011Y-146099501I239583J-690408D01*
G01*
X239885000Y-147029492D02*
G75*
G03*
X240335825Y-146578667I-239583J690408D01*
G01*
X238955011Y-146578665D02*
G75*
G03*
X239405836Y-147029490I690408J239583D01*
G01*
%TO.C,MK1403*%
X196355834Y-150307842D02*
G75*
G03*
X195905009Y-150758667I239583J-690408D01*
G01*
X195905009Y-151237831D02*
G75*
G03*
X196355834Y-151688656I690408J239583D01*
G01*
X197285825Y-150758667D02*
G75*
G03*
X196835000Y-150307842I-690408J-239583D01*
G01*
X196834998Y-151688656D02*
G75*
G03*
X197285823Y-151237831I-239583J690408D01*
G01*
%TO.C,MK1401*%
X189314175Y-82837833D02*
G75*
G03*
X189765000Y-83288658I690408J239583D01*
G01*
X190244164Y-83288658D02*
G75*
G03*
X190694989Y-82837833I-239583J690408D01*
G01*
X189765000Y-81907842D02*
G75*
G03*
X189314175Y-82358667I239583J-690408D01*
G01*
X190694989Y-82358669D02*
G75*
G03*
X190244164Y-81907844I-690408J-239583D01*
G01*
%TO.C,MK1406*%
X186035825Y-221099501D02*
G75*
G03*
X185585000Y-220648676I-690408J-239583D01*
G01*
X185105836Y-220648676D02*
G75*
G03*
X184655011Y-221099501I239583J-690408D01*
G01*
X185585000Y-222029492D02*
G75*
G03*
X186035825Y-221578667I-239583J690408D01*
G01*
X184655011Y-221578665D02*
G75*
G03*
X185105836Y-222029490I690408J239583D01*
G01*
%TO.C,MK1405*%
X193964175Y-155887833D02*
G75*
G03*
X194415000Y-156338658I690408J239583D01*
G01*
X194894164Y-156338658D02*
G75*
G03*
X195344989Y-155887833I-239583J690408D01*
G01*
X194415000Y-154957842D02*
G75*
G03*
X193964175Y-155408667I239583J-690408D01*
G01*
X195344989Y-155408669D02*
G75*
G03*
X194894164Y-154957844I-690408J-239583D01*
G01*
%TO.C,MK1408*%
X195335825Y-71099501D02*
G75*
G03*
X194885000Y-70648676I-690408J-239583D01*
G01*
X194405836Y-70648676D02*
G75*
G03*
X193955011Y-71099501I239583J-690408D01*
G01*
X194885000Y-72029492D02*
G75*
G03*
X195335825Y-71578667I-239583J690408D01*
G01*
X193955011Y-71578665D02*
G75*
G03*
X194405836Y-72029490I690408J239583D01*
G01*
%TO.C,MK1402*%
X235685825Y-144149501D02*
G75*
G03*
X235235000Y-143698676I-690408J-239583D01*
G01*
X234755836Y-143698676D02*
G75*
G03*
X234305011Y-144149501I239583J-690408D01*
G01*
X235235000Y-145079492D02*
G75*
G03*
X235685825Y-144628667I-239583J690408D01*
G01*
X234305011Y-144628665D02*
G75*
G03*
X234755836Y-145079490I690408J239583D01*
G01*
%TO.C,MK1404*%
X183644166Y-226679492D02*
G75*
G03*
X184094991Y-226228667I-239583J690408D01*
G01*
X184094991Y-225749503D02*
G75*
G03*
X183644166Y-225298678I-690408J-239583D01*
G01*
X182714175Y-226228667D02*
G75*
G03*
X183165000Y-226679492I690408J239583D01*
G01*
X183165002Y-225298678D02*
G75*
G03*
X182714177Y-225749503I239583J-690408D01*
G01*
%TO.C,MK1406*%
X231035825Y-221099501D02*
G75*
G03*
X230585000Y-220648676I-690408J-239583D01*
G01*
X230105836Y-220648676D02*
G75*
G03*
X229655011Y-221099501I239583J-690408D01*
G01*
X230585000Y-222029492D02*
G75*
G03*
X231035825Y-221578667I-239583J690408D01*
G01*
X229655011Y-221578665D02*
G75*
G03*
X230105836Y-222029490I690408J239583D01*
G01*
X231035825Y-71099501D02*
G75*
G03*
X230585000Y-70648676I-690408J-239583D01*
G01*
X230105836Y-70648676D02*
G75*
G03*
X229655011Y-71099501I239583J-690408D01*
G01*
X230585000Y-72029492D02*
G75*
G03*
X231035825Y-71578667I-239583J690408D01*
G01*
X229655011Y-71578665D02*
G75*
G03*
X230105836Y-72029490I690408J239583D01*
G01*
%TO.C,MK1405*%
X238964175Y-155887833D02*
G75*
G03*
X239415000Y-156338658I690408J239583D01*
G01*
X239894164Y-156338658D02*
G75*
G03*
X240344989Y-155887833I-239583J690408D01*
G01*
X239415000Y-154957842D02*
G75*
G03*
X238964175Y-155408667I239583J-690408D01*
G01*
X240344989Y-155408669D02*
G75*
G03*
X239894164Y-154957844I-690408J-239583D01*
G01*
X238964175Y-80887833D02*
G75*
G03*
X239415000Y-81338658I690408J239583D01*
G01*
X239894164Y-81338658D02*
G75*
G03*
X240344989Y-80887833I-239583J690408D01*
G01*
X239415000Y-79957842D02*
G75*
G03*
X238964175Y-80408667I239583J-690408D01*
G01*
X240344989Y-80408669D02*
G75*
G03*
X239894164Y-79957844I-690408J-239583D01*
G01*
%TO.C,MK1403*%
X241355834Y-150307842D02*
G75*
G03*
X240905009Y-150758667I239583J-690408D01*
G01*
X240905009Y-151237831D02*
G75*
G03*
X241355834Y-151688656I690408J239583D01*
G01*
X242285825Y-150758667D02*
G75*
G03*
X241835000Y-150307842I-690408J-239583D01*
G01*
X241834998Y-151688656D02*
G75*
G03*
X242285823Y-151237831I-239583J690408D01*
G01*
%TO.C,MK1404*%
X183644166Y-76679492D02*
G75*
G03*
X184094991Y-76228667I-239583J690408D01*
G01*
X184094991Y-75749503D02*
G75*
G03*
X183644166Y-75298678I-690408J-239583D01*
G01*
X182714175Y-76228667D02*
G75*
G03*
X183165000Y-76679492I690408J239583D01*
G01*
X183165002Y-75298678D02*
G75*
G03*
X182714177Y-75749503I239583J-690408D01*
G01*
%TO.C,MK1407*%
X229664175Y-230887833D02*
G75*
G03*
X230115000Y-231338658I690408J239583D01*
G01*
X230594164Y-231338658D02*
G75*
G03*
X231044989Y-230887833I-239583J690408D01*
G01*
X230115000Y-229957842D02*
G75*
G03*
X229664175Y-230408667I239583J-690408D01*
G01*
X231044989Y-230408669D02*
G75*
G03*
X230594164Y-229957844I-690408J-239583D01*
G01*
%TO.C,MK1402*%
X235685825Y-219149501D02*
G75*
G03*
X235235000Y-218698676I-690408J-239583D01*
G01*
X234755836Y-218698676D02*
G75*
G03*
X234305011Y-219149501I239583J-690408D01*
G01*
X235235000Y-220079492D02*
G75*
G03*
X235685825Y-219628667I-239583J690408D01*
G01*
X234305011Y-219628665D02*
G75*
G03*
X234755836Y-220079490I690408J239583D01*
G01*
%TO.C,MK1403*%
X196355834Y-75307842D02*
G75*
G03*
X195905009Y-75758667I239583J-690408D01*
G01*
X195905009Y-76237831D02*
G75*
G03*
X196355834Y-76688656I690408J239583D01*
G01*
X197285825Y-75758667D02*
G75*
G03*
X196835000Y-75307842I-690408J-239583D01*
G01*
X196834998Y-76688656D02*
G75*
G03*
X197285823Y-76237831I-239583J690408D01*
G01*
%TO.C,MK1406*%
X186035825Y-71099501D02*
G75*
G03*
X185585000Y-70648676I-690408J-239583D01*
G01*
X185105836Y-70648676D02*
G75*
G03*
X184655011Y-71099501I239583J-690408D01*
G01*
X185585000Y-72029492D02*
G75*
G03*
X186035825Y-71578667I-239583J690408D01*
G01*
X184655011Y-71578665D02*
G75*
G03*
X185105836Y-72029490I690408J239583D01*
G01*
%TO.C,MK1408*%
X240335825Y-71099501D02*
G75*
G03*
X239885000Y-70648676I-690408J-239583D01*
G01*
X239405836Y-70648676D02*
G75*
G03*
X238955011Y-71099501I239583J-690408D01*
G01*
X239885000Y-72029492D02*
G75*
G03*
X240335825Y-71578667I-239583J690408D01*
G01*
X238955011Y-71578665D02*
G75*
G03*
X239405836Y-72029490I690408J239583D01*
G01*
%TO.C,MK1403*%
X196355834Y-225307842D02*
G75*
G03*
X195905009Y-225758667I239583J-690408D01*
G01*
X195905009Y-226237831D02*
G75*
G03*
X196355834Y-226688656I690408J239583D01*
G01*
X197285825Y-225758667D02*
G75*
G03*
X196835000Y-225307842I-690408J-239583D01*
G01*
X196834998Y-226688656D02*
G75*
G03*
X197285823Y-226237831I-239583J690408D01*
G01*
%TO.C,MK1405*%
X193964175Y-80887833D02*
G75*
G03*
X194415000Y-81338658I690408J239583D01*
G01*
X194894164Y-81338658D02*
G75*
G03*
X195344989Y-80887833I-239583J690408D01*
G01*
X194415000Y-79957842D02*
G75*
G03*
X193964175Y-80408667I239583J-690408D01*
G01*
X195344989Y-80408669D02*
G75*
G03*
X194894164Y-79957844I-690408J-239583D01*
G01*
%TO.C,MK1401*%
X189314175Y-157837833D02*
G75*
G03*
X189765000Y-158288658I690408J239583D01*
G01*
X190244164Y-158288658D02*
G75*
G03*
X190694989Y-157837833I-239583J690408D01*
G01*
X189765000Y-156907842D02*
G75*
G03*
X189314175Y-157358667I239583J-690408D01*
G01*
X190694989Y-157358669D02*
G75*
G03*
X190244164Y-156907844I-690408J-239583D01*
G01*
%TO.C,MK1408*%
X240335825Y-221099501D02*
G75*
G03*
X239885000Y-220648676I-690408J-239583D01*
G01*
X239405836Y-220648676D02*
G75*
G03*
X238955011Y-221099501I239583J-690408D01*
G01*
X239885000Y-222029492D02*
G75*
G03*
X240335825Y-221578667I-239583J690408D01*
G01*
X238955011Y-221578665D02*
G75*
G03*
X239405836Y-222029490I690408J239583D01*
G01*
%TO.C,MK1401*%
X234314175Y-157837833D02*
G75*
G03*
X234765000Y-158288658I690408J239583D01*
G01*
X235244164Y-158288658D02*
G75*
G03*
X235694989Y-157837833I-239583J690408D01*
G01*
X234765000Y-156907842D02*
G75*
G03*
X234314175Y-157358667I239583J-690408D01*
G01*
X235694989Y-157358669D02*
G75*
G03*
X235244164Y-156907844I-690408J-239583D01*
G01*
%TO.C,MK1407*%
X184664175Y-80887833D02*
G75*
G03*
X185115000Y-81338658I690408J239583D01*
G01*
X185594164Y-81338658D02*
G75*
G03*
X186044989Y-80887833I-239583J690408D01*
G01*
X185115000Y-79957842D02*
G75*
G03*
X184664175Y-80408667I239583J-690408D01*
G01*
X186044989Y-80408669D02*
G75*
G03*
X185594164Y-79957844I-690408J-239583D01*
G01*
X184664175Y-155887833D02*
G75*
G03*
X185115000Y-156338658I690408J239583D01*
G01*
X185594164Y-156338658D02*
G75*
G03*
X186044989Y-155887833I-239583J690408D01*
G01*
X185115000Y-154957842D02*
G75*
G03*
X184664175Y-155408667I239583J-690408D01*
G01*
X186044989Y-155408669D02*
G75*
G03*
X185594164Y-154957844I-690408J-239583D01*
G01*
%TO.C,MK1404*%
X228644166Y-226679492D02*
G75*
G03*
X229094991Y-226228667I-239583J690408D01*
G01*
X229094991Y-225749503D02*
G75*
G03*
X228644166Y-225298678I-690408J-239583D01*
G01*
X227714175Y-226228667D02*
G75*
G03*
X228165000Y-226679492I690408J239583D01*
G01*
X228165002Y-225298678D02*
G75*
G03*
X227714177Y-225749503I239583J-690408D01*
G01*
%TO.C,MK1408*%
X195335825Y-221099501D02*
G75*
G03*
X194885000Y-220648676I-690408J-239583D01*
G01*
X194405836Y-220648676D02*
G75*
G03*
X193955011Y-221099501I239583J-690408D01*
G01*
X194885000Y-222029492D02*
G75*
G03*
X195335825Y-221578667I-239583J690408D01*
G01*
X193955011Y-221578665D02*
G75*
G03*
X194405836Y-222029490I690408J239583D01*
G01*
%TO.C,MK1405*%
X193964175Y-230887833D02*
G75*
G03*
X194415000Y-231338658I690408J239583D01*
G01*
X194894164Y-231338658D02*
G75*
G03*
X195344989Y-230887833I-239583J690408D01*
G01*
X194415000Y-229957842D02*
G75*
G03*
X193964175Y-230408667I239583J-690408D01*
G01*
X195344989Y-230408669D02*
G75*
G03*
X194894164Y-229957844I-690408J-239583D01*
G01*
%TO.C,MK1401*%
X234314175Y-232837833D02*
G75*
G03*
X234765000Y-233288658I690408J239583D01*
G01*
X235244164Y-233288658D02*
G75*
G03*
X235694989Y-232837833I-239583J690408D01*
G01*
X234765000Y-231907842D02*
G75*
G03*
X234314175Y-232358667I239583J-690408D01*
G01*
X235694989Y-232358669D02*
G75*
G03*
X235244164Y-231907844I-690408J-239583D01*
G01*
%TO.C,MK1402*%
X190685825Y-69149501D02*
G75*
G03*
X190235000Y-68698676I-690408J-239583D01*
G01*
X189755836Y-68698676D02*
G75*
G03*
X189305011Y-69149501I239583J-690408D01*
G01*
X190235000Y-70079492D02*
G75*
G03*
X190685825Y-69628667I-239583J690408D01*
G01*
X189305011Y-69628665D02*
G75*
G03*
X189755836Y-70079490I690408J239583D01*
G01*
%TO.C,MK1403*%
X241355834Y-75307842D02*
G75*
G03*
X240905009Y-75758667I239583J-690408D01*
G01*
X240905009Y-76237831D02*
G75*
G03*
X241355834Y-76688656I690408J239583D01*
G01*
X242285825Y-75758667D02*
G75*
G03*
X241835000Y-75307842I-690408J-239583D01*
G01*
X241834998Y-76688656D02*
G75*
G03*
X242285823Y-76237831I-239583J690408D01*
G01*
%TO.C,MK1401*%
X234314175Y-82837833D02*
G75*
G03*
X234765000Y-83288658I690408J239583D01*
G01*
X235244164Y-83288658D02*
G75*
G03*
X235694989Y-82837833I-239583J690408D01*
G01*
X234765000Y-81907842D02*
G75*
G03*
X234314175Y-82358667I239583J-690408D01*
G01*
X235694989Y-82358669D02*
G75*
G03*
X235244164Y-81907844I-690408J-239583D01*
G01*
%TO.C,MK1406*%
X186035825Y-146099501D02*
G75*
G03*
X185585000Y-145648676I-690408J-239583D01*
G01*
X185105836Y-145648676D02*
G75*
G03*
X184655011Y-146099501I239583J-690408D01*
G01*
X185585000Y-147029492D02*
G75*
G03*
X186035825Y-146578667I-239583J690408D01*
G01*
X184655011Y-146578665D02*
G75*
G03*
X185105836Y-147029490I690408J239583D01*
G01*
%TO.C,MK1407*%
X184664175Y-230887833D02*
G75*
G03*
X185115000Y-231338658I690408J239583D01*
G01*
X185594164Y-231338658D02*
G75*
G03*
X186044989Y-230887833I-239583J690408D01*
G01*
X185115000Y-229957842D02*
G75*
G03*
X184664175Y-230408667I239583J-690408D01*
G01*
X186044989Y-230408669D02*
G75*
G03*
X185594164Y-229957844I-690408J-239583D01*
G01*
%TO.C,MK1405*%
X238964175Y-230887833D02*
G75*
G03*
X239415000Y-231338658I690408J239583D01*
G01*
X239894164Y-231338658D02*
G75*
G03*
X240344989Y-230887833I-239583J690408D01*
G01*
X239415000Y-229957842D02*
G75*
G03*
X238964175Y-230408667I239583J-690408D01*
G01*
X240344989Y-230408669D02*
G75*
G03*
X239894164Y-229957844I-690408J-239583D01*
G01*
%TO.C,MK1402*%
X190685825Y-219149501D02*
G75*
G03*
X190235000Y-218698676I-690408J-239583D01*
G01*
X189755836Y-218698676D02*
G75*
G03*
X189305011Y-219149501I239583J-690408D01*
G01*
X190235000Y-220079492D02*
G75*
G03*
X190685825Y-219628667I-239583J690408D01*
G01*
X189305011Y-219628665D02*
G75*
G03*
X189755836Y-220079490I690408J239583D01*
G01*
X235685825Y-69149501D02*
G75*
G03*
X235235000Y-68698676I-690408J-239583D01*
G01*
X234755836Y-68698676D02*
G75*
G03*
X234305011Y-69149501I239583J-690408D01*
G01*
X235235000Y-70079492D02*
G75*
G03*
X235685825Y-69628667I-239583J690408D01*
G01*
X234305011Y-69628665D02*
G75*
G03*
X234755836Y-70079490I690408J239583D01*
G01*
%TO.C,MK1407*%
X229664175Y-155887833D02*
G75*
G03*
X230115000Y-156338658I690408J239583D01*
G01*
X230594164Y-156338658D02*
G75*
G03*
X231044989Y-155887833I-239583J690408D01*
G01*
X230115000Y-154957842D02*
G75*
G03*
X229664175Y-155408667I239583J-690408D01*
G01*
X231044989Y-155408669D02*
G75*
G03*
X230594164Y-154957844I-690408J-239583D01*
G01*
%TD*%
D11*
%TO.C,CB1607*%
X208800000Y-83373667D03*
X208800000Y-82413667D03*
%TD*%
D12*
%TO.C,R1619*%
X251500000Y-69603667D03*
X251500000Y-68583667D03*
%TD*%
%TO.C,R1603*%
X251500000Y-240403667D03*
X251500000Y-239383667D03*
%TD*%
D13*
%TO.C,R1401*%
X64810000Y-232100000D03*
X63790000Y-232100000D03*
%TD*%
D14*
%TO.C,FB1001*%
X233285000Y-100393667D03*
X232315000Y-100393667D03*
%TD*%
D15*
%TO.C,R1628*%
X211600000Y-226603667D03*
X211600000Y-227623667D03*
%TD*%
D16*
%TO.C,C801*%
X51580000Y-220200000D03*
X50620000Y-220200000D03*
%TD*%
D12*
%TO.C,R1606*%
X211000000Y-165403667D03*
X211000000Y-164383667D03*
%TD*%
D13*
%TO.C,R910*%
X95310000Y-97400000D03*
X94290000Y-97400000D03*
%TD*%
D17*
%TO.C,MK1407*%
X231550000Y-83263667D03*
D18*
X231620000Y-79853667D03*
X229080000Y-79853667D03*
D17*
X229150000Y-83263667D03*
X230350000Y-83263667D03*
%TD*%
D16*
%TO.C,CB1002*%
X183880000Y-172593667D03*
X182920000Y-172593667D03*
%TD*%
D19*
%TO.C,D1001*%
X183120000Y-255788667D03*
X183120000Y-257363667D03*
%TD*%
D20*
%TO.C,CB1201*%
X90300000Y-51070000D03*
X90300000Y-52030000D03*
%TD*%
D21*
%TO.C,R1629*%
X209990000Y-155393667D03*
X211010000Y-155393667D03*
%TD*%
D12*
%TO.C,R1602*%
X208900000Y-161303667D03*
X208900000Y-160283667D03*
%TD*%
D16*
%TO.C,CB1602*%
X250480000Y-245213667D03*
X249520000Y-245213667D03*
%TD*%
D13*
%TO.C,R106*%
X73510000Y-80600000D03*
X72490000Y-80600000D03*
%TD*%
D21*
%TO.C,R104*%
X88690000Y-67000000D03*
X89710000Y-67000000D03*
%TD*%
D22*
%TO.C,C303*%
X141370000Y-66950000D03*
X142330000Y-66950000D03*
%TD*%
D20*
%TO.C,CB1603*%
X257700000Y-226633667D03*
X257700000Y-227593667D03*
%TD*%
D21*
%TO.C,R1403*%
X63790000Y-239200000D03*
X64810000Y-239200000D03*
%TD*%
%TO.C,R201*%
X61490000Y-239200000D03*
X62510000Y-239200000D03*
%TD*%
D12*
%TO.C,R1620*%
X250400000Y-69603667D03*
X250400000Y-68583667D03*
%TD*%
D17*
%TO.C,MK1406*%
X229150000Y-143723667D03*
D18*
X229080000Y-147133667D03*
X231620000Y-147133667D03*
D17*
X231550000Y-143723667D03*
X230350000Y-143723667D03*
%TD*%
D22*
%TO.C,CB1409*%
X63820000Y-237975000D03*
X64780000Y-237975000D03*
%TD*%
D15*
%TO.C,R1615*%
X186550000Y-159933667D03*
X186550000Y-160953667D03*
%TD*%
D23*
%TO.C,Y102*%
X70012400Y-83500000D03*
X70012400Y-81000000D03*
%TD*%
D24*
%TO.C,U1301*%
X89875000Y-76455000D03*
X89875000Y-75185000D03*
X89875000Y-73915000D03*
X89875000Y-72645000D03*
X84925000Y-72645000D03*
X84925000Y-73915000D03*
X84925000Y-75185000D03*
X84925000Y-76455000D03*
%TD*%
D11*
%TO.C,C711*%
X64300000Y-54280000D03*
X64300000Y-53320000D03*
%TD*%
D12*
%TO.C,R1601*%
X252600000Y-86303667D03*
X252600000Y-85283667D03*
%TD*%
D20*
%TO.C,CB1407*%
X237300000Y-74913667D03*
X237300000Y-75873667D03*
%TD*%
D11*
%TO.C,C811*%
X64300000Y-66080000D03*
X64300000Y-65120000D03*
%TD*%
D17*
%TO.C,MK1404*%
X231020000Y-149793667D03*
D18*
X227610000Y-149723667D03*
X227610000Y-152263667D03*
D17*
X231020000Y-152193667D03*
X231020000Y-150993667D03*
%TD*%
D21*
%TO.C,C1602*%
X252690000Y-164893667D03*
X253710000Y-164893667D03*
%TD*%
D12*
%TO.C,R1618*%
X211000000Y-69603667D03*
X211000000Y-68583667D03*
%TD*%
D25*
%TO.C,U1201*%
X88950000Y-49187500D03*
X88450000Y-49187500D03*
X87950000Y-49187500D03*
X87450000Y-49187500D03*
D26*
X87437500Y-49700000D03*
X87437500Y-50200000D03*
D25*
X87450000Y-50712500D03*
X87950000Y-50712500D03*
X88450000Y-50712500D03*
X88950000Y-50712500D03*
D26*
X88962500Y-50200000D03*
X88962500Y-49700000D03*
%TD*%
D21*
%TO.C,R202*%
X61490000Y-163000000D03*
X62510000Y-163000000D03*
%TD*%
%TO.C,R1609*%
X232590000Y-224793667D03*
X233610000Y-224793667D03*
%TD*%
D15*
%TO.C,R1613*%
X240850000Y-84983667D03*
X240850000Y-86003667D03*
%TD*%
D21*
%TO.C,R1302*%
X85890000Y-77900000D03*
X86910000Y-77900000D03*
%TD*%
D15*
%TO.C,R1627*%
X211000000Y-232383667D03*
X211000000Y-233403667D03*
%TD*%
D16*
%TO.C,C1503*%
X186430000Y-66043667D03*
X185470000Y-66043667D03*
%TD*%
%TO.C,C204*%
X62460000Y-83270000D03*
X61500000Y-83270000D03*
%TD*%
%TO.C,CB1410*%
X64780000Y-83200000D03*
X63820000Y-83200000D03*
%TD*%
D27*
%TO.C,C1608*%
X257400000Y-71581167D03*
X257400000Y-73006167D03*
%TD*%
D20*
%TO.C,C412*%
X82000000Y-130010000D03*
X82000000Y-130970000D03*
%TD*%
D11*
%TO.C,C105*%
X68012400Y-83930000D03*
X68012400Y-82970000D03*
%TD*%
D16*
%TO.C,C1502*%
X255980000Y-220593667D03*
X255020000Y-220593667D03*
%TD*%
D20*
%TO.C,C911*%
X93500000Y-134720000D03*
X93500000Y-135680000D03*
%TD*%
D16*
%TO.C,C406*%
X70480000Y-129000000D03*
X69520000Y-129000000D03*
%TD*%
D11*
%TO.C,CB1408*%
X232600000Y-77073667D03*
X232600000Y-76113667D03*
%TD*%
D16*
%TO.C,C104*%
X75480000Y-155600000D03*
X74520000Y-155600000D03*
%TD*%
%TO.C,C406*%
X70480000Y-54000000D03*
X69520000Y-54000000D03*
%TD*%
D20*
%TO.C,C1009*%
X250400000Y-85313667D03*
X250400000Y-86273667D03*
%TD*%
D19*
%TO.C,D305*%
X163000000Y-160612500D03*
X163000000Y-162187500D03*
%TD*%
D17*
%TO.C,MK1408*%
X193450000Y-143723667D03*
D18*
X193380000Y-147133667D03*
X195920000Y-147133667D03*
D17*
X195850000Y-143723667D03*
X194650000Y-143723667D03*
%TD*%
D21*
%TO.C,R1629*%
X209990000Y-80393667D03*
X211010000Y-80393667D03*
%TD*%
D28*
%TO.C,FB601*%
X49500000Y-140085000D03*
X49500000Y-139115000D03*
%TD*%
D15*
%TO.C,R920*%
X86800000Y-61490000D03*
X86800000Y-62510000D03*
%TD*%
D22*
%TO.C,C1501*%
X233920000Y-162893667D03*
X234880000Y-162893667D03*
%TD*%
D20*
%TO.C,C1009*%
X250400000Y-160313667D03*
X250400000Y-161273667D03*
%TD*%
D15*
%TO.C,R1003*%
X181900000Y-96483667D03*
X181900000Y-97503667D03*
%TD*%
%TO.C,R101*%
X67212400Y-147990000D03*
X67212400Y-149010000D03*
%TD*%
D21*
%TO.C,R405*%
X77840000Y-131200000D03*
X78860000Y-131200000D03*
%TD*%
D13*
%TO.C,R805*%
X53610000Y-145200000D03*
X52590000Y-145200000D03*
%TD*%
D12*
%TO.C,R402*%
X68000000Y-58110000D03*
X68000000Y-57090000D03*
%TD*%
D16*
%TO.C,C406*%
X70480000Y-204000000D03*
X69520000Y-204000000D03*
%TD*%
D22*
%TO.C,CB105*%
X71220000Y-214700000D03*
X72180000Y-214700000D03*
%TD*%
D12*
%TO.C,R804*%
X52700000Y-215110000D03*
X52700000Y-214090000D03*
%TD*%
D16*
%TO.C,C1004*%
X253680000Y-155393667D03*
X252720000Y-155393667D03*
%TD*%
D22*
%TO.C,C1603*%
X251720000Y-241493667D03*
X252680000Y-241493667D03*
%TD*%
D16*
%TO.C,C1004*%
X253680000Y-230393667D03*
X252720000Y-230393667D03*
%TD*%
D21*
%TO.C,R412*%
X80490000Y-50050000D03*
X81510000Y-50050000D03*
%TD*%
%TO.C,R407*%
X83490000Y-50050000D03*
X84510000Y-50050000D03*
%TD*%
D16*
%TO.C,C901*%
X77980000Y-233600000D03*
X77020000Y-233600000D03*
%TD*%
D29*
%TO.C,U1002*%
X183850000Y-99256167D03*
X182900000Y-99256167D03*
X181950000Y-99256167D03*
X181950000Y-101531167D03*
X183850000Y-101531167D03*
%TD*%
D13*
%TO.C,R1201*%
X88760000Y-197950000D03*
X87740000Y-197950000D03*
%TD*%
D12*
%TO.C,R1617*%
X254900000Y-69603667D03*
X254900000Y-68583667D03*
%TD*%
%TO.C,R1617*%
X254900000Y-144603667D03*
X254900000Y-143583667D03*
%TD*%
D13*
%TO.C,R406*%
X68960000Y-59200000D03*
X67940000Y-59200000D03*
%TD*%
D30*
%TO.C,U1701*%
X208620000Y-168973667D03*
X207780000Y-168973667D03*
X208620000Y-169813667D03*
X207780000Y-169813667D03*
D31*
X208950000Y-167931167D03*
X208450000Y-167931167D03*
X207950000Y-167931167D03*
X207450000Y-167931167D03*
D32*
X206737500Y-168643667D03*
X206737500Y-169143667D03*
X206737500Y-169643667D03*
X206737500Y-170143667D03*
D31*
X207450000Y-170856167D03*
X207950000Y-170856167D03*
X208450000Y-170856167D03*
X208950000Y-170856167D03*
D32*
X209662500Y-170143667D03*
X209662500Y-169643667D03*
X209662500Y-169143667D03*
X209662500Y-168643667D03*
%TD*%
D22*
%TO.C,C1501*%
X188920000Y-237893667D03*
X189880000Y-237893667D03*
%TD*%
%TO.C,C1006*%
X226920000Y-167693667D03*
X227880000Y-167693667D03*
%TD*%
D33*
%TO.C,C710*%
X62500000Y-131275000D03*
X62500000Y-128325000D03*
%TD*%
D22*
%TO.C,CB1403*%
X184270000Y-85943667D03*
X185230000Y-85943667D03*
%TD*%
D13*
%TO.C,R802*%
X51610000Y-214200000D03*
X50590000Y-214200000D03*
%TD*%
D11*
%TO.C,C711*%
X64300000Y-204280000D03*
X64300000Y-203320000D03*
%TD*%
D12*
%TO.C,R1601*%
X252600000Y-236303667D03*
X252600000Y-235283667D03*
%TD*%
D16*
%TO.C,C104*%
X75480000Y-230600000D03*
X74520000Y-230600000D03*
%TD*%
D17*
%TO.C,MK1404*%
X186020000Y-149793667D03*
D18*
X182610000Y-149723667D03*
X182610000Y-152263667D03*
D17*
X186020000Y-152193667D03*
X186020000Y-150993667D03*
%TD*%
D12*
%TO.C,R1614*%
X184150000Y-67053667D03*
X184150000Y-66033667D03*
%TD*%
D21*
%TO.C,R1629*%
X254990000Y-155393667D03*
X256010000Y-155393667D03*
%TD*%
D11*
%TO.C,CB1606*%
X257700000Y-225393667D03*
X257700000Y-224433667D03*
%TD*%
D16*
%TO.C,CB1602*%
X250480000Y-170213667D03*
X249520000Y-170213667D03*
%TD*%
D30*
%TO.C,U1701*%
X253620000Y-168973667D03*
X252780000Y-168973667D03*
X253620000Y-169813667D03*
X252780000Y-169813667D03*
D31*
X253950000Y-167931167D03*
X253450000Y-167931167D03*
X252950000Y-167931167D03*
X252450000Y-167931167D03*
D32*
X251737500Y-168643667D03*
X251737500Y-169143667D03*
X251737500Y-169643667D03*
X251737500Y-170143667D03*
D31*
X252450000Y-170856167D03*
X252950000Y-170856167D03*
X253450000Y-170856167D03*
X253950000Y-170856167D03*
D32*
X254662500Y-170143667D03*
X254662500Y-169643667D03*
X254662500Y-169143667D03*
X254662500Y-168643667D03*
%TD*%
D16*
%TO.C,C904*%
X94180000Y-73000000D03*
X93220000Y-73000000D03*
%TD*%
D12*
%TO.C,R1605*%
X205400000Y-165403667D03*
X205400000Y-164383667D03*
%TD*%
D21*
%TO.C,R1514*%
X254990000Y-146593667D03*
X256010000Y-146593667D03*
%TD*%
D12*
%TO.C,R1614*%
X229150000Y-142053667D03*
X229150000Y-141033667D03*
%TD*%
%TO.C,R1619*%
X251500000Y-144603667D03*
X251500000Y-143583667D03*
%TD*%
D21*
%TO.C,R921*%
X90290000Y-133200000D03*
X91310000Y-133200000D03*
%TD*%
D34*
%TO.C,FB602*%
X49500000Y-218115000D03*
X49500000Y-219085000D03*
%TD*%
D16*
%TO.C,CB1202*%
X88680000Y-51950000D03*
X87720000Y-51950000D03*
%TD*%
%TO.C,C1101*%
X194880000Y-248593667D03*
X193920000Y-248593667D03*
%TD*%
D35*
%TO.C,J204*%
X46775000Y-240840000D03*
X46775000Y-239740000D03*
X46775000Y-238640000D03*
X46775000Y-237540000D03*
X46775000Y-236440000D03*
X46775000Y-235340000D03*
X46775000Y-234240000D03*
X46775000Y-233140000D03*
D36*
X58400000Y-231200000D03*
X49400000Y-231200000D03*
D37*
X47400000Y-245185000D03*
D38*
X58730000Y-245085000D03*
D39*
X59525000Y-240780000D03*
X59525000Y-233000000D03*
D38*
X47250000Y-230795000D03*
%TD*%
D22*
%TO.C,CB1301*%
X83920000Y-77900000D03*
X84880000Y-77900000D03*
%TD*%
D40*
%TO.C,D902*%
X95195300Y-252400000D03*
X93620300Y-252400000D03*
%TD*%
D15*
%TO.C,R601*%
X49500000Y-66090000D03*
X49500000Y-67110000D03*
%TD*%
%TO.C,R1002*%
X181700000Y-181083667D03*
X181700000Y-182103667D03*
%TD*%
D12*
%TO.C,R102*%
X59600000Y-177225000D03*
X59600000Y-176205000D03*
%TD*%
D16*
%TO.C,C1505*%
X191080000Y-64093667D03*
X190120000Y-64093667D03*
%TD*%
D12*
%TO.C,R1605*%
X250400000Y-240403667D03*
X250400000Y-239383667D03*
%TD*%
D15*
%TO.C,R1632*%
X250400000Y-82383667D03*
X250400000Y-83403667D03*
%TD*%
D17*
%TO.C,MK1402*%
X188800000Y-141773667D03*
D18*
X188730000Y-145183667D03*
X191270000Y-145183667D03*
D17*
X191200000Y-141773667D03*
X190000000Y-141773667D03*
%TD*%
D20*
%TO.C,CB104*%
X82800000Y-224570000D03*
X82800000Y-225530000D03*
%TD*%
D12*
%TO.C,R1614*%
X229150000Y-67053667D03*
X229150000Y-66033667D03*
%TD*%
D15*
%TO.C,R1628*%
X211600000Y-76603667D03*
X211600000Y-77623667D03*
%TD*%
D41*
%TO.C,SW102*%
X53400000Y-225400000D03*
X61150000Y-225400000D03*
%TD*%
D15*
%TO.C,R703*%
X52700000Y-206290000D03*
X52700000Y-207310000D03*
%TD*%
D22*
%TO.C,CB1401*%
X193570000Y-234993667D03*
X194530000Y-234993667D03*
%TD*%
D15*
%TO.C,R1101*%
X237800000Y-99883667D03*
X237800000Y-100903667D03*
%TD*%
D12*
%TO.C,R1621*%
X256600000Y-225423667D03*
X256600000Y-224403667D03*
%TD*%
D20*
%TO.C,CB1201*%
X90300000Y-201070000D03*
X90300000Y-202030000D03*
%TD*%
D11*
%TO.C,CB1408*%
X232600000Y-152073667D03*
X232600000Y-151113667D03*
%TD*%
D20*
%TO.C,C101*%
X83300000Y-145020000D03*
X83300000Y-145980000D03*
%TD*%
D22*
%TO.C,C1001*%
X226920000Y-235893667D03*
X227880000Y-235893667D03*
%TD*%
D20*
%TO.C,C408*%
X80550000Y-128020000D03*
X80550000Y-128980000D03*
%TD*%
D40*
%TO.C,D902*%
X95195300Y-177400000D03*
X93620300Y-177400000D03*
%TD*%
D17*
%TO.C,MK1403*%
X238980000Y-227193667D03*
D18*
X242390000Y-227263667D03*
X242390000Y-224723667D03*
D17*
X238980000Y-224793667D03*
X238980000Y-225993667D03*
%TD*%
D34*
%TO.C,FB602*%
X49500000Y-143115000D03*
X49500000Y-144085000D03*
%TD*%
D13*
%TO.C,R302*%
X165710000Y-88800000D03*
X164690000Y-88800000D03*
%TD*%
D22*
%TO.C,C1612*%
X250420000Y-231393667D03*
X251380000Y-231393667D03*
%TD*%
D13*
%TO.C,R106*%
X73510000Y-155600000D03*
X72490000Y-155600000D03*
%TD*%
D28*
%TO.C,FB601*%
X49500000Y-65085000D03*
X49500000Y-64115000D03*
%TD*%
D22*
%TO.C,CB108*%
X88720000Y-215600000D03*
X89680000Y-215600000D03*
%TD*%
D20*
%TO.C,CB1407*%
X192300000Y-224913667D03*
X192300000Y-225873667D03*
%TD*%
D42*
%TO.C,J1101*%
X185575000Y-106543667D03*
X194425000Y-106593667D03*
D43*
X191875000Y-103593667D03*
D44*
X190625000Y-103593667D03*
X189375000Y-103593667D03*
X188125000Y-103593667D03*
%TD*%
D16*
%TO.C,CB1602*%
X205480000Y-245213667D03*
X204520000Y-245213667D03*
%TD*%
D11*
%TO.C,CB1606*%
X212700000Y-150393667D03*
X212700000Y-149433667D03*
%TD*%
D15*
%TO.C,R501*%
X49500000Y-129290000D03*
X49500000Y-130310000D03*
%TD*%
D27*
%TO.C,C1608*%
X257400000Y-221581167D03*
X257400000Y-223006167D03*
%TD*%
D16*
%TO.C,C912*%
X88880000Y-133200000D03*
X87920000Y-133200000D03*
%TD*%
D21*
%TO.C,R205*%
X61490000Y-159400000D03*
X62510000Y-159400000D03*
%TD*%
D17*
%TO.C,MK1401*%
X191200000Y-235213667D03*
D18*
X191270000Y-231803667D03*
X188730000Y-231803667D03*
D17*
X188800000Y-235213667D03*
X190000000Y-235213667D03*
%TD*%
D22*
%TO.C,C403*%
X75320000Y-207200000D03*
X76280000Y-207200000D03*
%TD*%
D45*
%TO.C,FB305*%
X158415000Y-226650000D03*
X159385000Y-226650000D03*
%TD*%
D15*
%TO.C,R1626*%
X209900000Y-82383667D03*
X209900000Y-83403667D03*
%TD*%
D21*
%TO.C,R911*%
X94290000Y-246200000D03*
X95310000Y-246200000D03*
%TD*%
D28*
%TO.C,FB501*%
X49500000Y-203285000D03*
X49500000Y-202315000D03*
%TD*%
D45*
%TO.C,FB1102*%
X238915000Y-175993667D03*
X239885000Y-175993667D03*
%TD*%
D16*
%TO.C,C401*%
X70480000Y-125000000D03*
X69520000Y-125000000D03*
%TD*%
D20*
%TO.C,C306*%
X84400000Y-91940000D03*
X84400000Y-92900000D03*
%TD*%
D34*
%TO.C,FB201*%
X44600000Y-78315000D03*
X44600000Y-79285000D03*
%TD*%
D16*
%TO.C,C902*%
X77980000Y-81600000D03*
X77020000Y-81600000D03*
%TD*%
%TO.C,C1008*%
X208680000Y-156393667D03*
X207720000Y-156393667D03*
%TD*%
D46*
%TO.C,C1601*%
X252250000Y-87893667D03*
X254150000Y-87893667D03*
%TD*%
D13*
%TO.C,R413*%
X72910000Y-209200000D03*
X71890000Y-209200000D03*
%TD*%
%TO.C,R806*%
X53610000Y-213000000D03*
X52590000Y-213000000D03*
%TD*%
D47*
%TO.C,C703*%
X51100000Y-203850000D03*
X51100000Y-205750000D03*
%TD*%
D16*
%TO.C,C1503*%
X186430000Y-216043667D03*
X185470000Y-216043667D03*
%TD*%
D48*
%TO.C,C1613*%
X257400000Y-230406167D03*
X257400000Y-228981167D03*
%TD*%
D22*
%TO.C,C502*%
X48620000Y-133400000D03*
X49580000Y-133400000D03*
%TD*%
%TO.C,C102*%
X72532400Y-160400000D03*
X73492400Y-160400000D03*
%TD*%
D45*
%TO.C,FB301*%
X163515000Y-140600000D03*
X164485000Y-140600000D03*
%TD*%
D40*
%TO.C,D901*%
X95195300Y-175600000D03*
X93620300Y-175600000D03*
%TD*%
D27*
%TO.C,C1614*%
X204000000Y-71581167D03*
X204000000Y-73006167D03*
%TD*%
D22*
%TO.C,C1612*%
X205420000Y-156393667D03*
X206380000Y-156393667D03*
%TD*%
%TO.C,C414*%
X75320000Y-58300000D03*
X76280000Y-58300000D03*
%TD*%
D16*
%TO.C,CB1502*%
X208680000Y-221593667D03*
X207720000Y-221593667D03*
%TD*%
D22*
%TO.C,C102*%
X72532400Y-235400000D03*
X73492400Y-235400000D03*
%TD*%
D12*
%TO.C,R1619*%
X206500000Y-219603667D03*
X206500000Y-218583667D03*
%TD*%
D11*
%TO.C,CB1605*%
X248700000Y-150373667D03*
X248700000Y-149413667D03*
%TD*%
%TO.C,C105*%
X68012400Y-158930000D03*
X68012400Y-157970000D03*
%TD*%
D27*
%TO.C,C1608*%
X212400000Y-146581167D03*
X212400000Y-148006167D03*
%TD*%
D15*
%TO.C,R1633*%
X204800000Y-76583667D03*
X204800000Y-77603667D03*
%TD*%
D28*
%TO.C,FB501*%
X49500000Y-128285000D03*
X49500000Y-127315000D03*
%TD*%
D15*
%TO.C,R709*%
X60700000Y-205290000D03*
X60700000Y-206310000D03*
%TD*%
D42*
%TO.C,J1101*%
X230575000Y-256543667D03*
X239425000Y-256593667D03*
D43*
X236875000Y-253593667D03*
D44*
X235625000Y-253593667D03*
X234375000Y-253593667D03*
X233125000Y-253593667D03*
%TD*%
D12*
%TO.C,R1611*%
X188800000Y-140103667D03*
X188800000Y-139083667D03*
%TD*%
D21*
%TO.C,R908*%
X91897800Y-173600000D03*
X92917800Y-173600000D03*
%TD*%
D16*
%TO.C,C701*%
X51580000Y-208400000D03*
X50620000Y-208400000D03*
%TD*%
D22*
%TO.C,C1005*%
X187320000Y-99193667D03*
X188280000Y-99193667D03*
%TD*%
D16*
%TO.C,C601*%
X49580000Y-213000000D03*
X48620000Y-213000000D03*
%TD*%
D34*
%TO.C,FB201*%
X44600000Y-153315000D03*
X44600000Y-154285000D03*
%TD*%
D15*
%TO.C,R919*%
X84600000Y-156490000D03*
X84600000Y-157510000D03*
%TD*%
D22*
%TO.C,C1506*%
X229270000Y-84943667D03*
X230230000Y-84943667D03*
%TD*%
%TO.C,C1102*%
X193920000Y-177193667D03*
X194880000Y-177193667D03*
%TD*%
D13*
%TO.C,R706*%
X53610000Y-126200000D03*
X52590000Y-126200000D03*
%TD*%
D16*
%TO.C,CB901*%
X77980000Y-230600000D03*
X77020000Y-230600000D03*
%TD*%
D11*
%TO.C,CB1607*%
X208800000Y-233373667D03*
X208800000Y-232413667D03*
%TD*%
%TO.C,CB1607*%
X208800000Y-158373667D03*
X208800000Y-157413667D03*
%TD*%
%TO.C,C906*%
X90000000Y-84480000D03*
X90000000Y-83520000D03*
%TD*%
D22*
%TO.C,C602*%
X48620000Y-145200000D03*
X49580000Y-145200000D03*
%TD*%
D15*
%TO.C,R909*%
X94300000Y-153800000D03*
X94300000Y-154820000D03*
%TD*%
D20*
%TO.C,C911*%
X93500000Y-59720000D03*
X93500000Y-60680000D03*
%TD*%
D17*
%TO.C,MK1404*%
X231020000Y-74793667D03*
D18*
X227610000Y-74723667D03*
X227610000Y-77263667D03*
D17*
X231020000Y-77193667D03*
X231020000Y-75993667D03*
%TD*%
D23*
%TO.C,Y102*%
X70012400Y-233500000D03*
X70012400Y-231000000D03*
%TD*%
D49*
%TO.C,U701*%
X56280000Y-129380000D03*
X56280000Y-130220000D03*
X57120000Y-129380000D03*
X57120000Y-130220000D03*
D50*
X55237500Y-129050000D03*
X55237500Y-129550000D03*
X55237500Y-130050000D03*
X55237500Y-130550000D03*
D51*
X55950000Y-131262500D03*
X56450000Y-131262500D03*
X56950000Y-131262500D03*
X57450000Y-131262500D03*
D50*
X58162500Y-130550000D03*
X58162500Y-130050000D03*
X58162500Y-129550000D03*
X58162500Y-129050000D03*
D51*
X57450000Y-128337500D03*
X56950000Y-128337500D03*
X56450000Y-128337500D03*
X55950000Y-128337500D03*
%TD*%
D15*
%TO.C,R1002*%
X226700000Y-256083667D03*
X226700000Y-257103667D03*
%TD*%
D11*
%TO.C,C105*%
X68012400Y-233930000D03*
X68012400Y-232970000D03*
%TD*%
%TO.C,CB1408*%
X232600000Y-227073667D03*
X232600000Y-226113667D03*
%TD*%
%TO.C,C806*%
X53900000Y-218080000D03*
X53900000Y-217120000D03*
%TD*%
D12*
%TO.C,R403*%
X82000000Y-54010000D03*
X82000000Y-52990000D03*
%TD*%
D16*
%TO.C,C501*%
X49580000Y-126200000D03*
X48620000Y-126200000D03*
%TD*%
D52*
%TO.C,R206*%
X55275000Y-78900000D03*
X56925000Y-78900000D03*
%TD*%
D22*
%TO.C,C1005*%
X187320000Y-174193667D03*
X188280000Y-174193667D03*
%TD*%
D11*
%TO.C,C711*%
X64300000Y-129280000D03*
X64300000Y-128320000D03*
%TD*%
D21*
%TO.C,R918*%
X63890000Y-49200000D03*
X64910000Y-49200000D03*
%TD*%
D13*
%TO.C,R413*%
X72910000Y-134200000D03*
X71890000Y-134200000D03*
%TD*%
D20*
%TO.C,CB104*%
X82800000Y-74570000D03*
X82800000Y-75530000D03*
%TD*%
D22*
%TO.C,C1610*%
X205420000Y-145593667D03*
X206380000Y-145593667D03*
%TD*%
D12*
%TO.C,R1604*%
X254900000Y-90403667D03*
X254900000Y-89383667D03*
%TD*%
D20*
%TO.C,C103*%
X67200000Y-152320000D03*
X67200000Y-153280000D03*
%TD*%
D12*
%TO.C,R1635*%
X204300000Y-232803667D03*
X204300000Y-231783667D03*
%TD*%
%TO.C,R1618*%
X256000000Y-219603667D03*
X256000000Y-218583667D03*
%TD*%
%TO.C,R414*%
X76400000Y-60360000D03*
X76400000Y-59340000D03*
%TD*%
D20*
%TO.C,C911*%
X93500000Y-209720000D03*
X93500000Y-210680000D03*
%TD*%
%TO.C,C408*%
X80550000Y-53020000D03*
X80550000Y-53980000D03*
%TD*%
D22*
%TO.C,C1402*%
X238570000Y-235993667D03*
X239530000Y-235993667D03*
%TD*%
D42*
%TO.C,J1101*%
X230575000Y-106543667D03*
X239425000Y-106593667D03*
D43*
X236875000Y-103593667D03*
D44*
X235625000Y-103593667D03*
X234375000Y-103593667D03*
X233125000Y-103593667D03*
%TD*%
D13*
%TO.C,R1401*%
X64810000Y-157100000D03*
X63790000Y-157100000D03*
%TD*%
D16*
%TO.C,CB1602*%
X250480000Y-95213667D03*
X249520000Y-95213667D03*
%TD*%
D22*
%TO.C,C708*%
X55020000Y-57500000D03*
X55980000Y-57500000D03*
%TD*%
D15*
%TO.C,R1632*%
X250400000Y-157383667D03*
X250400000Y-158403667D03*
%TD*%
D30*
%TO.C,U1701*%
X253620000Y-93973667D03*
X252780000Y-93973667D03*
X253620000Y-94813667D03*
X252780000Y-94813667D03*
D31*
X253950000Y-92931167D03*
X253450000Y-92931167D03*
X252950000Y-92931167D03*
X252450000Y-92931167D03*
D32*
X251737500Y-93643667D03*
X251737500Y-94143667D03*
X251737500Y-94643667D03*
X251737500Y-95143667D03*
D31*
X252450000Y-95856167D03*
X252950000Y-95856167D03*
X253450000Y-95856167D03*
X253950000Y-95856167D03*
D32*
X254662500Y-95143667D03*
X254662500Y-94643667D03*
X254662500Y-94143667D03*
X254662500Y-93643667D03*
%TD*%
D13*
%TO.C,R1624*%
X251410000Y-221593667D03*
X250390000Y-221593667D03*
%TD*%
D12*
%TO.C,R1617*%
X254900000Y-219603667D03*
X254900000Y-218583667D03*
%TD*%
D53*
%TO.C,D101*%
X59600000Y-247525000D03*
X59600000Y-249275000D03*
%TD*%
D33*
%TO.C,C810*%
X62500000Y-218075000D03*
X62500000Y-215125000D03*
%TD*%
D20*
%TO.C,CB1604*%
X248700000Y-226613667D03*
X248700000Y-227573667D03*
%TD*%
D22*
%TO.C,CB1405*%
X233920000Y-236893667D03*
X234880000Y-236893667D03*
%TD*%
D11*
%TO.C,C811*%
X64300000Y-216080000D03*
X64300000Y-215120000D03*
%TD*%
D22*
%TO.C,C1506*%
X184270000Y-159943667D03*
X185230000Y-159943667D03*
%TD*%
D21*
%TO.C,R908*%
X91897800Y-98600000D03*
X92917800Y-98600000D03*
%TD*%
D12*
%TO.C,R1602*%
X253900000Y-161303667D03*
X253900000Y-160283667D03*
%TD*%
D45*
%TO.C,FB903*%
X93215000Y-149000000D03*
X94185000Y-149000000D03*
%TD*%
D12*
%TO.C,R1611*%
X188800000Y-65103667D03*
X188800000Y-64083667D03*
%TD*%
D20*
%TO.C,C1009*%
X250400000Y-235313667D03*
X250400000Y-236273667D03*
%TD*%
D13*
%TO.C,R1624*%
X206410000Y-221593667D03*
X205390000Y-221593667D03*
%TD*%
D28*
%TO.C,FB102*%
X82000000Y-242885000D03*
X82000000Y-241915000D03*
%TD*%
D16*
%TO.C,C701*%
X51580000Y-133400000D03*
X50620000Y-133400000D03*
%TD*%
D15*
%TO.C,R1101*%
X192800000Y-174883667D03*
X192800000Y-175903667D03*
%TD*%
D22*
%TO.C,CB1001*%
X181920000Y-241493667D03*
X182880000Y-241493667D03*
%TD*%
D16*
%TO.C,C1004*%
X208680000Y-155393667D03*
X207720000Y-155393667D03*
%TD*%
D20*
%TO.C,C704*%
X52700000Y-129320000D03*
X52700000Y-130280000D03*
%TD*%
D11*
%TO.C,C905*%
X92262500Y-56880000D03*
X92262500Y-55920000D03*
%TD*%
D54*
%TO.C,U902*%
X88423500Y-159458000D03*
X88423500Y-158508000D03*
X88423500Y-157558000D03*
X86148500Y-157558000D03*
X86148500Y-159458000D03*
%TD*%
D55*
%TO.C,U904*%
X88462500Y-59650000D03*
X88462500Y-60600000D03*
X88462500Y-61550000D03*
X90737500Y-61550000D03*
X90737500Y-60600000D03*
X90737500Y-59650000D03*
%TD*%
D12*
%TO.C,R1001*%
X228900000Y-167603667D03*
X228900000Y-166583667D03*
%TD*%
D16*
%TO.C,C206*%
X76180000Y-95600000D03*
X75220000Y-95600000D03*
%TD*%
%TO.C,C702*%
X51580000Y-51200000D03*
X50620000Y-51200000D03*
%TD*%
D34*
%TO.C,FB304*%
X83200000Y-241915000D03*
X83200000Y-242885000D03*
%TD*%
D20*
%TO.C,C106*%
X68012400Y-155570000D03*
X68012400Y-156530000D03*
%TD*%
D19*
%TO.C,D904*%
X83200000Y-231812500D03*
X83200000Y-233387500D03*
%TD*%
D12*
%TO.C,R1630*%
X257100000Y-157803667D03*
X257100000Y-156783667D03*
%TD*%
D16*
%TO.C,CB1402*%
X231430000Y-142043667D03*
X230470000Y-142043667D03*
%TD*%
D15*
%TO.C,R1632*%
X205400000Y-232383667D03*
X205400000Y-233403667D03*
%TD*%
D16*
%TO.C,C901*%
X77980000Y-158600000D03*
X77020000Y-158600000D03*
%TD*%
D12*
%TO.C,R103*%
X57200000Y-177225000D03*
X57200000Y-176205000D03*
%TD*%
D15*
%TO.C,R1633*%
X249800000Y-226583667D03*
X249800000Y-227603667D03*
%TD*%
D22*
%TO.C,C808*%
X55020000Y-69300000D03*
X55980000Y-69300000D03*
%TD*%
%TO.C,C404*%
X69970000Y-59200000D03*
X70930000Y-59200000D03*
%TD*%
D20*
%TO.C,C306*%
X84400000Y-166940000D03*
X84400000Y-167900000D03*
%TD*%
D21*
%TO.C,C1602*%
X207690000Y-239893667D03*
X208710000Y-239893667D03*
%TD*%
%TO.C,R1609*%
X232590000Y-149793667D03*
X233610000Y-149793667D03*
%TD*%
D13*
%TO.C,R905*%
X95317800Y-248600000D03*
X94297800Y-248600000D03*
%TD*%
D11*
%TO.C,C1401*%
X188600000Y-152073667D03*
X188600000Y-151113667D03*
%TD*%
D56*
%TO.C,J501*%
X44450000Y-200175000D03*
X44400000Y-209025000D03*
D57*
X47400000Y-206475000D03*
D58*
X47400000Y-205225000D03*
X47400000Y-203975000D03*
X47400000Y-202725000D03*
%TD*%
D16*
%TO.C,CB1406*%
X195730000Y-217043667D03*
X194770000Y-217043667D03*
%TD*%
D11*
%TO.C,C909*%
X84600000Y-84480000D03*
X84600000Y-83520000D03*
%TD*%
D15*
%TO.C,R708*%
X59500000Y-203290000D03*
X59500000Y-204310000D03*
%TD*%
D22*
%TO.C,C1506*%
X184270000Y-234943667D03*
X185230000Y-234943667D03*
%TD*%
D20*
%TO.C,C304*%
X147900000Y-228145000D03*
X147900000Y-229105000D03*
%TD*%
D11*
%TO.C,C806*%
X53900000Y-68080000D03*
X53900000Y-67120000D03*
%TD*%
D15*
%TO.C,R1*%
X59500000Y-153390000D03*
X59500000Y-154410000D03*
%TD*%
D19*
%TO.C,D904*%
X83200000Y-81812500D03*
X83200000Y-83387500D03*
%TD*%
D22*
%TO.C,C808*%
X55020000Y-219300000D03*
X55980000Y-219300000D03*
%TD*%
D17*
%TO.C,MK1408*%
X238450000Y-143723667D03*
D18*
X238380000Y-147133667D03*
X240920000Y-147133667D03*
D17*
X240850000Y-143723667D03*
X239650000Y-143723667D03*
%TD*%
D16*
%TO.C,C409*%
X72880000Y-207200000D03*
X71920000Y-207200000D03*
%TD*%
D21*
%TO.C,R1607*%
X206690000Y-247293667D03*
X207710000Y-247293667D03*
%TD*%
D16*
%TO.C,C405*%
X70480000Y-49000000D03*
X69520000Y-49000000D03*
%TD*%
D22*
%TO.C,C602*%
X48620000Y-220200000D03*
X49580000Y-220200000D03*
%TD*%
D15*
%TO.C,R919*%
X84600000Y-231490000D03*
X84600000Y-232510000D03*
%TD*%
D12*
%TO.C,R1622*%
X249800000Y-225403667D03*
X249800000Y-224383667D03*
%TD*%
D15*
%TO.C,R1631*%
X251500000Y-157383667D03*
X251500000Y-158403667D03*
%TD*%
D22*
%TO.C,CB1405*%
X188920000Y-86893667D03*
X189880000Y-86893667D03*
%TD*%
D13*
%TO.C,R409*%
X81510000Y-201050000D03*
X80490000Y-201050000D03*
%TD*%
D19*
%TO.C,D904*%
X83200000Y-156812500D03*
X83200000Y-158387500D03*
%TD*%
D12*
%TO.C,R1620*%
X250400000Y-144603667D03*
X250400000Y-143583667D03*
%TD*%
D16*
%TO.C,CB1502*%
X253680000Y-146593667D03*
X252720000Y-146593667D03*
%TD*%
D13*
%TO.C,R413*%
X72910000Y-59200000D03*
X71890000Y-59200000D03*
%TD*%
D20*
%TO.C,C1508*%
X191300000Y-74913667D03*
X191300000Y-75873667D03*
%TD*%
D13*
%TO.C,R906*%
X94210000Y-152100000D03*
X93190000Y-152100000D03*
%TD*%
D22*
%TO.C,C1006*%
X181920000Y-242693667D03*
X182880000Y-242693667D03*
%TD*%
D20*
%TO.C,C1606*%
X205400000Y-237313667D03*
X205400000Y-238273667D03*
%TD*%
D16*
%TO.C,C802*%
X51580000Y-138000000D03*
X50620000Y-138000000D03*
%TD*%
D52*
%TO.C,R210*%
X95175000Y-56300000D03*
X96825000Y-56300000D03*
%TD*%
D22*
%TO.C,C1005*%
X232320000Y-174193667D03*
X233280000Y-174193667D03*
%TD*%
D14*
%TO.C,FB302*%
X141885000Y-84500000D03*
X140915000Y-84500000D03*
%TD*%
D16*
%TO.C,C1002*%
X183880000Y-253193667D03*
X182920000Y-253193667D03*
%TD*%
D17*
%TO.C,MK1403*%
X193980000Y-152193667D03*
D18*
X197390000Y-152263667D03*
X197390000Y-149723667D03*
D17*
X193980000Y-149793667D03*
X193980000Y-150993667D03*
%TD*%
D15*
%TO.C,R1623*%
X257100000Y-144183667D03*
X257100000Y-145203667D03*
%TD*%
D12*
%TO.C,R1616*%
X238450000Y-142053667D03*
X238450000Y-141033667D03*
%TD*%
D54*
%TO.C,U903*%
X90737500Y-206750000D03*
X90737500Y-205800000D03*
X90737500Y-204850000D03*
X88462500Y-204850000D03*
X88462500Y-206750000D03*
%TD*%
D59*
%TO.C,J201*%
X93750000Y-236800000D03*
X93750000Y-234800000D03*
D60*
X99500000Y-239150000D03*
X99500000Y-232450000D03*
%TD*%
D27*
%TO.C,C1614*%
X204000000Y-146581167D03*
X204000000Y-148006167D03*
%TD*%
D47*
%TO.C,C803*%
X51100000Y-140650000D03*
X51100000Y-142550000D03*
%TD*%
D21*
%TO.C,R1301*%
X89890000Y-152900000D03*
X90910000Y-152900000D03*
%TD*%
D15*
%TO.C,R1613*%
X195850000Y-159983667D03*
X195850000Y-161003667D03*
%TD*%
D22*
%TO.C,C903*%
X97820000Y-79800000D03*
X98780000Y-79800000D03*
%TD*%
D13*
%TO.C,R1634*%
X206410000Y-155393667D03*
X205390000Y-155393667D03*
%TD*%
%TO.C,R1624*%
X206410000Y-71593667D03*
X205390000Y-71593667D03*
%TD*%
D22*
%TO.C,CB1403*%
X184270000Y-160943667D03*
X185230000Y-160943667D03*
%TD*%
D16*
%TO.C,C1504*%
X208680000Y-220593667D03*
X207720000Y-220593667D03*
%TD*%
D22*
%TO.C,C404*%
X69970000Y-209200000D03*
X70930000Y-209200000D03*
%TD*%
D20*
%TO.C,C1605*%
X204500000Y-167733667D03*
X204500000Y-168693667D03*
%TD*%
D22*
%TO.C,CB1001*%
X181920000Y-91493667D03*
X182880000Y-91493667D03*
%TD*%
D12*
%TO.C,R922*%
X92300000Y-60710000D03*
X92300000Y-59690000D03*
%TD*%
D20*
%TO.C,C804*%
X52700000Y-66120000D03*
X52700000Y-67080000D03*
%TD*%
D16*
%TO.C,CB1502*%
X253680000Y-71593667D03*
X252720000Y-71593667D03*
%TD*%
D17*
%TO.C,MK1401*%
X191200000Y-85213667D03*
D18*
X191270000Y-81803667D03*
X188730000Y-81803667D03*
D17*
X188800000Y-85213667D03*
X190000000Y-85213667D03*
%TD*%
D12*
%TO.C,R108*%
X60700000Y-154410000D03*
X60700000Y-153390000D03*
%TD*%
D61*
%TO.C,D104*%
X85412500Y-70400000D03*
X86987500Y-70400000D03*
%TD*%
D45*
%TO.C,FB305*%
X158415000Y-76650000D03*
X159385000Y-76650000D03*
%TD*%
D15*
%TO.C,R601*%
X49500000Y-141090000D03*
X49500000Y-142110000D03*
%TD*%
D21*
%TO.C,R1609*%
X187590000Y-224793667D03*
X188610000Y-224793667D03*
%TD*%
D12*
%TO.C,R102*%
X59600000Y-102225000D03*
X59600000Y-101205000D03*
%TD*%
D17*
%TO.C,MK1406*%
X184150000Y-218723667D03*
D18*
X184080000Y-222133667D03*
X186620000Y-222133667D03*
D17*
X186550000Y-218723667D03*
X185350000Y-218723667D03*
%TD*%
D21*
%TO.C,R921*%
X90290000Y-208200000D03*
X91310000Y-208200000D03*
%TD*%
D16*
%TO.C,C206*%
X76180000Y-170600000D03*
X75220000Y-170600000D03*
%TD*%
D17*
%TO.C,MK1405*%
X195850000Y-158263667D03*
D18*
X195920000Y-154853667D03*
X193380000Y-154853667D03*
D17*
X193450000Y-158263667D03*
X194650000Y-158263667D03*
%TD*%
D12*
%TO.C,R1604*%
X209900000Y-90403667D03*
X209900000Y-89383667D03*
%TD*%
D62*
%TO.C,X401*%
X81200000Y-210000000D03*
X81200000Y-207700000D03*
D63*
X79300000Y-207700000D03*
X79300000Y-210000000D03*
%TD*%
D20*
%TO.C,C411*%
X80540000Y-205010000D03*
X80540000Y-205970000D03*
%TD*%
D12*
%TO.C,R912*%
X100300000Y-76510000D03*
X100300000Y-75490000D03*
%TD*%
D22*
%TO.C,CB1403*%
X229270000Y-235943667D03*
X230230000Y-235943667D03*
%TD*%
D11*
%TO.C,CB1601*%
X250500000Y-243693667D03*
X250500000Y-242733667D03*
%TD*%
D16*
%TO.C,C1505*%
X191080000Y-139093667D03*
X190120000Y-139093667D03*
%TD*%
%TO.C,CB901*%
X77980000Y-80600000D03*
X77020000Y-80600000D03*
%TD*%
D21*
%TO.C,R1607*%
X206690000Y-97293667D03*
X207710000Y-97293667D03*
%TD*%
D16*
%TO.C,CB902*%
X77980000Y-79600000D03*
X77020000Y-79600000D03*
%TD*%
D17*
%TO.C,MK1408*%
X193450000Y-68723667D03*
D18*
X193380000Y-72133667D03*
X195920000Y-72133667D03*
D17*
X195850000Y-68723667D03*
X194650000Y-68723667D03*
%TD*%
D15*
%TO.C,R803*%
X52700000Y-143090000D03*
X52700000Y-144110000D03*
%TD*%
D16*
%TO.C,C1611*%
X210980000Y-81393667D03*
X210020000Y-81393667D03*
%TD*%
D17*
%TO.C,MK1402*%
X233800000Y-141773667D03*
D18*
X233730000Y-145183667D03*
X236270000Y-145183667D03*
D17*
X236200000Y-141773667D03*
X235000000Y-141773667D03*
%TD*%
D12*
%TO.C,R1603*%
X251500000Y-165403667D03*
X251500000Y-164383667D03*
%TD*%
D16*
%TO.C,C1504*%
X253680000Y-220593667D03*
X252720000Y-220593667D03*
%TD*%
D64*
%TO.C,J301*%
X88750000Y-252975000D03*
X88800000Y-239125000D03*
D58*
X85800000Y-241675000D03*
X85800000Y-242925000D03*
X85800000Y-244175000D03*
D57*
X85800000Y-245425000D03*
X85800000Y-246675000D03*
X85800000Y-247925000D03*
D58*
X85800000Y-249175000D03*
D57*
X85800000Y-250425000D03*
%TD*%
D21*
%TO.C,R304*%
X164690000Y-162200000D03*
X165710000Y-162200000D03*
%TD*%
D11*
%TO.C,CB1601*%
X250500000Y-168693667D03*
X250500000Y-167733667D03*
%TD*%
D20*
%TO.C,CB101*%
X83300000Y-143020000D03*
X83300000Y-143980000D03*
%TD*%
D21*
%TO.C,R911*%
X94290000Y-96200000D03*
X95310000Y-96200000D03*
%TD*%
D17*
%TO.C,MK1404*%
X186020000Y-224793667D03*
D18*
X182610000Y-224723667D03*
X182610000Y-227263667D03*
D17*
X186020000Y-227193667D03*
X186020000Y-225993667D03*
%TD*%
D12*
%TO.C,R710*%
X60700000Y-54310000D03*
X60700000Y-53290000D03*
%TD*%
D16*
%TO.C,CB1402*%
X186430000Y-67043667D03*
X185470000Y-67043667D03*
%TD*%
D13*
%TO.C,R801*%
X51610000Y-69000000D03*
X50590000Y-69000000D03*
%TD*%
D11*
%TO.C,CB906*%
X92200000Y-93980000D03*
X92200000Y-93020000D03*
%TD*%
%TO.C,CB1608*%
X252600000Y-158373667D03*
X252600000Y-157413667D03*
%TD*%
D16*
%TO.C,CB1410*%
X64780000Y-158200000D03*
X63820000Y-158200000D03*
%TD*%
D12*
%TO.C,R207*%
X67200000Y-146510000D03*
X67200000Y-145490000D03*
%TD*%
D15*
%TO.C,R1615*%
X186550000Y-84933667D03*
X186550000Y-85953667D03*
%TD*%
D22*
%TO.C,C1102*%
X193920000Y-252193667D03*
X194880000Y-252193667D03*
%TD*%
%TO.C,C1402*%
X238570000Y-85993667D03*
X239530000Y-85993667D03*
%TD*%
D21*
%TO.C,R201*%
X61490000Y-89200000D03*
X62510000Y-89200000D03*
%TD*%
D16*
%TO.C,C206*%
X76180000Y-245600000D03*
X75220000Y-245600000D03*
%TD*%
D11*
%TO.C,C1401*%
X233600000Y-77073667D03*
X233600000Y-76113667D03*
%TD*%
D15*
%TO.C,R1613*%
X240850000Y-234983667D03*
X240850000Y-236003667D03*
%TD*%
D59*
%TO.C,J201*%
X93750000Y-86800000D03*
X93750000Y-84800000D03*
D60*
X99500000Y-89150000D03*
X99500000Y-82450000D03*
%TD*%
D22*
%TO.C,C407*%
X75320000Y-206200000D03*
X76280000Y-206200000D03*
%TD*%
D16*
%TO.C,CB903*%
X92880000Y-97400000D03*
X91920000Y-97400000D03*
%TD*%
%TO.C,C1101*%
X239880000Y-98593667D03*
X238920000Y-98593667D03*
%TD*%
D29*
%TO.C,U1002*%
X228850000Y-99256167D03*
X227900000Y-99256167D03*
X226950000Y-99256167D03*
X226950000Y-101531167D03*
X228850000Y-101531167D03*
%TD*%
D19*
%TO.C,D1001*%
X183120000Y-105788667D03*
X183120000Y-107363667D03*
%TD*%
D15*
%TO.C,R907*%
X100300000Y-154490000D03*
X100300000Y-155510000D03*
%TD*%
%TO.C,R809*%
X60700000Y-67090000D03*
X60700000Y-68110000D03*
%TD*%
D20*
%TO.C,C1606*%
X250400000Y-237313667D03*
X250400000Y-238273667D03*
%TD*%
D16*
%TO.C,C1503*%
X231430000Y-141043667D03*
X230470000Y-141043667D03*
%TD*%
D45*
%TO.C,FB1102*%
X193915000Y-100993667D03*
X194885000Y-100993667D03*
%TD*%
D11*
%TO.C,C1202*%
X90300000Y-50030000D03*
X90300000Y-49070000D03*
%TD*%
D22*
%TO.C,CB1401*%
X238570000Y-159993667D03*
X239530000Y-159993667D03*
%TD*%
D12*
%TO.C,R1620*%
X205400000Y-144603667D03*
X205400000Y-143583667D03*
%TD*%
D22*
%TO.C,CB1001*%
X226920000Y-91493667D03*
X227880000Y-91493667D03*
%TD*%
D45*
%TO.C,FB1101*%
X238915000Y-249793667D03*
X239885000Y-249793667D03*
%TD*%
D16*
%TO.C,C401*%
X70480000Y-200000000D03*
X69520000Y-200000000D03*
%TD*%
D15*
%TO.C,R1626*%
X254900000Y-232383667D03*
X254900000Y-233403667D03*
%TD*%
D20*
%TO.C,C201*%
X45800000Y-153320000D03*
X45800000Y-154280000D03*
%TD*%
D11*
%TO.C,C1202*%
X90300000Y-200030000D03*
X90300000Y-199070000D03*
%TD*%
D21*
%TO.C,R908*%
X91897800Y-248600000D03*
X92917800Y-248600000D03*
%TD*%
D12*
%TO.C,R1622*%
X249800000Y-150403667D03*
X249800000Y-149383667D03*
%TD*%
D65*
%TO.C,U301*%
X143225000Y-68665000D03*
X142375000Y-68665000D03*
X141325000Y-68665000D03*
X140475000Y-68665000D03*
X139425000Y-68665000D03*
X138575000Y-68665000D03*
X137525000Y-68665000D03*
X136675000Y-68665000D03*
X135625000Y-68665000D03*
X134775000Y-68665000D03*
X143225000Y-69665000D03*
X142375000Y-69665000D03*
X141325000Y-69665000D03*
X140475000Y-69665000D03*
X139425000Y-69665000D03*
X138575000Y-69665000D03*
X137525000Y-69665000D03*
X136675000Y-69665000D03*
X135625000Y-69665000D03*
X134775000Y-69665000D03*
D66*
X146100000Y-71540000D03*
X145100000Y-71540000D03*
X132900000Y-71540000D03*
X131900000Y-71540000D03*
X146100000Y-72390000D03*
X145100000Y-72390000D03*
X132900000Y-72390000D03*
X131900000Y-72390000D03*
X146100000Y-73440000D03*
X145100000Y-73440000D03*
X132900000Y-73440000D03*
X131900000Y-73440000D03*
X146100000Y-74290000D03*
X145100000Y-74290000D03*
X132900000Y-74290000D03*
X131900000Y-74290000D03*
X146100000Y-75340000D03*
X145100000Y-75340000D03*
X132900000Y-75340000D03*
X131900000Y-75340000D03*
X146100000Y-76190000D03*
X145100000Y-76190000D03*
X132900000Y-76190000D03*
X131900000Y-76190000D03*
X146100000Y-77240000D03*
X145100000Y-77240000D03*
X132900000Y-77240000D03*
X131900000Y-77240000D03*
X146100000Y-78090000D03*
X145100000Y-78090000D03*
X132900000Y-78090000D03*
X131900000Y-78090000D03*
X146100000Y-79140000D03*
X145100000Y-79140000D03*
X132900000Y-79140000D03*
X131900000Y-79140000D03*
X146100000Y-79990000D03*
X145100000Y-79990000D03*
X132900000Y-79990000D03*
X131900000Y-79990000D03*
D65*
X143225000Y-81865000D03*
X142375000Y-81865000D03*
X141325000Y-81865000D03*
X140475000Y-81865000D03*
X139425000Y-81865000D03*
X138575000Y-81865000D03*
X137525000Y-81865000D03*
X136675000Y-81865000D03*
X135625000Y-81865000D03*
X134775000Y-81865000D03*
X143225000Y-82865000D03*
X142375000Y-82865000D03*
X141325000Y-82865000D03*
X140475000Y-82865000D03*
X139425000Y-82865000D03*
X138575000Y-82865000D03*
X137525000Y-82865000D03*
X136675000Y-82865000D03*
X135625000Y-82865000D03*
X134775000Y-82865000D03*
%TD*%
D15*
%TO.C,R1628*%
X256600000Y-151603667D03*
X256600000Y-152623667D03*
%TD*%
D13*
%TO.C,R910*%
X95310000Y-247400000D03*
X94290000Y-247400000D03*
%TD*%
D12*
%TO.C,R1603*%
X251500000Y-90403667D03*
X251500000Y-89383667D03*
%TD*%
D11*
%TO.C,C1401*%
X188600000Y-77073667D03*
X188600000Y-76113667D03*
%TD*%
D20*
%TO.C,C804*%
X52700000Y-141120000D03*
X52700000Y-142080000D03*
%TD*%
D13*
%TO.C,R305*%
X165710000Y-235600000D03*
X164690000Y-235600000D03*
%TD*%
D15*
%TO.C,R1615*%
X231550000Y-84933667D03*
X231550000Y-85953667D03*
%TD*%
D22*
%TO.C,CB1403*%
X229270000Y-160943667D03*
X230230000Y-160943667D03*
%TD*%
D16*
%TO.C,C1507*%
X240730000Y-141043667D03*
X239770000Y-141043667D03*
%TD*%
D20*
%TO.C,C1605*%
X204500000Y-92733667D03*
X204500000Y-93693667D03*
%TD*%
D15*
%TO.C,R1626*%
X209900000Y-232383667D03*
X209900000Y-233403667D03*
%TD*%
D12*
%TO.C,R1620*%
X205400000Y-69603667D03*
X205400000Y-68583667D03*
%TD*%
D11*
%TO.C,C906*%
X90000000Y-234480000D03*
X90000000Y-233520000D03*
%TD*%
D13*
%TO.C,R1402*%
X64810000Y-231000000D03*
X63790000Y-231000000D03*
%TD*%
D16*
%TO.C,C1007*%
X228880000Y-96393667D03*
X227920000Y-96393667D03*
%TD*%
D20*
%TO.C,C106*%
X68012400Y-80570000D03*
X68012400Y-81530000D03*
%TD*%
%TO.C,C413*%
X75350000Y-134370000D03*
X75350000Y-135330000D03*
%TD*%
D15*
%TO.C,R1623*%
X212100000Y-219183667D03*
X212100000Y-220203667D03*
%TD*%
D12*
%TO.C,R1614*%
X184150000Y-217053667D03*
X184150000Y-216033667D03*
%TD*%
D11*
%TO.C,CB1601*%
X205500000Y-243693667D03*
X205500000Y-242733667D03*
%TD*%
D16*
%TO.C,C305*%
X139000000Y-141950000D03*
X138040000Y-141950000D03*
%TD*%
%TO.C,C1101*%
X194880000Y-98593667D03*
X193920000Y-98593667D03*
%TD*%
D19*
%TO.C,D302*%
X163000000Y-88812500D03*
X163000000Y-90387500D03*
%TD*%
D16*
%TO.C,C1504*%
X253680000Y-145593667D03*
X252720000Y-145593667D03*
%TD*%
D12*
%TO.C,R1605*%
X250400000Y-90403667D03*
X250400000Y-89383667D03*
%TD*%
D29*
%TO.C,U1002*%
X228850000Y-249256167D03*
X227900000Y-249256167D03*
X226950000Y-249256167D03*
X226950000Y-251531167D03*
X228850000Y-251531167D03*
%TD*%
D52*
%TO.C,R209*%
X91375000Y-215800000D03*
X93025000Y-215800000D03*
%TD*%
D48*
%TO.C,C1613*%
X257400000Y-155406167D03*
X257400000Y-153981167D03*
%TD*%
D15*
%TO.C,R404*%
X77900000Y-57390000D03*
X77900000Y-58410000D03*
%TD*%
D12*
%TO.C,R1605*%
X250400000Y-165403667D03*
X250400000Y-164383667D03*
%TD*%
D11*
%TO.C,CB102*%
X53900000Y-79380000D03*
X53900000Y-78420000D03*
%TD*%
D24*
%TO.C,U1301*%
X89875000Y-151455000D03*
X89875000Y-150185000D03*
X89875000Y-148915000D03*
X89875000Y-147645000D03*
X84925000Y-147645000D03*
X84925000Y-148915000D03*
X84925000Y-150185000D03*
X84925000Y-151455000D03*
%TD*%
D14*
%TO.C,FB302*%
X141885000Y-234500000D03*
X140915000Y-234500000D03*
%TD*%
D22*
%TO.C,C502*%
X48620000Y-208400000D03*
X49580000Y-208400000D03*
%TD*%
D34*
%TO.C,FB304*%
X83200000Y-166915000D03*
X83200000Y-167885000D03*
%TD*%
D11*
%TO.C,C910*%
X86862500Y-131880000D03*
X86862500Y-130920000D03*
%TD*%
D15*
%TO.C,R1623*%
X257100000Y-69183667D03*
X257100000Y-70203667D03*
%TD*%
D21*
%TO.C,R205*%
X61490000Y-234400000D03*
X62510000Y-234400000D03*
%TD*%
D16*
%TO.C,C1101*%
X239880000Y-173593667D03*
X238920000Y-173593667D03*
%TD*%
D15*
%TO.C,R601*%
X49500000Y-216090000D03*
X49500000Y-217110000D03*
%TD*%
D22*
%TO.C,CB1405*%
X188920000Y-236893667D03*
X189880000Y-236893667D03*
%TD*%
D20*
%TO.C,CB1603*%
X212700000Y-151633667D03*
X212700000Y-152593667D03*
%TD*%
%TO.C,C1607*%
X256000000Y-87313667D03*
X256000000Y-88273667D03*
%TD*%
D67*
%TO.C,F901*%
X97325000Y-223900000D03*
X99075000Y-223900000D03*
%TD*%
D21*
%TO.C,R203*%
X61490000Y-86800000D03*
X62510000Y-86800000D03*
%TD*%
D48*
%TO.C,C1613*%
X257400000Y-80406167D03*
X257400000Y-78981167D03*
%TD*%
D13*
%TO.C,R305*%
X165710000Y-85600000D03*
X164690000Y-85600000D03*
%TD*%
D54*
%TO.C,U903*%
X90737500Y-131750000D03*
X90737500Y-130800000D03*
X90737500Y-129850000D03*
X88462500Y-129850000D03*
X88462500Y-131750000D03*
%TD*%
D21*
%TO.C,R1303*%
X87890000Y-152900000D03*
X88910000Y-152900000D03*
%TD*%
D16*
%TO.C,C1502*%
X210980000Y-145593667D03*
X210020000Y-145593667D03*
%TD*%
D12*
%TO.C,R807*%
X59500000Y-143110000D03*
X59500000Y-142090000D03*
%TD*%
D22*
%TO.C,C1006*%
X181920000Y-92693667D03*
X182880000Y-92693667D03*
%TD*%
D16*
%TO.C,C601*%
X49580000Y-63000000D03*
X48620000Y-63000000D03*
%TD*%
D20*
%TO.C,C1606*%
X250400000Y-162313667D03*
X250400000Y-163273667D03*
%TD*%
D16*
%TO.C,C409*%
X72880000Y-132200000D03*
X71920000Y-132200000D03*
%TD*%
D64*
%TO.C,J301*%
X88750000Y-177975000D03*
X88800000Y-164125000D03*
D58*
X85800000Y-166675000D03*
X85800000Y-167925000D03*
X85800000Y-169175000D03*
D57*
X85800000Y-170425000D03*
X85800000Y-171675000D03*
X85800000Y-172925000D03*
D58*
X85800000Y-174175000D03*
D57*
X85800000Y-175425000D03*
%TD*%
D20*
%TO.C,CB1407*%
X192300000Y-149913667D03*
X192300000Y-150873667D03*
%TD*%
D22*
%TO.C,C1610*%
X250420000Y-70593667D03*
X251380000Y-70593667D03*
%TD*%
D16*
%TO.C,CB1406*%
X240730000Y-217043667D03*
X239770000Y-217043667D03*
%TD*%
D68*
%TO.C,U201*%
X91325000Y-213162500D03*
D69*
X91250000Y-213700000D03*
D68*
X91325000Y-214237500D03*
X93025000Y-214237500D03*
D69*
X93100000Y-213700000D03*
D68*
X93025000Y-213162500D03*
%TD*%
D12*
%TO.C,R1602*%
X253900000Y-236303667D03*
X253900000Y-235283667D03*
%TD*%
D15*
%TO.C,R1613*%
X240850000Y-159983667D03*
X240850000Y-161003667D03*
%TD*%
D16*
%TO.C,C701*%
X51580000Y-58400000D03*
X50620000Y-58400000D03*
%TD*%
D15*
%TO.C,R1631*%
X206500000Y-157383667D03*
X206500000Y-158403667D03*
%TD*%
D21*
%TO.C,R1607*%
X251690000Y-97293667D03*
X252710000Y-97293667D03*
%TD*%
D52*
%TO.C,R914*%
X93582800Y-244414000D03*
X95232800Y-244414000D03*
%TD*%
D17*
%TO.C,MK1406*%
X229150000Y-218723667D03*
D18*
X229080000Y-222133667D03*
X231620000Y-222133667D03*
D17*
X231550000Y-218723667D03*
X230350000Y-218723667D03*
%TD*%
D22*
%TO.C,C1603*%
X206720000Y-91493667D03*
X207680000Y-91493667D03*
%TD*%
D70*
%TO.C,D105*%
X85200000Y-65550000D03*
X85200000Y-66850000D03*
X87200000Y-66850000D03*
X87200000Y-65550000D03*
%TD*%
D13*
%TO.C,R305*%
X165710000Y-160600000D03*
X164690000Y-160600000D03*
%TD*%
D22*
%TO.C,C416*%
X48920000Y-211700000D03*
X49880000Y-211700000D03*
%TD*%
D16*
%TO.C,C1002*%
X228880000Y-178193667D03*
X227920000Y-178193667D03*
%TD*%
%TO.C,C812*%
X55980000Y-220300000D03*
X55020000Y-220300000D03*
%TD*%
D48*
%TO.C,C1609*%
X204000000Y-230406167D03*
X204000000Y-228981167D03*
%TD*%
D13*
%TO.C,R904*%
X94210000Y-226041800D03*
X93190000Y-226041800D03*
%TD*%
D56*
%TO.C,J601*%
X44450000Y-61975000D03*
X44400000Y-70825000D03*
D57*
X47400000Y-68275000D03*
D58*
X47400000Y-67025000D03*
X47400000Y-65775000D03*
X47400000Y-64525000D03*
%TD*%
D17*
%TO.C,MK1406*%
X229150000Y-68723667D03*
D18*
X229080000Y-72133667D03*
X231620000Y-72133667D03*
D17*
X231550000Y-68723667D03*
X230350000Y-68723667D03*
%TD*%
D15*
%TO.C,R703*%
X52700000Y-56290000D03*
X52700000Y-57310000D03*
%TD*%
D21*
%TO.C,R408*%
X83490000Y-124050000D03*
X84510000Y-124050000D03*
%TD*%
D16*
%TO.C,C702*%
X51580000Y-201200000D03*
X50620000Y-201200000D03*
%TD*%
D17*
%TO.C,MK1405*%
X240850000Y-158263667D03*
D18*
X240920000Y-154853667D03*
X238380000Y-154853667D03*
D17*
X238450000Y-158263667D03*
X239650000Y-158263667D03*
%TD*%
D15*
%TO.C,R808*%
X59500000Y-215090000D03*
X59500000Y-216110000D03*
%TD*%
D20*
%TO.C,C201*%
X45800000Y-228320000D03*
X45800000Y-229280000D03*
%TD*%
D21*
%TO.C,R405*%
X77840000Y-206200000D03*
X78860000Y-206200000D03*
%TD*%
D15*
%TO.C,R1623*%
X212100000Y-69183667D03*
X212100000Y-70203667D03*
%TD*%
D16*
%TO.C,C205*%
X76280000Y-163200000D03*
X75320000Y-163200000D03*
%TD*%
D20*
%TO.C,C707*%
X53900000Y-203320000D03*
X53900000Y-204280000D03*
%TD*%
D34*
%TO.C,FB201*%
X44600000Y-228315000D03*
X44600000Y-229285000D03*
%TD*%
D12*
%TO.C,R912*%
X100300000Y-226510000D03*
X100300000Y-225490000D03*
%TD*%
D41*
%TO.C,SW101*%
X50950000Y-75400000D03*
X43200000Y-75400000D03*
%TD*%
D42*
%TO.C,J205*%
X65075000Y-175350000D03*
X78925000Y-175400000D03*
D43*
X76375000Y-172400000D03*
X75125000Y-172400000D03*
X73875000Y-172400000D03*
D44*
X72625000Y-172400000D03*
X71375000Y-172400000D03*
X70125000Y-172400000D03*
D43*
X68875000Y-172400000D03*
D44*
X67625000Y-172400000D03*
%TD*%
D16*
%TO.C,C802*%
X51580000Y-63000000D03*
X50620000Y-63000000D03*
%TD*%
D15*
%TO.C,R1615*%
X231550000Y-159933667D03*
X231550000Y-160953667D03*
%TD*%
D52*
%TO.C,R914*%
X93582800Y-169414000D03*
X95232800Y-169414000D03*
%TD*%
D22*
%TO.C,C417*%
X49120000Y-199800000D03*
X50080000Y-199800000D03*
%TD*%
D15*
%TO.C,R1625*%
X204300000Y-219183667D03*
X204300000Y-220203667D03*
%TD*%
D22*
%TO.C,CB907*%
X87920000Y-230700000D03*
X88880000Y-230700000D03*
%TD*%
D15*
%TO.C,R907*%
X100300000Y-79490000D03*
X100300000Y-80510000D03*
%TD*%
D28*
%TO.C,FB101*%
X80800000Y-92885000D03*
X80800000Y-91915000D03*
%TD*%
D15*
%TO.C,R1003*%
X226900000Y-171483667D03*
X226900000Y-172503667D03*
%TD*%
D71*
%TO.C,Y101*%
X72862400Y-83950000D03*
X75162400Y-83950000D03*
X75162400Y-82050000D03*
X72862400Y-82050000D03*
%TD*%
D11*
%TO.C,C910*%
X86862500Y-206880000D03*
X86862500Y-205920000D03*
%TD*%
D12*
%TO.C,R710*%
X60700000Y-129310000D03*
X60700000Y-128290000D03*
%TD*%
D15*
%TO.C,R101*%
X67212400Y-72990000D03*
X67212400Y-74010000D03*
%TD*%
D21*
%TO.C,R201*%
X61490000Y-164200000D03*
X62510000Y-164200000D03*
%TD*%
D22*
%TO.C,C416*%
X48920000Y-136700000D03*
X49880000Y-136700000D03*
%TD*%
D21*
%TO.C,R1301*%
X89890000Y-77900000D03*
X90910000Y-77900000D03*
%TD*%
D27*
%TO.C,C1608*%
X212400000Y-221581167D03*
X212400000Y-223006167D03*
%TD*%
D11*
%TO.C,C202*%
X43400000Y-79280000D03*
X43400000Y-78320000D03*
%TD*%
D17*
%TO.C,MK1405*%
X240850000Y-83263667D03*
D18*
X240920000Y-79853667D03*
X238380000Y-79853667D03*
D17*
X238450000Y-83263667D03*
X239650000Y-83263667D03*
%TD*%
D16*
%TO.C,C501*%
X49580000Y-201200000D03*
X48620000Y-201200000D03*
%TD*%
D72*
%TO.C,U901*%
X96774500Y-77411200D03*
X97614500Y-77411200D03*
X96774500Y-76571200D03*
X97614500Y-76571200D03*
D73*
X96444500Y-78453700D03*
X96944500Y-78453700D03*
X97444500Y-78453700D03*
X97944500Y-78453700D03*
D74*
X98657000Y-77741200D03*
X98657000Y-77241200D03*
X98657000Y-76741200D03*
X98657000Y-76241200D03*
D73*
X97944500Y-75528700D03*
X97444500Y-75528700D03*
X96944500Y-75528700D03*
X96444500Y-75528700D03*
D74*
X95732000Y-76241200D03*
X95732000Y-76741200D03*
X95732000Y-77241200D03*
X95732000Y-77741200D03*
%TD*%
D13*
%TO.C,R910*%
X95310000Y-172400000D03*
X94290000Y-172400000D03*
%TD*%
D16*
%TO.C,C203*%
X100280000Y-56500000D03*
X99320000Y-56500000D03*
%TD*%
D12*
%TO.C,R1601*%
X207600000Y-236303667D03*
X207600000Y-235283667D03*
%TD*%
D11*
%TO.C,CB401*%
X77900000Y-210330000D03*
X77900000Y-209370000D03*
%TD*%
D12*
%TO.C,R903*%
X95300000Y-222110000D03*
X95300000Y-221090000D03*
%TD*%
D20*
%TO.C,CB1003*%
X206500000Y-160313667D03*
X206500000Y-161273667D03*
%TD*%
%TO.C,C1508*%
X236300000Y-224913667D03*
X236300000Y-225873667D03*
%TD*%
D16*
%TO.C,CB904*%
X92880000Y-96200000D03*
X91920000Y-96200000D03*
%TD*%
D17*
%TO.C,MK1403*%
X238980000Y-152193667D03*
D18*
X242390000Y-152263667D03*
X242390000Y-149723667D03*
D17*
X238980000Y-149793667D03*
X238980000Y-150993667D03*
%TD*%
D16*
%TO.C,C1505*%
X236080000Y-139093667D03*
X235120000Y-139093667D03*
%TD*%
D22*
%TO.C,C107*%
X71240000Y-63600000D03*
X72200000Y-63600000D03*
%TD*%
D12*
%TO.C,R922*%
X92300000Y-135710000D03*
X92300000Y-134690000D03*
%TD*%
D15*
%TO.C,R1628*%
X256600000Y-76603667D03*
X256600000Y-77623667D03*
%TD*%
D13*
%TO.C,R705*%
X53610000Y-208400000D03*
X52590000Y-208400000D03*
%TD*%
D12*
%TO.C,R1621*%
X256600000Y-75423667D03*
X256600000Y-74403667D03*
%TD*%
D17*
%TO.C,MK1404*%
X186020000Y-74793667D03*
D18*
X182610000Y-74723667D03*
X182610000Y-77263667D03*
D17*
X186020000Y-77193667D03*
X186020000Y-75993667D03*
%TD*%
D12*
%TO.C,R1606*%
X256000000Y-240403667D03*
X256000000Y-239383667D03*
%TD*%
D22*
%TO.C,C1603*%
X251720000Y-166493667D03*
X252680000Y-166493667D03*
%TD*%
D16*
%TO.C,C904*%
X94180000Y-223000000D03*
X93220000Y-223000000D03*
%TD*%
D20*
%TO.C,CB1003*%
X251500000Y-160313667D03*
X251500000Y-161273667D03*
%TD*%
D45*
%TO.C,FB1101*%
X193915000Y-174793667D03*
X194885000Y-174793667D03*
%TD*%
D22*
%TO.C,C1610*%
X205420000Y-70593667D03*
X206380000Y-70593667D03*
%TD*%
D19*
%TO.C,D303*%
X167400000Y-88825000D03*
X167400000Y-90400000D03*
%TD*%
D20*
%TO.C,C805*%
X57500000Y-69320000D03*
X57500000Y-70280000D03*
%TD*%
%TO.C,CB1609*%
X207600000Y-68613667D03*
X207600000Y-69573667D03*
%TD*%
D15*
%TO.C,R1627*%
X211000000Y-82383667D03*
X211000000Y-83403667D03*
%TD*%
D20*
%TO.C,CB104*%
X82800000Y-149570000D03*
X82800000Y-150530000D03*
%TD*%
D13*
%TO.C,R411*%
X81510000Y-202050000D03*
X80490000Y-202050000D03*
%TD*%
D20*
%TO.C,CB101*%
X83300000Y-218020000D03*
X83300000Y-218980000D03*
%TD*%
D52*
%TO.C,R913*%
X93582800Y-242600000D03*
X95232800Y-242600000D03*
%TD*%
D16*
%TO.C,C912*%
X88880000Y-208200000D03*
X87920000Y-208200000D03*
%TD*%
D20*
%TO.C,C1508*%
X236300000Y-74913667D03*
X236300000Y-75873667D03*
%TD*%
D16*
%TO.C,C1003*%
X233280000Y-251593667D03*
X232320000Y-251593667D03*
%TD*%
D13*
%TO.C,R805*%
X53610000Y-220200000D03*
X52590000Y-220200000D03*
%TD*%
D16*
%TO.C,CB903*%
X92880000Y-172400000D03*
X91920000Y-172400000D03*
%TD*%
%TO.C,CB1502*%
X208680000Y-146593667D03*
X207720000Y-146593667D03*
%TD*%
%TO.C,C410*%
X72880000Y-206200000D03*
X71920000Y-206200000D03*
%TD*%
D15*
%TO.C,R917*%
X100300000Y-227490000D03*
X100300000Y-228510000D03*
%TD*%
D12*
%TO.C,R207*%
X67200000Y-221510000D03*
X67200000Y-220490000D03*
%TD*%
D20*
%TO.C,C1009*%
X205400000Y-85313667D03*
X205400000Y-86273667D03*
%TD*%
D11*
%TO.C,CB1601*%
X205500000Y-168693667D03*
X205500000Y-167733667D03*
%TD*%
D22*
%TO.C,C301*%
X163520000Y-141800000D03*
X164480000Y-141800000D03*
%TD*%
D21*
%TO.C,R410*%
X80490000Y-49050000D03*
X81510000Y-49050000D03*
%TD*%
D16*
%TO.C,CB1002*%
X183880000Y-97593667D03*
X182920000Y-97593667D03*
%TD*%
D13*
%TO.C,R302*%
X165710000Y-238800000D03*
X164690000Y-238800000D03*
%TD*%
D20*
%TO.C,C1607*%
X256000000Y-162313667D03*
X256000000Y-163273667D03*
%TD*%
D21*
%TO.C,R408*%
X83490000Y-199050000D03*
X84510000Y-199050000D03*
%TD*%
%TO.C,R202*%
X61490000Y-238000000D03*
X62510000Y-238000000D03*
%TD*%
D22*
%TO.C,C1603*%
X206720000Y-166493667D03*
X207680000Y-166493667D03*
%TD*%
D13*
%TO.C,R702*%
X51610000Y-127400000D03*
X50590000Y-127400000D03*
%TD*%
D11*
%TO.C,C1401*%
X188600000Y-227073667D03*
X188600000Y-226113667D03*
%TD*%
D20*
%TO.C,C1605*%
X249500000Y-242733667D03*
X249500000Y-243693667D03*
%TD*%
D28*
%TO.C,FB601*%
X49500000Y-215085000D03*
X49500000Y-214115000D03*
%TD*%
D21*
%TO.C,R304*%
X164690000Y-87200000D03*
X165710000Y-87200000D03*
%TD*%
D55*
%TO.C,U904*%
X88462500Y-209650000D03*
X88462500Y-210600000D03*
X88462500Y-211550000D03*
X90737500Y-211550000D03*
X90737500Y-210600000D03*
X90737500Y-209650000D03*
%TD*%
D12*
%TO.C,R810*%
X60700000Y-66110000D03*
X60700000Y-65090000D03*
%TD*%
D75*
%TO.C,SW901*%
X100200000Y-176400000D03*
X100200000Y-174400000D03*
X100200000Y-170400000D03*
X100200000Y-168400000D03*
X97400000Y-176400000D03*
X97400000Y-174400000D03*
X97400000Y-170400000D03*
X97400000Y-168400000D03*
%TD*%
D20*
%TO.C,CB1609*%
X207600000Y-143613667D03*
X207600000Y-144573667D03*
%TD*%
D12*
%TO.C,R1614*%
X184150000Y-142053667D03*
X184150000Y-141033667D03*
%TD*%
D21*
%TO.C,R203*%
X61490000Y-161800000D03*
X62510000Y-161800000D03*
%TD*%
D11*
%TO.C,C806*%
X53900000Y-143080000D03*
X53900000Y-142120000D03*
%TD*%
D45*
%TO.C,FB1101*%
X193915000Y-249793667D03*
X194885000Y-249793667D03*
%TD*%
D41*
%TO.C,SW102*%
X53400000Y-75400000D03*
X61150000Y-75400000D03*
%TD*%
D15*
%TO.C,R1615*%
X231550000Y-234933667D03*
X231550000Y-235953667D03*
%TD*%
D12*
%TO.C,R707*%
X59500000Y-56310000D03*
X59500000Y-55290000D03*
%TD*%
D15*
%TO.C,R1003*%
X181900000Y-171483667D03*
X181900000Y-172503667D03*
%TD*%
D21*
%TO.C,R1403*%
X63790000Y-89200000D03*
X64810000Y-89200000D03*
%TD*%
D64*
%TO.C,J301*%
X88750000Y-102975000D03*
X88800000Y-89125000D03*
D58*
X85800000Y-91675000D03*
X85800000Y-92925000D03*
X85800000Y-94175000D03*
D57*
X85800000Y-95425000D03*
X85800000Y-96675000D03*
X85800000Y-97925000D03*
D58*
X85800000Y-99175000D03*
D57*
X85800000Y-100425000D03*
%TD*%
D16*
%TO.C,C1604*%
X209680000Y-166493667D03*
X208720000Y-166493667D03*
%TD*%
%TO.C,C1101*%
X194880000Y-173593667D03*
X193920000Y-173593667D03*
%TD*%
D11*
%TO.C,CB1607*%
X253800000Y-233373667D03*
X253800000Y-232413667D03*
%TD*%
D14*
%TO.C,FB1001*%
X188285000Y-250393667D03*
X187315000Y-250393667D03*
%TD*%
D15*
%TO.C,R1623*%
X257100000Y-219183667D03*
X257100000Y-220203667D03*
%TD*%
D71*
%TO.C,Y101*%
X72862400Y-158950000D03*
X75162400Y-158950000D03*
X75162400Y-157050000D03*
X72862400Y-157050000D03*
%TD*%
D76*
%TO.C,U401*%
X73215000Y-204500000D03*
X73715000Y-204500000D03*
X74215000Y-204500000D03*
X74715000Y-204500000D03*
X75215000Y-204500000D03*
D77*
X75715000Y-204500000D03*
X76215000Y-204500000D03*
X76715000Y-204500000D03*
X77215000Y-204500000D03*
X77715000Y-204500000D03*
D78*
X78465000Y-203750000D03*
X78465000Y-203250000D03*
X78465000Y-202750000D03*
X78465000Y-202250000D03*
X78465000Y-201750000D03*
D79*
X78465000Y-201250000D03*
X78465000Y-200750000D03*
X78465000Y-200250000D03*
X78465000Y-199750000D03*
X78465000Y-199250000D03*
D77*
X77715000Y-198500000D03*
X77215000Y-198500000D03*
X76715000Y-198500000D03*
X76215000Y-198500000D03*
X75715000Y-198500000D03*
D76*
X75215000Y-198500000D03*
X74715000Y-198500000D03*
X74215000Y-198500000D03*
X73715000Y-198500000D03*
X73215000Y-198500000D03*
D79*
X72465000Y-199250000D03*
X72465000Y-199750000D03*
X72465000Y-200250000D03*
X72465000Y-200750000D03*
X72465000Y-201250000D03*
D78*
X72465000Y-201750000D03*
X72465000Y-202250000D03*
X72465000Y-202750000D03*
X72465000Y-203250000D03*
X72465000Y-203750000D03*
D80*
X74465000Y-202500000D03*
D81*
X76465000Y-202500000D03*
D82*
X74465000Y-200500000D03*
D83*
X76465000Y-200500000D03*
%TD*%
D16*
%TO.C,CB904*%
X92880000Y-171200000D03*
X91920000Y-171200000D03*
%TD*%
D20*
%TO.C,C807*%
X53900000Y-65120000D03*
X53900000Y-66080000D03*
%TD*%
D12*
%TO.C,R402*%
X68000000Y-208110000D03*
X68000000Y-207090000D03*
%TD*%
D21*
%TO.C,R1302*%
X85890000Y-227900000D03*
X86910000Y-227900000D03*
%TD*%
D13*
%TO.C,R1624*%
X251410000Y-71593667D03*
X250390000Y-71593667D03*
%TD*%
D22*
%TO.C,C808*%
X55020000Y-144300000D03*
X55980000Y-144300000D03*
%TD*%
D16*
%TO.C,CB1402*%
X186430000Y-142043667D03*
X185470000Y-142043667D03*
%TD*%
D22*
%TO.C,CB105*%
X71220000Y-139700000D03*
X72180000Y-139700000D03*
%TD*%
D13*
%TO.C,R1610*%
X192310000Y-227193667D03*
X191290000Y-227193667D03*
%TD*%
D22*
%TO.C,C107*%
X71240000Y-138600000D03*
X72200000Y-138600000D03*
%TD*%
D12*
%TO.C,R1620*%
X205400000Y-219603667D03*
X205400000Y-218583667D03*
%TD*%
D56*
%TO.C,J601*%
X44450000Y-211975000D03*
X44400000Y-220825000D03*
D57*
X47400000Y-218275000D03*
D58*
X47400000Y-217025000D03*
X47400000Y-215775000D03*
X47400000Y-214525000D03*
%TD*%
D21*
%TO.C,R1514*%
X254990000Y-71593667D03*
X256010000Y-71593667D03*
%TD*%
D11*
%TO.C,C706*%
X53900000Y-56280000D03*
X53900000Y-55320000D03*
%TD*%
D16*
%TO.C,C712*%
X55980000Y-208500000D03*
X55020000Y-208500000D03*
%TD*%
D19*
%TO.C,D302*%
X163000000Y-238812500D03*
X163000000Y-240387500D03*
%TD*%
D12*
%TO.C,R1620*%
X250400000Y-219603667D03*
X250400000Y-218583667D03*
%TD*%
D16*
%TO.C,CB902*%
X77980000Y-154600000D03*
X77020000Y-154600000D03*
%TD*%
D42*
%TO.C,J207*%
X65075000Y-242850000D03*
X78925000Y-242900000D03*
D43*
X76375000Y-239900000D03*
X75125000Y-239900000D03*
X73875000Y-239900000D03*
D44*
X72625000Y-239900000D03*
X71375000Y-239900000D03*
X70125000Y-239900000D03*
D43*
X68875000Y-239900000D03*
D44*
X67625000Y-239900000D03*
%TD*%
D54*
%TO.C,U902*%
X88423500Y-84458000D03*
X88423500Y-83508000D03*
X88423500Y-82558000D03*
X86148500Y-82558000D03*
X86148500Y-84458000D03*
%TD*%
D65*
%TO.C,U301*%
X143225000Y-218665000D03*
X142375000Y-218665000D03*
X141325000Y-218665000D03*
X140475000Y-218665000D03*
X139425000Y-218665000D03*
X138575000Y-218665000D03*
X137525000Y-218665000D03*
X136675000Y-218665000D03*
X135625000Y-218665000D03*
X134775000Y-218665000D03*
X143225000Y-219665000D03*
X142375000Y-219665000D03*
X141325000Y-219665000D03*
X140475000Y-219665000D03*
X139425000Y-219665000D03*
X138575000Y-219665000D03*
X137525000Y-219665000D03*
X136675000Y-219665000D03*
X135625000Y-219665000D03*
X134775000Y-219665000D03*
D66*
X146100000Y-221540000D03*
X145100000Y-221540000D03*
X132900000Y-221540000D03*
X131900000Y-221540000D03*
X146100000Y-222390000D03*
X145100000Y-222390000D03*
X132900000Y-222390000D03*
X131900000Y-222390000D03*
X146100000Y-223440000D03*
X145100000Y-223440000D03*
X132900000Y-223440000D03*
X131900000Y-223440000D03*
X146100000Y-224290000D03*
X145100000Y-224290000D03*
X132900000Y-224290000D03*
X131900000Y-224290000D03*
X146100000Y-225340000D03*
X145100000Y-225340000D03*
X132900000Y-225340000D03*
X131900000Y-225340000D03*
X146100000Y-226190000D03*
X145100000Y-226190000D03*
X132900000Y-226190000D03*
X131900000Y-226190000D03*
X146100000Y-227240000D03*
X145100000Y-227240000D03*
X132900000Y-227240000D03*
X131900000Y-227240000D03*
X146100000Y-228090000D03*
X145100000Y-228090000D03*
X132900000Y-228090000D03*
X131900000Y-228090000D03*
X146100000Y-229140000D03*
X145100000Y-229140000D03*
X132900000Y-229140000D03*
X131900000Y-229140000D03*
X146100000Y-229990000D03*
X145100000Y-229990000D03*
X132900000Y-229990000D03*
X131900000Y-229990000D03*
D65*
X143225000Y-231865000D03*
X142375000Y-231865000D03*
X141325000Y-231865000D03*
X140475000Y-231865000D03*
X139425000Y-231865000D03*
X138575000Y-231865000D03*
X137525000Y-231865000D03*
X136675000Y-231865000D03*
X135625000Y-231865000D03*
X134775000Y-231865000D03*
X143225000Y-232865000D03*
X142375000Y-232865000D03*
X141325000Y-232865000D03*
X140475000Y-232865000D03*
X139425000Y-232865000D03*
X138575000Y-232865000D03*
X137525000Y-232865000D03*
X136675000Y-232865000D03*
X135625000Y-232865000D03*
X134775000Y-232865000D03*
%TD*%
D16*
%TO.C,C410*%
X72880000Y-56200000D03*
X71920000Y-56200000D03*
%TD*%
D24*
%TO.C,U1301*%
X89875000Y-226455000D03*
X89875000Y-225185000D03*
X89875000Y-223915000D03*
X89875000Y-222645000D03*
X84925000Y-222645000D03*
X84925000Y-223915000D03*
X84925000Y-225185000D03*
X84925000Y-226455000D03*
%TD*%
D15*
%TO.C,R917*%
X100300000Y-77490000D03*
X100300000Y-78510000D03*
%TD*%
D20*
%TO.C,CB1603*%
X257700000Y-76633667D03*
X257700000Y-77593667D03*
%TD*%
D13*
%TO.C,R406*%
X68960000Y-134200000D03*
X67940000Y-134200000D03*
%TD*%
D21*
%TO.C,R105*%
X88690000Y-143600000D03*
X89710000Y-143600000D03*
%TD*%
D16*
%TO.C,C203*%
X100280000Y-206500000D03*
X99320000Y-206500000D03*
%TD*%
D15*
%TO.C,R1101*%
X237800000Y-174883667D03*
X237800000Y-175903667D03*
%TD*%
D12*
%TO.C,R1622*%
X249800000Y-75403667D03*
X249800000Y-74383667D03*
%TD*%
D22*
%TO.C,C415*%
X71920000Y-58200000D03*
X72880000Y-58200000D03*
%TD*%
D11*
%TO.C,C906*%
X90000000Y-159480000D03*
X90000000Y-158520000D03*
%TD*%
D16*
%TO.C,C1505*%
X236080000Y-214093667D03*
X235120000Y-214093667D03*
%TD*%
D22*
%TO.C,C1005*%
X232320000Y-99193667D03*
X233280000Y-99193667D03*
%TD*%
D17*
%TO.C,MK1407*%
X231550000Y-233263667D03*
D18*
X231620000Y-229853667D03*
X229080000Y-229853667D03*
D17*
X229150000Y-233263667D03*
X230350000Y-233263667D03*
%TD*%
D21*
%TO.C,R1607*%
X206690000Y-172293667D03*
X207710000Y-172293667D03*
%TD*%
D13*
%TO.C,R1610*%
X237310000Y-152193667D03*
X236290000Y-152193667D03*
%TD*%
D11*
%TO.C,C202*%
X43400000Y-229280000D03*
X43400000Y-228320000D03*
%TD*%
D52*
%TO.C,R913*%
X93582800Y-167600000D03*
X95232800Y-167600000D03*
%TD*%
D21*
%TO.C,R918*%
X63890000Y-199200000D03*
X64910000Y-199200000D03*
%TD*%
D13*
%TO.C,R1610*%
X192310000Y-77193667D03*
X191290000Y-77193667D03*
%TD*%
D11*
%TO.C,C809*%
X64300000Y-218080000D03*
X64300000Y-217120000D03*
%TD*%
D14*
%TO.C,FB1001*%
X233285000Y-175393667D03*
X232315000Y-175393667D03*
%TD*%
D22*
%TO.C,CB108*%
X88720000Y-140600000D03*
X89680000Y-140600000D03*
%TD*%
D45*
%TO.C,FB1101*%
X238915000Y-174793667D03*
X239885000Y-174793667D03*
%TD*%
D13*
%TO.C,R1608*%
X209710000Y-247293667D03*
X208690000Y-247293667D03*
%TD*%
D20*
%TO.C,CB1407*%
X192300000Y-74913667D03*
X192300000Y-75873667D03*
%TD*%
D16*
%TO.C,CB1404*%
X236080000Y-215093667D03*
X235120000Y-215093667D03*
%TD*%
D64*
%TO.C,J302*%
X164025000Y-157950000D03*
X164075000Y-144100000D03*
D58*
X161075000Y-146650000D03*
X161075000Y-147900000D03*
X161075000Y-149150000D03*
D57*
X161075000Y-150400000D03*
X161075000Y-151650000D03*
X161075000Y-152900000D03*
D58*
X161075000Y-154150000D03*
D57*
X161075000Y-155400000D03*
%TD*%
D16*
%TO.C,CB201*%
X62480000Y-157200000D03*
X61520000Y-157200000D03*
%TD*%
D15*
%TO.C,R808*%
X59500000Y-65090000D03*
X59500000Y-66110000D03*
%TD*%
D16*
%TO.C,C305*%
X139000000Y-216950000D03*
X138040000Y-216950000D03*
%TD*%
D12*
%TO.C,R1635*%
X204300000Y-82803667D03*
X204300000Y-81783667D03*
%TD*%
D13*
%TO.C,R706*%
X53610000Y-51200000D03*
X52590000Y-51200000D03*
%TD*%
D16*
%TO.C,C1003*%
X188280000Y-251593667D03*
X187320000Y-251593667D03*
%TD*%
D20*
%TO.C,C408*%
X80550000Y-203020000D03*
X80550000Y-203980000D03*
%TD*%
D11*
%TO.C,C905*%
X92262500Y-206880000D03*
X92262500Y-205920000D03*
%TD*%
D54*
%TO.C,U903*%
X90737500Y-56750000D03*
X90737500Y-55800000D03*
X90737500Y-54850000D03*
X88462500Y-54850000D03*
X88462500Y-56750000D03*
%TD*%
D22*
%TO.C,C1006*%
X181920000Y-167693667D03*
X182880000Y-167693667D03*
%TD*%
D15*
%TO.C,R1628*%
X211600000Y-151603667D03*
X211600000Y-152623667D03*
%TD*%
D16*
%TO.C,C1008*%
X208680000Y-231393667D03*
X207720000Y-231393667D03*
%TD*%
D22*
%TO.C,C903*%
X97820000Y-154800000D03*
X98780000Y-154800000D03*
%TD*%
D16*
%TO.C,CB901*%
X77980000Y-155600000D03*
X77020000Y-155600000D03*
%TD*%
D49*
%TO.C,U701*%
X56280000Y-54380000D03*
X56280000Y-55220000D03*
X57120000Y-54380000D03*
X57120000Y-55220000D03*
D50*
X55237500Y-54050000D03*
X55237500Y-54550000D03*
X55237500Y-55050000D03*
X55237500Y-55550000D03*
D51*
X55950000Y-56262500D03*
X56450000Y-56262500D03*
X56950000Y-56262500D03*
X57450000Y-56262500D03*
D50*
X58162500Y-55550000D03*
X58162500Y-55050000D03*
X58162500Y-54550000D03*
X58162500Y-54050000D03*
D51*
X57450000Y-53337500D03*
X56950000Y-53337500D03*
X56450000Y-53337500D03*
X55950000Y-53337500D03*
%TD*%
D52*
%TO.C,R206*%
X55275000Y-153900000D03*
X56925000Y-153900000D03*
%TD*%
D15*
%TO.C,R703*%
X52700000Y-131290000D03*
X52700000Y-132310000D03*
%TD*%
D12*
%TO.C,R912*%
X100300000Y-151510000D03*
X100300000Y-150490000D03*
%TD*%
D22*
%TO.C,C1612*%
X205420000Y-231393667D03*
X206380000Y-231393667D03*
%TD*%
D16*
%TO.C,C405*%
X70480000Y-124000000D03*
X69520000Y-124000000D03*
%TD*%
D22*
%TO.C,C303*%
X141370000Y-141950000D03*
X142330000Y-141950000D03*
%TD*%
D16*
%TO.C,CB1404*%
X191080000Y-140093667D03*
X190120000Y-140093667D03*
%TD*%
%TO.C,C1503*%
X231430000Y-216043667D03*
X230470000Y-216043667D03*
%TD*%
%TO.C,C902*%
X77980000Y-156600000D03*
X77020000Y-156600000D03*
%TD*%
%TO.C,CB1202*%
X88680000Y-201950000D03*
X87720000Y-201950000D03*
%TD*%
D22*
%TO.C,C1006*%
X226920000Y-242693667D03*
X227880000Y-242693667D03*
%TD*%
%TO.C,C1603*%
X206720000Y-241493667D03*
X207680000Y-241493667D03*
%TD*%
D20*
%TO.C,CB1610*%
X253800000Y-218633667D03*
X253800000Y-219593667D03*
%TD*%
D16*
%TO.C,C1003*%
X188280000Y-176593667D03*
X187320000Y-176593667D03*
%TD*%
D21*
%TO.C,R1629*%
X209990000Y-230393667D03*
X211010000Y-230393667D03*
%TD*%
D15*
%TO.C,R1627*%
X256000000Y-232383667D03*
X256000000Y-233403667D03*
%TD*%
D12*
%TO.C,R1621*%
X256600000Y-150423667D03*
X256600000Y-149403667D03*
%TD*%
D16*
%TO.C,C1604*%
X254680000Y-91493667D03*
X253720000Y-91493667D03*
%TD*%
D29*
%TO.C,U1002*%
X228850000Y-174256167D03*
X227900000Y-174256167D03*
X226950000Y-174256167D03*
X226950000Y-176531167D03*
X228850000Y-176531167D03*
%TD*%
D16*
%TO.C,C402*%
X70480000Y-203000000D03*
X69520000Y-203000000D03*
%TD*%
D11*
%TO.C,CB1605*%
X248700000Y-225373667D03*
X248700000Y-224413667D03*
%TD*%
%TO.C,CB401*%
X77900000Y-60330000D03*
X77900000Y-59370000D03*
%TD*%
D42*
%TO.C,J207*%
X65075000Y-92850000D03*
X78925000Y-92900000D03*
D43*
X76375000Y-89900000D03*
X75125000Y-89900000D03*
X73875000Y-89900000D03*
D44*
X72625000Y-89900000D03*
X71375000Y-89900000D03*
X70125000Y-89900000D03*
D43*
X68875000Y-89900000D03*
D44*
X67625000Y-89900000D03*
%TD*%
D11*
%TO.C,C811*%
X64300000Y-141080000D03*
X64300000Y-140120000D03*
%TD*%
D21*
%TO.C,R1514*%
X254990000Y-221593667D03*
X256010000Y-221593667D03*
%TD*%
D15*
%TO.C,R1626*%
X209900000Y-157383667D03*
X209900000Y-158403667D03*
%TD*%
D20*
%TO.C,C907*%
X86800000Y-209520000D03*
X86800000Y-210480000D03*
%TD*%
%TO.C,CB101*%
X83300000Y-68020000D03*
X83300000Y-68980000D03*
%TD*%
%TO.C,C707*%
X53900000Y-53320000D03*
X53900000Y-54280000D03*
%TD*%
D21*
%TO.C,R304*%
X164690000Y-237200000D03*
X165710000Y-237200000D03*
%TD*%
D11*
%TO.C,CB1608*%
X252600000Y-83373667D03*
X252600000Y-82413667D03*
%TD*%
D27*
%TO.C,C1608*%
X212400000Y-71581167D03*
X212400000Y-73006167D03*
%TD*%
D84*
%TO.C,U1001*%
X181950000Y-239831167D03*
X182900000Y-239831167D03*
X183850000Y-239831167D03*
X183850000Y-237556167D03*
X181950000Y-237556167D03*
%TD*%
D34*
%TO.C,FB502*%
X49500000Y-56315000D03*
X49500000Y-57285000D03*
%TD*%
D16*
%TO.C,C1008*%
X253680000Y-231393667D03*
X252720000Y-231393667D03*
%TD*%
D17*
%TO.C,MK1402*%
X233800000Y-216773667D03*
D18*
X233730000Y-220183667D03*
X236270000Y-220183667D03*
D17*
X236200000Y-216773667D03*
X235000000Y-216773667D03*
%TD*%
%TO.C,MK1403*%
X193980000Y-77193667D03*
D18*
X197390000Y-77263667D03*
X197390000Y-74723667D03*
D17*
X193980000Y-74793667D03*
X193980000Y-75993667D03*
%TD*%
D71*
%TO.C,Y101*%
X72862400Y-233950000D03*
X75162400Y-233950000D03*
X75162400Y-232050000D03*
X72862400Y-232050000D03*
%TD*%
D15*
%TO.C,R1612*%
X236200000Y-161883667D03*
X236200000Y-162903667D03*
%TD*%
%TO.C,R501*%
X49500000Y-204290000D03*
X49500000Y-205310000D03*
%TD*%
D20*
%TO.C,C304*%
X147900000Y-153145000D03*
X147900000Y-154105000D03*
%TD*%
%TO.C,C707*%
X53900000Y-128320000D03*
X53900000Y-129280000D03*
%TD*%
D14*
%TO.C,FB302*%
X141885000Y-159500000D03*
X140915000Y-159500000D03*
%TD*%
D15*
%TO.C,R404*%
X77900000Y-132390000D03*
X77900000Y-133410000D03*
%TD*%
%TO.C,R708*%
X59500000Y-128290000D03*
X59500000Y-129310000D03*
%TD*%
D12*
%TO.C,R1616*%
X238450000Y-67053667D03*
X238450000Y-66033667D03*
%TD*%
D21*
%TO.C,R921*%
X90290000Y-58200000D03*
X91310000Y-58200000D03*
%TD*%
D16*
%TO.C,C104*%
X75480000Y-80600000D03*
X74520000Y-80600000D03*
%TD*%
D28*
%TO.C,FB501*%
X49500000Y-53285000D03*
X49500000Y-52315000D03*
%TD*%
D16*
%TO.C,C1604*%
X209680000Y-91493667D03*
X208720000Y-91493667D03*
%TD*%
D27*
%TO.C,C1614*%
X249000000Y-146581167D03*
X249000000Y-148006167D03*
%TD*%
D41*
%TO.C,SW101*%
X50950000Y-225400000D03*
X43200000Y-225400000D03*
%TD*%
D22*
%TO.C,C1005*%
X187320000Y-249193667D03*
X188280000Y-249193667D03*
%TD*%
D48*
%TO.C,C1609*%
X249000000Y-155406167D03*
X249000000Y-153981167D03*
%TD*%
D20*
%TO.C,C705*%
X57500000Y-57520000D03*
X57500000Y-58480000D03*
%TD*%
D16*
%TO.C,C302*%
X164480000Y-214400000D03*
X163520000Y-214400000D03*
%TD*%
D11*
%TO.C,CB1408*%
X187600000Y-227073667D03*
X187600000Y-226113667D03*
%TD*%
D12*
%TO.C,R810*%
X60700000Y-141110000D03*
X60700000Y-140090000D03*
%TD*%
D22*
%TO.C,C407*%
X75320000Y-56200000D03*
X76280000Y-56200000D03*
%TD*%
D11*
%TO.C,CB1606*%
X212700000Y-225393667D03*
X212700000Y-224433667D03*
%TD*%
D46*
%TO.C,C1601*%
X207250000Y-162893667D03*
X209150000Y-162893667D03*
%TD*%
D21*
%TO.C,R1514*%
X209990000Y-71593667D03*
X211010000Y-71593667D03*
%TD*%
D13*
%TO.C,R106*%
X73510000Y-230600000D03*
X72490000Y-230600000D03*
%TD*%
D19*
%TO.C,D305*%
X163000000Y-85612500D03*
X163000000Y-87187500D03*
%TD*%
D13*
%TO.C,R701*%
X51610000Y-57200000D03*
X50590000Y-57200000D03*
%TD*%
D12*
%TO.C,R1635*%
X249300000Y-157803667D03*
X249300000Y-156783667D03*
%TD*%
D16*
%TO.C,CB1404*%
X191080000Y-215093667D03*
X190120000Y-215093667D03*
%TD*%
D20*
%TO.C,C704*%
X52700000Y-54320000D03*
X52700000Y-55280000D03*
%TD*%
D12*
%TO.C,R1617*%
X209900000Y-219603667D03*
X209900000Y-218583667D03*
%TD*%
D17*
%TO.C,MK1406*%
X184150000Y-68723667D03*
D18*
X184080000Y-72133667D03*
X186620000Y-72133667D03*
D17*
X186550000Y-68723667D03*
X185350000Y-68723667D03*
%TD*%
D20*
%TO.C,CB1609*%
X252600000Y-143613667D03*
X252600000Y-144573667D03*
%TD*%
D11*
%TO.C,CB1608*%
X207600000Y-233373667D03*
X207600000Y-232413667D03*
%TD*%
D22*
%TO.C,C301*%
X163520000Y-66800000D03*
X164480000Y-66800000D03*
%TD*%
D12*
%TO.C,R1601*%
X207600000Y-86303667D03*
X207600000Y-85283667D03*
%TD*%
D84*
%TO.C,U1001*%
X226950000Y-239831167D03*
X227900000Y-239831167D03*
X228850000Y-239831167D03*
X228850000Y-237556167D03*
X226950000Y-237556167D03*
%TD*%
D13*
%TO.C,R702*%
X51610000Y-52400000D03*
X50590000Y-52400000D03*
%TD*%
D19*
%TO.C,D304*%
X167400000Y-160625000D03*
X167400000Y-162200000D03*
%TD*%
D12*
%TO.C,R804*%
X52700000Y-140110000D03*
X52700000Y-139090000D03*
%TD*%
D13*
%TO.C,R905*%
X95317800Y-98600000D03*
X94297800Y-98600000D03*
%TD*%
D61*
%TO.C,D903*%
X66212500Y-199200000D03*
X67787500Y-199200000D03*
%TD*%
D15*
%TO.C,R1*%
X59500000Y-78390000D03*
X59500000Y-79410000D03*
%TD*%
D72*
%TO.C,U901*%
X96774500Y-227411200D03*
X97614500Y-227411200D03*
X96774500Y-226571200D03*
X97614500Y-226571200D03*
D73*
X96444500Y-228453700D03*
X96944500Y-228453700D03*
X97444500Y-228453700D03*
X97944500Y-228453700D03*
D74*
X98657000Y-227741200D03*
X98657000Y-227241200D03*
X98657000Y-226741200D03*
X98657000Y-226241200D03*
D73*
X97944500Y-225528700D03*
X97444500Y-225528700D03*
X96944500Y-225528700D03*
X96444500Y-225528700D03*
D74*
X95732000Y-226241200D03*
X95732000Y-226741200D03*
X95732000Y-227241200D03*
X95732000Y-227741200D03*
%TD*%
D45*
%TO.C,FB303*%
X138030000Y-159500000D03*
X139000000Y-159500000D03*
%TD*%
D19*
%TO.C,D305*%
X163000000Y-235612500D03*
X163000000Y-237187500D03*
%TD*%
D15*
%TO.C,R1*%
X59500000Y-228390000D03*
X59500000Y-229410000D03*
%TD*%
D20*
%TO.C,C1607*%
X211000000Y-87313667D03*
X211000000Y-88273667D03*
%TD*%
D27*
%TO.C,C1614*%
X204000000Y-221581167D03*
X204000000Y-223006167D03*
%TD*%
D20*
%TO.C,CB1603*%
X212700000Y-76633667D03*
X212700000Y-77593667D03*
%TD*%
D47*
%TO.C,C803*%
X51100000Y-65650000D03*
X51100000Y-67550000D03*
%TD*%
D16*
%TO.C,C1101*%
X239880000Y-248593667D03*
X238920000Y-248593667D03*
%TD*%
D11*
%TO.C,CB1605*%
X203700000Y-225373667D03*
X203700000Y-224413667D03*
%TD*%
D15*
%TO.C,R1612*%
X191200000Y-236883667D03*
X191200000Y-237903667D03*
%TD*%
D67*
%TO.C,F901*%
X97325000Y-73900000D03*
X99075000Y-73900000D03*
%TD*%
D22*
%TO.C,CB1401*%
X193570000Y-84993667D03*
X194530000Y-84993667D03*
%TD*%
D15*
%TO.C,R1002*%
X226700000Y-181083667D03*
X226700000Y-182103667D03*
%TD*%
D16*
%TO.C,C802*%
X51580000Y-213000000D03*
X50620000Y-213000000D03*
%TD*%
%TO.C,C1007*%
X228880000Y-171393667D03*
X227920000Y-171393667D03*
%TD*%
%TO.C,CB1406*%
X240730000Y-67043667D03*
X239770000Y-67043667D03*
%TD*%
D15*
%TO.C,R920*%
X86800000Y-211490000D03*
X86800000Y-212510000D03*
%TD*%
D53*
%TO.C,D102*%
X57200000Y-172525000D03*
X57200000Y-174275000D03*
%TD*%
D16*
%TO.C,CB1602*%
X205480000Y-95213667D03*
X204520000Y-95213667D03*
%TD*%
D22*
%TO.C,C403*%
X75320000Y-132200000D03*
X76280000Y-132200000D03*
%TD*%
D15*
%TO.C,R1625*%
X249300000Y-144183667D03*
X249300000Y-145203667D03*
%TD*%
D23*
%TO.C,Y102*%
X70012400Y-158500000D03*
X70012400Y-156000000D03*
%TD*%
D22*
%TO.C,CB1401*%
X193570000Y-159993667D03*
X194530000Y-159993667D03*
%TD*%
D20*
%TO.C,C907*%
X86800000Y-134520000D03*
X86800000Y-135480000D03*
%TD*%
D15*
%TO.C,R1633*%
X249800000Y-76583667D03*
X249800000Y-77603667D03*
%TD*%
D52*
%TO.C,R210*%
X95175000Y-131300000D03*
X96825000Y-131300000D03*
%TD*%
%TO.C,R208*%
X95175000Y-57900000D03*
X96825000Y-57900000D03*
%TD*%
D16*
%TO.C,C902*%
X77980000Y-231600000D03*
X77020000Y-231600000D03*
%TD*%
D19*
%TO.C,D303*%
X167400000Y-238825000D03*
X167400000Y-240400000D03*
%TD*%
%TO.C,D1001*%
X228120000Y-105788667D03*
X228120000Y-107363667D03*
%TD*%
D22*
%TO.C,C415*%
X71920000Y-208200000D03*
X72880000Y-208200000D03*
%TD*%
D15*
%TO.C,R1631*%
X251500000Y-232383667D03*
X251500000Y-233403667D03*
%TD*%
D30*
%TO.C,U1701*%
X208620000Y-93973667D03*
X207780000Y-93973667D03*
X208620000Y-94813667D03*
X207780000Y-94813667D03*
D31*
X208950000Y-92931167D03*
X208450000Y-92931167D03*
X207950000Y-92931167D03*
X207450000Y-92931167D03*
D32*
X206737500Y-93643667D03*
X206737500Y-94143667D03*
X206737500Y-94643667D03*
X206737500Y-95143667D03*
D31*
X207450000Y-95856167D03*
X207950000Y-95856167D03*
X208450000Y-95856167D03*
X208950000Y-95856167D03*
D32*
X209662500Y-95143667D03*
X209662500Y-94643667D03*
X209662500Y-94143667D03*
X209662500Y-93643667D03*
%TD*%
D21*
%TO.C,R410*%
X80490000Y-199050000D03*
X81510000Y-199050000D03*
%TD*%
D17*
%TO.C,MK1408*%
X238450000Y-68723667D03*
D18*
X238380000Y-72133667D03*
X240920000Y-72133667D03*
D17*
X240850000Y-68723667D03*
X239650000Y-68723667D03*
%TD*%
D22*
%TO.C,C1102*%
X238920000Y-177193667D03*
X239880000Y-177193667D03*
%TD*%
D12*
%TO.C,R1630*%
X212100000Y-157803667D03*
X212100000Y-156783667D03*
%TD*%
D45*
%TO.C,FB903*%
X93215000Y-224000000D03*
X94185000Y-224000000D03*
%TD*%
D16*
%TO.C,C410*%
X72880000Y-131200000D03*
X71920000Y-131200000D03*
%TD*%
D22*
%TO.C,C1001*%
X226920000Y-160893667D03*
X227880000Y-160893667D03*
%TD*%
D17*
%TO.C,MK1403*%
X193980000Y-227193667D03*
D18*
X197390000Y-227263667D03*
X197390000Y-224723667D03*
D17*
X193980000Y-224793667D03*
X193980000Y-225993667D03*
%TD*%
D20*
%TO.C,C705*%
X57500000Y-207520000D03*
X57500000Y-208480000D03*
%TD*%
D85*
%TO.C,U402*%
X70650000Y-130500000D03*
X70000000Y-130500000D03*
X69350000Y-130500000D03*
X69350000Y-132700000D03*
X70650000Y-132700000D03*
%TD*%
D20*
%TO.C,CB1003*%
X251500000Y-85313667D03*
X251500000Y-86273667D03*
%TD*%
D12*
%TO.C,R401*%
X68000000Y-56110000D03*
X68000000Y-55090000D03*
%TD*%
%TO.C,R922*%
X92300000Y-210710000D03*
X92300000Y-209690000D03*
%TD*%
D21*
%TO.C,R204*%
X61490000Y-85600000D03*
X62510000Y-85600000D03*
%TD*%
D12*
%TO.C,R1605*%
X205400000Y-240403667D03*
X205400000Y-239383667D03*
%TD*%
D45*
%TO.C,FB903*%
X93215000Y-74000000D03*
X94185000Y-74000000D03*
%TD*%
D15*
%TO.C,R1612*%
X191200000Y-86883667D03*
X191200000Y-87903667D03*
%TD*%
D47*
%TO.C,C703*%
X51100000Y-53850000D03*
X51100000Y-55750000D03*
%TD*%
D12*
%TO.C,R704*%
X52700000Y-128310000D03*
X52700000Y-127290000D03*
%TD*%
D49*
%TO.C,U801*%
X56280000Y-216180000D03*
X56280000Y-217020000D03*
X57120000Y-216180000D03*
X57120000Y-217020000D03*
D50*
X55237500Y-215850000D03*
X55237500Y-216350000D03*
X55237500Y-216850000D03*
X55237500Y-217350000D03*
D51*
X55950000Y-218062500D03*
X56450000Y-218062500D03*
X56950000Y-218062500D03*
X57450000Y-218062500D03*
D50*
X58162500Y-217350000D03*
X58162500Y-216850000D03*
X58162500Y-216350000D03*
X58162500Y-215850000D03*
D51*
X57450000Y-215137500D03*
X56950000Y-215137500D03*
X56450000Y-215137500D03*
X55950000Y-215137500D03*
%TD*%
D16*
%TO.C,CB201*%
X62480000Y-232200000D03*
X61520000Y-232200000D03*
%TD*%
D22*
%TO.C,C1001*%
X181920000Y-235893667D03*
X182880000Y-235893667D03*
%TD*%
D12*
%TO.C,R1603*%
X206500000Y-90403667D03*
X206500000Y-89383667D03*
%TD*%
D13*
%TO.C,R705*%
X53610000Y-133400000D03*
X52590000Y-133400000D03*
%TD*%
D15*
%TO.C,R709*%
X60700000Y-55290000D03*
X60700000Y-56310000D03*
%TD*%
D20*
%TO.C,C103*%
X67200000Y-77320000D03*
X67200000Y-78280000D03*
%TD*%
D52*
%TO.C,R209*%
X91375000Y-65800000D03*
X93025000Y-65800000D03*
%TD*%
D56*
%TO.C,J501*%
X44450000Y-125175000D03*
X44400000Y-134025000D03*
D57*
X47400000Y-131475000D03*
D58*
X47400000Y-130225000D03*
X47400000Y-128975000D03*
X47400000Y-127725000D03*
%TD*%
D20*
%TO.C,C807*%
X53900000Y-215120000D03*
X53900000Y-216080000D03*
%TD*%
%TO.C,C413*%
X75350000Y-209370000D03*
X75350000Y-210330000D03*
%TD*%
D12*
%TO.C,R1611*%
X233800000Y-140103667D03*
X233800000Y-139083667D03*
%TD*%
D61*
%TO.C,D903*%
X66212500Y-124200000D03*
X67787500Y-124200000D03*
%TD*%
D16*
%TO.C,C904*%
X94180000Y-148000000D03*
X93220000Y-148000000D03*
%TD*%
D20*
%TO.C,CB1604*%
X248700000Y-151613667D03*
X248700000Y-152573667D03*
%TD*%
D13*
%TO.C,R806*%
X53610000Y-138000000D03*
X52590000Y-138000000D03*
%TD*%
D22*
%TO.C,CB1301*%
X83920000Y-227900000D03*
X84880000Y-227900000D03*
%TD*%
%TO.C,C417*%
X49120000Y-49800000D03*
X50080000Y-49800000D03*
%TD*%
%TO.C,C404*%
X69970000Y-134200000D03*
X70930000Y-134200000D03*
%TD*%
D13*
%TO.C,R1624*%
X206410000Y-146593667D03*
X205390000Y-146593667D03*
%TD*%
%TO.C,R302*%
X165710000Y-163800000D03*
X164690000Y-163800000D03*
%TD*%
%TO.C,R411*%
X81510000Y-52050000D03*
X80490000Y-52050000D03*
%TD*%
%TO.C,R802*%
X51610000Y-139200000D03*
X50590000Y-139200000D03*
%TD*%
D15*
%TO.C,R1613*%
X195850000Y-84983667D03*
X195850000Y-86003667D03*
%TD*%
D12*
%TO.C,R103*%
X57200000Y-252225000D03*
X57200000Y-251205000D03*
%TD*%
D16*
%TO.C,C1004*%
X208680000Y-230393667D03*
X207720000Y-230393667D03*
%TD*%
D21*
%TO.C,R203*%
X61490000Y-236800000D03*
X62510000Y-236800000D03*
%TD*%
D22*
%TO.C,CB1001*%
X226920000Y-241493667D03*
X227880000Y-241493667D03*
%TD*%
D12*
%TO.C,R1630*%
X212100000Y-82803667D03*
X212100000Y-81783667D03*
%TD*%
D22*
%TO.C,C1402*%
X193570000Y-160993667D03*
X194530000Y-160993667D03*
%TD*%
D12*
%TO.C,R707*%
X59500000Y-206310000D03*
X59500000Y-205290000D03*
%TD*%
D86*
%TO.C,R916*%
X87525000Y-229300000D03*
X85875000Y-229300000D03*
%TD*%
D64*
%TO.C,J302*%
X164025000Y-82950000D03*
X164075000Y-69100000D03*
D58*
X161075000Y-71650000D03*
X161075000Y-72900000D03*
X161075000Y-74150000D03*
D57*
X161075000Y-75400000D03*
X161075000Y-76650000D03*
X161075000Y-77900000D03*
D58*
X161075000Y-79150000D03*
D57*
X161075000Y-80400000D03*
%TD*%
D16*
%TO.C,C1505*%
X191080000Y-214093667D03*
X190120000Y-214093667D03*
%TD*%
D19*
%TO.C,D304*%
X167400000Y-85625000D03*
X167400000Y-87200000D03*
%TD*%
D22*
%TO.C,CB1401*%
X238570000Y-234993667D03*
X239530000Y-234993667D03*
%TD*%
D16*
%TO.C,C1611*%
X255980000Y-81393667D03*
X255020000Y-81393667D03*
%TD*%
D11*
%TO.C,CB1605*%
X203700000Y-75373667D03*
X203700000Y-74413667D03*
%TD*%
D17*
%TO.C,MK1405*%
X195850000Y-83263667D03*
D18*
X195920000Y-79853667D03*
X193380000Y-79853667D03*
D17*
X193450000Y-83263667D03*
X194650000Y-83263667D03*
%TD*%
D20*
%TO.C,C1606*%
X205400000Y-162313667D03*
X205400000Y-163273667D03*
%TD*%
D75*
%TO.C,SW901*%
X100200000Y-101400000D03*
X100200000Y-99400000D03*
X100200000Y-95400000D03*
X100200000Y-93400000D03*
X97400000Y-101400000D03*
X97400000Y-99400000D03*
X97400000Y-95400000D03*
X97400000Y-93400000D03*
%TD*%
D12*
%TO.C,R102*%
X59600000Y-252225000D03*
X59600000Y-251205000D03*
%TD*%
D21*
%TO.C,R407*%
X83490000Y-125050000D03*
X84510000Y-125050000D03*
%TD*%
D12*
%TO.C,R903*%
X95300000Y-147110000D03*
X95300000Y-146090000D03*
%TD*%
D87*
%TO.C,C1201*%
X86200000Y-50517500D03*
X86200000Y-49382500D03*
%TD*%
D45*
%TO.C,FB1102*%
X193915000Y-175993667D03*
X194885000Y-175993667D03*
%TD*%
D41*
%TO.C,SW102*%
X53400000Y-150400000D03*
X61150000Y-150400000D03*
%TD*%
D88*
%TO.C,U1601*%
X255150000Y-148193667D03*
X254500000Y-148193667D03*
X253850000Y-148193667D03*
X253200000Y-148193667D03*
X252550000Y-148193667D03*
X251900000Y-148193667D03*
X251250000Y-148193667D03*
X251250000Y-153793667D03*
X251900000Y-153793667D03*
X252550000Y-153793667D03*
X253200000Y-153793667D03*
X253850000Y-153793667D03*
X254500000Y-153793667D03*
X255150000Y-153793667D03*
%TD*%
D16*
%TO.C,C1604*%
X254680000Y-166493667D03*
X253720000Y-166493667D03*
%TD*%
D47*
%TO.C,C703*%
X51100000Y-128850000D03*
X51100000Y-130750000D03*
%TD*%
D13*
%TO.C,R1401*%
X64810000Y-82100000D03*
X63790000Y-82100000D03*
%TD*%
D16*
%TO.C,C1502*%
X210980000Y-220593667D03*
X210020000Y-220593667D03*
%TD*%
D15*
%TO.C,R803*%
X52700000Y-68090000D03*
X52700000Y-69110000D03*
%TD*%
D16*
%TO.C,CB1406*%
X195730000Y-67043667D03*
X194770000Y-67043667D03*
%TD*%
D21*
%TO.C,R911*%
X94290000Y-171200000D03*
X95310000Y-171200000D03*
%TD*%
D33*
%TO.C,C710*%
X62500000Y-56275000D03*
X62500000Y-53325000D03*
%TD*%
D12*
%TO.C,R402*%
X68000000Y-133110000D03*
X68000000Y-132090000D03*
%TD*%
D16*
%TO.C,C901*%
X77980000Y-83600000D03*
X77020000Y-83600000D03*
%TD*%
D17*
%TO.C,MK1401*%
X191200000Y-160213667D03*
D18*
X191270000Y-156803667D03*
X188730000Y-156803667D03*
D17*
X188800000Y-160213667D03*
X190000000Y-160213667D03*
%TD*%
D42*
%TO.C,J205*%
X65075000Y-250350000D03*
X78925000Y-250400000D03*
D43*
X76375000Y-247400000D03*
X75125000Y-247400000D03*
X73875000Y-247400000D03*
D44*
X72625000Y-247400000D03*
X71375000Y-247400000D03*
X70125000Y-247400000D03*
D43*
X68875000Y-247400000D03*
D44*
X67625000Y-247400000D03*
%TD*%
D11*
%TO.C,CB1606*%
X212700000Y-75393667D03*
X212700000Y-74433667D03*
%TD*%
D20*
%TO.C,CB1003*%
X251500000Y-235313667D03*
X251500000Y-236273667D03*
%TD*%
%TO.C,CB1407*%
X237300000Y-224913667D03*
X237300000Y-225873667D03*
%TD*%
D19*
%TO.C,D302*%
X163000000Y-163812500D03*
X163000000Y-165387500D03*
%TD*%
D12*
%TO.C,R1614*%
X229150000Y-217053667D03*
X229150000Y-216033667D03*
%TD*%
D15*
%TO.C,R808*%
X59500000Y-140090000D03*
X59500000Y-141110000D03*
%TD*%
D11*
%TO.C,CB103*%
X67212400Y-76130000D03*
X67212400Y-75170000D03*
%TD*%
D15*
%TO.C,R1612*%
X191200000Y-161883667D03*
X191200000Y-162903667D03*
%TD*%
D16*
%TO.C,C1002*%
X228880000Y-253193667D03*
X227920000Y-253193667D03*
%TD*%
D55*
%TO.C,U904*%
X88462500Y-134650000D03*
X88462500Y-135600000D03*
X88462500Y-136550000D03*
X90737500Y-136550000D03*
X90737500Y-135600000D03*
X90737500Y-134650000D03*
%TD*%
D20*
%TO.C,C101*%
X83300000Y-220020000D03*
X83300000Y-220980000D03*
%TD*%
D12*
%TO.C,R704*%
X52700000Y-53310000D03*
X52700000Y-52290000D03*
%TD*%
D22*
%TO.C,CB1001*%
X181920000Y-166493667D03*
X182880000Y-166493667D03*
%TD*%
D15*
%TO.C,R1632*%
X205400000Y-157383667D03*
X205400000Y-158403667D03*
%TD*%
D11*
%TO.C,CB1608*%
X207600000Y-83373667D03*
X207600000Y-82413667D03*
%TD*%
D22*
%TO.C,C1102*%
X238920000Y-102193667D03*
X239880000Y-102193667D03*
%TD*%
D11*
%TO.C,CB1607*%
X253800000Y-83373667D03*
X253800000Y-82413667D03*
%TD*%
D21*
%TO.C,R1609*%
X187590000Y-149793667D03*
X188610000Y-149793667D03*
%TD*%
D20*
%TO.C,C1606*%
X205400000Y-87313667D03*
X205400000Y-88273667D03*
%TD*%
D11*
%TO.C,CB103*%
X67212400Y-151130000D03*
X67212400Y-150170000D03*
%TD*%
D15*
%TO.C,R708*%
X59500000Y-53290000D03*
X59500000Y-54310000D03*
%TD*%
D22*
%TO.C,C1610*%
X205420000Y-220593667D03*
X206380000Y-220593667D03*
%TD*%
D45*
%TO.C,FB1102*%
X238915000Y-100993667D03*
X239885000Y-100993667D03*
%TD*%
D42*
%TO.C,J205*%
X65075000Y-100350000D03*
X78925000Y-100400000D03*
D43*
X76375000Y-97400000D03*
X75125000Y-97400000D03*
X73875000Y-97400000D03*
D44*
X72625000Y-97400000D03*
X71375000Y-97400000D03*
X70125000Y-97400000D03*
D43*
X68875000Y-97400000D03*
D44*
X67625000Y-97400000D03*
%TD*%
D15*
%TO.C,R1613*%
X195850000Y-234983667D03*
X195850000Y-236003667D03*
%TD*%
D48*
%TO.C,C1613*%
X212400000Y-155406167D03*
X212400000Y-153981167D03*
%TD*%
D15*
%TO.C,R1625*%
X204300000Y-69183667D03*
X204300000Y-70203667D03*
%TD*%
D56*
%TO.C,J501*%
X44450000Y-50175000D03*
X44400000Y-59025000D03*
D57*
X47400000Y-56475000D03*
D58*
X47400000Y-55225000D03*
X47400000Y-53975000D03*
X47400000Y-52725000D03*
%TD*%
D21*
%TO.C,C1602*%
X252690000Y-89893667D03*
X253710000Y-89893667D03*
%TD*%
D16*
%TO.C,C1507*%
X240730000Y-66043667D03*
X239770000Y-66043667D03*
%TD*%
D45*
%TO.C,FB1102*%
X193915000Y-250993667D03*
X194885000Y-250993667D03*
%TD*%
%TO.C,FB305*%
X158415000Y-151650000D03*
X159385000Y-151650000D03*
%TD*%
D20*
%TO.C,C804*%
X52700000Y-216120000D03*
X52700000Y-217080000D03*
%TD*%
D16*
%TO.C,C1007*%
X228880000Y-246393667D03*
X227920000Y-246393667D03*
%TD*%
D12*
%TO.C,R401*%
X68000000Y-131110000D03*
X68000000Y-130090000D03*
%TD*%
%TO.C,R1602*%
X208900000Y-236303667D03*
X208900000Y-235283667D03*
%TD*%
D16*
%TO.C,C1007*%
X183880000Y-96393667D03*
X182920000Y-96393667D03*
%TD*%
D22*
%TO.C,C1001*%
X226920000Y-85893667D03*
X227880000Y-85893667D03*
%TD*%
D12*
%TO.C,R1001*%
X183900000Y-167603667D03*
X183900000Y-166583667D03*
%TD*%
D89*
%TO.C,J206*%
X95650000Y-67050000D03*
X95650000Y-66300000D03*
D90*
X95650000Y-65700000D03*
X95650000Y-64200000D03*
X95650000Y-63200000D03*
X95650000Y-62200000D03*
D89*
X95650000Y-61600000D03*
D91*
X95650000Y-60850000D03*
D89*
X95650000Y-60850000D03*
X95650000Y-61600000D03*
D90*
X95650000Y-62700000D03*
X95650000Y-63700000D03*
X95650000Y-64700000D03*
X95650000Y-65200000D03*
D89*
X95650000Y-66300000D03*
X95650000Y-67050000D03*
%TD*%
D12*
%TO.C,R1601*%
X207600000Y-161303667D03*
X207600000Y-160283667D03*
%TD*%
%TO.C,R902*%
X95300000Y-224055200D03*
X95300000Y-223035200D03*
%TD*%
D15*
%TO.C,R920*%
X86800000Y-136490000D03*
X86800000Y-137510000D03*
%TD*%
D12*
%TO.C,R1621*%
X211600000Y-225423667D03*
X211600000Y-224403667D03*
%TD*%
D16*
%TO.C,C402*%
X70480000Y-128000000D03*
X69520000Y-128000000D03*
%TD*%
D21*
%TO.C,R1629*%
X254990000Y-230393667D03*
X256010000Y-230393667D03*
%TD*%
D12*
%TO.C,R414*%
X76400000Y-135360000D03*
X76400000Y-134340000D03*
%TD*%
D62*
%TO.C,X401*%
X81200000Y-60000000D03*
X81200000Y-57700000D03*
D63*
X79300000Y-57700000D03*
X79300000Y-60000000D03*
%TD*%
D15*
%TO.C,R1615*%
X186550000Y-234933667D03*
X186550000Y-235953667D03*
%TD*%
D12*
%TO.C,R1618*%
X211000000Y-219603667D03*
X211000000Y-218583667D03*
%TD*%
D20*
%TO.C,CB106*%
X68600000Y-77320000D03*
X68600000Y-78280000D03*
%TD*%
D13*
%TO.C,R906*%
X94210000Y-77100000D03*
X93190000Y-77100000D03*
%TD*%
D20*
%TO.C,C907*%
X86800000Y-59520000D03*
X86800000Y-60480000D03*
%TD*%
D11*
%TO.C,CB102*%
X53900000Y-229380000D03*
X53900000Y-228420000D03*
%TD*%
D15*
%TO.C,R501*%
X49500000Y-54290000D03*
X49500000Y-55310000D03*
%TD*%
D13*
%TO.C,R303*%
X165710000Y-90400000D03*
X164690000Y-90400000D03*
%TD*%
D16*
%TO.C,C912*%
X88880000Y-58200000D03*
X87920000Y-58200000D03*
%TD*%
%TO.C,C1004*%
X253680000Y-80393667D03*
X252720000Y-80393667D03*
%TD*%
D21*
%TO.C,R1403*%
X63790000Y-164200000D03*
X64810000Y-164200000D03*
%TD*%
D16*
%TO.C,CB201*%
X62480000Y-82200000D03*
X61520000Y-82200000D03*
%TD*%
D21*
%TO.C,R412*%
X80490000Y-200050000D03*
X81510000Y-200050000D03*
%TD*%
D16*
%TO.C,CB904*%
X92880000Y-246200000D03*
X91920000Y-246200000D03*
%TD*%
D15*
%TO.C,R1101*%
X237800000Y-249883667D03*
X237800000Y-250903667D03*
%TD*%
D21*
%TO.C,C1602*%
X207690000Y-89893667D03*
X208710000Y-89893667D03*
%TD*%
D92*
%TO.C,D301*%
X139000000Y-140450000D03*
X137600000Y-140450000D03*
%TD*%
D13*
%TO.C,R303*%
X165710000Y-165400000D03*
X164690000Y-165400000D03*
%TD*%
D16*
%TO.C,C1008*%
X253680000Y-81393667D03*
X252720000Y-81393667D03*
%TD*%
D93*
%TO.C,U101*%
X71450000Y-152717200D03*
X71950000Y-152717200D03*
X72450000Y-152717200D03*
X72950000Y-152717200D03*
X73450000Y-152717200D03*
X73950000Y-152717200D03*
X74450000Y-152717200D03*
X74950000Y-152717200D03*
X75450000Y-152717200D03*
X75950000Y-152717200D03*
X76450000Y-152717200D03*
X76950000Y-152717200D03*
X77450000Y-152717200D03*
X77950000Y-152717200D03*
X78450000Y-152717200D03*
X78950000Y-152717200D03*
D94*
X80875000Y-150792200D03*
X80875000Y-150292200D03*
X80875000Y-149792200D03*
X80875000Y-149292200D03*
X80875000Y-148792200D03*
X80875000Y-148292200D03*
X80875000Y-147792200D03*
X80875000Y-147292200D03*
X80875000Y-146792200D03*
X80875000Y-146292200D03*
X80875000Y-145792200D03*
X80875000Y-145292200D03*
X80875000Y-144792200D03*
X80875000Y-144292200D03*
X80875000Y-143792200D03*
X80875000Y-143292200D03*
D93*
X78950000Y-141367200D03*
X78450000Y-141367200D03*
X77950000Y-141367200D03*
X77450000Y-141367200D03*
X76950000Y-141367200D03*
X76450000Y-141367200D03*
X75950000Y-141367200D03*
X75450000Y-141367200D03*
X74950000Y-141367200D03*
X74450000Y-141367200D03*
X73950000Y-141367200D03*
X73450000Y-141367200D03*
X72950000Y-141367200D03*
X72450000Y-141367200D03*
X71950000Y-141367200D03*
X71450000Y-141367200D03*
D94*
X69525000Y-143292200D03*
X69525000Y-143792200D03*
X69525000Y-144292200D03*
X69525000Y-144792200D03*
X69525000Y-145292200D03*
X69525000Y-145792200D03*
X69525000Y-146292200D03*
X69525000Y-146792200D03*
X69525000Y-147292200D03*
X69525000Y-147792200D03*
X69525000Y-148292200D03*
X69525000Y-148792200D03*
X69525000Y-149292200D03*
X69525000Y-149792200D03*
X69525000Y-150292200D03*
X69525000Y-150792200D03*
%TD*%
D15*
%TO.C,R809*%
X60700000Y-142090000D03*
X60700000Y-143110000D03*
%TD*%
D16*
%TO.C,C1503*%
X231430000Y-66043667D03*
X230470000Y-66043667D03*
%TD*%
%TO.C,C1502*%
X255980000Y-70593667D03*
X255020000Y-70593667D03*
%TD*%
D52*
%TO.C,R208*%
X95175000Y-207900000D03*
X96825000Y-207900000D03*
%TD*%
D22*
%TO.C,C102*%
X72532400Y-85400000D03*
X73492400Y-85400000D03*
%TD*%
D15*
%TO.C,R1626*%
X254900000Y-157383667D03*
X254900000Y-158403667D03*
%TD*%
D22*
%TO.C,C414*%
X75320000Y-133300000D03*
X76280000Y-133300000D03*
%TD*%
D61*
%TO.C,D104*%
X85412500Y-145400000D03*
X86987500Y-145400000D03*
%TD*%
D64*
%TO.C,J302*%
X164025000Y-232950000D03*
X164075000Y-219100000D03*
D58*
X161075000Y-221650000D03*
X161075000Y-222900000D03*
X161075000Y-224150000D03*
D57*
X161075000Y-225400000D03*
X161075000Y-226650000D03*
X161075000Y-227900000D03*
D58*
X161075000Y-229150000D03*
D57*
X161075000Y-230400000D03*
%TD*%
D16*
%TO.C,C205*%
X76280000Y-238200000D03*
X75320000Y-238200000D03*
%TD*%
D48*
%TO.C,C1609*%
X249000000Y-230406167D03*
X249000000Y-228981167D03*
%TD*%
D15*
%TO.C,R901*%
X93300000Y-78800000D03*
X93300000Y-79820000D03*
%TD*%
D21*
%TO.C,R408*%
X83490000Y-49050000D03*
X84510000Y-49050000D03*
%TD*%
D20*
%TO.C,CB1610*%
X208800000Y-143633667D03*
X208800000Y-144593667D03*
%TD*%
D16*
%TO.C,CB1404*%
X236080000Y-140093667D03*
X235120000Y-140093667D03*
%TD*%
D48*
%TO.C,C1609*%
X204000000Y-155406167D03*
X204000000Y-153981167D03*
%TD*%
D11*
%TO.C,CB1607*%
X253800000Y-158373667D03*
X253800000Y-157413667D03*
%TD*%
D45*
%TO.C,FB1102*%
X238915000Y-250993667D03*
X239885000Y-250993667D03*
%TD*%
D53*
%TO.C,D101*%
X59600000Y-172525000D03*
X59600000Y-174275000D03*
%TD*%
D17*
%TO.C,MK1408*%
X238450000Y-218723667D03*
D18*
X238380000Y-222133667D03*
X240920000Y-222133667D03*
D17*
X240850000Y-218723667D03*
X239650000Y-218723667D03*
%TD*%
D22*
%TO.C,C1610*%
X250420000Y-220593667D03*
X251380000Y-220593667D03*
%TD*%
D20*
%TO.C,C1508*%
X236300000Y-149913667D03*
X236300000Y-150873667D03*
%TD*%
D11*
%TO.C,CB1605*%
X203700000Y-150373667D03*
X203700000Y-149413667D03*
%TD*%
D16*
%TO.C,C1611*%
X210980000Y-156393667D03*
X210020000Y-156393667D03*
%TD*%
D52*
%TO.C,R211*%
X98975000Y-132900000D03*
X100625000Y-132900000D03*
%TD*%
D20*
%TO.C,CB1604*%
X203700000Y-76613667D03*
X203700000Y-77573667D03*
%TD*%
D22*
%TO.C,CB907*%
X87920000Y-155700000D03*
X88880000Y-155700000D03*
%TD*%
D88*
%TO.C,U1601*%
X255150000Y-223193667D03*
X254500000Y-223193667D03*
X253850000Y-223193667D03*
X253200000Y-223193667D03*
X252550000Y-223193667D03*
X251900000Y-223193667D03*
X251250000Y-223193667D03*
X251250000Y-228793667D03*
X251900000Y-228793667D03*
X252550000Y-228793667D03*
X253200000Y-228793667D03*
X253850000Y-228793667D03*
X254500000Y-228793667D03*
X255150000Y-228793667D03*
%TD*%
D11*
%TO.C,C909*%
X84600000Y-234480000D03*
X84600000Y-233520000D03*
%TD*%
D33*
%TO.C,C810*%
X62500000Y-68075000D03*
X62500000Y-65125000D03*
%TD*%
D16*
%TO.C,C801*%
X51580000Y-70200000D03*
X50620000Y-70200000D03*
%TD*%
D40*
%TO.C,D901*%
X95195300Y-100600000D03*
X93620300Y-100600000D03*
%TD*%
D12*
%TO.C,R1605*%
X205400000Y-90403667D03*
X205400000Y-89383667D03*
%TD*%
D16*
%TO.C,C1003*%
X233280000Y-101593667D03*
X232320000Y-101593667D03*
%TD*%
D15*
%TO.C,R1002*%
X226700000Y-106083667D03*
X226700000Y-107103667D03*
%TD*%
D16*
%TO.C,C1008*%
X208680000Y-81393667D03*
X207720000Y-81393667D03*
%TD*%
D13*
%TO.C,R1608*%
X254710000Y-97293667D03*
X253690000Y-97293667D03*
%TD*%
D21*
%TO.C,R1514*%
X209990000Y-146593667D03*
X211010000Y-146593667D03*
%TD*%
D16*
%TO.C,C1003*%
X188280000Y-101593667D03*
X187320000Y-101593667D03*
%TD*%
D20*
%TO.C,CB1610*%
X208800000Y-68633667D03*
X208800000Y-69593667D03*
%TD*%
D28*
%TO.C,FB101*%
X80800000Y-167885000D03*
X80800000Y-166915000D03*
%TD*%
D13*
%TO.C,R411*%
X81510000Y-127050000D03*
X80490000Y-127050000D03*
%TD*%
D22*
%TO.C,CB1405*%
X188920000Y-161893667D03*
X189880000Y-161893667D03*
%TD*%
D70*
%TO.C,D105*%
X85200000Y-215550000D03*
X85200000Y-216850000D03*
X87200000Y-216850000D03*
X87200000Y-215550000D03*
%TD*%
D30*
%TO.C,U1701*%
X253620000Y-243973667D03*
X252780000Y-243973667D03*
X253620000Y-244813667D03*
X252780000Y-244813667D03*
D31*
X253950000Y-242931167D03*
X253450000Y-242931167D03*
X252950000Y-242931167D03*
X252450000Y-242931167D03*
D32*
X251737500Y-243643667D03*
X251737500Y-244143667D03*
X251737500Y-244643667D03*
X251737500Y-245143667D03*
D31*
X252450000Y-245856167D03*
X252950000Y-245856167D03*
X253450000Y-245856167D03*
X253950000Y-245856167D03*
D32*
X254662500Y-245143667D03*
X254662500Y-244643667D03*
X254662500Y-244143667D03*
X254662500Y-243643667D03*
%TD*%
D15*
%TO.C,R404*%
X77900000Y-207390000D03*
X77900000Y-208410000D03*
%TD*%
D20*
%TO.C,CB106*%
X68600000Y-152320000D03*
X68600000Y-153280000D03*
%TD*%
D11*
%TO.C,CB906*%
X92200000Y-168980000D03*
X92200000Y-168020000D03*
%TD*%
D12*
%TO.C,R1001*%
X228900000Y-92603667D03*
X228900000Y-91583667D03*
%TD*%
D22*
%TO.C,C415*%
X71920000Y-133200000D03*
X72880000Y-133200000D03*
%TD*%
D16*
%TO.C,C1008*%
X253680000Y-156393667D03*
X252720000Y-156393667D03*
%TD*%
%TO.C,C1502*%
X210980000Y-70593667D03*
X210020000Y-70593667D03*
%TD*%
D22*
%TO.C,C1603*%
X251720000Y-91493667D03*
X252680000Y-91493667D03*
%TD*%
D12*
%TO.C,R1617*%
X209900000Y-144603667D03*
X209900000Y-143583667D03*
%TD*%
D84*
%TO.C,U1001*%
X181950000Y-89831167D03*
X182900000Y-89831167D03*
X183850000Y-89831167D03*
X183850000Y-87556167D03*
X181950000Y-87556167D03*
%TD*%
D70*
%TO.C,D105*%
X85200000Y-140550000D03*
X85200000Y-141850000D03*
X87200000Y-141850000D03*
X87200000Y-140550000D03*
%TD*%
D17*
%TO.C,MK1401*%
X236200000Y-160213667D03*
D18*
X236270000Y-156803667D03*
X233730000Y-156803667D03*
D17*
X233800000Y-160213667D03*
X235000000Y-160213667D03*
%TD*%
D15*
%TO.C,R1101*%
X192800000Y-99883667D03*
X192800000Y-100903667D03*
%TD*%
D13*
%TO.C,R1610*%
X237310000Y-227193667D03*
X236290000Y-227193667D03*
%TD*%
D15*
%TO.C,R909*%
X94300000Y-78800000D03*
X94300000Y-79820000D03*
%TD*%
D17*
%TO.C,MK1407*%
X186550000Y-83263667D03*
D18*
X186620000Y-79853667D03*
X184080000Y-79853667D03*
D17*
X184150000Y-83263667D03*
X185350000Y-83263667D03*
%TD*%
D20*
%TO.C,C201*%
X45800000Y-78320000D03*
X45800000Y-79280000D03*
%TD*%
D88*
%TO.C,U1601*%
X210150000Y-73193667D03*
X209500000Y-73193667D03*
X208850000Y-73193667D03*
X208200000Y-73193667D03*
X207550000Y-73193667D03*
X206900000Y-73193667D03*
X206250000Y-73193667D03*
X206250000Y-78793667D03*
X206900000Y-78793667D03*
X207550000Y-78793667D03*
X208200000Y-78793667D03*
X208850000Y-78793667D03*
X209500000Y-78793667D03*
X210150000Y-78793667D03*
%TD*%
D21*
%TO.C,R1303*%
X87890000Y-227900000D03*
X88910000Y-227900000D03*
%TD*%
D15*
%TO.C,R1627*%
X256000000Y-157383667D03*
X256000000Y-158403667D03*
%TD*%
D12*
%TO.C,R108*%
X60700000Y-79410000D03*
X60700000Y-78390000D03*
%TD*%
D11*
%TO.C,C709*%
X64300000Y-56280000D03*
X64300000Y-55320000D03*
%TD*%
D21*
%TO.C,R407*%
X83490000Y-200050000D03*
X84510000Y-200050000D03*
%TD*%
D48*
%TO.C,C1609*%
X204000000Y-80406167D03*
X204000000Y-78981167D03*
%TD*%
D13*
%TO.C,R802*%
X51610000Y-64200000D03*
X50590000Y-64200000D03*
%TD*%
D11*
%TO.C,C1401*%
X233600000Y-227073667D03*
X233600000Y-226113667D03*
%TD*%
%TO.C,CB1606*%
X257700000Y-75393667D03*
X257700000Y-74433667D03*
%TD*%
D16*
%TO.C,C1611*%
X255980000Y-156393667D03*
X255020000Y-156393667D03*
%TD*%
D20*
%TO.C,C1508*%
X191300000Y-149913667D03*
X191300000Y-150873667D03*
%TD*%
D15*
%TO.C,R709*%
X60700000Y-130290000D03*
X60700000Y-131310000D03*
%TD*%
%TO.C,R1625*%
X204300000Y-144183667D03*
X204300000Y-145203667D03*
%TD*%
D22*
%TO.C,C1506*%
X229270000Y-234943667D03*
X230230000Y-234943667D03*
%TD*%
D56*
%TO.C,J601*%
X44450000Y-136975000D03*
X44400000Y-145825000D03*
D57*
X47400000Y-143275000D03*
D58*
X47400000Y-142025000D03*
X47400000Y-140775000D03*
X47400000Y-139525000D03*
%TD*%
D16*
%TO.C,C908*%
X94180000Y-150000000D03*
X93220000Y-150000000D03*
%TD*%
D15*
%TO.C,R901*%
X93300000Y-153800000D03*
X93300000Y-154820000D03*
%TD*%
D20*
%TO.C,CB1003*%
X206500000Y-85313667D03*
X206500000Y-86273667D03*
%TD*%
D95*
%TO.C,U1401*%
X63825000Y-234575000D03*
X64475000Y-234575000D03*
X65125000Y-234575000D03*
X65775000Y-234575000D03*
X65775000Y-236625000D03*
X65125000Y-236625000D03*
X64475000Y-236625000D03*
X63825000Y-236625000D03*
%TD*%
D89*
%TO.C,J206*%
X95650000Y-142050000D03*
X95650000Y-141300000D03*
D90*
X95650000Y-140700000D03*
X95650000Y-139200000D03*
X95650000Y-138200000D03*
X95650000Y-137200000D03*
D89*
X95650000Y-136600000D03*
D91*
X95650000Y-135850000D03*
D89*
X95650000Y-135850000D03*
X95650000Y-136600000D03*
D90*
X95650000Y-137700000D03*
X95650000Y-138700000D03*
X95650000Y-139700000D03*
X95650000Y-140200000D03*
D89*
X95650000Y-141300000D03*
X95650000Y-142050000D03*
%TD*%
D49*
%TO.C,U801*%
X56280000Y-66180000D03*
X56280000Y-67020000D03*
X57120000Y-66180000D03*
X57120000Y-67020000D03*
D50*
X55237500Y-65850000D03*
X55237500Y-66350000D03*
X55237500Y-66850000D03*
X55237500Y-67350000D03*
D51*
X55950000Y-68062500D03*
X56450000Y-68062500D03*
X56950000Y-68062500D03*
X57450000Y-68062500D03*
D50*
X58162500Y-67350000D03*
X58162500Y-66850000D03*
X58162500Y-66350000D03*
X58162500Y-65850000D03*
D51*
X57450000Y-65137500D03*
X56950000Y-65137500D03*
X56450000Y-65137500D03*
X55950000Y-65137500D03*
%TD*%
D16*
%TO.C,C812*%
X55980000Y-145300000D03*
X55020000Y-145300000D03*
%TD*%
D12*
%TO.C,R1604*%
X254900000Y-165403667D03*
X254900000Y-164383667D03*
%TD*%
D15*
%TO.C,R1633*%
X249800000Y-151583667D03*
X249800000Y-152603667D03*
%TD*%
%TO.C,R1633*%
X204800000Y-151583667D03*
X204800000Y-152603667D03*
%TD*%
D20*
%TO.C,C103*%
X67200000Y-227320000D03*
X67200000Y-228280000D03*
%TD*%
D15*
%TO.C,R1623*%
X212100000Y-144183667D03*
X212100000Y-145203667D03*
%TD*%
D12*
%TO.C,R1618*%
X256000000Y-69603667D03*
X256000000Y-68583667D03*
%TD*%
D20*
%TO.C,C1508*%
X191300000Y-224913667D03*
X191300000Y-225873667D03*
%TD*%
D22*
%TO.C,CB1403*%
X184270000Y-235943667D03*
X185230000Y-235943667D03*
%TD*%
D12*
%TO.C,R1622*%
X204800000Y-75403667D03*
X204800000Y-74383667D03*
%TD*%
%TO.C,R207*%
X67200000Y-71510000D03*
X67200000Y-70490000D03*
%TD*%
D49*
%TO.C,U801*%
X56280000Y-141180000D03*
X56280000Y-142020000D03*
X57120000Y-141180000D03*
X57120000Y-142020000D03*
D50*
X55237500Y-140850000D03*
X55237500Y-141350000D03*
X55237500Y-141850000D03*
X55237500Y-142350000D03*
D51*
X55950000Y-143062500D03*
X56450000Y-143062500D03*
X56950000Y-143062500D03*
X57450000Y-143062500D03*
D50*
X58162500Y-142350000D03*
X58162500Y-141850000D03*
X58162500Y-141350000D03*
X58162500Y-140850000D03*
D51*
X57450000Y-140137500D03*
X56950000Y-140137500D03*
X56450000Y-140137500D03*
X55950000Y-140137500D03*
%TD*%
D21*
%TO.C,R202*%
X61490000Y-88000000D03*
X62510000Y-88000000D03*
%TD*%
D15*
%TO.C,R1625*%
X249300000Y-219183667D03*
X249300000Y-220203667D03*
%TD*%
D93*
%TO.C,U101*%
X71450000Y-77717200D03*
X71950000Y-77717200D03*
X72450000Y-77717200D03*
X72950000Y-77717200D03*
X73450000Y-77717200D03*
X73950000Y-77717200D03*
X74450000Y-77717200D03*
X74950000Y-77717200D03*
X75450000Y-77717200D03*
X75950000Y-77717200D03*
X76450000Y-77717200D03*
X76950000Y-77717200D03*
X77450000Y-77717200D03*
X77950000Y-77717200D03*
X78450000Y-77717200D03*
X78950000Y-77717200D03*
D94*
X80875000Y-75792200D03*
X80875000Y-75292200D03*
X80875000Y-74792200D03*
X80875000Y-74292200D03*
X80875000Y-73792200D03*
X80875000Y-73292200D03*
X80875000Y-72792200D03*
X80875000Y-72292200D03*
X80875000Y-71792200D03*
X80875000Y-71292200D03*
X80875000Y-70792200D03*
X80875000Y-70292200D03*
X80875000Y-69792200D03*
X80875000Y-69292200D03*
X80875000Y-68792200D03*
X80875000Y-68292200D03*
D93*
X78950000Y-66367200D03*
X78450000Y-66367200D03*
X77950000Y-66367200D03*
X77450000Y-66367200D03*
X76950000Y-66367200D03*
X76450000Y-66367200D03*
X75950000Y-66367200D03*
X75450000Y-66367200D03*
X74950000Y-66367200D03*
X74450000Y-66367200D03*
X73950000Y-66367200D03*
X73450000Y-66367200D03*
X72950000Y-66367200D03*
X72450000Y-66367200D03*
X71950000Y-66367200D03*
X71450000Y-66367200D03*
D94*
X69525000Y-68292200D03*
X69525000Y-68792200D03*
X69525000Y-69292200D03*
X69525000Y-69792200D03*
X69525000Y-70292200D03*
X69525000Y-70792200D03*
X69525000Y-71292200D03*
X69525000Y-71792200D03*
X69525000Y-72292200D03*
X69525000Y-72792200D03*
X69525000Y-73292200D03*
X69525000Y-73792200D03*
X69525000Y-74292200D03*
X69525000Y-74792200D03*
X69525000Y-75292200D03*
X69525000Y-75792200D03*
%TD*%
D54*
%TO.C,U902*%
X88423500Y-234458000D03*
X88423500Y-233508000D03*
X88423500Y-232558000D03*
X86148500Y-232558000D03*
X86148500Y-234458000D03*
%TD*%
D20*
%TO.C,C1605*%
X249500000Y-92733667D03*
X249500000Y-93693667D03*
%TD*%
D21*
%TO.C,R412*%
X80490000Y-125050000D03*
X81510000Y-125050000D03*
%TD*%
D12*
%TO.C,R704*%
X52700000Y-203310000D03*
X52700000Y-202290000D03*
%TD*%
D16*
%TO.C,C1504*%
X208680000Y-70593667D03*
X207720000Y-70593667D03*
%TD*%
D21*
%TO.C,R107*%
X88690000Y-145400000D03*
X89710000Y-145400000D03*
%TD*%
D15*
%TO.C,R1628*%
X256600000Y-226603667D03*
X256600000Y-227623667D03*
%TD*%
D22*
%TO.C,CB1409*%
X63820000Y-162975000D03*
X64780000Y-162975000D03*
%TD*%
%TO.C,C1501*%
X233920000Y-237893667D03*
X234880000Y-237893667D03*
%TD*%
%TO.C,C416*%
X48920000Y-61700000D03*
X49880000Y-61700000D03*
%TD*%
D16*
%TO.C,C1504*%
X208680000Y-145593667D03*
X207720000Y-145593667D03*
%TD*%
D21*
%TO.C,R107*%
X88690000Y-70400000D03*
X89710000Y-70400000D03*
%TD*%
D12*
%TO.C,R1630*%
X257100000Y-82803667D03*
X257100000Y-81783667D03*
%TD*%
D22*
%TO.C,C708*%
X55020000Y-207500000D03*
X55980000Y-207500000D03*
%TD*%
D41*
%TO.C,SW101*%
X50950000Y-150400000D03*
X43200000Y-150400000D03*
%TD*%
D20*
%TO.C,CB1609*%
X207600000Y-218613667D03*
X207600000Y-219573667D03*
%TD*%
D16*
%TO.C,CB1406*%
X195730000Y-142043667D03*
X194770000Y-142043667D03*
%TD*%
D20*
%TO.C,C1009*%
X205400000Y-235313667D03*
X205400000Y-236273667D03*
%TD*%
D87*
%TO.C,C1201*%
X86200000Y-200517500D03*
X86200000Y-199382500D03*
%TD*%
D42*
%TO.C,J1101*%
X185575000Y-181543667D03*
X194425000Y-181593667D03*
D43*
X191875000Y-178593667D03*
D44*
X190625000Y-178593667D03*
X189375000Y-178593667D03*
X188125000Y-178593667D03*
%TD*%
D21*
%TO.C,R1514*%
X209990000Y-221593667D03*
X211010000Y-221593667D03*
%TD*%
D16*
%TO.C,C1507*%
X195730000Y-141043667D03*
X194770000Y-141043667D03*
%TD*%
D15*
%TO.C,R1627*%
X256000000Y-82383667D03*
X256000000Y-83403667D03*
%TD*%
D35*
%TO.C,J204*%
X46775000Y-90840000D03*
X46775000Y-89740000D03*
X46775000Y-88640000D03*
X46775000Y-87540000D03*
X46775000Y-86440000D03*
X46775000Y-85340000D03*
X46775000Y-84240000D03*
X46775000Y-83140000D03*
D36*
X58400000Y-81200000D03*
X49400000Y-81200000D03*
D37*
X47400000Y-95185000D03*
D38*
X58730000Y-95085000D03*
D39*
X59525000Y-90780000D03*
X59525000Y-83000000D03*
D38*
X47250000Y-80795000D03*
%TD*%
D19*
%TO.C,D304*%
X167400000Y-235625000D03*
X167400000Y-237200000D03*
%TD*%
D12*
%TO.C,R1001*%
X183900000Y-242603667D03*
X183900000Y-241583667D03*
%TD*%
D11*
%TO.C,CB1408*%
X187600000Y-152073667D03*
X187600000Y-151113667D03*
%TD*%
D22*
%TO.C,C1402*%
X193570000Y-235993667D03*
X194530000Y-235993667D03*
%TD*%
D13*
%TO.C,R702*%
X51610000Y-202400000D03*
X50590000Y-202400000D03*
%TD*%
D22*
%TO.C,C1506*%
X229270000Y-159943667D03*
X230230000Y-159943667D03*
%TD*%
%TO.C,C1402*%
X238570000Y-160993667D03*
X239530000Y-160993667D03*
%TD*%
D86*
%TO.C,R916*%
X87525000Y-154300000D03*
X85875000Y-154300000D03*
%TD*%
D11*
%TO.C,CB1605*%
X248700000Y-75373667D03*
X248700000Y-74413667D03*
%TD*%
D19*
%TO.C,D1001*%
X228120000Y-255788667D03*
X228120000Y-257363667D03*
%TD*%
D22*
%TO.C,CB1403*%
X229270000Y-85943667D03*
X230230000Y-85943667D03*
%TD*%
D15*
%TO.C,R1633*%
X204800000Y-226583667D03*
X204800000Y-227603667D03*
%TD*%
D45*
%TO.C,FB1101*%
X193915000Y-99793667D03*
X194885000Y-99793667D03*
%TD*%
D16*
%TO.C,CB902*%
X77980000Y-229600000D03*
X77020000Y-229600000D03*
%TD*%
D46*
%TO.C,C1601*%
X207250000Y-87893667D03*
X209150000Y-87893667D03*
%TD*%
D13*
%TO.C,R1201*%
X88760000Y-122950000D03*
X87740000Y-122950000D03*
%TD*%
D20*
%TO.C,CB1610*%
X253800000Y-68633667D03*
X253800000Y-69593667D03*
%TD*%
D12*
%TO.C,R1616*%
X238450000Y-217053667D03*
X238450000Y-216033667D03*
%TD*%
D21*
%TO.C,C1602*%
X252690000Y-239893667D03*
X253710000Y-239893667D03*
%TD*%
D13*
%TO.C,R904*%
X94210000Y-76041800D03*
X93190000Y-76041800D03*
%TD*%
D28*
%TO.C,FB101*%
X80800000Y-242885000D03*
X80800000Y-241915000D03*
%TD*%
D45*
%TO.C,FB901*%
X77015000Y-157600000D03*
X77985000Y-157600000D03*
%TD*%
D11*
%TO.C,CB1601*%
X250500000Y-93693667D03*
X250500000Y-92733667D03*
%TD*%
D52*
%TO.C,R914*%
X93582800Y-94414000D03*
X95232800Y-94414000D03*
%TD*%
D16*
%TO.C,C1503*%
X186430000Y-141043667D03*
X185470000Y-141043667D03*
%TD*%
D13*
%TO.C,R701*%
X51610000Y-132200000D03*
X50590000Y-132200000D03*
%TD*%
D11*
%TO.C,C709*%
X64300000Y-206280000D03*
X64300000Y-205320000D03*
%TD*%
D52*
%TO.C,R211*%
X98975000Y-57900000D03*
X100625000Y-57900000D03*
%TD*%
D20*
%TO.C,C805*%
X57500000Y-219320000D03*
X57500000Y-220280000D03*
%TD*%
D13*
%TO.C,R1624*%
X251410000Y-146593667D03*
X250390000Y-146593667D03*
%TD*%
D20*
%TO.C,C412*%
X82000000Y-205010000D03*
X82000000Y-205970000D03*
%TD*%
D29*
%TO.C,U1002*%
X183850000Y-174256167D03*
X182900000Y-174256167D03*
X181950000Y-174256167D03*
X181950000Y-176531167D03*
X183850000Y-176531167D03*
%TD*%
D12*
%TO.C,R710*%
X60700000Y-204310000D03*
X60700000Y-203290000D03*
%TD*%
D15*
%TO.C,R919*%
X84600000Y-81490000D03*
X84600000Y-82510000D03*
%TD*%
D16*
%TO.C,C1611*%
X210980000Y-231393667D03*
X210020000Y-231393667D03*
%TD*%
D12*
%TO.C,R1604*%
X209900000Y-165403667D03*
X209900000Y-164383667D03*
%TD*%
D16*
%TO.C,CB1002*%
X228880000Y-97593667D03*
X227920000Y-97593667D03*
%TD*%
D13*
%TO.C,R1608*%
X254710000Y-172293667D03*
X253690000Y-172293667D03*
%TD*%
D47*
%TO.C,C803*%
X51100000Y-215650000D03*
X51100000Y-217550000D03*
%TD*%
D11*
%TO.C,CB102*%
X53900000Y-154380000D03*
X53900000Y-153420000D03*
%TD*%
D12*
%TO.C,R1601*%
X252600000Y-161303667D03*
X252600000Y-160283667D03*
%TD*%
D42*
%TO.C,J207*%
X65075000Y-167850000D03*
X78925000Y-167900000D03*
D43*
X76375000Y-164900000D03*
X75125000Y-164900000D03*
X73875000Y-164900000D03*
D44*
X72625000Y-164900000D03*
X71375000Y-164900000D03*
X70125000Y-164900000D03*
D43*
X68875000Y-164900000D03*
D44*
X67625000Y-164900000D03*
%TD*%
D12*
%TO.C,R1619*%
X251500000Y-219603667D03*
X251500000Y-218583667D03*
%TD*%
D11*
%TO.C,C809*%
X64300000Y-143080000D03*
X64300000Y-142120000D03*
%TD*%
D45*
%TO.C,FB301*%
X163515000Y-215600000D03*
X164485000Y-215600000D03*
%TD*%
D48*
%TO.C,C1609*%
X249000000Y-80406167D03*
X249000000Y-78981167D03*
%TD*%
D17*
%TO.C,MK1407*%
X186550000Y-158263667D03*
D18*
X186620000Y-154853667D03*
X184080000Y-154853667D03*
D17*
X184150000Y-158263667D03*
X185350000Y-158263667D03*
%TD*%
%TO.C,MK1404*%
X231020000Y-224793667D03*
D18*
X227610000Y-224723667D03*
X227610000Y-227263667D03*
D17*
X231020000Y-227193667D03*
X231020000Y-225993667D03*
%TD*%
D16*
%TO.C,C501*%
X49580000Y-51200000D03*
X48620000Y-51200000D03*
%TD*%
D95*
%TO.C,U1401*%
X63825000Y-84575000D03*
X64475000Y-84575000D03*
X65125000Y-84575000D03*
X65775000Y-84575000D03*
X65775000Y-86625000D03*
X65125000Y-86625000D03*
X64475000Y-86625000D03*
X63825000Y-86625000D03*
%TD*%
D13*
%TO.C,R303*%
X165710000Y-240400000D03*
X164690000Y-240400000D03*
%TD*%
D12*
%TO.C,R1616*%
X193450000Y-142053667D03*
X193450000Y-141033667D03*
%TD*%
D20*
%TO.C,CB1610*%
X253800000Y-143633667D03*
X253800000Y-144593667D03*
%TD*%
D46*
%TO.C,C1601*%
X252250000Y-162893667D03*
X254150000Y-162893667D03*
%TD*%
D20*
%TO.C,C1605*%
X204500000Y-242733667D03*
X204500000Y-243693667D03*
%TD*%
D12*
%TO.C,R1611*%
X188800000Y-215103667D03*
X188800000Y-214083667D03*
%TD*%
D15*
%TO.C,R1632*%
X205400000Y-82383667D03*
X205400000Y-83403667D03*
%TD*%
D62*
%TO.C,X401*%
X81200000Y-135000000D03*
X81200000Y-132700000D03*
D63*
X79300000Y-132700000D03*
X79300000Y-135000000D03*
%TD*%
D16*
%TO.C,C1003*%
X233280000Y-176593667D03*
X232320000Y-176593667D03*
%TD*%
D88*
%TO.C,U1601*%
X210150000Y-148193667D03*
X209500000Y-148193667D03*
X208850000Y-148193667D03*
X208200000Y-148193667D03*
X207550000Y-148193667D03*
X206900000Y-148193667D03*
X206250000Y-148193667D03*
X206250000Y-153793667D03*
X206900000Y-153793667D03*
X207550000Y-153793667D03*
X208200000Y-153793667D03*
X208850000Y-153793667D03*
X209500000Y-153793667D03*
X210150000Y-153793667D03*
%TD*%
D13*
%TO.C,R1634*%
X251410000Y-230393667D03*
X250390000Y-230393667D03*
%TD*%
D20*
%TO.C,CB1201*%
X90300000Y-126070000D03*
X90300000Y-127030000D03*
%TD*%
D30*
%TO.C,U1701*%
X208620000Y-243973667D03*
X207780000Y-243973667D03*
X208620000Y-244813667D03*
X207780000Y-244813667D03*
D31*
X208950000Y-242931167D03*
X208450000Y-242931167D03*
X207950000Y-242931167D03*
X207450000Y-242931167D03*
D32*
X206737500Y-243643667D03*
X206737500Y-244143667D03*
X206737500Y-244643667D03*
X206737500Y-245143667D03*
D31*
X207450000Y-245856167D03*
X207950000Y-245856167D03*
X208450000Y-245856167D03*
X208950000Y-245856167D03*
D32*
X209662500Y-245143667D03*
X209662500Y-244643667D03*
X209662500Y-244143667D03*
X209662500Y-243643667D03*
%TD*%
D12*
%TO.C,R1635*%
X249300000Y-232803667D03*
X249300000Y-231783667D03*
%TD*%
D21*
%TO.C,R405*%
X77840000Y-56200000D03*
X78860000Y-56200000D03*
%TD*%
D22*
%TO.C,CB1001*%
X226920000Y-166493667D03*
X227880000Y-166493667D03*
%TD*%
D21*
%TO.C,R107*%
X88690000Y-220400000D03*
X89710000Y-220400000D03*
%TD*%
D22*
%TO.C,CB1301*%
X83920000Y-152900000D03*
X84880000Y-152900000D03*
%TD*%
D12*
%TO.C,R1630*%
X212100000Y-232803667D03*
X212100000Y-231783667D03*
%TD*%
D22*
%TO.C,C1102*%
X238920000Y-252193667D03*
X239880000Y-252193667D03*
%TD*%
D11*
%TO.C,CB1608*%
X252600000Y-233373667D03*
X252600000Y-232413667D03*
%TD*%
D16*
%TO.C,CB1406*%
X240730000Y-142043667D03*
X239770000Y-142043667D03*
%TD*%
D11*
%TO.C,C709*%
X64300000Y-131280000D03*
X64300000Y-130320000D03*
%TD*%
D45*
%TO.C,FB1101*%
X238915000Y-99793667D03*
X239885000Y-99793667D03*
%TD*%
D52*
%TO.C,R208*%
X95175000Y-132900000D03*
X96825000Y-132900000D03*
%TD*%
D20*
%TO.C,C705*%
X57500000Y-132520000D03*
X57500000Y-133480000D03*
%TD*%
D12*
%TO.C,R903*%
X95300000Y-72110000D03*
X95300000Y-71090000D03*
%TD*%
D22*
%TO.C,CB1405*%
X233920000Y-86893667D03*
X234880000Y-86893667D03*
%TD*%
D20*
%TO.C,C1009*%
X205400000Y-160313667D03*
X205400000Y-161273667D03*
%TD*%
D15*
%TO.C,R1612*%
X236200000Y-86883667D03*
X236200000Y-87903667D03*
%TD*%
D12*
%TO.C,R807*%
X59500000Y-68110000D03*
X59500000Y-67090000D03*
%TD*%
D15*
%TO.C,R1626*%
X254900000Y-82383667D03*
X254900000Y-83403667D03*
%TD*%
D16*
%TO.C,C712*%
X55980000Y-133500000D03*
X55020000Y-133500000D03*
%TD*%
D15*
%TO.C,R1101*%
X192800000Y-249883667D03*
X192800000Y-250903667D03*
%TD*%
D49*
%TO.C,U701*%
X56280000Y-204380000D03*
X56280000Y-205220000D03*
X57120000Y-204380000D03*
X57120000Y-205220000D03*
D50*
X55237500Y-204050000D03*
X55237500Y-204550000D03*
X55237500Y-205050000D03*
X55237500Y-205550000D03*
D51*
X55950000Y-206262500D03*
X56450000Y-206262500D03*
X56950000Y-206262500D03*
X57450000Y-206262500D03*
D50*
X58162500Y-205550000D03*
X58162500Y-205050000D03*
X58162500Y-204550000D03*
X58162500Y-204050000D03*
D51*
X57450000Y-203337500D03*
X56950000Y-203337500D03*
X56450000Y-203337500D03*
X55950000Y-203337500D03*
%TD*%
D12*
%TO.C,R1602*%
X208900000Y-86303667D03*
X208900000Y-85283667D03*
%TD*%
D16*
%TO.C,CB903*%
X92880000Y-247400000D03*
X91920000Y-247400000D03*
%TD*%
D20*
%TO.C,C106*%
X68012400Y-230570000D03*
X68012400Y-231530000D03*
%TD*%
D12*
%TO.C,R1621*%
X211600000Y-150423667D03*
X211600000Y-149403667D03*
%TD*%
D28*
%TO.C,FB102*%
X82000000Y-92885000D03*
X82000000Y-91915000D03*
%TD*%
D27*
%TO.C,C1614*%
X249000000Y-71581167D03*
X249000000Y-73006167D03*
%TD*%
D22*
%TO.C,CB1409*%
X63820000Y-87975000D03*
X64780000Y-87975000D03*
%TD*%
D20*
%TO.C,C1606*%
X250400000Y-87313667D03*
X250400000Y-88273667D03*
%TD*%
%TO.C,CB1603*%
X257700000Y-151633667D03*
X257700000Y-152593667D03*
%TD*%
D11*
%TO.C,CB906*%
X92200000Y-243980000D03*
X92200000Y-243020000D03*
%TD*%
D20*
%TO.C,CB1604*%
X248700000Y-76613667D03*
X248700000Y-77573667D03*
%TD*%
D15*
%TO.C,R917*%
X100300000Y-152490000D03*
X100300000Y-153510000D03*
%TD*%
D61*
%TO.C,D103*%
X85412500Y-218600000D03*
X86987500Y-218600000D03*
%TD*%
D13*
%TO.C,R705*%
X53610000Y-58400000D03*
X52590000Y-58400000D03*
%TD*%
D16*
%TO.C,C402*%
X70480000Y-53000000D03*
X69520000Y-53000000D03*
%TD*%
D12*
%TO.C,R1604*%
X209900000Y-240403667D03*
X209900000Y-239383667D03*
%TD*%
D13*
%TO.C,R409*%
X81510000Y-51050000D03*
X80490000Y-51050000D03*
%TD*%
D22*
%TO.C,C417*%
X49120000Y-124800000D03*
X50080000Y-124800000D03*
%TD*%
D12*
%TO.C,R1606*%
X211000000Y-90403667D03*
X211000000Y-89383667D03*
%TD*%
D16*
%TO.C,C1002*%
X183880000Y-103193667D03*
X182920000Y-103193667D03*
%TD*%
D15*
%TO.C,R1631*%
X206500000Y-232383667D03*
X206500000Y-233403667D03*
%TD*%
D21*
%TO.C,R204*%
X61490000Y-235600000D03*
X62510000Y-235600000D03*
%TD*%
D16*
%TO.C,CB1502*%
X253680000Y-221593667D03*
X252720000Y-221593667D03*
%TD*%
D85*
%TO.C,U402*%
X70650000Y-55500000D03*
X70000000Y-55500000D03*
X69350000Y-55500000D03*
X69350000Y-57700000D03*
X70650000Y-57700000D03*
%TD*%
D22*
%TO.C,C1501*%
X233920000Y-87893667D03*
X234880000Y-87893667D03*
%TD*%
D12*
%TO.C,R1602*%
X253900000Y-86303667D03*
X253900000Y-85283667D03*
%TD*%
D13*
%TO.C,R701*%
X51610000Y-207200000D03*
X50590000Y-207200000D03*
%TD*%
D15*
%TO.C,R1002*%
X181700000Y-256083667D03*
X181700000Y-257103667D03*
%TD*%
D14*
%TO.C,FB1001*%
X233285000Y-250393667D03*
X232315000Y-250393667D03*
%TD*%
D84*
%TO.C,U1001*%
X226950000Y-164831167D03*
X227900000Y-164831167D03*
X228850000Y-164831167D03*
X228850000Y-162556167D03*
X226950000Y-162556167D03*
%TD*%
D52*
%TO.C,R913*%
X93582800Y-92600000D03*
X95232800Y-92600000D03*
%TD*%
D15*
%TO.C,R1627*%
X211000000Y-157383667D03*
X211000000Y-158403667D03*
%TD*%
D11*
%TO.C,C202*%
X43400000Y-154280000D03*
X43400000Y-153320000D03*
%TD*%
D22*
%TO.C,C1612*%
X250420000Y-81393667D03*
X251380000Y-81393667D03*
%TD*%
D13*
%TO.C,R1201*%
X88760000Y-47950000D03*
X87740000Y-47950000D03*
%TD*%
D17*
%TO.C,MK1408*%
X193450000Y-218723667D03*
D18*
X193380000Y-222133667D03*
X195920000Y-222133667D03*
D17*
X195850000Y-218723667D03*
X194650000Y-218723667D03*
%TD*%
D22*
%TO.C,C301*%
X163520000Y-216800000D03*
X164480000Y-216800000D03*
%TD*%
D12*
%TO.C,R108*%
X60700000Y-229410000D03*
X60700000Y-228390000D03*
%TD*%
%TO.C,R1604*%
X254900000Y-240403667D03*
X254900000Y-239383667D03*
%TD*%
D16*
%TO.C,C1002*%
X228880000Y-103193667D03*
X227920000Y-103193667D03*
%TD*%
D20*
%TO.C,CB1604*%
X203700000Y-226613667D03*
X203700000Y-227573667D03*
%TD*%
D17*
%TO.C,MK1405*%
X195850000Y-233263667D03*
D18*
X195920000Y-229853667D03*
X193380000Y-229853667D03*
D17*
X193450000Y-233263667D03*
X194650000Y-233263667D03*
%TD*%
D22*
%TO.C,C1005*%
X232320000Y-249193667D03*
X233280000Y-249193667D03*
%TD*%
D13*
%TO.C,R805*%
X53610000Y-70200000D03*
X52590000Y-70200000D03*
%TD*%
D16*
%TO.C,CB1502*%
X208680000Y-71593667D03*
X207720000Y-71593667D03*
%TD*%
%TO.C,C702*%
X51580000Y-126200000D03*
X50620000Y-126200000D03*
%TD*%
D14*
%TO.C,FB1001*%
X188285000Y-175393667D03*
X187315000Y-175393667D03*
%TD*%
D86*
%TO.C,R915*%
X90725000Y-229300000D03*
X89075000Y-229300000D03*
%TD*%
D15*
%TO.C,R1631*%
X251500000Y-82383667D03*
X251500000Y-83403667D03*
%TD*%
D33*
%TO.C,C810*%
X62500000Y-143075000D03*
X62500000Y-140125000D03*
%TD*%
D15*
%TO.C,R1632*%
X250400000Y-232383667D03*
X250400000Y-233403667D03*
%TD*%
D22*
%TO.C,C403*%
X75320000Y-57200000D03*
X76280000Y-57200000D03*
%TD*%
D20*
%TO.C,C1607*%
X211000000Y-162313667D03*
X211000000Y-163273667D03*
%TD*%
D21*
%TO.C,R1303*%
X87890000Y-77900000D03*
X88910000Y-77900000D03*
%TD*%
D28*
%TO.C,FB102*%
X82000000Y-167885000D03*
X82000000Y-166915000D03*
%TD*%
D22*
%TO.C,C903*%
X97820000Y-229800000D03*
X98780000Y-229800000D03*
%TD*%
D16*
%TO.C,C401*%
X70480000Y-50000000D03*
X69520000Y-50000000D03*
%TD*%
D22*
%TO.C,C1001*%
X181920000Y-85893667D03*
X182880000Y-85893667D03*
%TD*%
D20*
%TO.C,C704*%
X52700000Y-204320000D03*
X52700000Y-205280000D03*
%TD*%
D16*
%TO.C,CB1402*%
X231430000Y-67043667D03*
X230470000Y-67043667D03*
%TD*%
D45*
%TO.C,FB901*%
X77015000Y-82600000D03*
X77985000Y-82600000D03*
%TD*%
D52*
%TO.C,R210*%
X95175000Y-206300000D03*
X96825000Y-206300000D03*
%TD*%
D16*
%TO.C,CB1410*%
X64780000Y-233200000D03*
X63820000Y-233200000D03*
%TD*%
D12*
%TO.C,R103*%
X57200000Y-102225000D03*
X57200000Y-101205000D03*
%TD*%
D22*
%TO.C,C1501*%
X188920000Y-162893667D03*
X189880000Y-162893667D03*
%TD*%
D12*
%TO.C,R1621*%
X211600000Y-75423667D03*
X211600000Y-74403667D03*
%TD*%
D16*
%TO.C,C1507*%
X195730000Y-216043667D03*
X194770000Y-216043667D03*
%TD*%
D21*
%TO.C,R1609*%
X187590000Y-74793667D03*
X188610000Y-74793667D03*
%TD*%
D92*
%TO.C,D301*%
X139000000Y-65450000D03*
X137600000Y-65450000D03*
%TD*%
D65*
%TO.C,U301*%
X143225000Y-143665000D03*
X142375000Y-143665000D03*
X141325000Y-143665000D03*
X140475000Y-143665000D03*
X139425000Y-143665000D03*
X138575000Y-143665000D03*
X137525000Y-143665000D03*
X136675000Y-143665000D03*
X135625000Y-143665000D03*
X134775000Y-143665000D03*
X143225000Y-144665000D03*
X142375000Y-144665000D03*
X141325000Y-144665000D03*
X140475000Y-144665000D03*
X139425000Y-144665000D03*
X138575000Y-144665000D03*
X137525000Y-144665000D03*
X136675000Y-144665000D03*
X135625000Y-144665000D03*
X134775000Y-144665000D03*
D66*
X146100000Y-146540000D03*
X145100000Y-146540000D03*
X132900000Y-146540000D03*
X131900000Y-146540000D03*
X146100000Y-147390000D03*
X145100000Y-147390000D03*
X132900000Y-147390000D03*
X131900000Y-147390000D03*
X146100000Y-148440000D03*
X145100000Y-148440000D03*
X132900000Y-148440000D03*
X131900000Y-148440000D03*
X146100000Y-149290000D03*
X145100000Y-149290000D03*
X132900000Y-149290000D03*
X131900000Y-149290000D03*
X146100000Y-150340000D03*
X145100000Y-150340000D03*
X132900000Y-150340000D03*
X131900000Y-150340000D03*
X146100000Y-151190000D03*
X145100000Y-151190000D03*
X132900000Y-151190000D03*
X131900000Y-151190000D03*
X146100000Y-152240000D03*
X145100000Y-152240000D03*
X132900000Y-152240000D03*
X131900000Y-152240000D03*
X146100000Y-153090000D03*
X145100000Y-153090000D03*
X132900000Y-153090000D03*
X131900000Y-153090000D03*
X146100000Y-154140000D03*
X145100000Y-154140000D03*
X132900000Y-154140000D03*
X131900000Y-154140000D03*
X146100000Y-154990000D03*
X145100000Y-154990000D03*
X132900000Y-154990000D03*
X131900000Y-154990000D03*
D65*
X143225000Y-156865000D03*
X142375000Y-156865000D03*
X141325000Y-156865000D03*
X140475000Y-156865000D03*
X139425000Y-156865000D03*
X138575000Y-156865000D03*
X137525000Y-156865000D03*
X136675000Y-156865000D03*
X135625000Y-156865000D03*
X134775000Y-156865000D03*
X143225000Y-157865000D03*
X142375000Y-157865000D03*
X141325000Y-157865000D03*
X140475000Y-157865000D03*
X139425000Y-157865000D03*
X138575000Y-157865000D03*
X137525000Y-157865000D03*
X136675000Y-157865000D03*
X135625000Y-157865000D03*
X134775000Y-157865000D03*
%TD*%
D13*
%TO.C,R1610*%
X237310000Y-77193667D03*
X236290000Y-77193667D03*
%TD*%
D12*
%TO.C,R902*%
X95300000Y-149055200D03*
X95300000Y-148035200D03*
%TD*%
%TO.C,R1619*%
X206500000Y-69603667D03*
X206500000Y-68583667D03*
%TD*%
D16*
%TO.C,C812*%
X55980000Y-70300000D03*
X55020000Y-70300000D03*
%TD*%
D11*
%TO.C,C905*%
X92262500Y-131880000D03*
X92262500Y-130920000D03*
%TD*%
D22*
%TO.C,CB907*%
X87920000Y-80700000D03*
X88880000Y-80700000D03*
%TD*%
D27*
%TO.C,C1608*%
X257400000Y-146581167D03*
X257400000Y-148006167D03*
%TD*%
D12*
%TO.C,R807*%
X59500000Y-218110000D03*
X59500000Y-217090000D03*
%TD*%
D15*
%TO.C,R1003*%
X181900000Y-246483667D03*
X181900000Y-247503667D03*
%TD*%
D22*
%TO.C,CB1401*%
X238570000Y-84993667D03*
X239530000Y-84993667D03*
%TD*%
D92*
%TO.C,D301*%
X139000000Y-215450000D03*
X137600000Y-215450000D03*
%TD*%
D16*
%TO.C,C205*%
X76280000Y-88200000D03*
X75320000Y-88200000D03*
%TD*%
D12*
%TO.C,R1001*%
X228900000Y-242603667D03*
X228900000Y-241583667D03*
%TD*%
D20*
%TO.C,C1607*%
X256000000Y-237313667D03*
X256000000Y-238273667D03*
%TD*%
D22*
%TO.C,C1402*%
X193570000Y-85993667D03*
X194530000Y-85993667D03*
%TD*%
D12*
%TO.C,R1622*%
X204800000Y-150403667D03*
X204800000Y-149383667D03*
%TD*%
D52*
%TO.C,R206*%
X55275000Y-228900000D03*
X56925000Y-228900000D03*
%TD*%
D12*
%TO.C,R1616*%
X193450000Y-67053667D03*
X193450000Y-66033667D03*
%TD*%
D40*
%TO.C,D902*%
X95195300Y-102400000D03*
X93620300Y-102400000D03*
%TD*%
D21*
%TO.C,R1301*%
X89890000Y-227900000D03*
X90910000Y-227900000D03*
%TD*%
D13*
%TO.C,R1608*%
X254710000Y-247293667D03*
X253690000Y-247293667D03*
%TD*%
D76*
%TO.C,U401*%
X73215000Y-54500000D03*
X73715000Y-54500000D03*
X74215000Y-54500000D03*
X74715000Y-54500000D03*
X75215000Y-54500000D03*
D77*
X75715000Y-54500000D03*
X76215000Y-54500000D03*
X76715000Y-54500000D03*
X77215000Y-54500000D03*
X77715000Y-54500000D03*
D78*
X78465000Y-53750000D03*
X78465000Y-53250000D03*
X78465000Y-52750000D03*
X78465000Y-52250000D03*
X78465000Y-51750000D03*
D79*
X78465000Y-51250000D03*
X78465000Y-50750000D03*
X78465000Y-50250000D03*
X78465000Y-49750000D03*
X78465000Y-49250000D03*
D77*
X77715000Y-48500000D03*
X77215000Y-48500000D03*
X76715000Y-48500000D03*
X76215000Y-48500000D03*
X75715000Y-48500000D03*
D76*
X75215000Y-48500000D03*
X74715000Y-48500000D03*
X74215000Y-48500000D03*
X73715000Y-48500000D03*
X73215000Y-48500000D03*
D79*
X72465000Y-49250000D03*
X72465000Y-49750000D03*
X72465000Y-50250000D03*
X72465000Y-50750000D03*
X72465000Y-51250000D03*
D78*
X72465000Y-51750000D03*
X72465000Y-52250000D03*
X72465000Y-52750000D03*
X72465000Y-53250000D03*
X72465000Y-53750000D03*
D80*
X74465000Y-52500000D03*
D81*
X76465000Y-52500000D03*
D82*
X74465000Y-50500000D03*
D83*
X76465000Y-50500000D03*
%TD*%
D34*
%TO.C,FB502*%
X49500000Y-131315000D03*
X49500000Y-132285000D03*
%TD*%
D13*
%TO.C,R904*%
X94210000Y-151041800D03*
X93190000Y-151041800D03*
%TD*%
D15*
%TO.C,R1003*%
X226900000Y-246483667D03*
X226900000Y-247503667D03*
%TD*%
D45*
%TO.C,FB303*%
X138030000Y-234500000D03*
X139000000Y-234500000D03*
%TD*%
D22*
%TO.C,C1001*%
X181920000Y-160893667D03*
X182880000Y-160893667D03*
%TD*%
D61*
%TO.C,D104*%
X85412500Y-220400000D03*
X86987500Y-220400000D03*
%TD*%
D12*
%TO.C,R1603*%
X206500000Y-165403667D03*
X206500000Y-164383667D03*
%TD*%
D15*
%TO.C,R901*%
X93300000Y-228800000D03*
X93300000Y-229820000D03*
%TD*%
D13*
%TO.C,R906*%
X94210000Y-227100000D03*
X93190000Y-227100000D03*
%TD*%
D21*
%TO.C,R1607*%
X251690000Y-172293667D03*
X252710000Y-172293667D03*
%TD*%
D12*
%TO.C,R1603*%
X206500000Y-240403667D03*
X206500000Y-239383667D03*
%TD*%
D22*
%TO.C,C1612*%
X250420000Y-156393667D03*
X251380000Y-156393667D03*
%TD*%
D15*
%TO.C,R1612*%
X236200000Y-236883667D03*
X236200000Y-237903667D03*
%TD*%
D11*
%TO.C,CB103*%
X67212400Y-226130000D03*
X67212400Y-225170000D03*
%TD*%
D12*
%TO.C,R1606*%
X256000000Y-165403667D03*
X256000000Y-164383667D03*
%TD*%
D13*
%TO.C,R801*%
X51610000Y-219000000D03*
X50590000Y-219000000D03*
%TD*%
D17*
%TO.C,MK1401*%
X236200000Y-235213667D03*
D18*
X236270000Y-231803667D03*
X233730000Y-231803667D03*
D17*
X233800000Y-235213667D03*
X235000000Y-235213667D03*
%TD*%
D20*
%TO.C,C413*%
X75350000Y-59370000D03*
X75350000Y-60330000D03*
%TD*%
D22*
%TO.C,C107*%
X71240000Y-213600000D03*
X72200000Y-213600000D03*
%TD*%
D20*
%TO.C,C805*%
X57500000Y-144320000D03*
X57500000Y-145280000D03*
%TD*%
%TO.C,CB1610*%
X208800000Y-218633667D03*
X208800000Y-219593667D03*
%TD*%
D25*
%TO.C,U1201*%
X88950000Y-124187500D03*
X88450000Y-124187500D03*
X87950000Y-124187500D03*
X87450000Y-124187500D03*
D26*
X87437500Y-124700000D03*
X87437500Y-125200000D03*
D25*
X87450000Y-125712500D03*
X87950000Y-125712500D03*
X88450000Y-125712500D03*
X88950000Y-125712500D03*
D26*
X88962500Y-125200000D03*
X88962500Y-124700000D03*
%TD*%
D15*
%TO.C,R907*%
X100300000Y-229490000D03*
X100300000Y-230510000D03*
%TD*%
D20*
%TO.C,CB107*%
X58300000Y-78420000D03*
X58300000Y-79380000D03*
%TD*%
D12*
%TO.C,R707*%
X59500000Y-131310000D03*
X59500000Y-130290000D03*
%TD*%
D34*
%TO.C,FB602*%
X49500000Y-68115000D03*
X49500000Y-69085000D03*
%TD*%
D16*
%TO.C,C1502*%
X255980000Y-145593667D03*
X255020000Y-145593667D03*
%TD*%
D13*
%TO.C,R1610*%
X192310000Y-152193667D03*
X191290000Y-152193667D03*
%TD*%
D84*
%TO.C,U1001*%
X226950000Y-89831167D03*
X227900000Y-89831167D03*
X228850000Y-89831167D03*
X228850000Y-87556167D03*
X226950000Y-87556167D03*
%TD*%
D21*
%TO.C,R918*%
X63890000Y-124200000D03*
X64910000Y-124200000D03*
%TD*%
D17*
%TO.C,MK1402*%
X188800000Y-66773667D03*
D18*
X188730000Y-70183667D03*
X191270000Y-70183667D03*
D17*
X191200000Y-66773667D03*
X190000000Y-66773667D03*
%TD*%
D85*
%TO.C,U402*%
X70650000Y-205500000D03*
X70000000Y-205500000D03*
X69350000Y-205500000D03*
X69350000Y-207700000D03*
X70650000Y-207700000D03*
%TD*%
D16*
%TO.C,CB1404*%
X191080000Y-65093667D03*
X190120000Y-65093667D03*
%TD*%
D21*
%TO.C,R104*%
X88690000Y-217000000D03*
X89710000Y-217000000D03*
%TD*%
D61*
%TO.C,D903*%
X66212500Y-49200000D03*
X67787500Y-49200000D03*
%TD*%
D13*
%TO.C,R905*%
X95317800Y-173600000D03*
X94297800Y-173600000D03*
%TD*%
D61*
%TO.C,D103*%
X85412500Y-68600000D03*
X86987500Y-68600000D03*
%TD*%
D15*
%TO.C,R101*%
X67212400Y-222990000D03*
X67212400Y-224010000D03*
%TD*%
D12*
%TO.C,R1606*%
X256000000Y-90403667D03*
X256000000Y-89383667D03*
%TD*%
D11*
%TO.C,C1202*%
X90300000Y-125030000D03*
X90300000Y-124070000D03*
%TD*%
D19*
%TO.C,D1001*%
X228120000Y-180788667D03*
X228120000Y-182363667D03*
%TD*%
D11*
%TO.C,C706*%
X53900000Y-131280000D03*
X53900000Y-130320000D03*
%TD*%
D22*
%TO.C,C602*%
X48620000Y-70200000D03*
X49580000Y-70200000D03*
%TD*%
D21*
%TO.C,R105*%
X88690000Y-218600000D03*
X89710000Y-218600000D03*
%TD*%
D16*
%TO.C,CB1002*%
X228880000Y-247593667D03*
X227920000Y-247593667D03*
%TD*%
D12*
%TO.C,R1617*%
X209900000Y-69603667D03*
X209900000Y-68583667D03*
%TD*%
D22*
%TO.C,C1501*%
X188920000Y-87893667D03*
X189880000Y-87893667D03*
%TD*%
D16*
%TO.C,C1604*%
X209680000Y-241493667D03*
X208720000Y-241493667D03*
%TD*%
D22*
%TO.C,C407*%
X75320000Y-131200000D03*
X76280000Y-131200000D03*
%TD*%
D48*
%TO.C,C1613*%
X212400000Y-230406167D03*
X212400000Y-228981167D03*
%TD*%
D21*
%TO.C,R1609*%
X232590000Y-74793667D03*
X233610000Y-74793667D03*
%TD*%
D46*
%TO.C,C1601*%
X207250000Y-237893667D03*
X209150000Y-237893667D03*
%TD*%
D13*
%TO.C,R1634*%
X251410000Y-80393667D03*
X250390000Y-80393667D03*
%TD*%
D16*
%TO.C,CB1402*%
X231430000Y-217043667D03*
X230470000Y-217043667D03*
%TD*%
%TO.C,C1007*%
X183880000Y-171393667D03*
X182920000Y-171393667D03*
%TD*%
D89*
%TO.C,J206*%
X95650000Y-217050000D03*
X95650000Y-216300000D03*
D90*
X95650000Y-215700000D03*
X95650000Y-214200000D03*
X95650000Y-213200000D03*
X95650000Y-212200000D03*
D89*
X95650000Y-211600000D03*
D91*
X95650000Y-210850000D03*
D89*
X95650000Y-210850000D03*
X95650000Y-211600000D03*
D90*
X95650000Y-212700000D03*
X95650000Y-213700000D03*
X95650000Y-214700000D03*
X95650000Y-215200000D03*
D89*
X95650000Y-216300000D03*
X95650000Y-217050000D03*
%TD*%
D20*
%TO.C,C306*%
X84400000Y-241940000D03*
X84400000Y-242900000D03*
%TD*%
D11*
%TO.C,C1401*%
X233600000Y-152073667D03*
X233600000Y-151113667D03*
%TD*%
D52*
%TO.C,R211*%
X98975000Y-207900000D03*
X100625000Y-207900000D03*
%TD*%
D12*
%TO.C,R1606*%
X211000000Y-240403667D03*
X211000000Y-239383667D03*
%TD*%
D20*
%TO.C,CB1609*%
X252600000Y-218613667D03*
X252600000Y-219573667D03*
%TD*%
D15*
%TO.C,R1625*%
X249300000Y-69183667D03*
X249300000Y-70203667D03*
%TD*%
D59*
%TO.C,J201*%
X93750000Y-161800000D03*
X93750000Y-159800000D03*
D60*
X99500000Y-164150000D03*
X99500000Y-157450000D03*
%TD*%
D16*
%TO.C,C204*%
X62460000Y-233270000D03*
X61500000Y-233270000D03*
%TD*%
D20*
%TO.C,CB107*%
X58300000Y-228420000D03*
X58300000Y-229380000D03*
%TD*%
D12*
%TO.C,R804*%
X52700000Y-65110000D03*
X52700000Y-64090000D03*
%TD*%
D13*
%TO.C,R1608*%
X209710000Y-97293667D03*
X208690000Y-97293667D03*
%TD*%
D45*
%TO.C,FB303*%
X138030000Y-84500000D03*
X139000000Y-84500000D03*
%TD*%
D11*
%TO.C,C706*%
X53900000Y-206280000D03*
X53900000Y-205320000D03*
%TD*%
D16*
%TO.C,C1505*%
X236080000Y-64093667D03*
X235120000Y-64093667D03*
%TD*%
D84*
%TO.C,U1001*%
X181950000Y-164831167D03*
X182900000Y-164831167D03*
X183850000Y-164831167D03*
X183850000Y-162556167D03*
X181950000Y-162556167D03*
%TD*%
D12*
%TO.C,R810*%
X60700000Y-216110000D03*
X60700000Y-215090000D03*
%TD*%
D17*
%TO.C,MK1403*%
X238980000Y-77193667D03*
D18*
X242390000Y-77263667D03*
X242390000Y-74723667D03*
D17*
X238980000Y-74793667D03*
X238980000Y-75993667D03*
%TD*%
D13*
%TO.C,R1634*%
X251410000Y-155393667D03*
X250390000Y-155393667D03*
%TD*%
D12*
%TO.C,R1618*%
X256000000Y-144603667D03*
X256000000Y-143583667D03*
%TD*%
D21*
%TO.C,R1629*%
X254990000Y-80393667D03*
X256010000Y-80393667D03*
%TD*%
D17*
%TO.C,MK1401*%
X236200000Y-85213667D03*
D18*
X236270000Y-81803667D03*
X233730000Y-81803667D03*
D17*
X233800000Y-85213667D03*
X235000000Y-85213667D03*
%TD*%
D16*
%TO.C,C601*%
X49580000Y-138000000D03*
X48620000Y-138000000D03*
%TD*%
%TO.C,C409*%
X72880000Y-57200000D03*
X71920000Y-57200000D03*
%TD*%
D13*
%TO.C,R1608*%
X209710000Y-172293667D03*
X208690000Y-172293667D03*
%TD*%
D12*
%TO.C,R1616*%
X193450000Y-217053667D03*
X193450000Y-216033667D03*
%TD*%
D75*
%TO.C,SW901*%
X100200000Y-251400000D03*
X100200000Y-249400000D03*
X100200000Y-245400000D03*
X100200000Y-243400000D03*
X97400000Y-251400000D03*
X97400000Y-249400000D03*
X97400000Y-245400000D03*
X97400000Y-243400000D03*
%TD*%
D12*
%TO.C,R403*%
X82000000Y-129010000D03*
X82000000Y-127990000D03*
%TD*%
D11*
%TO.C,CB1408*%
X187600000Y-77073667D03*
X187600000Y-76113667D03*
%TD*%
D15*
%TO.C,R1631*%
X206500000Y-82383667D03*
X206500000Y-83403667D03*
%TD*%
D16*
%TO.C,CB1002*%
X183880000Y-247593667D03*
X182920000Y-247593667D03*
%TD*%
%TO.C,C302*%
X164480000Y-139400000D03*
X163520000Y-139400000D03*
%TD*%
%TO.C,C1002*%
X183880000Y-178193667D03*
X182920000Y-178193667D03*
%TD*%
D22*
%TO.C,C1506*%
X184270000Y-84943667D03*
X185230000Y-84943667D03*
%TD*%
D16*
%TO.C,C1611*%
X255980000Y-231393667D03*
X255020000Y-231393667D03*
%TD*%
D12*
%TO.C,R1630*%
X257100000Y-232803667D03*
X257100000Y-231783667D03*
%TD*%
D88*
%TO.C,U1601*%
X255150000Y-73193667D03*
X254500000Y-73193667D03*
X253850000Y-73193667D03*
X253200000Y-73193667D03*
X252550000Y-73193667D03*
X251900000Y-73193667D03*
X251250000Y-73193667D03*
X251250000Y-78793667D03*
X251900000Y-78793667D03*
X252550000Y-78793667D03*
X253200000Y-78793667D03*
X253850000Y-78793667D03*
X254500000Y-78793667D03*
X255150000Y-78793667D03*
%TD*%
D20*
%TO.C,CB1603*%
X212700000Y-226633667D03*
X212700000Y-227593667D03*
%TD*%
%TO.C,CB1407*%
X237300000Y-149913667D03*
X237300000Y-150873667D03*
%TD*%
D21*
%TO.C,C1602*%
X207690000Y-164893667D03*
X208710000Y-164893667D03*
%TD*%
D17*
%TO.C,MK1406*%
X184150000Y-143723667D03*
D18*
X184080000Y-147133667D03*
X186620000Y-147133667D03*
D17*
X186550000Y-143723667D03*
X185350000Y-143723667D03*
%TD*%
D16*
%TO.C,C204*%
X62460000Y-158270000D03*
X61500000Y-158270000D03*
%TD*%
D12*
%TO.C,R902*%
X95300000Y-74055200D03*
X95300000Y-73035200D03*
%TD*%
D20*
%TO.C,C411*%
X80540000Y-130010000D03*
X80540000Y-130970000D03*
%TD*%
D16*
%TO.C,C1004*%
X208680000Y-80393667D03*
X207720000Y-80393667D03*
%TD*%
D21*
%TO.C,R410*%
X80490000Y-124050000D03*
X81510000Y-124050000D03*
%TD*%
D22*
%TO.C,C1612*%
X205420000Y-81393667D03*
X206380000Y-81393667D03*
%TD*%
D13*
%TO.C,R806*%
X53610000Y-63000000D03*
X52590000Y-63000000D03*
%TD*%
D68*
%TO.C,U201*%
X91325000Y-63162500D03*
D69*
X91250000Y-63700000D03*
D68*
X91325000Y-64237500D03*
X93025000Y-64237500D03*
D69*
X93100000Y-63700000D03*
D68*
X93025000Y-63162500D03*
%TD*%
D16*
%TO.C,C1507*%
X195730000Y-66043667D03*
X194770000Y-66043667D03*
%TD*%
D11*
%TO.C,CB1608*%
X207600000Y-158373667D03*
X207600000Y-157413667D03*
%TD*%
D20*
%TO.C,CB106*%
X68600000Y-227320000D03*
X68600000Y-228280000D03*
%TD*%
D68*
%TO.C,U201*%
X91325000Y-138162500D03*
D69*
X91250000Y-138700000D03*
D68*
X91325000Y-139237500D03*
X93025000Y-139237500D03*
D69*
X93100000Y-138700000D03*
D68*
X93025000Y-138162500D03*
%TD*%
D20*
%TO.C,C1605*%
X249500000Y-167733667D03*
X249500000Y-168693667D03*
%TD*%
D12*
%TO.C,R1635*%
X204300000Y-157803667D03*
X204300000Y-156783667D03*
%TD*%
%TO.C,R414*%
X76400000Y-210360000D03*
X76400000Y-209340000D03*
%TD*%
D86*
%TO.C,R916*%
X87525000Y-79300000D03*
X85875000Y-79300000D03*
%TD*%
D17*
%TO.C,MK1407*%
X186550000Y-233263667D03*
D18*
X186620000Y-229853667D03*
X184080000Y-229853667D03*
D17*
X184150000Y-233263667D03*
X185350000Y-233263667D03*
%TD*%
D16*
%TO.C,CB1404*%
X236080000Y-65093667D03*
X235120000Y-65093667D03*
%TD*%
%TO.C,CB1402*%
X186430000Y-217043667D03*
X185470000Y-217043667D03*
%TD*%
D13*
%TO.C,R1634*%
X206410000Y-80393667D03*
X205390000Y-80393667D03*
%TD*%
D16*
%TO.C,CB1602*%
X205480000Y-170213667D03*
X204520000Y-170213667D03*
%TD*%
D76*
%TO.C,U401*%
X73215000Y-129500000D03*
X73715000Y-129500000D03*
X74215000Y-129500000D03*
X74715000Y-129500000D03*
X75215000Y-129500000D03*
D77*
X75715000Y-129500000D03*
X76215000Y-129500000D03*
X76715000Y-129500000D03*
X77215000Y-129500000D03*
X77715000Y-129500000D03*
D78*
X78465000Y-128750000D03*
X78465000Y-128250000D03*
X78465000Y-127750000D03*
X78465000Y-127250000D03*
X78465000Y-126750000D03*
D79*
X78465000Y-126250000D03*
X78465000Y-125750000D03*
X78465000Y-125250000D03*
X78465000Y-124750000D03*
X78465000Y-124250000D03*
D77*
X77715000Y-123500000D03*
X77215000Y-123500000D03*
X76715000Y-123500000D03*
X76215000Y-123500000D03*
X75715000Y-123500000D03*
D76*
X75215000Y-123500000D03*
X74715000Y-123500000D03*
X74215000Y-123500000D03*
X73715000Y-123500000D03*
X73215000Y-123500000D03*
D79*
X72465000Y-124250000D03*
X72465000Y-124750000D03*
X72465000Y-125250000D03*
X72465000Y-125750000D03*
X72465000Y-126250000D03*
D78*
X72465000Y-126750000D03*
X72465000Y-127250000D03*
X72465000Y-127750000D03*
X72465000Y-128250000D03*
X72465000Y-128750000D03*
D80*
X74465000Y-127500000D03*
D81*
X76465000Y-127500000D03*
D82*
X74465000Y-125500000D03*
D83*
X76465000Y-125500000D03*
%TD*%
D86*
%TO.C,R915*%
X90725000Y-79300000D03*
X89075000Y-79300000D03*
%TD*%
D20*
%TO.C,C1607*%
X211000000Y-237313667D03*
X211000000Y-238273667D03*
%TD*%
D15*
%TO.C,R1003*%
X226900000Y-96483667D03*
X226900000Y-97503667D03*
%TD*%
D16*
%TO.C,C1604*%
X254680000Y-241493667D03*
X253720000Y-241493667D03*
%TD*%
D20*
%TO.C,CB107*%
X58300000Y-153420000D03*
X58300000Y-154380000D03*
%TD*%
D16*
%TO.C,CB1202*%
X88680000Y-126950000D03*
X87720000Y-126950000D03*
%TD*%
D13*
%TO.C,R801*%
X51610000Y-144000000D03*
X50590000Y-144000000D03*
%TD*%
D40*
%TO.C,D901*%
X95195300Y-250600000D03*
X93620300Y-250600000D03*
%TD*%
D16*
%TO.C,C908*%
X94180000Y-75000000D03*
X93220000Y-75000000D03*
%TD*%
D42*
%TO.C,J1101*%
X230575000Y-181543667D03*
X239425000Y-181593667D03*
D43*
X236875000Y-178593667D03*
D44*
X235625000Y-178593667D03*
X234375000Y-178593667D03*
X233125000Y-178593667D03*
%TD*%
D42*
%TO.C,J1101*%
X185575000Y-256543667D03*
X194425000Y-256593667D03*
D43*
X191875000Y-253593667D03*
D44*
X190625000Y-253593667D03*
X189375000Y-253593667D03*
X188125000Y-253593667D03*
%TD*%
D22*
%TO.C,C1006*%
X226920000Y-92693667D03*
X227880000Y-92693667D03*
%TD*%
%TO.C,CB108*%
X88720000Y-65600000D03*
X89680000Y-65600000D03*
%TD*%
D11*
%TO.C,CB1606*%
X257700000Y-150393667D03*
X257700000Y-149433667D03*
%TD*%
D13*
%TO.C,R409*%
X81510000Y-126050000D03*
X80490000Y-126050000D03*
%TD*%
D22*
%TO.C,C502*%
X48620000Y-58400000D03*
X49580000Y-58400000D03*
%TD*%
D20*
%TO.C,CB1003*%
X206500000Y-235313667D03*
X206500000Y-236273667D03*
%TD*%
D46*
%TO.C,C1601*%
X252250000Y-237893667D03*
X254150000Y-237893667D03*
%TD*%
D16*
%TO.C,C1507*%
X240730000Y-216043667D03*
X239770000Y-216043667D03*
%TD*%
D22*
%TO.C,C414*%
X75320000Y-208300000D03*
X76280000Y-208300000D03*
%TD*%
D61*
%TO.C,D103*%
X85412500Y-143600000D03*
X86987500Y-143600000D03*
%TD*%
D21*
%TO.C,R205*%
X61490000Y-84400000D03*
X62510000Y-84400000D03*
%TD*%
D27*
%TO.C,C1614*%
X249000000Y-221581167D03*
X249000000Y-223006167D03*
%TD*%
D12*
%TO.C,R403*%
X82000000Y-204010000D03*
X82000000Y-202990000D03*
%TD*%
D16*
%TO.C,C203*%
X100280000Y-131500000D03*
X99320000Y-131500000D03*
%TD*%
%TO.C,C801*%
X51580000Y-145200000D03*
X50620000Y-145200000D03*
%TD*%
%TO.C,C405*%
X70480000Y-199000000D03*
X69520000Y-199000000D03*
%TD*%
D21*
%TO.C,R1607*%
X251690000Y-247293667D03*
X252710000Y-247293667D03*
%TD*%
D12*
%TO.C,R1001*%
X183900000Y-92603667D03*
X183900000Y-91583667D03*
%TD*%
%TO.C,R1622*%
X204800000Y-225403667D03*
X204800000Y-224383667D03*
%TD*%
D34*
%TO.C,FB502*%
X49500000Y-206315000D03*
X49500000Y-207285000D03*
%TD*%
D33*
%TO.C,C710*%
X62500000Y-206275000D03*
X62500000Y-203325000D03*
%TD*%
D86*
%TO.C,R915*%
X90725000Y-154300000D03*
X89075000Y-154300000D03*
%TD*%
D25*
%TO.C,U1201*%
X88950000Y-199187500D03*
X88450000Y-199187500D03*
X87950000Y-199187500D03*
X87450000Y-199187500D03*
D26*
X87437500Y-199700000D03*
X87437500Y-200200000D03*
D25*
X87450000Y-200712500D03*
X87950000Y-200712500D03*
X88450000Y-200712500D03*
X88950000Y-200712500D03*
D26*
X88962500Y-200200000D03*
X88962500Y-199700000D03*
%TD*%
D53*
%TO.C,D102*%
X57200000Y-247525000D03*
X57200000Y-249275000D03*
%TD*%
D20*
%TO.C,C807*%
X53900000Y-140120000D03*
X53900000Y-141080000D03*
%TD*%
%TO.C,C412*%
X82000000Y-55010000D03*
X82000000Y-55970000D03*
%TD*%
D35*
%TO.C,J204*%
X46775000Y-165840000D03*
X46775000Y-164740000D03*
X46775000Y-163640000D03*
X46775000Y-162540000D03*
X46775000Y-161440000D03*
X46775000Y-160340000D03*
X46775000Y-159240000D03*
X46775000Y-158140000D03*
D36*
X58400000Y-156200000D03*
X49400000Y-156200000D03*
D37*
X47400000Y-170185000D03*
D38*
X58730000Y-170085000D03*
D39*
X59525000Y-165780000D03*
X59525000Y-158000000D03*
D38*
X47250000Y-155795000D03*
%TD*%
D13*
%TO.C,R1634*%
X206410000Y-230393667D03*
X205390000Y-230393667D03*
%TD*%
D20*
%TO.C,CB1609*%
X252600000Y-68613667D03*
X252600000Y-69573667D03*
%TD*%
D17*
%TO.C,MK1405*%
X240850000Y-233263667D03*
D18*
X240920000Y-229853667D03*
X238380000Y-229853667D03*
D17*
X238450000Y-233263667D03*
X239650000Y-233263667D03*
%TD*%
D16*
%TO.C,CB1002*%
X228880000Y-172593667D03*
X227920000Y-172593667D03*
%TD*%
D15*
%TO.C,R909*%
X94300000Y-228800000D03*
X94300000Y-229820000D03*
%TD*%
D34*
%TO.C,FB304*%
X83200000Y-91915000D03*
X83200000Y-92885000D03*
%TD*%
D11*
%TO.C,CB401*%
X77900000Y-135330000D03*
X77900000Y-134370000D03*
%TD*%
D14*
%TO.C,FB1001*%
X188285000Y-100393667D03*
X187315000Y-100393667D03*
%TD*%
D87*
%TO.C,C1201*%
X86200000Y-125517500D03*
X86200000Y-124382500D03*
%TD*%
D21*
%TO.C,R1302*%
X85890000Y-152900000D03*
X86910000Y-152900000D03*
%TD*%
D20*
%TO.C,C101*%
X83300000Y-70020000D03*
X83300000Y-70980000D03*
%TD*%
D21*
%TO.C,R204*%
X61490000Y-160600000D03*
X62510000Y-160600000D03*
%TD*%
D16*
%TO.C,C1504*%
X253680000Y-70593667D03*
X252720000Y-70593667D03*
%TD*%
D22*
%TO.C,C1102*%
X193920000Y-102193667D03*
X194880000Y-102193667D03*
%TD*%
D17*
%TO.C,MK1402*%
X188800000Y-216773667D03*
D18*
X188730000Y-220183667D03*
X191270000Y-220183667D03*
D17*
X191200000Y-216773667D03*
X190000000Y-216773667D03*
%TD*%
D12*
%TO.C,R1635*%
X249300000Y-82803667D03*
X249300000Y-81783667D03*
%TD*%
D45*
%TO.C,FB901*%
X77015000Y-232600000D03*
X77985000Y-232600000D03*
%TD*%
D22*
%TO.C,C303*%
X141370000Y-216950000D03*
X142330000Y-216950000D03*
%TD*%
D16*
%TO.C,C302*%
X164480000Y-64400000D03*
X163520000Y-64400000D03*
%TD*%
D12*
%TO.C,R1618*%
X211000000Y-144603667D03*
X211000000Y-143583667D03*
%TD*%
D16*
%TO.C,C1007*%
X183880000Y-246393667D03*
X182920000Y-246393667D03*
%TD*%
D21*
%TO.C,R105*%
X88690000Y-68600000D03*
X89710000Y-68600000D03*
%TD*%
D22*
%TO.C,CB105*%
X71220000Y-64700000D03*
X72180000Y-64700000D03*
%TD*%
D19*
%TO.C,D1001*%
X183120000Y-180788667D03*
X183120000Y-182363667D03*
%TD*%
D15*
%TO.C,R809*%
X60700000Y-217090000D03*
X60700000Y-218110000D03*
%TD*%
D20*
%TO.C,C411*%
X80540000Y-55010000D03*
X80540000Y-55970000D03*
%TD*%
D16*
%TO.C,C908*%
X94180000Y-225000000D03*
X93220000Y-225000000D03*
%TD*%
D13*
%TO.C,R406*%
X68960000Y-209200000D03*
X67940000Y-209200000D03*
%TD*%
%TO.C,R1402*%
X64810000Y-156000000D03*
X63790000Y-156000000D03*
%TD*%
D15*
%TO.C,R1002*%
X181700000Y-106083667D03*
X181700000Y-107103667D03*
%TD*%
D12*
%TO.C,R1611*%
X233800000Y-65103667D03*
X233800000Y-64083667D03*
%TD*%
D53*
%TO.C,D102*%
X57200000Y-97525000D03*
X57200000Y-99275000D03*
%TD*%
D13*
%TO.C,R1402*%
X64810000Y-81000000D03*
X63790000Y-81000000D03*
%TD*%
D17*
%TO.C,MK1402*%
X233800000Y-66773667D03*
D18*
X233730000Y-70183667D03*
X236270000Y-70183667D03*
D17*
X236200000Y-66773667D03*
X235000000Y-66773667D03*
%TD*%
D22*
%TO.C,C1610*%
X250420000Y-145593667D03*
X251380000Y-145593667D03*
%TD*%
D48*
%TO.C,C1613*%
X212400000Y-80406167D03*
X212400000Y-78981167D03*
%TD*%
D12*
%TO.C,R1619*%
X206500000Y-144603667D03*
X206500000Y-143583667D03*
%TD*%
D22*
%TO.C,C708*%
X55020000Y-132500000D03*
X55980000Y-132500000D03*
%TD*%
D52*
%TO.C,R209*%
X91375000Y-140800000D03*
X93025000Y-140800000D03*
%TD*%
D11*
%TO.C,C909*%
X84600000Y-159480000D03*
X84600000Y-158520000D03*
%TD*%
D93*
%TO.C,U101*%
X71450000Y-227717200D03*
X71950000Y-227717200D03*
X72450000Y-227717200D03*
X72950000Y-227717200D03*
X73450000Y-227717200D03*
X73950000Y-227717200D03*
X74450000Y-227717200D03*
X74950000Y-227717200D03*
X75450000Y-227717200D03*
X75950000Y-227717200D03*
X76450000Y-227717200D03*
X76950000Y-227717200D03*
X77450000Y-227717200D03*
X77950000Y-227717200D03*
X78450000Y-227717200D03*
X78950000Y-227717200D03*
D94*
X80875000Y-225792200D03*
X80875000Y-225292200D03*
X80875000Y-224792200D03*
X80875000Y-224292200D03*
X80875000Y-223792200D03*
X80875000Y-223292200D03*
X80875000Y-222792200D03*
X80875000Y-222292200D03*
X80875000Y-221792200D03*
X80875000Y-221292200D03*
X80875000Y-220792200D03*
X80875000Y-220292200D03*
X80875000Y-219792200D03*
X80875000Y-219292200D03*
X80875000Y-218792200D03*
X80875000Y-218292200D03*
D93*
X78950000Y-216367200D03*
X78450000Y-216367200D03*
X77950000Y-216367200D03*
X77450000Y-216367200D03*
X76950000Y-216367200D03*
X76450000Y-216367200D03*
X75950000Y-216367200D03*
X75450000Y-216367200D03*
X74950000Y-216367200D03*
X74450000Y-216367200D03*
X73950000Y-216367200D03*
X73450000Y-216367200D03*
X72950000Y-216367200D03*
X72450000Y-216367200D03*
X71950000Y-216367200D03*
X71450000Y-216367200D03*
D94*
X69525000Y-218292200D03*
X69525000Y-218792200D03*
X69525000Y-219292200D03*
X69525000Y-219792200D03*
X69525000Y-220292200D03*
X69525000Y-220792200D03*
X69525000Y-221292200D03*
X69525000Y-221792200D03*
X69525000Y-222292200D03*
X69525000Y-222792200D03*
X69525000Y-223292200D03*
X69525000Y-223792200D03*
X69525000Y-224292200D03*
X69525000Y-224792200D03*
X69525000Y-225292200D03*
X69525000Y-225792200D03*
%TD*%
D21*
%TO.C,R104*%
X88690000Y-142000000D03*
X89710000Y-142000000D03*
%TD*%
D12*
%TO.C,R1611*%
X233800000Y-215103667D03*
X233800000Y-214083667D03*
%TD*%
D13*
%TO.C,R706*%
X53610000Y-201200000D03*
X52590000Y-201200000D03*
%TD*%
D88*
%TO.C,U1601*%
X210150000Y-223193667D03*
X209500000Y-223193667D03*
X208850000Y-223193667D03*
X208200000Y-223193667D03*
X207550000Y-223193667D03*
X206900000Y-223193667D03*
X206250000Y-223193667D03*
X206250000Y-228793667D03*
X206900000Y-228793667D03*
X207550000Y-228793667D03*
X208200000Y-228793667D03*
X208850000Y-228793667D03*
X209500000Y-228793667D03*
X210150000Y-228793667D03*
%TD*%
D45*
%TO.C,FB301*%
X163515000Y-65600000D03*
X164485000Y-65600000D03*
%TD*%
D11*
%TO.C,CB1601*%
X205500000Y-93693667D03*
X205500000Y-92733667D03*
%TD*%
D53*
%TO.C,D101*%
X59600000Y-97525000D03*
X59600000Y-99275000D03*
%TD*%
D16*
%TO.C,C712*%
X55980000Y-58500000D03*
X55020000Y-58500000D03*
%TD*%
D19*
%TO.C,D303*%
X167400000Y-163825000D03*
X167400000Y-165400000D03*
%TD*%
D67*
%TO.C,F901*%
X97325000Y-148900000D03*
X99075000Y-148900000D03*
%TD*%
D17*
%TO.C,MK1407*%
X231550000Y-158263667D03*
D18*
X231620000Y-154853667D03*
X229080000Y-154853667D03*
D17*
X229150000Y-158263667D03*
X230350000Y-158263667D03*
%TD*%
D22*
%TO.C,CB1405*%
X233920000Y-161893667D03*
X234880000Y-161893667D03*
%TD*%
D12*
%TO.C,R401*%
X68000000Y-206110000D03*
X68000000Y-205090000D03*
%TD*%
D15*
%TO.C,R803*%
X52700000Y-218090000D03*
X52700000Y-219110000D03*
%TD*%
D16*
%TO.C,C305*%
X139000000Y-66950000D03*
X138040000Y-66950000D03*
%TD*%
D95*
%TO.C,U1401*%
X63825000Y-159575000D03*
X64475000Y-159575000D03*
X65125000Y-159575000D03*
X65775000Y-159575000D03*
X65775000Y-161625000D03*
X65125000Y-161625000D03*
X64475000Y-161625000D03*
X63825000Y-161625000D03*
%TD*%
D20*
%TO.C,C304*%
X147900000Y-78145000D03*
X147900000Y-79105000D03*
%TD*%
%TO.C,CB1604*%
X203700000Y-151613667D03*
X203700000Y-152573667D03*
%TD*%
D29*
%TO.C,U1002*%
X183850000Y-249256167D03*
X182900000Y-249256167D03*
X181950000Y-249256167D03*
X181950000Y-251531167D03*
X183850000Y-251531167D03*
%TD*%
D11*
%TO.C,C910*%
X86862500Y-56880000D03*
X86862500Y-55920000D03*
%TD*%
%TO.C,C809*%
X64300000Y-68080000D03*
X64300000Y-67120000D03*
%TD*%
D72*
%TO.C,U901*%
X96774500Y-152411200D03*
X97614500Y-152411200D03*
X96774500Y-151571200D03*
X97614500Y-151571200D03*
D73*
X96444500Y-153453700D03*
X96944500Y-153453700D03*
X97444500Y-153453700D03*
X97944500Y-153453700D03*
D74*
X98657000Y-152741200D03*
X98657000Y-152241200D03*
X98657000Y-151741200D03*
X98657000Y-151241200D03*
D73*
X97944500Y-150528700D03*
X97444500Y-150528700D03*
X96944500Y-150528700D03*
X96444500Y-150528700D03*
D74*
X95732000Y-151241200D03*
X95732000Y-151741200D03*
X95732000Y-152241200D03*
X95732000Y-152741200D03*
%TD*%
M02*
