M48
; DRILL file {KiCad 7.0.1-3b83917a11~172~ubuntu22.04.1} date Mon 08 May 2023 15:20:20
; FORMAT={-:-/ absolute / metric / decimal}
; #@! TF.CreationDate,2023-05-08T15:20:20+02:00
; #@! TF.GenerationSoftware,Kicad,Pcbnew,7.0.1-3b83917a11~172~ubuntu22.04.1
; #@! TF.FileFunction,Plated,1,4,PTH
FMAT,2
METRIC
; #@! TA.AperFunction,Plated,PTH,ViaDrill
T1C0.200
; #@! TA.AperFunction,Plated,PTH,ComponentDrill
T2C0.200
; #@! TA.AperFunction,Plated,PTH,ViaDrill
T3C0.250
; #@! TA.AperFunction,Plated,PTH,ComponentDrill
T4C0.500
; #@! TA.AperFunction,Plated,PTH,ComponentDrill
T5C0.650
; #@! TA.AperFunction,Plated,PTH,ComponentDrill
T6C1.000
; #@! TA.AperFunction,Plated,PTH,ComponentDrill
T7C3.200
%
G90
G05
T1
X43.45Y-85.816
X43.45Y-161.816
X43.45Y-237.816
X44.85Y-85.286
X44.85Y-161.286
X44.85Y-237.286
X44.91Y-84.74
X44.91Y-160.74
X44.91Y-236.74
X45.7Y-76.2
X45.7Y-152.2
X45.7Y-228.2
X45.75Y-81.25
X45.75Y-157.25
X45.75Y-233.25
X47.1Y-83.62
X47.1Y-159.62
X47.1Y-235.62
X51.0Y-78.3
X51.0Y-154.3
X51.0Y-230.3
X51.325Y-78.775
X51.325Y-154.775
X51.325Y-230.775
X51.55Y-77.15
X51.55Y-153.15
X51.55Y-229.15
X51.925Y-71.025
X51.925Y-147.025
X51.925Y-223.025
X60.449Y-66.551
X60.449Y-142.551
X60.449Y-218.551
X61.1Y-64.8
X61.1Y-140.8
X61.1Y-216.8
X62.79Y-64.233
X62.79Y-140.233
X62.79Y-216.233
X65.8Y-65.8
X65.8Y-141.8
X65.8Y-217.8
X67.569Y-69.525
X67.569Y-145.525
X67.569Y-221.525
X69.097Y-63.0
X69.097Y-139.0
X69.097Y-215.0
X69.154Y-62.453
X69.154Y-138.453
X69.154Y-214.453
X70.45Y-63.65
X70.45Y-139.65
X70.45Y-215.65
X74.125Y-46.75
X74.125Y-122.75
X74.125Y-198.75
X185.539Y-82.408
X185.539Y-158.408
X185.539Y-234.408
X187.8Y-57.8
X187.8Y-133.8
X187.8Y-209.8
X190.2Y-84.0
X190.2Y-160.0
X190.2Y-236.0
X192.45Y-59.2
X192.45Y-135.2
X192.45Y-211.2
X202.3Y-76.1
X202.3Y-152.1
X202.3Y-228.1
X202.4Y-65.8
X202.4Y-141.8
X202.4Y-217.8
X211.4Y-76.2
X211.4Y-152.2
X211.4Y-228.2
X212.1Y-65.811
X212.1Y-141.811
X212.1Y-217.811
X231.539Y-82.408
X231.539Y-158.408
X231.539Y-234.408
X233.8Y-57.8
X233.8Y-133.8
X233.8Y-209.8
X236.2Y-84.0
X236.2Y-160.0
X236.2Y-236.0
X238.45Y-59.2
X238.45Y-135.2
X238.45Y-211.2
X248.3Y-76.1
X248.3Y-152.1
X248.3Y-228.1
X248.4Y-65.8
X248.4Y-141.8
X248.4Y-217.8
X257.4Y-76.2
X257.4Y-152.2
X257.4Y-228.2
X258.101Y-65.811
X258.101Y-141.811
X258.101Y-217.811
T2
X52.41Y-49.01
X52.41Y-50.19
X52.41Y-60.81
X52.41Y-61.99
X52.41Y-125.01
X52.41Y-126.19
X52.41Y-136.81
X52.41Y-137.99
X52.41Y-201.01
X52.41Y-202.19
X52.41Y-212.81
X52.41Y-213.99
X53.59Y-49.01
X53.59Y-50.19
X53.59Y-60.81
X53.59Y-61.99
X53.59Y-125.01
X53.59Y-126.19
X53.59Y-136.81
X53.59Y-137.99
X53.59Y-201.01
X53.59Y-202.19
X53.59Y-212.81
X53.59Y-213.99
X91.605Y-71.401
X91.605Y-72.581
X91.605Y-147.401
X91.605Y-148.581
X91.605Y-223.401
X91.605Y-224.581
X92.784Y-71.401
X92.784Y-72.581
X92.784Y-147.401
X92.784Y-148.581
X92.784Y-223.401
X92.784Y-224.581
X206.61Y-88.81
X206.61Y-89.99
X206.61Y-164.81
X206.61Y-165.99
X206.61Y-240.81
X206.61Y-241.99
X207.79Y-88.81
X207.79Y-89.99
X207.79Y-164.81
X207.79Y-165.99
X207.79Y-240.81
X207.79Y-241.99
X252.61Y-88.81
X252.61Y-89.99
X252.61Y-164.81
X252.61Y-165.99
X252.61Y-240.81
X252.61Y-241.99
X253.79Y-88.81
X253.79Y-89.99
X253.79Y-164.81
X253.79Y-165.99
X253.79Y-240.81
X253.79Y-241.99
T3
X38.2Y-71.5
X38.2Y-147.5
X38.2Y-223.5
X38.25Y-69.3
X38.25Y-145.3
X38.25Y-221.3
X38.4Y-72.8
X38.4Y-148.8
X38.4Y-224.8
X39.6Y-72.8
X39.6Y-148.8
X39.6Y-224.8
X40.7Y-48.7
X40.7Y-49.3
X40.7Y-60.5
X40.7Y-61.1
X40.7Y-124.7
X40.7Y-125.3
X40.7Y-136.5
X40.7Y-137.1
X40.7Y-200.7
X40.7Y-201.3
X40.7Y-212.5
X40.7Y-213.1
X40.8Y-72.8
X40.8Y-74.8
X40.8Y-148.8
X40.8Y-150.8
X40.8Y-224.8
X40.8Y-226.8
X41.3Y-48.7
X41.3Y-49.3
X41.3Y-60.5
X41.3Y-61.1
X41.3Y-124.7
X41.3Y-125.3
X41.3Y-136.5
X41.3Y-137.1
X41.3Y-200.7
X41.3Y-201.3
X41.3Y-212.5
X41.3Y-213.1
X41.8Y-66.6
X41.8Y-142.6
X41.8Y-218.6
X42.05Y-87.95
X42.05Y-163.95
X42.05Y-239.95
X42.1Y-70.5
X42.1Y-146.5
X42.1Y-222.5
X42.8Y-80.3
X42.8Y-156.3
X42.8Y-232.3
X42.85Y-82.45
X42.85Y-158.45
X42.85Y-234.45
X42.9Y-78.65
X42.9Y-154.65
X42.9Y-230.65
X43.237Y-80.654
X43.237Y-156.654
X43.237Y-232.654
X43.3Y-80.1
X43.3Y-156.1
X43.3Y-232.1
X43.45Y-86.387
X43.45Y-162.387
X43.45Y-238.387
X43.8Y-43.2
X43.8Y-55.5
X43.8Y-66.6
X43.8Y-119.2
X43.8Y-131.5
X43.8Y-142.6
X43.8Y-195.2
X43.8Y-207.5
X43.8Y-218.6
X44.6Y-46.1
X44.6Y-53.1
X44.6Y-58.0
X44.6Y-64.8
X44.6Y-122.1
X44.6Y-129.1
X44.6Y-134.0
X44.6Y-140.8
X44.6Y-198.1
X44.6Y-205.1
X44.6Y-210.0
X44.6Y-216.8
X45.7Y-45.9
X45.7Y-53.2
X45.7Y-56.7
X45.7Y-57.9
X45.7Y-64.9
X45.7Y-121.9
X45.7Y-129.2
X45.7Y-132.7
X45.7Y-133.9
X45.7Y-140.9
X45.7Y-197.9
X45.7Y-205.2
X45.7Y-208.7
X45.7Y-209.9
X45.7Y-216.9
X45.8Y-43.2
X45.8Y-55.5
X45.8Y-66.6
X45.8Y-119.2
X45.8Y-131.5
X45.8Y-142.6
X45.8Y-195.2
X45.8Y-207.5
X45.8Y-218.6
X45.9Y-44.8
X45.9Y-120.8
X45.9Y-196.8
X45.921Y-81.988
X45.921Y-157.988
X45.921Y-233.988
X46.3Y-56.7
X46.3Y-87.9
X46.3Y-132.7
X46.3Y-163.9
X46.3Y-208.7
X46.3Y-239.9
X46.45Y-82.65
X46.45Y-158.65
X46.45Y-234.65
X46.5Y-44.8
X46.5Y-120.8
X46.5Y-196.8
X46.8Y-97.9
X46.8Y-173.9
X46.8Y-249.9
X46.9Y-84.192
X46.9Y-160.192
X46.9Y-236.192
X47.2Y-68.3
X47.2Y-144.3
X47.2Y-220.3
X47.8Y-43.2
X47.8Y-55.5
X47.8Y-66.6
X47.8Y-119.2
X47.8Y-131.5
X47.8Y-142.6
X47.8Y-195.2
X47.8Y-207.5
X47.8Y-218.6
X48.2Y-96.5
X48.2Y-172.5
X48.2Y-248.5
X48.234Y-73.934
X48.234Y-149.934
X48.234Y-225.934
X48.9Y-72.2
X48.9Y-148.2
X48.9Y-224.2
X49.8Y-43.2
X49.8Y-55.5
X49.8Y-66.6
X49.8Y-119.2
X49.8Y-131.5
X49.8Y-142.6
X49.8Y-195.2
X49.8Y-207.5
X49.8Y-218.6
X50.362Y-96.337
X50.362Y-172.338
X50.362Y-248.337
X50.7Y-52.3
X50.7Y-53.3
X50.7Y-64.09
X50.7Y-65.09
X50.7Y-128.3
X50.7Y-129.3
X50.7Y-140.09
X50.7Y-141.09
X50.7Y-204.3
X50.7Y-205.3
X50.7Y-216.09
X50.7Y-217.09
X50.8Y-91.6
X50.8Y-97.1
X50.8Y-167.6
X50.8Y-173.1
X50.8Y-243.6
X50.8Y-249.1
X50.9Y-76.95
X50.9Y-152.95
X50.9Y-228.95
X51.4Y-76.45
X51.4Y-91.6
X51.4Y-96.85
X51.4Y-152.45
X51.4Y-167.6
X51.4Y-172.85
X51.4Y-228.45
X51.4Y-243.6
X51.4Y-248.85
X51.65Y-80.9
X51.65Y-156.9
X51.65Y-232.9
X51.8Y-43.2
X51.8Y-55.5
X51.8Y-66.6
X51.8Y-119.2
X51.8Y-131.5
X51.8Y-142.6
X51.8Y-195.2
X51.8Y-207.5
X51.8Y-218.6
X52.2Y-98.3
X52.2Y-174.3
X52.2Y-250.3
X52.4Y-85.65
X52.4Y-161.65
X52.4Y-237.65
X52.6Y-87.9
X52.6Y-163.9
X52.6Y-239.9
X52.85Y-70.75
X52.85Y-146.75
X52.85Y-222.75
X52.9Y-45.91
X52.9Y-46.91
X52.9Y-52.3
X52.9Y-53.3
X52.9Y-57.7
X52.9Y-58.7
X52.9Y-64.09
X52.9Y-65.09
X52.9Y-121.91
X52.9Y-122.91
X52.9Y-128.3
X52.9Y-129.3
X52.9Y-133.7
X52.9Y-134.7
X52.9Y-140.09
X52.9Y-141.09
X52.9Y-197.91
X52.9Y-198.91
X52.9Y-204.3
X52.9Y-205.3
X52.9Y-209.7
X52.9Y-210.7
X52.9Y-216.09
X52.9Y-217.09
X53.0Y-93.6
X53.0Y-169.6
X53.0Y-245.6
X53.444Y-70.144
X53.444Y-146.144
X53.444Y-222.144
X53.67Y-96.67
X53.67Y-172.67
X53.67Y-248.67
X53.8Y-43.2
X53.8Y-55.5
X53.8Y-119.2
X53.8Y-131.5
X53.8Y-195.2
X53.8Y-207.5
X54.4Y-52.3
X54.4Y-53.3
X54.4Y-64.09
X54.4Y-65.09
X54.4Y-128.3
X54.4Y-129.3
X54.4Y-140.09
X54.4Y-141.09
X54.4Y-204.3
X54.4Y-205.3
X54.4Y-216.09
X54.4Y-217.09
X54.5Y-48.2
X54.5Y-60.0
X54.5Y-124.2
X54.5Y-136.0
X54.5Y-200.2
X54.5Y-212.0
X54.6Y-93.3
X54.6Y-169.3
X54.6Y-245.3
X55.4Y-77.4
X55.4Y-153.4
X55.4Y-229.4
X55.65Y-76.85
X55.65Y-152.85
X55.65Y-228.85
X55.8Y-43.2
X55.8Y-55.5
X55.8Y-66.6
X55.8Y-119.2
X55.8Y-131.5
X55.8Y-142.6
X55.8Y-195.2
X55.8Y-207.5
X55.8Y-218.6
X56.4Y-76.3
X56.4Y-152.3
X56.4Y-228.3
X56.8Y-75.9
X56.8Y-151.9
X56.8Y-227.9
X57.35Y-70.5
X57.35Y-146.5
X57.35Y-222.5
X57.8Y-43.2
X57.8Y-55.5
X57.8Y-65.6
X57.8Y-119.2
X57.8Y-131.5
X57.8Y-141.6
X57.8Y-195.2
X57.8Y-207.5
X57.8Y-217.6
X58.0Y-89.8
X58.0Y-90.3
X58.0Y-165.8
X58.0Y-166.3
X58.0Y-241.8
X58.0Y-242.3
X58.1Y-44.2
X58.1Y-120.2
X58.1Y-196.2
X58.8Y-80.2
X58.8Y-156.2
X58.8Y-232.2
X59.0Y-47.1
X59.0Y-123.1
X59.0Y-199.1
X59.79Y-85.38
X59.79Y-161.38
X59.79Y-237.38
X59.8Y-43.2
X59.8Y-51.2
X59.8Y-55.5
X59.8Y-60.0
X59.8Y-62.6
X59.8Y-63.6
X59.8Y-84.775
X59.8Y-119.2
X59.8Y-127.2
X59.8Y-131.5
X59.8Y-136.0
X59.8Y-138.6
X59.8Y-139.6
X59.8Y-160.775
X59.8Y-195.2
X59.8Y-203.2
X59.8Y-207.5
X59.8Y-212.0
X59.8Y-214.6
X59.8Y-215.6
X59.8Y-236.775
X60.1Y-82.3
X60.1Y-158.3
X60.1Y-234.3
X60.5Y-75.2
X60.5Y-76.6
X60.5Y-151.2
X60.5Y-152.6
X60.5Y-227.2
X60.5Y-228.6
X60.696Y-67.196
X60.696Y-143.196
X60.696Y-219.196
X60.8Y-65.979
X60.8Y-141.979
X60.8Y-217.979
X60.9Y-71.8
X60.9Y-147.8
X60.9Y-223.8
X61.0Y-76.0
X61.0Y-152.0
X61.0Y-228.0
X61.2Y-71.4
X61.2Y-147.4
X61.2Y-223.4
X61.3Y-65.5
X61.3Y-141.5
X61.3Y-217.5
X61.4Y-62.0
X61.4Y-138.0
X61.4Y-214.0
X61.6Y-82.2
X61.6Y-158.2
X61.6Y-234.2
X62.15Y-80.6
X62.15Y-156.6
X62.15Y-232.6
X62.2Y-43.2
X62.2Y-48.2
X62.2Y-50.2
X62.2Y-52.2
X62.2Y-54.2
X62.2Y-56.2
X62.2Y-58.1
X62.2Y-60.2
X62.2Y-74.8
X62.2Y-77.7
X62.2Y-79.7
X62.2Y-119.2
X62.2Y-124.2
X62.2Y-126.2
X62.2Y-128.2
X62.2Y-130.2
X62.2Y-132.2
X62.2Y-134.1
X62.2Y-136.2
X62.2Y-150.8
X62.2Y-153.7
X62.2Y-155.7
X62.2Y-195.2
X62.2Y-200.2
X62.2Y-202.2
X62.2Y-204.2
X62.2Y-206.2
X62.2Y-208.2
X62.2Y-210.1
X62.2Y-212.2
X62.2Y-226.8
X62.2Y-229.7
X62.2Y-231.7
X62.4Y-74.15
X62.4Y-150.15
X62.4Y-226.15
X62.6Y-87.1
X62.6Y-87.7
X62.6Y-163.1
X62.6Y-163.7
X62.6Y-239.1
X62.6Y-239.7
X62.8Y-45.1
X62.8Y-63.661
X62.8Y-77.2
X62.8Y-121.1
X62.8Y-139.661
X62.8Y-153.2
X62.8Y-197.1
X62.8Y-215.661
X62.8Y-229.2
X62.85Y-97.75
X62.85Y-173.75
X62.85Y-249.75
X62.9Y-69.6
X62.9Y-145.6
X62.9Y-221.6
X63.3Y-69.2
X63.3Y-77.3
X63.3Y-145.2
X63.3Y-153.3
X63.3Y-221.2
X63.3Y-229.3
X63.6Y-74.15
X63.6Y-150.15
X63.6Y-226.15
X63.8Y-44.0
X63.8Y-45.0
X63.8Y-48.0
X63.8Y-49.0
X63.8Y-86.575
X63.8Y-89.2
X63.8Y-120.0
X63.8Y-121.0
X63.8Y-124.0
X63.8Y-125.0
X63.8Y-162.576
X63.8Y-165.2
X63.8Y-196.0
X63.8Y-197.0
X63.8Y-200.0
X63.8Y-201.0
X63.8Y-238.575
X63.8Y-241.2
X63.9Y-91.1
X63.9Y-167.1
X63.9Y-243.1
X64.2Y-54.95
X64.2Y-56.2
X64.2Y-130.95
X64.2Y-132.2
X64.2Y-206.95
X64.2Y-208.2
X64.6Y-73.3
X64.6Y-74.8
X64.6Y-79.7
X64.6Y-80.6
X64.6Y-149.3
X64.6Y-150.8
X64.6Y-155.7
X64.6Y-156.6
X64.6Y-225.3
X64.6Y-226.8
X64.6Y-231.7
X64.6Y-232.6
X64.7Y-54.95
X64.7Y-130.95
X64.7Y-206.95
X65.0Y-51.4
X65.0Y-127.4
X65.0Y-203.4
X65.1Y-86.075
X65.1Y-89.2
X65.1Y-162.076
X65.1Y-165.2
X65.1Y-238.075
X65.1Y-241.2
X65.15Y-90.575
X65.15Y-94.4
X65.15Y-166.576
X65.15Y-170.4
X65.15Y-242.575
X65.15Y-246.4
X65.25Y-62.5
X65.25Y-138.5
X65.25Y-214.5
X65.7Y-54.95
X65.7Y-130.95
X65.7Y-206.95
X66.2Y-44.0
X66.2Y-45.0
X66.2Y-48.0
X66.2Y-49.0
X66.2Y-53.2
X66.2Y-54.95
X66.2Y-56.2
X66.2Y-57.3
X66.2Y-57.8
X66.2Y-120.0
X66.2Y-121.0
X66.2Y-124.0
X66.2Y-125.0
X66.2Y-129.2
X66.2Y-130.95
X66.2Y-132.2
X66.2Y-133.3
X66.2Y-133.8
X66.2Y-196.0
X66.2Y-197.0
X66.2Y-200.0
X66.2Y-201.0
X66.2Y-205.2
X66.2Y-206.95
X66.2Y-208.2
X66.2Y-209.3
X66.2Y-209.8
X66.25Y-51.2
X66.25Y-52.2
X66.25Y-127.2
X66.25Y-128.2
X66.25Y-203.2
X66.25Y-204.2
X66.351Y-65.805
X66.351Y-141.805
X66.351Y-217.805
X66.4Y-70.3
X66.4Y-88.4
X66.4Y-146.3
X66.4Y-164.4
X66.4Y-222.3
X66.4Y-240.4
X66.5Y-78.6
X66.5Y-79.7
X66.5Y-81.2
X66.5Y-82.15
X66.5Y-154.6
X66.5Y-155.7
X66.5Y-157.2
X66.5Y-158.15
X66.5Y-230.6
X66.5Y-231.7
X66.5Y-233.2
X66.5Y-234.15
X66.6Y-97.9
X66.6Y-173.9
X66.6Y-249.9
X67.179Y-66.279
X67.179Y-142.279
X67.179Y-218.279
X67.2Y-57.3
X67.2Y-57.8
X67.2Y-133.3
X67.2Y-133.8
X67.2Y-209.3
X67.2Y-209.8
X67.55Y-49.3
X67.55Y-49.8
X67.55Y-125.3
X67.55Y-125.8
X67.55Y-201.3
X67.55Y-201.8
X67.6Y-94.45
X67.6Y-170.45
X67.6Y-246.45
X67.625Y-88.95
X67.625Y-164.95
X67.625Y-240.95
X67.65Y-90.075
X67.65Y-166.076
X67.65Y-242.075
X68.079Y-66.079
X68.079Y-142.079
X68.079Y-218.079
X68.1Y-89.55
X68.1Y-165.55
X68.1Y-241.55
X68.173Y-69.727
X68.173Y-145.727
X68.173Y-221.727
X68.2Y-56.2
X68.2Y-132.2
X68.2Y-208.2
X68.5Y-48.5
X68.5Y-124.5
X68.5Y-200.5
X68.55Y-53.2
X68.55Y-129.2
X68.55Y-205.2
X68.6Y-44.6
X68.6Y-46.5
X68.6Y-120.6
X68.6Y-122.5
X68.6Y-196.6
X68.6Y-198.5
X68.7Y-42.7
X68.7Y-77.8
X68.7Y-118.7
X68.7Y-153.8
X68.7Y-194.7
X68.7Y-229.8
X68.75Y-67.2
X68.75Y-143.2
X68.75Y-219.2
X68.85Y-71.099
X68.85Y-82.2
X68.85Y-147.1
X68.85Y-158.2
X68.85Y-223.099
X68.85Y-234.2
X68.875Y-89.449
X68.875Y-165.449
X68.875Y-241.449
X68.9Y-81.225
X68.9Y-157.225
X68.9Y-233.225
X69.0Y-74.9
X69.0Y-150.9
X69.0Y-226.9
X69.017Y-54.2
X69.017Y-130.2
X69.017Y-206.2
X69.076Y-65.825
X69.076Y-141.825
X69.076Y-217.825
X69.1Y-80.4
X69.1Y-156.4
X69.1Y-232.4
X69.2Y-42.7
X69.2Y-118.7
X69.2Y-194.7
X69.3Y-78.2
X69.3Y-154.2
X69.3Y-230.2
X69.8Y-51.15
X69.8Y-52.25
X69.8Y-93.6
X69.8Y-94.1
X69.8Y-94.6
X69.8Y-127.15
X69.8Y-128.25
X69.8Y-169.6
X69.8Y-170.1
X69.8Y-170.6
X69.8Y-203.15
X69.8Y-204.25
X69.8Y-245.6
X69.8Y-246.1
X69.8Y-246.6
X69.913Y-74.11
X69.913Y-150.11
X69.913Y-226.11
X70.2Y-56.2
X70.2Y-132.2
X70.2Y-208.2
X70.25Y-50.3
X70.25Y-65.6
X70.25Y-67.768
X70.25Y-126.3
X70.25Y-141.6
X70.25Y-143.768
X70.25Y-202.3
X70.25Y-217.6
X70.25Y-219.768
X70.384Y-58.334
X70.384Y-134.334
X70.384Y-210.334
X70.4Y-93.6
X70.4Y-94.1
X70.4Y-94.6
X70.4Y-169.6
X70.4Y-170.1
X70.4Y-170.6
X70.4Y-245.6
X70.4Y-246.1
X70.4Y-246.6
X70.465Y-46.5
X70.465Y-122.5
X70.465Y-198.5
X70.474Y-73.9
X70.474Y-149.9
X70.474Y-225.9
X70.5Y-44.6
X70.5Y-64.25
X70.5Y-120.6
X70.5Y-140.25
X70.5Y-196.6
X70.5Y-216.25
X70.55Y-59.85
X70.55Y-135.85
X70.55Y-211.85
X70.593Y-48.793
X70.593Y-124.793
X70.593Y-200.793
X70.75Y-50.35
X70.75Y-126.35
X70.75Y-202.35
X70.95Y-71.45
X70.95Y-147.45
X70.95Y-223.45
X71.05Y-68.25
X71.05Y-144.25
X71.05Y-220.25
X71.1Y-93.6
X71.1Y-94.1
X71.1Y-94.6
X71.1Y-169.6
X71.1Y-170.1
X71.1Y-170.6
X71.1Y-245.6
X71.1Y-246.1
X71.1Y-246.6
X71.3Y-74.6
X71.3Y-75.6
X71.3Y-76.6
X71.3Y-77.6
X71.3Y-78.6
X71.3Y-79.3
X71.3Y-81.2
X71.3Y-82.05
X71.3Y-150.6
X71.3Y-151.6
X71.3Y-152.6
X71.3Y-153.6
X71.3Y-154.6
X71.3Y-155.3
X71.3Y-157.2
X71.3Y-158.05
X71.3Y-226.6
X71.3Y-227.6
X71.3Y-228.6
X71.3Y-229.6
X71.3Y-230.6
X71.3Y-231.3
X71.3Y-233.2
X71.3Y-234.05
X71.7Y-93.6
X71.7Y-94.1
X71.7Y-94.6
X71.7Y-169.6
X71.7Y-170.1
X71.7Y-170.6
X71.7Y-245.6
X71.7Y-246.1
X71.7Y-246.6
X71.759Y-71.517
X71.759Y-147.517
X71.759Y-223.517
X71.8Y-68.25
X71.8Y-144.25
X71.8Y-220.25
X71.9Y-51.45
X71.9Y-52.3
X71.9Y-127.45
X71.9Y-128.3
X71.9Y-203.45
X71.9Y-204.3
X72.15Y-54.35
X72.15Y-130.35
X72.15Y-206.35
X72.158Y-52.816
X72.158Y-128.816
X72.158Y-204.816
X72.17Y-55.35
X72.17Y-131.35
X72.17Y-207.35
X72.2Y-42.7
X72.2Y-118.7
X72.2Y-194.7
X72.215Y-50.118
X72.215Y-126.118
X72.215Y-202.118
X72.4Y-44.6
X72.4Y-46.5
X72.4Y-48.5
X72.4Y-120.6
X72.4Y-122.5
X72.4Y-124.5
X72.4Y-196.6
X72.4Y-198.5
X72.4Y-200.5
X72.6Y-69.8
X72.6Y-145.8
X72.6Y-221.8
X72.7Y-42.7
X72.7Y-118.7
X72.7Y-194.7
X72.75Y-50.252
X72.75Y-126.251
X72.75Y-202.251
X72.828Y-63.276
X72.828Y-139.276
X72.828Y-215.276
X72.911Y-62.705
X72.911Y-138.705
X72.911Y-214.705
X73.258Y-58.908
X73.258Y-134.908
X73.258Y-210.908
X73.45Y-62.5
X73.45Y-138.5
X73.45Y-214.5
X73.722Y-58.476
X73.722Y-134.476
X73.722Y-210.476
X74.349Y-58.639
X74.349Y-134.639
X74.349Y-210.639
X74.677Y-46.75
X74.677Y-122.75
X74.677Y-198.75
X74.7Y-58.075
X74.7Y-134.075
X74.7Y-210.075
X75.15Y-44.35
X75.15Y-120.35
X75.15Y-196.35
X75.15Y-45.345
X75.15Y-121.345
X75.15Y-197.345
X75.4Y-56.849
X75.4Y-132.85
X75.4Y-208.849
X76.1Y-56.2
X76.1Y-132.2
X76.1Y-208.2
X76.2Y-48.95
X76.2Y-124.95
X76.2Y-200.95
X76.224Y-74.4
X76.224Y-150.4
X76.224Y-226.4
X76.23Y-48.05
X76.23Y-124.05
X76.23Y-200.05
X76.3Y-50.95
X76.3Y-51.55
X76.3Y-126.95
X76.3Y-127.55
X76.3Y-202.95
X76.3Y-203.55
X76.4Y-59.25
X76.4Y-135.25
X76.4Y-211.25
X76.5Y-53.8
X76.5Y-129.8
X76.5Y-205.8
X76.749Y-71.749
X76.749Y-147.749
X76.749Y-223.749
X76.95Y-61.95
X76.95Y-137.95
X76.95Y-213.95
X77.0Y-64.817
X77.0Y-65.816
X77.0Y-140.817
X77.0Y-141.816
X77.0Y-216.817
X77.0Y-217.816
X77.3Y-44.45
X77.3Y-45.0
X77.3Y-120.45
X77.3Y-121.0
X77.3Y-196.45
X77.3Y-197.0
X77.4Y-52.25
X77.4Y-54.2
X77.4Y-56.2
X77.4Y-66.3
X77.4Y-128.25
X77.4Y-130.2
X77.4Y-132.2
X77.4Y-142.3
X77.4Y-204.25
X77.4Y-206.2
X77.4Y-208.2
X77.4Y-218.3
X77.5Y-65.3
X77.5Y-141.3
X77.5Y-217.3
X77.626Y-48.4
X77.626Y-124.4
X77.626Y-200.4
X77.7Y-95.35
X77.7Y-171.35
X77.7Y-247.35
X77.8Y-71.2
X77.8Y-79.3
X77.8Y-79.8
X77.8Y-147.2
X77.8Y-155.3
X77.8Y-155.8
X77.8Y-223.2
X77.8Y-231.3
X77.8Y-231.8
X78.3Y-62.1
X78.3Y-79.8
X78.3Y-138.1
X78.3Y-155.8
X78.3Y-214.1
X78.3Y-231.8
X78.4Y-94.0
X78.4Y-170.0
X78.4Y-246.0
X78.435Y-69.735
X78.435Y-145.735
X78.435Y-221.735
X78.8Y-73.9
X78.8Y-79.3
X78.8Y-79.8
X78.8Y-149.9
X78.8Y-155.3
X78.8Y-155.8
X78.8Y-225.9
X78.8Y-231.3
X78.8Y-231.8
X78.9Y-58.055
X78.9Y-64.0
X78.9Y-134.055
X78.9Y-140.0
X78.9Y-210.055
X78.9Y-216.0
X78.959Y-45.764
X78.959Y-121.764
X78.959Y-197.764
X79.0Y-65.849
X79.0Y-141.849
X79.0Y-217.849
X79.048Y-57.498
X79.048Y-133.498
X79.048Y-209.498
X79.2Y-61.8
X79.2Y-92.5
X79.2Y-137.8
X79.2Y-168.5
X79.2Y-213.8
X79.2Y-244.5
X79.3Y-64.7
X79.3Y-140.7
X79.3Y-216.7
X79.35Y-65.35
X79.35Y-141.35
X79.35Y-217.35
X79.6Y-90.4
X79.6Y-166.4
X79.6Y-242.4
X79.9Y-73.9
X79.9Y-149.9
X79.9Y-225.9
X80.1Y-72.15
X80.1Y-148.15
X80.1Y-224.15
X80.25Y-76.5
X80.25Y-152.5
X80.25Y-228.5
X80.5Y-51.7
X80.5Y-52.2
X80.5Y-78.25
X80.5Y-78.75
X80.5Y-127.7
X80.5Y-128.2
X80.5Y-154.25
X80.5Y-154.75
X80.5Y-203.7
X80.5Y-204.2
X80.5Y-230.25
X80.5Y-230.75
X80.538Y-44.405
X80.538Y-120.405
X80.538Y-196.405
X80.549Y-45.831
X80.549Y-121.831
X80.549Y-197.831
X80.7Y-54.2
X80.7Y-54.7
X80.7Y-82.1
X80.7Y-130.2
X80.7Y-130.7
X80.7Y-158.1
X80.7Y-206.2
X80.7Y-206.7
X80.7Y-234.1
X80.75Y-55.3
X80.75Y-55.8
X80.75Y-131.3
X80.75Y-131.8
X80.75Y-207.3
X80.75Y-207.8
X80.8Y-98.05
X80.8Y-174.05
X80.8Y-250.05
X80.9Y-75.15
X80.9Y-151.15
X80.9Y-227.15
X81.0Y-51.7
X81.0Y-52.2
X81.0Y-78.25
X81.0Y-78.75
X81.0Y-127.7
X81.0Y-128.2
X81.0Y-154.25
X81.0Y-154.75
X81.0Y-203.7
X81.0Y-204.2
X81.0Y-230.25
X81.0Y-230.75
X81.2Y-54.2
X81.2Y-54.7
X81.2Y-130.2
X81.2Y-130.7
X81.2Y-206.2
X81.2Y-206.7
X81.25Y-55.3
X81.25Y-55.8
X81.25Y-131.3
X81.25Y-131.8
X81.25Y-207.3
X81.25Y-207.8
X81.55Y-49.6
X81.55Y-50.1
X81.55Y-125.6
X81.55Y-126.1
X81.55Y-201.6
X81.55Y-202.1
X81.802Y-45.5
X81.802Y-121.5
X81.802Y-197.5
X81.95Y-43.95
X81.95Y-78.25
X81.95Y-78.75
X81.95Y-119.95
X81.95Y-154.25
X81.95Y-154.75
X81.95Y-195.95
X81.95Y-230.25
X81.95Y-230.75
X82.1Y-86.4
X82.1Y-87.0
X82.1Y-87.7
X82.1Y-88.3
X82.1Y-162.4
X82.1Y-163.0
X82.1Y-163.7
X82.1Y-164.3
X82.1Y-238.4
X82.1Y-239.0
X82.1Y-239.7
X82.1Y-240.3
X82.15Y-49.6
X82.15Y-50.1
X82.15Y-70.25
X82.15Y-125.6
X82.15Y-126.1
X82.15Y-146.25
X82.15Y-201.6
X82.15Y-202.1
X82.15Y-222.25
X82.2Y-46.05
X82.2Y-122.05
X82.2Y-198.05
X82.45Y-55.3
X82.45Y-55.8
X82.45Y-78.25
X82.45Y-78.75
X82.45Y-131.3
X82.45Y-131.8
X82.45Y-154.25
X82.45Y-154.75
X82.45Y-207.3
X82.45Y-207.8
X82.45Y-230.25
X82.45Y-230.75
X82.525Y-75.305
X82.525Y-151.305
X82.525Y-227.305
X82.6Y-86.4
X82.6Y-87.0
X82.6Y-87.7
X82.6Y-88.3
X82.6Y-162.4
X82.6Y-163.0
X82.6Y-163.7
X82.6Y-164.3
X82.6Y-238.4
X82.6Y-239.0
X82.6Y-239.7
X82.6Y-240.3
X82.7Y-47.498
X82.7Y-82.1
X82.7Y-92.9
X82.7Y-123.498
X82.7Y-158.1
X82.7Y-168.9
X82.7Y-199.498
X82.7Y-234.1
X82.7Y-244.9
X83.0Y-45.15
X83.0Y-121.15
X83.0Y-197.15
X83.1Y-86.4
X83.1Y-87.0
X83.1Y-87.7
X83.1Y-88.3
X83.1Y-162.4
X83.1Y-163.0
X83.1Y-163.7
X83.1Y-164.3
X83.1Y-238.4
X83.1Y-239.0
X83.1Y-239.7
X83.1Y-240.3
X83.15Y-67.65
X83.15Y-143.65
X83.15Y-219.65
X83.2Y-80.1
X83.2Y-80.6
X83.2Y-156.1
X83.2Y-156.6
X83.2Y-232.1
X83.2Y-232.6
X83.45Y-43.52
X83.45Y-119.519
X83.45Y-195.519
X83.45Y-44.7
X83.45Y-120.7
X83.45Y-196.7
X83.7Y-59.9
X83.7Y-80.1
X83.7Y-80.6
X83.7Y-135.9
X83.7Y-156.1
X83.7Y-156.6
X83.7Y-211.9
X83.7Y-232.1
X83.7Y-232.6
X84.4Y-46.6
X84.4Y-122.6
X84.4Y-198.6
X84.563Y-43.075
X84.563Y-119.075
X84.563Y-195.075
X84.6Y-45.1
X84.6Y-45.85
X84.6Y-121.1
X84.6Y-121.85
X84.6Y-197.1
X84.6Y-197.85
X84.65Y-47.35
X84.65Y-72.15
X84.65Y-123.35
X84.65Y-148.15
X84.65Y-199.35
X84.65Y-224.15
X84.7Y-59.9
X84.7Y-64.8
X84.7Y-75.7
X84.7Y-135.9
X84.7Y-140.8
X84.7Y-151.7
X84.7Y-211.9
X84.7Y-216.8
X84.7Y-227.7
X84.71Y-64.25
X84.71Y-140.25
X84.71Y-216.25
X84.85Y-77.55
X84.85Y-153.55
X84.85Y-229.55
X85.072Y-43.478
X85.072Y-119.478
X85.072Y-195.478
X85.3Y-58.7
X85.3Y-134.7
X85.3Y-210.7
X85.8Y-79.5
X85.8Y-80.0
X85.8Y-155.5
X85.8Y-156.0
X85.8Y-231.5
X85.8Y-232.0
X85.9Y-76.6
X85.9Y-152.6
X85.9Y-228.6
X86.2Y-91.2
X86.2Y-92.4
X86.2Y-167.2
X86.2Y-168.4
X86.2Y-243.2
X86.2Y-244.4
X86.3Y-79.5
X86.3Y-80.0
X86.3Y-89.0
X86.3Y-155.5
X86.3Y-156.0
X86.3Y-165.0
X86.3Y-231.5
X86.3Y-232.0
X86.3Y-241.0
X86.35Y-61.9
X86.35Y-137.9
X86.35Y-213.9
X86.45Y-67.65
X86.45Y-143.65
X86.45Y-219.65
X86.9Y-50.2
X86.9Y-87.4
X86.9Y-95.2
X86.9Y-126.2
X86.9Y-163.4
X86.9Y-171.2
X86.9Y-202.2
X86.9Y-239.4
X86.9Y-247.2
X87.4Y-50.2
X87.4Y-66.3
X87.4Y-71.0
X87.4Y-72.1
X87.4Y-126.2
X87.4Y-142.3
X87.4Y-147.0
X87.4Y-148.1
X87.4Y-202.2
X87.4Y-218.3
X87.4Y-223.0
X87.4Y-224.1
X87.5Y-68.0
X87.5Y-144.0
X87.5Y-220.0
X87.6Y-70.0
X87.6Y-94.58
X87.6Y-146.0
X87.6Y-170.58
X87.6Y-222.0
X87.6Y-246.58
X87.7Y-66.9
X87.7Y-142.9
X87.7Y-218.9
X87.9Y-61.9
X87.9Y-64.05
X87.9Y-137.9
X87.9Y-140.05
X87.9Y-213.9
X87.9Y-216.05
X88.2Y-56.4
X88.2Y-56.9
X88.2Y-132.4
X88.2Y-132.9
X88.2Y-208.4
X88.2Y-208.9
X88.3Y-75.5
X88.3Y-151.5
X88.3Y-227.5
X88.5Y-78.05
X88.5Y-78.55
X88.5Y-154.05
X88.5Y-154.55
X88.5Y-230.05
X88.5Y-230.55
X88.6Y-91.2
X88.6Y-92.4
X88.6Y-167.2
X88.6Y-168.4
X88.6Y-243.2
X88.6Y-244.4
X88.75Y-76.6
X88.75Y-152.6
X88.75Y-228.6
X88.8Y-56.4
X88.8Y-56.9
X88.8Y-132.4
X88.8Y-132.9
X88.8Y-208.4
X88.8Y-208.9
X88.95Y-61.3
X88.95Y-137.3
X88.95Y-213.3
X89.0Y-78.05
X89.0Y-78.55
X89.0Y-154.05
X89.0Y-154.55
X89.0Y-230.05
X89.0Y-230.55
X89.05Y-58.7
X89.05Y-134.7
X89.05Y-210.7
X89.3Y-75.55
X89.3Y-151.55
X89.3Y-227.55
X89.45Y-52.25
X89.45Y-128.25
X89.45Y-204.25
X89.5Y-55.3
X89.5Y-55.8
X89.5Y-56.6
X89.5Y-57.15
X89.5Y-61.3
X89.5Y-62.05
X89.5Y-62.55
X89.5Y-131.3
X89.5Y-131.8
X89.5Y-132.6
X89.5Y-133.15
X89.5Y-137.3
X89.5Y-138.05
X89.5Y-138.55
X89.5Y-207.3
X89.5Y-207.8
X89.5Y-208.6
X89.5Y-209.15
X89.5Y-213.3
X89.5Y-214.05
X89.5Y-214.55
X89.551Y-50.7
X89.551Y-126.7
X89.551Y-202.7
X89.9Y-72.266
X89.9Y-148.266
X89.9Y-224.266
X91.05Y-42.4
X91.05Y-118.4
X91.05Y-194.4
X91.1Y-89.4
X91.1Y-93.6
X91.1Y-165.4
X91.1Y-169.6
X91.1Y-241.4
X91.1Y-245.6
X91.2Y-66.05
X91.2Y-142.05
X91.2Y-218.05
X92.4Y-93.3
X92.4Y-97.5
X92.4Y-169.3
X92.4Y-173.5
X92.4Y-245.3
X92.4Y-249.5
X93.5Y-51.5
X93.5Y-70.5
X93.5Y-75.45
X93.5Y-75.95
X93.5Y-127.5
X93.5Y-146.5
X93.5Y-151.45
X93.5Y-151.95
X93.5Y-203.5
X93.5Y-222.5
X93.5Y-227.45
X93.5Y-227.95
X94.05Y-71.0
X94.05Y-147.0
X94.05Y-223.0
X94.1Y-75.45
X94.1Y-75.95
X94.1Y-151.45
X94.1Y-151.95
X94.1Y-227.45
X94.1Y-227.95
X94.5Y-71.5
X94.5Y-147.5
X94.5Y-223.5
X94.8Y-64.3
X94.8Y-65.1
X94.8Y-140.3
X94.8Y-141.1
X94.8Y-216.3
X94.8Y-217.1
X95.1Y-56.6
X95.1Y-58.9
X95.1Y-61.3
X95.1Y-132.6
X95.1Y-134.9
X95.1Y-137.3
X95.1Y-208.6
X95.1Y-210.9
X95.1Y-213.3
X95.2Y-87.3
X95.2Y-93.3
X95.2Y-163.3
X95.2Y-169.3
X95.2Y-239.3
X95.2Y-245.3
X95.35Y-49.9
X95.35Y-125.9
X95.35Y-201.9
X95.5Y-64.3
X95.5Y-65.1
X95.5Y-140.3
X95.5Y-141.1
X95.5Y-216.3
X95.5Y-217.1
X95.9Y-72.107
X95.9Y-148.107
X95.9Y-224.107
X96.0Y-71.5
X96.0Y-147.5
X96.0Y-223.5
X96.2Y-64.3
X96.2Y-65.1
X96.2Y-65.8
X96.2Y-66.6
X96.2Y-140.3
X96.2Y-141.1
X96.2Y-141.8
X96.2Y-142.6
X96.2Y-216.3
X96.2Y-217.1
X96.2Y-217.8
X96.2Y-218.6
X96.25Y-73.5
X96.25Y-75.5
X96.25Y-149.5
X96.25Y-151.5
X96.25Y-225.5
X96.25Y-227.5
X112.0Y-53.0
X112.0Y-59.0
X112.0Y-65.0
X112.0Y-71.0
X112.0Y-77.0
X112.0Y-83.0
X112.0Y-89.0
X112.0Y-129.0
X112.0Y-135.0
X112.0Y-141.0
X112.0Y-147.0
X112.0Y-153.0
X112.0Y-159.0
X112.0Y-165.0
X112.0Y-205.0
X112.0Y-211.0
X112.0Y-217.0
X112.0Y-223.0
X112.0Y-229.0
X112.0Y-235.0
X112.0Y-241.0
X118.0Y-47.0
X118.0Y-53.0
X118.0Y-59.0
X118.0Y-65.0
X118.0Y-71.0
X118.0Y-77.0
X118.0Y-83.0
X118.0Y-89.0
X118.0Y-95.0
X118.0Y-123.0
X118.0Y-129.0
X118.0Y-135.0
X118.0Y-141.0
X118.0Y-147.0
X118.0Y-153.0
X118.0Y-159.0
X118.0Y-165.0
X118.0Y-171.0
X118.0Y-199.0
X118.0Y-205.0
X118.0Y-211.0
X118.0Y-217.0
X118.0Y-223.0
X118.0Y-229.0
X118.0Y-235.0
X118.0Y-241.0
X118.0Y-247.0
X123.75Y-80.1
X123.75Y-156.1
X123.75Y-232.1
X124.0Y-47.0
X124.0Y-53.0
X124.0Y-59.0
X124.0Y-65.0
X124.0Y-71.0
X124.0Y-77.0
X124.0Y-83.0
X124.0Y-89.0
X124.0Y-95.0
X124.0Y-123.0
X124.0Y-129.0
X124.0Y-135.0
X124.0Y-141.0
X124.0Y-147.0
X124.0Y-153.0
X124.0Y-159.0
X124.0Y-165.0
X124.0Y-171.0
X124.0Y-199.0
X124.0Y-205.0
X124.0Y-211.0
X124.0Y-217.0
X124.0Y-223.0
X124.0Y-229.0
X124.0Y-235.0
X124.0Y-241.0
X124.0Y-247.0
X126.5Y-68.9
X126.5Y-144.9
X126.5Y-220.9
X126.9Y-76.9
X126.9Y-152.9
X126.9Y-228.9
X126.95Y-83.3
X126.95Y-159.3
X126.95Y-235.3
X130.0Y-47.0
X130.0Y-53.0
X130.0Y-59.0
X130.0Y-65.0
X130.0Y-77.0
X130.0Y-83.0
X130.0Y-89.0
X130.0Y-95.0
X130.0Y-123.0
X130.0Y-129.0
X130.0Y-135.0
X130.0Y-141.0
X130.0Y-153.0
X130.0Y-159.0
X130.0Y-165.0
X130.0Y-171.0
X130.0Y-199.0
X130.0Y-205.0
X130.0Y-211.0
X130.0Y-217.0
X130.0Y-229.0
X130.0Y-235.0
X130.0Y-241.0
X130.0Y-247.0
X130.1Y-80.1
X130.1Y-156.1
X130.1Y-232.1
X133.8Y-60.45
X133.8Y-136.45
X133.8Y-212.45
X134.35Y-61.9
X134.35Y-137.9
X134.35Y-213.9
X135.05Y-80.791
X135.05Y-156.791
X135.05Y-232.791
X136.0Y-47.0
X136.0Y-53.0
X136.0Y-59.0
X136.0Y-71.0
X136.0Y-83.0
X136.0Y-89.0
X136.0Y-95.0
X136.0Y-123.0
X136.0Y-129.0
X136.0Y-135.0
X136.0Y-147.0
X136.0Y-159.0
X136.0Y-165.0
X136.0Y-171.0
X136.0Y-199.0
X136.0Y-205.0
X136.0Y-211.0
X136.0Y-223.0
X136.0Y-235.0
X136.0Y-241.0
X136.0Y-247.0
X138.375Y-60.525
X138.375Y-61.25
X138.375Y-136.525
X138.375Y-137.25
X138.375Y-212.525
X138.375Y-213.25
X138.9Y-81.325
X138.9Y-157.325
X138.9Y-233.325
X139.325Y-60.55
X139.325Y-61.25
X139.325Y-136.55
X139.325Y-137.25
X139.325Y-212.55
X139.325Y-213.25
X141.8Y-62.0
X141.8Y-138.0
X141.8Y-214.0
X142.0Y-47.0
X142.0Y-53.0
X142.0Y-59.0
X142.0Y-65.0
X142.0Y-77.0
X142.0Y-83.0
X142.0Y-89.0
X142.0Y-95.0
X142.0Y-123.0
X142.0Y-129.0
X142.0Y-135.0
X142.0Y-141.0
X142.0Y-153.0
X142.0Y-159.0
X142.0Y-165.0
X142.0Y-171.0
X142.0Y-199.0
X142.0Y-205.0
X142.0Y-211.0
X142.0Y-217.0
X142.0Y-229.0
X142.0Y-235.0
X142.0Y-241.0
X142.0Y-247.0
X145.036Y-68.841
X145.036Y-144.841
X145.036Y-220.841
X145.05Y-58.8
X145.05Y-65.15
X145.05Y-134.8
X145.05Y-141.15
X145.05Y-210.8
X145.05Y-217.15
X145.35Y-70.75
X145.35Y-146.75
X145.35Y-222.75
X145.6Y-73.15
X145.6Y-74.1
X145.6Y-149.15
X145.6Y-150.1
X145.6Y-225.15
X145.6Y-226.1
X146.25Y-73.15
X146.25Y-149.15
X146.25Y-225.15
X146.3Y-74.1
X146.3Y-150.1
X146.3Y-226.1
X148.0Y-47.0
X148.0Y-53.0
X148.0Y-59.0
X148.0Y-65.0
X148.0Y-71.0
X148.0Y-77.0
X148.0Y-83.0
X148.0Y-89.0
X148.0Y-95.0
X148.0Y-123.0
X148.0Y-129.0
X148.0Y-135.0
X148.0Y-141.0
X148.0Y-147.0
X148.0Y-153.0
X148.0Y-159.0
X148.0Y-165.0
X148.0Y-171.0
X148.0Y-199.0
X148.0Y-205.0
X148.0Y-211.0
X148.0Y-217.0
X148.0Y-223.0
X148.0Y-229.0
X148.0Y-235.0
X148.0Y-241.0
X148.0Y-247.0
X148.25Y-62.0
X148.25Y-138.0
X148.25Y-214.0
X154.0Y-47.0
X154.0Y-53.0
X154.0Y-59.0
X154.0Y-65.0
X154.0Y-71.0
X154.0Y-77.0
X154.0Y-83.0
X154.0Y-89.0
X154.0Y-95.0
X154.0Y-123.0
X154.0Y-129.0
X154.0Y-135.0
X154.0Y-141.0
X154.0Y-147.0
X154.0Y-153.0
X154.0Y-159.0
X154.0Y-165.0
X154.0Y-171.0
X154.0Y-199.0
X154.0Y-205.0
X154.0Y-211.0
X154.0Y-217.0
X154.0Y-223.0
X154.0Y-229.0
X154.0Y-235.0
X154.0Y-241.0
X154.0Y-247.0
X154.75Y-71.65
X154.75Y-147.65
X154.75Y-223.65
X156.6Y-68.075
X156.6Y-70.625
X156.6Y-144.075
X156.6Y-146.625
X156.6Y-220.075
X156.6Y-222.625
X156.875Y-74.175
X156.875Y-75.425
X156.875Y-150.175
X156.875Y-151.425
X156.875Y-226.175
X156.875Y-227.425
X159.5Y-67.6
X159.5Y-68.2
X159.5Y-72.6
X159.5Y-73.2
X159.5Y-143.6
X159.5Y-144.2
X159.5Y-148.6
X159.5Y-149.2
X159.5Y-219.6
X159.5Y-220.2
X159.5Y-224.6
X159.5Y-225.2
X160.0Y-53.0
X160.0Y-71.0
X160.0Y-75.7
X160.0Y-86.2
X160.0Y-89.0
X160.0Y-129.0
X160.0Y-147.0
X160.0Y-151.7
X160.0Y-162.2
X160.0Y-165.0
X160.0Y-205.0
X160.0Y-223.0
X160.0Y-227.7
X160.0Y-238.2
X160.0Y-241.0
X160.3Y-67.6
X160.3Y-68.2
X160.3Y-72.6
X160.3Y-73.2
X160.3Y-143.6
X160.3Y-144.2
X160.3Y-148.6
X160.3Y-149.2
X160.3Y-219.6
X160.3Y-220.2
X160.3Y-224.6
X160.3Y-225.2
X161.0Y-82.2
X161.0Y-158.2
X161.0Y-234.2
X161.522Y-82.919
X161.522Y-158.919
X161.522Y-234.919
X161.7Y-86.1
X161.7Y-162.1
X161.7Y-238.1
X162.4Y-59.0
X162.4Y-59.7
X162.4Y-60.4
X162.4Y-61.0
X162.4Y-135.0
X162.4Y-135.7
X162.4Y-136.4
X162.4Y-137.0
X162.4Y-211.0
X162.4Y-211.7
X162.4Y-212.4
X162.4Y-213.0
X163.0Y-59.0
X163.0Y-59.7
X163.0Y-60.35
X163.0Y-61.0
X163.0Y-135.0
X163.0Y-135.7
X163.0Y-136.35
X163.0Y-137.0
X163.0Y-211.0
X163.0Y-211.7
X163.0Y-212.35
X163.0Y-213.0
X163.4Y-80.6
X163.4Y-83.8
X163.4Y-156.6
X163.4Y-159.8
X163.4Y-232.6
X163.4Y-235.8
X179.0Y-41.0
X179.0Y-51.0
X179.0Y-61.0
X179.0Y-71.0
X179.0Y-81.0
X179.0Y-91.0
X179.0Y-101.0
X179.0Y-117.0
X179.0Y-127.0
X179.0Y-137.0
X179.0Y-147.0
X179.0Y-157.0
X179.0Y-167.0
X179.0Y-177.0
X179.0Y-193.0
X179.0Y-203.0
X179.0Y-213.0
X179.0Y-223.0
X179.0Y-233.0
X179.0Y-243.0
X179.0Y-253.0
X180.6Y-79.65
X180.6Y-80.15
X180.6Y-155.65
X180.6Y-156.15
X180.6Y-231.65
X180.6Y-232.15
X180.7Y-69.75
X180.7Y-71.0
X180.7Y-72.25
X180.7Y-102.8
X180.7Y-145.75
X180.7Y-147.0
X180.7Y-148.25
X180.7Y-178.8
X180.7Y-221.75
X180.7Y-223.0
X180.7Y-224.25
X180.7Y-254.8
X181.1Y-79.65
X181.1Y-80.15
X181.1Y-155.65
X181.1Y-156.15
X181.1Y-231.65
X181.1Y-232.15
X181.6Y-97.3
X181.6Y-99.1
X181.6Y-173.3
X181.6Y-175.1
X181.6Y-249.3
X181.6Y-251.1
X181.65Y-81.65
X181.65Y-83.85
X181.65Y-88.7
X181.65Y-90.5
X181.65Y-95.3
X181.65Y-157.65
X181.65Y-159.85
X181.65Y-164.7
X181.65Y-166.5
X181.65Y-171.3
X181.65Y-233.65
X181.65Y-235.85
X181.65Y-240.7
X181.65Y-242.5
X181.65Y-247.3
X181.75Y-80.15
X181.75Y-156.15
X181.75Y-232.15
X182.1Y-97.3
X182.1Y-99.1
X182.1Y-173.3
X182.1Y-175.1
X182.1Y-249.3
X182.1Y-251.1
X182.15Y-81.65
X182.15Y-83.85
X182.15Y-88.7
X182.15Y-90.5
X182.15Y-95.3
X182.15Y-157.65
X182.15Y-159.85
X182.15Y-164.7
X182.15Y-166.5
X182.15Y-171.3
X182.15Y-233.65
X182.15Y-235.85
X182.15Y-240.7
X182.15Y-242.5
X182.15Y-247.3
X182.25Y-80.15
X182.25Y-156.15
X182.25Y-232.15
X182.6Y-99.5
X182.6Y-175.5
X182.6Y-251.5
X182.616Y-98.842
X182.616Y-174.842
X182.616Y-250.842
X183.1Y-68.1
X183.1Y-73.9
X183.1Y-144.1
X183.1Y-149.9
X183.1Y-220.1
X183.1Y-225.9
X183.2Y-98.8
X183.2Y-99.5
X183.2Y-174.8
X183.2Y-175.5
X183.2Y-250.8
X183.2Y-251.5
X184.1Y-60.43
X184.1Y-81.55
X184.1Y-136.43
X184.1Y-157.55
X184.1Y-212.43
X184.1Y-233.55
X184.35Y-68.1
X184.35Y-73.9
X184.35Y-144.1
X184.35Y-149.9
X184.35Y-220.1
X184.35Y-225.9
X184.6Y-60.43
X184.6Y-81.55
X184.6Y-136.43
X184.6Y-157.55
X184.6Y-212.43
X184.6Y-233.55
X184.998Y-82.3
X184.998Y-158.3
X184.998Y-234.3
X185.3Y-60.43
X185.3Y-136.43
X185.3Y-212.43
X185.6Y-73.9
X185.6Y-149.9
X185.6Y-225.9
X185.65Y-68.05
X185.65Y-144.05
X185.65Y-220.05
X185.8Y-60.43
X185.8Y-136.43
X185.8Y-212.43
X185.901Y-82.859
X185.901Y-158.859
X185.901Y-234.859
X186.001Y-81.95
X186.001Y-157.95
X186.001Y-233.95
X186.275Y-97.9
X186.275Y-173.9
X186.275Y-249.9
X186.3Y-97.4
X186.3Y-173.4
X186.3Y-249.4
X187.248Y-57.8
X187.248Y-133.8
X187.248Y-209.8
X187.55Y-83.5
X187.55Y-159.5
X187.55Y-235.5
X187.75Y-66.1
X187.75Y-75.85
X187.75Y-142.1
X187.75Y-151.85
X187.75Y-218.1
X187.75Y-227.85
X187.8Y-57.2
X187.8Y-133.2
X187.8Y-209.2
X188.0Y-94.2
X188.0Y-170.2
X188.0Y-246.2
X188.05Y-83.5
X188.05Y-159.5
X188.05Y-235.5
X188.1Y-96.25
X188.1Y-96.75
X188.1Y-97.25
X188.1Y-172.25
X188.1Y-172.75
X188.1Y-173.25
X188.1Y-248.25
X188.1Y-248.75
X188.1Y-249.25
X188.3Y-70.75
X188.3Y-71.25
X188.3Y-71.95
X188.3Y-72.45
X188.3Y-146.75
X188.3Y-147.25
X188.3Y-147.95
X188.3Y-148.45
X188.3Y-222.75
X188.3Y-223.25
X188.3Y-223.95
X188.3Y-224.45
X188.5Y-94.2
X188.5Y-170.2
X188.5Y-246.2
X188.6Y-96.25
X188.6Y-96.75
X188.6Y-97.25
X188.6Y-172.25
X188.6Y-172.75
X188.6Y-173.25
X188.6Y-248.25
X188.6Y-248.75
X188.6Y-249.25
X188.75Y-58.5
X188.75Y-83.5
X188.75Y-134.5
X188.75Y-159.5
X188.75Y-210.5
X188.75Y-235.5
X189.0Y-41.0
X189.0Y-66.1
X189.0Y-75.85
X189.0Y-101.0
X189.0Y-117.0
X189.0Y-142.1
X189.0Y-151.85
X189.0Y-177.0
X189.0Y-193.0
X189.0Y-218.1
X189.0Y-227.85
X189.0Y-253.0
X189.25Y-58.5
X189.25Y-83.5
X189.25Y-134.5
X189.25Y-159.5
X189.25Y-210.5
X189.25Y-235.5
X189.5Y-83.0
X189.5Y-97.15
X189.5Y-159.0
X189.5Y-173.15
X189.5Y-235.0
X189.5Y-249.15
X189.648Y-84.0
X189.648Y-160.0
X189.648Y-236.0
X189.7Y-69.55
X189.7Y-70.05
X189.7Y-70.75
X189.7Y-71.25
X189.7Y-145.55
X189.7Y-146.05
X189.7Y-146.75
X189.7Y-147.25
X189.7Y-221.55
X189.7Y-222.05
X189.7Y-222.75
X189.7Y-223.25
X189.95Y-58.5
X189.95Y-134.5
X189.95Y-210.5
X190.1Y-57.2
X190.1Y-133.2
X190.1Y-209.2
X190.2Y-84.7
X190.2Y-160.7
X190.2Y-236.7
X190.25Y-66.1
X190.25Y-75.85
X190.25Y-142.1
X190.25Y-151.85
X190.25Y-218.1
X190.25Y-227.85
X190.45Y-58.5
X190.45Y-134.5
X190.45Y-210.5
X190.95Y-81.95
X190.95Y-157.95
X190.95Y-233.95
X191.5Y-93.9
X191.5Y-97.2
X191.5Y-169.9
X191.5Y-173.2
X191.5Y-245.9
X191.5Y-249.2
X191.898Y-59.35
X191.898Y-135.35
X191.898Y-211.35
X192.2Y-81.55
X192.2Y-157.55
X192.2Y-233.55
X192.35Y-73.9
X192.35Y-149.9
X192.35Y-225.9
X192.375Y-68.05
X192.375Y-144.05
X192.375Y-220.05
X192.7Y-81.55
X192.7Y-157.55
X192.7Y-233.55
X192.85Y-58.55
X192.85Y-134.55
X192.85Y-210.55
X192.9Y-57.2
X192.9Y-133.2
X192.9Y-209.2
X192.901Y-59.801
X192.901Y-135.802
X192.901Y-211.802
X193.3Y-60.45
X193.3Y-136.45
X193.3Y-212.45
X193.4Y-81.55
X193.4Y-157.55
X193.4Y-233.55
X193.65Y-68.05
X193.65Y-73.9
X193.65Y-144.05
X193.65Y-149.9
X193.65Y-220.05
X193.65Y-225.9
X193.7Y-84.7
X193.7Y-160.7
X193.7Y-236.7
X193.75Y-83.35
X193.75Y-159.35
X193.75Y-235.35
X193.9Y-81.55
X193.9Y-157.55
X193.9Y-233.55
X194.0Y-60.45
X194.0Y-136.45
X194.0Y-212.45
X194.6Y-60.45
X194.6Y-136.45
X194.6Y-212.45
X194.9Y-73.9
X194.9Y-149.9
X194.9Y-225.9
X194.925Y-68.05
X194.925Y-144.05
X194.925Y-220.05
X195.1Y-60.45
X195.1Y-136.45
X195.1Y-212.45
X195.3Y-57.2
X195.3Y-58.55
X195.3Y-81.8
X195.3Y-97.0
X195.3Y-133.2
X195.3Y-134.55
X195.3Y-157.8
X195.3Y-173.0
X195.3Y-209.2
X195.3Y-210.55
X195.3Y-233.8
X195.3Y-249.0
X195.35Y-93.75
X195.35Y-169.75
X195.35Y-245.75
X195.4Y-88.25
X195.4Y-164.25
X195.4Y-240.25
X196.0Y-60.4
X196.0Y-136.4
X196.0Y-212.4
X197.1Y-84.7
X197.1Y-160.7
X197.1Y-236.7
X197.3Y-69.75
X197.3Y-71.0
X197.3Y-72.25
X197.3Y-145.75
X197.3Y-147.0
X197.3Y-148.25
X197.3Y-221.75
X197.3Y-223.0
X197.3Y-224.25
X197.4Y-79.65
X197.4Y-155.65
X197.4Y-231.65
X198.7Y-58.85
X198.7Y-61.0
X198.7Y-63.05
X198.7Y-134.85
X198.7Y-137.0
X198.7Y-139.05
X198.7Y-210.85
X198.7Y-213.0
X198.7Y-215.05
X198.8Y-93.8
X198.8Y-169.8
X198.8Y-245.8
X198.85Y-97.0
X198.85Y-173.0
X198.85Y-249.0
X198.9Y-80.85
X198.9Y-156.85
X198.9Y-232.85
X199.0Y-41.0
X199.0Y-51.0
X199.0Y-71.0
X199.0Y-91.0
X199.0Y-101.0
X199.0Y-117.0
X199.0Y-127.0
X199.0Y-147.0
X199.0Y-167.0
X199.0Y-177.0
X199.0Y-193.0
X199.0Y-203.0
X199.0Y-223.0
X199.0Y-243.0
X199.0Y-253.0
X200.1Y-81.7
X200.1Y-157.7
X200.1Y-233.7
X200.3Y-76.8
X200.3Y-152.8
X200.3Y-228.8
X201.349Y-65.75
X201.349Y-141.75
X201.349Y-217.75
X201.4Y-63.7
X201.4Y-139.7
X201.4Y-215.7
X201.45Y-61.65
X201.45Y-137.65
X201.45Y-213.65
X202.15Y-77.6
X202.15Y-153.6
X202.15Y-229.6
X202.251Y-74.65
X202.251Y-150.65
X202.251Y-226.65
X202.4Y-71.0
X202.4Y-147.0
X202.4Y-223.0
X202.675Y-68.972
X202.675Y-144.972
X202.675Y-220.972
X202.7Y-96.95
X202.7Y-172.95
X202.7Y-248.95
X202.702Y-73.002
X202.702Y-149.002
X202.702Y-225.002
X202.9Y-93.85
X202.9Y-169.85
X202.9Y-245.85
X202.95Y-92.2
X202.95Y-168.2
X202.95Y-244.2
X203.0Y-71.0
X203.0Y-147.0
X203.0Y-223.0
X203.2Y-78.6
X203.2Y-154.6
X203.2Y-230.6
X203.5Y-71.0
X203.5Y-147.0
X203.5Y-223.0
X203.51Y-87.12
X203.51Y-89.32
X203.51Y-90.82
X203.51Y-163.12
X203.51Y-165.32
X203.51Y-166.82
X203.51Y-239.12
X203.51Y-241.32
X203.51Y-242.82
X203.55Y-82.3
X203.55Y-158.3
X203.55Y-234.3
X203.6Y-85.35
X203.6Y-161.35
X203.6Y-237.35
X203.7Y-81.3
X203.7Y-157.3
X203.7Y-233.3
X203.823Y-66.051
X203.823Y-142.052
X203.823Y-218.052
X204.1Y-71.0
X204.1Y-147.0
X204.1Y-223.0
X204.4Y-62.9
X204.4Y-79.1
X204.4Y-79.6
X204.4Y-138.9
X204.4Y-155.1
X204.4Y-155.6
X204.4Y-214.9
X204.4Y-231.1
X204.4Y-231.6
X204.51Y-87.12
X204.51Y-89.32
X204.51Y-90.82
X204.51Y-163.12
X204.51Y-165.32
X204.51Y-166.82
X204.51Y-239.12
X204.51Y-241.32
X204.51Y-242.82
X205.5Y-62.9
X205.5Y-79.1
X205.5Y-79.6
X205.5Y-81.95
X205.5Y-138.9
X205.5Y-155.1
X205.5Y-155.6
X205.5Y-157.95
X205.5Y-214.9
X205.5Y-231.1
X205.5Y-231.6
X205.5Y-233.95
X206.1Y-65.311
X206.1Y-141.311
X206.1Y-217.311
X206.15Y-66.6
X206.15Y-142.6
X206.15Y-218.6
X206.171Y-77.45
X206.171Y-153.45
X206.171Y-229.45
X206.2Y-75.4
X206.2Y-76.4
X206.2Y-151.4
X206.2Y-152.4
X206.2Y-227.4
X206.2Y-228.4
X206.401Y-94.2
X206.401Y-170.2
X206.401Y-246.2
X206.6Y-62.9
X206.6Y-79.1
X206.6Y-79.6
X206.6Y-138.9
X206.6Y-155.1
X206.6Y-155.6
X206.6Y-214.9
X206.6Y-231.1
X206.6Y-231.6
X206.9Y-69.5
X206.9Y-70.0
X206.9Y-72.0
X206.9Y-72.5
X206.9Y-145.5
X206.9Y-146.0
X206.9Y-148.0
X206.9Y-148.5
X206.9Y-221.5
X206.9Y-222.0
X206.9Y-224.0
X206.9Y-224.5
X207.2Y-64.3
X207.2Y-64.9
X207.2Y-140.3
X207.2Y-140.9
X207.2Y-216.3
X207.2Y-216.9
X207.3Y-77.45
X207.3Y-153.45
X207.3Y-229.45
X207.35Y-95.45
X207.35Y-171.45
X207.35Y-247.45
X207.5Y-69.5
X207.5Y-70.0
X207.5Y-72.0
X207.5Y-72.5
X207.5Y-145.5
X207.5Y-146.0
X207.5Y-148.0
X207.5Y-148.5
X207.5Y-221.5
X207.5Y-222.0
X207.5Y-224.0
X207.5Y-224.5
X207.8Y-62.9
X207.8Y-79.1
X207.8Y-138.9
X207.8Y-155.1
X207.8Y-214.9
X207.8Y-231.1
X208.2Y-66.6
X208.2Y-75.4
X208.2Y-76.4
X208.2Y-142.6
X208.2Y-151.4
X208.2Y-152.4
X208.2Y-218.6
X208.2Y-227.4
X208.2Y-228.4
X208.4Y-65.3
X208.4Y-141.3
X208.4Y-217.3
X208.5Y-90.9
X208.5Y-166.9
X208.5Y-242.9
X208.9Y-62.9
X208.9Y-79.1
X208.9Y-138.9
X208.9Y-155.1
X208.9Y-214.9
X208.9Y-231.1
X209.0Y-41.0
X209.0Y-51.0
X209.0Y-61.0
X209.0Y-71.0
X209.0Y-81.0
X209.0Y-101.0
X209.0Y-117.0
X209.0Y-127.0
X209.0Y-137.0
X209.0Y-147.0
X209.0Y-157.0
X209.0Y-177.0
X209.0Y-193.0
X209.0Y-203.0
X209.0Y-213.0
X209.0Y-223.0
X209.0Y-233.0
X209.0Y-253.0
X209.9Y-89.32
X209.9Y-165.32
X209.9Y-241.32
X210.0Y-62.9
X210.0Y-79.1
X210.0Y-138.9
X210.0Y-155.1
X210.0Y-214.9
X210.0Y-231.1
X210.3Y-71.0
X210.3Y-147.0
X210.3Y-223.0
X210.7Y-82.325
X210.7Y-158.325
X210.7Y-234.325
X210.9Y-71.0
X210.9Y-89.32
X210.9Y-147.0
X210.9Y-165.32
X210.9Y-223.0
X210.9Y-241.32
X211.15Y-69.9
X211.15Y-72.15
X211.15Y-145.9
X211.15Y-148.15
X211.15Y-221.9
X211.15Y-224.15
X211.4Y-71.0
X211.4Y-147.0
X211.4Y-223.0
X211.772Y-77.9
X211.772Y-153.9
X211.772Y-229.9
X211.9Y-86.3
X211.9Y-162.3
X211.9Y-238.3
X211.95Y-91.55
X211.95Y-167.55
X211.95Y-243.55
X212.5Y-64.45
X212.5Y-140.45
X212.5Y-216.45
X225.0Y-41.0
X225.0Y-51.0
X225.0Y-61.0
X225.0Y-71.0
X225.0Y-81.0
X225.0Y-91.0
X225.0Y-101.0
X225.0Y-117.0
X225.0Y-127.0
X225.0Y-137.0
X225.0Y-147.0
X225.0Y-157.0
X225.0Y-167.0
X225.0Y-177.0
X225.0Y-193.0
X225.0Y-203.0
X225.0Y-213.0
X225.0Y-223.0
X225.0Y-233.0
X225.0Y-243.0
X225.0Y-253.0
X226.6Y-79.65
X226.6Y-80.15
X226.6Y-155.65
X226.6Y-156.15
X226.6Y-231.65
X226.6Y-232.15
X226.7Y-69.75
X226.7Y-71.0
X226.7Y-72.25
X226.7Y-102.8
X226.7Y-145.75
X226.7Y-147.0
X226.7Y-148.25
X226.7Y-178.8
X226.7Y-221.75
X226.7Y-223.0
X226.7Y-224.25
X226.7Y-254.8
X227.1Y-79.65
X227.1Y-80.15
X227.1Y-155.65
X227.1Y-156.15
X227.1Y-231.65
X227.1Y-232.15
X227.6Y-97.3
X227.6Y-99.1
X227.6Y-173.3
X227.6Y-175.1
X227.6Y-249.3
X227.6Y-251.1
X227.65Y-81.65
X227.65Y-83.85
X227.65Y-88.7
X227.65Y-90.5
X227.65Y-95.3
X227.65Y-157.65
X227.65Y-159.85
X227.65Y-164.7
X227.65Y-166.5
X227.65Y-171.3
X227.65Y-233.65
X227.65Y-235.85
X227.65Y-240.7
X227.65Y-242.5
X227.65Y-247.3
X227.75Y-80.15
X227.75Y-156.15
X227.75Y-232.15
X228.1Y-97.3
X228.1Y-99.1
X228.1Y-173.3
X228.1Y-175.1
X228.1Y-249.3
X228.1Y-251.1
X228.15Y-81.65
X228.15Y-83.85
X228.15Y-88.7
X228.15Y-90.5
X228.15Y-95.3
X228.15Y-157.65
X228.15Y-159.85
X228.15Y-164.7
X228.15Y-166.5
X228.15Y-171.3
X228.15Y-233.65
X228.15Y-235.85
X228.15Y-240.7
X228.15Y-242.5
X228.15Y-247.3
X228.25Y-80.15
X228.25Y-156.15
X228.25Y-232.15
X228.6Y-99.5
X228.6Y-175.5
X228.6Y-251.5
X228.616Y-98.842
X228.616Y-174.842
X228.616Y-250.842
X229.1Y-68.1
X229.1Y-73.9
X229.1Y-144.1
X229.1Y-149.9
X229.1Y-220.1
X229.1Y-225.9
X229.2Y-98.8
X229.2Y-99.5
X229.2Y-174.8
X229.2Y-175.5
X229.2Y-250.8
X229.2Y-251.5
X230.1Y-60.43
X230.1Y-81.55
X230.1Y-136.43
X230.1Y-157.55
X230.1Y-212.43
X230.1Y-233.55
X230.35Y-68.1
X230.35Y-73.9
X230.35Y-144.1
X230.35Y-149.9
X230.35Y-220.1
X230.35Y-225.9
X230.6Y-60.43
X230.6Y-81.55
X230.6Y-136.43
X230.6Y-157.55
X230.6Y-212.43
X230.6Y-233.55
X230.998Y-82.3
X230.998Y-158.3
X230.998Y-234.3
X231.3Y-60.43
X231.3Y-136.43
X231.3Y-212.43
X231.6Y-73.9
X231.6Y-149.9
X231.6Y-225.9
X231.65Y-68.05
X231.65Y-144.05
X231.65Y-220.05
X231.8Y-60.43
X231.8Y-136.43
X231.8Y-212.43
X231.901Y-82.859
X231.901Y-158.859
X231.901Y-234.859
X232.001Y-81.95
X232.001Y-157.95
X232.001Y-233.95
X232.275Y-97.9
X232.275Y-173.9
X232.275Y-249.9
X232.3Y-97.4
X232.3Y-173.4
X232.3Y-249.4
X233.248Y-57.8
X233.248Y-133.8
X233.248Y-209.8
X233.55Y-83.5
X233.55Y-159.5
X233.55Y-235.5
X233.75Y-66.1
X233.75Y-75.85
X233.75Y-142.1
X233.75Y-151.85
X233.75Y-218.1
X233.75Y-227.85
X233.8Y-57.2
X233.8Y-133.2
X233.8Y-209.2
X234.0Y-94.2
X234.0Y-170.2
X234.0Y-246.2
X234.05Y-83.5
X234.05Y-159.5
X234.05Y-235.5
X234.1Y-96.25
X234.1Y-96.75
X234.1Y-97.25
X234.1Y-172.25
X234.1Y-172.75
X234.1Y-173.25
X234.1Y-248.25
X234.1Y-248.75
X234.1Y-249.25
X234.3Y-70.75
X234.3Y-71.25
X234.3Y-71.95
X234.3Y-72.45
X234.3Y-146.75
X234.3Y-147.25
X234.3Y-147.95
X234.3Y-148.45
X234.3Y-222.75
X234.3Y-223.25
X234.3Y-223.95
X234.3Y-224.45
X234.5Y-94.2
X234.5Y-170.2
X234.5Y-246.2
X234.6Y-96.25
X234.6Y-96.75
X234.6Y-97.25
X234.6Y-172.25
X234.6Y-172.75
X234.6Y-173.25
X234.6Y-248.25
X234.6Y-248.75
X234.6Y-249.25
X234.75Y-58.5
X234.75Y-83.5
X234.75Y-134.5
X234.75Y-159.5
X234.75Y-210.5
X234.75Y-235.5
X235.0Y-41.0
X235.0Y-66.1
X235.0Y-75.85
X235.0Y-101.0
X235.0Y-117.0
X235.0Y-142.1
X235.0Y-151.85
X235.0Y-177.0
X235.0Y-193.0
X235.0Y-218.1
X235.0Y-227.85
X235.0Y-253.0
X235.25Y-58.5
X235.25Y-83.5
X235.25Y-134.5
X235.25Y-159.5
X235.25Y-210.5
X235.25Y-235.5
X235.5Y-83.0
X235.5Y-97.15
X235.5Y-159.0
X235.5Y-173.15
X235.5Y-235.0
X235.5Y-249.15
X235.648Y-84.0
X235.648Y-160.0
X235.648Y-236.0
X235.7Y-69.55
X235.7Y-70.05
X235.7Y-70.75
X235.7Y-71.25
X235.7Y-145.55
X235.7Y-146.05
X235.7Y-146.75
X235.7Y-147.25
X235.7Y-221.55
X235.7Y-222.05
X235.7Y-222.75
X235.7Y-223.25
X235.95Y-58.5
X235.95Y-134.5
X235.95Y-210.5
X236.1Y-57.2
X236.1Y-133.2
X236.1Y-209.2
X236.2Y-84.7
X236.2Y-160.7
X236.2Y-236.7
X236.25Y-66.1
X236.25Y-75.85
X236.25Y-142.1
X236.25Y-151.85
X236.25Y-218.1
X236.25Y-227.85
X236.45Y-58.5
X236.45Y-134.5
X236.45Y-210.5
X236.95Y-81.95
X236.95Y-157.95
X236.95Y-233.95
X237.5Y-93.9
X237.5Y-97.2
X237.5Y-169.9
X237.5Y-173.2
X237.5Y-245.9
X237.5Y-249.2
X237.898Y-59.35
X237.898Y-135.35
X237.898Y-211.35
X238.2Y-81.55
X238.2Y-157.55
X238.2Y-233.55
X238.35Y-73.9
X238.35Y-149.9
X238.35Y-225.9
X238.375Y-68.05
X238.375Y-144.05
X238.375Y-220.05
X238.7Y-81.55
X238.7Y-157.55
X238.7Y-233.55
X238.85Y-58.55
X238.85Y-134.55
X238.85Y-210.55
X238.9Y-57.2
X238.9Y-133.2
X238.9Y-209.2
X238.901Y-59.801
X238.901Y-135.802
X238.901Y-211.802
X239.3Y-60.45
X239.3Y-136.45
X239.3Y-212.45
X239.4Y-81.55
X239.4Y-157.55
X239.4Y-233.55
X239.65Y-68.05
X239.65Y-73.9
X239.65Y-144.05
X239.65Y-149.9
X239.65Y-220.05
X239.65Y-225.9
X239.7Y-84.7
X239.7Y-160.7
X239.7Y-236.7
X239.75Y-83.35
X239.75Y-159.35
X239.75Y-235.35
X239.9Y-81.55
X239.9Y-157.55
X239.9Y-233.55
X240.0Y-60.45
X240.0Y-136.45
X240.0Y-212.45
X240.6Y-60.45
X240.6Y-136.45
X240.6Y-212.45
X240.9Y-73.9
X240.9Y-149.9
X240.9Y-225.9
X240.925Y-68.05
X240.925Y-144.05
X240.925Y-220.05
X241.1Y-60.45
X241.1Y-136.45
X241.1Y-212.45
X241.3Y-57.2
X241.3Y-58.55
X241.3Y-81.8
X241.3Y-97.0
X241.3Y-133.2
X241.3Y-134.55
X241.3Y-157.8
X241.3Y-173.0
X241.3Y-209.2
X241.3Y-210.55
X241.3Y-233.8
X241.3Y-249.0
X241.35Y-93.75
X241.35Y-169.75
X241.35Y-245.75
X241.4Y-88.25
X241.4Y-164.25
X241.4Y-240.25
X242.0Y-60.4
X242.0Y-136.4
X242.0Y-212.4
X243.1Y-84.7
X243.1Y-160.7
X243.1Y-236.7
X243.3Y-69.75
X243.3Y-71.0
X243.3Y-72.25
X243.3Y-145.75
X243.3Y-147.0
X243.3Y-148.25
X243.3Y-221.75
X243.3Y-223.0
X243.3Y-224.25
X243.4Y-79.65
X243.4Y-155.65
X243.4Y-231.65
X244.7Y-58.85
X244.7Y-61.0
X244.7Y-63.05
X244.7Y-134.85
X244.7Y-137.0
X244.7Y-139.05
X244.7Y-210.85
X244.7Y-213.0
X244.7Y-215.05
X244.8Y-93.8
X244.8Y-169.8
X244.8Y-245.8
X244.85Y-97.0
X244.85Y-173.0
X244.85Y-249.0
X244.9Y-80.85
X244.9Y-156.85
X244.9Y-232.85
X245.0Y-41.0
X245.0Y-51.0
X245.0Y-71.0
X245.0Y-91.0
X245.0Y-101.0
X245.0Y-117.0
X245.0Y-127.0
X245.0Y-147.0
X245.0Y-167.0
X245.0Y-177.0
X245.0Y-193.0
X245.0Y-203.0
X245.0Y-223.0
X245.0Y-243.0
X245.0Y-253.0
X246.1Y-81.7
X246.1Y-157.7
X246.1Y-233.7
X246.3Y-76.8
X246.3Y-152.8
X246.3Y-228.8
X247.349Y-65.75
X247.349Y-141.75
X247.349Y-217.75
X247.4Y-63.7
X247.4Y-139.7
X247.4Y-215.7
X247.45Y-61.65
X247.45Y-137.65
X247.45Y-213.65
X248.15Y-77.6
X248.15Y-153.6
X248.15Y-229.6
X248.251Y-74.65
X248.251Y-150.65
X248.251Y-226.65
X248.4Y-71.0
X248.4Y-147.0
X248.4Y-223.0
X248.675Y-68.972
X248.675Y-144.972
X248.675Y-220.972
X248.7Y-96.95
X248.7Y-172.95
X248.7Y-248.95
X248.702Y-73.002
X248.702Y-149.002
X248.702Y-225.002
X248.9Y-93.85
X248.9Y-169.85
X248.9Y-245.85
X248.95Y-92.2
X248.95Y-168.2
X248.95Y-244.2
X249.0Y-71.0
X249.0Y-147.0
X249.0Y-223.0
X249.2Y-78.6
X249.2Y-154.6
X249.2Y-230.6
X249.5Y-71.0
X249.5Y-147.0
X249.5Y-223.0
X249.51Y-87.12
X249.51Y-89.32
X249.51Y-90.82
X249.51Y-163.12
X249.51Y-165.32
X249.51Y-166.82
X249.51Y-239.12
X249.51Y-241.32
X249.51Y-242.82
X249.55Y-82.3
X249.55Y-158.3
X249.55Y-234.3
X249.6Y-85.35
X249.6Y-161.35
X249.6Y-237.35
X249.7Y-81.3
X249.7Y-157.3
X249.7Y-233.3
X249.823Y-66.051
X249.823Y-142.052
X249.823Y-218.052
X250.1Y-71.0
X250.1Y-147.0
X250.1Y-223.0
X250.4Y-62.9
X250.4Y-79.1
X250.4Y-79.6
X250.4Y-138.9
X250.4Y-155.1
X250.4Y-155.6
X250.4Y-214.9
X250.4Y-231.1
X250.4Y-231.6
X250.51Y-87.12
X250.51Y-89.32
X250.51Y-90.82
X250.51Y-163.12
X250.51Y-165.32
X250.51Y-166.82
X250.51Y-239.12
X250.51Y-241.32
X250.51Y-242.82
X251.5Y-62.9
X251.5Y-79.1
X251.5Y-79.6
X251.5Y-81.95
X251.5Y-138.9
X251.5Y-155.1
X251.5Y-155.6
X251.5Y-157.95
X251.5Y-214.9
X251.5Y-231.1
X251.5Y-231.6
X251.5Y-233.95
X252.1Y-65.311
X252.1Y-141.311
X252.1Y-217.311
X252.15Y-66.6
X252.15Y-142.6
X252.15Y-218.6
X252.171Y-77.45
X252.171Y-153.45
X252.171Y-229.45
X252.2Y-75.4
X252.2Y-76.4
X252.2Y-151.4
X252.2Y-152.4
X252.2Y-227.4
X252.2Y-228.4
X252.401Y-94.2
X252.401Y-170.2
X252.401Y-246.2
X252.6Y-62.9
X252.6Y-79.1
X252.6Y-79.6
X252.6Y-138.9
X252.6Y-155.1
X252.6Y-155.6
X252.6Y-214.9
X252.6Y-231.1
X252.6Y-231.6
X252.9Y-69.5
X252.9Y-70.0
X252.9Y-72.0
X252.9Y-72.5
X252.9Y-145.5
X252.9Y-146.0
X252.9Y-148.0
X252.9Y-148.5
X252.9Y-221.5
X252.9Y-222.0
X252.9Y-224.0
X252.9Y-224.5
X253.2Y-64.3
X253.2Y-64.9
X253.2Y-140.3
X253.2Y-140.9
X253.2Y-216.3
X253.2Y-216.9
X253.3Y-77.45
X253.3Y-153.45
X253.3Y-229.45
X253.35Y-95.45
X253.35Y-171.45
X253.35Y-247.45
X253.5Y-69.5
X253.5Y-70.0
X253.5Y-72.0
X253.5Y-72.5
X253.5Y-145.5
X253.5Y-146.0
X253.5Y-148.0
X253.5Y-148.5
X253.5Y-221.5
X253.5Y-222.0
X253.5Y-224.0
X253.5Y-224.5
X253.8Y-62.9
X253.8Y-79.1
X253.8Y-138.9
X253.8Y-155.1
X253.8Y-214.9
X253.8Y-231.1
X254.2Y-66.6
X254.2Y-75.4
X254.2Y-76.4
X254.2Y-142.6
X254.2Y-151.4
X254.2Y-152.4
X254.2Y-218.6
X254.2Y-227.4
X254.2Y-228.4
X254.4Y-65.3
X254.4Y-141.3
X254.4Y-217.3
X254.5Y-90.9
X254.5Y-166.9
X254.5Y-242.9
X254.9Y-62.9
X254.9Y-79.1
X254.9Y-138.9
X254.9Y-155.1
X254.9Y-214.9
X254.9Y-231.1
X255.0Y-41.0
X255.0Y-51.0
X255.0Y-61.0
X255.0Y-71.0
X255.0Y-81.0
X255.0Y-101.0
X255.0Y-117.0
X255.0Y-127.0
X255.0Y-137.0
X255.0Y-147.0
X255.0Y-157.0
X255.0Y-177.0
X255.0Y-193.0
X255.0Y-203.0
X255.0Y-213.0
X255.0Y-223.0
X255.0Y-233.0
X255.0Y-253.0
X255.9Y-89.32
X255.9Y-165.32
X255.9Y-241.32
X256.0Y-62.9
X256.0Y-79.1
X256.0Y-138.9
X256.0Y-155.1
X256.0Y-214.9
X256.0Y-231.1
X256.3Y-71.0
X256.3Y-147.0
X256.3Y-223.0
X256.7Y-82.325
X256.7Y-158.325
X256.7Y-234.325
X256.9Y-71.0
X256.9Y-89.32
X256.9Y-147.0
X256.9Y-165.32
X256.9Y-223.0
X256.9Y-241.32
X257.15Y-69.9
X257.15Y-72.15
X257.15Y-145.9
X257.15Y-148.15
X257.15Y-221.9
X257.15Y-224.15
X257.4Y-71.0
X257.4Y-147.0
X257.4Y-223.0
X257.772Y-77.9
X257.772Y-153.9
X257.772Y-229.9
X257.9Y-86.3
X257.9Y-162.3
X257.9Y-238.3
X257.95Y-91.55
X257.95Y-167.55
X257.95Y-243.55
X258.5Y-64.45
X258.5Y-140.45
X258.5Y-216.45
T4
X40.6Y-95.05
X40.6Y-171.05
X40.6Y-247.05
X41.303Y-93.353
X41.303Y-96.747
X41.303Y-169.353
X41.303Y-172.747
X41.303Y-245.353
X41.303Y-248.747
X43.0Y-92.65
X43.0Y-97.45
X43.0Y-168.65
X43.0Y-173.45
X43.0Y-244.65
X43.0Y-249.45
X44.697Y-93.353
X44.697Y-96.747
X44.697Y-169.353
X44.697Y-172.747
X44.697Y-245.353
X44.697Y-248.747
X45.4Y-95.05
X45.4Y-171.05
X45.4Y-247.05
X88.6Y-47.05
X88.6Y-123.05
X88.6Y-199.05
X89.303Y-45.353
X89.303Y-48.747
X89.303Y-121.353
X89.303Y-124.747
X89.303Y-197.353
X89.303Y-200.747
X91.0Y-44.65
X91.0Y-49.45
X91.0Y-120.65
X91.0Y-125.45
X91.0Y-196.65
X91.0Y-201.45
X92.697Y-45.353
X92.697Y-48.747
X92.697Y-121.353
X92.697Y-124.747
X92.697Y-197.353
X92.697Y-200.747
X93.4Y-47.05
X93.4Y-123.05
X93.4Y-199.05
X109.6Y-47.0
X109.6Y-95.0
X109.6Y-123.0
X109.6Y-171.0
X109.6Y-199.0
X109.6Y-247.0
X110.303Y-45.303
X110.303Y-48.697
X110.303Y-93.303
X110.303Y-96.697
X110.303Y-121.303
X110.303Y-124.697
X110.303Y-169.303
X110.303Y-172.697
X110.303Y-197.303
X110.303Y-200.697
X110.303Y-245.303
X110.303Y-248.697
X112.0Y-44.6
X112.0Y-49.4
X112.0Y-92.6
X112.0Y-97.4
X112.0Y-120.6
X112.0Y-125.4
X112.0Y-168.6
X112.0Y-173.4
X112.0Y-196.6
X112.0Y-201.4
X112.0Y-244.6
X112.0Y-249.4
X113.697Y-45.303
X113.697Y-48.697
X113.697Y-93.303
X113.697Y-96.697
X113.697Y-121.303
X113.697Y-124.697
X113.697Y-169.303
X113.697Y-172.697
X113.697Y-197.303
X113.697Y-200.697
X113.697Y-245.303
X113.697Y-248.697
X114.4Y-47.0
X114.4Y-95.0
X114.4Y-123.0
X114.4Y-171.0
X114.4Y-199.0
X114.4Y-247.0
X157.6Y-47.0
X157.6Y-95.0
X157.6Y-123.0
X157.6Y-171.0
X157.6Y-199.0
X157.6Y-247.0
X158.303Y-45.303
X158.303Y-48.697
X158.303Y-93.303
X158.303Y-96.697
X158.303Y-121.303
X158.303Y-124.697
X158.303Y-169.303
X158.303Y-172.697
X158.303Y-197.303
X158.303Y-200.697
X158.303Y-245.303
X158.303Y-248.697
X160.0Y-44.6
X160.0Y-49.4
X160.0Y-92.6
X160.0Y-97.4
X160.0Y-120.6
X160.0Y-125.4
X160.0Y-168.6
X160.0Y-173.4
X160.0Y-196.6
X160.0Y-201.4
X160.0Y-244.6
X160.0Y-249.4
X161.697Y-45.303
X161.697Y-48.697
X161.697Y-93.303
X161.697Y-96.697
X161.697Y-121.303
X161.697Y-124.697
X161.697Y-169.303
X161.697Y-172.697
X161.697Y-197.303
X161.697Y-200.697
X161.697Y-245.303
X161.697Y-248.697
X162.4Y-47.0
X162.4Y-95.0
X162.4Y-123.0
X162.4Y-171.0
X162.4Y-199.0
X162.4Y-247.0
X186.6Y-53.0
X186.6Y-89.0
X186.6Y-129.0
X186.6Y-165.0
X186.6Y-205.0
X186.6Y-241.0
X187.303Y-51.303
X187.303Y-54.697
X187.303Y-87.303
X187.303Y-90.697
X187.303Y-127.303
X187.303Y-130.697
X187.303Y-163.303
X187.303Y-166.697
X187.303Y-203.303
X187.303Y-206.697
X187.303Y-239.303
X187.303Y-242.697
X189.0Y-50.6
X189.0Y-55.4
X189.0Y-86.6
X189.0Y-91.4
X189.0Y-126.6
X189.0Y-131.4
X189.0Y-162.6
X189.0Y-167.4
X189.0Y-202.6
X189.0Y-207.4
X189.0Y-238.6
X189.0Y-243.4
X190.697Y-51.303
X190.697Y-54.697
X190.697Y-87.303
X190.697Y-90.697
X190.697Y-127.303
X190.697Y-130.697
X190.697Y-163.303
X190.697Y-166.697
X190.697Y-203.303
X190.697Y-206.697
X190.697Y-239.303
X190.697Y-242.697
X191.4Y-53.0
X191.4Y-89.0
X191.4Y-129.0
X191.4Y-165.0
X191.4Y-205.0
X191.4Y-241.0
X232.6Y-53.0
X232.6Y-89.0
X232.6Y-129.0
X232.6Y-165.0
X232.6Y-205.0
X232.6Y-241.0
X233.303Y-51.303
X233.303Y-54.697
X233.303Y-87.303
X233.303Y-90.697
X233.303Y-127.303
X233.303Y-130.697
X233.303Y-163.303
X233.303Y-166.697
X233.303Y-203.303
X233.303Y-206.697
X233.303Y-239.303
X233.303Y-242.697
X235.0Y-50.6
X235.0Y-55.4
X235.0Y-86.6
X235.0Y-91.4
X235.0Y-126.6
X235.0Y-131.4
X235.0Y-162.6
X235.0Y-167.4
X235.0Y-202.6
X235.0Y-207.4
X235.0Y-238.6
X235.0Y-243.4
X236.697Y-51.303
X236.697Y-54.697
X236.697Y-87.303
X236.697Y-90.697
X236.697Y-127.303
X236.697Y-130.697
X236.697Y-163.303
X236.697Y-166.697
X236.697Y-203.303
X236.697Y-206.697
X236.697Y-239.303
X236.697Y-242.697
X237.4Y-53.0
X237.4Y-89.0
X237.4Y-129.0
X237.4Y-165.0
X237.4Y-205.0
X237.4Y-241.0
T5
X57.0Y-86.2
X57.0Y-87.47
X57.0Y-88.74
X57.0Y-90.01
X57.0Y-162.2
X57.0Y-163.47
X57.0Y-164.74
X57.0Y-166.01
X57.0Y-238.2
X57.0Y-239.47
X57.0Y-240.74
X57.0Y-242.01
T6
X109.0Y-65.425
X109.0Y-67.965
X109.0Y-70.505
X109.0Y-73.045
X109.0Y-75.585
X109.0Y-141.425
X109.0Y-143.965
X109.0Y-146.505
X109.0Y-149.045
X109.0Y-151.585
X109.0Y-217.425
X109.0Y-219.965
X109.0Y-222.505
X109.0Y-225.045
X109.0Y-227.585
T7
X43.0Y-95.05
X43.0Y-171.05
X43.0Y-247.05
X91.0Y-47.05
X91.0Y-123.05
X91.0Y-199.05
X112.0Y-47.0
X112.0Y-95.0
X112.0Y-123.0
X112.0Y-171.0
X112.0Y-199.0
X112.0Y-247.0
X160.0Y-47.0
X160.0Y-95.0
X160.0Y-123.0
X160.0Y-171.0
X160.0Y-199.0
X160.0Y-247.0
X189.0Y-53.0
X189.0Y-89.0
X189.0Y-129.0
X189.0Y-165.0
X189.0Y-205.0
X189.0Y-241.0
X235.0Y-53.0
X235.0Y-89.0
X235.0Y-129.0
X235.0Y-165.0
X235.0Y-205.0
X235.0Y-241.0
T5
G00X90.775Y-54.63
M15
G01X91.775Y-54.63
M16
G05
G00X90.775Y-63.27
M15
G01X91.775Y-63.27
M16
G05
G00X90.775Y-130.63
M15
G01X91.775Y-130.63
M16
G05
G00X90.775Y-139.27
M15
G01X91.775Y-139.27
M16
G05
G00X90.775Y-206.63
M15
G01X91.775Y-206.63
M16
G05
G00X90.775Y-215.27
M15
G01X91.775Y-215.27
M16
G05
G00X94.6Y-54.63
M15
G01X95.6Y-54.63
M16
G05
G00X94.6Y-63.27
M15
G01X95.6Y-63.27
M16
G05
G00X94.6Y-130.63
M15
G01X95.6Y-130.63
M16
G05
G00X94.6Y-139.27
M15
G01X95.6Y-139.27
M16
G05
G00X94.6Y-206.63
M15
G01X95.6Y-206.63
M16
G05
G00X94.6Y-215.27
M15
G01X95.6Y-215.27
M16
G05
T0
M30
