%TF.GenerationSoftware,KiCad,Pcbnew,7.0.5-7.0.5~ubuntu22.04.1*%
%TF.CreationDate,2023-07-04T15:33:40+02:00*%
%TF.ProjectId,panel,70616e65-6c2e-46b6-9963-61645f706362,C*%
%TF.SameCoordinates,Original*%
%TF.FileFunction,Other,User*%
%FSLAX46Y46*%
G04 Gerber Fmt 4.6, Leading zero omitted, Abs format (unit mm)*
G04 Created by KiCad (PCBNEW 7.0.5-7.0.5~ubuntu22.04.1) date 2023-07-04 15:33:40*
%MOMM*%
%LPD*%
G01*
G04 APERTURE LIST*
%ADD10C,0.050000*%
G04 APERTURE END LIST*
D10*
%TO.C,JP1*%
X160600000Y-74375000D02*
X160600000Y-76875000D01*
X160600000Y-74375000D02*
X157300000Y-74375000D01*
X157300000Y-76875000D02*
X160600000Y-76875000D01*
X157300000Y-76875000D02*
X157300000Y-74375000D01*
%TO.C,JP402*%
X82250000Y-198800000D02*
X84750000Y-198800000D01*
X82250000Y-198800000D02*
X82250000Y-203400000D01*
X84750000Y-203400000D02*
X84750000Y-198800000D01*
X84750000Y-203400000D02*
X82250000Y-203400000D01*
%TO.C,JP401*%
X84450000Y-48800000D02*
X86950000Y-48800000D01*
X84450000Y-48800000D02*
X84450000Y-53400000D01*
X86950000Y-53400000D02*
X86950000Y-48800000D01*
X86950000Y-53400000D02*
X84450000Y-53400000D01*
%TO.C,TP406*%
X61075000Y-241175000D02*
G75*
G03*
X61075000Y-241175000I-1000000J0D01*
G01*
%TO.C,JP1*%
X160600000Y-149375000D02*
X160600000Y-151875000D01*
X160600000Y-149375000D02*
X157300000Y-149375000D01*
X157300000Y-151875000D02*
X160600000Y-151875000D01*
X157300000Y-151875000D02*
X157300000Y-149375000D01*
%TO.C,TP904*%
X94200000Y-47600000D02*
G75*
G03*
X94200000Y-47600000I-1000000J0D01*
G01*
%TO.C,BT301*%
X125635682Y-235092211D02*
X129949033Y-239405562D01*
X129949033Y-239405562D02*
X133343146Y-236011450D01*
X126696342Y-229364646D02*
X129029794Y-231698098D01*
X129029794Y-231698098D02*
X125635682Y-235092211D01*
X133343146Y-236011450D02*
X138116117Y-240784420D01*
X138116117Y-240784420D02*
X143171930Y-235728607D01*
X128110556Y-221232918D02*
X126696342Y-229364646D01*
X134191674Y-215151800D02*
X128110556Y-221232918D01*
X142323402Y-213737586D02*
X134191674Y-215151800D01*
X144656854Y-216071038D02*
X142323402Y-213737586D01*
X148970206Y-220384390D02*
X152364318Y-216990277D01*
X153743176Y-225157361D02*
X148687363Y-230213174D01*
X153743176Y-225157361D02*
X148970206Y-220384390D01*
X148050967Y-212676926D02*
X144656854Y-216071038D01*
X152364318Y-216990277D02*
X148050967Y-212676926D01*
X143171930Y-235728607D02*
G75*
G03*
X148687363Y-230213174I-4171926J9687359D01*
G01*
%TO.C,TP903*%
X85600000Y-85900000D02*
G75*
G03*
X85600000Y-85900000I-1000000J0D01*
G01*
%TO.C,BT301*%
X125635682Y-160092211D02*
X129949033Y-164405562D01*
X129949033Y-164405562D02*
X133343146Y-161011450D01*
X126696342Y-154364646D02*
X129029794Y-156698098D01*
X129029794Y-156698098D02*
X125635682Y-160092211D01*
X133343146Y-161011450D02*
X138116117Y-165784420D01*
X138116117Y-165784420D02*
X143171930Y-160728607D01*
X128110556Y-146232918D02*
X126696342Y-154364646D01*
X134191674Y-140151800D02*
X128110556Y-146232918D01*
X142323402Y-138737586D02*
X134191674Y-140151800D01*
X144656854Y-141071038D02*
X142323402Y-138737586D01*
X148970206Y-145384390D02*
X152364318Y-141990277D01*
X153743176Y-150157361D02*
X148687363Y-155213174D01*
X153743176Y-150157361D02*
X148970206Y-145384390D01*
X148050967Y-137676926D02*
X144656854Y-141071038D01*
X152364318Y-141990277D02*
X148050967Y-137676926D01*
X143171930Y-160728607D02*
G75*
G03*
X148687363Y-155213174I-4171926J9687359D01*
G01*
%TO.C,TP406*%
X61075000Y-91175000D02*
G75*
G03*
X61075000Y-91175000I-1000000J0D01*
G01*
%TO.C,JP2*%
X160600000Y-146825000D02*
X160600000Y-149325000D01*
X160600000Y-146825000D02*
X157300000Y-146825000D01*
X157300000Y-149325000D02*
X160600000Y-149325000D01*
X157300000Y-149325000D02*
X157300000Y-146825000D01*
%TO.C,JP1401*%
X72150000Y-86300000D02*
X74650000Y-86300000D01*
X72150000Y-86300000D02*
X72150000Y-90900000D01*
X74650000Y-90900000D02*
X74650000Y-86300000D01*
X74650000Y-90900000D02*
X72150000Y-90900000D01*
%TO.C,J202*%
X64150000Y-104450000D02*
X51150000Y-104450000D01*
X64150000Y-95950000D02*
X64150000Y-104450000D01*
X51150000Y-104450000D02*
X51150000Y-95950000D01*
X51150000Y-95950000D02*
X64150000Y-95950000D01*
%TO.C,JP1*%
X160600000Y-224375000D02*
X160600000Y-226875000D01*
X160600000Y-224375000D02*
X157300000Y-224375000D01*
X157300000Y-226875000D02*
X160600000Y-226875000D01*
X157300000Y-226875000D02*
X157300000Y-224375000D01*
%TO.C,TP902*%
X101200000Y-70500000D02*
G75*
G03*
X101200000Y-70500000I-1000000J0D01*
G01*
X101200000Y-145500000D02*
G75*
G03*
X101200000Y-145500000I-1000000J0D01*
G01*
%TO.C,JP1401*%
X72150000Y-236300000D02*
X74650000Y-236300000D01*
X72150000Y-236300000D02*
X72150000Y-240900000D01*
X74650000Y-240900000D02*
X74650000Y-236300000D01*
X74650000Y-240900000D02*
X72150000Y-240900000D01*
%TO.C,JP402*%
X82250000Y-123800000D02*
X84750000Y-123800000D01*
X82250000Y-123800000D02*
X82250000Y-128400000D01*
X84750000Y-128400000D02*
X84750000Y-123800000D01*
X84750000Y-128400000D02*
X82250000Y-128400000D01*
%TO.C,TP407*%
X61075000Y-89025000D02*
G75*
G03*
X61075000Y-89025000I-1000000J0D01*
G01*
%TO.C,J202*%
X64150000Y-254450000D02*
X51150000Y-254450000D01*
X64150000Y-245950000D02*
X64150000Y-254450000D01*
X51150000Y-254450000D02*
X51150000Y-245950000D01*
X51150000Y-245950000D02*
X64150000Y-245950000D01*
%TO.C,TP407*%
X61075000Y-239025000D02*
G75*
G03*
X61075000Y-239025000I-1000000J0D01*
G01*
%TO.C,J202*%
X64150000Y-179450000D02*
X51150000Y-179450000D01*
X64150000Y-170950000D02*
X64150000Y-179450000D01*
X51150000Y-179450000D02*
X51150000Y-170950000D01*
X51150000Y-170950000D02*
X64150000Y-170950000D01*
%TO.C,TP407*%
X61075000Y-164025000D02*
G75*
G03*
X61075000Y-164025000I-1000000J0D01*
G01*
%TO.C,BT301*%
X125635682Y-85092211D02*
X129949033Y-89405562D01*
X129949033Y-89405562D02*
X133343146Y-86011450D01*
X126696342Y-79364646D02*
X129029794Y-81698098D01*
X129029794Y-81698098D02*
X125635682Y-85092211D01*
X133343146Y-86011450D02*
X138116117Y-90784420D01*
X138116117Y-90784420D02*
X143171930Y-85728607D01*
X128110556Y-71232918D02*
X126696342Y-79364646D01*
X134191674Y-65151800D02*
X128110556Y-71232918D01*
X142323402Y-63737586D02*
X134191674Y-65151800D01*
X144656854Y-66071038D02*
X142323402Y-63737586D01*
X148970206Y-70384390D02*
X152364318Y-66990277D01*
X153743176Y-75157361D02*
X148687363Y-80213174D01*
X153743176Y-75157361D02*
X148970206Y-70384390D01*
X148050967Y-62676926D02*
X144656854Y-66071038D01*
X152364318Y-66990277D02*
X148050967Y-62676926D01*
X143171930Y-85728607D02*
G75*
G03*
X148687363Y-80213174I-4171926J9687359D01*
G01*
%TO.C,TP903*%
X85600000Y-235900000D02*
G75*
G03*
X85600000Y-235900000I-1000000J0D01*
G01*
%TO.C,JP401*%
X84450000Y-123800000D02*
X86950000Y-123800000D01*
X84450000Y-123800000D02*
X84450000Y-128400000D01*
X86950000Y-128400000D02*
X86950000Y-123800000D01*
X86950000Y-128400000D02*
X84450000Y-128400000D01*
%TO.C,TP904*%
X94200000Y-122600000D02*
G75*
G03*
X94200000Y-122600000I-1000000J0D01*
G01*
%TO.C,TP903*%
X85600000Y-160900000D02*
G75*
G03*
X85600000Y-160900000I-1000000J0D01*
G01*
%TO.C,TP904*%
X94200000Y-197600000D02*
G75*
G03*
X94200000Y-197600000I-1000000J0D01*
G01*
%TO.C,JP2*%
X160600000Y-71825000D02*
X160600000Y-74325000D01*
X160600000Y-71825000D02*
X157300000Y-71825000D01*
X157300000Y-74325000D02*
X160600000Y-74325000D01*
X157300000Y-74325000D02*
X157300000Y-71825000D01*
%TO.C,JP401*%
X84450000Y-198800000D02*
X86950000Y-198800000D01*
X84450000Y-198800000D02*
X84450000Y-203400000D01*
X86950000Y-203400000D02*
X86950000Y-198800000D01*
X86950000Y-203400000D02*
X84450000Y-203400000D01*
%TO.C,JP2*%
X160600000Y-221825000D02*
X160600000Y-224325000D01*
X160600000Y-221825000D02*
X157300000Y-221825000D01*
X157300000Y-224325000D02*
X160600000Y-224325000D01*
X157300000Y-224325000D02*
X157300000Y-221825000D01*
%TO.C,TP406*%
X61075000Y-166175000D02*
G75*
G03*
X61075000Y-166175000I-1000000J0D01*
G01*
%TO.C,JP1401*%
X72150000Y-161300000D02*
X74650000Y-161300000D01*
X72150000Y-161300000D02*
X72150000Y-165900000D01*
X74650000Y-165900000D02*
X74650000Y-161300000D01*
X74650000Y-165900000D02*
X72150000Y-165900000D01*
%TO.C,JP402*%
X82250000Y-48800000D02*
X84750000Y-48800000D01*
X82250000Y-48800000D02*
X82250000Y-53400000D01*
X84750000Y-53400000D02*
X84750000Y-48800000D01*
X84750000Y-53400000D02*
X82250000Y-53400000D01*
%TO.C,TP902*%
X101200000Y-220500000D02*
G75*
G03*
X101200000Y-220500000I-1000000J0D01*
G01*
%TD*%
M02*
