M48
; DRILL file {KiCad 7.0.5-7.0.5~ubuntu22.04.1} date Tue 04 Jul 2023 15:33:46
; FORMAT={-:-/ absolute / metric / decimal}
; #@! TF.CreationDate,2023-07-04T15:33:46+02:00
; #@! TF.GenerationSoftware,Kicad,Pcbnew,7.0.5-7.0.5~ubuntu22.04.1
; #@! TF.FileFunction,Plated,1,4,PTH
FMAT,2
METRIC
; #@! TA.AperFunction,Plated,PTH,ViaDrill
T1C0.200
; #@! TA.AperFunction,Plated,PTH,ComponentDrill
T2C0.200
; #@! TA.AperFunction,Plated,PTH,ViaDrill
T3C0.250
; #@! TA.AperFunction,Plated,PTH,ComponentDrill
T4C0.500
; #@! TA.AperFunction,Plated,PTH,ComponentDrill
T5C0.650
; #@! TA.AperFunction,Plated,PTH,ComponentDrill
T6C1.000
; #@! TA.AperFunction,Plated,PTH,ComponentDrill
T7C3.200
%
G90
G05
T1
X48.45Y-90.816
X48.45Y-165.816
X48.45Y-240.816
X49.85Y-90.286
X49.85Y-165.286
X49.85Y-240.286
X49.91Y-89.74
X49.91Y-164.74
X49.91Y-239.74
X50.7Y-81.2
X50.7Y-156.2
X50.7Y-231.2
X50.75Y-86.25
X50.75Y-161.25
X50.75Y-236.25
X52.1Y-88.62
X52.1Y-163.62
X52.1Y-238.62
X56.0Y-83.3
X56.0Y-158.3
X56.0Y-233.3
X56.325Y-83.775
X56.325Y-158.775
X56.325Y-233.775
X56.55Y-82.15
X56.55Y-157.15
X56.55Y-232.15
X56.925Y-76.025
X56.925Y-151.025
X56.925Y-226.025
X65.449Y-71.551
X65.449Y-146.551
X65.449Y-221.551
X66.1Y-69.8
X66.1Y-144.8
X66.1Y-219.8
X67.79Y-69.233
X67.79Y-144.233
X67.79Y-219.233
X70.8Y-70.8
X70.8Y-145.8
X70.8Y-220.8
X72.569Y-74.525
X72.569Y-149.525
X72.569Y-224.525
X74.097Y-68.0
X74.097Y-143.0
X74.097Y-218.0
X74.154Y-67.453
X74.154Y-142.453
X74.154Y-217.453
X75.45Y-68.65
X75.45Y-143.65
X75.45Y-218.65
X79.125Y-51.75
X79.125Y-126.75
X79.125Y-201.75
X186.539Y-87.402
X186.539Y-162.402
X186.539Y-237.402
X188.8Y-62.794
X188.8Y-137.794
X188.8Y-212.794
X191.2Y-88.994
X191.2Y-163.994
X191.2Y-238.994
X193.45Y-64.194
X193.45Y-139.194
X193.45Y-214.194
X203.3Y-81.094
X203.3Y-156.094
X203.3Y-231.094
X203.4Y-70.794
X203.4Y-145.794
X203.4Y-220.794
X212.4Y-81.194
X212.4Y-156.194
X212.4Y-231.194
X213.1Y-70.804
X213.1Y-145.804
X213.1Y-220.804
X231.539Y-87.402
X231.539Y-162.402
X231.539Y-237.402
X233.8Y-62.794
X233.8Y-137.794
X233.8Y-212.794
X236.2Y-88.994
X236.2Y-163.994
X236.2Y-238.994
X238.45Y-64.194
X238.45Y-139.194
X238.45Y-214.194
X248.3Y-81.094
X248.3Y-156.094
X248.3Y-231.094
X248.4Y-70.794
X248.4Y-145.794
X248.4Y-220.794
X257.4Y-81.194
X257.4Y-156.194
X257.4Y-231.194
X258.101Y-70.804
X258.101Y-145.804
X258.101Y-220.804
T2
X56.11Y-54.21
X56.11Y-55.39
X56.11Y-66.01
X56.11Y-67.19
X56.11Y-129.21
X56.11Y-130.39
X56.11Y-141.01
X56.11Y-142.19
X56.11Y-204.21
X56.11Y-205.39
X56.11Y-216.01
X56.11Y-217.19
X57.29Y-54.21
X57.29Y-55.39
X57.29Y-66.01
X57.29Y-67.19
X57.29Y-129.21
X57.29Y-130.39
X57.29Y-141.01
X57.29Y-142.19
X57.29Y-204.21
X57.29Y-205.39
X57.29Y-216.01
X57.29Y-217.19
X96.605Y-76.401
X96.605Y-77.581
X96.605Y-151.401
X96.605Y-152.581
X96.605Y-226.401
X96.605Y-227.581
X97.784Y-76.401
X97.784Y-77.581
X97.784Y-151.401
X97.784Y-152.581
X97.784Y-226.401
X97.784Y-227.581
X207.61Y-93.804
X207.61Y-94.984
X207.61Y-168.804
X207.61Y-169.984
X207.61Y-243.804
X207.61Y-244.984
X208.79Y-93.804
X208.79Y-94.984
X208.79Y-168.804
X208.79Y-169.984
X208.79Y-243.804
X208.79Y-244.984
X252.61Y-93.804
X252.61Y-94.984
X252.61Y-168.804
X252.61Y-169.984
X252.61Y-243.804
X252.61Y-244.984
X253.79Y-93.804
X253.79Y-94.984
X253.79Y-168.804
X253.79Y-169.984
X253.79Y-243.804
X253.79Y-244.984
T3
X43.2Y-76.5
X43.2Y-151.5
X43.2Y-226.5
X43.25Y-74.3
X43.25Y-149.3
X43.25Y-224.3
X43.4Y-77.8
X43.4Y-152.8
X43.4Y-227.8
X44.6Y-77.8
X44.6Y-152.8
X44.6Y-227.8
X45.7Y-53.7
X45.7Y-54.3
X45.7Y-65.5
X45.7Y-66.1
X45.7Y-128.7
X45.7Y-129.3
X45.7Y-140.5
X45.7Y-141.1
X45.7Y-203.7
X45.7Y-204.3
X45.7Y-215.5
X45.7Y-216.1
X45.8Y-77.8
X45.8Y-79.8
X45.8Y-152.8
X45.8Y-154.8
X45.8Y-227.8
X45.8Y-229.8
X46.3Y-53.7
X46.3Y-54.3
X46.3Y-65.5
X46.3Y-66.1
X46.3Y-128.7
X46.3Y-129.3
X46.3Y-140.5
X46.3Y-141.1
X46.3Y-203.7
X46.3Y-204.3
X46.3Y-215.5
X46.3Y-216.1
X46.8Y-71.6
X46.8Y-146.6
X46.8Y-221.6
X47.05Y-92.95
X47.05Y-167.95
X47.05Y-242.95
X47.1Y-75.5
X47.1Y-150.5
X47.1Y-225.5
X47.8Y-85.3
X47.8Y-160.3
X47.8Y-235.3
X47.85Y-87.45
X47.85Y-162.45
X47.85Y-237.45
X47.9Y-83.65
X47.9Y-158.65
X47.9Y-233.65
X48.237Y-85.654
X48.237Y-160.654
X48.237Y-235.654
X48.3Y-85.1
X48.3Y-160.1
X48.3Y-235.1
X48.45Y-91.387
X48.45Y-166.387
X48.45Y-241.387
X48.6Y-52.3
X48.6Y-57.6
X48.6Y-64.1
X48.6Y-69.4
X48.6Y-127.3
X48.6Y-132.6
X48.6Y-139.1
X48.6Y-144.4
X48.6Y-202.3
X48.6Y-207.6
X48.6Y-214.1
X48.6Y-219.4
X48.8Y-48.2
X48.8Y-60.5
X48.8Y-71.6
X48.8Y-123.2
X48.8Y-135.5
X48.8Y-146.6
X48.8Y-198.2
X48.8Y-210.5
X48.8Y-221.6
X50.6Y-50.5
X50.6Y-59.2
X50.6Y-62.3
X50.6Y-70.9
X50.6Y-125.5
X50.6Y-134.2
X50.6Y-137.3
X50.6Y-145.9
X50.6Y-200.5
X50.6Y-209.2
X50.6Y-212.3
X50.6Y-220.9
X50.7Y-61.7
X50.7Y-136.7
X50.7Y-211.7
X50.8Y-48.2
X50.8Y-60.5
X50.8Y-71.6
X50.8Y-123.2
X50.8Y-135.5
X50.8Y-146.6
X50.8Y-198.2
X50.8Y-210.5
X50.8Y-221.6
X50.9Y-49.8
X50.9Y-124.8
X50.9Y-199.8
X51.157Y-86.651
X51.157Y-161.651
X51.157Y-236.651
X51.3Y-61.7
X51.3Y-92.9
X51.3Y-136.7
X51.3Y-167.9
X51.3Y-211.7
X51.3Y-242.9
X51.45Y-87.65
X51.45Y-162.65
X51.45Y-237.65
X51.5Y-49.8
X51.5Y-124.8
X51.5Y-199.8
X51.8Y-102.9
X51.8Y-177.9
X51.8Y-252.9
X52.1Y-88.048
X52.1Y-163.048
X52.1Y-238.048
X52.2Y-73.3
X52.2Y-148.3
X52.2Y-223.3
X52.8Y-48.2
X52.8Y-60.5
X52.8Y-71.6
X52.8Y-123.2
X52.8Y-135.5
X52.8Y-146.6
X52.8Y-198.2
X52.8Y-210.5
X52.8Y-221.6
X53.2Y-101.5
X53.2Y-176.5
X53.2Y-251.5
X53.234Y-78.934
X53.234Y-153.934
X53.234Y-228.934
X53.9Y-77.2
X53.9Y-152.2
X53.9Y-227.2
X54.4Y-57.49
X54.4Y-58.49
X54.4Y-69.29
X54.4Y-70.29
X54.4Y-132.49
X54.4Y-133.49
X54.4Y-144.29
X54.4Y-145.29
X54.4Y-207.49
X54.4Y-208.49
X54.4Y-219.29
X54.4Y-220.29
X54.8Y-48.2
X54.8Y-60.5
X54.8Y-71.6
X54.8Y-123.2
X54.8Y-135.5
X54.8Y-146.6
X54.8Y-198.2
X54.8Y-210.5
X54.8Y-221.6
X55.362Y-101.337
X55.362Y-176.338
X55.362Y-251.337
X55.8Y-96.6
X55.8Y-102.1
X55.8Y-171.6
X55.8Y-177.1
X55.8Y-246.6
X55.8Y-252.1
X55.9Y-81.95
X55.9Y-156.95
X55.9Y-231.95
X56.4Y-81.45
X56.4Y-96.6
X56.4Y-101.85
X56.4Y-156.45
X56.4Y-171.6
X56.4Y-176.85
X56.4Y-231.45
X56.4Y-246.6
X56.4Y-251.85
X56.6Y-51.1
X56.6Y-52.1
X56.6Y-57.49
X56.6Y-58.49
X56.6Y-62.9
X56.6Y-63.9
X56.6Y-69.29
X56.6Y-70.29
X56.6Y-126.1
X56.6Y-127.1
X56.6Y-132.49
X56.6Y-133.49
X56.6Y-137.9
X56.6Y-138.9
X56.6Y-144.29
X56.6Y-145.29
X56.6Y-201.1
X56.6Y-202.1
X56.6Y-207.49
X56.6Y-208.49
X56.6Y-212.9
X56.6Y-213.9
X56.6Y-219.29
X56.6Y-220.29
X56.65Y-85.9
X56.65Y-160.9
X56.65Y-235.9
X56.8Y-48.2
X56.8Y-60.5
X56.8Y-71.6
X56.8Y-123.2
X56.8Y-135.5
X56.8Y-146.6
X56.8Y-198.2
X56.8Y-210.5
X56.8Y-221.6
X57.2Y-103.3
X57.2Y-178.3
X57.2Y-253.3
X57.5Y-88.4
X57.5Y-91.6
X57.5Y-163.4
X57.5Y-166.6
X57.5Y-238.4
X57.5Y-241.6
X57.6Y-92.9
X57.6Y-167.9
X57.6Y-242.9
X57.85Y-75.75
X57.85Y-150.75
X57.85Y-225.75
X57.854Y-89.754
X57.854Y-164.754
X57.854Y-239.754
X58.0Y-98.6
X58.0Y-173.6
X58.0Y-248.6
X58.1Y-57.49
X58.1Y-58.49
X58.1Y-69.29
X58.1Y-70.29
X58.1Y-132.49
X58.1Y-133.49
X58.1Y-144.29
X58.1Y-145.29
X58.1Y-207.49
X58.1Y-208.49
X58.1Y-219.29
X58.1Y-220.29
X58.2Y-53.4
X58.2Y-65.2
X58.2Y-128.4
X58.2Y-140.2
X58.2Y-203.4
X58.2Y-215.2
X58.444Y-75.144
X58.444Y-150.144
X58.444Y-225.144
X58.67Y-101.67
X58.67Y-176.67
X58.67Y-251.67
X58.8Y-48.2
X58.8Y-60.5
X58.8Y-123.2
X58.8Y-135.5
X58.8Y-198.2
X58.8Y-210.5
X59.6Y-98.3
X59.6Y-173.3
X59.6Y-248.3
X60.4Y-82.4
X60.4Y-157.4
X60.4Y-232.4
X60.5Y-87.4
X60.5Y-162.4
X60.5Y-237.4
X60.65Y-81.85
X60.65Y-156.85
X60.65Y-231.85
X60.8Y-48.2
X60.8Y-60.5
X60.8Y-71.6
X60.8Y-123.2
X60.8Y-135.5
X60.8Y-146.6
X60.8Y-198.2
X60.8Y-210.5
X60.8Y-221.6
X61.4Y-81.3
X61.4Y-156.3
X61.4Y-231.3
X61.8Y-80.9
X61.8Y-155.9
X61.8Y-230.9
X62.35Y-75.5
X62.35Y-150.5
X62.35Y-225.5
X62.8Y-48.2
X62.8Y-60.5
X62.8Y-123.2
X62.8Y-135.5
X62.8Y-198.2
X62.8Y-210.5
X63.0Y-94.8
X63.0Y-95.3
X63.0Y-169.8
X63.0Y-170.3
X63.0Y-244.8
X63.0Y-245.3
X63.1Y-49.2
X63.1Y-124.2
X63.1Y-199.2
X63.4Y-70.492
X63.4Y-145.492
X63.4Y-220.492
X63.8Y-85.2
X63.8Y-160.2
X63.8Y-235.2
X64.0Y-56.9
X64.0Y-68.7
X64.0Y-131.9
X64.0Y-143.7
X64.0Y-206.9
X64.0Y-218.7
X64.3Y-52.6
X64.3Y-64.4
X64.3Y-127.6
X64.3Y-139.4
X64.3Y-202.6
X64.3Y-214.4
X64.79Y-90.38
X64.79Y-165.38
X64.79Y-240.38
X64.8Y-48.2
X64.8Y-60.5
X64.8Y-89.775
X64.8Y-123.2
X64.8Y-135.5
X64.8Y-164.775
X64.8Y-198.2
X64.8Y-210.5
X64.8Y-239.775
X65.1Y-87.3
X65.1Y-162.3
X65.1Y-237.3
X65.5Y-80.2
X65.5Y-81.6
X65.5Y-155.2
X65.5Y-156.6
X65.5Y-230.2
X65.5Y-231.6
X65.696Y-72.196
X65.696Y-147.196
X65.696Y-222.196
X65.8Y-70.979
X65.8Y-145.979
X65.8Y-220.979
X65.9Y-76.8
X65.9Y-151.8
X65.9Y-226.8
X65.921Y-68.0
X65.921Y-143.0
X65.921Y-218.0
X66.0Y-81.0
X66.0Y-156.0
X66.0Y-231.0
X66.2Y-76.4
X66.2Y-151.4
X66.2Y-226.4
X66.3Y-70.5
X66.3Y-145.5
X66.3Y-220.5
X66.6Y-87.2
X66.6Y-162.2
X66.6Y-237.2
X67.15Y-85.6
X67.15Y-160.6
X67.15Y-235.6
X67.2Y-48.2
X67.2Y-53.2
X67.2Y-55.2
X67.2Y-57.2
X67.2Y-59.2
X67.2Y-61.2
X67.2Y-63.1
X67.2Y-65.2
X67.2Y-79.8
X67.2Y-82.7
X67.2Y-84.7
X67.2Y-123.2
X67.2Y-128.2
X67.2Y-130.2
X67.2Y-132.2
X67.2Y-134.2
X67.2Y-136.2
X67.2Y-138.1
X67.2Y-140.2
X67.2Y-154.8
X67.2Y-157.7
X67.2Y-159.7
X67.2Y-198.2
X67.2Y-203.2
X67.2Y-205.2
X67.2Y-207.2
X67.2Y-209.2
X67.2Y-211.2
X67.2Y-213.1
X67.2Y-215.2
X67.2Y-229.8
X67.2Y-232.7
X67.2Y-234.7
X67.4Y-79.15
X67.4Y-154.15
X67.4Y-229.15
X67.6Y-92.1
X67.6Y-92.7
X67.6Y-167.1
X67.6Y-167.7
X67.6Y-242.1
X67.6Y-242.7
X67.8Y-50.1
X67.8Y-68.662
X67.8Y-82.2
X67.8Y-125.1
X67.8Y-143.661
X67.8Y-157.2
X67.8Y-200.1
X67.8Y-218.661
X67.8Y-232.2
X67.85Y-102.75
X67.85Y-177.75
X67.85Y-252.75
X67.9Y-74.6
X67.9Y-149.6
X67.9Y-224.6
X68.3Y-74.2
X68.3Y-82.3
X68.3Y-149.2
X68.3Y-157.3
X68.3Y-224.2
X68.3Y-232.3
X68.6Y-79.15
X68.6Y-154.15
X68.6Y-229.15
X68.8Y-49.0
X68.8Y-50.0
X68.8Y-53.0
X68.8Y-54.0
X68.8Y-91.575
X68.8Y-94.2
X68.8Y-124.0
X68.8Y-125.0
X68.8Y-128.0
X68.8Y-129.0
X68.8Y-166.576
X68.8Y-169.2
X68.8Y-199.0
X68.8Y-200.0
X68.8Y-203.0
X68.8Y-204.0
X68.8Y-241.575
X68.8Y-244.2
X68.9Y-96.1
X68.9Y-171.1
X68.9Y-246.1
X69.2Y-59.95
X69.2Y-61.2
X69.2Y-134.95
X69.2Y-136.2
X69.2Y-209.95
X69.2Y-211.2
X69.6Y-78.3
X69.6Y-79.8
X69.6Y-84.7
X69.6Y-85.6
X69.6Y-153.3
X69.6Y-154.8
X69.6Y-159.7
X69.6Y-160.6
X69.6Y-228.3
X69.6Y-229.8
X69.6Y-234.7
X69.6Y-235.6
X69.7Y-59.95
X69.7Y-134.95
X69.7Y-209.95
X70.0Y-56.4
X70.0Y-131.4
X70.0Y-206.4
X70.1Y-91.075
X70.1Y-94.2
X70.1Y-166.076
X70.1Y-169.2
X70.1Y-241.075
X70.1Y-244.2
X70.15Y-95.575
X70.15Y-99.4
X70.15Y-170.576
X70.15Y-174.4
X70.15Y-245.575
X70.15Y-249.4
X70.25Y-67.5
X70.25Y-142.5
X70.25Y-217.5
X70.7Y-59.95
X70.7Y-134.95
X70.7Y-209.95
X71.2Y-49.0
X71.2Y-50.0
X71.2Y-53.0
X71.2Y-54.0
X71.2Y-58.2
X71.2Y-59.95
X71.2Y-61.2
X71.2Y-62.3
X71.2Y-62.8
X71.2Y-124.0
X71.2Y-125.0
X71.2Y-128.0
X71.2Y-129.0
X71.2Y-133.2
X71.2Y-134.95
X71.2Y-136.2
X71.2Y-137.3
X71.2Y-137.8
X71.2Y-199.0
X71.2Y-200.0
X71.2Y-203.0
X71.2Y-204.0
X71.2Y-208.2
X71.2Y-209.95
X71.2Y-211.2
X71.2Y-212.3
X71.2Y-212.8
X71.25Y-56.2
X71.25Y-57.2
X71.25Y-131.2
X71.25Y-132.2
X71.25Y-206.2
X71.25Y-207.2
X71.351Y-70.805
X71.351Y-145.805
X71.351Y-220.805
X71.4Y-75.3
X71.4Y-93.4
X71.4Y-150.3
X71.4Y-168.4
X71.4Y-225.3
X71.4Y-243.4
X71.5Y-83.6
X71.5Y-84.7
X71.5Y-86.2
X71.5Y-87.15
X71.5Y-158.6
X71.5Y-159.7
X71.5Y-161.2
X71.5Y-162.15
X71.5Y-233.6
X71.5Y-234.7
X71.5Y-236.2
X71.5Y-237.15
X71.6Y-102.9
X71.6Y-177.9
X71.6Y-252.9
X72.179Y-71.279
X72.179Y-146.279
X72.179Y-221.279
X72.2Y-62.3
X72.2Y-62.8
X72.2Y-137.3
X72.2Y-137.8
X72.2Y-212.3
X72.2Y-212.8
X72.55Y-54.3
X72.55Y-54.8
X72.55Y-129.3
X72.55Y-129.8
X72.55Y-204.3
X72.55Y-204.8
X72.6Y-99.45
X72.6Y-174.45
X72.6Y-249.45
X72.625Y-93.95
X72.625Y-168.95
X72.625Y-243.95
X72.65Y-95.075
X72.65Y-170.076
X72.65Y-245.075
X73.079Y-71.079
X73.079Y-146.079
X73.079Y-221.079
X73.1Y-94.55
X73.1Y-169.55
X73.1Y-244.55
X73.173Y-74.727
X73.173Y-149.727
X73.173Y-224.727
X73.2Y-61.2
X73.2Y-136.2
X73.2Y-211.2
X73.5Y-53.5
X73.5Y-128.5
X73.5Y-203.5
X73.55Y-58.2
X73.55Y-133.2
X73.55Y-208.2
X73.6Y-49.6
X73.6Y-51.5
X73.6Y-124.6
X73.6Y-126.5
X73.6Y-199.6
X73.6Y-201.5
X73.7Y-47.8
X73.7Y-82.8
X73.7Y-122.8
X73.7Y-157.8
X73.7Y-197.8
X73.7Y-232.8
X73.75Y-72.2
X73.75Y-147.2
X73.75Y-222.2
X73.85Y-76.099
X73.85Y-87.2
X73.85Y-151.1
X73.85Y-162.2
X73.85Y-226.099
X73.85Y-237.2
X73.875Y-94.449
X73.875Y-169.449
X73.875Y-244.449
X73.9Y-86.225
X73.9Y-161.225
X73.9Y-236.225
X74.0Y-79.9
X74.0Y-154.9
X74.0Y-229.9
X74.017Y-59.2
X74.017Y-134.2
X74.017Y-209.2
X74.076Y-70.825
X74.076Y-145.825
X74.076Y-220.825
X74.1Y-85.4
X74.1Y-160.4
X74.1Y-235.4
X74.2Y-47.8
X74.2Y-122.8
X74.2Y-197.8
X74.3Y-83.2
X74.3Y-158.2
X74.3Y-233.2
X74.8Y-56.15
X74.8Y-57.25
X74.8Y-98.6
X74.8Y-99.1
X74.8Y-99.6
X74.8Y-131.15
X74.8Y-132.25
X74.8Y-173.6
X74.8Y-174.1
X74.8Y-174.6
X74.8Y-206.15
X74.8Y-207.25
X74.8Y-248.6
X74.8Y-249.1
X74.8Y-249.6
X74.913Y-79.11
X74.913Y-154.11
X74.913Y-229.11
X75.2Y-61.2
X75.2Y-136.2
X75.2Y-211.2
X75.25Y-55.3
X75.25Y-70.6
X75.25Y-72.768
X75.25Y-130.3
X75.25Y-145.6
X75.25Y-147.768
X75.25Y-205.3
X75.25Y-220.6
X75.25Y-222.768
X75.384Y-63.334
X75.384Y-138.334
X75.384Y-213.334
X75.4Y-98.6
X75.4Y-99.1
X75.4Y-99.6
X75.4Y-173.6
X75.4Y-174.1
X75.4Y-174.6
X75.4Y-248.6
X75.4Y-249.1
X75.4Y-249.6
X75.465Y-51.5
X75.465Y-126.5
X75.465Y-201.5
X75.474Y-78.9
X75.474Y-153.9
X75.474Y-228.9
X75.5Y-49.6
X75.5Y-69.25
X75.5Y-124.6
X75.5Y-144.25
X75.5Y-199.6
X75.5Y-219.25
X75.55Y-64.85
X75.55Y-139.85
X75.55Y-214.85
X75.593Y-53.793
X75.593Y-128.793
X75.593Y-203.793
X75.75Y-55.35
X75.75Y-130.35
X75.75Y-205.35
X75.95Y-76.45
X75.95Y-151.45
X75.95Y-226.45
X76.05Y-73.25
X76.05Y-148.25
X76.05Y-223.25
X76.1Y-98.6
X76.1Y-99.1
X76.1Y-99.6
X76.1Y-173.6
X76.1Y-174.1
X76.1Y-174.6
X76.1Y-248.6
X76.1Y-249.1
X76.1Y-249.6
X76.3Y-79.6
X76.3Y-80.6
X76.3Y-81.6
X76.3Y-82.6
X76.3Y-83.6
X76.3Y-84.3
X76.3Y-86.2
X76.3Y-87.05
X76.3Y-154.6
X76.3Y-155.6
X76.3Y-156.6
X76.3Y-157.6
X76.3Y-158.6
X76.3Y-159.3
X76.3Y-161.2
X76.3Y-162.05
X76.3Y-229.6
X76.3Y-230.6
X76.3Y-231.6
X76.3Y-232.6
X76.3Y-233.6
X76.3Y-234.3
X76.3Y-236.2
X76.3Y-237.05
X76.7Y-98.6
X76.7Y-99.1
X76.7Y-99.6
X76.7Y-173.6
X76.7Y-174.1
X76.7Y-174.6
X76.7Y-248.6
X76.7Y-249.1
X76.7Y-249.6
X76.759Y-76.517
X76.759Y-151.517
X76.759Y-226.517
X76.8Y-73.25
X76.8Y-148.25
X76.8Y-223.25
X76.9Y-56.45
X76.9Y-57.3
X76.9Y-131.45
X76.9Y-132.3
X76.9Y-206.45
X76.9Y-207.3
X77.15Y-59.35
X77.15Y-134.35
X77.15Y-209.35
X77.158Y-57.816
X77.158Y-132.816
X77.158Y-207.816
X77.17Y-60.35
X77.17Y-135.35
X77.17Y-210.35
X77.2Y-47.8
X77.2Y-122.8
X77.2Y-197.8
X77.215Y-55.118
X77.215Y-130.118
X77.215Y-205.118
X77.4Y-49.6
X77.4Y-51.5
X77.4Y-53.5
X77.4Y-124.6
X77.4Y-126.5
X77.4Y-128.5
X77.4Y-199.6
X77.4Y-201.5
X77.4Y-203.5
X77.6Y-74.8
X77.6Y-149.8
X77.6Y-224.8
X77.7Y-47.8
X77.7Y-122.8
X77.7Y-197.8
X77.75Y-55.252
X77.75Y-130.251
X77.75Y-205.251
X77.828Y-68.276
X77.828Y-143.276
X77.828Y-218.276
X77.911Y-67.705
X77.911Y-142.705
X77.911Y-217.705
X78.258Y-63.908
X78.258Y-138.908
X78.258Y-213.908
X78.45Y-67.5
X78.45Y-142.5
X78.45Y-217.5
X78.722Y-63.476
X78.722Y-138.476
X78.722Y-213.476
X79.349Y-63.639
X79.349Y-138.639
X79.349Y-213.639
X79.677Y-51.75
X79.677Y-126.75
X79.677Y-201.75
X79.7Y-63.075
X79.7Y-138.075
X79.7Y-213.075
X80.15Y-49.35
X80.15Y-124.35
X80.15Y-199.35
X80.15Y-50.345
X80.15Y-125.345
X80.15Y-200.345
X80.4Y-61.849
X80.4Y-136.85
X80.4Y-211.849
X81.1Y-61.2
X81.1Y-136.2
X81.1Y-211.2
X81.2Y-53.95
X81.2Y-128.95
X81.2Y-203.95
X81.224Y-79.4
X81.224Y-154.4
X81.224Y-229.4
X81.23Y-53.05
X81.23Y-128.05
X81.23Y-203.05
X81.3Y-55.95
X81.3Y-56.55
X81.3Y-130.95
X81.3Y-131.55
X81.3Y-205.95
X81.3Y-206.55
X81.4Y-64.25
X81.4Y-139.25
X81.4Y-214.25
X81.5Y-58.8
X81.5Y-133.8
X81.5Y-208.8
X81.749Y-76.749
X81.749Y-151.749
X81.749Y-226.749
X81.95Y-66.95
X81.95Y-141.95
X81.95Y-216.95
X82.0Y-69.817
X82.0Y-70.816
X82.0Y-144.817
X82.0Y-145.816
X82.0Y-219.817
X82.0Y-220.816
X82.3Y-49.7
X82.3Y-50.3
X82.3Y-124.7
X82.3Y-125.3
X82.3Y-199.7
X82.3Y-200.3
X82.4Y-57.25
X82.4Y-59.2
X82.4Y-61.2
X82.4Y-71.3
X82.4Y-132.25
X82.4Y-134.2
X82.4Y-136.2
X82.4Y-146.3
X82.4Y-207.25
X82.4Y-209.2
X82.4Y-211.2
X82.4Y-221.3
X82.5Y-70.3
X82.5Y-145.3
X82.5Y-220.3
X82.626Y-53.4
X82.626Y-128.4
X82.626Y-203.4
X82.7Y-100.35
X82.7Y-175.35
X82.7Y-250.35
X82.8Y-76.2
X82.8Y-84.3
X82.8Y-84.8
X82.8Y-151.2
X82.8Y-159.3
X82.8Y-159.8
X82.8Y-226.2
X82.8Y-234.3
X82.8Y-234.8
X83.3Y-67.1
X83.3Y-84.8
X83.3Y-142.1
X83.3Y-159.8
X83.3Y-217.1
X83.3Y-234.8
X83.4Y-99.0
X83.4Y-174.0
X83.4Y-249.0
X83.435Y-74.735
X83.435Y-149.735
X83.435Y-224.735
X83.8Y-78.9
X83.8Y-84.3
X83.8Y-84.8
X83.8Y-153.9
X83.8Y-159.3
X83.8Y-159.8
X83.8Y-228.9
X83.8Y-234.3
X83.8Y-234.8
X83.9Y-63.055
X83.9Y-69.0
X83.9Y-138.055
X83.9Y-144.0
X83.9Y-213.055
X83.9Y-219.0
X84.0Y-70.849
X84.0Y-145.849
X84.0Y-220.849
X84.048Y-62.498
X84.048Y-137.498
X84.048Y-212.498
X84.116Y-51.007
X84.116Y-126.007
X84.116Y-201.007
X84.2Y-66.8
X84.2Y-97.5
X84.2Y-141.8
X84.2Y-172.5
X84.2Y-216.8
X84.2Y-247.5
X84.3Y-69.7
X84.3Y-144.7
X84.3Y-219.7
X84.35Y-70.35
X84.35Y-145.35
X84.35Y-220.35
X84.6Y-95.4
X84.6Y-170.4
X84.6Y-245.4
X84.9Y-78.9
X84.9Y-153.9
X84.9Y-228.9
X85.0Y-51.498
X85.0Y-126.498
X85.0Y-201.498
X85.1Y-77.15
X85.1Y-152.15
X85.1Y-227.15
X85.25Y-81.5
X85.25Y-156.5
X85.25Y-231.5
X85.4Y-48.127
X85.4Y-123.126
X85.4Y-198.126
X85.5Y-56.7
X85.5Y-57.2
X85.5Y-83.25
X85.5Y-83.75
X85.5Y-131.7
X85.5Y-132.2
X85.5Y-158.25
X85.5Y-158.75
X85.5Y-206.7
X85.5Y-207.2
X85.5Y-233.25
X85.5Y-233.75
X85.7Y-59.2
X85.7Y-59.7
X85.7Y-87.1
X85.7Y-134.2
X85.7Y-134.7
X85.7Y-162.1
X85.7Y-209.2
X85.7Y-209.7
X85.7Y-237.1
X85.75Y-60.3
X85.75Y-60.8
X85.75Y-135.3
X85.75Y-135.8
X85.75Y-210.3
X85.75Y-210.8
X85.8Y-103.05
X85.8Y-178.05
X85.8Y-253.05
X85.9Y-80.15
X85.9Y-155.15
X85.9Y-230.15
X86.0Y-56.7
X86.0Y-57.2
X86.0Y-83.25
X86.0Y-83.75
X86.0Y-131.7
X86.0Y-132.2
X86.0Y-158.25
X86.0Y-158.75
X86.0Y-206.7
X86.0Y-207.2
X86.0Y-233.25
X86.0Y-233.75
X86.2Y-59.2
X86.2Y-59.7
X86.2Y-134.2
X86.2Y-134.7
X86.2Y-209.2
X86.2Y-209.7
X86.25Y-60.3
X86.25Y-60.8
X86.25Y-135.3
X86.25Y-135.8
X86.25Y-210.3
X86.25Y-210.8
X86.55Y-54.6
X86.55Y-55.1
X86.55Y-129.6
X86.55Y-130.1
X86.55Y-204.6
X86.55Y-205.1
X86.802Y-50.5
X86.802Y-125.5
X86.802Y-200.5
X86.861Y-49.151
X86.861Y-124.151
X86.861Y-199.151
X86.95Y-83.25
X86.95Y-83.75
X86.95Y-158.25
X86.95Y-158.75
X86.95Y-233.25
X86.95Y-233.75
X87.1Y-91.4
X87.1Y-92.0
X87.1Y-92.7
X87.1Y-93.3
X87.1Y-166.4
X87.1Y-167.0
X87.1Y-167.7
X87.1Y-168.3
X87.1Y-241.4
X87.1Y-242.0
X87.1Y-242.7
X87.1Y-243.3
X87.15Y-54.6
X87.15Y-55.1
X87.15Y-75.25
X87.15Y-129.6
X87.15Y-130.1
X87.15Y-150.25
X87.15Y-204.6
X87.15Y-205.1
X87.15Y-225.25
X87.45Y-60.3
X87.45Y-60.8
X87.45Y-83.25
X87.45Y-83.75
X87.45Y-135.3
X87.45Y-135.8
X87.45Y-158.25
X87.45Y-158.75
X87.45Y-210.3
X87.45Y-210.8
X87.45Y-233.25
X87.45Y-233.75
X87.525Y-80.305
X87.525Y-155.305
X87.525Y-230.305
X87.6Y-91.4
X87.6Y-92.0
X87.6Y-92.7
X87.6Y-93.3
X87.6Y-166.4
X87.6Y-167.0
X87.6Y-167.7
X87.6Y-168.3
X87.6Y-241.4
X87.6Y-242.0
X87.6Y-242.7
X87.6Y-243.3
X87.7Y-52.498
X87.7Y-87.1
X87.7Y-97.9
X87.7Y-127.498
X87.7Y-162.1
X87.7Y-172.9
X87.7Y-202.498
X87.7Y-237.1
X87.7Y-247.9
X88.1Y-91.4
X88.1Y-92.0
X88.1Y-92.7
X88.1Y-93.3
X88.1Y-166.4
X88.1Y-167.0
X88.1Y-167.7
X88.1Y-168.3
X88.1Y-241.4
X88.1Y-242.0
X88.1Y-242.7
X88.1Y-243.3
X88.15Y-72.65
X88.15Y-147.65
X88.15Y-222.65
X88.2Y-85.1
X88.2Y-85.6
X88.2Y-160.1
X88.2Y-160.6
X88.2Y-235.1
X88.2Y-235.6
X88.7Y-64.9
X88.7Y-85.1
X88.7Y-85.6
X88.7Y-139.9
X88.7Y-160.1
X88.7Y-160.6
X88.7Y-214.9
X88.7Y-235.1
X88.7Y-235.6
X89.4Y-51.6
X89.4Y-126.6
X89.4Y-201.6
X89.409Y-48.391
X89.409Y-123.391
X89.409Y-198.391
X89.518Y-49.138
X89.518Y-124.138
X89.518Y-199.138
X89.6Y-50.85
X89.6Y-125.85
X89.6Y-200.85
X89.639Y-50.2
X89.639Y-125.2
X89.639Y-200.2
X89.65Y-52.35
X89.65Y-77.15
X89.65Y-127.35
X89.65Y-152.15
X89.65Y-202.35
X89.65Y-227.15
X89.68Y-49.691
X89.68Y-124.691
X89.68Y-199.691
X89.7Y-64.9
X89.7Y-69.8
X89.7Y-80.7
X89.7Y-139.9
X89.7Y-144.8
X89.7Y-155.7
X89.7Y-214.9
X89.7Y-219.8
X89.7Y-230.7
X89.71Y-69.25
X89.71Y-144.25
X89.71Y-219.25
X89.85Y-82.55
X89.85Y-157.55
X89.85Y-232.55
X89.99Y-48.4
X89.99Y-123.4
X89.99Y-198.4
X90.3Y-63.7
X90.3Y-138.7
X90.3Y-213.7
X90.8Y-84.5
X90.8Y-85.0
X90.8Y-159.5
X90.8Y-160.0
X90.8Y-234.5
X90.8Y-235.0
X90.849Y-50.025
X90.849Y-125.025
X90.849Y-200.025
X90.9Y-81.6
X90.9Y-156.6
X90.9Y-231.6
X91.2Y-96.2
X91.2Y-97.4
X91.2Y-171.2
X91.2Y-172.4
X91.2Y-246.2
X91.2Y-247.4
X91.3Y-84.5
X91.3Y-85.0
X91.3Y-94.0
X91.3Y-159.5
X91.3Y-160.0
X91.3Y-169.0
X91.3Y-234.5
X91.3Y-235.0
X91.3Y-244.0
X91.35Y-66.9
X91.35Y-141.9
X91.35Y-216.9
X91.45Y-72.65
X91.45Y-147.65
X91.45Y-222.65
X91.9Y-55.2
X91.9Y-92.4
X91.9Y-100.2
X91.9Y-130.2
X91.9Y-167.4
X91.9Y-175.2
X91.9Y-205.2
X91.9Y-242.4
X91.9Y-250.2
X92.4Y-55.2
X92.4Y-71.3
X92.4Y-76.0
X92.4Y-77.1
X92.4Y-130.2
X92.4Y-146.3
X92.4Y-151.0
X92.4Y-152.1
X92.4Y-205.2
X92.4Y-221.3
X92.4Y-226.0
X92.4Y-227.1
X92.5Y-73.0
X92.5Y-148.0
X92.5Y-223.0
X92.6Y-75.0
X92.6Y-99.58
X92.6Y-150.0
X92.6Y-174.58
X92.6Y-225.0
X92.6Y-249.58
X92.7Y-71.9
X92.7Y-146.9
X92.7Y-221.9
X92.9Y-66.9
X92.9Y-69.05
X92.9Y-141.9
X92.9Y-144.05
X92.9Y-216.9
X92.9Y-219.05
X93.2Y-61.4
X93.2Y-61.9
X93.2Y-136.4
X93.2Y-136.9
X93.2Y-211.4
X93.2Y-211.9
X93.3Y-80.5
X93.3Y-155.5
X93.3Y-230.5
X93.5Y-83.05
X93.5Y-83.55
X93.5Y-158.05
X93.5Y-158.55
X93.5Y-233.05
X93.5Y-233.55
X93.6Y-96.2
X93.6Y-97.4
X93.6Y-171.2
X93.6Y-172.4
X93.6Y-246.2
X93.6Y-247.4
X93.75Y-81.6
X93.75Y-156.6
X93.75Y-231.6
X93.8Y-61.4
X93.8Y-61.9
X93.8Y-136.4
X93.8Y-136.9
X93.8Y-211.4
X93.8Y-211.9
X93.95Y-66.3
X93.95Y-141.3
X93.95Y-216.3
X94.0Y-83.05
X94.0Y-83.55
X94.0Y-158.05
X94.0Y-158.55
X94.0Y-233.05
X94.0Y-233.55
X94.05Y-63.7
X94.05Y-138.7
X94.05Y-213.7
X94.3Y-80.55
X94.3Y-155.55
X94.3Y-230.55
X94.45Y-57.25
X94.45Y-132.25
X94.45Y-207.25
X94.5Y-60.3
X94.5Y-60.8
X94.5Y-61.6
X94.5Y-62.15
X94.5Y-66.3
X94.5Y-67.05
X94.5Y-67.55
X94.5Y-135.3
X94.5Y-135.8
X94.5Y-136.6
X94.5Y-137.15
X94.5Y-141.3
X94.5Y-142.05
X94.5Y-142.55
X94.5Y-210.3
X94.5Y-210.8
X94.5Y-211.6
X94.5Y-212.15
X94.5Y-216.3
X94.5Y-217.05
X94.5Y-217.55
X94.551Y-55.7
X94.551Y-130.7
X94.551Y-205.7
X94.9Y-77.266
X94.9Y-152.266
X94.9Y-227.266
X96.05Y-47.4
X96.05Y-122.4
X96.05Y-197.4
X96.1Y-94.4
X96.1Y-98.6
X96.1Y-169.4
X96.1Y-173.6
X96.1Y-244.4
X96.1Y-248.6
X96.2Y-71.05
X96.2Y-146.05
X96.2Y-221.05
X97.4Y-98.3
X97.4Y-102.5
X97.4Y-173.3
X97.4Y-177.5
X97.4Y-248.3
X97.4Y-252.5
X98.5Y-56.5
X98.5Y-75.5
X98.5Y-80.45
X98.5Y-80.95
X98.5Y-131.5
X98.5Y-150.5
X98.5Y-155.45
X98.5Y-155.95
X98.5Y-206.5
X98.5Y-225.5
X98.5Y-230.45
X98.5Y-230.95
X98.8Y-72.0
X98.8Y-72.8
X98.8Y-147.0
X98.8Y-147.8
X98.8Y-222.0
X98.8Y-222.8
X99.05Y-76.0
X99.05Y-151.0
X99.05Y-226.0
X99.1Y-80.45
X99.1Y-80.95
X99.1Y-155.45
X99.1Y-155.95
X99.1Y-230.45
X99.1Y-230.95
X99.5Y-72.0
X99.5Y-72.8
X99.5Y-76.5
X99.5Y-147.0
X99.5Y-147.8
X99.5Y-151.5
X99.5Y-222.0
X99.5Y-222.8
X99.5Y-226.5
X100.1Y-61.6
X100.1Y-63.9
X100.1Y-66.3
X100.1Y-136.6
X100.1Y-138.9
X100.1Y-141.3
X100.1Y-211.6
X100.1Y-213.9
X100.1Y-216.3
X100.2Y-72.0
X100.2Y-72.8
X100.2Y-73.5
X100.2Y-74.2
X100.2Y-92.3
X100.2Y-98.3
X100.2Y-147.0
X100.2Y-147.8
X100.2Y-148.5
X100.2Y-149.2
X100.2Y-167.3
X100.2Y-173.3
X100.2Y-222.0
X100.2Y-222.8
X100.2Y-223.5
X100.2Y-224.2
X100.2Y-242.3
X100.2Y-248.3
X100.35Y-54.9
X100.35Y-129.9
X100.35Y-204.9
X100.9Y-77.107
X100.9Y-152.107
X100.9Y-227.107
X101.0Y-76.5
X101.0Y-151.5
X101.0Y-226.5
X101.25Y-78.5
X101.25Y-80.5
X101.25Y-153.5
X101.25Y-155.5
X101.25Y-228.5
X101.25Y-230.5
X115.0Y-58.0
X115.0Y-64.0
X115.0Y-70.0
X115.0Y-76.0
X115.0Y-82.0
X115.0Y-88.0
X115.0Y-94.0
X115.0Y-133.0
X115.0Y-139.0
X115.0Y-145.0
X115.0Y-151.0
X115.0Y-157.0
X115.0Y-163.0
X115.0Y-169.0
X115.0Y-208.0
X115.0Y-214.0
X115.0Y-220.0
X115.0Y-226.0
X115.0Y-232.0
X115.0Y-238.0
X115.0Y-244.0
X121.0Y-52.0
X121.0Y-58.0
X121.0Y-64.0
X121.0Y-70.0
X121.0Y-76.0
X121.0Y-82.0
X121.0Y-88.0
X121.0Y-94.0
X121.0Y-100.0
X121.0Y-127.0
X121.0Y-133.0
X121.0Y-139.0
X121.0Y-145.0
X121.0Y-151.0
X121.0Y-157.0
X121.0Y-163.0
X121.0Y-169.0
X121.0Y-175.0
X121.0Y-202.0
X121.0Y-208.0
X121.0Y-214.0
X121.0Y-220.0
X121.0Y-226.0
X121.0Y-232.0
X121.0Y-238.0
X121.0Y-244.0
X121.0Y-250.0
X126.75Y-85.1
X126.75Y-160.1
X126.75Y-235.1
X127.0Y-52.0
X127.0Y-58.0
X127.0Y-64.0
X127.0Y-70.0
X127.0Y-76.0
X127.0Y-82.0
X127.0Y-88.0
X127.0Y-94.0
X127.0Y-100.0
X127.0Y-127.0
X127.0Y-133.0
X127.0Y-139.0
X127.0Y-145.0
X127.0Y-151.0
X127.0Y-157.0
X127.0Y-163.0
X127.0Y-169.0
X127.0Y-175.0
X127.0Y-202.0
X127.0Y-208.0
X127.0Y-214.0
X127.0Y-220.0
X127.0Y-226.0
X127.0Y-232.0
X127.0Y-238.0
X127.0Y-244.0
X127.0Y-250.0
X129.5Y-73.9
X129.5Y-148.9
X129.5Y-223.9
X129.9Y-81.9
X129.9Y-156.9
X129.9Y-231.9
X129.95Y-88.3
X129.95Y-163.3
X129.95Y-238.3
X133.0Y-52.0
X133.0Y-58.0
X133.0Y-64.0
X133.0Y-70.0
X133.0Y-82.0
X133.0Y-88.0
X133.0Y-94.0
X133.0Y-100.0
X133.0Y-127.0
X133.0Y-133.0
X133.0Y-139.0
X133.0Y-145.0
X133.0Y-157.0
X133.0Y-163.0
X133.0Y-169.0
X133.0Y-175.0
X133.0Y-202.0
X133.0Y-208.0
X133.0Y-214.0
X133.0Y-220.0
X133.0Y-232.0
X133.0Y-238.0
X133.0Y-244.0
X133.0Y-250.0
X133.1Y-85.1
X133.1Y-160.1
X133.1Y-235.1
X136.8Y-65.45
X136.8Y-140.45
X136.8Y-215.45
X137.35Y-66.9
X137.35Y-141.9
X137.35Y-216.9
X138.05Y-85.791
X138.05Y-160.791
X138.05Y-235.791
X139.0Y-52.0
X139.0Y-58.0
X139.0Y-64.0
X139.0Y-76.0
X139.0Y-88.0
X139.0Y-94.0
X139.0Y-100.0
X139.0Y-127.0
X139.0Y-133.0
X139.0Y-139.0
X139.0Y-151.0
X139.0Y-163.0
X139.0Y-169.0
X139.0Y-175.0
X139.0Y-202.0
X139.0Y-208.0
X139.0Y-214.0
X139.0Y-226.0
X139.0Y-238.0
X139.0Y-244.0
X139.0Y-250.0
X141.375Y-65.525
X141.375Y-66.25
X141.375Y-140.525
X141.375Y-141.25
X141.375Y-215.525
X141.375Y-216.25
X141.9Y-86.325
X141.9Y-161.325
X141.9Y-236.325
X142.325Y-65.55
X142.325Y-66.25
X142.325Y-140.55
X142.325Y-141.25
X142.325Y-215.55
X142.325Y-216.25
X144.8Y-67.0
X144.8Y-142.0
X144.8Y-217.0
X145.0Y-52.0
X145.0Y-58.0
X145.0Y-64.0
X145.0Y-70.0
X145.0Y-82.0
X145.0Y-88.0
X145.0Y-94.0
X145.0Y-100.0
X145.0Y-127.0
X145.0Y-133.0
X145.0Y-139.0
X145.0Y-145.0
X145.0Y-157.0
X145.0Y-163.0
X145.0Y-169.0
X145.0Y-175.0
X145.0Y-202.0
X145.0Y-208.0
X145.0Y-214.0
X145.0Y-220.0
X145.0Y-232.0
X145.0Y-238.0
X145.0Y-244.0
X145.0Y-250.0
X148.036Y-73.841
X148.036Y-148.841
X148.036Y-223.841
X148.05Y-63.8
X148.05Y-70.15
X148.05Y-138.8
X148.05Y-145.15
X148.05Y-213.8
X148.05Y-220.15
X148.35Y-75.75
X148.35Y-150.75
X148.35Y-225.75
X148.6Y-78.15
X148.6Y-79.1
X148.6Y-153.15
X148.6Y-154.1
X148.6Y-228.15
X148.6Y-229.1
X149.25Y-78.15
X149.25Y-153.15
X149.25Y-228.15
X149.3Y-79.1
X149.3Y-154.1
X149.3Y-229.1
X151.0Y-52.0
X151.0Y-58.0
X151.0Y-64.0
X151.0Y-70.0
X151.0Y-76.0
X151.0Y-82.0
X151.0Y-88.0
X151.0Y-94.0
X151.0Y-100.0
X151.0Y-127.0
X151.0Y-133.0
X151.0Y-139.0
X151.0Y-145.0
X151.0Y-151.0
X151.0Y-157.0
X151.0Y-163.0
X151.0Y-169.0
X151.0Y-175.0
X151.0Y-202.0
X151.0Y-208.0
X151.0Y-214.0
X151.0Y-220.0
X151.0Y-226.0
X151.0Y-232.0
X151.0Y-238.0
X151.0Y-244.0
X151.0Y-250.0
X151.25Y-67.0
X151.25Y-142.0
X151.25Y-217.0
X157.0Y-52.0
X157.0Y-58.0
X157.0Y-64.0
X157.0Y-70.0
X157.0Y-76.0
X157.0Y-82.0
X157.0Y-88.0
X157.0Y-94.0
X157.0Y-100.0
X157.0Y-127.0
X157.0Y-133.0
X157.0Y-139.0
X157.0Y-145.0
X157.0Y-151.0
X157.0Y-157.0
X157.0Y-163.0
X157.0Y-169.0
X157.0Y-175.0
X157.0Y-202.0
X157.0Y-208.0
X157.0Y-214.0
X157.0Y-220.0
X157.0Y-226.0
X157.0Y-232.0
X157.0Y-238.0
X157.0Y-244.0
X157.0Y-250.0
X157.75Y-76.65
X157.75Y-151.65
X157.75Y-226.65
X159.6Y-73.075
X159.6Y-75.625
X159.6Y-148.075
X159.6Y-150.625
X159.6Y-223.075
X159.6Y-225.625
X159.875Y-79.175
X159.875Y-80.425
X159.875Y-154.175
X159.875Y-155.425
X159.875Y-229.175
X159.875Y-230.425
X162.5Y-72.6
X162.5Y-73.2
X162.5Y-77.6
X162.5Y-78.2
X162.5Y-147.6
X162.5Y-148.2
X162.5Y-152.6
X162.5Y-153.2
X162.5Y-222.6
X162.5Y-223.2
X162.5Y-227.6
X162.5Y-228.2
X163.0Y-58.0
X163.0Y-76.0
X163.0Y-80.7
X163.0Y-91.2
X163.0Y-94.0
X163.0Y-133.0
X163.0Y-151.0
X163.0Y-155.7
X163.0Y-166.2
X163.0Y-169.0
X163.0Y-208.0
X163.0Y-226.0
X163.0Y-230.7
X163.0Y-241.2
X163.0Y-244.0
X163.3Y-72.6
X163.3Y-73.2
X163.3Y-77.6
X163.3Y-78.2
X163.3Y-147.6
X163.3Y-148.2
X163.3Y-152.6
X163.3Y-153.2
X163.3Y-222.6
X163.3Y-223.2
X163.3Y-227.6
X163.3Y-228.2
X164.0Y-87.2
X164.0Y-162.2
X164.0Y-237.2
X164.522Y-87.919
X164.522Y-162.919
X164.522Y-237.919
X164.7Y-91.1
X164.7Y-166.1
X164.7Y-241.1
X165.4Y-64.0
X165.4Y-64.7
X165.4Y-65.4
X165.4Y-66.0
X165.4Y-139.0
X165.4Y-139.7
X165.4Y-140.4
X165.4Y-141.0
X165.4Y-214.0
X165.4Y-214.7
X165.4Y-215.4
X165.4Y-216.0
X166.0Y-64.0
X166.0Y-64.7
X166.0Y-65.35
X166.0Y-66.0
X166.0Y-139.0
X166.0Y-139.7
X166.0Y-140.35
X166.0Y-141.0
X166.0Y-214.0
X166.0Y-214.7
X166.0Y-215.35
X166.0Y-216.0
X166.4Y-85.6
X166.4Y-88.8
X166.4Y-160.6
X166.4Y-163.8
X166.4Y-235.6
X166.4Y-238.8
X180.0Y-45.994
X180.0Y-55.994
X180.0Y-65.994
X180.0Y-75.994
X180.0Y-85.994
X180.0Y-95.994
X180.0Y-105.994
X180.0Y-120.994
X180.0Y-130.994
X180.0Y-140.994
X180.0Y-150.994
X180.0Y-160.994
X180.0Y-170.994
X180.0Y-180.994
X180.0Y-195.994
X180.0Y-205.994
X180.0Y-215.994
X180.0Y-225.994
X180.0Y-235.994
X180.0Y-245.994
X180.0Y-255.994
X181.6Y-84.644
X181.6Y-85.144
X181.6Y-159.644
X181.6Y-160.144
X181.6Y-234.644
X181.6Y-235.144
X181.7Y-74.744
X181.7Y-75.994
X181.7Y-77.244
X181.7Y-107.794
X181.7Y-149.744
X181.7Y-150.994
X181.7Y-152.244
X181.7Y-182.794
X181.7Y-224.744
X181.7Y-225.994
X181.7Y-227.244
X181.7Y-257.794
X182.1Y-84.644
X182.1Y-85.144
X182.1Y-159.644
X182.1Y-160.144
X182.1Y-234.644
X182.1Y-235.144
X182.6Y-102.294
X182.6Y-104.094
X182.6Y-177.294
X182.6Y-179.094
X182.6Y-252.294
X182.6Y-254.094
X182.65Y-86.644
X182.65Y-88.844
X182.65Y-93.694
X182.65Y-95.494
X182.65Y-100.294
X182.65Y-161.644
X182.65Y-163.844
X182.65Y-168.694
X182.65Y-170.494
X182.65Y-175.294
X182.65Y-236.644
X182.65Y-238.844
X182.65Y-243.694
X182.65Y-245.494
X182.65Y-250.294
X182.75Y-85.144
X182.75Y-160.144
X182.75Y-235.144
X183.1Y-102.294
X183.1Y-104.094
X183.1Y-177.294
X183.1Y-179.094
X183.1Y-252.294
X183.1Y-254.094
X183.15Y-86.644
X183.15Y-88.844
X183.15Y-93.694
X183.15Y-95.494
X183.15Y-100.294
X183.15Y-161.644
X183.15Y-163.844
X183.15Y-168.694
X183.15Y-170.494
X183.15Y-175.294
X183.15Y-236.644
X183.15Y-238.844
X183.15Y-243.694
X183.15Y-245.494
X183.15Y-250.294
X183.25Y-85.144
X183.25Y-160.144
X183.25Y-235.144
X183.6Y-104.494
X183.6Y-179.494
X183.6Y-254.494
X183.616Y-103.836
X183.616Y-178.836
X183.616Y-253.836
X184.1Y-73.094
X184.1Y-78.894
X184.1Y-148.094
X184.1Y-153.894
X184.1Y-223.094
X184.1Y-228.894
X184.2Y-103.794
X184.2Y-104.494
X184.2Y-178.794
X184.2Y-179.494
X184.2Y-253.794
X184.2Y-254.494
X185.1Y-65.424
X185.1Y-86.544
X185.1Y-140.424
X185.1Y-161.544
X185.1Y-215.424
X185.1Y-236.544
X185.35Y-73.094
X185.35Y-78.894
X185.35Y-148.094
X185.35Y-153.894
X185.35Y-223.094
X185.35Y-228.894
X185.6Y-65.424
X185.6Y-86.544
X185.6Y-140.424
X185.6Y-161.544
X185.6Y-215.424
X185.6Y-236.544
X185.998Y-87.294
X185.998Y-162.294
X185.998Y-237.294
X186.3Y-65.424
X186.3Y-140.424
X186.3Y-215.424
X186.6Y-78.894
X186.6Y-153.894
X186.6Y-228.894
X186.65Y-73.044
X186.65Y-148.044
X186.65Y-223.044
X186.8Y-65.424
X186.8Y-140.424
X186.8Y-215.424
X186.901Y-87.853
X186.901Y-162.853
X186.901Y-237.853
X187.001Y-86.944
X187.001Y-161.944
X187.001Y-236.944
X187.275Y-102.894
X187.275Y-177.894
X187.275Y-252.894
X187.3Y-102.394
X187.3Y-177.394
X187.3Y-252.394
X188.248Y-62.794
X188.248Y-137.794
X188.248Y-212.794
X188.55Y-88.494
X188.55Y-163.494
X188.55Y-238.494
X188.75Y-71.094
X188.75Y-80.844
X188.75Y-146.094
X188.75Y-155.844
X188.75Y-221.094
X188.75Y-230.844
X188.8Y-62.194
X188.8Y-137.194
X188.8Y-212.194
X189.0Y-99.194
X189.0Y-174.194
X189.0Y-249.194
X189.05Y-88.494
X189.05Y-163.494
X189.05Y-238.494
X189.1Y-101.244
X189.1Y-101.744
X189.1Y-102.244
X189.1Y-176.244
X189.1Y-176.744
X189.1Y-177.244
X189.1Y-251.244
X189.1Y-251.744
X189.1Y-252.244
X189.3Y-75.744
X189.3Y-76.244
X189.3Y-76.944
X189.3Y-77.444
X189.3Y-150.744
X189.3Y-151.244
X189.3Y-151.944
X189.3Y-152.444
X189.3Y-225.744
X189.3Y-226.244
X189.3Y-226.944
X189.3Y-227.444
X189.5Y-99.194
X189.5Y-174.194
X189.5Y-249.194
X189.6Y-101.244
X189.6Y-101.744
X189.6Y-102.244
X189.6Y-176.244
X189.6Y-176.744
X189.6Y-177.244
X189.6Y-251.244
X189.6Y-251.744
X189.6Y-252.244
X189.75Y-63.494
X189.75Y-88.494
X189.75Y-138.494
X189.75Y-163.494
X189.75Y-213.494
X189.75Y-238.494
X190.0Y-45.994
X190.0Y-71.094
X190.0Y-80.844
X190.0Y-105.994
X190.0Y-120.994
X190.0Y-146.094
X190.0Y-155.844
X190.0Y-180.994
X190.0Y-195.994
X190.0Y-221.094
X190.0Y-230.844
X190.0Y-255.994
X190.25Y-63.494
X190.25Y-88.494
X190.25Y-138.494
X190.25Y-163.494
X190.25Y-213.494
X190.25Y-238.494
X190.5Y-87.994
X190.5Y-162.994
X190.5Y-237.994
X190.648Y-88.994
X190.648Y-163.994
X190.648Y-238.994
X190.7Y-74.544
X190.7Y-75.044
X190.7Y-75.744
X190.7Y-76.244
X190.7Y-149.544
X190.7Y-150.044
X190.7Y-150.744
X190.7Y-151.244
X190.7Y-224.544
X190.7Y-225.044
X190.7Y-225.744
X190.7Y-226.244
X190.95Y-63.494
X190.95Y-138.494
X190.95Y-213.494
X191.1Y-62.194
X191.1Y-137.194
X191.1Y-212.194
X191.2Y-89.694
X191.2Y-164.694
X191.2Y-239.694
X191.25Y-71.094
X191.25Y-80.844
X191.25Y-146.094
X191.25Y-155.844
X191.25Y-221.094
X191.25Y-230.844
X191.45Y-63.494
X191.45Y-138.494
X191.45Y-213.494
X191.95Y-86.944
X191.95Y-161.944
X191.95Y-236.944
X192.898Y-64.344
X192.898Y-139.344
X192.898Y-214.344
X193.2Y-86.544
X193.2Y-98.672
X193.2Y-161.544
X193.2Y-173.672
X193.2Y-236.544
X193.2Y-248.672
X193.3Y-102.094
X193.3Y-177.094
X193.3Y-252.094
X193.35Y-78.894
X193.35Y-153.894
X193.35Y-228.894
X193.375Y-73.044
X193.375Y-148.044
X193.375Y-223.044
X193.7Y-86.544
X193.7Y-161.544
X193.7Y-236.544
X193.85Y-63.544
X193.85Y-138.544
X193.85Y-213.544
X193.9Y-62.194
X193.9Y-137.194
X193.9Y-212.194
X193.901Y-64.795
X193.901Y-139.795
X193.901Y-214.795
X194.3Y-65.444
X194.3Y-140.444
X194.3Y-215.444
X194.4Y-86.544
X194.4Y-161.544
X194.4Y-236.544
X194.65Y-73.044
X194.65Y-78.894
X194.65Y-148.044
X194.65Y-153.894
X194.65Y-223.044
X194.65Y-228.894
X194.7Y-89.694
X194.7Y-164.694
X194.7Y-239.694
X194.75Y-88.344
X194.75Y-163.344
X194.75Y-238.344
X194.9Y-86.544
X194.9Y-161.544
X194.9Y-236.544
X195.0Y-65.444
X195.0Y-140.444
X195.0Y-215.444
X195.6Y-65.444
X195.6Y-140.444
X195.6Y-215.444
X195.9Y-78.894
X195.9Y-153.894
X195.9Y-228.894
X195.925Y-73.044
X195.925Y-148.044
X195.925Y-223.044
X196.1Y-65.444
X196.1Y-140.444
X196.1Y-215.444
X196.3Y-62.194
X196.3Y-63.544
X196.3Y-86.794
X196.3Y-101.994
X196.3Y-137.194
X196.3Y-138.544
X196.3Y-161.794
X196.3Y-176.994
X196.3Y-212.194
X196.3Y-213.544
X196.3Y-236.794
X196.3Y-251.994
X196.35Y-98.744
X196.35Y-173.744
X196.35Y-248.744
X196.4Y-93.244
X196.4Y-168.244
X196.4Y-243.244
X197.0Y-65.394
X197.0Y-140.394
X197.0Y-215.394
X198.1Y-89.694
X198.1Y-164.694
X198.1Y-239.694
X198.3Y-74.744
X198.3Y-75.994
X198.3Y-77.244
X198.3Y-149.744
X198.3Y-150.994
X198.3Y-152.244
X198.3Y-224.744
X198.3Y-225.994
X198.3Y-227.244
X198.4Y-84.644
X198.4Y-159.644
X198.4Y-234.644
X199.7Y-63.844
X199.7Y-65.994
X199.7Y-68.044
X199.7Y-138.844
X199.7Y-140.994
X199.7Y-143.044
X199.7Y-213.844
X199.7Y-215.994
X199.7Y-218.044
X199.8Y-98.794
X199.8Y-173.794
X199.8Y-248.794
X199.85Y-101.994
X199.85Y-176.994
X199.85Y-251.994
X199.9Y-85.844
X199.9Y-160.844
X199.9Y-235.844
X200.0Y-45.994
X200.0Y-55.994
X200.0Y-75.994
X200.0Y-95.994
X200.0Y-105.994
X200.0Y-120.994
X200.0Y-130.994
X200.0Y-150.994
X200.0Y-170.994
X200.0Y-180.994
X200.0Y-195.994
X200.0Y-205.994
X200.0Y-225.994
X200.0Y-245.994
X200.0Y-255.994
X201.1Y-86.694
X201.1Y-161.694
X201.1Y-236.694
X201.3Y-81.794
X201.3Y-156.794
X201.3Y-231.794
X202.349Y-70.744
X202.349Y-145.744
X202.349Y-220.744
X202.4Y-68.694
X202.4Y-143.694
X202.4Y-218.694
X202.45Y-66.644
X202.45Y-141.644
X202.45Y-216.644
X203.15Y-82.594
X203.15Y-157.594
X203.15Y-232.594
X203.251Y-79.644
X203.251Y-154.644
X203.251Y-229.644
X203.4Y-75.994
X203.4Y-150.994
X203.4Y-225.994
X203.675Y-73.965
X203.675Y-148.965
X203.675Y-223.965
X203.7Y-101.944
X203.7Y-176.944
X203.7Y-251.944
X203.702Y-77.996
X203.702Y-152.996
X203.702Y-227.996
X203.9Y-98.844
X203.9Y-173.844
X203.9Y-248.844
X203.95Y-97.194
X203.95Y-172.194
X203.95Y-247.194
X204.0Y-75.994
X204.0Y-150.994
X204.0Y-225.994
X204.2Y-83.594
X204.2Y-158.594
X204.2Y-233.594
X204.5Y-75.994
X204.5Y-150.994
X204.5Y-225.994
X204.51Y-92.114
X204.51Y-94.314
X204.51Y-95.814
X204.51Y-167.114
X204.51Y-169.314
X204.51Y-170.814
X204.51Y-242.114
X204.51Y-244.314
X204.51Y-245.814
X204.55Y-87.294
X204.55Y-162.294
X204.55Y-237.294
X204.6Y-90.344
X204.6Y-165.344
X204.6Y-240.344
X204.7Y-86.294
X204.7Y-161.294
X204.7Y-236.294
X204.823Y-71.045
X204.823Y-146.045
X204.823Y-221.045
X205.1Y-75.994
X205.1Y-150.994
X205.1Y-225.994
X205.4Y-67.894
X205.4Y-78.894
X205.4Y-84.094
X205.4Y-84.594
X205.4Y-142.894
X205.4Y-153.894
X205.4Y-159.094
X205.4Y-159.594
X205.4Y-217.894
X205.4Y-228.894
X205.4Y-234.094
X205.4Y-234.594
X205.51Y-92.114
X205.51Y-94.314
X205.51Y-95.814
X205.51Y-167.114
X205.51Y-169.314
X205.51Y-170.814
X205.51Y-242.114
X205.51Y-244.314
X205.51Y-245.814
X206.5Y-67.894
X206.5Y-84.094
X206.5Y-84.594
X206.5Y-86.944
X206.5Y-142.894
X206.5Y-159.094
X206.5Y-159.594
X206.5Y-161.944
X206.5Y-217.894
X206.5Y-234.094
X206.5Y-234.594
X206.5Y-236.944
X207.1Y-70.305
X207.1Y-145.305
X207.1Y-220.305
X207.15Y-71.594
X207.15Y-146.594
X207.15Y-221.594
X207.171Y-82.443
X207.171Y-157.443
X207.171Y-232.443
X207.2Y-80.394
X207.2Y-81.394
X207.2Y-155.394
X207.2Y-156.394
X207.2Y-230.394
X207.2Y-231.394
X207.401Y-99.194
X207.401Y-174.194
X207.401Y-249.194
X207.6Y-67.894
X207.6Y-84.094
X207.6Y-84.594
X207.6Y-142.894
X207.6Y-159.094
X207.6Y-159.594
X207.6Y-217.894
X207.6Y-234.094
X207.6Y-234.594
X207.9Y-74.494
X207.9Y-74.994
X207.9Y-76.994
X207.9Y-77.494
X207.9Y-149.494
X207.9Y-149.994
X207.9Y-151.994
X207.9Y-152.494
X207.9Y-224.494
X207.9Y-224.994
X207.9Y-226.994
X207.9Y-227.494
X208.2Y-69.294
X208.2Y-69.894
X208.2Y-144.294
X208.2Y-144.894
X208.2Y-219.294
X208.2Y-219.894
X208.3Y-82.443
X208.3Y-157.443
X208.3Y-232.443
X208.35Y-100.444
X208.35Y-175.444
X208.35Y-250.444
X208.5Y-74.494
X208.5Y-74.994
X208.5Y-76.994
X208.5Y-77.494
X208.5Y-149.494
X208.5Y-149.994
X208.5Y-151.994
X208.5Y-152.494
X208.5Y-224.494
X208.5Y-224.994
X208.5Y-226.994
X208.5Y-227.494
X208.8Y-67.894
X208.8Y-84.094
X208.8Y-142.894
X208.8Y-159.094
X208.8Y-217.894
X208.8Y-234.094
X209.2Y-71.594
X209.2Y-80.394
X209.2Y-81.394
X209.2Y-146.594
X209.2Y-155.394
X209.2Y-156.394
X209.2Y-221.594
X209.2Y-230.394
X209.2Y-231.394
X209.4Y-70.294
X209.4Y-145.294
X209.4Y-220.294
X209.5Y-95.894
X209.5Y-170.894
X209.5Y-245.894
X209.9Y-67.894
X209.9Y-84.094
X209.9Y-142.894
X209.9Y-159.094
X209.9Y-217.894
X209.9Y-234.094
X210.0Y-45.994
X210.0Y-55.994
X210.0Y-65.994
X210.0Y-75.994
X210.0Y-85.994
X210.0Y-105.994
X210.0Y-120.994
X210.0Y-130.994
X210.0Y-140.994
X210.0Y-150.994
X210.0Y-160.994
X210.0Y-180.994
X210.0Y-195.994
X210.0Y-205.994
X210.0Y-215.994
X210.0Y-225.994
X210.0Y-235.994
X210.0Y-255.994
X210.9Y-94.314
X210.9Y-169.314
X210.9Y-244.314
X211.0Y-67.894
X211.0Y-75.994
X211.0Y-84.094
X211.0Y-142.894
X211.0Y-150.994
X211.0Y-159.094
X211.0Y-217.894
X211.0Y-225.994
X211.0Y-234.094
X211.3Y-78.994
X211.3Y-153.994
X211.3Y-228.994
X211.6Y-75.994
X211.6Y-150.994
X211.6Y-225.994
X211.7Y-87.319
X211.7Y-162.319
X211.7Y-237.319
X211.9Y-94.314
X211.9Y-169.314
X211.9Y-244.314
X212.15Y-74.894
X212.15Y-149.894
X212.15Y-224.894
X212.2Y-75.994
X212.2Y-150.994
X212.2Y-225.994
X212.243Y-77.173
X212.243Y-152.173
X212.243Y-227.173
X212.772Y-82.894
X212.772Y-157.894
X212.772Y-232.894
X212.8Y-75.994
X212.8Y-150.994
X212.8Y-225.994
X212.9Y-91.294
X212.9Y-166.294
X212.9Y-241.294
X212.95Y-96.544
X212.95Y-171.544
X212.95Y-246.544
X213.5Y-69.444
X213.5Y-144.444
X213.5Y-219.444
X225.0Y-45.994
X225.0Y-55.994
X225.0Y-65.994
X225.0Y-75.994
X225.0Y-85.994
X225.0Y-95.994
X225.0Y-105.994
X225.0Y-120.994
X225.0Y-130.994
X225.0Y-140.994
X225.0Y-150.994
X225.0Y-160.994
X225.0Y-170.994
X225.0Y-180.994
X225.0Y-195.994
X225.0Y-205.994
X225.0Y-215.994
X225.0Y-225.994
X225.0Y-235.994
X225.0Y-245.994
X225.0Y-255.994
X226.6Y-84.644
X226.6Y-85.144
X226.6Y-159.644
X226.6Y-160.144
X226.6Y-234.644
X226.6Y-235.144
X226.7Y-74.744
X226.7Y-75.994
X226.7Y-77.244
X226.7Y-107.794
X226.7Y-149.744
X226.7Y-150.994
X226.7Y-152.244
X226.7Y-182.794
X226.7Y-224.744
X226.7Y-225.994
X226.7Y-227.244
X226.7Y-257.794
X227.1Y-84.644
X227.1Y-85.144
X227.1Y-159.644
X227.1Y-160.144
X227.1Y-234.644
X227.1Y-235.144
X227.6Y-102.294
X227.6Y-104.094
X227.6Y-177.294
X227.6Y-179.094
X227.6Y-252.294
X227.6Y-254.094
X227.65Y-86.644
X227.65Y-88.844
X227.65Y-93.694
X227.65Y-95.494
X227.65Y-100.294
X227.65Y-161.644
X227.65Y-163.844
X227.65Y-168.694
X227.65Y-170.494
X227.65Y-175.294
X227.65Y-236.644
X227.65Y-238.844
X227.65Y-243.694
X227.65Y-245.494
X227.65Y-250.294
X227.75Y-85.144
X227.75Y-160.144
X227.75Y-235.144
X228.1Y-102.294
X228.1Y-104.094
X228.1Y-177.294
X228.1Y-179.094
X228.1Y-252.294
X228.1Y-254.094
X228.15Y-86.644
X228.15Y-88.844
X228.15Y-93.694
X228.15Y-95.494
X228.15Y-100.294
X228.15Y-161.644
X228.15Y-163.844
X228.15Y-168.694
X228.15Y-170.494
X228.15Y-175.294
X228.15Y-236.644
X228.15Y-238.844
X228.15Y-243.694
X228.15Y-245.494
X228.15Y-250.294
X228.25Y-85.144
X228.25Y-160.144
X228.25Y-235.144
X228.6Y-104.494
X228.6Y-179.494
X228.6Y-254.494
X228.616Y-103.836
X228.616Y-178.836
X228.616Y-253.836
X229.1Y-73.094
X229.1Y-78.894
X229.1Y-148.094
X229.1Y-153.894
X229.1Y-223.094
X229.1Y-228.894
X229.2Y-103.794
X229.2Y-104.494
X229.2Y-178.794
X229.2Y-179.494
X229.2Y-253.794
X229.2Y-254.494
X230.1Y-65.424
X230.1Y-86.544
X230.1Y-140.424
X230.1Y-161.544
X230.1Y-215.424
X230.1Y-236.544
X230.35Y-73.094
X230.35Y-78.894
X230.35Y-148.094
X230.35Y-153.894
X230.35Y-223.094
X230.35Y-228.894
X230.6Y-65.424
X230.6Y-86.544
X230.6Y-140.424
X230.6Y-161.544
X230.6Y-215.424
X230.6Y-236.544
X230.998Y-87.294
X230.998Y-162.294
X230.998Y-237.294
X231.3Y-65.424
X231.3Y-140.424
X231.3Y-215.424
X231.6Y-78.894
X231.6Y-153.894
X231.6Y-228.894
X231.65Y-73.044
X231.65Y-148.044
X231.65Y-223.044
X231.8Y-65.424
X231.8Y-140.424
X231.8Y-215.424
X231.901Y-87.853
X231.901Y-162.853
X231.901Y-237.853
X232.001Y-86.944
X232.001Y-161.944
X232.001Y-236.944
X232.275Y-102.894
X232.275Y-177.894
X232.275Y-252.894
X232.3Y-102.394
X232.3Y-177.394
X232.3Y-252.394
X233.248Y-62.794
X233.248Y-137.794
X233.248Y-212.794
X233.55Y-88.494
X233.55Y-163.494
X233.55Y-238.494
X233.75Y-71.094
X233.75Y-80.844
X233.75Y-146.094
X233.75Y-155.844
X233.75Y-221.094
X233.75Y-230.844
X233.8Y-62.194
X233.8Y-137.194
X233.8Y-212.194
X234.0Y-99.194
X234.0Y-174.194
X234.0Y-249.194
X234.05Y-88.494
X234.05Y-163.494
X234.05Y-238.494
X234.1Y-101.244
X234.1Y-101.744
X234.1Y-102.244
X234.1Y-176.244
X234.1Y-176.744
X234.1Y-177.244
X234.1Y-251.244
X234.1Y-251.744
X234.1Y-252.244
X234.3Y-75.744
X234.3Y-76.244
X234.3Y-76.944
X234.3Y-77.444
X234.3Y-150.744
X234.3Y-151.244
X234.3Y-151.944
X234.3Y-152.444
X234.3Y-225.744
X234.3Y-226.244
X234.3Y-226.944
X234.3Y-227.444
X234.5Y-99.194
X234.5Y-174.194
X234.5Y-249.194
X234.6Y-101.244
X234.6Y-101.744
X234.6Y-102.244
X234.6Y-176.244
X234.6Y-176.744
X234.6Y-177.244
X234.6Y-251.244
X234.6Y-251.744
X234.6Y-252.244
X234.75Y-63.494
X234.75Y-88.494
X234.75Y-138.494
X234.75Y-163.494
X234.75Y-213.494
X234.75Y-238.494
X235.0Y-45.994
X235.0Y-71.094
X235.0Y-80.844
X235.0Y-105.994
X235.0Y-120.994
X235.0Y-146.094
X235.0Y-155.844
X235.0Y-180.994
X235.0Y-195.994
X235.0Y-221.094
X235.0Y-230.844
X235.0Y-255.994
X235.25Y-63.494
X235.25Y-88.494
X235.25Y-138.494
X235.25Y-163.494
X235.25Y-213.494
X235.25Y-238.494
X235.5Y-87.994
X235.5Y-162.994
X235.5Y-237.994
X235.648Y-88.994
X235.648Y-163.994
X235.648Y-238.994
X235.7Y-74.544
X235.7Y-75.044
X235.7Y-75.744
X235.7Y-76.244
X235.7Y-149.544
X235.7Y-150.044
X235.7Y-150.744
X235.7Y-151.244
X235.7Y-224.544
X235.7Y-225.044
X235.7Y-225.744
X235.7Y-226.244
X235.95Y-63.494
X235.95Y-138.494
X235.95Y-213.494
X236.1Y-62.194
X236.1Y-137.194
X236.1Y-212.194
X236.2Y-89.694
X236.2Y-164.694
X236.2Y-239.694
X236.25Y-71.094
X236.25Y-80.844
X236.25Y-146.094
X236.25Y-155.844
X236.25Y-221.094
X236.25Y-230.844
X236.45Y-63.494
X236.45Y-138.494
X236.45Y-213.494
X236.95Y-86.944
X236.95Y-161.944
X236.95Y-236.944
X237.898Y-64.344
X237.898Y-139.344
X237.898Y-214.344
X238.2Y-86.544
X238.2Y-98.672
X238.2Y-161.544
X238.2Y-173.672
X238.2Y-236.544
X238.2Y-248.672
X238.3Y-102.094
X238.3Y-177.094
X238.3Y-252.094
X238.35Y-78.894
X238.35Y-153.894
X238.35Y-228.894
X238.375Y-73.044
X238.375Y-148.044
X238.375Y-223.044
X238.7Y-86.544
X238.7Y-161.544
X238.7Y-236.544
X238.85Y-63.544
X238.85Y-138.544
X238.85Y-213.544
X238.9Y-62.194
X238.9Y-137.194
X238.9Y-212.194
X238.901Y-64.795
X238.901Y-139.795
X238.901Y-214.795
X239.3Y-65.444
X239.3Y-140.444
X239.3Y-215.444
X239.4Y-86.544
X239.4Y-161.544
X239.4Y-236.544
X239.65Y-73.044
X239.65Y-78.894
X239.65Y-148.044
X239.65Y-153.894
X239.65Y-223.044
X239.65Y-228.894
X239.7Y-89.694
X239.7Y-164.694
X239.7Y-239.694
X239.75Y-88.344
X239.75Y-163.344
X239.75Y-238.344
X239.9Y-86.544
X239.9Y-161.544
X239.9Y-236.544
X240.0Y-65.444
X240.0Y-140.444
X240.0Y-215.444
X240.6Y-65.444
X240.6Y-140.444
X240.6Y-215.444
X240.9Y-78.894
X240.9Y-153.894
X240.9Y-228.894
X240.925Y-73.044
X240.925Y-148.044
X240.925Y-223.044
X241.1Y-65.444
X241.1Y-140.444
X241.1Y-215.444
X241.3Y-62.194
X241.3Y-63.544
X241.3Y-86.794
X241.3Y-101.994
X241.3Y-137.194
X241.3Y-138.544
X241.3Y-161.794
X241.3Y-176.994
X241.3Y-212.194
X241.3Y-213.544
X241.3Y-236.794
X241.3Y-251.994
X241.35Y-98.744
X241.35Y-173.744
X241.35Y-248.744
X241.4Y-93.244
X241.4Y-168.244
X241.4Y-243.244
X242.0Y-65.394
X242.0Y-140.394
X242.0Y-215.394
X243.1Y-89.694
X243.1Y-164.694
X243.1Y-239.694
X243.3Y-74.744
X243.3Y-75.994
X243.3Y-77.244
X243.3Y-149.744
X243.3Y-150.994
X243.3Y-152.244
X243.3Y-224.744
X243.3Y-225.994
X243.3Y-227.244
X243.4Y-84.644
X243.4Y-159.644
X243.4Y-234.644
X244.7Y-63.844
X244.7Y-65.994
X244.7Y-68.044
X244.7Y-138.844
X244.7Y-140.994
X244.7Y-143.044
X244.7Y-213.844
X244.7Y-215.994
X244.7Y-218.044
X244.8Y-98.794
X244.8Y-173.794
X244.8Y-248.794
X244.85Y-101.994
X244.85Y-176.994
X244.85Y-251.994
X244.9Y-85.844
X244.9Y-160.844
X244.9Y-235.844
X245.0Y-45.994
X245.0Y-55.994
X245.0Y-75.994
X245.0Y-95.994
X245.0Y-105.994
X245.0Y-120.994
X245.0Y-130.994
X245.0Y-150.994
X245.0Y-170.994
X245.0Y-180.994
X245.0Y-195.994
X245.0Y-205.994
X245.0Y-225.994
X245.0Y-245.994
X245.0Y-255.994
X246.1Y-86.694
X246.1Y-161.694
X246.1Y-236.694
X246.3Y-81.794
X246.3Y-156.794
X246.3Y-231.794
X247.349Y-70.744
X247.349Y-145.744
X247.349Y-220.744
X247.4Y-68.694
X247.4Y-143.694
X247.4Y-218.694
X247.45Y-66.644
X247.45Y-141.644
X247.45Y-216.644
X248.15Y-82.594
X248.15Y-157.594
X248.15Y-232.594
X248.251Y-79.644
X248.251Y-154.644
X248.251Y-229.644
X248.4Y-75.994
X248.4Y-150.994
X248.4Y-225.994
X248.675Y-73.965
X248.675Y-148.965
X248.675Y-223.965
X248.7Y-101.944
X248.7Y-176.944
X248.7Y-251.944
X248.702Y-77.996
X248.702Y-152.996
X248.702Y-227.996
X248.9Y-98.844
X248.9Y-173.844
X248.9Y-248.844
X248.95Y-97.194
X248.95Y-172.194
X248.95Y-247.194
X249.0Y-75.994
X249.0Y-150.994
X249.0Y-225.994
X249.2Y-83.594
X249.2Y-158.594
X249.2Y-233.594
X249.5Y-75.994
X249.5Y-150.994
X249.5Y-225.994
X249.51Y-92.114
X249.51Y-94.314
X249.51Y-95.814
X249.51Y-167.114
X249.51Y-169.314
X249.51Y-170.814
X249.51Y-242.114
X249.51Y-244.314
X249.51Y-245.814
X249.55Y-87.294
X249.55Y-162.294
X249.55Y-237.294
X249.6Y-90.344
X249.6Y-165.344
X249.6Y-240.344
X249.7Y-86.294
X249.7Y-161.294
X249.7Y-236.294
X249.823Y-71.045
X249.823Y-146.045
X249.823Y-221.045
X250.1Y-75.994
X250.1Y-150.994
X250.1Y-225.994
X250.4Y-67.894
X250.4Y-78.894
X250.4Y-84.094
X250.4Y-84.594
X250.4Y-142.894
X250.4Y-153.894
X250.4Y-159.094
X250.4Y-159.594
X250.4Y-217.894
X250.4Y-228.894
X250.4Y-234.094
X250.4Y-234.594
X250.51Y-92.114
X250.51Y-94.314
X250.51Y-95.814
X250.51Y-167.114
X250.51Y-169.314
X250.51Y-170.814
X250.51Y-242.114
X250.51Y-244.314
X250.51Y-245.814
X251.5Y-67.894
X251.5Y-84.094
X251.5Y-84.594
X251.5Y-86.944
X251.5Y-142.894
X251.5Y-159.094
X251.5Y-159.594
X251.5Y-161.944
X251.5Y-217.894
X251.5Y-234.094
X251.5Y-234.594
X251.5Y-236.944
X252.1Y-70.305
X252.1Y-145.305
X252.1Y-220.305
X252.15Y-71.594
X252.15Y-146.594
X252.15Y-221.594
X252.171Y-82.443
X252.171Y-157.443
X252.171Y-232.443
X252.2Y-80.394
X252.2Y-81.394
X252.2Y-155.394
X252.2Y-156.394
X252.2Y-230.394
X252.2Y-231.394
X252.401Y-99.194
X252.401Y-174.194
X252.401Y-249.194
X252.6Y-67.894
X252.6Y-84.094
X252.6Y-84.594
X252.6Y-142.894
X252.6Y-159.094
X252.6Y-159.594
X252.6Y-217.894
X252.6Y-234.094
X252.6Y-234.594
X252.9Y-74.494
X252.9Y-74.994
X252.9Y-76.994
X252.9Y-77.494
X252.9Y-149.494
X252.9Y-149.994
X252.9Y-151.994
X252.9Y-152.494
X252.9Y-224.494
X252.9Y-224.994
X252.9Y-226.994
X252.9Y-227.494
X253.2Y-69.294
X253.2Y-69.894
X253.2Y-144.294
X253.2Y-144.894
X253.2Y-219.294
X253.2Y-219.894
X253.3Y-82.443
X253.3Y-157.443
X253.3Y-232.443
X253.35Y-100.444
X253.35Y-175.444
X253.35Y-250.444
X253.5Y-74.494
X253.5Y-74.994
X253.5Y-76.994
X253.5Y-77.494
X253.5Y-149.494
X253.5Y-149.994
X253.5Y-151.994
X253.5Y-152.494
X253.5Y-224.494
X253.5Y-224.994
X253.5Y-226.994
X253.5Y-227.494
X253.8Y-67.894
X253.8Y-84.094
X253.8Y-142.894
X253.8Y-159.094
X253.8Y-217.894
X253.8Y-234.094
X254.2Y-71.594
X254.2Y-80.394
X254.2Y-81.394
X254.2Y-146.594
X254.2Y-155.394
X254.2Y-156.394
X254.2Y-221.594
X254.2Y-230.394
X254.2Y-231.394
X254.4Y-70.294
X254.4Y-145.294
X254.4Y-220.294
X254.5Y-95.894
X254.5Y-170.894
X254.5Y-245.894
X254.9Y-67.894
X254.9Y-84.094
X254.9Y-142.894
X254.9Y-159.094
X254.9Y-217.894
X254.9Y-234.094
X255.0Y-45.994
X255.0Y-55.994
X255.0Y-65.994
X255.0Y-75.994
X255.0Y-85.994
X255.0Y-105.994
X255.0Y-120.994
X255.0Y-130.994
X255.0Y-140.994
X255.0Y-150.994
X255.0Y-160.994
X255.0Y-180.994
X255.0Y-195.994
X255.0Y-205.994
X255.0Y-215.994
X255.0Y-225.994
X255.0Y-235.994
X255.0Y-255.994
X255.9Y-94.314
X255.9Y-169.314
X255.9Y-244.314
X256.0Y-67.894
X256.0Y-75.994
X256.0Y-84.094
X256.0Y-142.894
X256.0Y-150.994
X256.0Y-159.094
X256.0Y-217.894
X256.0Y-225.994
X256.0Y-234.094
X256.3Y-78.994
X256.3Y-153.994
X256.3Y-228.994
X256.6Y-75.994
X256.6Y-150.994
X256.6Y-225.994
X256.7Y-87.319
X256.7Y-162.319
X256.7Y-237.319
X256.9Y-94.314
X256.9Y-169.314
X256.9Y-244.314
X257.15Y-74.894
X257.15Y-149.894
X257.15Y-224.894
X257.2Y-75.994
X257.2Y-150.994
X257.2Y-225.994
X257.243Y-77.173
X257.243Y-152.173
X257.243Y-227.173
X257.772Y-82.894
X257.772Y-157.894
X257.772Y-232.894
X257.8Y-75.994
X257.8Y-150.994
X257.8Y-225.994
X257.9Y-91.294
X257.9Y-166.294
X257.9Y-241.294
X257.95Y-96.544
X257.95Y-171.544
X257.95Y-246.544
X258.5Y-69.444
X258.5Y-144.444
X258.5Y-219.444
T4
X45.6Y-100.05
X45.6Y-175.05
X45.6Y-250.05
X46.303Y-98.353
X46.303Y-101.747
X46.303Y-173.353
X46.303Y-176.747
X46.303Y-248.353
X46.303Y-251.747
X48.0Y-97.65
X48.0Y-102.45
X48.0Y-172.65
X48.0Y-177.45
X48.0Y-247.65
X48.0Y-252.45
X49.697Y-98.353
X49.697Y-101.747
X49.697Y-173.353
X49.697Y-176.747
X49.697Y-248.353
X49.697Y-251.747
X50.4Y-100.05
X50.4Y-175.05
X50.4Y-250.05
X93.6Y-52.05
X93.6Y-127.05
X93.6Y-202.05
X94.303Y-50.353
X94.303Y-53.747
X94.303Y-125.353
X94.303Y-128.747
X94.303Y-200.353
X94.303Y-203.747
X96.0Y-49.65
X96.0Y-54.45
X96.0Y-124.65
X96.0Y-129.45
X96.0Y-199.65
X96.0Y-204.45
X97.697Y-50.353
X97.697Y-53.747
X97.697Y-125.353
X97.697Y-128.747
X97.697Y-200.353
X97.697Y-203.747
X98.4Y-52.05
X98.4Y-127.05
X98.4Y-202.05
X112.6Y-52.0
X112.6Y-100.0
X112.6Y-127.0
X112.6Y-175.0
X112.6Y-202.0
X112.6Y-250.0
X113.303Y-50.303
X113.303Y-53.697
X113.303Y-98.303
X113.303Y-101.697
X113.303Y-125.303
X113.303Y-128.697
X113.303Y-173.303
X113.303Y-176.697
X113.303Y-200.303
X113.303Y-203.697
X113.303Y-248.303
X113.303Y-251.697
X115.0Y-49.6
X115.0Y-54.4
X115.0Y-97.6
X115.0Y-102.4
X115.0Y-124.6
X115.0Y-129.4
X115.0Y-172.6
X115.0Y-177.4
X115.0Y-199.6
X115.0Y-204.4
X115.0Y-247.6
X115.0Y-252.4
X116.697Y-50.303
X116.697Y-53.697
X116.697Y-98.303
X116.697Y-101.697
X116.697Y-125.303
X116.697Y-128.697
X116.697Y-173.303
X116.697Y-176.697
X116.697Y-200.303
X116.697Y-203.697
X116.697Y-248.303
X116.697Y-251.697
X117.4Y-52.0
X117.4Y-100.0
X117.4Y-127.0
X117.4Y-175.0
X117.4Y-202.0
X117.4Y-250.0
X160.6Y-52.0
X160.6Y-100.0
X160.6Y-127.0
X160.6Y-175.0
X160.6Y-202.0
X160.6Y-250.0
X161.303Y-50.303
X161.303Y-53.697
X161.303Y-98.303
X161.303Y-101.697
X161.303Y-125.303
X161.303Y-128.697
X161.303Y-173.303
X161.303Y-176.697
X161.303Y-200.303
X161.303Y-203.697
X161.303Y-248.303
X161.303Y-251.697
X163.0Y-49.6
X163.0Y-54.4
X163.0Y-97.6
X163.0Y-102.4
X163.0Y-124.6
X163.0Y-129.4
X163.0Y-172.6
X163.0Y-177.4
X163.0Y-199.6
X163.0Y-204.4
X163.0Y-247.6
X163.0Y-252.4
X164.697Y-50.303
X164.697Y-53.697
X164.697Y-98.303
X164.697Y-101.697
X164.697Y-125.303
X164.697Y-128.697
X164.697Y-173.303
X164.697Y-176.697
X164.697Y-200.303
X164.697Y-203.697
X164.697Y-248.303
X164.697Y-251.697
X165.4Y-52.0
X165.4Y-100.0
X165.4Y-127.0
X165.4Y-175.0
X165.4Y-202.0
X165.4Y-250.0
X187.6Y-57.994
X187.6Y-93.994
X187.6Y-132.994
X187.6Y-168.994
X187.6Y-207.994
X187.6Y-243.994
X188.303Y-56.297
X188.303Y-59.691
X188.303Y-92.297
X188.303Y-95.691
X188.303Y-131.297
X188.303Y-134.691
X188.303Y-167.297
X188.303Y-170.691
X188.303Y-206.297
X188.303Y-209.691
X188.303Y-242.297
X188.303Y-245.691
X190.0Y-55.594
X190.0Y-60.394
X190.0Y-91.594
X190.0Y-96.394
X190.0Y-130.594
X190.0Y-135.394
X190.0Y-166.594
X190.0Y-171.394
X190.0Y-205.594
X190.0Y-210.394
X190.0Y-241.594
X190.0Y-246.394
X191.697Y-56.297
X191.697Y-59.691
X191.697Y-92.297
X191.697Y-95.691
X191.697Y-131.297
X191.697Y-134.691
X191.697Y-167.297
X191.697Y-170.691
X191.697Y-206.297
X191.697Y-209.691
X191.697Y-242.297
X191.697Y-245.691
X192.4Y-57.994
X192.4Y-93.994
X192.4Y-132.994
X192.4Y-168.994
X192.4Y-207.994
X192.4Y-243.994
X232.6Y-57.994
X232.6Y-93.994
X232.6Y-132.994
X232.6Y-168.994
X232.6Y-207.994
X232.6Y-243.994
X233.303Y-56.297
X233.303Y-59.691
X233.303Y-92.297
X233.303Y-95.691
X233.303Y-131.297
X233.303Y-134.691
X233.303Y-167.297
X233.303Y-170.691
X233.303Y-206.297
X233.303Y-209.691
X233.303Y-242.297
X233.303Y-245.691
X235.0Y-55.594
X235.0Y-60.394
X235.0Y-91.594
X235.0Y-96.394
X235.0Y-130.594
X235.0Y-135.394
X235.0Y-166.594
X235.0Y-171.394
X235.0Y-205.594
X235.0Y-210.394
X235.0Y-241.594
X235.0Y-246.394
X236.697Y-56.297
X236.697Y-59.691
X236.697Y-92.297
X236.697Y-95.691
X236.697Y-131.297
X236.697Y-134.691
X236.697Y-167.297
X236.697Y-170.691
X236.697Y-206.297
X236.697Y-209.691
X236.697Y-242.297
X236.697Y-245.691
X237.4Y-57.994
X237.4Y-93.994
X237.4Y-132.994
X237.4Y-168.994
X237.4Y-207.994
X237.4Y-243.994
T5
X62.0Y-91.2
X62.0Y-92.47
X62.0Y-93.74
X62.0Y-95.01
X62.0Y-166.2
X62.0Y-167.47
X62.0Y-168.74
X62.0Y-170.01
X62.0Y-241.2
X62.0Y-242.47
X62.0Y-243.74
X62.0Y-245.01
T6
X112.0Y-70.425
X112.0Y-72.965
X112.0Y-75.505
X112.0Y-78.045
X112.0Y-80.585
X112.0Y-145.425
X112.0Y-147.965
X112.0Y-150.505
X112.0Y-153.045
X112.0Y-155.585
X112.0Y-220.425
X112.0Y-222.965
X112.0Y-225.505
X112.0Y-228.045
X112.0Y-230.585
T7
X48.0Y-100.05
X48.0Y-175.05
X48.0Y-250.05
X96.0Y-52.05
X96.0Y-127.05
X96.0Y-202.05
X115.0Y-52.0
X115.0Y-100.0
X115.0Y-127.0
X115.0Y-175.0
X115.0Y-202.0
X115.0Y-250.0
X163.0Y-52.0
X163.0Y-100.0
X163.0Y-127.0
X163.0Y-175.0
X163.0Y-202.0
X163.0Y-250.0
X190.0Y-57.994
X190.0Y-93.994
X190.0Y-132.994
X190.0Y-168.994
X190.0Y-207.994
X190.0Y-243.994
X235.0Y-57.994
X235.0Y-93.994
X235.0Y-132.994
X235.0Y-168.994
X235.0Y-207.994
X235.0Y-243.994
T5
G00X95.775Y-59.63
M15
G01X96.775Y-59.63
M16
G05
G00X95.775Y-68.27
M15
G01X96.775Y-68.27
M16
G05
G00X95.775Y-134.63
M15
G01X96.775Y-134.63
M16
G05
G00X95.775Y-143.27
M15
G01X96.775Y-143.27
M16
G05
G00X95.775Y-209.63
M15
G01X96.775Y-209.63
M16
G05
G00X95.775Y-218.27
M15
G01X96.775Y-218.27
M16
G05
G00X99.6Y-59.63
M15
G01X100.6Y-59.63
M16
G05
G00X99.6Y-68.27
M15
G01X100.6Y-68.27
M16
G05
G00X99.6Y-134.63
M15
G01X100.6Y-134.63
M16
G05
G00X99.6Y-143.27
M15
G01X100.6Y-143.27
M16
G05
G00X99.6Y-209.63
M15
G01X100.6Y-209.63
M16
G05
G00X99.6Y-218.27
M15
G01X100.6Y-218.27
M16
G05
T0
M30
