%TF.GenerationSoftware,KiCad,Pcbnew,7.0.1-3b83917a11~172~ubuntu22.04.1*%
%TF.CreationDate,2023-05-08T15:20:01+02:00*%
%TF.ProjectId,panel,70616e65-6c2e-46b6-9963-61645f706362,C*%
%TF.SameCoordinates,Original*%
%TF.FileFunction,Other,User*%
%FSLAX46Y46*%
G04 Gerber Fmt 4.6, Leading zero omitted, Abs format (unit mm)*
G04 Created by KiCad (PCBNEW 7.0.1-3b83917a11~172~ubuntu22.04.1) date 2023-05-08 15:20:01*
%MOMM*%
%LPD*%
G01*
G04 APERTURE LIST*
%ADD10C,0.050000*%
G04 APERTURE END LIST*
D10*
%TO.C,JP1*%
X157600000Y-145375000D02*
X157600000Y-147875000D01*
X157600000Y-145375000D02*
X154300000Y-145375000D01*
X154300000Y-147875000D02*
X157600000Y-147875000D01*
X154300000Y-147875000D02*
X154300000Y-145375000D01*
%TO.C,JP402*%
X77250000Y-195550000D02*
X79750000Y-195550000D01*
X77250000Y-195550000D02*
X77250000Y-200150000D01*
X79750000Y-200150000D02*
X79750000Y-195550000D01*
X79750000Y-200150000D02*
X77250000Y-200150000D01*
%TO.C,TP904*%
X89200000Y-118600000D02*
G75*
G03*
X89200000Y-118600000I-1000000J0D01*
G01*
X89200000Y-194600000D02*
G75*
G03*
X89200000Y-194600000I-1000000J0D01*
G01*
%TO.C,JP1401*%
X67150000Y-81300000D02*
X69650000Y-81300000D01*
X67150000Y-81300000D02*
X67150000Y-85900000D01*
X69650000Y-85900000D02*
X69650000Y-81300000D01*
X69650000Y-85900000D02*
X67150000Y-85900000D01*
%TO.C,J202*%
X59150000Y-175450000D02*
X46150000Y-175450000D01*
X59150000Y-166950000D02*
X59150000Y-175450000D01*
X46150000Y-175450000D02*
X46150000Y-166950000D01*
X46150000Y-166950000D02*
X59150000Y-166950000D01*
%TO.C,TP407*%
X56075000Y-160025000D02*
G75*
G03*
X56075000Y-160025000I-1000000J0D01*
G01*
%TO.C,BT301*%
X122635682Y-156092211D02*
X126949033Y-160405562D01*
X126949033Y-160405562D02*
X130343146Y-157011450D01*
X123696342Y-150364646D02*
X126029794Y-152698098D01*
X126029794Y-152698098D02*
X122635682Y-156092211D01*
X130343146Y-157011450D02*
X135116117Y-161784420D01*
X135116117Y-161784420D02*
X140171930Y-156728607D01*
X125110556Y-142232918D02*
X123696342Y-150364646D01*
X131191674Y-136151800D02*
X125110556Y-142232918D01*
X139323402Y-134737586D02*
X131191674Y-136151800D01*
X141656854Y-137071038D02*
X139323402Y-134737586D01*
X145970206Y-141384390D02*
X149364318Y-137990277D01*
X150743176Y-146157361D02*
X145687363Y-151213174D01*
X150743176Y-146157361D02*
X145970206Y-141384390D01*
X145050967Y-133676926D02*
X141656854Y-137071038D01*
X149364318Y-137990277D02*
X145050967Y-133676926D01*
X140171930Y-156728607D02*
G75*
G03*
X145687363Y-151213174I-4171926J9687359D01*
G01*
%TO.C,TP406*%
X56075000Y-162175000D02*
G75*
G03*
X56075000Y-162175000I-1000000J0D01*
G01*
%TO.C,J202*%
X59150000Y-251450000D02*
X46150000Y-251450000D01*
X59150000Y-242950000D02*
X59150000Y-251450000D01*
X46150000Y-251450000D02*
X46150000Y-242950000D01*
X46150000Y-242950000D02*
X59150000Y-242950000D01*
%TO.C,JP401*%
X79450000Y-43550000D02*
X81950000Y-43550000D01*
X79450000Y-43550000D02*
X79450000Y-48150000D01*
X81950000Y-48150000D02*
X81950000Y-43550000D01*
X81950000Y-48150000D02*
X79450000Y-48150000D01*
%TO.C,TP902*%
X97200000Y-67900000D02*
G75*
G03*
X97200000Y-67900000I-1000000J0D01*
G01*
%TO.C,TP407*%
X56075000Y-84025000D02*
G75*
G03*
X56075000Y-84025000I-1000000J0D01*
G01*
X56075000Y-236025000D02*
G75*
G03*
X56075000Y-236025000I-1000000J0D01*
G01*
%TO.C,JP1401*%
X67150000Y-157300000D02*
X69650000Y-157300000D01*
X67150000Y-157300000D02*
X67150000Y-161900000D01*
X69650000Y-161900000D02*
X69650000Y-157300000D01*
X69650000Y-161900000D02*
X67150000Y-161900000D01*
%TO.C,JP402*%
X77250000Y-43550000D02*
X79750000Y-43550000D01*
X77250000Y-43550000D02*
X77250000Y-48150000D01*
X79750000Y-48150000D02*
X79750000Y-43550000D01*
X79750000Y-48150000D02*
X77250000Y-48150000D01*
%TO.C,TP903*%
X80600000Y-232900000D02*
G75*
G03*
X80600000Y-232900000I-1000000J0D01*
G01*
%TO.C,J202*%
X59150000Y-99450000D02*
X46150000Y-99450000D01*
X59150000Y-90950000D02*
X59150000Y-99450000D01*
X46150000Y-99450000D02*
X46150000Y-90950000D01*
X46150000Y-90950000D02*
X59150000Y-90950000D01*
%TO.C,JP2*%
X157600000Y-218825000D02*
X157600000Y-221325000D01*
X157600000Y-218825000D02*
X154300000Y-218825000D01*
X154300000Y-221325000D02*
X157600000Y-221325000D01*
X154300000Y-221325000D02*
X154300000Y-218825000D01*
%TO.C,JP401*%
X79450000Y-119550000D02*
X81950000Y-119550000D01*
X79450000Y-119550000D02*
X79450000Y-124150000D01*
X81950000Y-124150000D02*
X81950000Y-119550000D01*
X81950000Y-124150000D02*
X79450000Y-124150000D01*
%TO.C,JP1*%
X157600000Y-69375000D02*
X157600000Y-71875000D01*
X157600000Y-69375000D02*
X154300000Y-69375000D01*
X154300000Y-71875000D02*
X157600000Y-71875000D01*
X154300000Y-71875000D02*
X154300000Y-69375000D01*
%TO.C,TP902*%
X97200000Y-219900000D02*
G75*
G03*
X97200000Y-219900000I-1000000J0D01*
G01*
%TO.C,TP406*%
X56075000Y-86175000D02*
G75*
G03*
X56075000Y-86175000I-1000000J0D01*
G01*
%TO.C,BT301*%
X122635682Y-80092211D02*
X126949033Y-84405562D01*
X126949033Y-84405562D02*
X130343146Y-81011450D01*
X123696342Y-74364646D02*
X126029794Y-76698098D01*
X126029794Y-76698098D02*
X122635682Y-80092211D01*
X130343146Y-81011450D02*
X135116117Y-85784420D01*
X135116117Y-85784420D02*
X140171930Y-80728607D01*
X125110556Y-66232918D02*
X123696342Y-74364646D01*
X131191674Y-60151800D02*
X125110556Y-66232918D01*
X139323402Y-58737586D02*
X131191674Y-60151800D01*
X141656854Y-61071038D02*
X139323402Y-58737586D01*
X145970206Y-65384390D02*
X149364318Y-61990277D01*
X150743176Y-70157361D02*
X145687363Y-75213174D01*
X150743176Y-70157361D02*
X145970206Y-65384390D01*
X145050967Y-57676926D02*
X141656854Y-61071038D01*
X149364318Y-61990277D02*
X145050967Y-57676926D01*
X140171930Y-80728607D02*
G75*
G03*
X145687363Y-75213174I-4171926J9687359D01*
G01*
%TO.C,TP903*%
X80600000Y-80900000D02*
G75*
G03*
X80600000Y-80900000I-1000000J0D01*
G01*
%TO.C,TP904*%
X89200000Y-42600000D02*
G75*
G03*
X89200000Y-42600000I-1000000J0D01*
G01*
%TO.C,JP2*%
X157600000Y-66825000D02*
X157600000Y-69325000D01*
X157600000Y-66825000D02*
X154300000Y-66825000D01*
X154300000Y-69325000D02*
X157600000Y-69325000D01*
X154300000Y-69325000D02*
X154300000Y-66825000D01*
%TO.C,JP1401*%
X67150000Y-233300000D02*
X69650000Y-233300000D01*
X67150000Y-233300000D02*
X67150000Y-237900000D01*
X69650000Y-237900000D02*
X69650000Y-233300000D01*
X69650000Y-237900000D02*
X67150000Y-237900000D01*
%TO.C,JP401*%
X79450000Y-195550000D02*
X81950000Y-195550000D01*
X79450000Y-195550000D02*
X79450000Y-200150000D01*
X81950000Y-200150000D02*
X81950000Y-195550000D01*
X81950000Y-200150000D02*
X79450000Y-200150000D01*
%TO.C,JP2*%
X157600000Y-142825000D02*
X157600000Y-145325000D01*
X157600000Y-142825000D02*
X154300000Y-142825000D01*
X154300000Y-145325000D02*
X157600000Y-145325000D01*
X154300000Y-145325000D02*
X154300000Y-142825000D01*
%TO.C,TP903*%
X80600000Y-156900000D02*
G75*
G03*
X80600000Y-156900000I-1000000J0D01*
G01*
%TO.C,TP406*%
X56075000Y-238175000D02*
G75*
G03*
X56075000Y-238175000I-1000000J0D01*
G01*
%TO.C,BT301*%
X122635682Y-232092211D02*
X126949033Y-236405562D01*
X126949033Y-236405562D02*
X130343146Y-233011450D01*
X123696342Y-226364646D02*
X126029794Y-228698098D01*
X126029794Y-228698098D02*
X122635682Y-232092211D01*
X130343146Y-233011450D02*
X135116117Y-237784420D01*
X135116117Y-237784420D02*
X140171930Y-232728607D01*
X125110556Y-218232918D02*
X123696342Y-226364646D01*
X131191674Y-212151800D02*
X125110556Y-218232918D01*
X139323402Y-210737586D02*
X131191674Y-212151800D01*
X141656854Y-213071038D02*
X139323402Y-210737586D01*
X145970206Y-217384390D02*
X149364318Y-213990277D01*
X150743176Y-222157361D02*
X145687363Y-227213174D01*
X150743176Y-222157361D02*
X145970206Y-217384390D01*
X145050967Y-209676926D02*
X141656854Y-213071038D01*
X149364318Y-213990277D02*
X145050967Y-209676926D01*
X140171930Y-232728607D02*
G75*
G03*
X145687363Y-227213174I-4171926J9687359D01*
G01*
%TO.C,JP402*%
X77250000Y-119550000D02*
X79750000Y-119550000D01*
X77250000Y-119550000D02*
X77250000Y-124150000D01*
X79750000Y-124150000D02*
X79750000Y-119550000D01*
X79750000Y-124150000D02*
X77250000Y-124150000D01*
%TO.C,TP902*%
X97200000Y-143900000D02*
G75*
G03*
X97200000Y-143900000I-1000000J0D01*
G01*
%TO.C,JP1*%
X157600000Y-221375000D02*
X157600000Y-223875000D01*
X157600000Y-221375000D02*
X154300000Y-221375000D01*
X154300000Y-223875000D02*
X157600000Y-223875000D01*
X154300000Y-223875000D02*
X154300000Y-221375000D01*
%TD*%
M02*
