%TF.GenerationSoftware,KiCad,Pcbnew,7.0.1-3b83917a11~172~ubuntu22.04.1*%
%TF.CreationDate,2023-05-08T15:20:00+02:00*%
%TF.ProjectId,panel,70616e65-6c2e-46b6-9963-61645f706362,C*%
%TF.SameCoordinates,Original*%
%TF.FileFunction,Soldermask,Bot*%
%TF.FilePolarity,Negative*%
%FSLAX46Y46*%
G04 Gerber Fmt 4.6, Leading zero omitted, Abs format (unit mm)*
G04 Created by KiCad (PCBNEW 7.0.1-3b83917a11~172~ubuntu22.04.1) date 2023-05-08 15:20:00*
%MOMM*%
%LPD*%
G01*
G04 APERTURE LIST*
G04 Aperture macros list*
%AMRotRect*
0 Rectangle, with rotation*
0 The origin of the aperture is its center*
0 $1 length*
0 $2 width*
0 $3 Rotation angle, in degrees counterclockwise*
0 Add horizontal line*
21,1,$1,$2,0,0,$3*%
%AMFreePoly0*
4,1,19,0.500000,-0.750000,0.000000,-0.750000,0.000000,-0.744911,-0.071157,-0.744911,-0.207708,-0.704816,-0.327430,-0.627875,-0.420627,-0.520320,-0.479746,-0.390866,-0.500000,-0.250000,-0.500000,0.250000,-0.479746,0.390866,-0.420627,0.520320,-0.327430,0.627875,-0.207708,0.704816,-0.071157,0.744911,0.000000,0.744911,0.000000,0.750000,0.500000,0.750000,0.500000,-0.750000,0.500000,-0.750000,
$1*%
%AMFreePoly1*
4,1,19,0.000000,0.744911,0.071157,0.744911,0.207708,0.704816,0.327430,0.627875,0.420627,0.520320,0.479746,0.390866,0.500000,0.250000,0.500000,-0.250000,0.479746,-0.390866,0.420627,-0.520320,0.327430,-0.627875,0.207708,-0.704816,0.071157,-0.744911,0.000000,-0.744911,0.000000,-0.750000,-0.500000,-0.750000,-0.500000,0.750000,0.000000,0.750000,0.000000,0.744911,0.000000,0.744911,
$1*%
%AMFreePoly2*
4,1,19,0.550000,-0.750000,0.000000,-0.750000,0.000000,-0.744911,-0.071157,-0.744911,-0.207708,-0.704816,-0.327430,-0.627875,-0.420627,-0.520320,-0.479746,-0.390866,-0.500000,-0.250000,-0.500000,0.250000,-0.479746,0.390866,-0.420627,0.520320,-0.327430,0.627875,-0.207708,0.704816,-0.071157,0.744911,0.000000,0.744911,0.000000,0.750000,0.550000,0.750000,0.550000,-0.750000,0.550000,-0.750000,
$1*%
%AMFreePoly3*
4,1,19,0.000000,0.744911,0.071157,0.744911,0.207708,0.704816,0.327430,0.627875,0.420627,0.520320,0.479746,0.390866,0.500000,0.250000,0.500000,-0.250000,0.479746,-0.390866,0.420627,-0.520320,0.327430,-0.627875,0.207708,-0.704816,0.071157,-0.744911,0.000000,-0.744911,0.000000,-0.750000,-0.550000,-0.750000,-0.550000,0.750000,0.000000,0.750000,0.000000,0.744911,0.000000,0.744911,
$1*%
G04 Aperture macros list end*
%ADD10C,0.200000*%
%ADD11C,0.500000*%
%ADD12C,0.800000*%
%ADD13C,6.400000*%
%ADD14C,0.650000*%
%ADD15R,1.700000X1.700000*%
%ADD16O,1.700000X1.700000*%
%ADD17O,0.650000X0.900000*%
%ADD18O,1.950000X0.950000*%
%ADD19R,1.000000X1.000000*%
%ADD20O,1.000000X1.000000*%
%ADD21FreePoly0,180.000000*%
%ADD22FreePoly1,180.000000*%
%ADD23FreePoly2,270.000000*%
%ADD24R,1.500000X1.000000*%
%ADD25FreePoly3,270.000000*%
%ADD26C,1.000000*%
%ADD27C,2.374900*%
%ADD28C,0.990600*%
%ADD29C,0.787400*%
%ADD30RotRect,5.100000X5.100000X45.000000*%
%ADD31C,17.800000*%
G04 APERTURE END LIST*
D10*
X189850000Y-159350000D02*
X189350000Y-158850000D01*
X250300000Y-66600000D02*
X252200000Y-66600000D01*
X241100000Y-82000000D02*
X248250000Y-74850000D01*
X202250000Y-226850000D02*
X202250000Y-226650000D01*
X203350000Y-152400000D02*
X196400000Y-159350000D01*
X250300000Y-142600000D02*
X252200000Y-142600000D01*
X232000000Y-233950000D02*
X237850000Y-233950000D01*
X196400000Y-159350000D02*
X189850000Y-159350000D01*
X197000000Y-57200000D02*
X187800000Y-57200000D01*
X249200000Y-154600000D02*
X250350000Y-153450000D01*
X200100000Y-157700000D02*
X203200000Y-154600000D01*
X248250000Y-226850000D02*
X248250000Y-226650000D01*
X190200000Y-236700000D02*
X193700000Y-236700000D01*
X195100000Y-158000000D02*
X202250000Y-150850000D01*
X250350000Y-77450000D02*
X252150000Y-77450000D01*
X238850000Y-134550000D02*
X242250000Y-134550000D01*
X242250000Y-134550000D02*
X250300000Y-142600000D01*
X207350000Y-153450000D02*
X211350000Y-153450000D01*
X190200000Y-84700000D02*
X193700000Y-84700000D01*
X197000000Y-209200000D02*
X187800000Y-209200000D01*
X192850000Y-210550000D02*
X196250000Y-210550000D01*
X211650000Y-141300000D02*
X206100000Y-141300000D01*
X239700000Y-84700000D02*
X243100000Y-84700000D01*
X205100000Y-141300000D02*
X197000000Y-133200000D01*
X258500000Y-140450000D02*
X257650000Y-141300000D01*
X241400000Y-211800000D02*
X238900000Y-211800000D01*
X237850000Y-157950000D02*
X237950000Y-158000000D01*
X211650000Y-65300000D02*
X206100000Y-65300000D01*
X257650000Y-217300000D02*
X252100000Y-217300000D01*
X252200000Y-76400000D02*
X249350000Y-76400000D01*
X197000000Y-133200000D02*
X187800000Y-133200000D01*
X247350000Y-217750000D02*
X241400000Y-211800000D01*
X197100000Y-84700000D02*
X200100000Y-81700000D01*
X250350000Y-153450000D02*
X252150000Y-153450000D01*
X193700000Y-236700000D02*
X197100000Y-236700000D01*
X196400000Y-83350000D02*
X189850000Y-83350000D01*
X191800000Y-234000000D02*
X195100000Y-234000000D01*
X238850000Y-58550000D02*
X242250000Y-58550000D01*
X196250000Y-210550000D02*
X204300000Y-218600000D01*
X204300000Y-66600000D02*
X206200000Y-66600000D01*
X257350000Y-153450000D02*
X257800000Y-153900000D01*
X189850000Y-235350000D02*
X189350000Y-234850000D01*
X204350000Y-77450000D02*
X206150000Y-77450000D01*
X257650000Y-141300000D02*
X252100000Y-141300000D01*
X191850000Y-233950000D02*
X191950000Y-234000000D01*
X203200000Y-154600000D02*
X204350000Y-153450000D01*
X191800000Y-158000000D02*
X195100000Y-158000000D01*
X252200000Y-152400000D02*
X249350000Y-152400000D01*
X211350000Y-77450000D02*
X211800000Y-77900000D01*
X206150000Y-153450000D02*
X207300000Y-153450000D01*
X236200000Y-236700000D02*
X239700000Y-236700000D01*
X242400000Y-159350000D02*
X235850000Y-159350000D01*
X241100000Y-234000000D02*
X248250000Y-226850000D01*
X247350000Y-141750000D02*
X241400000Y-135800000D01*
X189350000Y-82850000D02*
X185900000Y-82850000D01*
X195400000Y-135800000D02*
X192900000Y-135800000D01*
X239700000Y-236700000D02*
X243100000Y-236700000D01*
X246100000Y-233700000D02*
X249200000Y-230600000D01*
X251100000Y-65300000D02*
X243000000Y-57200000D01*
X207350000Y-229450000D02*
X211350000Y-229450000D01*
X246100000Y-157700000D02*
X249200000Y-154600000D01*
X237850000Y-233950000D02*
X237950000Y-234000000D01*
X235850000Y-83350000D02*
X235350000Y-82850000D01*
X237850000Y-81950000D02*
X237950000Y-82000000D01*
X252200000Y-228400000D02*
X249350000Y-228400000D01*
X201350000Y-65750000D02*
X195400000Y-59800000D01*
X247350000Y-65750000D02*
X241400000Y-59800000D01*
X243000000Y-57200000D02*
X233800000Y-57200000D01*
X236200000Y-84700000D02*
X239700000Y-84700000D01*
X192850000Y-134550000D02*
X196250000Y-134550000D01*
X257350000Y-229450000D02*
X257800000Y-229900000D01*
X239700000Y-160700000D02*
X243100000Y-160700000D01*
X197100000Y-236700000D02*
X200100000Y-233700000D01*
X196250000Y-58550000D02*
X204300000Y-66600000D01*
X203350000Y-228400000D02*
X196400000Y-235350000D01*
X201350000Y-141750000D02*
X195400000Y-135800000D01*
X203200000Y-78600000D02*
X204350000Y-77450000D01*
X242400000Y-83350000D02*
X235850000Y-83350000D01*
X243100000Y-160700000D02*
X246100000Y-157700000D01*
X257650000Y-65300000D02*
X252100000Y-65300000D01*
X186000000Y-157950000D02*
X191850000Y-157950000D01*
X206100000Y-65300000D02*
X205100000Y-65300000D01*
X193700000Y-160700000D02*
X197100000Y-160700000D01*
X192850000Y-58550000D02*
X196250000Y-58550000D01*
X211350000Y-153450000D02*
X211800000Y-153900000D01*
X258500000Y-216450000D02*
X257650000Y-217300000D01*
X201350000Y-217750000D02*
X195400000Y-211800000D01*
X204300000Y-218600000D02*
X206200000Y-218600000D01*
X250350000Y-229450000D02*
X252150000Y-229450000D01*
X237800000Y-234000000D02*
X241100000Y-234000000D01*
X203350000Y-76400000D02*
X196400000Y-83350000D01*
X211350000Y-229450000D02*
X211800000Y-229900000D01*
X206100000Y-141300000D02*
X205100000Y-141300000D01*
X253350000Y-229450000D02*
X257350000Y-229450000D01*
X191800000Y-82000000D02*
X195100000Y-82000000D01*
X238850000Y-210550000D02*
X242250000Y-210550000D01*
X241400000Y-135800000D02*
X238900000Y-135800000D01*
X235350000Y-82850000D02*
X231900000Y-82850000D01*
X206200000Y-76400000D02*
X203350000Y-76400000D01*
X206200000Y-152400000D02*
X203350000Y-152400000D01*
X206200000Y-228400000D02*
X203350000Y-228400000D01*
X191850000Y-157950000D02*
X191950000Y-158000000D01*
X200100000Y-81700000D02*
X203200000Y-78600000D01*
X243000000Y-209200000D02*
X233800000Y-209200000D01*
X237800000Y-158000000D02*
X241100000Y-158000000D01*
X235850000Y-235350000D02*
X235350000Y-234850000D01*
X206150000Y-229450000D02*
X207300000Y-229450000D01*
X242250000Y-58550000D02*
X250300000Y-66600000D01*
X235850000Y-159350000D02*
X235350000Y-158850000D01*
X186000000Y-81950000D02*
X191850000Y-81950000D01*
X248250000Y-74850000D02*
X248250000Y-74650000D01*
X195400000Y-211800000D02*
X192900000Y-211800000D01*
X202250000Y-150850000D02*
X202250000Y-150650000D01*
X246100000Y-81700000D02*
X249200000Y-78600000D01*
X252150000Y-153450000D02*
X253300000Y-153450000D01*
X191850000Y-81950000D02*
X191950000Y-82000000D01*
X197100000Y-160700000D02*
X200100000Y-157700000D01*
X236200000Y-160700000D02*
X239700000Y-160700000D01*
X249200000Y-230600000D02*
X250350000Y-229450000D01*
X204300000Y-142600000D02*
X206200000Y-142600000D01*
X232000000Y-81950000D02*
X237850000Y-81950000D01*
X205100000Y-65300000D02*
X197000000Y-57200000D01*
X251100000Y-141300000D02*
X243000000Y-133200000D01*
X258500000Y-64450000D02*
X257650000Y-65300000D01*
X212500000Y-140450000D02*
X211650000Y-141300000D01*
X232000000Y-157950000D02*
X237850000Y-157950000D01*
X206100000Y-217300000D02*
X205100000Y-217300000D01*
X196400000Y-235350000D02*
X189850000Y-235350000D01*
X212500000Y-64450000D02*
X211650000Y-65300000D01*
X196250000Y-134550000D02*
X204300000Y-142600000D01*
X242400000Y-235350000D02*
X235850000Y-235350000D01*
X243100000Y-84700000D02*
X246100000Y-81700000D01*
X211650000Y-217300000D02*
X206100000Y-217300000D01*
X235350000Y-158850000D02*
X231900000Y-158850000D01*
X242250000Y-210550000D02*
X250300000Y-218600000D01*
X193700000Y-84700000D02*
X197100000Y-84700000D01*
X186000000Y-233950000D02*
X191850000Y-233950000D01*
X248250000Y-150850000D02*
X248250000Y-150650000D01*
X253350000Y-77450000D02*
X257350000Y-77450000D01*
X252100000Y-141300000D02*
X251100000Y-141300000D01*
X251100000Y-217300000D02*
X243000000Y-209200000D01*
X249200000Y-78600000D02*
X250350000Y-77450000D01*
X204350000Y-153450000D02*
X206150000Y-153450000D01*
X189350000Y-158850000D02*
X185900000Y-158850000D01*
X207350000Y-77450000D02*
X211350000Y-77450000D01*
X249350000Y-228400000D02*
X242400000Y-235350000D01*
X202250000Y-74850000D02*
X202250000Y-74650000D01*
X204350000Y-229450000D02*
X206150000Y-229450000D01*
X203200000Y-230600000D02*
X204350000Y-229450000D01*
X257350000Y-77450000D02*
X257800000Y-77900000D01*
X205100000Y-217300000D02*
X197000000Y-209200000D01*
X241400000Y-59800000D02*
X238900000Y-59800000D01*
X195100000Y-82000000D02*
X202250000Y-74850000D01*
X212500000Y-216450000D02*
X211650000Y-217300000D01*
X195400000Y-59800000D02*
X192900000Y-59800000D01*
X235350000Y-234850000D02*
X231900000Y-234850000D01*
X252100000Y-65300000D02*
X251100000Y-65300000D01*
X189350000Y-234850000D02*
X185900000Y-234850000D01*
X189850000Y-83350000D02*
X189350000Y-82850000D01*
X243100000Y-236700000D02*
X246100000Y-233700000D01*
X252150000Y-229450000D02*
X253300000Y-229450000D01*
X241100000Y-158000000D02*
X248250000Y-150850000D01*
X252150000Y-77450000D02*
X253300000Y-77450000D01*
X249350000Y-76400000D02*
X242400000Y-83350000D01*
X250300000Y-218600000D02*
X252200000Y-218600000D01*
X243000000Y-133200000D02*
X233800000Y-133200000D01*
X195100000Y-234000000D02*
X202250000Y-226850000D01*
X190200000Y-160700000D02*
X193700000Y-160700000D01*
X253350000Y-153450000D02*
X257350000Y-153450000D01*
X206150000Y-77450000D02*
X207300000Y-77450000D01*
X200100000Y-233700000D02*
X203200000Y-230600000D01*
X249350000Y-152400000D02*
X242400000Y-159350000D01*
X237800000Y-82000000D02*
X241100000Y-82000000D01*
X252100000Y-217300000D02*
X251100000Y-217300000D01*
D11*
%TO.C,REF\u002A\u002A*%
X106000000Y-56313000D03*
%TD*%
%TO.C,REF\u002A\u002A*%
X192249001Y-181000000D03*
%TD*%
%TO.C,REF\u002A\u002A*%
X37000000Y-183000000D03*
%TD*%
%TO.C,REF\u002A\u002A*%
X259000000Y-107000000D03*
%TD*%
%TO.C,REF\u002A\u002A*%
X215000000Y-183000000D03*
%TD*%
D12*
%TO.C,H1001*%
X189000000Y-207400000D03*
X187302944Y-206697056D03*
X190697056Y-206697056D03*
X186600000Y-205000000D03*
D13*
X189000000Y-205000000D03*
D12*
X191400000Y-205000000D03*
X187302944Y-203302944D03*
X190697056Y-203302944D03*
X189000000Y-202600000D03*
%TD*%
D11*
%TO.C,REF\u002A\u002A*%
X37000000Y-224750999D03*
%TD*%
%TO.C,REF\u002A\u002A*%
X175000000Y-30000000D03*
%TD*%
%TO.C,REF\u002A\u002A*%
X183062001Y-257000000D03*
%TD*%
%TO.C,REF\u002A\u002A*%
X221000000Y-147875499D03*
%TD*%
%TO.C,REF\u002A\u002A*%
X218200000Y-183000000D03*
%TD*%
%TO.C,REF\u002A\u002A*%
X259000000Y-205437500D03*
%TD*%
D14*
%TO.C,MK1406*%
X184350000Y-218350000D03*
%TD*%
D11*
%TO.C,REF\u002A\u002A*%
X106000000Y-259000000D03*
%TD*%
D14*
%TO.C,MK1403*%
X195600000Y-147000000D03*
%TD*%
D11*
%TO.C,REF\u002A\u002A*%
X219000000Y-107000000D03*
%TD*%
D14*
%TO.C,MK1405*%
X193650000Y-227650000D03*
%TD*%
D11*
%TO.C,REF\u002A\u002A*%
X240000000Y-37000000D03*
%TD*%
%TO.C,REF\u002A\u002A*%
X97000000Y-135000000D03*
%TD*%
%TO.C,REF\u002A\u002A*%
X175000000Y-32500000D03*
%TD*%
%TO.C,REF\u002A\u002A*%
X97000000Y-211916999D03*
%TD*%
%TO.C,REF\u002A\u002A*%
X238249000Y-37000000D03*
%TD*%
%TO.C,REF\u002A\u002A*%
X166000000Y-85687000D03*
%TD*%
%TO.C,REF\u002A\u002A*%
X106000000Y-238562500D03*
%TD*%
%TO.C,REF\u002A\u002A*%
X175000000Y-183000000D03*
%TD*%
%TO.C,REF\u002A\u002A*%
X228186500Y-189000000D03*
%TD*%
%TO.C,REF\u002A\u002A*%
X205813499Y-181000000D03*
%TD*%
%TO.C,REF\u002A\u002A*%
X125049001Y-252999998D03*
%TD*%
%TO.C,REF\u002A\u002A*%
X37000000Y-132312999D03*
%TD*%
%TO.C,REF\u002A\u002A*%
X251813499Y-181000000D03*
%TD*%
%TO.C,REF\u002A\u002A*%
X166000000Y-163437999D03*
%TD*%
%TO.C,REF\u002A\u002A*%
X56966001Y-117000000D03*
%TD*%
%TO.C,REF\u002A\u002A*%
X166000000Y-207437500D03*
%TD*%
%TO.C,REF\u002A\u002A*%
X126883001Y-117000000D03*
%TD*%
%TO.C,REF\u002A\u002A*%
X259000000Y-166313499D03*
%TD*%
%TO.C,REF\u002A\u002A*%
X204062500Y-189000000D03*
%TD*%
%TO.C,REF\u002A\u002A*%
X259000000Y-90313499D03*
%TD*%
%TO.C,REF\u002A\u002A*%
X166000000Y-132312999D03*
%TD*%
%TO.C,REF\u002A\u002A*%
X97000000Y-154916000D03*
%TD*%
%TO.C,REF\u002A\u002A*%
X175000000Y-259833333D03*
%TD*%
%TO.C,REF\u002A\u002A*%
X145316999Y-176999999D03*
%TD*%
D12*
%TO.C,H202*%
X40600000Y-247050000D03*
X41302944Y-245352944D03*
X41302944Y-248747056D03*
X43000000Y-244650000D03*
D13*
X43000000Y-247050000D03*
D12*
X43000000Y-249450000D03*
X44697056Y-245352944D03*
X44697056Y-248747056D03*
X45400000Y-247050000D03*
%TD*%
D11*
%TO.C,REF\u002A\u002A*%
X221000000Y-127686500D03*
%TD*%
%TO.C,REF\u002A\u002A*%
X221000000Y-204562000D03*
%TD*%
%TO.C,REF\u002A\u002A*%
X221000000Y-55188500D03*
%TD*%
%TO.C,REF\u002A\u002A*%
X125966001Y-193000000D03*
%TD*%
%TO.C,REF\u002A\u002A*%
X128717000Y-117000000D03*
%TD*%
%TO.C,REF\u002A\u002A*%
X194875499Y-257000000D03*
%TD*%
%TO.C,REF\u002A\u002A*%
X73566000Y-177000000D03*
%TD*%
%TO.C,REF\u002A\u002A*%
X184813000Y-37000000D03*
%TD*%
%TO.C,REF\u002A\u002A*%
X175000000Y-131188499D03*
%TD*%
%TO.C,REF\u002A\u002A*%
X218200000Y-111000000D03*
%TD*%
%TO.C,REF\u002A\u002A*%
X74483000Y-41000000D03*
%TD*%
%TO.C,REF\u002A\u002A*%
X106000000Y-148750999D03*
%TD*%
%TO.C,REF\u002A\u002A*%
X259000000Y-51686501D03*
%TD*%
%TO.C,REF\u002A\u002A*%
X97000000Y-107800000D03*
%TD*%
D12*
%TO.C,H1002*%
X189000000Y-91400000D03*
X187302944Y-90697056D03*
X190697056Y-90697056D03*
X186600000Y-89000000D03*
D13*
X189000000Y-89000000D03*
D12*
X191400000Y-89000000D03*
X187302944Y-87302944D03*
X190697056Y-87302944D03*
X189000000Y-86600000D03*
%TD*%
D11*
%TO.C,REF\u002A\u002A*%
X250937999Y-113000000D03*
%TD*%
%TO.C,REF\u002A\u002A*%
X166000000Y-262333333D03*
%TD*%
%TO.C,REF\u002A\u002A*%
X259000000Y-204562000D03*
%TD*%
%TO.C,REF\u002A\u002A*%
X219000000Y-107000000D03*
%TD*%
%TO.C,REF\u002A\u002A*%
X60634000Y-177000000D03*
%TD*%
%TO.C,REF\u002A\u002A*%
X61551000Y-193000000D03*
%TD*%
%TO.C,REF\u002A\u002A*%
X215800000Y-107000000D03*
%TD*%
%TO.C,REF\u002A\u002A*%
X97000000Y-262333333D03*
%TD*%
%TO.C,REF\u002A\u002A*%
X175000000Y-109400000D03*
%TD*%
%TO.C,REF\u002A\u002A*%
X175000000Y-87687000D03*
%TD*%
%TO.C,REF\u002A\u002A*%
X182186501Y-105000000D03*
%TD*%
%TO.C,REF\u002A\u002A*%
X175000000Y-187000000D03*
%TD*%
%TO.C,REF\u002A\u002A*%
X175000000Y-239687000D03*
%TD*%
%TO.C,REF\u002A\u002A*%
X37000000Y-71875499D03*
%TD*%
%TO.C,REF\u002A\u002A*%
X146233999Y-41000000D03*
%TD*%
%TO.C,REF\u002A\u002A*%
X213000000Y-222124500D03*
%TD*%
%TO.C,REF\u002A\u002A*%
X175000000Y-88562500D03*
%TD*%
%TO.C,REF\u002A\u002A*%
X142566000Y-252999999D03*
%TD*%
%TO.C,REF\u002A\u002A*%
X229062000Y-105000000D03*
%TD*%
%TO.C,REF\u002A\u002A*%
X37000000Y-205686500D03*
%TD*%
%TO.C,REF\u002A\u002A*%
X73566000Y-253000000D03*
%TD*%
D14*
%TO.C,MK1406*%
X230350000Y-218350000D03*
%TD*%
D11*
%TO.C,REF\u002A\u002A*%
X182186501Y-189000000D03*
%TD*%
%TO.C,REF\u002A\u002A*%
X183062001Y-105000000D03*
%TD*%
%TO.C,REF\u002A\u002A*%
X219000000Y-185400000D03*
%TD*%
%TO.C,REF\u002A\u002A*%
X193124501Y-37000000D03*
%TD*%
%TO.C,REF\u002A\u002A*%
X57883001Y-117000000D03*
%TD*%
%TO.C,REF\u002A\u002A*%
X142566000Y-193000000D03*
%TD*%
%TO.C,REF\u002A\u002A*%
X129634000Y-117000000D03*
%TD*%
%TO.C,REF\u002A\u002A*%
X129634000Y-252999999D03*
%TD*%
%TO.C,REF\u002A\u002A*%
X193124501Y-257000000D03*
%TD*%
%TO.C,REF\u002A\u002A*%
X240000000Y-189000000D03*
%TD*%
%TO.C,REF\u002A\u002A*%
X213000000Y-52562001D03*
%TD*%
%TO.C,REF\u002A\u002A*%
X175000000Y-162811500D03*
%TD*%
%TO.C,REF\u002A\u002A*%
X166000000Y-111000000D03*
%TD*%
%TO.C,REF\u002A\u002A*%
X37000000Y-72750999D03*
%TD*%
%TO.C,REF\u002A\u002A*%
X166000000Y-164313499D03*
%TD*%
%TO.C,REF\u002A\u002A*%
X215800000Y-37000000D03*
%TD*%
%TO.C,REF\u002A\u002A*%
X248311500Y-181000000D03*
%TD*%
%TO.C,REF\u002A\u002A*%
X97000000Y-264000000D03*
%TD*%
%TO.C,REF\u002A\u002A*%
X213000000Y-128562000D03*
%TD*%
%TO.C,REF\u002A\u002A*%
X183937500Y-181000000D03*
%TD*%
%TO.C,REF\u002A\u002A*%
X59717000Y-177000000D03*
%TD*%
%TO.C,REF\u002A\u002A*%
X240000000Y-181000000D03*
%TD*%
%TO.C,REF\u002A\u002A*%
X97000000Y-263166666D03*
%TD*%
%TO.C,REF\u002A\u002A*%
X230812999Y-257000000D03*
%TD*%
%TO.C,REF\u002A\u002A*%
X239124500Y-105000000D03*
%TD*%
%TO.C,REF\u002A\u002A*%
X125966001Y-41000000D03*
%TD*%
%TO.C,REF\u002A\u002A*%
X175000000Y-70124501D03*
%TD*%
%TO.C,REF\u002A\u002A*%
X145316999Y-100999999D03*
%TD*%
%TO.C,REF\u002A\u002A*%
X97000000Y-35000000D03*
%TD*%
%TO.C,REF\u002A\u002A*%
X75400000Y-193000000D03*
%TD*%
%TO.C,REF\u002A\u002A*%
X76316999Y-253000000D03*
%TD*%
%TO.C,REF\u002A\u002A*%
X76316999Y-117000000D03*
%TD*%
%TO.C,REF\u002A\u002A*%
X127800000Y-117000000D03*
%TD*%
%TO.C,REF\u002A\u002A*%
X239124500Y-37000000D03*
%TD*%
%TO.C,REF\u002A\u002A*%
X97000000Y-30833334D03*
%TD*%
%TO.C,REF\u002A\u002A*%
X146233999Y-176999999D03*
%TD*%
%TO.C,REF\u002A\u002A*%
X129634000Y-41000000D03*
%TD*%
%TO.C,REF\u002A\u002A*%
X216600000Y-111000000D03*
%TD*%
%TO.C,REF\u002A\u002A*%
X166000000Y-129686500D03*
%TD*%
%TO.C,REF\u002A\u002A*%
X125966001Y-252999999D03*
%TD*%
D14*
%TO.C,MK1407*%
X230350000Y-151650000D03*
%TD*%
D15*
%TO.C,J303*%
X109000000Y-65425000D03*
D16*
X109000000Y-67965000D03*
X109000000Y-70505000D03*
X109000000Y-73045000D03*
X109000000Y-75585000D03*
%TD*%
D11*
%TO.C,REF\u002A\u002A*%
X97000000Y-209166000D03*
%TD*%
%TO.C,REF\u002A\u002A*%
X259000000Y-72750999D03*
%TD*%
%TO.C,REF\u002A\u002A*%
X74483000Y-117000000D03*
%TD*%
%TO.C,REF\u002A\u002A*%
X175000000Y-69249001D03*
%TD*%
%TO.C,REF\u002A\u002A*%
X147150999Y-193000000D03*
%TD*%
%TO.C,REF\u002A\u002A*%
X259000000Y-34166667D03*
%TD*%
%TO.C,REF\u002A\u002A*%
X175000000Y-86811500D03*
%TD*%
%TO.C,REF\u002A\u002A*%
X248311500Y-189000000D03*
%TD*%
%TO.C,REF\u002A\u002A*%
X37000000Y-238500000D03*
%TD*%
%TO.C,REF\u002A\u002A*%
X250937999Y-37000000D03*
%TD*%
D12*
%TO.C,H1002*%
X189000000Y-243400000D03*
X187302944Y-242697056D03*
X190697056Y-242697056D03*
X186600000Y-241000000D03*
D13*
X189000000Y-241000000D03*
D12*
X191400000Y-241000000D03*
X187302944Y-239302944D03*
X190697056Y-239302944D03*
X189000000Y-238600000D03*
%TD*%
D11*
%TO.C,REF\u002A\u002A*%
X166000000Y-183000000D03*
%TD*%
%TO.C,REF\u002A\u002A*%
X215000000Y-257000000D03*
%TD*%
%TO.C,REF\u002A\u002A*%
X215000000Y-111000000D03*
%TD*%
%TO.C,REF\u002A\u002A*%
X195750999Y-37000000D03*
%TD*%
D15*
%TO.C,J303*%
X109000000Y-217425000D03*
D16*
X109000000Y-219965000D03*
X109000000Y-222505000D03*
X109000000Y-225045000D03*
X109000000Y-227585000D03*
%TD*%
D11*
%TO.C,REF\u002A\u002A*%
X58800000Y-193000000D03*
%TD*%
%TO.C,REF\u002A\u002A*%
X127800000Y-41000000D03*
%TD*%
%TO.C,REF\u002A\u002A*%
X183062001Y-181000000D03*
%TD*%
%TO.C,REF\u002A\u002A*%
X175000000Y-165437999D03*
%TD*%
%TO.C,REF\u002A\u002A*%
X37000000Y-70124501D03*
%TD*%
%TO.C,REF\u002A\u002A*%
X231688499Y-257000000D03*
%TD*%
%TO.C,REF\u002A\u002A*%
X218200000Y-107000000D03*
%TD*%
%TO.C,REF\u002A\u002A*%
X166000000Y-162562500D03*
%TD*%
%TO.C,REF\u002A\u002A*%
X203187000Y-189000000D03*
%TD*%
%TO.C,REF\u002A\u002A*%
X129634000Y-100999999D03*
%TD*%
%TO.C,REF\u002A\u002A*%
X215800000Y-257000000D03*
%TD*%
%TO.C,REF\u002A\u002A*%
X59717000Y-41000000D03*
%TD*%
%TO.C,REF\u002A\u002A*%
X97000000Y-157666999D03*
%TD*%
%TO.C,REF\u002A\u002A*%
X37000000Y-262333333D03*
%TD*%
%TO.C,REF\u002A\u002A*%
X175000000Y-55188500D03*
%TD*%
%TO.C,REF\u002A\u002A*%
X241750999Y-37000000D03*
%TD*%
%TO.C,REF\u002A\u002A*%
X97000000Y-156750000D03*
%TD*%
D14*
%TO.C,MK1407*%
X230350000Y-75650000D03*
%TD*%
D11*
%TO.C,REF\u002A\u002A*%
X106000000Y-69249001D03*
%TD*%
%TO.C,REF\u002A\u002A*%
X130551000Y-252999999D03*
%TD*%
%TO.C,REF\u002A\u002A*%
X56049001Y-253000000D03*
%TD*%
%TO.C,REF\u002A\u002A*%
X219000000Y-108600000D03*
%TD*%
%TO.C,REF\u002A\u002A*%
X141649000Y-41000000D03*
%TD*%
%TO.C,REF\u002A\u002A*%
X37000000Y-88250999D03*
%TD*%
D14*
%TO.C,MK1403*%
X195600000Y-71000000D03*
%TD*%
D11*
%TO.C,REF\u002A\u002A*%
X58800000Y-101000000D03*
%TD*%
%TO.C,REF\u002A\u002A*%
X221000000Y-128562000D03*
%TD*%
%TO.C,REF\u002A\u002A*%
X106000000Y-205686500D03*
%TD*%
%TO.C,REF\u002A\u002A*%
X238249000Y-257000000D03*
%TD*%
%TO.C,REF\u002A\u002A*%
X37000000Y-222124500D03*
%TD*%
%TO.C,REF\u002A\u002A*%
X175000000Y-53437500D03*
%TD*%
%TO.C,REF\u002A\u002A*%
X166000000Y-184600000D03*
%TD*%
%TO.C,REF\u002A\u002A*%
X175000000Y-90313499D03*
%TD*%
%TO.C,REF\u002A\u002A*%
X219000000Y-37000000D03*
%TD*%
%TO.C,REF\u002A\u002A*%
X166000000Y-209188499D03*
%TD*%
D12*
%TO.C,H1002*%
X235000000Y-167400000D03*
X233302944Y-166697056D03*
X236697056Y-166697056D03*
X232600000Y-165000000D03*
D13*
X235000000Y-165000000D03*
D12*
X237400000Y-165000000D03*
X233302944Y-163302944D03*
X236697056Y-163302944D03*
X235000000Y-162600000D03*
%TD*%
D11*
%TO.C,REF\u002A\u002A*%
X37000000Y-206562000D03*
%TD*%
%TO.C,REF\u002A\u002A*%
X97000000Y-211000000D03*
%TD*%
%TO.C,REF\u002A\u002A*%
X259000000Y-107800000D03*
%TD*%
%TO.C,REF\u002A\u002A*%
X175000000Y-186200000D03*
%TD*%
%TO.C,REF\u002A\u002A*%
X126883001Y-193000000D03*
%TD*%
%TO.C,REF\u002A\u002A*%
X182186501Y-37000000D03*
%TD*%
%TO.C,REF\u002A\u002A*%
X60634000Y-117000000D03*
%TD*%
%TO.C,REF\u002A\u002A*%
X37000000Y-259000000D03*
%TD*%
%TO.C,REF\u002A\u002A*%
X259000000Y-148750999D03*
%TD*%
%TO.C,REF\u002A\u002A*%
X144400000Y-252999999D03*
%TD*%
%TO.C,REF\u002A\u002A*%
X166000000Y-259000000D03*
%TD*%
%TO.C,REF\u002A\u002A*%
X213000000Y-70124501D03*
%TD*%
%TO.C,REF\u002A\u002A*%
X143483000Y-176999999D03*
%TD*%
%TO.C,REF\u002A\u002A*%
X215000000Y-107800000D03*
%TD*%
%TO.C,REF\u002A\u002A*%
X97000000Y-81666999D03*
%TD*%
%TO.C,REF\u002A\u002A*%
X166000000Y-260666666D03*
%TD*%
%TO.C,REF\u002A\u002A*%
X61551000Y-253000000D03*
%TD*%
%TO.C,REF\u002A\u002A*%
X204937999Y-105000000D03*
%TD*%
%TO.C,REF\u002A\u002A*%
X175000000Y-148750999D03*
%TD*%
%TO.C,REF\u002A\u002A*%
X97000000Y-233666999D03*
%TD*%
%TO.C,REF\u002A\u002A*%
X241750999Y-181000000D03*
%TD*%
D14*
%TO.C,MK1407*%
X230350000Y-227650000D03*
%TD*%
D11*
%TO.C,REF\u002A\u002A*%
X213000000Y-205437500D03*
%TD*%
%TO.C,REF\u002A\u002A*%
X57883001Y-177000000D03*
%TD*%
%TO.C,REF\u002A\u002A*%
X147150999Y-117000000D03*
%TD*%
D12*
%TO.C,H304*%
X114400000Y-171000000D03*
X113697056Y-172697056D03*
X113697056Y-169302944D03*
X112000000Y-173400000D03*
D13*
X112000000Y-171000000D03*
D12*
X112000000Y-168600000D03*
X110302944Y-172697056D03*
X110302944Y-169302944D03*
X109600000Y-171000000D03*
%TD*%
D11*
%TO.C,REF\u002A\u002A*%
X106000000Y-261500000D03*
%TD*%
%TO.C,REF\u002A\u002A*%
X106000000Y-72750999D03*
%TD*%
%TO.C,REF\u002A\u002A*%
X213000000Y-204562000D03*
%TD*%
%TO.C,REF\u002A\u002A*%
X106000000Y-223875499D03*
%TD*%
%TO.C,REF\u002A\u002A*%
X127800001Y-176999999D03*
%TD*%
%TO.C,REF\u002A\u002A*%
X228186500Y-181000000D03*
%TD*%
%TO.C,REF\u002A\u002A*%
X37000000Y-34166667D03*
%TD*%
%TO.C,REF\u002A\u002A*%
X97000000Y-229999000D03*
%TD*%
%TO.C,REF\u002A\u002A*%
X166000000Y-240313499D03*
%TD*%
%TO.C,REF\u002A\u002A*%
X97000000Y-232750000D03*
%TD*%
%TO.C,REF\u002A\u002A*%
X221000000Y-69249001D03*
%TD*%
%TO.C,REF\u002A\u002A*%
X221000000Y-147000000D03*
%TD*%
%TO.C,REF\u002A\u002A*%
X194000000Y-105000000D03*
%TD*%
%TO.C,REF\u002A\u002A*%
X213000000Y-51686501D03*
%TD*%
%TO.C,REF\u002A\u002A*%
X194875499Y-189000000D03*
%TD*%
D12*
%TO.C,H303*%
X162400000Y-247000000D03*
X161697056Y-248697056D03*
X161697056Y-245302944D03*
X160000000Y-249400000D03*
D13*
X160000000Y-247000000D03*
D12*
X160000000Y-244600000D03*
X158302944Y-248697056D03*
X158302944Y-245302944D03*
X157600000Y-247000000D03*
%TD*%
D11*
%TO.C,REF\u002A\u002A*%
X221000000Y-70124501D03*
%TD*%
%TO.C,REF\u002A\u002A*%
X204062500Y-105000000D03*
%TD*%
%TO.C,REF\u002A\u002A*%
X218200000Y-257000000D03*
%TD*%
%TO.C,REF\u002A\u002A*%
X97000000Y-77999000D03*
%TD*%
%TO.C,REF\u002A\u002A*%
X215000000Y-109400000D03*
%TD*%
%TO.C,REF\u002A\u002A*%
X106000000Y-71875499D03*
%TD*%
%TO.C,REF\u002A\u002A*%
X97000000Y-184600000D03*
%TD*%
D14*
%TO.C,MK1408*%
X239650000Y-66350000D03*
%TD*%
D11*
%TO.C,REF\u002A\u002A*%
X213000000Y-207188499D03*
%TD*%
%TO.C,REF\u002A\u002A*%
X238249000Y-113000000D03*
%TD*%
%TO.C,REF\u002A\u002A*%
X194875499Y-113000000D03*
%TD*%
%TO.C,REF\u002A\u002A*%
X229062000Y-181000000D03*
%TD*%
D14*
%TO.C,MK1407*%
X184350000Y-75650000D03*
%TD*%
D11*
%TO.C,REF\u002A\u002A*%
X250937999Y-181000000D03*
%TD*%
%TO.C,REF\u002A\u002A*%
X195750999Y-257000000D03*
%TD*%
%TO.C,REF\u002A\u002A*%
X56049001Y-117000000D03*
%TD*%
%TO.C,REF\u002A\u002A*%
X37000000Y-183800000D03*
%TD*%
%TO.C,REF\u002A\u002A*%
X175000000Y-184600000D03*
%TD*%
%TO.C,REF\u002A\u002A*%
X259000000Y-260666666D03*
%TD*%
%TO.C,REF\u002A\u002A*%
X219000000Y-111000000D03*
%TD*%
%TO.C,REF\u002A\u002A*%
X141649000Y-193000000D03*
%TD*%
%TO.C,REF\u002A\u002A*%
X97000000Y-107000000D03*
%TD*%
%TO.C,REF\u002A\u002A*%
X185688500Y-181000000D03*
%TD*%
%TO.C,REF\u002A\u002A*%
X78150999Y-41000000D03*
%TD*%
%TO.C,REF\u002A\u002A*%
X175000000Y-263166666D03*
%TD*%
%TO.C,REF\u002A\u002A*%
X215000000Y-107000000D03*
%TD*%
%TO.C,REF\u002A\u002A*%
X37000000Y-186200000D03*
%TD*%
%TO.C,REF\u002A\u002A*%
X195750999Y-189000000D03*
%TD*%
%TO.C,REF\u002A\u002A*%
X259000000Y-223875499D03*
%TD*%
%TO.C,REF\u002A\u002A*%
X221000000Y-54313000D03*
%TD*%
%TO.C,REF\u002A\u002A*%
X146233999Y-100999999D03*
%TD*%
%TO.C,REF\u002A\u002A*%
X259000000Y-69249001D03*
%TD*%
%TO.C,REF\u002A\u002A*%
X192249001Y-37000000D03*
%TD*%
%TO.C,REF\u002A\u002A*%
X97000000Y-33333334D03*
%TD*%
%TO.C,REF\u002A\u002A*%
X175000000Y-204562000D03*
%TD*%
%TO.C,REF\u002A\u002A*%
X164000000Y-221249000D03*
%TD*%
%TO.C,REF\u002A\u002A*%
X97000000Y-213750999D03*
%TD*%
D14*
%TO.C,MK1404*%
X182400000Y-223000000D03*
%TD*%
D11*
%TO.C,REF\u002A\u002A*%
X128717000Y-176999999D03*
%TD*%
%TO.C,REF\u002A\u002A*%
X106000000Y-236811500D03*
%TD*%
%TO.C,REF\u002A\u002A*%
X219000000Y-109400000D03*
%TD*%
D14*
%TO.C,MK1404*%
X228400000Y-223000000D03*
%TD*%
D11*
%TO.C,REF\u002A\u002A*%
X221000000Y-71875499D03*
%TD*%
%TO.C,REF\u002A\u002A*%
X97000000Y-32500000D03*
%TD*%
%TO.C,REF\u002A\u002A*%
X126883001Y-100999999D03*
%TD*%
%TO.C,REF\u002A\u002A*%
X230812999Y-105000000D03*
%TD*%
%TO.C,REF\u002A\u002A*%
X144400000Y-193000000D03*
%TD*%
D14*
%TO.C,MK1408*%
X239650000Y-218350000D03*
%TD*%
D11*
%TO.C,REF\u002A\u002A*%
X125049001Y-193000000D03*
%TD*%
%TO.C,REF\u002A\u002A*%
X97000000Y-79833000D03*
%TD*%
%TO.C,REF\u002A\u002A*%
X175000000Y-223875499D03*
%TD*%
%TO.C,REF\u002A\u002A*%
X240875499Y-105000000D03*
%TD*%
%TO.C,REF\u002A\u002A*%
X58800000Y-177000000D03*
%TD*%
%TO.C,REF\u002A\u002A*%
X166000000Y-160811500D03*
%TD*%
%TO.C,REF\u002A\u002A*%
X221000000Y-162811500D03*
%TD*%
%TO.C,REF\u002A\u002A*%
X213000000Y-71000000D03*
%TD*%
%TO.C,REF\u002A\u002A*%
X72649000Y-177000000D03*
%TD*%
%TO.C,REF\u002A\u002A*%
X215000000Y-110200000D03*
%TD*%
%TO.C,REF\u002A\u002A*%
X166000000Y-88313499D03*
%TD*%
%TO.C,REF\u002A\u002A*%
X175000000Y-33333334D03*
%TD*%
%TO.C,REF\u002A\u002A*%
X221000000Y-239687000D03*
%TD*%
%TO.C,REF\u002A\u002A*%
X202311500Y-257000000D03*
%TD*%
%TO.C,REF\u002A\u002A*%
X175000000Y-34166667D03*
%TD*%
%TO.C,REF\u002A\u002A*%
X205813499Y-105000000D03*
%TD*%
D14*
%TO.C,MK1402*%
X235000000Y-64400000D03*
%TD*%
D11*
%TO.C,REF\u002A\u002A*%
X182186501Y-113000000D03*
%TD*%
%TO.C,REF\u002A\u002A*%
X37000000Y-108600000D03*
%TD*%
%TO.C,REF\u002A\u002A*%
X61551000Y-101000000D03*
%TD*%
%TO.C,REF\u002A\u002A*%
X185688500Y-257000000D03*
%TD*%
%TO.C,REF\u002A\u002A*%
X213000000Y-238811500D03*
%TD*%
%TO.C,REF\u002A\u002A*%
X259000000Y-87687000D03*
%TD*%
D14*
%TO.C,MK1402*%
X189000000Y-64400000D03*
%TD*%
D11*
%TO.C,REF\u002A\u002A*%
X166000000Y-31666667D03*
%TD*%
%TO.C,REF\u002A\u002A*%
X259000000Y-54313000D03*
%TD*%
%TO.C,REF\u002A\u002A*%
X175000000Y-223000000D03*
%TD*%
%TO.C,REF\u002A\u002A*%
X97000000Y-83500999D03*
%TD*%
%TO.C,REF\u002A\u002A*%
X215000000Y-37000000D03*
%TD*%
%TO.C,REF\u002A\u002A*%
X97000000Y-108600000D03*
%TD*%
%TO.C,REF\u002A\u002A*%
X166000000Y-86562500D03*
%TD*%
D14*
%TO.C,MK1404*%
X182400000Y-147000000D03*
%TD*%
D11*
%TO.C,REF\u002A\u002A*%
X203187000Y-37000000D03*
%TD*%
D14*
%TO.C,J206*%
X92000000Y-61950000D03*
D17*
X92000000Y-55950000D03*
D18*
X91275000Y-63270000D03*
X95100000Y-63270000D03*
X91275000Y-54630000D03*
X95100000Y-54630000D03*
%TD*%
D11*
%TO.C,REF\u002A\u002A*%
X221000000Y-164562500D03*
%TD*%
%TO.C,REF\u002A\u002A*%
X239124500Y-181000000D03*
%TD*%
%TO.C,REF\u002A\u002A*%
X37000000Y-185400000D03*
%TD*%
%TO.C,REF\u002A\u002A*%
X97000000Y-59000000D03*
%TD*%
%TO.C,REF\u002A\u002A*%
X106000000Y-240313499D03*
%TD*%
%TO.C,REF\u002A\u002A*%
X97000000Y-186200000D03*
%TD*%
%TO.C,REF\u002A\u002A*%
X37000000Y-85624500D03*
%TD*%
%TO.C,REF\u002A\u002A*%
X37000000Y-147000000D03*
%TD*%
%TO.C,REF\u002A\u002A*%
X221000000Y-205437500D03*
%TD*%
%TO.C,REF\u002A\u002A*%
X166000000Y-133188499D03*
%TD*%
%TO.C,REF\u002A\u002A*%
X259000000Y-131188499D03*
%TD*%
D14*
%TO.C,MK1401*%
X235000000Y-229600000D03*
%TD*%
D11*
%TO.C,REF\u002A\u002A*%
X204937999Y-181000000D03*
%TD*%
%TO.C,REF\u002A\u002A*%
X37000000Y-145249000D03*
%TD*%
%TO.C,REF\u002A\u002A*%
X240875499Y-189000000D03*
%TD*%
%TO.C,REF\u002A\u002A*%
X106000000Y-259833333D03*
%TD*%
%TO.C,REF\u002A\u002A*%
X130551000Y-41000000D03*
%TD*%
%TO.C,REF\u002A\u002A*%
X185688500Y-37000000D03*
%TD*%
%TO.C,REF\u002A\u002A*%
X205813499Y-113000000D03*
%TD*%
%TO.C,REF\u002A\u002A*%
X60634000Y-41000000D03*
%TD*%
%TO.C,REF\u002A\u002A*%
X202311500Y-113000000D03*
%TD*%
%TO.C,REF\u002A\u002A*%
X215000000Y-186200000D03*
%TD*%
%TO.C,REF\u002A\u002A*%
X106000000Y-147000000D03*
%TD*%
%TO.C,REF\u002A\u002A*%
X259000000Y-146124500D03*
%TD*%
%TO.C,REF\u002A\u002A*%
X97000000Y-187000000D03*
%TD*%
%TO.C,REF\u002A\u002A*%
X37000000Y-71000000D03*
%TD*%
%TO.C,REF\u002A\u002A*%
X221000000Y-223000000D03*
%TD*%
D12*
%TO.C,H303*%
X162400000Y-171000000D03*
X161697056Y-172697056D03*
X161697056Y-169302944D03*
X160000000Y-173400000D03*
D13*
X160000000Y-171000000D03*
D12*
X160000000Y-168600000D03*
X158302944Y-172697056D03*
X158302944Y-169302944D03*
X157600000Y-171000000D03*
%TD*%
D11*
%TO.C,REF\u002A\u002A*%
X175000000Y-107800000D03*
%TD*%
%TO.C,REF\u002A\u002A*%
X106000000Y-110200000D03*
%TD*%
%TO.C,REF\u002A\u002A*%
X175000000Y-127686500D03*
%TD*%
%TO.C,REF\u002A\u002A*%
X213000000Y-147875499D03*
%TD*%
%TO.C,REF\u002A\u002A*%
X217400000Y-107000000D03*
%TD*%
%TO.C,REF\u002A\u002A*%
X37000000Y-31666667D03*
%TD*%
%TO.C,REF\u002A\u002A*%
X106000000Y-264000000D03*
%TD*%
%TO.C,REF\u002A\u002A*%
X56049001Y-177000000D03*
%TD*%
%TO.C,REF\u002A\u002A*%
X147150999Y-100999999D03*
%TD*%
%TO.C,REF\u002A\u002A*%
X250062500Y-105000000D03*
%TD*%
%TO.C,REF\u002A\u002A*%
X126883001Y-176999999D03*
%TD*%
%TO.C,REF\u002A\u002A*%
X37000000Y-162500000D03*
%TD*%
%TO.C,REF\u002A\u002A*%
X37000000Y-209188499D03*
%TD*%
%TO.C,REF\u002A\u002A*%
X130551000Y-176999999D03*
%TD*%
%TO.C,REF\u002A\u002A*%
X97000000Y-60834000D03*
%TD*%
%TO.C,REF\u002A\u002A*%
X175000000Y-147000000D03*
%TD*%
D14*
%TO.C,MK1402*%
X235000000Y-216400000D03*
%TD*%
D11*
%TO.C,REF\u002A\u002A*%
X204937999Y-189000000D03*
%TD*%
%TO.C,REF\u002A\u002A*%
X259000000Y-239687000D03*
%TD*%
%TO.C,REF\u002A\u002A*%
X175000000Y-259000000D03*
%TD*%
%TO.C,REF\u002A\u002A*%
X37000000Y-223875499D03*
%TD*%
%TO.C,REF\u002A\u002A*%
X230812999Y-181000000D03*
%TD*%
%TO.C,REF\u002A\u002A*%
X182186501Y-257000000D03*
%TD*%
%TO.C,REF\u002A\u002A*%
X164000000Y-147000000D03*
%TD*%
%TO.C,REF\u002A\u002A*%
X125049001Y-176999998D03*
%TD*%
%TO.C,REF\u002A\u002A*%
X229062000Y-257000000D03*
%TD*%
%TO.C,REF\u002A\u002A*%
X213000000Y-223000000D03*
%TD*%
%TO.C,REF\u002A\u002A*%
X175000000Y-205437500D03*
%TD*%
%TO.C,REF\u002A\u002A*%
X166000000Y-55437500D03*
%TD*%
%TO.C,REF\u002A\u002A*%
X37000000Y-223000000D03*
%TD*%
%TO.C,REF\u002A\u002A*%
X221000000Y-72750999D03*
%TD*%
%TO.C,REF\u002A\u002A*%
X228186500Y-257000000D03*
%TD*%
%TO.C,REF\u002A\u002A*%
X183937500Y-257000000D03*
%TD*%
%TO.C,REF\u002A\u002A*%
X126883001Y-252999999D03*
%TD*%
%TO.C,REF\u002A\u002A*%
X166000000Y-208312999D03*
%TD*%
%TO.C,REF\u002A\u002A*%
X194000000Y-181000000D03*
%TD*%
%TO.C,REF\u002A\u002A*%
X230812999Y-37000000D03*
%TD*%
%TO.C,REF\u002A\u002A*%
X221000000Y-238811500D03*
%TD*%
%TO.C,REF\u002A\u002A*%
X219000000Y-111000000D03*
%TD*%
%TO.C,REF\u002A\u002A*%
X231688499Y-113000000D03*
%TD*%
%TO.C,REF\u002A\u002A*%
X146233999Y-117000000D03*
%TD*%
%TO.C,REF\u002A\u002A*%
X183062001Y-37000000D03*
%TD*%
%TO.C,REF\u002A\u002A*%
X56049001Y-41000000D03*
%TD*%
%TO.C,REF\u002A\u002A*%
X259000000Y-162811500D03*
%TD*%
%TO.C,REF\u002A\u002A*%
X259000000Y-70124501D03*
%TD*%
D14*
%TO.C,MK1401*%
X235000000Y-153600000D03*
%TD*%
D11*
%TO.C,REF\u002A\u002A*%
X129634000Y-193000000D03*
%TD*%
%TO.C,REF\u002A\u002A*%
X106000000Y-107000000D03*
%TD*%
%TO.C,REF\u002A\u002A*%
X175000000Y-240562500D03*
%TD*%
%TO.C,REF\u002A\u002A*%
X166000000Y-107800000D03*
%TD*%
%TO.C,REF\u002A\u002A*%
X259000000Y-242313499D03*
%TD*%
%TO.C,REF\u002A\u002A*%
X259000000Y-30833334D03*
%TD*%
%TO.C,REF\u002A\u002A*%
X213000000Y-223875499D03*
%TD*%
%TO.C,REF\u002A\u002A*%
X175000000Y-206312999D03*
%TD*%
%TO.C,REF\u002A\u002A*%
X259000000Y-145249000D03*
%TD*%
%TO.C,REF\u002A\u002A*%
X219000000Y-183000000D03*
%TD*%
%TO.C,REF\u002A\u002A*%
X231688499Y-105000000D03*
%TD*%
%TO.C,REF\u002A\u002A*%
X78150999Y-253000000D03*
%TD*%
%TO.C,REF\u002A\u002A*%
X219000000Y-184600000D03*
%TD*%
%TO.C,REF\u002A\u002A*%
X202311500Y-181000000D03*
%TD*%
%TO.C,REF\u002A\u002A*%
X192249001Y-105000000D03*
%TD*%
%TO.C,REF\u002A\u002A*%
X183062001Y-189000000D03*
%TD*%
%TO.C,REF\u002A\u002A*%
X106000000Y-71000000D03*
%TD*%
%TO.C,REF\u002A\u002A*%
X106000000Y-70124501D03*
%TD*%
%TO.C,REF\u002A\u002A*%
X106000000Y-86562500D03*
%TD*%
%TO.C,REF\u002A\u002A*%
X59717000Y-193000000D03*
%TD*%
D14*
%TO.C,MK1404*%
X228400000Y-147000000D03*
%TD*%
D11*
%TO.C,REF\u002A\u002A*%
X259000000Y-165437999D03*
%TD*%
%TO.C,REF\u002A\u002A*%
X125966001Y-100999999D03*
%TD*%
%TO.C,REF\u002A\u002A*%
X231688499Y-181000000D03*
%TD*%
%TO.C,REF\u002A\u002A*%
X37000000Y-160749000D03*
%TD*%
%TO.C,REF\u002A\u002A*%
X166000000Y-30833334D03*
%TD*%
%TO.C,REF\u002A\u002A*%
X106000000Y-186200000D03*
%TD*%
%TO.C,REF\u002A\u002A*%
X97000000Y-30000000D03*
%TD*%
%TO.C,REF\u002A\u002A*%
X228186500Y-105000000D03*
%TD*%
%TO.C,REF\u002A\u002A*%
X37000000Y-55437500D03*
%TD*%
%TO.C,REF\u002A\u002A*%
X259000000Y-187000000D03*
%TD*%
%TO.C,REF\u002A\u002A*%
X106000000Y-239437999D03*
%TD*%
%TO.C,REF\u002A\u002A*%
X37000000Y-221249000D03*
%TD*%
%TO.C,REF\u002A\u002A*%
X194875499Y-105000000D03*
%TD*%
%TO.C,REF\u002A\u002A*%
X130551000Y-100999999D03*
%TD*%
D12*
%TO.C,H202*%
X40600000Y-171050000D03*
X41302944Y-169352944D03*
X41302944Y-172747056D03*
X43000000Y-168650000D03*
D13*
X43000000Y-171050000D03*
D12*
X43000000Y-173450000D03*
X44697056Y-169352944D03*
X44697056Y-172747056D03*
X45400000Y-171050000D03*
%TD*%
D11*
%TO.C,REF\u002A\u002A*%
X37000000Y-260666666D03*
%TD*%
%TO.C,REF\u002A\u002A*%
X106000000Y-237687000D03*
%TD*%
%TO.C,REF\u002A\u002A*%
X216600000Y-37000000D03*
%TD*%
%TO.C,REF\u002A\u002A*%
X205813499Y-257000000D03*
%TD*%
%TO.C,REF\u002A\u002A*%
X97000000Y-235500999D03*
%TD*%
%TO.C,REF\u002A\u002A*%
X97000000Y-109400000D03*
%TD*%
%TO.C,REF\u002A\u002A*%
X128717000Y-193000000D03*
%TD*%
%TO.C,REF\u002A\u002A*%
X106000000Y-224750999D03*
%TD*%
D14*
%TO.C,MK1402*%
X189000000Y-216400000D03*
%TD*%
D11*
%TO.C,REF\u002A\u002A*%
X202311500Y-105000000D03*
%TD*%
%TO.C,REF\u002A\u002A*%
X37000000Y-30833334D03*
%TD*%
%TO.C,REF\u002A\u002A*%
X192249001Y-113000000D03*
%TD*%
%TO.C,REF\u002A\u002A*%
X106000000Y-222124500D03*
%TD*%
%TO.C,REF\u002A\u002A*%
X142566000Y-100999999D03*
%TD*%
%TO.C,REF\u002A\u002A*%
X259000000Y-183000000D03*
%TD*%
%TO.C,REF\u002A\u002A*%
X221000000Y-207188499D03*
%TD*%
D14*
%TO.C,MK1403*%
X241600000Y-71000000D03*
%TD*%
D11*
%TO.C,REF\u002A\u002A*%
X193124501Y-189000000D03*
%TD*%
%TO.C,REF\u002A\u002A*%
X175000000Y-72750999D03*
%TD*%
%TO.C,REF\u002A\u002A*%
X213000000Y-127686500D03*
%TD*%
%TO.C,REF\u002A\u002A*%
X221000000Y-221249000D03*
%TD*%
%TO.C,REF\u002A\u002A*%
X125049001Y-100999998D03*
%TD*%
%TO.C,REF\u002A\u002A*%
X73566000Y-101000000D03*
%TD*%
%TO.C,REF\u002A\u002A*%
X240000000Y-113000000D03*
%TD*%
%TO.C,REF\u002A\u002A*%
X221000000Y-163687000D03*
%TD*%
%TO.C,REF\u002A\u002A*%
X175000000Y-31666667D03*
%TD*%
%TO.C,REF\u002A\u002A*%
X183062001Y-113000000D03*
%TD*%
%TO.C,REF\u002A\u002A*%
X213000000Y-71875499D03*
%TD*%
%TO.C,REF\u002A\u002A*%
X221000000Y-146124500D03*
%TD*%
%TO.C,REF\u002A\u002A*%
X175000000Y-260666666D03*
%TD*%
%TO.C,REF\u002A\u002A*%
X184813000Y-181000000D03*
%TD*%
%TO.C,REF\u002A\u002A*%
X215000000Y-183800000D03*
%TD*%
%TO.C,REF\u002A\u002A*%
X195750999Y-181000000D03*
%TD*%
%TO.C,REF\u002A\u002A*%
X175000000Y-185400000D03*
%TD*%
D14*
%TO.C,MK1406*%
X184350000Y-142350000D03*
%TD*%
D11*
%TO.C,REF\u002A\u002A*%
X259000000Y-53437500D03*
%TD*%
%TO.C,REF\u002A\u002A*%
X213000000Y-241437999D03*
%TD*%
%TO.C,REF\u002A\u002A*%
X58800000Y-253000000D03*
%TD*%
%TO.C,REF\u002A\u002A*%
X37000000Y-239375499D03*
%TD*%
%TO.C,REF\u002A\u002A*%
X215000000Y-187000000D03*
%TD*%
%TO.C,REF\u002A\u002A*%
X215000000Y-183000000D03*
%TD*%
D14*
%TO.C,MK1403*%
X241600000Y-223000000D03*
%TD*%
D11*
%TO.C,REF\u002A\u002A*%
X216600000Y-257000000D03*
%TD*%
%TO.C,REF\u002A\u002A*%
X175000000Y-35000000D03*
%TD*%
%TO.C,REF\u002A\u002A*%
X240875499Y-37000000D03*
%TD*%
%TO.C,REF\u002A\u002A*%
X221000000Y-131188499D03*
%TD*%
%TO.C,REF\u002A\u002A*%
X204062500Y-37000000D03*
%TD*%
%TO.C,REF\u002A\u002A*%
X194000000Y-189000000D03*
%TD*%
%TO.C,REF\u002A\u002A*%
X73566000Y-117000000D03*
%TD*%
%TO.C,REF\u002A\u002A*%
X76316999Y-177000000D03*
%TD*%
%TO.C,REF\u002A\u002A*%
X221000000Y-88562500D03*
%TD*%
%TO.C,REF\u002A\u002A*%
X97000000Y-260666666D03*
%TD*%
%TO.C,REF\u002A\u002A*%
X37000000Y-207437500D03*
%TD*%
%TO.C,REF\u002A\u002A*%
X142566000Y-41000000D03*
%TD*%
%TO.C,REF\u002A\u002A*%
X204937999Y-113000000D03*
%TD*%
%TO.C,REF\u002A\u002A*%
X37000000Y-54562001D03*
%TD*%
%TO.C,REF\u002A\u002A*%
X221000000Y-242313499D03*
%TD*%
%TO.C,REF\u002A\u002A*%
X175000000Y-183800000D03*
%TD*%
D14*
%TO.C,MK1402*%
X189000000Y-140400000D03*
%TD*%
D11*
%TO.C,REF\u002A\u002A*%
X97000000Y-137750999D03*
%TD*%
%TO.C,REF\u002A\u002A*%
X144400000Y-41000000D03*
%TD*%
%TO.C,REF\u002A\u002A*%
X73566000Y-41000000D03*
%TD*%
%TO.C,REF\u002A\u002A*%
X58800000Y-117000000D03*
%TD*%
%TO.C,REF\u002A\u002A*%
X37000000Y-187000000D03*
%TD*%
%TO.C,REF\u002A\u002A*%
X145316999Y-193000000D03*
%TD*%
%TO.C,REF\u002A\u002A*%
X216600000Y-183000000D03*
%TD*%
%TO.C,REF\u002A\u002A*%
X230812999Y-113000000D03*
%TD*%
%TO.C,REF\u002A\u002A*%
X97000000Y-153999000D03*
%TD*%
%TO.C,REF\u002A\u002A*%
X205813499Y-37000000D03*
%TD*%
%TO.C,REF\u002A\u002A*%
X184813000Y-105000000D03*
%TD*%
%TO.C,REF\u002A\u002A*%
X175000000Y-241437999D03*
%TD*%
D14*
%TO.C,MK1404*%
X182400000Y-71000000D03*
%TD*%
D11*
%TO.C,REF\u002A\u002A*%
X175000000Y-224750999D03*
%TD*%
%TO.C,REF\u002A\u002A*%
X57883001Y-253000000D03*
%TD*%
%TO.C,REF\u002A\u002A*%
X175000000Y-262333333D03*
%TD*%
%TO.C,REF\u002A\u002A*%
X60634000Y-253000000D03*
%TD*%
%TO.C,REF\u002A\u002A*%
X249187000Y-189000000D03*
%TD*%
%TO.C,REF\u002A\u002A*%
X128717000Y-41000000D03*
%TD*%
%TO.C,REF\u002A\u002A*%
X175000000Y-264000000D03*
%TD*%
%TO.C,REF\u002A\u002A*%
X164000000Y-147875499D03*
%TD*%
%TO.C,REF\u002A\u002A*%
X97000000Y-135916999D03*
%TD*%
%TO.C,REF\u002A\u002A*%
X74483000Y-177000000D03*
%TD*%
%TO.C,REF\u002A\u002A*%
X125966001Y-176999999D03*
%TD*%
D12*
%TO.C,H303*%
X162400000Y-95000000D03*
X161697056Y-96697056D03*
X161697056Y-93302944D03*
X160000000Y-97400000D03*
D13*
X160000000Y-95000000D03*
D12*
X160000000Y-92600000D03*
X158302944Y-96697056D03*
X158302944Y-93302944D03*
X157600000Y-95000000D03*
%TD*%
D11*
%TO.C,REF\u002A\u002A*%
X175000000Y-163687000D03*
%TD*%
%TO.C,REF\u002A\u002A*%
X97000000Y-59917000D03*
%TD*%
%TO.C,REF\u002A\u002A*%
X175000000Y-145249000D03*
%TD*%
%TO.C,REF\u002A\u002A*%
X259000000Y-35000000D03*
%TD*%
%TO.C,REF\u002A\u002A*%
X97000000Y-231833000D03*
%TD*%
%TO.C,REF\u002A\u002A*%
X175000000Y-110200000D03*
%TD*%
%TO.C,REF\u002A\u002A*%
X213000000Y-164562500D03*
%TD*%
%TO.C,REF\u002A\u002A*%
X221000000Y-87687000D03*
%TD*%
%TO.C,REF\u002A\u002A*%
X213000000Y-203686500D03*
%TD*%
%TO.C,REF\u002A\u002A*%
X228186500Y-37000000D03*
%TD*%
%TO.C,REF\u002A\u002A*%
X250062500Y-181000000D03*
%TD*%
%TO.C,REF\u002A\u002A*%
X143483000Y-117000000D03*
%TD*%
%TO.C,REF\u002A\u002A*%
X229937500Y-37000000D03*
%TD*%
%TO.C,REF\u002A\u002A*%
X219000000Y-107800000D03*
%TD*%
D12*
%TO.C,H301*%
X162400000Y-123000000D03*
X161697056Y-124697056D03*
X161697056Y-121302944D03*
X160000000Y-125400000D03*
D13*
X160000000Y-123000000D03*
D12*
X160000000Y-120600000D03*
X158302944Y-124697056D03*
X158302944Y-121302944D03*
X157600000Y-123000000D03*
%TD*%
D11*
%TO.C,REF\u002A\u002A*%
X203187000Y-181000000D03*
%TD*%
%TO.C,REF\u002A\u002A*%
X57883001Y-101000000D03*
%TD*%
%TO.C,REF\u002A\u002A*%
X97000000Y-111000000D03*
%TD*%
%TO.C,REF\u002A\u002A*%
X164000000Y-69249001D03*
%TD*%
%TO.C,REF\u002A\u002A*%
X183937500Y-113000000D03*
%TD*%
%TO.C,REF\u002A\u002A*%
X228186500Y-113000000D03*
%TD*%
%TO.C,REF\u002A\u002A*%
X175000000Y-203686500D03*
%TD*%
%TO.C,REF\u002A\u002A*%
X143483000Y-193000000D03*
%TD*%
%TO.C,REF\u002A\u002A*%
X259000000Y-222124500D03*
%TD*%
%TO.C,REF\u002A\u002A*%
X37000000Y-111000000D03*
%TD*%
%TO.C,REF\u002A\u002A*%
X259000000Y-32500000D03*
%TD*%
%TO.C,REF\u002A\u002A*%
X37000000Y-133188499D03*
%TD*%
%TO.C,REF\u002A\u002A*%
X259000000Y-127686500D03*
%TD*%
%TO.C,REF\u002A\u002A*%
X221000000Y-166313499D03*
%TD*%
%TO.C,REF\u002A\u002A*%
X37000000Y-84749000D03*
%TD*%
%TO.C,REF\u002A\u002A*%
X144400000Y-100999999D03*
%TD*%
%TO.C,REF\u002A\u002A*%
X166000000Y-109400000D03*
%TD*%
D12*
%TO.C,H302*%
X114400000Y-123000000D03*
X113697056Y-124697056D03*
X113697056Y-121302944D03*
X112000000Y-125400000D03*
D13*
X112000000Y-123000000D03*
D12*
X112000000Y-120600000D03*
X110302944Y-124697056D03*
X110302944Y-121302944D03*
X109600000Y-123000000D03*
%TD*%
D11*
%TO.C,REF\u002A\u002A*%
X251813499Y-113000000D03*
%TD*%
D14*
%TO.C,MK1408*%
X193650000Y-142350000D03*
%TD*%
D11*
%TO.C,REF\u002A\u002A*%
X259000000Y-263166666D03*
%TD*%
%TO.C,REF\u002A\u002A*%
X147150999Y-252999999D03*
%TD*%
%TO.C,REF\u002A\u002A*%
X74483000Y-193000000D03*
%TD*%
%TO.C,REF\u002A\u002A*%
X166000000Y-110200000D03*
%TD*%
%TO.C,REF\u002A\u002A*%
X194875499Y-181000000D03*
%TD*%
%TO.C,REF\u002A\u002A*%
X56049001Y-101000000D03*
%TD*%
%TO.C,REF\u002A\u002A*%
X75400000Y-117000000D03*
%TD*%
%TO.C,REF\u002A\u002A*%
X141649000Y-117000000D03*
%TD*%
%TO.C,REF\u002A\u002A*%
X106000000Y-187000000D03*
%TD*%
%TO.C,REF\u002A\u002A*%
X106000000Y-87437999D03*
%TD*%
D14*
%TO.C,J206*%
X92000000Y-213950000D03*
D17*
X92000000Y-207950000D03*
D18*
X91275000Y-215270000D03*
X95100000Y-215270000D03*
X91275000Y-206630000D03*
X95100000Y-206630000D03*
%TD*%
D11*
%TO.C,REF\u002A\u002A*%
X193124501Y-105000000D03*
%TD*%
%TO.C,REF\u002A\u002A*%
X144400000Y-117000000D03*
%TD*%
%TO.C,REF\u002A\u002A*%
X106000000Y-184600000D03*
%TD*%
%TO.C,REF\u002A\u002A*%
X221000000Y-89437999D03*
%TD*%
%TO.C,REF\u002A\u002A*%
X259000000Y-130312999D03*
%TD*%
%TO.C,REF\u002A\u002A*%
X259000000Y-30000000D03*
%TD*%
%TO.C,REF\u002A\u002A*%
X37000000Y-30000000D03*
%TD*%
%TO.C,REF\u002A\u002A*%
X175000000Y-207188499D03*
%TD*%
%TO.C,REF\u002A\u002A*%
X217400000Y-187000000D03*
%TD*%
%TO.C,REF\u002A\u002A*%
X106000000Y-160811500D03*
%TD*%
%TO.C,REF\u002A\u002A*%
X166000000Y-107000000D03*
%TD*%
%TO.C,REF\u002A\u002A*%
X250062500Y-113000000D03*
%TD*%
%TO.C,REF\u002A\u002A*%
X97000000Y-158583999D03*
%TD*%
%TO.C,REF\u002A\u002A*%
X229937500Y-189000000D03*
%TD*%
D14*
%TO.C,MK1401*%
X189000000Y-229600000D03*
%TD*%
D11*
%TO.C,REF\u002A\u002A*%
X259000000Y-238811500D03*
%TD*%
%TO.C,REF\u002A\u002A*%
X218200000Y-37000000D03*
%TD*%
D15*
%TO.C,J303*%
X109000000Y-141425000D03*
D16*
X109000000Y-143965000D03*
X109000000Y-146505000D03*
X109000000Y-149045000D03*
X109000000Y-151585000D03*
%TD*%
D11*
%TO.C,REF\u002A\u002A*%
X166000000Y-54562001D03*
%TD*%
%TO.C,REF\u002A\u002A*%
X213000000Y-131188499D03*
%TD*%
%TO.C,REF\u002A\u002A*%
X106000000Y-35000000D03*
%TD*%
%TO.C,REF\u002A\u002A*%
X259000000Y-128562000D03*
%TD*%
%TO.C,REF\u002A\u002A*%
X251813499Y-189000000D03*
%TD*%
%TO.C,REF\u002A\u002A*%
X142566000Y-117000000D03*
%TD*%
%TO.C,REF\u002A\u002A*%
X241750999Y-257000000D03*
%TD*%
%TO.C,REF\u002A\u002A*%
X106000000Y-111000000D03*
%TD*%
D19*
%TO.C,J203*%
X57000000Y-162200000D03*
D20*
X57000000Y-163470000D03*
X57000000Y-164740000D03*
X57000000Y-166010000D03*
%TD*%
D12*
%TO.C,H1001*%
X235000000Y-207400000D03*
X233302944Y-206697056D03*
X236697056Y-206697056D03*
X232600000Y-205000000D03*
D13*
X235000000Y-205000000D03*
D12*
X237400000Y-205000000D03*
X233302944Y-203302944D03*
X236697056Y-203302944D03*
X235000000Y-202600000D03*
%TD*%
D11*
%TO.C,REF\u002A\u002A*%
X259000000Y-184600000D03*
%TD*%
%TO.C,REF\u002A\u002A*%
X175000000Y-164562500D03*
%TD*%
%TO.C,REF\u002A\u002A*%
X213000000Y-240562500D03*
%TD*%
%TO.C,REF\u002A\u002A*%
X259000000Y-89437999D03*
%TD*%
%TO.C,REF\u002A\u002A*%
X203187000Y-105000000D03*
%TD*%
%TO.C,REF\u002A\u002A*%
X72649000Y-253000000D03*
%TD*%
%TO.C,REF\u002A\u002A*%
X219000000Y-186200000D03*
%TD*%
D14*
%TO.C,MK1408*%
X239650000Y-142350000D03*
%TD*%
D12*
%TO.C,H1001*%
X235000000Y-131400000D03*
X233302944Y-130697056D03*
X236697056Y-130697056D03*
X232600000Y-129000000D03*
D13*
X235000000Y-129000000D03*
D12*
X237400000Y-129000000D03*
X233302944Y-127302944D03*
X236697056Y-127302944D03*
X235000000Y-126600000D03*
%TD*%
D11*
%TO.C,REF\u002A\u002A*%
X97000000Y-155833000D03*
%TD*%
%TO.C,REF\u002A\u002A*%
X241750999Y-189000000D03*
%TD*%
%TO.C,REF\u002A\u002A*%
X76316999Y-101000000D03*
%TD*%
%TO.C,REF\u002A\u002A*%
X37000000Y-107800000D03*
%TD*%
%TO.C,REF\u002A\u002A*%
X202311500Y-37000000D03*
%TD*%
%TO.C,REF\u002A\u002A*%
X217400000Y-111000000D03*
%TD*%
%TO.C,REF\u002A\u002A*%
X215800000Y-187000000D03*
%TD*%
D12*
%TO.C,H1001*%
X235000000Y-55400000D03*
X233302944Y-54697056D03*
X236697056Y-54697056D03*
X232600000Y-53000000D03*
D13*
X235000000Y-53000000D03*
D12*
X237400000Y-53000000D03*
X233302944Y-51302944D03*
X236697056Y-51302944D03*
X235000000Y-50600000D03*
%TD*%
%TO.C,H201*%
X88600000Y-123050000D03*
X89302944Y-121352944D03*
X89302944Y-124747056D03*
X91000000Y-120650000D03*
D13*
X91000000Y-123050000D03*
D12*
X91000000Y-125450000D03*
X92697056Y-121352944D03*
X92697056Y-124747056D03*
X93400000Y-123050000D03*
%TD*%
D11*
%TO.C,REF\u002A\u002A*%
X215000000Y-184600000D03*
%TD*%
%TO.C,REF\u002A\u002A*%
X175000000Y-261500000D03*
%TD*%
%TO.C,REF\u002A\u002A*%
X221000000Y-224750999D03*
%TD*%
%TO.C,REF\u002A\u002A*%
X213000000Y-72750999D03*
%TD*%
%TO.C,REF\u002A\u002A*%
X213000000Y-53437500D03*
%TD*%
%TO.C,REF\u002A\u002A*%
X229062000Y-189000000D03*
%TD*%
%TO.C,REF\u002A\u002A*%
X238249000Y-181000000D03*
%TD*%
%TO.C,REF\u002A\u002A*%
X193124501Y-181000000D03*
%TD*%
%TO.C,REF\u002A\u002A*%
X249187000Y-37000000D03*
%TD*%
%TO.C,REF\u002A\u002A*%
X125966001Y-117000000D03*
%TD*%
%TO.C,REF\u002A\u002A*%
X259000000Y-241437999D03*
%TD*%
%TO.C,REF\u002A\u002A*%
X240875499Y-181000000D03*
%TD*%
%TO.C,REF\u002A\u002A*%
X106000000Y-84811500D03*
%TD*%
%TO.C,REF\u002A\u002A*%
X175000000Y-51686501D03*
%TD*%
%TO.C,REF\u002A\u002A*%
X193124501Y-113000000D03*
%TD*%
%TO.C,REF\u002A\u002A*%
X106000000Y-209188499D03*
%TD*%
%TO.C,REF\u002A\u002A*%
X239124500Y-189000000D03*
%TD*%
%TO.C,REF\u002A\u002A*%
X175000000Y-111000000D03*
%TD*%
%TO.C,REF\u002A\u002A*%
X259000000Y-163687000D03*
%TD*%
%TO.C,REF\u002A\u002A*%
X213000000Y-88562500D03*
%TD*%
%TO.C,REF\u002A\u002A*%
X125049001Y-41000000D03*
%TD*%
%TO.C,REF\u002A\u002A*%
X213000000Y-224750999D03*
%TD*%
%TO.C,REF\u002A\u002A*%
X219000000Y-187000000D03*
%TD*%
%TO.C,REF\u002A\u002A*%
X166000000Y-264000000D03*
%TD*%
%TO.C,REF\u002A\u002A*%
X221000000Y-203686500D03*
%TD*%
%TO.C,REF\u002A\u002A*%
X259000000Y-86811500D03*
%TD*%
%TO.C,REF\u002A\u002A*%
X194000000Y-113000000D03*
%TD*%
D14*
%TO.C,MK1405*%
X193650000Y-151650000D03*
%TD*%
D11*
%TO.C,REF\u002A\u002A*%
X204062500Y-181000000D03*
%TD*%
%TO.C,REF\u002A\u002A*%
X259000000Y-207188499D03*
%TD*%
%TO.C,REF\u002A\u002A*%
X145316999Y-252999999D03*
%TD*%
%TO.C,REF\u002A\u002A*%
X259000000Y-264000000D03*
%TD*%
D14*
%TO.C,MK1401*%
X235000000Y-77600000D03*
%TD*%
D11*
%TO.C,REF\u002A\u002A*%
X241750999Y-113000000D03*
%TD*%
%TO.C,REF\u002A\u002A*%
X250062500Y-257000000D03*
%TD*%
%TO.C,REF\u002A\u002A*%
X229937500Y-113000000D03*
%TD*%
%TO.C,REF\u002A\u002A*%
X213000000Y-166313499D03*
%TD*%
%TO.C,REF\u002A\u002A*%
X164000000Y-222124500D03*
%TD*%
%TO.C,REF\u002A\u002A*%
X106000000Y-34166667D03*
%TD*%
%TO.C,REF\u002A\u002A*%
X217400000Y-37000000D03*
%TD*%
%TO.C,REF\u002A\u002A*%
X213000000Y-129437500D03*
%TD*%
%TO.C,REF\u002A\u002A*%
X229937500Y-181000000D03*
%TD*%
%TO.C,REF\u002A\u002A*%
X213000000Y-87687000D03*
%TD*%
%TO.C,REF\u002A\u002A*%
X184813000Y-189000000D03*
%TD*%
%TO.C,REF\u002A\u002A*%
X219000000Y-257000000D03*
%TD*%
%TO.C,REF\u002A\u002A*%
X213000000Y-242313499D03*
%TD*%
%TO.C,REF\u002A\u002A*%
X229937500Y-105000000D03*
%TD*%
%TO.C,REF\u002A\u002A*%
X192249001Y-189000000D03*
%TD*%
%TO.C,REF\u002A\u002A*%
X106000000Y-162562500D03*
%TD*%
%TO.C,REF\u002A\u002A*%
X240875499Y-257000000D03*
%TD*%
%TO.C,REF\u002A\u002A*%
X97000000Y-212833999D03*
%TD*%
%TO.C,REF\u002A\u002A*%
X106000000Y-30000000D03*
%TD*%
%TO.C,REF\u002A\u002A*%
X106000000Y-145249000D03*
%TD*%
%TO.C,REF\u002A\u002A*%
X106000000Y-223000000D03*
%TD*%
%TO.C,REF\u002A\u002A*%
X56966001Y-41000000D03*
%TD*%
%TO.C,REF\u002A\u002A*%
X72649000Y-117000000D03*
%TD*%
D12*
%TO.C,H1002*%
X235000000Y-91400000D03*
X233302944Y-90697056D03*
X236697056Y-90697056D03*
X232600000Y-89000000D03*
D13*
X235000000Y-89000000D03*
D12*
X237400000Y-89000000D03*
X233302944Y-87302944D03*
X236697056Y-87302944D03*
X235000000Y-86600000D03*
%TD*%
D11*
%TO.C,REF\u002A\u002A*%
X75400000Y-177000000D03*
%TD*%
%TO.C,REF\u002A\u002A*%
X127800001Y-100999999D03*
%TD*%
%TO.C,REF\u002A\u002A*%
X78150999Y-101000000D03*
%TD*%
%TO.C,REF\u002A\u002A*%
X75400000Y-41000000D03*
%TD*%
%TO.C,REF\u002A\u002A*%
X145316999Y-117000000D03*
%TD*%
%TO.C,REF\u002A\u002A*%
X97000000Y-185400000D03*
%TD*%
%TO.C,REF\u002A\u002A*%
X221000000Y-53437500D03*
%TD*%
%TO.C,REF\u002A\u002A*%
X192249001Y-257000000D03*
%TD*%
%TO.C,REF\u002A\u002A*%
X56049001Y-193000000D03*
%TD*%
%TO.C,REF\u002A\u002A*%
X166000000Y-239437999D03*
%TD*%
%TO.C,REF\u002A\u002A*%
X166000000Y-205686500D03*
%TD*%
%TO.C,REF\u002A\u002A*%
X195750999Y-113000000D03*
%TD*%
%TO.C,REF\u002A\u002A*%
X74483000Y-101000000D03*
%TD*%
%TO.C,REF\u002A\u002A*%
X194000000Y-257000000D03*
%TD*%
%TO.C,REF\u002A\u002A*%
X259000000Y-147875499D03*
%TD*%
%TO.C,REF\u002A\u002A*%
X37000000Y-146124500D03*
%TD*%
%TO.C,REF\u002A\u002A*%
X97000000Y-80750000D03*
%TD*%
%TO.C,REF\u002A\u002A*%
X106000000Y-263166666D03*
%TD*%
D12*
%TO.C,H302*%
X114400000Y-47000000D03*
X113697056Y-48697056D03*
X113697056Y-45302944D03*
X112000000Y-49400000D03*
D13*
X112000000Y-47000000D03*
D12*
X112000000Y-44600000D03*
X110302944Y-48697056D03*
X110302944Y-45302944D03*
X109600000Y-47000000D03*
%TD*%
D11*
%TO.C,REF\u002A\u002A*%
X221000000Y-51686501D03*
%TD*%
%TO.C,REF\u002A\u002A*%
X249187000Y-113000000D03*
%TD*%
%TO.C,REF\u002A\u002A*%
X259000000Y-186200000D03*
%TD*%
%TO.C,REF\u002A\u002A*%
X248311500Y-37000000D03*
%TD*%
%TO.C,REF\u002A\u002A*%
X97000000Y-210083000D03*
%TD*%
D14*
%TO.C,MK1408*%
X193650000Y-218350000D03*
%TD*%
D11*
%TO.C,REF\u002A\u002A*%
X259000000Y-147000000D03*
%TD*%
%TO.C,REF\u002A\u002A*%
X97000000Y-56249001D03*
%TD*%
%TO.C,REF\u002A\u002A*%
X77233999Y-41000000D03*
%TD*%
%TO.C,REF\u002A\u002A*%
X75400000Y-101000000D03*
%TD*%
%TO.C,REF\u002A\u002A*%
X250937999Y-189000000D03*
%TD*%
%TO.C,REF\u002A\u002A*%
X164000000Y-71875499D03*
%TD*%
%TO.C,REF\u002A\u002A*%
X221000000Y-240562500D03*
%TD*%
%TO.C,REF\u002A\u002A*%
X125049001Y-117000000D03*
%TD*%
%TO.C,REF\u002A\u002A*%
X106000000Y-88313499D03*
%TD*%
%TO.C,REF\u002A\u002A*%
X37000000Y-86500000D03*
%TD*%
%TO.C,REF\u002A\u002A*%
X213000000Y-163687000D03*
%TD*%
%TO.C,REF\u002A\u002A*%
X56966001Y-101000000D03*
%TD*%
%TO.C,REF\u002A\u002A*%
X259000000Y-111000000D03*
%TD*%
%TO.C,REF\u002A\u002A*%
X97000000Y-58083001D03*
%TD*%
%TO.C,REF\u002A\u002A*%
X213000000Y-86811500D03*
%TD*%
%TO.C,REF\u002A\u002A*%
X147150999Y-176999999D03*
%TD*%
%TO.C,REF\u002A\u002A*%
X97000000Y-134083000D03*
%TD*%
D14*
%TO.C,MK1407*%
X184350000Y-227650000D03*
%TD*%
D11*
%TO.C,REF\u002A\u002A*%
X166000000Y-130562000D03*
%TD*%
D14*
%TO.C,MK1403*%
X241600000Y-147000000D03*
%TD*%
D11*
%TO.C,REF\u002A\u002A*%
X166000000Y-34166667D03*
%TD*%
%TO.C,REF\u002A\u002A*%
X221000000Y-129437500D03*
%TD*%
%TO.C,REF\u002A\u002A*%
X203187000Y-257000000D03*
%TD*%
%TO.C,REF\u002A\u002A*%
X97000000Y-208249000D03*
%TD*%
%TO.C,REF\u002A\u002A*%
X97000000Y-110200000D03*
%TD*%
D14*
%TO.C,MK1405*%
X239650000Y-227650000D03*
%TD*%
D11*
%TO.C,REF\u002A\u002A*%
X145316999Y-41000000D03*
%TD*%
%TO.C,REF\u002A\u002A*%
X166000000Y-108600000D03*
%TD*%
%TO.C,REF\u002A\u002A*%
X146233999Y-252999999D03*
%TD*%
%TO.C,REF\u002A\u002A*%
X194875499Y-37000000D03*
%TD*%
%TO.C,REF\u002A\u002A*%
X166000000Y-161687000D03*
%TD*%
%TO.C,REF\u002A\u002A*%
X141649000Y-252999999D03*
%TD*%
D14*
%TO.C,MK1406*%
X230350000Y-66350000D03*
%TD*%
D19*
%TO.C,J203*%
X57000000Y-238200000D03*
D20*
X57000000Y-239470000D03*
X57000000Y-240740000D03*
X57000000Y-242010000D03*
%TD*%
D12*
%TO.C,H1001*%
X189000000Y-131400000D03*
X187302944Y-130697056D03*
X190697056Y-130697056D03*
X186600000Y-129000000D03*
D13*
X189000000Y-129000000D03*
D12*
X191400000Y-129000000D03*
X187302944Y-127302944D03*
X190697056Y-127302944D03*
X189000000Y-126600000D03*
%TD*%
D11*
%TO.C,REF\u002A\u002A*%
X106000000Y-54562001D03*
%TD*%
%TO.C,REF\u002A\u002A*%
X259000000Y-262333333D03*
%TD*%
%TO.C,REF\u002A\u002A*%
X56966001Y-193000000D03*
%TD*%
%TO.C,REF\u002A\u002A*%
X215800000Y-111000000D03*
%TD*%
%TO.C,REF\u002A\u002A*%
X248311500Y-257000000D03*
%TD*%
%TO.C,REF\u002A\u002A*%
X97000000Y-136833999D03*
%TD*%
%TO.C,REF\u002A\u002A*%
X195750999Y-105000000D03*
%TD*%
%TO.C,REF\u002A\u002A*%
X259000000Y-108600000D03*
%TD*%
%TO.C,REF\u002A\u002A*%
X77233999Y-193000000D03*
%TD*%
%TO.C,REF\u002A\u002A*%
X166000000Y-236811500D03*
%TD*%
D14*
%TO.C,MK1402*%
X235000000Y-140400000D03*
%TD*%
D11*
%TO.C,REF\u002A\u002A*%
X37000000Y-53686501D03*
%TD*%
%TO.C,REF\u002A\u002A*%
X166000000Y-263166666D03*
%TD*%
%TO.C,REF\u002A\u002A*%
X37000000Y-263166666D03*
%TD*%
%TO.C,REF\u002A\u002A*%
X221000000Y-86811500D03*
%TD*%
%TO.C,REF\u002A\u002A*%
X164000000Y-223000000D03*
%TD*%
%TO.C,REF\u002A\u002A*%
X216600000Y-187000000D03*
%TD*%
%TO.C,REF\u002A\u002A*%
X213000000Y-148750999D03*
%TD*%
%TO.C,REF\u002A\u002A*%
X202311500Y-189000000D03*
%TD*%
%TO.C,REF\u002A\u002A*%
X175000000Y-128562000D03*
%TD*%
%TO.C,REF\u002A\u002A*%
X106000000Y-183800000D03*
%TD*%
D12*
%TO.C,H201*%
X88600000Y-199050000D03*
X89302944Y-197352944D03*
X89302944Y-200747056D03*
X91000000Y-196650000D03*
D13*
X91000000Y-199050000D03*
D12*
X91000000Y-201450000D03*
X92697056Y-197352944D03*
X92697056Y-200747056D03*
X93400000Y-199050000D03*
%TD*%
D11*
%TO.C,REF\u002A\u002A*%
X204937999Y-37000000D03*
%TD*%
%TO.C,REF\u002A\u002A*%
X213000000Y-165437999D03*
%TD*%
%TO.C,REF\u002A\u002A*%
X221000000Y-148750999D03*
%TD*%
%TO.C,REF\u002A\u002A*%
X166000000Y-183800000D03*
%TD*%
D14*
%TO.C,MK1405*%
X239650000Y-151650000D03*
%TD*%
D11*
%TO.C,REF\u002A\u002A*%
X213000000Y-206312999D03*
%TD*%
D14*
%TO.C,MK1403*%
X195600000Y-223000000D03*
%TD*%
D11*
%TO.C,REF\u002A\u002A*%
X213000000Y-145249000D03*
%TD*%
D19*
%TO.C,J203*%
X57000000Y-86200000D03*
D20*
X57000000Y-87470000D03*
X57000000Y-88740000D03*
X57000000Y-90010000D03*
%TD*%
D11*
%TO.C,REF\u002A\u002A*%
X97000000Y-61751000D03*
%TD*%
%TO.C,REF\u002A\u002A*%
X175000000Y-108600000D03*
%TD*%
%TO.C,REF\u002A\u002A*%
X249187000Y-105000000D03*
%TD*%
%TO.C,REF\u002A\u002A*%
X175000000Y-146124500D03*
%TD*%
%TO.C,REF\u002A\u002A*%
X217400000Y-183000000D03*
%TD*%
D12*
%TO.C,H301*%
X162400000Y-199000000D03*
X161697056Y-200697056D03*
X161697056Y-197302944D03*
X160000000Y-201400000D03*
D13*
X160000000Y-199000000D03*
D12*
X160000000Y-196600000D03*
X158302944Y-200697056D03*
X158302944Y-197302944D03*
X157600000Y-199000000D03*
%TD*%
D11*
%TO.C,REF\u002A\u002A*%
X259000000Y-259000000D03*
%TD*%
%TO.C,REF\u002A\u002A*%
X215000000Y-107000000D03*
%TD*%
%TO.C,REF\u002A\u002A*%
X259000000Y-33333334D03*
%TD*%
%TO.C,REF\u002A\u002A*%
X166000000Y-238562500D03*
%TD*%
D12*
%TO.C,H1001*%
X189000000Y-55400000D03*
X187302944Y-54697056D03*
X190697056Y-54697056D03*
X186600000Y-53000000D03*
D13*
X189000000Y-53000000D03*
D12*
X191400000Y-53000000D03*
X187302944Y-51302944D03*
X190697056Y-51302944D03*
X189000000Y-50600000D03*
%TD*%
D11*
%TO.C,REF\u002A\u002A*%
X183937500Y-105000000D03*
%TD*%
%TO.C,REF\u002A\u002A*%
X76316999Y-193000000D03*
%TD*%
%TO.C,REF\u002A\u002A*%
X249187000Y-181000000D03*
%TD*%
%TO.C,REF\u002A\u002A*%
X78150999Y-193000000D03*
%TD*%
%TO.C,REF\u002A\u002A*%
X175000000Y-54313000D03*
%TD*%
%TO.C,REF\u002A\u002A*%
X106000000Y-146124500D03*
%TD*%
D12*
%TO.C,H304*%
X114400000Y-95000000D03*
X113697056Y-96697056D03*
X113697056Y-93302944D03*
X112000000Y-97400000D03*
D13*
X112000000Y-95000000D03*
D12*
X112000000Y-92600000D03*
X110302944Y-96697056D03*
X110302944Y-93302944D03*
X109600000Y-95000000D03*
%TD*%
D11*
%TO.C,REF\u002A\u002A*%
X59717000Y-101000000D03*
%TD*%
%TO.C,REF\u002A\u002A*%
X259000000Y-240562500D03*
%TD*%
%TO.C,REF\u002A\u002A*%
X106000000Y-109400000D03*
%TD*%
%TO.C,REF\u002A\u002A*%
X97000000Y-133166000D03*
%TD*%
%TO.C,REF\u002A\u002A*%
X37000000Y-163375499D03*
%TD*%
%TO.C,REF\u002A\u002A*%
X221000000Y-130312999D03*
%TD*%
%TO.C,REF\u002A\u002A*%
X259000000Y-110200000D03*
%TD*%
%TO.C,REF\u002A\u002A*%
X106000000Y-206562000D03*
%TD*%
%TO.C,REF\u002A\u002A*%
X259000000Y-129437500D03*
%TD*%
%TO.C,REF\u002A\u002A*%
X37000000Y-184600000D03*
%TD*%
%TO.C,REF\u002A\u002A*%
X75400000Y-253000000D03*
%TD*%
%TO.C,REF\u002A\u002A*%
X166000000Y-206562000D03*
%TD*%
%TO.C,REF\u002A\u002A*%
X166000000Y-261500000D03*
%TD*%
%TO.C,REF\u002A\u002A*%
X97000000Y-234583999D03*
%TD*%
%TO.C,REF\u002A\u002A*%
X37000000Y-87375499D03*
%TD*%
%TO.C,REF\u002A\u002A*%
X203187000Y-113000000D03*
%TD*%
%TO.C,REF\u002A\u002A*%
X166000000Y-187000000D03*
%TD*%
%TO.C,REF\u002A\u002A*%
X259000000Y-109400000D03*
%TD*%
%TO.C,REF\u002A\u002A*%
X97000000Y-183800000D03*
%TD*%
%TO.C,REF\u002A\u002A*%
X229062000Y-113000000D03*
%TD*%
%TO.C,REF\u002A\u002A*%
X97000000Y-259000000D03*
%TD*%
%TO.C,REF\u002A\u002A*%
X259000000Y-261500000D03*
%TD*%
%TO.C,REF\u002A\u002A*%
X106000000Y-208312999D03*
%TD*%
%TO.C,REF\u002A\u002A*%
X164000000Y-223875499D03*
%TD*%
%TO.C,REF\u002A\u002A*%
X97000000Y-57166001D03*
%TD*%
%TO.C,REF\u002A\u002A*%
X37000000Y-259833333D03*
%TD*%
%TO.C,REF\u002A\u002A*%
X106000000Y-260666666D03*
%TD*%
%TO.C,REF\u002A\u002A*%
X175000000Y-147875499D03*
%TD*%
%TO.C,REF\u002A\u002A*%
X130551000Y-193000000D03*
%TD*%
%TO.C,REF\u002A\u002A*%
X106000000Y-207437500D03*
%TD*%
%TO.C,REF\u002A\u002A*%
X78150999Y-177000000D03*
%TD*%
%TO.C,REF\u002A\u002A*%
X128717000Y-100999999D03*
%TD*%
%TO.C,REF\u002A\u002A*%
X204937999Y-257000000D03*
%TD*%
%TO.C,REF\u002A\u002A*%
X164000000Y-148750999D03*
%TD*%
%TO.C,REF\u002A\u002A*%
X130551000Y-117000000D03*
%TD*%
%TO.C,REF\u002A\u002A*%
X184813000Y-113000000D03*
%TD*%
%TO.C,REF\u002A\u002A*%
X72649000Y-41000000D03*
%TD*%
%TO.C,REF\u002A\u002A*%
X97000000Y-259833333D03*
%TD*%
%TO.C,REF\u002A\u002A*%
X175000000Y-129437500D03*
%TD*%
%TO.C,REF\u002A\u002A*%
X142566000Y-176999999D03*
%TD*%
%TO.C,REF\u002A\u002A*%
X57883001Y-41000000D03*
%TD*%
D14*
%TO.C,MK1406*%
X184350000Y-66350000D03*
%TD*%
D11*
%TO.C,REF\u002A\u002A*%
X97000000Y-31666667D03*
%TD*%
%TO.C,REF\u002A\u002A*%
X97000000Y-183000000D03*
%TD*%
%TO.C,REF\u002A\u002A*%
X166000000Y-237687000D03*
%TD*%
%TO.C,REF\u002A\u002A*%
X175000000Y-52562001D03*
%TD*%
%TO.C,REF\u002A\u002A*%
X106000000Y-85687000D03*
%TD*%
%TO.C,REF\u002A\u002A*%
X204062500Y-113000000D03*
%TD*%
%TO.C,REF\u002A\u002A*%
X59717000Y-117000000D03*
%TD*%
D14*
%TO.C,MK1405*%
X193650000Y-75650000D03*
%TD*%
%TO.C,MK1401*%
X189000000Y-153600000D03*
%TD*%
D11*
%TO.C,REF\u002A\u002A*%
X166000000Y-87437999D03*
%TD*%
%TO.C,REF\u002A\u002A*%
X106000000Y-32500000D03*
%TD*%
%TO.C,REF\u002A\u002A*%
X106000000Y-183000000D03*
%TD*%
%TO.C,REF\u002A\u002A*%
X250937999Y-257000000D03*
%TD*%
%TO.C,REF\u002A\u002A*%
X219000000Y-183800000D03*
%TD*%
%TO.C,REF\u002A\u002A*%
X249187000Y-257000000D03*
%TD*%
%TO.C,REF\u002A\u002A*%
X213000000Y-55188500D03*
%TD*%
%TO.C,REF\u002A\u002A*%
X37000000Y-57188500D03*
%TD*%
D14*
%TO.C,J206*%
X92000000Y-137950000D03*
D17*
X92000000Y-131950000D03*
D18*
X91275000Y-139270000D03*
X95100000Y-139270000D03*
X91275000Y-130630000D03*
X95100000Y-130630000D03*
%TD*%
D11*
%TO.C,REF\u002A\u002A*%
X217400000Y-257000000D03*
%TD*%
D12*
%TO.C,H202*%
X40600000Y-95050000D03*
X41302944Y-93352944D03*
X41302944Y-96747056D03*
X43000000Y-92650000D03*
D13*
X43000000Y-95050000D03*
D12*
X43000000Y-97450000D03*
X44697056Y-93352944D03*
X44697056Y-96747056D03*
X45400000Y-95050000D03*
%TD*%
D11*
%TO.C,REF\u002A\u002A*%
X126883001Y-41000000D03*
%TD*%
%TO.C,REF\u002A\u002A*%
X213000000Y-146124500D03*
%TD*%
%TO.C,REF\u002A\u002A*%
X166000000Y-33333334D03*
%TD*%
%TO.C,REF\u002A\u002A*%
X185688500Y-113000000D03*
%TD*%
%TO.C,REF\u002A\u002A*%
X106000000Y-31666667D03*
%TD*%
%TO.C,REF\u002A\u002A*%
X147150999Y-41000000D03*
%TD*%
%TO.C,REF\u002A\u002A*%
X250062500Y-37000000D03*
%TD*%
%TO.C,REF\u002A\u002A*%
X259000000Y-259833333D03*
%TD*%
%TO.C,REF\u002A\u002A*%
X78150999Y-117000000D03*
%TD*%
%TO.C,REF\u002A\u002A*%
X166000000Y-84811500D03*
%TD*%
%TO.C,REF\u002A\u002A*%
X248311500Y-113000000D03*
%TD*%
%TO.C,REF\u002A\u002A*%
X97000000Y-132249000D03*
%TD*%
%TO.C,REF\u002A\u002A*%
X219000000Y-110200000D03*
%TD*%
%TO.C,REF\u002A\u002A*%
X259000000Y-203686500D03*
%TD*%
%TO.C,REF\u002A\u002A*%
X73566000Y-193000000D03*
%TD*%
%TO.C,REF\u002A\u002A*%
X213000000Y-54313000D03*
%TD*%
%TO.C,REF\u002A\u002A*%
X143483000Y-252999999D03*
%TD*%
D12*
%TO.C,H302*%
X114400000Y-199000000D03*
X113697056Y-200697056D03*
X113697056Y-197302944D03*
X112000000Y-201400000D03*
D13*
X112000000Y-199000000D03*
D12*
X112000000Y-196600000D03*
X110302944Y-200697056D03*
X110302944Y-197302944D03*
X109600000Y-199000000D03*
%TD*%
D11*
%TO.C,REF\u002A\u002A*%
X106000000Y-164313499D03*
%TD*%
%TO.C,REF\u002A\u002A*%
X164000000Y-145249000D03*
%TD*%
%TO.C,REF\u002A\u002A*%
X146233999Y-193000000D03*
%TD*%
%TO.C,REF\u002A\u002A*%
X166000000Y-185400000D03*
%TD*%
%TO.C,REF\u002A\u002A*%
X166000000Y-56313000D03*
%TD*%
%TO.C,REF\u002A\u002A*%
X213000000Y-69249001D03*
%TD*%
%TO.C,REF\u002A\u002A*%
X97000000Y-159500999D03*
%TD*%
%TO.C,REF\u002A\u002A*%
X175000000Y-107000000D03*
%TD*%
%TO.C,REF\u002A\u002A*%
X37000000Y-35000000D03*
%TD*%
%TO.C,REF\u002A\u002A*%
X166000000Y-57188500D03*
%TD*%
%TO.C,REF\u002A\u002A*%
X213000000Y-130312999D03*
%TD*%
%TO.C,REF\u002A\u002A*%
X213000000Y-90313499D03*
%TD*%
%TO.C,REF\u002A\u002A*%
X259000000Y-55188500D03*
%TD*%
%TO.C,REF\u002A\u002A*%
X60634000Y-193000000D03*
%TD*%
D12*
%TO.C,H1002*%
X189000000Y-167400000D03*
X187302944Y-166697056D03*
X190697056Y-166697056D03*
X186600000Y-165000000D03*
D13*
X189000000Y-165000000D03*
D12*
X191400000Y-165000000D03*
X187302944Y-163302944D03*
X190697056Y-163302944D03*
X189000000Y-162600000D03*
%TD*%
D11*
%TO.C,REF\u002A\u002A*%
X241750999Y-105000000D03*
%TD*%
%TO.C,REF\u002A\u002A*%
X215000000Y-111000000D03*
%TD*%
%TO.C,REF\u002A\u002A*%
X238249000Y-189000000D03*
%TD*%
%TO.C,REF\u002A\u002A*%
X166000000Y-53686501D03*
%TD*%
%TO.C,REF\u002A\u002A*%
X221000000Y-145249000D03*
%TD*%
%TO.C,REF\u002A\u002A*%
X37000000Y-110200000D03*
%TD*%
%TO.C,REF\u002A\u002A*%
X259000000Y-88562500D03*
%TD*%
%TO.C,REF\u002A\u002A*%
X240000000Y-257000000D03*
%TD*%
%TO.C,REF\u002A\u002A*%
X37000000Y-148750999D03*
%TD*%
%TO.C,REF\u002A\u002A*%
X166000000Y-30000000D03*
%TD*%
%TO.C,REF\u002A\u002A*%
X37000000Y-161624500D03*
%TD*%
%TO.C,REF\u002A\u002A*%
X37000000Y-129686500D03*
%TD*%
%TO.C,REF\u002A\u002A*%
X37000000Y-164250999D03*
%TD*%
%TO.C,REF\u002A\u002A*%
X37000000Y-131437500D03*
%TD*%
D14*
%TO.C,MK1405*%
X239650000Y-75650000D03*
%TD*%
D11*
%TO.C,REF\u002A\u002A*%
X185688500Y-189000000D03*
%TD*%
%TO.C,REF\u002A\u002A*%
X215000000Y-185400000D03*
%TD*%
%TO.C,REF\u002A\u002A*%
X127800001Y-252999999D03*
%TD*%
%TO.C,REF\u002A\u002A*%
X97000000Y-82583999D03*
%TD*%
%TO.C,REF\u002A\u002A*%
X37000000Y-264000000D03*
%TD*%
%TO.C,REF\u002A\u002A*%
X184813000Y-257000000D03*
%TD*%
%TO.C,REF\u002A\u002A*%
X61551000Y-117000000D03*
%TD*%
%TO.C,REF\u002A\u002A*%
X240875499Y-113000000D03*
%TD*%
%TO.C,REF\u002A\u002A*%
X106000000Y-129686500D03*
%TD*%
%TO.C,REF\u002A\u002A*%
X216600000Y-107000000D03*
%TD*%
%TO.C,REF\u002A\u002A*%
X141649000Y-176999999D03*
%TD*%
%TO.C,REF\u002A\u002A*%
X229062000Y-37000000D03*
%TD*%
%TO.C,REF\u002A\u002A*%
X221000000Y-90313499D03*
%TD*%
%TO.C,REF\u002A\u002A*%
X72649000Y-101000000D03*
%TD*%
%TO.C,REF\u002A\u002A*%
X37000000Y-237624500D03*
%TD*%
%TO.C,REF\u002A\u002A*%
X106000000Y-132312999D03*
%TD*%
%TO.C,REF\u002A\u002A*%
X59717000Y-253000000D03*
%TD*%
%TO.C,REF\u002A\u002A*%
X259000000Y-164562500D03*
%TD*%
%TO.C,REF\u002A\u002A*%
X164000000Y-71000000D03*
%TD*%
%TO.C,REF\u002A\u002A*%
X221000000Y-223875499D03*
%TD*%
%TO.C,REF\u002A\u002A*%
X74483000Y-253000000D03*
%TD*%
%TO.C,REF\u002A\u002A*%
X166000000Y-186200000D03*
%TD*%
%TO.C,REF\u002A\u002A*%
X238249000Y-105000000D03*
%TD*%
%TO.C,REF\u002A\u002A*%
X164000000Y-146124500D03*
%TD*%
D14*
%TO.C,MK1408*%
X193650000Y-66350000D03*
%TD*%
D11*
%TO.C,REF\u002A\u002A*%
X219000000Y-183000000D03*
%TD*%
D12*
%TO.C,H301*%
X162400000Y-47000000D03*
X161697056Y-48697056D03*
X161697056Y-45302944D03*
X160000000Y-49400000D03*
D13*
X160000000Y-47000000D03*
D12*
X160000000Y-44600000D03*
X158302944Y-48697056D03*
X158302944Y-45302944D03*
X157600000Y-47000000D03*
%TD*%
D11*
%TO.C,REF\u002A\u002A*%
X259000000Y-224750999D03*
%TD*%
%TO.C,REF\u002A\u002A*%
X213000000Y-221249000D03*
%TD*%
%TO.C,REF\u002A\u002A*%
X204062500Y-257000000D03*
%TD*%
%TO.C,REF\u002A\u002A*%
X37000000Y-208312999D03*
%TD*%
%TO.C,REF\u002A\u002A*%
X215000000Y-187000000D03*
%TD*%
%TO.C,REF\u002A\u002A*%
X106000000Y-161687000D03*
%TD*%
%TO.C,REF\u002A\u002A*%
X166000000Y-131437500D03*
%TD*%
%TO.C,REF\u002A\u002A*%
X76316999Y-41000000D03*
%TD*%
%TO.C,REF\u002A\u002A*%
X175000000Y-242313499D03*
%TD*%
%TO.C,REF\u002A\u002A*%
X106000000Y-108600000D03*
%TD*%
%TO.C,REF\u002A\u002A*%
X37000000Y-147875499D03*
%TD*%
%TO.C,REF\u002A\u002A*%
X259000000Y-31666667D03*
%TD*%
%TO.C,REF\u002A\u002A*%
X182186501Y-181000000D03*
%TD*%
D12*
%TO.C,H201*%
X88600000Y-47050000D03*
X89302944Y-45352944D03*
X89302944Y-48747056D03*
X91000000Y-44650000D03*
D13*
X91000000Y-47050000D03*
D12*
X91000000Y-49450000D03*
X92697056Y-45352944D03*
X92697056Y-48747056D03*
X93400000Y-47050000D03*
%TD*%
D11*
%TO.C,REF\u002A\u002A*%
X230812999Y-189000000D03*
%TD*%
D12*
%TO.C,H1002*%
X235000000Y-243400000D03*
X233302944Y-242697056D03*
X236697056Y-242697056D03*
X232600000Y-241000000D03*
D13*
X235000000Y-241000000D03*
D12*
X237400000Y-241000000D03*
X233302944Y-239302944D03*
X236697056Y-239302944D03*
X235000000Y-238600000D03*
%TD*%
D11*
%TO.C,REF\u002A\u002A*%
X175000000Y-238811500D03*
%TD*%
%TO.C,REF\u002A\u002A*%
X175000000Y-89437999D03*
%TD*%
%TO.C,REF\u002A\u002A*%
X175000000Y-130312999D03*
%TD*%
%TO.C,REF\u002A\u002A*%
X183937500Y-37000000D03*
%TD*%
%TO.C,REF\u002A\u002A*%
X251813499Y-257000000D03*
%TD*%
%TO.C,REF\u002A\u002A*%
X106000000Y-221249000D03*
%TD*%
%TO.C,REF\u002A\u002A*%
X97000000Y-261500000D03*
%TD*%
%TO.C,REF\u002A\u002A*%
X37000000Y-32500000D03*
%TD*%
D12*
%TO.C,H304*%
X114400000Y-247000000D03*
X113697056Y-248697056D03*
X113697056Y-245302944D03*
X112000000Y-249400000D03*
D13*
X112000000Y-247000000D03*
D12*
X112000000Y-244600000D03*
X110302944Y-248697056D03*
X110302944Y-245302944D03*
X109600000Y-247000000D03*
%TD*%
D11*
%TO.C,REF\u002A\u002A*%
X215000000Y-108600000D03*
%TD*%
%TO.C,REF\u002A\u002A*%
X218200000Y-187000000D03*
%TD*%
%TO.C,REF\u002A\u002A*%
X37000000Y-69249001D03*
%TD*%
%TO.C,REF\u002A\u002A*%
X56966001Y-253000000D03*
%TD*%
%TO.C,REF\u002A\u002A*%
X259000000Y-185400000D03*
%TD*%
%TO.C,REF\u002A\u002A*%
X37000000Y-109400000D03*
%TD*%
D14*
%TO.C,MK1404*%
X228400000Y-71000000D03*
%TD*%
D11*
%TO.C,REF\u002A\u002A*%
X97000000Y-78916000D03*
%TD*%
%TO.C,REF\u002A\u002A*%
X144400000Y-176999999D03*
%TD*%
%TO.C,REF\u002A\u002A*%
X221000000Y-71000000D03*
%TD*%
%TO.C,REF\u002A\u002A*%
X106000000Y-185400000D03*
%TD*%
%TO.C,REF\u002A\u002A*%
X213000000Y-147000000D03*
%TD*%
%TO.C,REF\u002A\u002A*%
X164000000Y-72750999D03*
%TD*%
%TO.C,REF\u002A\u002A*%
X72649000Y-193000000D03*
%TD*%
%TO.C,REF\u002A\u002A*%
X239124500Y-257000000D03*
%TD*%
%TO.C,REF\u002A\u002A*%
X106000000Y-131437500D03*
%TD*%
%TO.C,REF\u002A\u002A*%
X221000000Y-52562001D03*
%TD*%
%TO.C,REF\u002A\u002A*%
X106000000Y-130562000D03*
%TD*%
%TO.C,REF\u002A\u002A*%
X143483000Y-41000000D03*
%TD*%
%TO.C,REF\u002A\u002A*%
X37000000Y-130562000D03*
%TD*%
%TO.C,REF\u002A\u002A*%
X97000000Y-230916000D03*
%TD*%
%TO.C,REF\u002A\u002A*%
X37000000Y-240250999D03*
%TD*%
%TO.C,REF\u002A\u002A*%
X106000000Y-133188499D03*
%TD*%
%TO.C,REF\u002A\u002A*%
X97000000Y-34166667D03*
%TD*%
%TO.C,REF\u002A\u002A*%
X215800000Y-183000000D03*
%TD*%
%TO.C,REF\u002A\u002A*%
X259000000Y-206312999D03*
%TD*%
%TO.C,REF\u002A\u002A*%
X129634000Y-176999999D03*
%TD*%
%TO.C,REF\u002A\u002A*%
X77233999Y-177000000D03*
%TD*%
%TO.C,REF\u002A\u002A*%
X128717000Y-252999999D03*
%TD*%
%TO.C,REF\u002A\u002A*%
X106000000Y-262333333D03*
%TD*%
%TO.C,REF\u002A\u002A*%
X175000000Y-71000000D03*
%TD*%
%TO.C,REF\u002A\u002A*%
X194000000Y-37000000D03*
%TD*%
%TO.C,REF\u002A\u002A*%
X213000000Y-162811500D03*
%TD*%
%TO.C,REF\u002A\u002A*%
X231688499Y-189000000D03*
%TD*%
%TO.C,REF\u002A\u002A*%
X221000000Y-222124500D03*
%TD*%
%TO.C,REF\u002A\u002A*%
X37000000Y-236749000D03*
%TD*%
%TO.C,REF\u002A\u002A*%
X37000000Y-107000000D03*
%TD*%
%TO.C,REF\u002A\u002A*%
X106000000Y-107800000D03*
%TD*%
%TO.C,REF\u002A\u002A*%
X175000000Y-221249000D03*
%TD*%
%TO.C,REF\u002A\u002A*%
X175000000Y-30833334D03*
%TD*%
%TO.C,REF\u002A\u002A*%
X143483000Y-100999999D03*
%TD*%
%TO.C,REF\u002A\u002A*%
X213000000Y-239687000D03*
%TD*%
%TO.C,REF\u002A\u002A*%
X166000000Y-259833333D03*
%TD*%
%TO.C,REF\u002A\u002A*%
X141649000Y-100999999D03*
%TD*%
%TO.C,REF\u002A\u002A*%
X60634000Y-101000000D03*
%TD*%
%TO.C,REF\u002A\u002A*%
X259000000Y-71875499D03*
%TD*%
%TO.C,REF\u002A\u002A*%
X239124500Y-113000000D03*
%TD*%
%TO.C,REF\u002A\u002A*%
X221000000Y-206312999D03*
%TD*%
%TO.C,REF\u002A\u002A*%
X106000000Y-147875499D03*
%TD*%
%TO.C,REF\u002A\u002A*%
X213000000Y-89437999D03*
%TD*%
%TO.C,REF\u002A\u002A*%
X106000000Y-55437500D03*
%TD*%
%TO.C,REF\u002A\u002A*%
X221000000Y-241437999D03*
%TD*%
%TO.C,REF\u002A\u002A*%
X259000000Y-52562001D03*
%TD*%
%TO.C,REF\u002A\u002A*%
X259000000Y-183800000D03*
%TD*%
%TO.C,REF\u002A\u002A*%
X183937500Y-189000000D03*
%TD*%
%TO.C,REF\u002A\u002A*%
X221000000Y-165437999D03*
%TD*%
D14*
%TO.C,MK1407*%
X184350000Y-151650000D03*
%TD*%
D11*
%TO.C,REF\u002A\u002A*%
X164000000Y-224750999D03*
%TD*%
D14*
%TO.C,MK1406*%
X230350000Y-142350000D03*
%TD*%
D11*
%TO.C,REF\u002A\u002A*%
X106000000Y-57188500D03*
%TD*%
%TO.C,REF\u002A\u002A*%
X106000000Y-30833334D03*
%TD*%
%TO.C,REF\u002A\u002A*%
X58800000Y-41000000D03*
%TD*%
%TO.C,REF\u002A\u002A*%
X77233999Y-253000000D03*
%TD*%
%TO.C,REF\u002A\u002A*%
X37000000Y-261500000D03*
%TD*%
%TO.C,REF\u002A\u002A*%
X259000000Y-71000000D03*
%TD*%
%TO.C,REF\u002A\u002A*%
X259000000Y-221249000D03*
%TD*%
%TO.C,REF\u002A\u002A*%
X106000000Y-53686501D03*
%TD*%
%TO.C,REF\u002A\u002A*%
X37000000Y-56313000D03*
%TD*%
%TO.C,REF\u002A\u002A*%
X240000000Y-105000000D03*
%TD*%
%TO.C,REF\u002A\u002A*%
X250937999Y-105000000D03*
%TD*%
%TO.C,REF\u002A\u002A*%
X175000000Y-166313499D03*
%TD*%
%TO.C,REF\u002A\u002A*%
X61551000Y-41000000D03*
%TD*%
%TO.C,REF\u002A\u002A*%
X251813499Y-105000000D03*
%TD*%
%TO.C,REF\u002A\u002A*%
X57883001Y-193000000D03*
%TD*%
%TO.C,REF\u002A\u002A*%
X175000000Y-222124500D03*
%TD*%
%TO.C,REF\u002A\u002A*%
X185688500Y-105000000D03*
%TD*%
%TO.C,REF\u002A\u002A*%
X127800000Y-193000000D03*
%TD*%
%TO.C,REF\u002A\u002A*%
X56966001Y-177000000D03*
%TD*%
%TO.C,REF\u002A\u002A*%
X106000000Y-163437999D03*
%TD*%
%TO.C,REF\u002A\u002A*%
X229937500Y-257000000D03*
%TD*%
%TO.C,REF\u002A\u002A*%
X259000000Y-223000000D03*
%TD*%
%TO.C,REF\u002A\u002A*%
X251813499Y-37000000D03*
%TD*%
%TO.C,REF\u002A\u002A*%
X248311500Y-105000000D03*
%TD*%
%TO.C,REF\u002A\u002A*%
X250062500Y-189000000D03*
%TD*%
%TO.C,REF\u002A\u002A*%
X231688499Y-37000000D03*
%TD*%
%TO.C,REF\u002A\u002A*%
X37000000Y-33333334D03*
%TD*%
%TO.C,REF\u002A\u002A*%
X77233999Y-101000000D03*
%TD*%
D14*
%TO.C,MK1401*%
X189000000Y-77600000D03*
%TD*%
D11*
%TO.C,REF\u002A\u002A*%
X164000000Y-70124501D03*
%TD*%
%TO.C,REF\u002A\u002A*%
X205813499Y-189000000D03*
%TD*%
%TO.C,REF\u002A\u002A*%
X61551000Y-177000000D03*
%TD*%
%TO.C,REF\u002A\u002A*%
X106000000Y-33333334D03*
%TD*%
%TO.C,REF\u002A\u002A*%
X219000000Y-187000000D03*
%TD*%
%TO.C,REF\u002A\u002A*%
X166000000Y-32500000D03*
%TD*%
%TO.C,REF\u002A\u002A*%
X77233999Y-117000000D03*
%TD*%
%TO.C,REF\u002A\u002A*%
X175000000Y-71875499D03*
%TD*%
%TO.C,REF\u002A\u002A*%
X166000000Y-35000000D03*
%TD*%
D21*
%TO.C,JP1*%
X156600000Y-146625000D03*
D22*
X155300000Y-146625000D03*
%TD*%
D23*
%TO.C,JP402*%
X78500000Y-196550000D03*
D24*
X78500000Y-197850000D03*
D25*
X78500000Y-199150000D03*
%TD*%
D26*
%TO.C,TP904*%
X88200000Y-118600000D03*
%TD*%
%TO.C,TP904*%
X88200000Y-194600000D03*
%TD*%
D23*
%TO.C,JP1401*%
X68400000Y-82300000D03*
D24*
X68400000Y-83600000D03*
D25*
X68400000Y-84900000D03*
%TD*%
D27*
%TO.C,J202*%
X57480000Y-173740000D03*
D28*
X57480000Y-171200000D03*
D27*
X57480000Y-168660000D03*
X49225000Y-173740000D03*
X49225000Y-168660000D03*
D28*
X47320000Y-172216000D03*
X47320000Y-170184000D03*
D29*
X56210000Y-171835000D03*
X54940000Y-171835000D03*
X53670000Y-171835000D03*
X52400000Y-171835000D03*
X51130000Y-171835000D03*
X49860000Y-171835000D03*
X48590000Y-171835000D03*
X48590000Y-170565000D03*
X49860000Y-170565000D03*
X51130000Y-170565000D03*
X52400000Y-170565000D03*
X53670000Y-170565000D03*
X54940000Y-170565000D03*
X56210000Y-170565000D03*
%TD*%
D26*
%TO.C,TP407*%
X55075000Y-160025000D03*
%TD*%
D30*
%TO.C,BT301*%
X126949033Y-156092211D03*
X145050967Y-137990277D03*
D31*
X136000000Y-147041244D03*
%TD*%
D26*
%TO.C,TP406*%
X55075000Y-162175000D03*
%TD*%
D27*
%TO.C,J202*%
X57480000Y-249740000D03*
D28*
X57480000Y-247200000D03*
D27*
X57480000Y-244660000D03*
X49225000Y-249740000D03*
X49225000Y-244660000D03*
D28*
X47320000Y-248216000D03*
X47320000Y-246184000D03*
D29*
X56210000Y-247835000D03*
X54940000Y-247835000D03*
X53670000Y-247835000D03*
X52400000Y-247835000D03*
X51130000Y-247835000D03*
X49860000Y-247835000D03*
X48590000Y-247835000D03*
X48590000Y-246565000D03*
X49860000Y-246565000D03*
X51130000Y-246565000D03*
X52400000Y-246565000D03*
X53670000Y-246565000D03*
X54940000Y-246565000D03*
X56210000Y-246565000D03*
%TD*%
D23*
%TO.C,JP401*%
X80700000Y-44550000D03*
D24*
X80700000Y-45850000D03*
D25*
X80700000Y-47150000D03*
%TD*%
D26*
%TO.C,TP902*%
X96200000Y-67900000D03*
%TD*%
%TO.C,TP407*%
X55075000Y-84025000D03*
%TD*%
%TO.C,TP407*%
X55075000Y-236025000D03*
%TD*%
D23*
%TO.C,JP1401*%
X68400000Y-158300000D03*
D24*
X68400000Y-159600000D03*
D25*
X68400000Y-160900000D03*
%TD*%
D23*
%TO.C,JP402*%
X78500000Y-44550000D03*
D24*
X78500000Y-45850000D03*
D25*
X78500000Y-47150000D03*
%TD*%
D26*
%TO.C,TP903*%
X79600000Y-232900000D03*
%TD*%
D27*
%TO.C,J202*%
X57480000Y-97740000D03*
D28*
X57480000Y-95200000D03*
D27*
X57480000Y-92660000D03*
X49225000Y-97740000D03*
X49225000Y-92660000D03*
D28*
X47320000Y-96216000D03*
X47320000Y-94184000D03*
D29*
X56210000Y-95835000D03*
X54940000Y-95835000D03*
X53670000Y-95835000D03*
X52400000Y-95835000D03*
X51130000Y-95835000D03*
X49860000Y-95835000D03*
X48590000Y-95835000D03*
X48590000Y-94565000D03*
X49860000Y-94565000D03*
X51130000Y-94565000D03*
X52400000Y-94565000D03*
X53670000Y-94565000D03*
X54940000Y-94565000D03*
X56210000Y-94565000D03*
%TD*%
D21*
%TO.C,JP2*%
X156600000Y-220075000D03*
D22*
X155300000Y-220075000D03*
%TD*%
D23*
%TO.C,JP401*%
X80700000Y-120550000D03*
D24*
X80700000Y-121850000D03*
D25*
X80700000Y-123150000D03*
%TD*%
D21*
%TO.C,JP1*%
X156600000Y-70625000D03*
D22*
X155300000Y-70625000D03*
%TD*%
D26*
%TO.C,TP902*%
X96200000Y-219900000D03*
%TD*%
%TO.C,TP406*%
X55075000Y-86175000D03*
%TD*%
D30*
%TO.C,BT301*%
X126949033Y-80092211D03*
X145050967Y-61990277D03*
D31*
X136000000Y-71041244D03*
%TD*%
D26*
%TO.C,TP903*%
X79600000Y-80900000D03*
%TD*%
%TO.C,TP904*%
X88200000Y-42600000D03*
%TD*%
D21*
%TO.C,JP2*%
X156600000Y-68075000D03*
D22*
X155300000Y-68075000D03*
%TD*%
D23*
%TO.C,JP1401*%
X68400000Y-234300000D03*
D24*
X68400000Y-235600000D03*
D25*
X68400000Y-236900000D03*
%TD*%
D23*
%TO.C,JP401*%
X80700000Y-196550000D03*
D24*
X80700000Y-197850000D03*
D25*
X80700000Y-199150000D03*
%TD*%
D21*
%TO.C,JP2*%
X156600000Y-144075000D03*
D22*
X155300000Y-144075000D03*
%TD*%
D26*
%TO.C,TP903*%
X79600000Y-156900000D03*
%TD*%
%TO.C,TP406*%
X55075000Y-238175000D03*
%TD*%
D30*
%TO.C,BT301*%
X126949033Y-232092211D03*
X145050967Y-213990277D03*
D31*
X136000000Y-223041244D03*
%TD*%
D23*
%TO.C,JP402*%
X78500000Y-120550000D03*
D24*
X78500000Y-121850000D03*
D25*
X78500000Y-123150000D03*
%TD*%
D26*
%TO.C,TP902*%
X96200000Y-143900000D03*
%TD*%
D21*
%TO.C,JP1*%
X156600000Y-222625000D03*
D22*
X155300000Y-222625000D03*
%TD*%
G36*
X208200942Y-189245264D02*
G01*
X208217128Y-189163891D01*
X208224444Y-189146227D01*
X208267808Y-189081328D01*
X208281327Y-189067809D01*
X208346226Y-189024445D01*
X208363889Y-189017129D01*
X208445263Y-189000942D01*
X208454823Y-189000000D01*
X210990647Y-189000000D01*
X210991526Y-189000008D01*
X210999108Y-189000144D01*
X211000848Y-189000206D01*
X211008489Y-189000615D01*
X211009366Y-189000670D01*
X211265922Y-189019019D01*
X211267666Y-189019175D01*
X211282802Y-189020803D01*
X211286263Y-189021301D01*
X211301237Y-189024003D01*
X211302952Y-189024344D01*
X211545125Y-189077025D01*
X211546826Y-189077427D01*
X211561594Y-189081196D01*
X211564953Y-189082182D01*
X211579370Y-189086981D01*
X211581018Y-189087562D01*
X211813257Y-189174182D01*
X211814883Y-189174822D01*
X211828954Y-189180650D01*
X211832138Y-189182104D01*
X211845746Y-189188916D01*
X211847295Y-189189727D01*
X212064822Y-189308506D01*
X212066341Y-189309370D01*
X212079426Y-189317133D01*
X212082372Y-189319027D01*
X212094881Y-189327713D01*
X212096298Y-189328735D01*
X212294693Y-189477252D01*
X212296074Y-189478325D01*
X212307947Y-189487893D01*
X212310591Y-189490183D01*
X212321727Y-189500551D01*
X212322985Y-189501766D01*
X212498234Y-189677015D01*
X212499449Y-189678273D01*
X212509817Y-189689409D01*
X212512107Y-189692053D01*
X212521675Y-189703926D01*
X212522748Y-189705307D01*
X212671265Y-189903702D01*
X212672287Y-189905119D01*
X212680973Y-189917628D01*
X212682867Y-189920574D01*
X212690630Y-189933659D01*
X212691494Y-189935178D01*
X212810273Y-190152705D01*
X212811084Y-190154254D01*
X212817896Y-190167862D01*
X212819350Y-190171046D01*
X212825178Y-190185117D01*
X212825818Y-190186743D01*
X212912438Y-190418982D01*
X212913019Y-190420630D01*
X212917818Y-190435047D01*
X212918804Y-190438406D01*
X212922573Y-190453174D01*
X212922975Y-190454875D01*
X212975656Y-190697048D01*
X212975997Y-190698763D01*
X212978699Y-190713737D01*
X212979197Y-190717198D01*
X212980825Y-190732334D01*
X212980981Y-190734078D01*
X212999330Y-190990634D01*
X212999385Y-190991511D01*
X212999794Y-190999152D01*
X212999856Y-191000892D01*
X212999992Y-191008474D01*
X213000000Y-191009353D01*
X213000000Y-194987127D01*
X212999985Y-194988332D01*
X212999728Y-194998783D01*
X212999610Y-195001183D01*
X212998840Y-195011620D01*
X212998737Y-195012818D01*
X212983316Y-195169388D01*
X212983022Y-195171775D01*
X212979952Y-195192471D01*
X212979014Y-195197187D01*
X212973927Y-195217496D01*
X212973285Y-195219814D01*
X212931376Y-195357971D01*
X212930621Y-195360256D01*
X212923572Y-195379955D01*
X212921734Y-195384394D01*
X212912790Y-195403307D01*
X212911707Y-195405458D01*
X212843636Y-195532808D01*
X212842451Y-195534899D01*
X212831704Y-195552830D01*
X212829032Y-195556830D01*
X212816571Y-195573631D01*
X212815092Y-195575526D01*
X212723488Y-195687146D01*
X212721917Y-195688967D01*
X212707868Y-195704468D01*
X212704467Y-195707869D01*
X212688966Y-195721918D01*
X212687145Y-195723489D01*
X212575525Y-195815093D01*
X212573630Y-195816572D01*
X212556829Y-195829033D01*
X212552829Y-195831705D01*
X212534898Y-195842452D01*
X212532807Y-195843637D01*
X212405457Y-195911708D01*
X212403306Y-195912791D01*
X212384393Y-195921735D01*
X212379954Y-195923573D01*
X212360255Y-195930622D01*
X212357970Y-195931377D01*
X212219813Y-195973286D01*
X212217495Y-195973928D01*
X212197186Y-195979015D01*
X212192470Y-195979953D01*
X212171774Y-195983023D01*
X212169387Y-195983317D01*
X212012817Y-195998738D01*
X212011619Y-195998841D01*
X212001182Y-195999611D01*
X211998777Y-195999729D01*
X211988327Y-195999985D01*
X211987127Y-196000000D01*
X208454823Y-196000000D01*
X208445264Y-195999059D01*
X208363890Y-195982873D01*
X208346226Y-195975556D01*
X208281327Y-195932192D01*
X208267808Y-195918673D01*
X208224444Y-195853774D01*
X208217127Y-195836110D01*
X208200941Y-195754736D01*
X208200000Y-195745177D01*
X208200000Y-189254823D01*
X208200942Y-189245264D01*
G37*
G36*
X91994812Y-41000003D02*
G01*
X91999425Y-41000052D01*
X92000516Y-41000075D01*
X92005259Y-41000231D01*
X92005785Y-41000252D01*
X92424332Y-41018527D01*
X92425395Y-41018585D01*
X92434669Y-41019192D01*
X92436808Y-41019379D01*
X92446086Y-41020396D01*
X92447143Y-41020523D01*
X92856909Y-41074468D01*
X92857970Y-41074620D01*
X92867147Y-41076033D01*
X92869254Y-41076404D01*
X92878379Y-41078220D01*
X92879421Y-41078440D01*
X93282907Y-41167891D01*
X93283944Y-41168132D01*
X93292987Y-41170344D01*
X93295057Y-41170899D01*
X93303997Y-41173505D01*
X93305019Y-41173815D01*
X93699172Y-41298091D01*
X93700189Y-41298424D01*
X93709017Y-41301421D01*
X93711023Y-41302151D01*
X93719690Y-41305521D01*
X93720683Y-41305920D01*
X94102486Y-41464068D01*
X94103470Y-41464488D01*
X94112006Y-41468244D01*
X94113944Y-41469148D01*
X94122296Y-41473267D01*
X94123249Y-41473749D01*
X94489882Y-41664606D01*
X94490823Y-41665110D01*
X94498935Y-41669560D01*
X94500789Y-41670630D01*
X94508748Y-41675460D01*
X94509655Y-41676024D01*
X94858235Y-41898094D01*
X94859131Y-41898679D01*
X94866850Y-41903837D01*
X94868598Y-41905061D01*
X94876127Y-41910581D01*
X94876984Y-41911224D01*
X95204820Y-42162781D01*
X95205662Y-42163441D01*
X95212962Y-42169300D01*
X95214597Y-42170672D01*
X95221567Y-42176784D01*
X95222365Y-42177499D01*
X95527101Y-42456739D01*
X95527877Y-42457467D01*
X95534589Y-42463891D01*
X95536108Y-42465410D01*
X95542532Y-42472122D01*
X95543260Y-42472898D01*
X95822500Y-42777634D01*
X95823215Y-42778432D01*
X95829327Y-42785402D01*
X95830699Y-42787037D01*
X95836558Y-42794337D01*
X95837218Y-42795179D01*
X96088775Y-43123015D01*
X96089418Y-43123872D01*
X96094938Y-43131401D01*
X96096162Y-43133149D01*
X96101320Y-43140868D01*
X96101905Y-43141764D01*
X96323975Y-43490344D01*
X96324539Y-43491251D01*
X96329369Y-43499210D01*
X96330439Y-43501064D01*
X96334889Y-43509176D01*
X96335393Y-43510117D01*
X96526250Y-43876750D01*
X96526732Y-43877703D01*
X96530851Y-43886055D01*
X96531755Y-43887993D01*
X96535511Y-43896529D01*
X96535931Y-43897513D01*
X96694079Y-44279316D01*
X96694478Y-44280309D01*
X96697848Y-44288976D01*
X96698578Y-44290982D01*
X96701575Y-44299810D01*
X96701908Y-44300827D01*
X96826184Y-44694980D01*
X96826494Y-44696002D01*
X96829100Y-44704942D01*
X96829655Y-44707012D01*
X96831867Y-44716055D01*
X96832108Y-44717092D01*
X96921559Y-45120578D01*
X96921779Y-45121620D01*
X96923595Y-45130745D01*
X96923966Y-45132852D01*
X96925379Y-45142029D01*
X96925531Y-45143090D01*
X96979476Y-45552856D01*
X96979603Y-45553913D01*
X96980620Y-45563191D01*
X96980807Y-45565330D01*
X96981414Y-45574604D01*
X96981472Y-45575667D01*
X96999747Y-45994214D01*
X96999768Y-45994740D01*
X96999924Y-45999483D01*
X96999947Y-46000563D01*
X96999997Y-46005177D01*
X97000000Y-46005708D01*
X97000000Y-46749359D01*
X96999078Y-46758819D01*
X96983227Y-46839380D01*
X96976061Y-46856887D01*
X96933549Y-46921381D01*
X96920283Y-46934870D01*
X96856511Y-46978448D01*
X96839124Y-46985906D01*
X96758833Y-47003097D01*
X96749391Y-47004176D01*
X91259045Y-47095682D01*
X91249370Y-47094882D01*
X91166911Y-47079726D01*
X91148972Y-47072556D01*
X91082951Y-47029430D01*
X91069177Y-47015884D01*
X91024955Y-46950588D01*
X91017488Y-46932770D01*
X91000962Y-46850582D01*
X91000000Y-46840923D01*
X91000000Y-41254823D01*
X91000941Y-41245264D01*
X91017127Y-41163890D01*
X91024444Y-41146226D01*
X91067808Y-41081327D01*
X91081327Y-41067808D01*
X91146226Y-41024444D01*
X91163890Y-41017127D01*
X91245264Y-41000941D01*
X91254823Y-41000000D01*
X91994292Y-41000000D01*
X91994812Y-41000003D01*
G37*
G36*
X161465560Y-41000026D02*
G01*
X161479513Y-41000482D01*
X161482715Y-41000692D01*
X161496594Y-41002059D01*
X161498187Y-41002242D01*
X161856917Y-41049470D01*
X161857979Y-41049622D01*
X161867155Y-41051035D01*
X161869260Y-41051406D01*
X161878341Y-41053213D01*
X161879384Y-41053432D01*
X162282970Y-41142905D01*
X162284010Y-41143148D01*
X162292993Y-41145346D01*
X162295058Y-41145899D01*
X162304006Y-41148507D01*
X162305030Y-41148818D01*
X162699185Y-41273096D01*
X162700196Y-41273427D01*
X162709022Y-41276422D01*
X162711034Y-41277154D01*
X162719698Y-41280523D01*
X162720692Y-41280922D01*
X163102520Y-41439083D01*
X163103503Y-41439503D01*
X163112023Y-41443252D01*
X163113958Y-41444154D01*
X163122346Y-41448290D01*
X163123302Y-41448775D01*
X163489865Y-41639598D01*
X163490807Y-41640101D01*
X163498955Y-41644571D01*
X163500808Y-41645641D01*
X163508767Y-41650471D01*
X163509674Y-41651035D01*
X163858256Y-41873108D01*
X163859152Y-41873693D01*
X163866871Y-41878851D01*
X163868620Y-41880075D01*
X163876127Y-41885579D01*
X163876984Y-41886222D01*
X164204864Y-42137817D01*
X164205701Y-42138474D01*
X164212980Y-42144315D01*
X164214620Y-42145691D01*
X164221615Y-42151825D01*
X164222412Y-42152540D01*
X164527099Y-42431740D01*
X164527873Y-42432464D01*
X164534610Y-42438911D01*
X164536131Y-42440433D01*
X164542555Y-42447145D01*
X164543283Y-42447921D01*
X164822523Y-42752661D01*
X164823238Y-42753459D01*
X164829350Y-42760429D01*
X164830723Y-42762066D01*
X164836559Y-42769338D01*
X164837219Y-42770178D01*
X165088820Y-43098076D01*
X165089461Y-43098932D01*
X165094960Y-43106432D01*
X165096184Y-43108179D01*
X165101356Y-43115918D01*
X165101943Y-43116817D01*
X165323984Y-43465361D01*
X165324546Y-43466266D01*
X165329389Y-43474246D01*
X165330459Y-43476099D01*
X165334920Y-43484230D01*
X165335425Y-43485174D01*
X165526260Y-43851773D01*
X165526743Y-43852726D01*
X165530879Y-43861113D01*
X165531782Y-43863050D01*
X165535516Y-43871536D01*
X165535936Y-43872520D01*
X165694096Y-44254363D01*
X165694495Y-44255356D01*
X165697865Y-44264023D01*
X165698596Y-44266031D01*
X165701597Y-44274872D01*
X165701929Y-44275888D01*
X165826194Y-44670019D01*
X165826504Y-44671041D01*
X165829115Y-44679999D01*
X165829669Y-44682063D01*
X165831870Y-44691057D01*
X165832113Y-44692100D01*
X165921578Y-45095665D01*
X165921799Y-45096718D01*
X165923606Y-45105810D01*
X165923975Y-45107906D01*
X165925389Y-45117090D01*
X165925541Y-45118151D01*
X165979481Y-45527911D01*
X165979608Y-45528965D01*
X165980626Y-45538249D01*
X165980813Y-45540390D01*
X165981420Y-45549664D01*
X165981478Y-45550727D01*
X165999747Y-45969276D01*
X165999768Y-45969803D01*
X165999924Y-45974548D01*
X165999947Y-45975627D01*
X165999997Y-45980238D01*
X166000000Y-45980769D01*
X166000000Y-46749359D01*
X165999078Y-46758819D01*
X165983227Y-46839380D01*
X165976061Y-46856887D01*
X165933549Y-46921381D01*
X165920283Y-46934870D01*
X165856511Y-46978448D01*
X165839124Y-46985906D01*
X165758833Y-47003097D01*
X165749391Y-47004176D01*
X160259045Y-47095682D01*
X160249370Y-47094882D01*
X160166911Y-47079726D01*
X160148972Y-47072556D01*
X160082951Y-47029430D01*
X160069177Y-47015884D01*
X160024955Y-46950588D01*
X160017488Y-46932770D01*
X160000962Y-46850582D01*
X160000000Y-46840923D01*
X160000000Y-41254823D01*
X160000941Y-41245264D01*
X160017127Y-41163890D01*
X160024444Y-41146226D01*
X160067808Y-41081327D01*
X160081327Y-41067808D01*
X160146226Y-41024444D01*
X160163890Y-41017127D01*
X160245264Y-41000941D01*
X160254823Y-41000000D01*
X161463959Y-41000000D01*
X161465560Y-41000026D01*
G37*
G36*
X161465560Y-193000026D02*
G01*
X161479513Y-193000482D01*
X161482715Y-193000692D01*
X161496594Y-193002059D01*
X161498187Y-193002242D01*
X161856917Y-193049470D01*
X161857979Y-193049622D01*
X161867155Y-193051035D01*
X161869260Y-193051406D01*
X161878341Y-193053213D01*
X161879384Y-193053432D01*
X162282970Y-193142905D01*
X162284010Y-193143148D01*
X162292993Y-193145346D01*
X162295058Y-193145899D01*
X162304006Y-193148507D01*
X162305030Y-193148818D01*
X162699185Y-193273096D01*
X162700196Y-193273427D01*
X162709022Y-193276422D01*
X162711034Y-193277154D01*
X162719698Y-193280523D01*
X162720692Y-193280922D01*
X163102520Y-193439083D01*
X163103503Y-193439503D01*
X163112023Y-193443252D01*
X163113958Y-193444154D01*
X163122346Y-193448290D01*
X163123302Y-193448775D01*
X163489865Y-193639598D01*
X163490807Y-193640101D01*
X163498955Y-193644571D01*
X163500808Y-193645641D01*
X163508767Y-193650471D01*
X163509674Y-193651035D01*
X163858256Y-193873108D01*
X163859152Y-193873693D01*
X163866871Y-193878851D01*
X163868620Y-193880075D01*
X163876127Y-193885579D01*
X163876984Y-193886222D01*
X164204864Y-194137817D01*
X164205701Y-194138474D01*
X164212980Y-194144315D01*
X164214620Y-194145691D01*
X164221615Y-194151825D01*
X164222412Y-194152540D01*
X164527099Y-194431740D01*
X164527873Y-194432464D01*
X164534610Y-194438911D01*
X164536131Y-194440433D01*
X164542555Y-194447145D01*
X164543283Y-194447921D01*
X164822523Y-194752661D01*
X164823238Y-194753459D01*
X164829350Y-194760429D01*
X164830723Y-194762066D01*
X164836559Y-194769338D01*
X164837219Y-194770178D01*
X165088820Y-195098076D01*
X165089461Y-195098932D01*
X165094960Y-195106432D01*
X165096184Y-195108179D01*
X165101356Y-195115918D01*
X165101943Y-195116817D01*
X165323984Y-195465361D01*
X165324546Y-195466266D01*
X165329389Y-195474246D01*
X165330459Y-195476099D01*
X165334920Y-195484230D01*
X165335425Y-195485174D01*
X165526260Y-195851773D01*
X165526743Y-195852726D01*
X165530879Y-195861113D01*
X165531782Y-195863050D01*
X165535516Y-195871536D01*
X165535936Y-195872520D01*
X165694096Y-196254363D01*
X165694495Y-196255356D01*
X165697865Y-196264023D01*
X165698596Y-196266031D01*
X165701597Y-196274872D01*
X165701929Y-196275888D01*
X165826194Y-196670019D01*
X165826504Y-196671041D01*
X165829115Y-196679999D01*
X165829669Y-196682063D01*
X165831870Y-196691057D01*
X165832113Y-196692100D01*
X165921578Y-197095665D01*
X165921799Y-197096718D01*
X165923606Y-197105810D01*
X165923975Y-197107906D01*
X165925389Y-197117090D01*
X165925541Y-197118151D01*
X165979481Y-197527911D01*
X165979608Y-197528965D01*
X165980626Y-197538249D01*
X165980813Y-197540390D01*
X165981420Y-197549664D01*
X165981478Y-197550727D01*
X165999747Y-197969276D01*
X165999768Y-197969803D01*
X165999924Y-197974548D01*
X165999947Y-197975627D01*
X165999997Y-197980238D01*
X166000000Y-197980769D01*
X166000000Y-198749359D01*
X165999078Y-198758819D01*
X165983227Y-198839380D01*
X165976061Y-198856887D01*
X165933549Y-198921381D01*
X165920283Y-198934870D01*
X165856511Y-198978448D01*
X165839124Y-198985906D01*
X165758833Y-199003097D01*
X165749391Y-199004176D01*
X160259045Y-199095682D01*
X160249370Y-199094882D01*
X160166911Y-199079726D01*
X160148972Y-199072556D01*
X160082951Y-199029430D01*
X160069177Y-199015884D01*
X160024955Y-198950588D01*
X160017488Y-198932770D01*
X160000962Y-198850582D01*
X160000000Y-198840923D01*
X160000000Y-193254823D01*
X160000941Y-193245264D01*
X160017127Y-193163890D01*
X160024444Y-193146226D01*
X160067808Y-193081327D01*
X160081327Y-193067808D01*
X160146226Y-193024444D01*
X160163890Y-193017127D01*
X160245264Y-193000941D01*
X160254823Y-193000000D01*
X161463959Y-193000000D01*
X161465560Y-193000026D01*
G37*
G36*
X91994812Y-193000003D02*
G01*
X91999425Y-193000052D01*
X92000516Y-193000075D01*
X92005259Y-193000231D01*
X92005785Y-193000252D01*
X92424332Y-193018527D01*
X92425395Y-193018585D01*
X92434669Y-193019192D01*
X92436808Y-193019379D01*
X92446086Y-193020396D01*
X92447143Y-193020523D01*
X92856909Y-193074468D01*
X92857970Y-193074620D01*
X92867147Y-193076033D01*
X92869254Y-193076404D01*
X92878379Y-193078220D01*
X92879421Y-193078440D01*
X93282907Y-193167891D01*
X93283944Y-193168132D01*
X93292987Y-193170344D01*
X93295057Y-193170899D01*
X93303997Y-193173505D01*
X93305019Y-193173815D01*
X93699172Y-193298091D01*
X93700189Y-193298424D01*
X93709017Y-193301421D01*
X93711023Y-193302151D01*
X93719690Y-193305521D01*
X93720683Y-193305920D01*
X94102486Y-193464068D01*
X94103470Y-193464488D01*
X94112006Y-193468244D01*
X94113944Y-193469148D01*
X94122296Y-193473267D01*
X94123249Y-193473749D01*
X94489882Y-193664606D01*
X94490823Y-193665110D01*
X94498935Y-193669560D01*
X94500789Y-193670630D01*
X94508748Y-193675460D01*
X94509655Y-193676024D01*
X94858235Y-193898094D01*
X94859131Y-193898679D01*
X94866850Y-193903837D01*
X94868598Y-193905061D01*
X94876127Y-193910581D01*
X94876984Y-193911224D01*
X95204820Y-194162781D01*
X95205662Y-194163441D01*
X95212962Y-194169300D01*
X95214597Y-194170672D01*
X95221567Y-194176784D01*
X95222365Y-194177499D01*
X95527101Y-194456739D01*
X95527877Y-194457467D01*
X95534589Y-194463891D01*
X95536108Y-194465410D01*
X95542532Y-194472122D01*
X95543260Y-194472898D01*
X95822500Y-194777634D01*
X95823215Y-194778432D01*
X95829327Y-194785402D01*
X95830699Y-194787037D01*
X95836558Y-194794337D01*
X95837218Y-194795179D01*
X96088775Y-195123015D01*
X96089418Y-195123872D01*
X96094938Y-195131401D01*
X96096162Y-195133149D01*
X96101320Y-195140868D01*
X96101905Y-195141764D01*
X96323975Y-195490344D01*
X96324539Y-195491251D01*
X96329369Y-195499210D01*
X96330439Y-195501064D01*
X96334889Y-195509176D01*
X96335393Y-195510117D01*
X96526250Y-195876750D01*
X96526732Y-195877703D01*
X96530851Y-195886055D01*
X96531755Y-195887993D01*
X96535511Y-195896529D01*
X96535931Y-195897513D01*
X96694079Y-196279316D01*
X96694478Y-196280309D01*
X96697848Y-196288976D01*
X96698578Y-196290982D01*
X96701575Y-196299810D01*
X96701908Y-196300827D01*
X96826184Y-196694980D01*
X96826494Y-196696002D01*
X96829100Y-196704942D01*
X96829655Y-196707012D01*
X96831867Y-196716055D01*
X96832108Y-196717092D01*
X96921559Y-197120578D01*
X96921779Y-197121620D01*
X96923595Y-197130745D01*
X96923966Y-197132852D01*
X96925379Y-197142029D01*
X96925531Y-197143090D01*
X96979476Y-197552856D01*
X96979603Y-197553913D01*
X96980620Y-197563191D01*
X96980807Y-197565330D01*
X96981414Y-197574604D01*
X96981472Y-197575667D01*
X96999747Y-197994214D01*
X96999768Y-197994740D01*
X96999924Y-197999483D01*
X96999947Y-198000563D01*
X96999997Y-198005177D01*
X97000000Y-198005708D01*
X97000000Y-198749359D01*
X96999078Y-198758819D01*
X96983227Y-198839380D01*
X96976061Y-198856887D01*
X96933549Y-198921381D01*
X96920283Y-198934870D01*
X96856511Y-198978448D01*
X96839124Y-198985906D01*
X96758833Y-199003097D01*
X96749391Y-199004176D01*
X91259045Y-199095682D01*
X91249370Y-199094882D01*
X91166911Y-199079726D01*
X91148972Y-199072556D01*
X91082951Y-199029430D01*
X91069177Y-199015884D01*
X91024955Y-198950588D01*
X91017488Y-198932770D01*
X91000962Y-198850582D01*
X91000000Y-198840923D01*
X91000000Y-193254823D01*
X91000941Y-193245264D01*
X91017127Y-193163890D01*
X91024444Y-193146226D01*
X91067808Y-193081327D01*
X91081327Y-193067808D01*
X91146226Y-193024444D01*
X91163890Y-193017127D01*
X91245264Y-193000941D01*
X91254823Y-193000000D01*
X91994292Y-193000000D01*
X91994812Y-193000003D01*
G37*
G36*
X254200942Y-113245264D02*
G01*
X254217128Y-113163891D01*
X254224444Y-113146227D01*
X254267808Y-113081328D01*
X254281327Y-113067809D01*
X254346226Y-113024445D01*
X254363889Y-113017129D01*
X254445263Y-113000942D01*
X254454823Y-113000000D01*
X256990647Y-113000000D01*
X256991526Y-113000008D01*
X256999108Y-113000144D01*
X257000848Y-113000206D01*
X257008489Y-113000615D01*
X257009366Y-113000670D01*
X257265922Y-113019019D01*
X257267666Y-113019175D01*
X257282802Y-113020803D01*
X257286263Y-113021301D01*
X257301237Y-113024003D01*
X257302952Y-113024344D01*
X257545125Y-113077025D01*
X257546826Y-113077427D01*
X257561594Y-113081196D01*
X257564953Y-113082182D01*
X257579370Y-113086981D01*
X257581018Y-113087562D01*
X257813257Y-113174182D01*
X257814883Y-113174822D01*
X257828954Y-113180650D01*
X257832138Y-113182104D01*
X257845746Y-113188916D01*
X257847295Y-113189727D01*
X258064822Y-113308506D01*
X258066341Y-113309370D01*
X258079426Y-113317133D01*
X258082372Y-113319027D01*
X258094881Y-113327713D01*
X258096298Y-113328735D01*
X258294693Y-113477252D01*
X258296074Y-113478325D01*
X258307947Y-113487893D01*
X258310591Y-113490183D01*
X258321727Y-113500551D01*
X258322985Y-113501766D01*
X258498234Y-113677015D01*
X258499449Y-113678273D01*
X258509817Y-113689409D01*
X258512107Y-113692053D01*
X258521675Y-113703926D01*
X258522748Y-113705307D01*
X258671265Y-113903702D01*
X258672287Y-113905119D01*
X258680973Y-113917628D01*
X258682867Y-113920574D01*
X258690630Y-113933659D01*
X258691494Y-113935178D01*
X258810273Y-114152705D01*
X258811084Y-114154254D01*
X258817896Y-114167862D01*
X258819350Y-114171046D01*
X258825178Y-114185117D01*
X258825818Y-114186743D01*
X258912438Y-114418982D01*
X258913019Y-114420630D01*
X258917818Y-114435047D01*
X258918804Y-114438406D01*
X258922573Y-114453174D01*
X258922975Y-114454875D01*
X258975656Y-114697048D01*
X258975997Y-114698763D01*
X258978699Y-114713737D01*
X258979197Y-114717198D01*
X258980825Y-114732334D01*
X258980981Y-114734078D01*
X258999330Y-114990634D01*
X258999385Y-114991511D01*
X258999794Y-114999152D01*
X258999856Y-115000892D01*
X258999992Y-115008474D01*
X259000000Y-115009353D01*
X259000000Y-118987127D01*
X258999985Y-118988332D01*
X258999728Y-118998783D01*
X258999610Y-119001183D01*
X258998840Y-119011620D01*
X258998737Y-119012818D01*
X258983316Y-119169388D01*
X258983022Y-119171775D01*
X258979952Y-119192471D01*
X258979014Y-119197187D01*
X258973927Y-119217496D01*
X258973285Y-119219814D01*
X258931376Y-119357971D01*
X258930621Y-119360256D01*
X258923572Y-119379955D01*
X258921734Y-119384394D01*
X258912790Y-119403307D01*
X258911707Y-119405458D01*
X258843636Y-119532808D01*
X258842451Y-119534899D01*
X258831704Y-119552830D01*
X258829032Y-119556830D01*
X258816571Y-119573631D01*
X258815092Y-119575526D01*
X258723488Y-119687146D01*
X258721917Y-119688967D01*
X258707868Y-119704468D01*
X258704467Y-119707869D01*
X258688966Y-119721918D01*
X258687145Y-119723489D01*
X258575525Y-119815093D01*
X258573630Y-119816572D01*
X258556829Y-119829033D01*
X258552829Y-119831705D01*
X258534898Y-119842452D01*
X258532807Y-119843637D01*
X258405457Y-119911708D01*
X258403306Y-119912791D01*
X258384393Y-119921735D01*
X258379954Y-119923573D01*
X258360255Y-119930622D01*
X258357970Y-119931377D01*
X258219813Y-119973286D01*
X258217495Y-119973928D01*
X258197186Y-119979015D01*
X258192470Y-119979953D01*
X258171774Y-119983023D01*
X258169387Y-119983317D01*
X258012817Y-119998738D01*
X258011619Y-119998841D01*
X258001182Y-119999611D01*
X257998777Y-119999729D01*
X257988327Y-119999985D01*
X257987127Y-120000000D01*
X254454823Y-120000000D01*
X254445264Y-119999059D01*
X254363890Y-119982873D01*
X254346226Y-119975556D01*
X254281327Y-119932192D01*
X254267808Y-119918673D01*
X254224444Y-119853774D01*
X254217127Y-119836110D01*
X254200941Y-119754736D01*
X254200000Y-119745177D01*
X254200000Y-113254823D01*
X254200942Y-113245264D01*
G37*
G36*
X208200942Y-113245264D02*
G01*
X208217128Y-113163891D01*
X208224444Y-113146227D01*
X208267808Y-113081328D01*
X208281327Y-113067809D01*
X208346226Y-113024445D01*
X208363889Y-113017129D01*
X208445263Y-113000942D01*
X208454823Y-113000000D01*
X210990647Y-113000000D01*
X210991526Y-113000008D01*
X210999108Y-113000144D01*
X211000848Y-113000206D01*
X211008489Y-113000615D01*
X211009366Y-113000670D01*
X211265922Y-113019019D01*
X211267666Y-113019175D01*
X211282802Y-113020803D01*
X211286263Y-113021301D01*
X211301237Y-113024003D01*
X211302952Y-113024344D01*
X211545125Y-113077025D01*
X211546826Y-113077427D01*
X211561594Y-113081196D01*
X211564953Y-113082182D01*
X211579370Y-113086981D01*
X211581018Y-113087562D01*
X211813257Y-113174182D01*
X211814883Y-113174822D01*
X211828954Y-113180650D01*
X211832138Y-113182104D01*
X211845746Y-113188916D01*
X211847295Y-113189727D01*
X212064822Y-113308506D01*
X212066341Y-113309370D01*
X212079426Y-113317133D01*
X212082372Y-113319027D01*
X212094881Y-113327713D01*
X212096298Y-113328735D01*
X212294693Y-113477252D01*
X212296074Y-113478325D01*
X212307947Y-113487893D01*
X212310591Y-113490183D01*
X212321727Y-113500551D01*
X212322985Y-113501766D01*
X212498234Y-113677015D01*
X212499449Y-113678273D01*
X212509817Y-113689409D01*
X212512107Y-113692053D01*
X212521675Y-113703926D01*
X212522748Y-113705307D01*
X212671265Y-113903702D01*
X212672287Y-113905119D01*
X212680973Y-113917628D01*
X212682867Y-113920574D01*
X212690630Y-113933659D01*
X212691494Y-113935178D01*
X212810273Y-114152705D01*
X212811084Y-114154254D01*
X212817896Y-114167862D01*
X212819350Y-114171046D01*
X212825178Y-114185117D01*
X212825818Y-114186743D01*
X212912438Y-114418982D01*
X212913019Y-114420630D01*
X212917818Y-114435047D01*
X212918804Y-114438406D01*
X212922573Y-114453174D01*
X212922975Y-114454875D01*
X212975656Y-114697048D01*
X212975997Y-114698763D01*
X212978699Y-114713737D01*
X212979197Y-114717198D01*
X212980825Y-114732334D01*
X212980981Y-114734078D01*
X212999330Y-114990634D01*
X212999385Y-114991511D01*
X212999794Y-114999152D01*
X212999856Y-115000892D01*
X212999992Y-115008474D01*
X213000000Y-115009353D01*
X213000000Y-118987127D01*
X212999985Y-118988332D01*
X212999728Y-118998783D01*
X212999610Y-119001183D01*
X212998840Y-119011620D01*
X212998737Y-119012818D01*
X212983316Y-119169388D01*
X212983022Y-119171775D01*
X212979952Y-119192471D01*
X212979014Y-119197187D01*
X212973927Y-119217496D01*
X212973285Y-119219814D01*
X212931376Y-119357971D01*
X212930621Y-119360256D01*
X212923572Y-119379955D01*
X212921734Y-119384394D01*
X212912790Y-119403307D01*
X212911707Y-119405458D01*
X212843636Y-119532808D01*
X212842451Y-119534899D01*
X212831704Y-119552830D01*
X212829032Y-119556830D01*
X212816571Y-119573631D01*
X212815092Y-119575526D01*
X212723488Y-119687146D01*
X212721917Y-119688967D01*
X212707868Y-119704468D01*
X212704467Y-119707869D01*
X212688966Y-119721918D01*
X212687145Y-119723489D01*
X212575525Y-119815093D01*
X212573630Y-119816572D01*
X212556829Y-119829033D01*
X212552829Y-119831705D01*
X212534898Y-119842452D01*
X212532807Y-119843637D01*
X212405457Y-119911708D01*
X212403306Y-119912791D01*
X212384393Y-119921735D01*
X212379954Y-119923573D01*
X212360255Y-119930622D01*
X212357970Y-119931377D01*
X212219813Y-119973286D01*
X212217495Y-119973928D01*
X212197186Y-119979015D01*
X212192470Y-119979953D01*
X212171774Y-119983023D01*
X212169387Y-119983317D01*
X212012817Y-119998738D01*
X212011619Y-119998841D01*
X212001182Y-119999611D01*
X211998777Y-119999729D01*
X211988327Y-119999985D01*
X211987127Y-120000000D01*
X208454823Y-120000000D01*
X208445264Y-119999059D01*
X208363890Y-119982873D01*
X208346226Y-119975556D01*
X208281327Y-119932192D01*
X208267808Y-119918673D01*
X208224444Y-119853774D01*
X208217127Y-119836110D01*
X208200941Y-119754736D01*
X208200000Y-119745177D01*
X208200000Y-113254823D01*
X208200942Y-113245264D01*
G37*
G36*
X208200942Y-37245264D02*
G01*
X208217128Y-37163891D01*
X208224444Y-37146227D01*
X208267808Y-37081328D01*
X208281327Y-37067809D01*
X208346226Y-37024445D01*
X208363889Y-37017129D01*
X208445263Y-37000942D01*
X208454823Y-37000000D01*
X210990647Y-37000000D01*
X210991526Y-37000008D01*
X210999108Y-37000144D01*
X211000848Y-37000206D01*
X211008489Y-37000615D01*
X211009366Y-37000670D01*
X211265922Y-37019019D01*
X211267666Y-37019175D01*
X211282802Y-37020803D01*
X211286263Y-37021301D01*
X211301237Y-37024003D01*
X211302952Y-37024344D01*
X211545125Y-37077025D01*
X211546826Y-37077427D01*
X211561594Y-37081196D01*
X211564953Y-37082182D01*
X211579370Y-37086981D01*
X211581018Y-37087562D01*
X211813257Y-37174182D01*
X211814883Y-37174822D01*
X211828954Y-37180650D01*
X211832138Y-37182104D01*
X211845746Y-37188916D01*
X211847295Y-37189727D01*
X212064822Y-37308506D01*
X212066341Y-37309370D01*
X212079426Y-37317133D01*
X212082372Y-37319027D01*
X212094881Y-37327713D01*
X212096298Y-37328735D01*
X212294693Y-37477252D01*
X212296074Y-37478325D01*
X212307947Y-37487893D01*
X212310591Y-37490183D01*
X212321727Y-37500551D01*
X212322985Y-37501766D01*
X212498234Y-37677015D01*
X212499449Y-37678273D01*
X212509817Y-37689409D01*
X212512107Y-37692053D01*
X212521675Y-37703926D01*
X212522748Y-37705307D01*
X212671265Y-37903702D01*
X212672287Y-37905119D01*
X212680973Y-37917628D01*
X212682867Y-37920574D01*
X212690630Y-37933659D01*
X212691494Y-37935178D01*
X212810273Y-38152705D01*
X212811084Y-38154254D01*
X212817896Y-38167862D01*
X212819350Y-38171046D01*
X212825178Y-38185117D01*
X212825818Y-38186743D01*
X212912438Y-38418982D01*
X212913019Y-38420630D01*
X212917818Y-38435047D01*
X212918804Y-38438406D01*
X212922573Y-38453174D01*
X212922975Y-38454875D01*
X212975656Y-38697048D01*
X212975997Y-38698763D01*
X212978699Y-38713737D01*
X212979197Y-38717198D01*
X212980825Y-38732334D01*
X212980981Y-38734078D01*
X212999330Y-38990634D01*
X212999385Y-38991511D01*
X212999794Y-38999152D01*
X212999856Y-39000892D01*
X212999992Y-39008474D01*
X213000000Y-39009353D01*
X213000000Y-42987127D01*
X212999985Y-42988332D01*
X212999728Y-42998783D01*
X212999610Y-43001183D01*
X212998840Y-43011620D01*
X212998737Y-43012818D01*
X212983316Y-43169388D01*
X212983022Y-43171775D01*
X212979952Y-43192471D01*
X212979014Y-43197187D01*
X212973927Y-43217496D01*
X212973285Y-43219814D01*
X212931376Y-43357971D01*
X212930621Y-43360256D01*
X212923572Y-43379955D01*
X212921734Y-43384394D01*
X212912790Y-43403307D01*
X212911707Y-43405458D01*
X212843636Y-43532808D01*
X212842451Y-43534899D01*
X212831704Y-43552830D01*
X212829032Y-43556830D01*
X212816571Y-43573631D01*
X212815092Y-43575526D01*
X212723488Y-43687146D01*
X212721917Y-43688967D01*
X212707868Y-43704468D01*
X212704467Y-43707869D01*
X212688966Y-43721918D01*
X212687145Y-43723489D01*
X212575525Y-43815093D01*
X212573630Y-43816572D01*
X212556829Y-43829033D01*
X212552829Y-43831705D01*
X212534898Y-43842452D01*
X212532807Y-43843637D01*
X212405457Y-43911708D01*
X212403306Y-43912791D01*
X212384393Y-43921735D01*
X212379954Y-43923573D01*
X212360255Y-43930622D01*
X212357970Y-43931377D01*
X212219813Y-43973286D01*
X212217495Y-43973928D01*
X212197186Y-43979015D01*
X212192470Y-43979953D01*
X212171774Y-43983023D01*
X212169387Y-43983317D01*
X212012817Y-43998738D01*
X212011619Y-43998841D01*
X212001182Y-43999611D01*
X211998777Y-43999729D01*
X211988327Y-43999985D01*
X211987127Y-44000000D01*
X208454823Y-44000000D01*
X208445264Y-43999059D01*
X208363890Y-43982873D01*
X208346226Y-43975556D01*
X208281327Y-43932192D01*
X208267808Y-43918673D01*
X208224444Y-43853774D01*
X208217127Y-43836110D01*
X208200941Y-43754736D01*
X208200000Y-43745177D01*
X208200000Y-37254823D01*
X208200942Y-37245264D01*
G37*
G36*
X91994812Y-117000003D02*
G01*
X91999425Y-117000052D01*
X92000516Y-117000075D01*
X92005259Y-117000231D01*
X92005785Y-117000252D01*
X92424332Y-117018527D01*
X92425395Y-117018585D01*
X92434669Y-117019192D01*
X92436808Y-117019379D01*
X92446086Y-117020396D01*
X92447143Y-117020523D01*
X92856909Y-117074468D01*
X92857970Y-117074620D01*
X92867147Y-117076033D01*
X92869254Y-117076404D01*
X92878379Y-117078220D01*
X92879421Y-117078440D01*
X93282907Y-117167891D01*
X93283944Y-117168132D01*
X93292987Y-117170344D01*
X93295057Y-117170899D01*
X93303997Y-117173505D01*
X93305019Y-117173815D01*
X93699172Y-117298091D01*
X93700189Y-117298424D01*
X93709017Y-117301421D01*
X93711023Y-117302151D01*
X93719690Y-117305521D01*
X93720683Y-117305920D01*
X94102486Y-117464068D01*
X94103470Y-117464488D01*
X94112006Y-117468244D01*
X94113944Y-117469148D01*
X94122296Y-117473267D01*
X94123249Y-117473749D01*
X94489882Y-117664606D01*
X94490823Y-117665110D01*
X94498935Y-117669560D01*
X94500789Y-117670630D01*
X94508748Y-117675460D01*
X94509655Y-117676024D01*
X94858235Y-117898094D01*
X94859131Y-117898679D01*
X94866850Y-117903837D01*
X94868598Y-117905061D01*
X94876127Y-117910581D01*
X94876984Y-117911224D01*
X95204820Y-118162781D01*
X95205662Y-118163441D01*
X95212962Y-118169300D01*
X95214597Y-118170672D01*
X95221567Y-118176784D01*
X95222365Y-118177499D01*
X95527101Y-118456739D01*
X95527877Y-118457467D01*
X95534589Y-118463891D01*
X95536108Y-118465410D01*
X95542532Y-118472122D01*
X95543260Y-118472898D01*
X95822500Y-118777634D01*
X95823215Y-118778432D01*
X95829327Y-118785402D01*
X95830699Y-118787037D01*
X95836558Y-118794337D01*
X95837218Y-118795179D01*
X96088775Y-119123015D01*
X96089418Y-119123872D01*
X96094938Y-119131401D01*
X96096162Y-119133149D01*
X96101320Y-119140868D01*
X96101905Y-119141764D01*
X96323975Y-119490344D01*
X96324539Y-119491251D01*
X96329369Y-119499210D01*
X96330439Y-119501064D01*
X96334889Y-119509176D01*
X96335393Y-119510117D01*
X96526250Y-119876750D01*
X96526732Y-119877703D01*
X96530851Y-119886055D01*
X96531755Y-119887993D01*
X96535511Y-119896529D01*
X96535931Y-119897513D01*
X96694079Y-120279316D01*
X96694478Y-120280309D01*
X96697848Y-120288976D01*
X96698578Y-120290982D01*
X96701575Y-120299810D01*
X96701908Y-120300827D01*
X96826184Y-120694980D01*
X96826494Y-120696002D01*
X96829100Y-120704942D01*
X96829655Y-120707012D01*
X96831867Y-120716055D01*
X96832108Y-120717092D01*
X96921559Y-121120578D01*
X96921779Y-121121620D01*
X96923595Y-121130745D01*
X96923966Y-121132852D01*
X96925379Y-121142029D01*
X96925531Y-121143090D01*
X96979476Y-121552856D01*
X96979603Y-121553913D01*
X96980620Y-121563191D01*
X96980807Y-121565330D01*
X96981414Y-121574604D01*
X96981472Y-121575667D01*
X96999747Y-121994214D01*
X96999768Y-121994740D01*
X96999924Y-121999483D01*
X96999947Y-122000563D01*
X96999997Y-122005177D01*
X97000000Y-122005708D01*
X97000000Y-122749359D01*
X96999078Y-122758819D01*
X96983227Y-122839380D01*
X96976061Y-122856887D01*
X96933549Y-122921381D01*
X96920283Y-122934870D01*
X96856511Y-122978448D01*
X96839124Y-122985906D01*
X96758833Y-123003097D01*
X96749391Y-123004176D01*
X91259045Y-123095682D01*
X91249370Y-123094882D01*
X91166911Y-123079726D01*
X91148972Y-123072556D01*
X91082951Y-123029430D01*
X91069177Y-123015884D01*
X91024955Y-122950588D01*
X91017488Y-122932770D01*
X91000962Y-122850582D01*
X91000000Y-122840923D01*
X91000000Y-117254823D01*
X91000941Y-117245264D01*
X91017127Y-117163890D01*
X91024444Y-117146226D01*
X91067808Y-117081327D01*
X91081327Y-117067808D01*
X91146226Y-117024444D01*
X91163890Y-117017127D01*
X91245264Y-117000941D01*
X91254823Y-117000000D01*
X91994292Y-117000000D01*
X91994812Y-117000003D01*
G37*
G36*
X254200942Y-37245264D02*
G01*
X254217128Y-37163891D01*
X254224444Y-37146227D01*
X254267808Y-37081328D01*
X254281327Y-37067809D01*
X254346226Y-37024445D01*
X254363889Y-37017129D01*
X254445263Y-37000942D01*
X254454823Y-37000000D01*
X256990647Y-37000000D01*
X256991526Y-37000008D01*
X256999108Y-37000144D01*
X257000848Y-37000206D01*
X257008489Y-37000615D01*
X257009366Y-37000670D01*
X257265922Y-37019019D01*
X257267666Y-37019175D01*
X257282802Y-37020803D01*
X257286263Y-37021301D01*
X257301237Y-37024003D01*
X257302952Y-37024344D01*
X257545125Y-37077025D01*
X257546826Y-37077427D01*
X257561594Y-37081196D01*
X257564953Y-37082182D01*
X257579370Y-37086981D01*
X257581018Y-37087562D01*
X257813257Y-37174182D01*
X257814883Y-37174822D01*
X257828954Y-37180650D01*
X257832138Y-37182104D01*
X257845746Y-37188916D01*
X257847295Y-37189727D01*
X258064822Y-37308506D01*
X258066341Y-37309370D01*
X258079426Y-37317133D01*
X258082372Y-37319027D01*
X258094881Y-37327713D01*
X258096298Y-37328735D01*
X258294693Y-37477252D01*
X258296074Y-37478325D01*
X258307947Y-37487893D01*
X258310591Y-37490183D01*
X258321727Y-37500551D01*
X258322985Y-37501766D01*
X258498234Y-37677015D01*
X258499449Y-37678273D01*
X258509817Y-37689409D01*
X258512107Y-37692053D01*
X258521675Y-37703926D01*
X258522748Y-37705307D01*
X258671265Y-37903702D01*
X258672287Y-37905119D01*
X258680973Y-37917628D01*
X258682867Y-37920574D01*
X258690630Y-37933659D01*
X258691494Y-37935178D01*
X258810273Y-38152705D01*
X258811084Y-38154254D01*
X258817896Y-38167862D01*
X258819350Y-38171046D01*
X258825178Y-38185117D01*
X258825818Y-38186743D01*
X258912438Y-38418982D01*
X258913019Y-38420630D01*
X258917818Y-38435047D01*
X258918804Y-38438406D01*
X258922573Y-38453174D01*
X258922975Y-38454875D01*
X258975656Y-38697048D01*
X258975997Y-38698763D01*
X258978699Y-38713737D01*
X258979197Y-38717198D01*
X258980825Y-38732334D01*
X258980981Y-38734078D01*
X258999330Y-38990634D01*
X258999385Y-38991511D01*
X258999794Y-38999152D01*
X258999856Y-39000892D01*
X258999992Y-39008474D01*
X259000000Y-39009353D01*
X259000000Y-42987127D01*
X258999985Y-42988332D01*
X258999728Y-42998783D01*
X258999610Y-43001183D01*
X258998840Y-43011620D01*
X258998737Y-43012818D01*
X258983316Y-43169388D01*
X258983022Y-43171775D01*
X258979952Y-43192471D01*
X258979014Y-43197187D01*
X258973927Y-43217496D01*
X258973285Y-43219814D01*
X258931376Y-43357971D01*
X258930621Y-43360256D01*
X258923572Y-43379955D01*
X258921734Y-43384394D01*
X258912790Y-43403307D01*
X258911707Y-43405458D01*
X258843636Y-43532808D01*
X258842451Y-43534899D01*
X258831704Y-43552830D01*
X258829032Y-43556830D01*
X258816571Y-43573631D01*
X258815092Y-43575526D01*
X258723488Y-43687146D01*
X258721917Y-43688967D01*
X258707868Y-43704468D01*
X258704467Y-43707869D01*
X258688966Y-43721918D01*
X258687145Y-43723489D01*
X258575525Y-43815093D01*
X258573630Y-43816572D01*
X258556829Y-43829033D01*
X258552829Y-43831705D01*
X258534898Y-43842452D01*
X258532807Y-43843637D01*
X258405457Y-43911708D01*
X258403306Y-43912791D01*
X258384393Y-43921735D01*
X258379954Y-43923573D01*
X258360255Y-43930622D01*
X258357970Y-43931377D01*
X258219813Y-43973286D01*
X258217495Y-43973928D01*
X258197186Y-43979015D01*
X258192470Y-43979953D01*
X258171774Y-43983023D01*
X258169387Y-43983317D01*
X258012817Y-43998738D01*
X258011619Y-43998841D01*
X258001182Y-43999611D01*
X257998777Y-43999729D01*
X257988327Y-43999985D01*
X257987127Y-44000000D01*
X254454823Y-44000000D01*
X254445264Y-43999059D01*
X254363890Y-43982873D01*
X254346226Y-43975556D01*
X254281327Y-43932192D01*
X254267808Y-43918673D01*
X254224444Y-43853774D01*
X254217127Y-43836110D01*
X254200941Y-43754736D01*
X254200000Y-43745177D01*
X254200000Y-37254823D01*
X254200942Y-37245264D01*
G37*
G36*
X161465560Y-117000026D02*
G01*
X161479513Y-117000482D01*
X161482715Y-117000692D01*
X161496594Y-117002059D01*
X161498187Y-117002242D01*
X161856917Y-117049470D01*
X161857979Y-117049622D01*
X161867155Y-117051035D01*
X161869260Y-117051406D01*
X161878341Y-117053213D01*
X161879384Y-117053432D01*
X162282970Y-117142905D01*
X162284010Y-117143148D01*
X162292993Y-117145346D01*
X162295058Y-117145899D01*
X162304006Y-117148507D01*
X162305030Y-117148818D01*
X162699185Y-117273096D01*
X162700196Y-117273427D01*
X162709022Y-117276422D01*
X162711034Y-117277154D01*
X162719698Y-117280523D01*
X162720692Y-117280922D01*
X163102520Y-117439083D01*
X163103503Y-117439503D01*
X163112023Y-117443252D01*
X163113958Y-117444154D01*
X163122346Y-117448290D01*
X163123302Y-117448775D01*
X163489865Y-117639598D01*
X163490807Y-117640101D01*
X163498955Y-117644571D01*
X163500808Y-117645641D01*
X163508767Y-117650471D01*
X163509674Y-117651035D01*
X163858256Y-117873108D01*
X163859152Y-117873693D01*
X163866871Y-117878851D01*
X163868620Y-117880075D01*
X163876127Y-117885579D01*
X163876984Y-117886222D01*
X164204864Y-118137817D01*
X164205701Y-118138474D01*
X164212980Y-118144315D01*
X164214620Y-118145691D01*
X164221615Y-118151825D01*
X164222412Y-118152540D01*
X164527099Y-118431740D01*
X164527873Y-118432464D01*
X164534610Y-118438911D01*
X164536131Y-118440433D01*
X164542555Y-118447145D01*
X164543283Y-118447921D01*
X164822523Y-118752661D01*
X164823238Y-118753459D01*
X164829350Y-118760429D01*
X164830723Y-118762066D01*
X164836559Y-118769338D01*
X164837219Y-118770178D01*
X165088820Y-119098076D01*
X165089461Y-119098932D01*
X165094960Y-119106432D01*
X165096184Y-119108179D01*
X165101356Y-119115918D01*
X165101943Y-119116817D01*
X165323984Y-119465361D01*
X165324546Y-119466266D01*
X165329389Y-119474246D01*
X165330459Y-119476099D01*
X165334920Y-119484230D01*
X165335425Y-119485174D01*
X165526260Y-119851773D01*
X165526743Y-119852726D01*
X165530879Y-119861113D01*
X165531782Y-119863050D01*
X165535516Y-119871536D01*
X165535936Y-119872520D01*
X165694096Y-120254363D01*
X165694495Y-120255356D01*
X165697865Y-120264023D01*
X165698596Y-120266031D01*
X165701597Y-120274872D01*
X165701929Y-120275888D01*
X165826194Y-120670019D01*
X165826504Y-120671041D01*
X165829115Y-120679999D01*
X165829669Y-120682063D01*
X165831870Y-120691057D01*
X165832113Y-120692100D01*
X165921578Y-121095665D01*
X165921799Y-121096718D01*
X165923606Y-121105810D01*
X165923975Y-121107906D01*
X165925389Y-121117090D01*
X165925541Y-121118151D01*
X165979481Y-121527911D01*
X165979608Y-121528965D01*
X165980626Y-121538249D01*
X165980813Y-121540390D01*
X165981420Y-121549664D01*
X165981478Y-121550727D01*
X165999747Y-121969276D01*
X165999768Y-121969803D01*
X165999924Y-121974548D01*
X165999947Y-121975627D01*
X165999997Y-121980238D01*
X166000000Y-121980769D01*
X166000000Y-122749359D01*
X165999078Y-122758819D01*
X165983227Y-122839380D01*
X165976061Y-122856887D01*
X165933549Y-122921381D01*
X165920283Y-122934870D01*
X165856511Y-122978448D01*
X165839124Y-122985906D01*
X165758833Y-123003097D01*
X165749391Y-123004176D01*
X160259045Y-123095682D01*
X160249370Y-123094882D01*
X160166911Y-123079726D01*
X160148972Y-123072556D01*
X160082951Y-123029430D01*
X160069177Y-123015884D01*
X160024955Y-122950588D01*
X160017488Y-122932770D01*
X160000962Y-122850582D01*
X160000000Y-122840923D01*
X160000000Y-117254823D01*
X160000941Y-117245264D01*
X160017127Y-117163890D01*
X160024444Y-117146226D01*
X160067808Y-117081327D01*
X160081327Y-117067808D01*
X160146226Y-117024444D01*
X160163890Y-117017127D01*
X160245264Y-117000941D01*
X160254823Y-117000000D01*
X161463959Y-117000000D01*
X161465560Y-117000026D01*
G37*
G36*
X254200942Y-189245264D02*
G01*
X254217128Y-189163891D01*
X254224444Y-189146227D01*
X254267808Y-189081328D01*
X254281327Y-189067809D01*
X254346226Y-189024445D01*
X254363889Y-189017129D01*
X254445263Y-189000942D01*
X254454823Y-189000000D01*
X256990647Y-189000000D01*
X256991526Y-189000008D01*
X256999108Y-189000144D01*
X257000848Y-189000206D01*
X257008489Y-189000615D01*
X257009366Y-189000670D01*
X257265922Y-189019019D01*
X257267666Y-189019175D01*
X257282802Y-189020803D01*
X257286263Y-189021301D01*
X257301237Y-189024003D01*
X257302952Y-189024344D01*
X257545125Y-189077025D01*
X257546826Y-189077427D01*
X257561594Y-189081196D01*
X257564953Y-189082182D01*
X257579370Y-189086981D01*
X257581018Y-189087562D01*
X257813257Y-189174182D01*
X257814883Y-189174822D01*
X257828954Y-189180650D01*
X257832138Y-189182104D01*
X257845746Y-189188916D01*
X257847295Y-189189727D01*
X258064822Y-189308506D01*
X258066341Y-189309370D01*
X258079426Y-189317133D01*
X258082372Y-189319027D01*
X258094881Y-189327713D01*
X258096298Y-189328735D01*
X258294693Y-189477252D01*
X258296074Y-189478325D01*
X258307947Y-189487893D01*
X258310591Y-189490183D01*
X258321727Y-189500551D01*
X258322985Y-189501766D01*
X258498234Y-189677015D01*
X258499449Y-189678273D01*
X258509817Y-189689409D01*
X258512107Y-189692053D01*
X258521675Y-189703926D01*
X258522748Y-189705307D01*
X258671265Y-189903702D01*
X258672287Y-189905119D01*
X258680973Y-189917628D01*
X258682867Y-189920574D01*
X258690630Y-189933659D01*
X258691494Y-189935178D01*
X258810273Y-190152705D01*
X258811084Y-190154254D01*
X258817896Y-190167862D01*
X258819350Y-190171046D01*
X258825178Y-190185117D01*
X258825818Y-190186743D01*
X258912438Y-190418982D01*
X258913019Y-190420630D01*
X258917818Y-190435047D01*
X258918804Y-190438406D01*
X258922573Y-190453174D01*
X258922975Y-190454875D01*
X258975656Y-190697048D01*
X258975997Y-190698763D01*
X258978699Y-190713737D01*
X258979197Y-190717198D01*
X258980825Y-190732334D01*
X258980981Y-190734078D01*
X258999330Y-190990634D01*
X258999385Y-190991511D01*
X258999794Y-190999152D01*
X258999856Y-191000892D01*
X258999992Y-191008474D01*
X259000000Y-191009353D01*
X259000000Y-194987127D01*
X258999985Y-194988332D01*
X258999728Y-194998783D01*
X258999610Y-195001183D01*
X258998840Y-195011620D01*
X258998737Y-195012818D01*
X258983316Y-195169388D01*
X258983022Y-195171775D01*
X258979952Y-195192471D01*
X258979014Y-195197187D01*
X258973927Y-195217496D01*
X258973285Y-195219814D01*
X258931376Y-195357971D01*
X258930621Y-195360256D01*
X258923572Y-195379955D01*
X258921734Y-195384394D01*
X258912790Y-195403307D01*
X258911707Y-195405458D01*
X258843636Y-195532808D01*
X258842451Y-195534899D01*
X258831704Y-195552830D01*
X258829032Y-195556830D01*
X258816571Y-195573631D01*
X258815092Y-195575526D01*
X258723488Y-195687146D01*
X258721917Y-195688967D01*
X258707868Y-195704468D01*
X258704467Y-195707869D01*
X258688966Y-195721918D01*
X258687145Y-195723489D01*
X258575525Y-195815093D01*
X258573630Y-195816572D01*
X258556829Y-195829033D01*
X258552829Y-195831705D01*
X258534898Y-195842452D01*
X258532807Y-195843637D01*
X258405457Y-195911708D01*
X258403306Y-195912791D01*
X258384393Y-195921735D01*
X258379954Y-195923573D01*
X258360255Y-195930622D01*
X258357970Y-195931377D01*
X258219813Y-195973286D01*
X258217495Y-195973928D01*
X258197186Y-195979015D01*
X258192470Y-195979953D01*
X258171774Y-195983023D01*
X258169387Y-195983317D01*
X258012817Y-195998738D01*
X258011619Y-195998841D01*
X258001182Y-195999611D01*
X257998777Y-195999729D01*
X257988327Y-195999985D01*
X257987127Y-196000000D01*
X254454823Y-196000000D01*
X254445264Y-195999059D01*
X254363890Y-195982873D01*
X254346226Y-195975556D01*
X254281327Y-195932192D01*
X254267808Y-195918673D01*
X254224444Y-195853774D01*
X254217127Y-195836110D01*
X254200941Y-195754736D01*
X254200000Y-195745177D01*
X254200000Y-189254823D01*
X254200942Y-189245264D01*
G37*
M02*
