%TF.GenerationSoftware,KiCad,Pcbnew,7.0.1-3b83917a11~172~ubuntu22.04.1*%
%TF.CreationDate,2023-05-08T15:19:59+02:00*%
%TF.ProjectId,panel,70616e65-6c2e-46b6-9963-61645f706362,C*%
%TF.SameCoordinates,Original*%
%TF.FileFunction,Paste,Top*%
%TF.FilePolarity,Positive*%
%FSLAX46Y46*%
G04 Gerber Fmt 4.6, Leading zero omitted, Abs format (unit mm)*
G04 Created by KiCad (PCBNEW 7.0.1-3b83917a11~172~ubuntu22.04.1) date 2023-05-08 15:19:59*
%MOMM*%
%LPD*%
G01*
G04 APERTURE LIST*
G04 Aperture macros list*
%AMRoundRect*
0 Rectangle with rounded corners*
0 $1 Rounding radius*
0 $2 $3 $4 $5 $6 $7 $8 $9 X,Y pos of 4 corners*
0 Add a 4 corners polygon primitive as box body*
4,1,4,$2,$3,$4,$5,$6,$7,$8,$9,$2,$3,0*
0 Add four circle primitives for the rounded corners*
1,1,$1+$1,$2,$3*
1,1,$1+$1,$4,$5*
1,1,$1+$1,$6,$7*
1,1,$1+$1,$8,$9*
0 Add four rect primitives between the rounded corners*
20,1,$1+$1,$2,$3,$4,$5,0*
20,1,$1+$1,$4,$5,$6,$7,0*
20,1,$1+$1,$6,$7,$8,$9,0*
20,1,$1+$1,$8,$9,$2,$3,0*%
G04 Aperture macros list end*
%ADD10C,0.230000*%
%ADD11RoundRect,0.135000X-0.185000X0.135000X-0.185000X-0.135000X0.185000X-0.135000X0.185000X0.135000X0*%
%ADD12RoundRect,0.140000X0.140000X0.170000X-0.140000X0.170000X-0.140000X-0.170000X0.140000X-0.170000X0*%
%ADD13RoundRect,0.140000X-0.170000X0.140000X-0.170000X-0.140000X0.170000X-0.140000X0.170000X0.140000X0*%
%ADD14RoundRect,0.140000X-0.140000X-0.170000X0.140000X-0.170000X0.140000X0.170000X-0.140000X0.170000X0*%
%ADD15RoundRect,0.135000X0.185000X-0.135000X0.185000X0.135000X-0.185000X0.135000X-0.185000X-0.135000X0*%
%ADD16RoundRect,0.135000X0.135000X0.185000X-0.135000X0.185000X-0.135000X-0.185000X0.135000X-0.185000X0*%
%ADD17RoundRect,0.140000X0.170000X-0.140000X0.170000X0.140000X-0.170000X0.140000X-0.170000X-0.140000X0*%
%ADD18RoundRect,0.200000X-0.200000X-0.275000X0.200000X-0.275000X0.200000X0.275000X-0.200000X0.275000X0*%
%ADD19RoundRect,0.135000X-0.135000X-0.185000X0.135000X-0.185000X0.135000X0.185000X-0.135000X0.185000X0*%
%ADD20RoundRect,0.182500X-0.182500X-0.182500X0.182500X-0.182500X0.182500X0.182500X-0.182500X0.182500X0*%
%ADD21RoundRect,0.062500X-0.350000X-0.062500X0.350000X-0.062500X0.350000X0.062500X-0.350000X0.062500X0*%
%ADD22RoundRect,0.062500X-0.062500X-0.350000X0.062500X-0.350000X0.062500X0.350000X-0.062500X0.350000X0*%
%ADD23C,0.900000*%
%ADD24C,0.700000*%
%ADD25RoundRect,0.218750X-0.218750X-0.256250X0.218750X-0.256250X0.218750X0.256250X-0.218750X0.256250X0*%
%ADD26RoundRect,0.525000X0.975000X-0.525000X0.975000X0.525000X-0.975000X0.525000X-0.975000X-0.525000X0*%
%ADD27RoundRect,0.200000X0.600000X-0.200000X0.600000X0.200000X-0.600000X0.200000X-0.600000X-0.200000X0*%
%ADD28RoundRect,0.200000X-0.600000X0.200000X-0.600000X-0.200000X0.600000X-0.200000X0.600000X0.200000X0*%
%ADD29RoundRect,0.182500X-0.182500X0.182500X-0.182500X-0.182500X0.182500X-0.182500X0.182500X0.182500X0*%
%ADD30RoundRect,0.062500X-0.062500X0.350000X-0.062500X-0.350000X0.062500X-0.350000X0.062500X0.350000X0*%
%ADD31RoundRect,0.062500X-0.350000X0.062500X-0.350000X-0.062500X0.350000X-0.062500X0.350000X0.062500X0*%
%ADD32RoundRect,0.087500X0.087500X0.712500X-0.087500X0.712500X-0.087500X-0.712500X0.087500X-0.712500X0*%
%ADD33RoundRect,0.182500X0.182500X-0.182500X0.182500X0.182500X-0.182500X0.182500X-0.182500X-0.182500X0*%
%ADD34RoundRect,0.062500X0.062500X-0.350000X0.062500X0.350000X-0.062500X0.350000X-0.062500X-0.350000X0*%
%ADD35RoundRect,0.062500X0.350000X-0.062500X0.350000X0.062500X-0.350000X0.062500X-0.350000X-0.062500X0*%
%ADD36RoundRect,0.250000X0.275000X-0.287500X0.275000X0.287500X-0.275000X0.287500X-0.275000X-0.287500X0*%
%ADD37RoundRect,0.155000X0.155000X-0.212500X0.155000X0.212500X-0.155000X0.212500X-0.155000X-0.212500X0*%
%ADD38R,0.350000X0.375000*%
%ADD39R,0.375000X0.350000*%
%ADD40RoundRect,0.250000X-0.275000X0.287500X-0.275000X-0.287500X0.275000X-0.287500X0.275000X0.287500X0*%
%ADD41R,0.580000X0.720000*%
%ADD42R,0.720000X0.580000*%
%ADD43RoundRect,0.147500X0.172500X-0.147500X0.172500X0.147500X-0.172500X0.147500X-0.172500X-0.147500X0*%
%ADD44RoundRect,0.225000X-0.225000X-0.250000X0.225000X-0.250000X0.225000X0.250000X-0.225000X0.250000X0*%
%ADD45RoundRect,0.218750X0.218750X0.256250X-0.218750X0.256250X-0.218750X-0.256250X0.218750X-0.256250X0*%
%ADD46RoundRect,0.218750X-0.256250X0.218750X-0.256250X-0.218750X0.256250X-0.218750X0.256250X0.218750X0*%
%ADD47RoundRect,0.147500X-0.147500X-0.172500X0.147500X-0.172500X0.147500X0.172500X-0.147500X0.172500X0*%
%ADD48RoundRect,0.237500X-0.287500X-0.237500X0.287500X-0.237500X0.287500X0.237500X-0.287500X0.237500X0*%
%ADD49R,1.000000X0.375000*%
%ADD50R,1.200000X0.300000*%
%ADD51RoundRect,0.275000X0.275000X-0.375000X0.275000X0.375000X-0.275000X0.375000X-0.275000X-0.375000X0*%
%ADD52RoundRect,0.275000X-0.275000X0.375000X-0.275000X-0.375000X0.275000X-0.375000X0.275000X0.375000X0*%
%ADD53RoundRect,0.525000X-0.525000X-0.975000X0.525000X-0.975000X0.525000X0.975000X-0.525000X0.975000X0*%
%ADD54RoundRect,0.200000X-0.200000X-0.600000X0.200000X-0.600000X0.200000X0.600000X-0.200000X0.600000X0*%
%ADD55RoundRect,0.200000X0.200000X0.600000X-0.200000X0.600000X-0.200000X-0.600000X0.200000X-0.600000X0*%
%ADD56RoundRect,0.200000X0.200000X0.275000X-0.200000X0.275000X-0.200000X-0.275000X0.200000X-0.275000X0*%
%ADD57R,0.350000X0.500000*%
%ADD58RoundRect,0.150000X-0.512500X-0.150000X0.512500X-0.150000X0.512500X0.150000X-0.512500X0.150000X0*%
%ADD59RoundRect,0.150000X-0.150000X-0.200000X0.150000X-0.200000X0.150000X0.200000X-0.150000X0.200000X0*%
%ADD60RoundRect,0.075000X0.075000X-0.700000X0.075000X0.700000X-0.075000X0.700000X-0.075000X-0.700000X0*%
%ADD61RoundRect,0.075000X0.700000X-0.075000X0.700000X0.075000X-0.700000X0.075000X-0.700000X-0.075000X0*%
%ADD62RoundRect,0.150000X0.512500X0.150000X-0.512500X0.150000X-0.512500X-0.150000X0.512500X-0.150000X0*%
%ADD63RoundRect,0.150000X0.150000X-0.512500X0.150000X0.512500X-0.150000X0.512500X-0.150000X-0.512500X0*%
%ADD64RoundRect,0.147500X-0.172500X0.147500X-0.172500X-0.147500X0.172500X-0.147500X0.172500X0.147500X0*%
%ADD65RoundRect,0.237500X-0.237500X0.287500X-0.237500X-0.287500X0.237500X-0.287500X0.237500X0.287500X0*%
%ADD66RoundRect,0.150000X-0.150000X0.512500X-0.150000X-0.512500X0.150000X-0.512500X0.150000X0.512500X0*%
%ADD67RoundRect,0.147500X0.147500X0.172500X-0.147500X0.172500X-0.147500X-0.172500X0.147500X-0.172500X0*%
%ADD68RoundRect,0.525000X-0.975000X0.525000X-0.975000X-0.525000X0.975000X-0.525000X0.975000X0.525000X0*%
%ADD69R,1.300000X1.100000*%
%ADD70R,1.250000X1.000000*%
%ADD71RoundRect,0.075000X0.075000X-0.325000X0.075000X0.325000X-0.075000X0.325000X-0.075000X-0.325000X0*%
%ADD72RoundRect,0.075000X-0.075000X0.325000X-0.075000X-0.325000X0.075000X-0.325000X0.075000X0.325000X0*%
%ADD73RoundRect,0.075000X0.325000X0.075000X-0.325000X0.075000X-0.325000X-0.075000X0.325000X-0.075000X0*%
%ADD74RoundRect,0.075000X-0.325000X-0.075000X0.325000X-0.075000X0.325000X0.075000X-0.325000X0.075000X0*%
%ADD75RoundRect,0.111600X-0.788400X0.788400X-0.788400X-0.788400X0.788400X-0.788400X0.788400X0.788400X0*%
%ADD76RoundRect,0.111600X-0.788400X-0.788400X0.788400X-0.788400X0.788400X0.788400X-0.788400X0.788400X0*%
%ADD77RoundRect,0.111600X0.788400X0.788400X-0.788400X0.788400X-0.788400X-0.788400X0.788400X-0.788400X0*%
%ADD78RoundRect,0.111600X0.788400X-0.788400X0.788400X0.788400X-0.788400X0.788400X-0.788400X-0.788400X0*%
%ADD79R,1.900000X1.100000*%
%ADD80R,1.500000X0.520000*%
%ADD81R,1.500000X0.280000*%
%ADD82R,1.500000X0.523000*%
%ADD83RoundRect,0.300000X0.500000X-0.300000X0.500000X0.300000X-0.500000X0.300000X-0.500000X-0.300000X0*%
%ADD84RoundRect,0.150000X0.825000X0.150000X-0.825000X0.150000X-0.825000X-0.150000X0.825000X-0.150000X0*%
%ADD85R,1.000000X0.600000*%
%ADD86R,1.250000X0.800000*%
%ADD87R,1.250000X1.160000*%
%ADD88R,2.500000X0.950000*%
%ADD89R,2.200000X1.150000*%
%ADD90R,1.150000X1.500000*%
%ADD91RoundRect,0.075000X-0.100000X0.350000X-0.100000X-0.350000X0.100000X-0.350000X0.100000X0.350000X0*%
%ADD92RoundRect,0.250000X1.500000X-0.250000X1.500000X0.250000X-1.500000X0.250000X-1.500000X-0.250000X0*%
%ADD93RoundRect,0.250001X1.449999X-0.499999X1.449999X0.499999X-1.449999X0.499999X-1.449999X-0.499999X0*%
G04 APERTURE END LIST*
D10*
%TO.C,MK1406*%
X185035825Y-218105834D02*
G75*
G03*
X184585000Y-217655009I-690408J-239583D01*
G01*
X184105836Y-217655009D02*
G75*
G03*
X183655011Y-218105834I239583J-690408D01*
G01*
X184585000Y-219035825D02*
G75*
G03*
X185035825Y-218585000I-239583J690408D01*
G01*
X183655011Y-218584998D02*
G75*
G03*
X184105836Y-219035823I690408J239583D01*
G01*
%TO.C,MK1403*%
X195355834Y-146314175D02*
G75*
G03*
X194905009Y-146765000I239583J-690408D01*
G01*
X194905009Y-147244164D02*
G75*
G03*
X195355834Y-147694989I690408J239583D01*
G01*
X196285825Y-146765000D02*
G75*
G03*
X195835000Y-146314175I-690408J-239583D01*
G01*
X195834998Y-147694989D02*
G75*
G03*
X196285823Y-147244164I-239583J690408D01*
G01*
%TO.C,MK1405*%
X192964175Y-227894166D02*
G75*
G03*
X193415000Y-228344991I690408J239583D01*
G01*
X193894164Y-228344991D02*
G75*
G03*
X194344989Y-227894166I-239583J690408D01*
G01*
X193415000Y-226964175D02*
G75*
G03*
X192964175Y-227415000I239583J-690408D01*
G01*
X194344989Y-227415002D02*
G75*
G03*
X193894164Y-226964177I-690408J-239583D01*
G01*
%TO.C,MK1406*%
X231035825Y-218105834D02*
G75*
G03*
X230585000Y-217655009I-690408J-239583D01*
G01*
X230105836Y-217655009D02*
G75*
G03*
X229655011Y-218105834I239583J-690408D01*
G01*
X230585000Y-219035825D02*
G75*
G03*
X231035825Y-218585000I-239583J690408D01*
G01*
X229655011Y-218584998D02*
G75*
G03*
X230105836Y-219035823I690408J239583D01*
G01*
%TO.C,MK1407*%
X229664175Y-151894166D02*
G75*
G03*
X230115000Y-152344991I690408J239583D01*
G01*
X230594164Y-152344991D02*
G75*
G03*
X231044989Y-151894166I-239583J690408D01*
G01*
X230115000Y-150964175D02*
G75*
G03*
X229664175Y-151415000I239583J-690408D01*
G01*
X231044989Y-151415002D02*
G75*
G03*
X230594164Y-150964177I-690408J-239583D01*
G01*
X229664175Y-75894166D02*
G75*
G03*
X230115000Y-76344991I690408J239583D01*
G01*
X230594164Y-76344991D02*
G75*
G03*
X231044989Y-75894166I-239583J690408D01*
G01*
X230115000Y-74964175D02*
G75*
G03*
X229664175Y-75415000I239583J-690408D01*
G01*
X231044989Y-75415002D02*
G75*
G03*
X230594164Y-74964177I-690408J-239583D01*
G01*
%TO.C,MK1403*%
X195355834Y-70314175D02*
G75*
G03*
X194905009Y-70765000I239583J-690408D01*
G01*
X194905009Y-71244164D02*
G75*
G03*
X195355834Y-71694989I690408J239583D01*
G01*
X196285825Y-70765000D02*
G75*
G03*
X195835000Y-70314175I-690408J-239583D01*
G01*
X195834998Y-71694989D02*
G75*
G03*
X196285823Y-71244164I-239583J690408D01*
G01*
%TO.C,MK1407*%
X229664175Y-227894166D02*
G75*
G03*
X230115000Y-228344991I690408J239583D01*
G01*
X230594164Y-228344991D02*
G75*
G03*
X231044989Y-227894166I-239583J690408D01*
G01*
X230115000Y-226964175D02*
G75*
G03*
X229664175Y-227415000I239583J-690408D01*
G01*
X231044989Y-227415002D02*
G75*
G03*
X230594164Y-226964177I-690408J-239583D01*
G01*
%TO.C,MK1408*%
X240335825Y-66105834D02*
G75*
G03*
X239885000Y-65655009I-690408J-239583D01*
G01*
X239405836Y-65655009D02*
G75*
G03*
X238955011Y-66105834I239583J-690408D01*
G01*
X239885000Y-67035825D02*
G75*
G03*
X240335825Y-66585000I-239583J690408D01*
G01*
X238955011Y-66584998D02*
G75*
G03*
X239405836Y-67035823I690408J239583D01*
G01*
%TO.C,MK1407*%
X183664175Y-75894166D02*
G75*
G03*
X184115000Y-76344991I690408J239583D01*
G01*
X184594164Y-76344991D02*
G75*
G03*
X185044989Y-75894166I-239583J690408D01*
G01*
X184115000Y-74964175D02*
G75*
G03*
X183664175Y-75415000I239583J-690408D01*
G01*
X185044989Y-75415002D02*
G75*
G03*
X184594164Y-74964177I-690408J-239583D01*
G01*
%TO.C,MK1404*%
X182644166Y-223685825D02*
G75*
G03*
X183094991Y-223235000I-239583J690408D01*
G01*
X183094991Y-222755836D02*
G75*
G03*
X182644166Y-222305011I-690408J-239583D01*
G01*
X181714175Y-223235000D02*
G75*
G03*
X182165000Y-223685825I690408J239583D01*
G01*
X182165002Y-222305011D02*
G75*
G03*
X181714177Y-222755836I239583J-690408D01*
G01*
X228644166Y-223685825D02*
G75*
G03*
X229094991Y-223235000I-239583J690408D01*
G01*
X229094991Y-222755836D02*
G75*
G03*
X228644166Y-222305011I-690408J-239583D01*
G01*
X227714175Y-223235000D02*
G75*
G03*
X228165000Y-223685825I690408J239583D01*
G01*
X228165002Y-222305011D02*
G75*
G03*
X227714177Y-222755836I239583J-690408D01*
G01*
%TO.C,MK1408*%
X240335825Y-218105834D02*
G75*
G03*
X239885000Y-217655009I-690408J-239583D01*
G01*
X239405836Y-217655009D02*
G75*
G03*
X238955011Y-218105834I239583J-690408D01*
G01*
X239885000Y-219035825D02*
G75*
G03*
X240335825Y-218585000I-239583J690408D01*
G01*
X238955011Y-218584998D02*
G75*
G03*
X239405836Y-219035823I690408J239583D01*
G01*
%TO.C,MK1402*%
X235685825Y-64155834D02*
G75*
G03*
X235235000Y-63705009I-690408J-239583D01*
G01*
X234755836Y-63705009D02*
G75*
G03*
X234305011Y-64155834I239583J-690408D01*
G01*
X235235000Y-65085825D02*
G75*
G03*
X235685825Y-64635000I-239583J690408D01*
G01*
X234305011Y-64634998D02*
G75*
G03*
X234755836Y-65085823I690408J239583D01*
G01*
X189685825Y-64155834D02*
G75*
G03*
X189235000Y-63705009I-690408J-239583D01*
G01*
X188755836Y-63705009D02*
G75*
G03*
X188305011Y-64155834I239583J-690408D01*
G01*
X189235000Y-65085825D02*
G75*
G03*
X189685825Y-64635000I-239583J690408D01*
G01*
X188305011Y-64634998D02*
G75*
G03*
X188755836Y-65085823I690408J239583D01*
G01*
%TO.C,MK1404*%
X182644166Y-147685825D02*
G75*
G03*
X183094991Y-147235000I-239583J690408D01*
G01*
X183094991Y-146755836D02*
G75*
G03*
X182644166Y-146305011I-690408J-239583D01*
G01*
X181714175Y-147235000D02*
G75*
G03*
X182165000Y-147685825I690408J239583D01*
G01*
X182165002Y-146305011D02*
G75*
G03*
X181714177Y-146755836I239583J-690408D01*
G01*
%TO.C,MK1401*%
X234314175Y-229844166D02*
G75*
G03*
X234765000Y-230294991I690408J239583D01*
G01*
X235244164Y-230294991D02*
G75*
G03*
X235694989Y-229844166I-239583J690408D01*
G01*
X234765000Y-228914175D02*
G75*
G03*
X234314175Y-229365000I239583J-690408D01*
G01*
X235694989Y-229365002D02*
G75*
G03*
X235244164Y-228914177I-690408J-239583D01*
G01*
%TO.C,MK1402*%
X235685825Y-216155834D02*
G75*
G03*
X235235000Y-215705009I-690408J-239583D01*
G01*
X234755836Y-215705009D02*
G75*
G03*
X234305011Y-216155834I239583J-690408D01*
G01*
X235235000Y-217085825D02*
G75*
G03*
X235685825Y-216635000I-239583J690408D01*
G01*
X234305011Y-216634998D02*
G75*
G03*
X234755836Y-217085823I690408J239583D01*
G01*
%TO.C,MK1401*%
X234314175Y-153844166D02*
G75*
G03*
X234765000Y-154294991I690408J239583D01*
G01*
X235244164Y-154294991D02*
G75*
G03*
X235694989Y-153844166I-239583J690408D01*
G01*
X234765000Y-152914175D02*
G75*
G03*
X234314175Y-153365000I239583J-690408D01*
G01*
X235694989Y-153365002D02*
G75*
G03*
X235244164Y-152914177I-690408J-239583D01*
G01*
%TO.C,MK1404*%
X228644166Y-147685825D02*
G75*
G03*
X229094991Y-147235000I-239583J690408D01*
G01*
X229094991Y-146755836D02*
G75*
G03*
X228644166Y-146305011I-690408J-239583D01*
G01*
X227714175Y-147235000D02*
G75*
G03*
X228165000Y-147685825I690408J239583D01*
G01*
X228165002Y-146305011D02*
G75*
G03*
X227714177Y-146755836I239583J-690408D01*
G01*
%TO.C,MK1402*%
X189685825Y-216155834D02*
G75*
G03*
X189235000Y-215705009I-690408J-239583D01*
G01*
X188755836Y-215705009D02*
G75*
G03*
X188305011Y-216155834I239583J-690408D01*
G01*
X189235000Y-217085825D02*
G75*
G03*
X189685825Y-216635000I-239583J690408D01*
G01*
X188305011Y-216634998D02*
G75*
G03*
X188755836Y-217085823I690408J239583D01*
G01*
%TO.C,MK1403*%
X241355834Y-70314175D02*
G75*
G03*
X240905009Y-70765000I239583J-690408D01*
G01*
X240905009Y-71244164D02*
G75*
G03*
X241355834Y-71694989I690408J239583D01*
G01*
X242285825Y-70765000D02*
G75*
G03*
X241835000Y-70314175I-690408J-239583D01*
G01*
X241834998Y-71694989D02*
G75*
G03*
X242285823Y-71244164I-239583J690408D01*
G01*
%TO.C,MK1406*%
X185035825Y-142105834D02*
G75*
G03*
X184585000Y-141655009I-690408J-239583D01*
G01*
X184105836Y-141655009D02*
G75*
G03*
X183655011Y-142105834I239583J-690408D01*
G01*
X184585000Y-143035825D02*
G75*
G03*
X185035825Y-142585000I-239583J690408D01*
G01*
X183655011Y-142584998D02*
G75*
G03*
X184105836Y-143035823I690408J239583D01*
G01*
%TO.C,MK1403*%
X241355834Y-222314175D02*
G75*
G03*
X240905009Y-222765000I239583J-690408D01*
G01*
X240905009Y-223244164D02*
G75*
G03*
X241355834Y-223694989I690408J239583D01*
G01*
X242285825Y-222765000D02*
G75*
G03*
X241835000Y-222314175I-690408J-239583D01*
G01*
X241834998Y-223694989D02*
G75*
G03*
X242285823Y-223244164I-239583J690408D01*
G01*
%TO.C,MK1402*%
X189685825Y-140155834D02*
G75*
G03*
X189235000Y-139705009I-690408J-239583D01*
G01*
X188755836Y-139705009D02*
G75*
G03*
X188305011Y-140155834I239583J-690408D01*
G01*
X189235000Y-141085825D02*
G75*
G03*
X189685825Y-140635000I-239583J690408D01*
G01*
X188305011Y-140634998D02*
G75*
G03*
X188755836Y-141085823I690408J239583D01*
G01*
%TO.C,MK1404*%
X182644166Y-71685825D02*
G75*
G03*
X183094991Y-71235000I-239583J690408D01*
G01*
X183094991Y-70755836D02*
G75*
G03*
X182644166Y-70305011I-690408J-239583D01*
G01*
X181714175Y-71235000D02*
G75*
G03*
X182165000Y-71685825I690408J239583D01*
G01*
X182165002Y-70305011D02*
G75*
G03*
X181714177Y-70755836I239583J-690408D01*
G01*
%TO.C,MK1408*%
X194335825Y-142105834D02*
G75*
G03*
X193885000Y-141655009I-690408J-239583D01*
G01*
X193405836Y-141655009D02*
G75*
G03*
X192955011Y-142105834I239583J-690408D01*
G01*
X193885000Y-143035825D02*
G75*
G03*
X194335825Y-142585000I-239583J690408D01*
G01*
X192955011Y-142584998D02*
G75*
G03*
X193405836Y-143035823I690408J239583D01*
G01*
%TO.C,MK1401*%
X188314175Y-229844166D02*
G75*
G03*
X188765000Y-230294991I690408J239583D01*
G01*
X189244164Y-230294991D02*
G75*
G03*
X189694989Y-229844166I-239583J690408D01*
G01*
X188765000Y-228914175D02*
G75*
G03*
X188314175Y-229365000I239583J-690408D01*
G01*
X189694989Y-229365002D02*
G75*
G03*
X189244164Y-228914177I-690408J-239583D01*
G01*
%TO.C,MK1408*%
X240335825Y-142105834D02*
G75*
G03*
X239885000Y-141655009I-690408J-239583D01*
G01*
X239405836Y-141655009D02*
G75*
G03*
X238955011Y-142105834I239583J-690408D01*
G01*
X239885000Y-143035825D02*
G75*
G03*
X240335825Y-142585000I-239583J690408D01*
G01*
X238955011Y-142584998D02*
G75*
G03*
X239405836Y-143035823I690408J239583D01*
G01*
%TO.C,MK1405*%
X192964175Y-151894166D02*
G75*
G03*
X193415000Y-152344991I690408J239583D01*
G01*
X193894164Y-152344991D02*
G75*
G03*
X194344989Y-151894166I-239583J690408D01*
G01*
X193415000Y-150964175D02*
G75*
G03*
X192964175Y-151415000I239583J-690408D01*
G01*
X194344989Y-151415002D02*
G75*
G03*
X193894164Y-150964177I-690408J-239583D01*
G01*
%TO.C,MK1401*%
X234314175Y-77844166D02*
G75*
G03*
X234765000Y-78294991I690408J239583D01*
G01*
X235244164Y-78294991D02*
G75*
G03*
X235694989Y-77844166I-239583J690408D01*
G01*
X234765000Y-76914175D02*
G75*
G03*
X234314175Y-77365000I239583J-690408D01*
G01*
X235694989Y-77365002D02*
G75*
G03*
X235244164Y-76914177I-690408J-239583D01*
G01*
%TO.C,MK1408*%
X194335825Y-218105834D02*
G75*
G03*
X193885000Y-217655009I-690408J-239583D01*
G01*
X193405836Y-217655009D02*
G75*
G03*
X192955011Y-218105834I239583J-690408D01*
G01*
X193885000Y-219035825D02*
G75*
G03*
X194335825Y-218585000I-239583J690408D01*
G01*
X192955011Y-218584998D02*
G75*
G03*
X193405836Y-219035823I690408J239583D01*
G01*
%TO.C,MK1407*%
X183664175Y-227894166D02*
G75*
G03*
X184115000Y-228344991I690408J239583D01*
G01*
X184594164Y-228344991D02*
G75*
G03*
X185044989Y-227894166I-239583J690408D01*
G01*
X184115000Y-226964175D02*
G75*
G03*
X183664175Y-227415000I239583J-690408D01*
G01*
X185044989Y-227415002D02*
G75*
G03*
X184594164Y-226964177I-690408J-239583D01*
G01*
%TO.C,MK1403*%
X241355834Y-146314175D02*
G75*
G03*
X240905009Y-146765000I239583J-690408D01*
G01*
X240905009Y-147244164D02*
G75*
G03*
X241355834Y-147694989I690408J239583D01*
G01*
X242285825Y-146765000D02*
G75*
G03*
X241835000Y-146314175I-690408J-239583D01*
G01*
X241834998Y-147694989D02*
G75*
G03*
X242285823Y-147244164I-239583J690408D01*
G01*
%TO.C,MK1405*%
X238964175Y-227894166D02*
G75*
G03*
X239415000Y-228344991I690408J239583D01*
G01*
X239894164Y-228344991D02*
G75*
G03*
X240344989Y-227894166I-239583J690408D01*
G01*
X239415000Y-226964175D02*
G75*
G03*
X238964175Y-227415000I239583J-690408D01*
G01*
X240344989Y-227415002D02*
G75*
G03*
X239894164Y-226964177I-690408J-239583D01*
G01*
%TO.C,MK1406*%
X231035825Y-66105834D02*
G75*
G03*
X230585000Y-65655009I-690408J-239583D01*
G01*
X230105836Y-65655009D02*
G75*
G03*
X229655011Y-66105834I239583J-690408D01*
G01*
X230585000Y-67035825D02*
G75*
G03*
X231035825Y-66585000I-239583J690408D01*
G01*
X229655011Y-66584998D02*
G75*
G03*
X230105836Y-67035823I690408J239583D01*
G01*
%TO.C,MK1402*%
X235685825Y-140155834D02*
G75*
G03*
X235235000Y-139705009I-690408J-239583D01*
G01*
X234755836Y-139705009D02*
G75*
G03*
X234305011Y-140155834I239583J-690408D01*
G01*
X235235000Y-141085825D02*
G75*
G03*
X235685825Y-140635000I-239583J690408D01*
G01*
X234305011Y-140634998D02*
G75*
G03*
X234755836Y-141085823I690408J239583D01*
G01*
%TO.C,MK1405*%
X238964175Y-151894166D02*
G75*
G03*
X239415000Y-152344991I690408J239583D01*
G01*
X239894164Y-152344991D02*
G75*
G03*
X240344989Y-151894166I-239583J690408D01*
G01*
X239415000Y-150964175D02*
G75*
G03*
X238964175Y-151415000I239583J-690408D01*
G01*
X240344989Y-151415002D02*
G75*
G03*
X239894164Y-150964177I-690408J-239583D01*
G01*
%TO.C,MK1403*%
X195355834Y-222314175D02*
G75*
G03*
X194905009Y-222765000I239583J-690408D01*
G01*
X194905009Y-223244164D02*
G75*
G03*
X195355834Y-223694989I690408J239583D01*
G01*
X196285825Y-222765000D02*
G75*
G03*
X195835000Y-222314175I-690408J-239583D01*
G01*
X195834998Y-223694989D02*
G75*
G03*
X196285823Y-223244164I-239583J690408D01*
G01*
%TO.C,MK1406*%
X185035825Y-66105834D02*
G75*
G03*
X184585000Y-65655009I-690408J-239583D01*
G01*
X184105836Y-65655009D02*
G75*
G03*
X183655011Y-66105834I239583J-690408D01*
G01*
X184585000Y-67035825D02*
G75*
G03*
X185035825Y-66585000I-239583J690408D01*
G01*
X183655011Y-66584998D02*
G75*
G03*
X184105836Y-67035823I690408J239583D01*
G01*
%TO.C,MK1405*%
X192964175Y-75894166D02*
G75*
G03*
X193415000Y-76344991I690408J239583D01*
G01*
X193894164Y-76344991D02*
G75*
G03*
X194344989Y-75894166I-239583J690408D01*
G01*
X193415000Y-74964175D02*
G75*
G03*
X192964175Y-75415000I239583J-690408D01*
G01*
X194344989Y-75415002D02*
G75*
G03*
X193894164Y-74964177I-690408J-239583D01*
G01*
%TO.C,MK1401*%
X188314175Y-153844166D02*
G75*
G03*
X188765000Y-154294991I690408J239583D01*
G01*
X189244164Y-154294991D02*
G75*
G03*
X189694989Y-153844166I-239583J690408D01*
G01*
X188765000Y-152914175D02*
G75*
G03*
X188314175Y-153365000I239583J-690408D01*
G01*
X189694989Y-153365002D02*
G75*
G03*
X189244164Y-152914177I-690408J-239583D01*
G01*
%TO.C,MK1405*%
X238964175Y-75894166D02*
G75*
G03*
X239415000Y-76344991I690408J239583D01*
G01*
X239894164Y-76344991D02*
G75*
G03*
X240344989Y-75894166I-239583J690408D01*
G01*
X239415000Y-74964175D02*
G75*
G03*
X238964175Y-75415000I239583J-690408D01*
G01*
X240344989Y-75415002D02*
G75*
G03*
X239894164Y-74964177I-690408J-239583D01*
G01*
%TO.C,MK1408*%
X194335825Y-66105834D02*
G75*
G03*
X193885000Y-65655009I-690408J-239583D01*
G01*
X193405836Y-65655009D02*
G75*
G03*
X192955011Y-66105834I239583J-690408D01*
G01*
X193885000Y-67035825D02*
G75*
G03*
X194335825Y-66585000I-239583J690408D01*
G01*
X192955011Y-66584998D02*
G75*
G03*
X193405836Y-67035823I690408J239583D01*
G01*
%TO.C,MK1404*%
X228644166Y-71685825D02*
G75*
G03*
X229094991Y-71235000I-239583J690408D01*
G01*
X229094991Y-70755836D02*
G75*
G03*
X228644166Y-70305011I-690408J-239583D01*
G01*
X227714175Y-71235000D02*
G75*
G03*
X228165000Y-71685825I690408J239583D01*
G01*
X228165002Y-70305011D02*
G75*
G03*
X227714177Y-70755836I239583J-690408D01*
G01*
%TO.C,MK1407*%
X183664175Y-151894166D02*
G75*
G03*
X184115000Y-152344991I690408J239583D01*
G01*
X184594164Y-152344991D02*
G75*
G03*
X185044989Y-151894166I-239583J690408D01*
G01*
X184115000Y-150964175D02*
G75*
G03*
X183664175Y-151415000I239583J-690408D01*
G01*
X185044989Y-151415002D02*
G75*
G03*
X184594164Y-150964177I-690408J-239583D01*
G01*
%TO.C,MK1406*%
X231035825Y-142105834D02*
G75*
G03*
X230585000Y-141655009I-690408J-239583D01*
G01*
X230105836Y-141655009D02*
G75*
G03*
X229655011Y-142105834I239583J-690408D01*
G01*
X230585000Y-143035825D02*
G75*
G03*
X231035825Y-142585000I-239583J690408D01*
G01*
X229655011Y-142584998D02*
G75*
G03*
X230105836Y-143035823I690408J239583D01*
G01*
%TO.C,MK1401*%
X188314175Y-77844166D02*
G75*
G03*
X188765000Y-78294991I690408J239583D01*
G01*
X189244164Y-78294991D02*
G75*
G03*
X189694989Y-77844166I-239583J690408D01*
G01*
X188765000Y-76914175D02*
G75*
G03*
X188314175Y-77365000I239583J-690408D01*
G01*
X189694989Y-77365002D02*
G75*
G03*
X189244164Y-76914177I-690408J-239583D01*
G01*
%TD*%
D11*
%TO.C,R1623*%
X257100000Y-140190000D03*
X257100000Y-141210000D03*
%TD*%
D12*
%TO.C,C302*%
X161480000Y-59400000D03*
X160520000Y-59400000D03*
%TD*%
D11*
%TO.C,R1615*%
X231550000Y-155940000D03*
X231550000Y-156960000D03*
%TD*%
D12*
%TO.C,CB1402*%
X231430000Y-62050000D03*
X230470000Y-62050000D03*
%TD*%
D13*
%TO.C,CB1603*%
X257700000Y-147640000D03*
X257700000Y-148600000D03*
%TD*%
D11*
%TO.C,R601*%
X46600000Y-60890000D03*
X46600000Y-61910000D03*
%TD*%
D14*
%TO.C,C1402*%
X192570000Y-81000000D03*
X193530000Y-81000000D03*
%TD*%
D13*
%TO.C,C1508*%
X236300000Y-69920000D03*
X236300000Y-70880000D03*
%TD*%
D11*
%TO.C,R1613*%
X194850000Y-231990000D03*
X194850000Y-233010000D03*
%TD*%
D13*
%TO.C,C911*%
X88500000Y-130720000D03*
X88500000Y-131680000D03*
%TD*%
D15*
%TO.C,R1630*%
X211100000Y-153810000D03*
X211100000Y-152790000D03*
%TD*%
D16*
%TO.C,R1624*%
X251410000Y-142600000D03*
X250390000Y-142600000D03*
%TD*%
%TO.C,R409*%
X76510000Y-198050000D03*
X75490000Y-198050000D03*
%TD*%
D13*
%TO.C,C1605*%
X203500000Y-239740000D03*
X203500000Y-240700000D03*
%TD*%
D17*
%TO.C,CB1607*%
X253800000Y-78380000D03*
X253800000Y-77420000D03*
%TD*%
D11*
%TO.C,R907*%
X95300000Y-150490000D03*
X95300000Y-151510000D03*
%TD*%
D18*
%TO.C,R914*%
X88582800Y-165414000D03*
X90232800Y-165414000D03*
%TD*%
D15*
%TO.C,R1001*%
X182900000Y-163610000D03*
X182900000Y-162590000D03*
%TD*%
D18*
%TO.C,R208*%
X90175000Y-128900000D03*
X91825000Y-128900000D03*
%TD*%
D17*
%TO.C,C706*%
X50200000Y-203080000D03*
X50200000Y-202120000D03*
%TD*%
D15*
%TO.C,R707*%
X55800000Y-203110000D03*
X55800000Y-202090000D03*
%TD*%
%TO.C,R1616*%
X238450000Y-214060000D03*
X238450000Y-213040000D03*
%TD*%
D12*
%TO.C,CB903*%
X87880000Y-168400000D03*
X86920000Y-168400000D03*
%TD*%
D16*
%TO.C,R1608*%
X254710000Y-92300000D03*
X253690000Y-92300000D03*
%TD*%
D15*
%TO.C,R1001*%
X182900000Y-87610000D03*
X182900000Y-86590000D03*
%TD*%
D16*
%TO.C,R303*%
X162710000Y-85400000D03*
X161690000Y-85400000D03*
%TD*%
D13*
%TO.C,C106*%
X63012400Y-227570000D03*
X63012400Y-228530000D03*
%TD*%
D12*
%TO.C,C912*%
X83880000Y-53200000D03*
X82920000Y-53200000D03*
%TD*%
D14*
%TO.C,C1005*%
X232320000Y-246200000D03*
X233280000Y-246200000D03*
%TD*%
D19*
%TO.C,R201*%
X56490000Y-160200000D03*
X57510000Y-160200000D03*
%TD*%
D17*
%TO.C,CB1606*%
X257700000Y-222400000D03*
X257700000Y-221440000D03*
%TD*%
D12*
%TO.C,CB1002*%
X228880000Y-92600000D03*
X227920000Y-92600000D03*
%TD*%
D20*
%TO.C,U801*%
X52580000Y-60980000D03*
X52580000Y-61820000D03*
X53420000Y-60980000D03*
X53420000Y-61820000D03*
D21*
X51537500Y-60650000D03*
X51537500Y-61150000D03*
X51537500Y-61650000D03*
X51537500Y-62150000D03*
D22*
X52250000Y-62862500D03*
X52750000Y-62862500D03*
X53250000Y-62862500D03*
X53750000Y-62862500D03*
D21*
X54462500Y-62150000D03*
X54462500Y-61650000D03*
X54462500Y-61150000D03*
X54462500Y-60650000D03*
D22*
X53750000Y-59937500D03*
X53250000Y-59937500D03*
X52750000Y-59937500D03*
X52250000Y-59937500D03*
%TD*%
D11*
%TO.C,R901*%
X88300000Y-225800000D03*
X88300000Y-226820000D03*
%TD*%
D14*
%TO.C,C1001*%
X226920000Y-232900000D03*
X227880000Y-232900000D03*
%TD*%
D12*
%TO.C,C712*%
X52280000Y-129300000D03*
X51320000Y-129300000D03*
%TD*%
D16*
%TO.C,R805*%
X48910000Y-140200000D03*
X47890000Y-140200000D03*
%TD*%
D12*
%TO.C,C902*%
X72980000Y-76600000D03*
X72020000Y-76600000D03*
%TD*%
D23*
%TO.C,MK1406*%
X183150000Y-215730000D03*
D24*
X183080000Y-219140000D03*
X185620000Y-219140000D03*
D23*
X185550000Y-215730000D03*
X184350000Y-215730000D03*
%TD*%
D25*
%TO.C,D103*%
X80412500Y-215600000D03*
X81987500Y-215600000D03*
%TD*%
D26*
%TO.C,J302*%
X161025000Y-229950000D03*
X161075000Y-216100000D03*
D27*
X158075000Y-218650000D03*
X158075000Y-219900000D03*
X158075000Y-221150000D03*
D28*
X158075000Y-222400000D03*
X158075000Y-223650000D03*
X158075000Y-224900000D03*
D27*
X158075000Y-226150000D03*
D28*
X158075000Y-227400000D03*
%TD*%
D23*
%TO.C,MK1403*%
X192980000Y-148200000D03*
D24*
X196390000Y-148270000D03*
X196390000Y-145730000D03*
D23*
X192980000Y-145800000D03*
X192980000Y-147000000D03*
%TD*%
D19*
%TO.C,R104*%
X83690000Y-62000000D03*
X84710000Y-62000000D03*
%TD*%
D11*
%TO.C,R808*%
X55800000Y-59890000D03*
X55800000Y-60910000D03*
%TD*%
D16*
%TO.C,R1624*%
X205410000Y-218600000D03*
X204390000Y-218600000D03*
%TD*%
D29*
%TO.C,U1701*%
X207620000Y-240980000D03*
X206780000Y-240980000D03*
X207620000Y-241820000D03*
X206780000Y-241820000D03*
D30*
X207950000Y-239937500D03*
X207450000Y-239937500D03*
X206950000Y-239937500D03*
X206450000Y-239937500D03*
D31*
X205737500Y-240650000D03*
X205737500Y-241150000D03*
X205737500Y-241650000D03*
X205737500Y-242150000D03*
D30*
X206450000Y-242862500D03*
X206950000Y-242862500D03*
X207450000Y-242862500D03*
X207950000Y-242862500D03*
D31*
X208662500Y-242150000D03*
X208662500Y-241650000D03*
X208662500Y-241150000D03*
X208662500Y-240650000D03*
%TD*%
D23*
%TO.C,MK1405*%
X194850000Y-230270000D03*
D24*
X194920000Y-226860000D03*
X192380000Y-226860000D03*
D23*
X192450000Y-230270000D03*
X193650000Y-230270000D03*
%TD*%
D11*
%TO.C,R1101*%
X240300000Y-170890000D03*
X240300000Y-171910000D03*
%TD*%
D32*
%TO.C,U1601*%
X255150000Y-144200000D03*
X254500000Y-144200000D03*
X253850000Y-144200000D03*
X253200000Y-144200000D03*
X252550000Y-144200000D03*
X251900000Y-144200000D03*
X251250000Y-144200000D03*
X251250000Y-149800000D03*
X251900000Y-149800000D03*
X252550000Y-149800000D03*
X253200000Y-149800000D03*
X253850000Y-149800000D03*
X254500000Y-149800000D03*
X255150000Y-149800000D03*
%TD*%
D14*
%TO.C,C417*%
X44120000Y-120800000D03*
X45080000Y-120800000D03*
%TD*%
D12*
%TO.C,CB1602*%
X204480000Y-166220000D03*
X203520000Y-166220000D03*
%TD*%
D15*
%TO.C,R707*%
X55800000Y-127110000D03*
X55800000Y-126090000D03*
%TD*%
D14*
%TO.C,CB1405*%
X187920000Y-233900000D03*
X188880000Y-233900000D03*
%TD*%
D12*
%TO.C,C406*%
X65480000Y-125000000D03*
X64520000Y-125000000D03*
%TD*%
D33*
%TO.C,U901*%
X91774500Y-72411200D03*
X92614500Y-72411200D03*
X91774500Y-71571200D03*
X92614500Y-71571200D03*
D34*
X91444500Y-73453700D03*
X91944500Y-73453700D03*
X92444500Y-73453700D03*
X92944500Y-73453700D03*
D35*
X93657000Y-72741200D03*
X93657000Y-72241200D03*
X93657000Y-71741200D03*
X93657000Y-71241200D03*
D34*
X92944500Y-70528700D03*
X92444500Y-70528700D03*
X91944500Y-70528700D03*
X91444500Y-70528700D03*
D35*
X90732000Y-71241200D03*
X90732000Y-71741200D03*
X90732000Y-72241200D03*
X90732000Y-72741200D03*
%TD*%
D15*
%TO.C,R1616*%
X238450000Y-62060000D03*
X238450000Y-61040000D03*
%TD*%
D12*
%TO.C,C902*%
X72980000Y-152600000D03*
X72020000Y-152600000D03*
%TD*%
D36*
%TO.C,C1609*%
X249000000Y-227412500D03*
X249000000Y-225987500D03*
%TD*%
D15*
%TO.C,R1621*%
X256600000Y-146430000D03*
X256600000Y-145410000D03*
%TD*%
D19*
%TO.C,C1602*%
X206690000Y-84900000D03*
X207710000Y-84900000D03*
%TD*%
D11*
%TO.C,R1626*%
X208900000Y-153390000D03*
X208900000Y-154410000D03*
%TD*%
D14*
%TO.C,C808*%
X51320000Y-64100000D03*
X52280000Y-64100000D03*
%TD*%
D11*
%TO.C,R709*%
X57000000Y-126090000D03*
X57000000Y-127110000D03*
%TD*%
D15*
%TO.C,R1605*%
X250400000Y-85410000D03*
X250400000Y-84390000D03*
%TD*%
D19*
%TO.C,R1302*%
X80890000Y-148900000D03*
X81910000Y-148900000D03*
%TD*%
D12*
%TO.C,CB1502*%
X253680000Y-218600000D03*
X252720000Y-218600000D03*
%TD*%
D18*
%TO.C,R211*%
X93975000Y-204900000D03*
X95625000Y-204900000D03*
%TD*%
D14*
%TO.C,C404*%
X64970000Y-206200000D03*
X65930000Y-206200000D03*
%TD*%
D36*
%TO.C,C1609*%
X203000000Y-75412500D03*
X203000000Y-73987500D03*
%TD*%
D11*
%TO.C,R1101*%
X194300000Y-170890000D03*
X194300000Y-171910000D03*
%TD*%
D17*
%TO.C,CB1606*%
X257700000Y-70400000D03*
X257700000Y-69440000D03*
%TD*%
D16*
%TO.C,R1610*%
X237310000Y-72200000D03*
X236290000Y-72200000D03*
%TD*%
D12*
%TO.C,CB201*%
X57480000Y-77200000D03*
X56520000Y-77200000D03*
%TD*%
%TO.C,C1007*%
X228880000Y-167400000D03*
X227920000Y-167400000D03*
%TD*%
D37*
%TO.C,C1201*%
X81200000Y-197517500D03*
X81200000Y-196382500D03*
%TD*%
D38*
%TO.C,U1201*%
X83950000Y-44187500D03*
X83450000Y-44187500D03*
X82950000Y-44187500D03*
X82450000Y-44187500D03*
D39*
X82437500Y-44700000D03*
X82437500Y-45200000D03*
D38*
X82450000Y-45712500D03*
X82950000Y-45712500D03*
X83450000Y-45712500D03*
X83950000Y-45712500D03*
D39*
X83962500Y-45200000D03*
X83962500Y-44700000D03*
%TD*%
D17*
%TO.C,CB1605*%
X248700000Y-70380000D03*
X248700000Y-69420000D03*
%TD*%
D19*
%TO.C,R1629*%
X208990000Y-151400000D03*
X210010000Y-151400000D03*
%TD*%
D16*
%TO.C,R1402*%
X59810000Y-152000000D03*
X58790000Y-152000000D03*
%TD*%
D40*
%TO.C,C1608*%
X257400000Y-218587500D03*
X257400000Y-220012500D03*
%TD*%
D14*
%TO.C,C1506*%
X183270000Y-231950000D03*
X184230000Y-231950000D03*
%TD*%
D12*
%TO.C,C401*%
X65480000Y-197000000D03*
X64520000Y-197000000D03*
%TD*%
D16*
%TO.C,R1608*%
X208710000Y-92300000D03*
X207690000Y-92300000D03*
%TD*%
D41*
%TO.C,U301*%
X140225000Y-215665000D03*
X139375000Y-215665000D03*
X138325000Y-215665000D03*
X137475000Y-215665000D03*
X136425000Y-215665000D03*
X135575000Y-215665000D03*
X134525000Y-215665000D03*
X133675000Y-215665000D03*
X132625000Y-215665000D03*
X131775000Y-215665000D03*
X140225000Y-216665000D03*
X139375000Y-216665000D03*
X138325000Y-216665000D03*
X137475000Y-216665000D03*
X136425000Y-216665000D03*
X135575000Y-216665000D03*
X134525000Y-216665000D03*
X133675000Y-216665000D03*
X132625000Y-216665000D03*
X131775000Y-216665000D03*
D42*
X143100000Y-218540000D03*
X142100000Y-218540000D03*
X129900000Y-218540000D03*
X128900000Y-218540000D03*
X143100000Y-219390000D03*
X142100000Y-219390000D03*
X129900000Y-219390000D03*
X128900000Y-219390000D03*
X143100000Y-220440000D03*
X142100000Y-220440000D03*
X129900000Y-220440000D03*
X128900000Y-220440000D03*
X143100000Y-221290000D03*
X142100000Y-221290000D03*
X129900000Y-221290000D03*
X128900000Y-221290000D03*
X143100000Y-222340000D03*
X142100000Y-222340000D03*
X129900000Y-222340000D03*
X128900000Y-222340000D03*
X143100000Y-223190000D03*
X142100000Y-223190000D03*
X129900000Y-223190000D03*
X128900000Y-223190000D03*
X143100000Y-224240000D03*
X142100000Y-224240000D03*
X129900000Y-224240000D03*
X128900000Y-224240000D03*
X143100000Y-225090000D03*
X142100000Y-225090000D03*
X129900000Y-225090000D03*
X128900000Y-225090000D03*
X143100000Y-226140000D03*
X142100000Y-226140000D03*
X129900000Y-226140000D03*
X128900000Y-226140000D03*
X143100000Y-226990000D03*
X142100000Y-226990000D03*
X129900000Y-226990000D03*
X128900000Y-226990000D03*
D41*
X140225000Y-228865000D03*
X139375000Y-228865000D03*
X138325000Y-228865000D03*
X137475000Y-228865000D03*
X136425000Y-228865000D03*
X135575000Y-228865000D03*
X134525000Y-228865000D03*
X133675000Y-228865000D03*
X132625000Y-228865000D03*
X131775000Y-228865000D03*
X140225000Y-229865000D03*
X139375000Y-229865000D03*
X138325000Y-229865000D03*
X137475000Y-229865000D03*
X136425000Y-229865000D03*
X135575000Y-229865000D03*
X134525000Y-229865000D03*
X133675000Y-229865000D03*
X132625000Y-229865000D03*
X131775000Y-229865000D03*
%TD*%
D17*
%TO.C,CB1607*%
X253800000Y-230380000D03*
X253800000Y-229420000D03*
%TD*%
D16*
%TO.C,R406*%
X63960000Y-130200000D03*
X62940000Y-130200000D03*
%TD*%
%TO.C,R806*%
X48910000Y-210600000D03*
X47890000Y-210600000D03*
%TD*%
D43*
%TO.C,FB101*%
X75800000Y-239885000D03*
X75800000Y-238915000D03*
%TD*%
D15*
%TO.C,R1611*%
X233800000Y-60110000D03*
X233800000Y-59090000D03*
%TD*%
D13*
%TO.C,C807*%
X50200000Y-211920000D03*
X50200000Y-212880000D03*
%TD*%
D44*
%TO.C,C1601*%
X206425000Y-158900000D03*
X207975000Y-158900000D03*
%TD*%
D14*
%TO.C,CB105*%
X66220000Y-59700000D03*
X67180000Y-59700000D03*
%TD*%
D15*
%TO.C,R1621*%
X256600000Y-222430000D03*
X256600000Y-221410000D03*
%TD*%
D13*
%TO.C,CB106*%
X63600000Y-72320000D03*
X63600000Y-73280000D03*
%TD*%
D15*
%TO.C,R903*%
X90300000Y-67110000D03*
X90300000Y-66090000D03*
%TD*%
D16*
%TO.C,R702*%
X46710000Y-200000000D03*
X45690000Y-200000000D03*
%TD*%
D12*
%TO.C,CB902*%
X72980000Y-74600000D03*
X72020000Y-74600000D03*
%TD*%
D15*
%TO.C,R710*%
X57000000Y-125110000D03*
X57000000Y-124090000D03*
%TD*%
D45*
%TO.C,D902*%
X90195300Y-173400000D03*
X88620300Y-173400000D03*
%TD*%
D15*
%TO.C,R414*%
X71400000Y-207360000D03*
X71400000Y-206340000D03*
%TD*%
D14*
%TO.C,C711*%
X58040000Y-200000000D03*
X59000000Y-200000000D03*
%TD*%
D16*
%TO.C,R704*%
X48910000Y-200000000D03*
X47890000Y-200000000D03*
%TD*%
D19*
%TO.C,R1607*%
X251690000Y-244300000D03*
X252710000Y-244300000D03*
%TD*%
D15*
%TO.C,R1617*%
X208900000Y-64610000D03*
X208900000Y-63590000D03*
%TD*%
D25*
%TO.C,D903*%
X61212500Y-196200000D03*
X62787500Y-196200000D03*
%TD*%
D14*
%TO.C,C1612*%
X204420000Y-152400000D03*
X205380000Y-152400000D03*
%TD*%
D13*
%TO.C,C1607*%
X256000000Y-82320000D03*
X256000000Y-83280000D03*
%TD*%
D17*
%TO.C,CB1408*%
X232600000Y-224080000D03*
X232600000Y-223120000D03*
%TD*%
D12*
%TO.C,C1604*%
X254680000Y-86500000D03*
X253720000Y-86500000D03*
%TD*%
D46*
%TO.C,D904*%
X78200000Y-152812500D03*
X78200000Y-154387500D03*
%TD*%
D19*
%TO.C,R104*%
X83690000Y-214000000D03*
X84710000Y-214000000D03*
%TD*%
D15*
%TO.C,R1619*%
X205500000Y-140610000D03*
X205500000Y-139590000D03*
%TD*%
D47*
%TO.C,FB1101*%
X192215000Y-170800000D03*
X193185000Y-170800000D03*
%TD*%
D19*
%TO.C,C1602*%
X206690000Y-236900000D03*
X207710000Y-236900000D03*
%TD*%
D11*
%TO.C,R907*%
X95300000Y-226490000D03*
X95300000Y-227510000D03*
%TD*%
%TO.C,R1626*%
X208900000Y-77390000D03*
X208900000Y-78410000D03*
%TD*%
D25*
%TO.C,D104*%
X80412500Y-217400000D03*
X81987500Y-217400000D03*
%TD*%
D14*
%TO.C,C414*%
X70320000Y-53300000D03*
X71280000Y-53300000D03*
%TD*%
D13*
%TO.C,C1607*%
X210000000Y-158320000D03*
X210000000Y-159280000D03*
%TD*%
D11*
%TO.C,R1627*%
X256000000Y-77390000D03*
X256000000Y-78410000D03*
%TD*%
D19*
%TO.C,R1301*%
X84890000Y-148900000D03*
X85910000Y-148900000D03*
%TD*%
D48*
%TO.C,F901*%
X93225000Y-218400000D03*
X94975000Y-218400000D03*
%TD*%
D49*
%TO.C,U201*%
X86325000Y-58162500D03*
D50*
X86250000Y-58700000D03*
D49*
X86325000Y-59237500D03*
X88025000Y-59237500D03*
D50*
X88100000Y-58700000D03*
D49*
X88025000Y-58162500D03*
%TD*%
D51*
%TO.C,X401*%
X76200000Y-207000000D03*
X76200000Y-204700000D03*
D52*
X74300000Y-204700000D03*
X74300000Y-207000000D03*
%TD*%
D12*
%TO.C,C1101*%
X193180000Y-169600000D03*
X192220000Y-169600000D03*
%TD*%
%TO.C,C904*%
X89180000Y-144000000D03*
X88220000Y-144000000D03*
%TD*%
D17*
%TO.C,C710*%
X58120000Y-202080000D03*
X58120000Y-201120000D03*
%TD*%
D11*
%TO.C,R808*%
X55800000Y-135890000D03*
X55800000Y-136910000D03*
%TD*%
D18*
%TO.C,R206*%
X50275000Y-225900000D03*
X51925000Y-225900000D03*
%TD*%
D15*
%TO.C,R1606*%
X210000000Y-85410000D03*
X210000000Y-84390000D03*
%TD*%
D14*
%TO.C,C1402*%
X192570000Y-233000000D03*
X193530000Y-233000000D03*
%TD*%
D47*
%TO.C,FB602*%
X44515000Y-213900000D03*
X45485000Y-213900000D03*
%TD*%
D44*
%TO.C,C1601*%
X252425000Y-234900000D03*
X253975000Y-234900000D03*
%TD*%
D53*
%TO.C,J205*%
X60075000Y-247350000D03*
X73925000Y-247400000D03*
D54*
X71375000Y-244400000D03*
X70125000Y-244400000D03*
X68875000Y-244400000D03*
D55*
X67625000Y-244400000D03*
X66375000Y-244400000D03*
X65125000Y-244400000D03*
D54*
X63875000Y-244400000D03*
D55*
X62625000Y-244400000D03*
%TD*%
D17*
%TO.C,CB1601*%
X204500000Y-164700000D03*
X204500000Y-163740000D03*
%TD*%
D15*
%TO.C,R1635*%
X249300000Y-153810000D03*
X249300000Y-152790000D03*
%TD*%
D16*
%TO.C,R1608*%
X254710000Y-244300000D03*
X253690000Y-244300000D03*
%TD*%
D11*
%TO.C,R1003*%
X226900000Y-91490000D03*
X226900000Y-92510000D03*
%TD*%
D23*
%TO.C,MK1406*%
X229150000Y-215730000D03*
D24*
X229080000Y-219140000D03*
X231620000Y-219140000D03*
D23*
X231550000Y-215730000D03*
X230350000Y-215730000D03*
%TD*%
D56*
%TO.C,R916*%
X82525000Y-150300000D03*
X80875000Y-150300000D03*
%TD*%
D57*
%TO.C,U1401*%
X58825000Y-79575000D03*
X59475000Y-79575000D03*
X60125000Y-79575000D03*
X60775000Y-79575000D03*
X60775000Y-81625000D03*
X60125000Y-81625000D03*
X59475000Y-81625000D03*
X58825000Y-81625000D03*
%TD*%
D14*
%TO.C,C903*%
X92820000Y-74800000D03*
X93780000Y-74800000D03*
%TD*%
D33*
%TO.C,U901*%
X91774500Y-224411200D03*
X92614500Y-224411200D03*
X91774500Y-223571200D03*
X92614500Y-223571200D03*
D34*
X91444500Y-225453700D03*
X91944500Y-225453700D03*
X92444500Y-225453700D03*
X92944500Y-225453700D03*
D35*
X93657000Y-224741200D03*
X93657000Y-224241200D03*
X93657000Y-223741200D03*
X93657000Y-223241200D03*
D34*
X92944500Y-222528700D03*
X92444500Y-222528700D03*
X91944500Y-222528700D03*
X91444500Y-222528700D03*
D35*
X90732000Y-223241200D03*
X90732000Y-223741200D03*
X90732000Y-224241200D03*
X90732000Y-224741200D03*
%TD*%
D11*
%TO.C,R1*%
X54500000Y-225390000D03*
X54500000Y-226410000D03*
%TD*%
D16*
%TO.C,R802*%
X46710000Y-135800000D03*
X45690000Y-135800000D03*
%TD*%
%TO.C,R106*%
X68510000Y-75600000D03*
X67490000Y-75600000D03*
%TD*%
D14*
%TO.C,C301*%
X160520000Y-137800000D03*
X161480000Y-137800000D03*
%TD*%
D47*
%TO.C,FB903*%
X88215000Y-221000000D03*
X89185000Y-221000000D03*
%TD*%
D19*
%TO.C,R1302*%
X80890000Y-224900000D03*
X81910000Y-224900000D03*
%TD*%
%TO.C,R203*%
X56490000Y-233800000D03*
X57510000Y-233800000D03*
%TD*%
D58*
%TO.C,U904*%
X83462500Y-206650000D03*
X83462500Y-207600000D03*
X83462500Y-208550000D03*
X85737500Y-208550000D03*
X85737500Y-207600000D03*
X85737500Y-206650000D03*
%TD*%
D11*
%TO.C,R1101*%
X240300000Y-246890000D03*
X240300000Y-247910000D03*
%TD*%
D59*
%TO.C,D301*%
X136000000Y-212450000D03*
X134600000Y-212450000D03*
%TD*%
D13*
%TO.C,C805*%
X53800000Y-64120000D03*
X53800000Y-65080000D03*
%TD*%
D17*
%TO.C,C1401*%
X233600000Y-72080000D03*
X233600000Y-71120000D03*
%TD*%
D11*
%TO.C,R708*%
X55800000Y-124090000D03*
X55800000Y-125110000D03*
%TD*%
D17*
%TO.C,CB1408*%
X232600000Y-72080000D03*
X232600000Y-71120000D03*
%TD*%
D14*
%TO.C,C1610*%
X250420000Y-141600000D03*
X251380000Y-141600000D03*
%TD*%
D13*
%TO.C,CB1609*%
X252600000Y-139620000D03*
X252600000Y-140580000D03*
%TD*%
D19*
%TO.C,R1403*%
X58790000Y-236200000D03*
X59810000Y-236200000D03*
%TD*%
D15*
%TO.C,R1617*%
X254900000Y-216610000D03*
X254900000Y-215590000D03*
%TD*%
D13*
%TO.C,CB1604*%
X202700000Y-223620000D03*
X202700000Y-224580000D03*
%TD*%
D12*
%TO.C,CB1502*%
X207680000Y-142600000D03*
X206720000Y-142600000D03*
%TD*%
D16*
%TO.C,R1401*%
X59810000Y-77100000D03*
X58790000Y-77100000D03*
%TD*%
D60*
%TO.C,U101*%
X66450000Y-224717200D03*
X66950000Y-224717200D03*
X67450000Y-224717200D03*
X67950000Y-224717200D03*
X68450000Y-224717200D03*
X68950000Y-224717200D03*
X69450000Y-224717200D03*
X69950000Y-224717200D03*
X70450000Y-224717200D03*
X70950000Y-224717200D03*
X71450000Y-224717200D03*
X71950000Y-224717200D03*
X72450000Y-224717200D03*
X72950000Y-224717200D03*
X73450000Y-224717200D03*
X73950000Y-224717200D03*
D61*
X75875000Y-222792200D03*
X75875000Y-222292200D03*
X75875000Y-221792200D03*
X75875000Y-221292200D03*
X75875000Y-220792200D03*
X75875000Y-220292200D03*
X75875000Y-219792200D03*
X75875000Y-219292200D03*
X75875000Y-218792200D03*
X75875000Y-218292200D03*
X75875000Y-217792200D03*
X75875000Y-217292200D03*
X75875000Y-216792200D03*
X75875000Y-216292200D03*
X75875000Y-215792200D03*
X75875000Y-215292200D03*
D60*
X73950000Y-213367200D03*
X73450000Y-213367200D03*
X72950000Y-213367200D03*
X72450000Y-213367200D03*
X71950000Y-213367200D03*
X71450000Y-213367200D03*
X70950000Y-213367200D03*
X70450000Y-213367200D03*
X69950000Y-213367200D03*
X69450000Y-213367200D03*
X68950000Y-213367200D03*
X68450000Y-213367200D03*
X67950000Y-213367200D03*
X67450000Y-213367200D03*
X66950000Y-213367200D03*
X66450000Y-213367200D03*
D61*
X64525000Y-215292200D03*
X64525000Y-215792200D03*
X64525000Y-216292200D03*
X64525000Y-216792200D03*
X64525000Y-217292200D03*
X64525000Y-217792200D03*
X64525000Y-218292200D03*
X64525000Y-218792200D03*
X64525000Y-219292200D03*
X64525000Y-219792200D03*
X64525000Y-220292200D03*
X64525000Y-220792200D03*
X64525000Y-221292200D03*
X64525000Y-221792200D03*
X64525000Y-222292200D03*
X64525000Y-222792200D03*
%TD*%
D14*
%TO.C,C1005*%
X186320000Y-170200000D03*
X187280000Y-170200000D03*
%TD*%
D19*
%TO.C,R412*%
X75490000Y-121050000D03*
X76510000Y-121050000D03*
%TD*%
D13*
%TO.C,CB1604*%
X248700000Y-147620000D03*
X248700000Y-148580000D03*
%TD*%
D12*
%TO.C,C1604*%
X254680000Y-238500000D03*
X253720000Y-238500000D03*
%TD*%
D46*
%TO.C,D305*%
X160000000Y-156612500D03*
X160000000Y-158187500D03*
%TD*%
D15*
%TO.C,R1622*%
X249800000Y-146410000D03*
X249800000Y-145390000D03*
%TD*%
D12*
%TO.C,C712*%
X52280000Y-53300000D03*
X51320000Y-53300000D03*
%TD*%
D47*
%TO.C,FB1101*%
X192215000Y-246800000D03*
X193185000Y-246800000D03*
%TD*%
D19*
%TO.C,R1514*%
X254990000Y-142600000D03*
X256010000Y-142600000D03*
%TD*%
D11*
%TO.C,R101*%
X62212400Y-67990000D03*
X62212400Y-69010000D03*
%TD*%
D62*
%TO.C,U902*%
X83423500Y-231458000D03*
X83423500Y-230508000D03*
X83423500Y-229558000D03*
X81148500Y-229558000D03*
X81148500Y-231458000D03*
%TD*%
D14*
%TO.C,C1603*%
X205720000Y-238500000D03*
X206680000Y-238500000D03*
%TD*%
D16*
%TO.C,R703*%
X48910000Y-203200000D03*
X47890000Y-203200000D03*
%TD*%
D11*
%TO.C,R919*%
X79600000Y-76490000D03*
X79600000Y-77510000D03*
%TD*%
D12*
%TO.C,CB1002*%
X182880000Y-168600000D03*
X181920000Y-168600000D03*
%TD*%
D16*
%TO.C,R406*%
X63960000Y-54200000D03*
X62940000Y-54200000D03*
%TD*%
D19*
%TO.C,R304*%
X161690000Y-82200000D03*
X162710000Y-82200000D03*
%TD*%
D63*
%TO.C,U1001*%
X226950000Y-84837500D03*
X227900000Y-84837500D03*
X228850000Y-84837500D03*
X228850000Y-82562500D03*
X226950000Y-82562500D03*
%TD*%
D12*
%TO.C,C802*%
X46680000Y-134600000D03*
X45720000Y-134600000D03*
%TD*%
D64*
%TO.C,FB201*%
X39600000Y-225315000D03*
X39600000Y-226285000D03*
%TD*%
D65*
%TO.C,D101*%
X54600000Y-92525000D03*
X54600000Y-94275000D03*
%TD*%
D19*
%TO.C,R1303*%
X82890000Y-72900000D03*
X83910000Y-72900000D03*
%TD*%
D14*
%TO.C,C1612*%
X250420000Y-152400000D03*
X251380000Y-152400000D03*
%TD*%
D17*
%TO.C,C501*%
X44603750Y-123880000D03*
X44603750Y-122920000D03*
%TD*%
D14*
%TO.C,C407*%
X70320000Y-51200000D03*
X71280000Y-51200000D03*
%TD*%
D17*
%TO.C,C202*%
X38400000Y-150280000D03*
X38400000Y-149320000D03*
%TD*%
D53*
%TO.C,J207*%
X60075000Y-163850000D03*
X73925000Y-163900000D03*
D54*
X71375000Y-160900000D03*
X70125000Y-160900000D03*
X68875000Y-160900000D03*
D55*
X67625000Y-160900000D03*
X66375000Y-160900000D03*
X65125000Y-160900000D03*
D54*
X63875000Y-160900000D03*
D55*
X62625000Y-160900000D03*
%TD*%
D23*
%TO.C,MK1407*%
X231550000Y-154270000D03*
D24*
X231620000Y-150860000D03*
X229080000Y-150860000D03*
D23*
X229150000Y-154270000D03*
X230350000Y-154270000D03*
%TD*%
D17*
%TO.C,C501*%
X44603750Y-47880000D03*
X44603750Y-46920000D03*
%TD*%
D25*
%TO.C,D103*%
X80412500Y-63600000D03*
X81987500Y-63600000D03*
%TD*%
D17*
%TO.C,CB1608*%
X206600000Y-154380000D03*
X206600000Y-153420000D03*
%TD*%
D12*
%TO.C,C1504*%
X207680000Y-65600000D03*
X206720000Y-65600000D03*
%TD*%
D40*
%TO.C,C1614*%
X203000000Y-66587500D03*
X203000000Y-68012500D03*
%TD*%
D11*
%TO.C,R404*%
X72900000Y-128390000D03*
X72900000Y-129410000D03*
%TD*%
D19*
%TO.C,R410*%
X75490000Y-196050000D03*
X76510000Y-196050000D03*
%TD*%
D13*
%TO.C,C805*%
X53800000Y-216120000D03*
X53800000Y-217080000D03*
%TD*%
D17*
%TO.C,CB1408*%
X232600000Y-148080000D03*
X232600000Y-147120000D03*
%TD*%
D15*
%TO.C,R912*%
X95300000Y-71510000D03*
X95300000Y-70490000D03*
%TD*%
D14*
%TO.C,C1402*%
X238570000Y-81000000D03*
X239530000Y-81000000D03*
%TD*%
D66*
%TO.C,U1002*%
X228850000Y-170262500D03*
X227900000Y-170262500D03*
X226950000Y-170262500D03*
X226950000Y-172537500D03*
X228850000Y-172537500D03*
%TD*%
D12*
%TO.C,C1611*%
X255980000Y-228400000D03*
X255020000Y-228400000D03*
%TD*%
%TO.C,C204*%
X57460000Y-154270000D03*
X56500000Y-154270000D03*
%TD*%
D13*
%TO.C,CB1609*%
X206600000Y-63620000D03*
X206600000Y-64580000D03*
%TD*%
D12*
%TO.C,C709*%
X59000000Y-51200000D03*
X58040000Y-51200000D03*
%TD*%
D17*
%TO.C,CB1605*%
X248700000Y-222380000D03*
X248700000Y-221420000D03*
%TD*%
D15*
%TO.C,R1635*%
X249300000Y-229810000D03*
X249300000Y-228790000D03*
%TD*%
D12*
%TO.C,C904*%
X89180000Y-68000000D03*
X88220000Y-68000000D03*
%TD*%
D15*
%TO.C,R1617*%
X254900000Y-140610000D03*
X254900000Y-139590000D03*
%TD*%
D13*
%TO.C,C1606*%
X250400000Y-234320000D03*
X250400000Y-235280000D03*
%TD*%
D15*
%TO.C,R710*%
X57000000Y-201110000D03*
X57000000Y-200090000D03*
%TD*%
D13*
%TO.C,CB1003*%
X205500000Y-80320000D03*
X205500000Y-81280000D03*
%TD*%
D12*
%TO.C,C1101*%
X193180000Y-245600000D03*
X192220000Y-245600000D03*
%TD*%
D15*
%TO.C,R1001*%
X228900000Y-163610000D03*
X228900000Y-162590000D03*
%TD*%
D47*
%TO.C,FB901*%
X72015000Y-153600000D03*
X72985000Y-153600000D03*
%TD*%
D15*
%TO.C,R1622*%
X249800000Y-222410000D03*
X249800000Y-221390000D03*
%TD*%
D23*
%TO.C,MK1407*%
X231550000Y-78270000D03*
D24*
X231620000Y-74860000D03*
X229080000Y-74860000D03*
D23*
X229150000Y-78270000D03*
X230350000Y-78270000D03*
%TD*%
D46*
%TO.C,D302*%
X160000000Y-159812500D03*
X160000000Y-161387500D03*
%TD*%
D17*
%TO.C,C501*%
X44603750Y-199880000D03*
X44603750Y-198920000D03*
%TD*%
D12*
%TO.C,CB1202*%
X83680000Y-46950000D03*
X82720000Y-46950000D03*
%TD*%
D67*
%TO.C,FB1001*%
X233285000Y-95400000D03*
X232315000Y-95400000D03*
%TD*%
D19*
%TO.C,R1514*%
X254990000Y-66600000D03*
X256010000Y-66600000D03*
%TD*%
D17*
%TO.C,CB1408*%
X186600000Y-72080000D03*
X186600000Y-71120000D03*
%TD*%
D13*
%TO.C,CB1003*%
X205500000Y-232320000D03*
X205500000Y-233280000D03*
%TD*%
D11*
%TO.C,R1633*%
X249800000Y-71590000D03*
X249800000Y-72610000D03*
%TD*%
D12*
%TO.C,C206*%
X71180000Y-90600000D03*
X70220000Y-90600000D03*
%TD*%
D68*
%TO.C,J601*%
X39450000Y-208975000D03*
X39400000Y-217825000D03*
D28*
X42400000Y-215275000D03*
D27*
X42400000Y-214025000D03*
X42400000Y-212775000D03*
X42400000Y-211525000D03*
%TD*%
D12*
%TO.C,C1503*%
X185430000Y-137050000D03*
X184470000Y-137050000D03*
%TD*%
D13*
%TO.C,CB1610*%
X253800000Y-63640000D03*
X253800000Y-64600000D03*
%TD*%
D12*
%TO.C,C1502*%
X255980000Y-217600000D03*
X255020000Y-217600000D03*
%TD*%
D23*
%TO.C,MK1403*%
X192980000Y-72200000D03*
D24*
X196390000Y-72270000D03*
X196390000Y-69730000D03*
D23*
X192980000Y-69800000D03*
X192980000Y-71000000D03*
%TD*%
D17*
%TO.C,CB102*%
X48900000Y-226380000D03*
X48900000Y-225420000D03*
%TD*%
D15*
%TO.C,R1604*%
X208900000Y-85410000D03*
X208900000Y-84390000D03*
%TD*%
D11*
%TO.C,R708*%
X55800000Y-200090000D03*
X55800000Y-201110000D03*
%TD*%
D12*
%TO.C,CB1404*%
X190080000Y-60100000D03*
X189120000Y-60100000D03*
%TD*%
D13*
%TO.C,CB104*%
X77800000Y-221570000D03*
X77800000Y-222530000D03*
%TD*%
D14*
%TO.C,CB108*%
X83720000Y-212600000D03*
X84680000Y-212600000D03*
%TD*%
D17*
%TO.C,CB1606*%
X211700000Y-146400000D03*
X211700000Y-145440000D03*
%TD*%
D12*
%TO.C,C812*%
X52280000Y-217100000D03*
X51320000Y-217100000D03*
%TD*%
D15*
%TO.C,R810*%
X57000000Y-212910000D03*
X57000000Y-211890000D03*
%TD*%
D47*
%TO.C,FB1101*%
X192215000Y-94800000D03*
X193185000Y-94800000D03*
%TD*%
D15*
%TO.C,R912*%
X95300000Y-147510000D03*
X95300000Y-146490000D03*
%TD*%
D12*
%TO.C,C302*%
X161480000Y-135400000D03*
X160520000Y-135400000D03*
%TD*%
D25*
%TO.C,D903*%
X61212500Y-120200000D03*
X62787500Y-120200000D03*
%TD*%
D14*
%TO.C,C107*%
X66240000Y-134600000D03*
X67200000Y-134600000D03*
%TD*%
%TO.C,C403*%
X70320000Y-52200000D03*
X71280000Y-52200000D03*
%TD*%
D13*
%TO.C,CB1604*%
X248700000Y-71620000D03*
X248700000Y-72580000D03*
%TD*%
%TO.C,C106*%
X63012400Y-75570000D03*
X63012400Y-76530000D03*
%TD*%
D16*
%TO.C,R701*%
X46710000Y-51200000D03*
X45690000Y-51200000D03*
%TD*%
D19*
%TO.C,C1602*%
X252690000Y-236900000D03*
X253710000Y-236900000D03*
%TD*%
%TO.C,R405*%
X72840000Y-203200000D03*
X73860000Y-203200000D03*
%TD*%
D18*
%TO.C,R208*%
X90175000Y-204900000D03*
X91825000Y-204900000D03*
%TD*%
D15*
%TO.C,R1601*%
X206600000Y-81310000D03*
X206600000Y-80290000D03*
%TD*%
D47*
%TO.C,FB301*%
X160515000Y-136600000D03*
X161485000Y-136600000D03*
%TD*%
D14*
%TO.C,CB1409*%
X58820000Y-234975000D03*
X59780000Y-234975000D03*
%TD*%
D13*
%TO.C,CB1603*%
X211700000Y-71640000D03*
X211700000Y-72600000D03*
%TD*%
D11*
%TO.C,R1003*%
X226900000Y-243490000D03*
X226900000Y-244510000D03*
%TD*%
D12*
%TO.C,CB1406*%
X194730000Y-138050000D03*
X193770000Y-138050000D03*
%TD*%
D17*
%TO.C,C710*%
X58120000Y-50080000D03*
X58120000Y-49120000D03*
%TD*%
D40*
%TO.C,C1608*%
X257400000Y-66587500D03*
X257400000Y-68012500D03*
%TD*%
D14*
%TO.C,C301*%
X160520000Y-61800000D03*
X161480000Y-61800000D03*
%TD*%
D11*
%TO.C,R1625*%
X203300000Y-64190000D03*
X203300000Y-65210000D03*
%TD*%
D15*
%TO.C,R401*%
X63000000Y-51110000D03*
X63000000Y-50090000D03*
%TD*%
D14*
%TO.C,C1006*%
X226920000Y-239700000D03*
X227880000Y-239700000D03*
%TD*%
%TO.C,C407*%
X70320000Y-127200000D03*
X71280000Y-127200000D03*
%TD*%
D36*
%TO.C,C1609*%
X203000000Y-227412500D03*
X203000000Y-225987500D03*
%TD*%
D19*
%TO.C,R1514*%
X254990000Y-218600000D03*
X256010000Y-218600000D03*
%TD*%
D32*
%TO.C,U1601*%
X255150000Y-220200000D03*
X254500000Y-220200000D03*
X253850000Y-220200000D03*
X253200000Y-220200000D03*
X252550000Y-220200000D03*
X251900000Y-220200000D03*
X251250000Y-220200000D03*
X251250000Y-225800000D03*
X251900000Y-225800000D03*
X252550000Y-225800000D03*
X253200000Y-225800000D03*
X253850000Y-225800000D03*
X254500000Y-225800000D03*
X255150000Y-225800000D03*
%TD*%
D12*
%TO.C,C1004*%
X207680000Y-151400000D03*
X206720000Y-151400000D03*
%TD*%
D11*
%TO.C,R1631*%
X205500000Y-77390000D03*
X205500000Y-78410000D03*
%TD*%
D14*
%TO.C,C1506*%
X229270000Y-155950000D03*
X230230000Y-155950000D03*
%TD*%
D11*
%TO.C,R1003*%
X226900000Y-167490000D03*
X226900000Y-168510000D03*
%TD*%
D47*
%TO.C,FB305*%
X155415000Y-147650000D03*
X156385000Y-147650000D03*
%TD*%
D11*
%TO.C,R1628*%
X210600000Y-223610000D03*
X210600000Y-224630000D03*
%TD*%
D15*
%TO.C,R810*%
X57000000Y-60910000D03*
X57000000Y-59890000D03*
%TD*%
D69*
%TO.C,Y101*%
X67862400Y-230950000D03*
X70162400Y-230950000D03*
X70162400Y-229050000D03*
X67862400Y-229050000D03*
%TD*%
D18*
%TO.C,R206*%
X50275000Y-73900000D03*
X51925000Y-73900000D03*
%TD*%
D12*
%TO.C,C1505*%
X190080000Y-211100000D03*
X189120000Y-211100000D03*
%TD*%
D14*
%TO.C,C414*%
X70320000Y-205300000D03*
X71280000Y-205300000D03*
%TD*%
D13*
%TO.C,CB104*%
X77800000Y-69570000D03*
X77800000Y-70530000D03*
%TD*%
D23*
%TO.C,MK1407*%
X231550000Y-230270000D03*
D24*
X231620000Y-226860000D03*
X229080000Y-226860000D03*
D23*
X229150000Y-230270000D03*
X230350000Y-230270000D03*
%TD*%
D11*
%TO.C,R1631*%
X251500000Y-153390000D03*
X251500000Y-154410000D03*
%TD*%
D14*
%TO.C,C1506*%
X229270000Y-231950000D03*
X230230000Y-231950000D03*
%TD*%
D17*
%TO.C,CB1601*%
X250500000Y-164700000D03*
X250500000Y-163740000D03*
%TD*%
D32*
%TO.C,U1601*%
X255150000Y-68200000D03*
X254500000Y-68200000D03*
X253850000Y-68200000D03*
X253200000Y-68200000D03*
X252550000Y-68200000D03*
X251900000Y-68200000D03*
X251250000Y-68200000D03*
X251250000Y-73800000D03*
X251900000Y-73800000D03*
X252550000Y-73800000D03*
X253200000Y-73800000D03*
X253850000Y-73800000D03*
X254500000Y-73800000D03*
X255150000Y-73800000D03*
%TD*%
D19*
%TO.C,R911*%
X89290000Y-91200000D03*
X90310000Y-91200000D03*
%TD*%
D16*
%TO.C,R703*%
X48910000Y-51200000D03*
X47890000Y-51200000D03*
%TD*%
D12*
%TO.C,C1611*%
X209980000Y-152400000D03*
X209020000Y-152400000D03*
%TD*%
D11*
%TO.C,R1632*%
X204400000Y-77390000D03*
X204400000Y-78410000D03*
%TD*%
D47*
%TO.C,FB602*%
X44515000Y-61900000D03*
X45485000Y-61900000D03*
%TD*%
D16*
%TO.C,R703*%
X48910000Y-127200000D03*
X47890000Y-127200000D03*
%TD*%
D13*
%TO.C,C413*%
X70350000Y-54370000D03*
X70350000Y-55330000D03*
%TD*%
%TO.C,CB1603*%
X211700000Y-147640000D03*
X211700000Y-148600000D03*
%TD*%
D15*
%TO.C,R1620*%
X250400000Y-140610000D03*
X250400000Y-139590000D03*
%TD*%
D13*
%TO.C,C704*%
X49000000Y-49120000D03*
X49000000Y-50080000D03*
%TD*%
D14*
%TO.C,C1612*%
X250420000Y-76400000D03*
X251380000Y-76400000D03*
%TD*%
D12*
%TO.C,C701*%
X46680000Y-52400000D03*
X45720000Y-52400000D03*
%TD*%
D15*
%TO.C,R1604*%
X254900000Y-85410000D03*
X254900000Y-84390000D03*
%TD*%
D12*
%TO.C,C809*%
X59000000Y-139000000D03*
X58040000Y-139000000D03*
%TD*%
D14*
%TO.C,C711*%
X58040000Y-124000000D03*
X59000000Y-124000000D03*
%TD*%
D12*
%TO.C,C410*%
X67880000Y-203200000D03*
X66920000Y-203200000D03*
%TD*%
D15*
%TO.C,R1601*%
X252600000Y-233310000D03*
X252600000Y-232290000D03*
%TD*%
D19*
%TO.C,R1629*%
X208990000Y-227400000D03*
X210010000Y-227400000D03*
%TD*%
D14*
%TO.C,C415*%
X66920000Y-129200000D03*
X67880000Y-129200000D03*
%TD*%
D19*
%TO.C,R908*%
X86897800Y-169600000D03*
X87917800Y-169600000D03*
%TD*%
D14*
%TO.C,C1610*%
X204420000Y-217600000D03*
X205380000Y-217600000D03*
%TD*%
D12*
%TO.C,CB901*%
X72980000Y-151600000D03*
X72020000Y-151600000D03*
%TD*%
D11*
%TO.C,R1625*%
X203300000Y-140190000D03*
X203300000Y-141210000D03*
%TD*%
D14*
%TO.C,C1603*%
X251720000Y-162500000D03*
X252680000Y-162500000D03*
%TD*%
D23*
%TO.C,MK1408*%
X238450000Y-63730000D03*
D24*
X238380000Y-67140000D03*
X240920000Y-67140000D03*
D23*
X240850000Y-63730000D03*
X239650000Y-63730000D03*
%TD*%
D70*
%TO.C,SW102*%
X48400000Y-146400000D03*
X56150000Y-146400000D03*
%TD*%
D15*
%TO.C,R1614*%
X229150000Y-214060000D03*
X229150000Y-213040000D03*
%TD*%
D17*
%TO.C,CB1607*%
X207800000Y-230380000D03*
X207800000Y-229420000D03*
%TD*%
D16*
%TO.C,R1624*%
X205410000Y-142600000D03*
X204390000Y-142600000D03*
%TD*%
D14*
%TO.C,CB1403*%
X229270000Y-80950000D03*
X230230000Y-80950000D03*
%TD*%
D12*
%TO.C,C1101*%
X239180000Y-169600000D03*
X238220000Y-169600000D03*
%TD*%
%TO.C,CB1406*%
X194730000Y-214050000D03*
X193770000Y-214050000D03*
%TD*%
D15*
%TO.C,R108*%
X55700000Y-74410000D03*
X55700000Y-73390000D03*
%TD*%
%TO.C,R402*%
X63000000Y-205110000D03*
X63000000Y-204090000D03*
%TD*%
D23*
%TO.C,MK1407*%
X185550000Y-78270000D03*
D24*
X185620000Y-74860000D03*
X183080000Y-74860000D03*
D23*
X183150000Y-78270000D03*
X184350000Y-78270000D03*
%TD*%
D15*
%TO.C,R1620*%
X204400000Y-216610000D03*
X204400000Y-215590000D03*
%TD*%
D14*
%TO.C,C1506*%
X183270000Y-79950000D03*
X184230000Y-79950000D03*
%TD*%
D12*
%TO.C,C410*%
X67880000Y-127200000D03*
X66920000Y-127200000D03*
%TD*%
D14*
%TO.C,C808*%
X51320000Y-140100000D03*
X52280000Y-140100000D03*
%TD*%
D13*
%TO.C,C705*%
X53800000Y-204320000D03*
X53800000Y-205280000D03*
%TD*%
D11*
%TO.C,R1633*%
X203800000Y-223590000D03*
X203800000Y-224610000D03*
%TD*%
%TO.C,R1625*%
X249300000Y-216190000D03*
X249300000Y-217210000D03*
%TD*%
%TO.C,R1612*%
X190200000Y-233890000D03*
X190200000Y-234910000D03*
%TD*%
D70*
%TO.C,SW102*%
X48400000Y-70400000D03*
X56150000Y-70400000D03*
%TD*%
D14*
%TO.C,C1506*%
X183270000Y-155950000D03*
X184230000Y-155950000D03*
%TD*%
D12*
%TO.C,C305*%
X136000000Y-213950000D03*
X135040000Y-213950000D03*
%TD*%
D15*
%TO.C,R102*%
X54600000Y-173225000D03*
X54600000Y-172205000D03*
%TD*%
D11*
%TO.C,R1612*%
X236200000Y-81890000D03*
X236200000Y-82910000D03*
%TD*%
D14*
%TO.C,CB1001*%
X180920000Y-238500000D03*
X181880000Y-238500000D03*
%TD*%
D13*
%TO.C,CB1407*%
X191300000Y-145920000D03*
X191300000Y-146880000D03*
%TD*%
D14*
%TO.C,C1102*%
X238220000Y-249200000D03*
X239180000Y-249200000D03*
%TD*%
D16*
%TO.C,R1634*%
X251410000Y-151400000D03*
X250390000Y-151400000D03*
%TD*%
D15*
%TO.C,R1616*%
X192450000Y-214060000D03*
X192450000Y-213040000D03*
%TD*%
D11*
%TO.C,R1632*%
X250400000Y-77390000D03*
X250400000Y-78410000D03*
%TD*%
D59*
%TO.C,D301*%
X136000000Y-60450000D03*
X134600000Y-60450000D03*
%TD*%
D17*
%TO.C,CB1605*%
X202700000Y-222380000D03*
X202700000Y-221420000D03*
%TD*%
D15*
%TO.C,R1620*%
X250400000Y-64610000D03*
X250400000Y-63590000D03*
%TD*%
D12*
%TO.C,C405*%
X65480000Y-120000000D03*
X64520000Y-120000000D03*
%TD*%
D15*
%TO.C,R207*%
X62200000Y-142510000D03*
X62200000Y-141490000D03*
%TD*%
D12*
%TO.C,C1504*%
X253680000Y-65600000D03*
X252720000Y-65600000D03*
%TD*%
D15*
%TO.C,R1606*%
X256000000Y-85410000D03*
X256000000Y-84390000D03*
%TD*%
D12*
%TO.C,C1002*%
X182880000Y-98200000D03*
X181920000Y-98200000D03*
%TD*%
D13*
%TO.C,C101*%
X78300000Y-217020000D03*
X78300000Y-217980000D03*
%TD*%
D12*
%TO.C,CB1002*%
X228880000Y-244600000D03*
X227920000Y-244600000D03*
%TD*%
D43*
%TO.C,FB102*%
X77000000Y-163885000D03*
X77000000Y-162915000D03*
%TD*%
D25*
%TO.C,D103*%
X80412500Y-139600000D03*
X81987500Y-139600000D03*
%TD*%
D14*
%TO.C,C403*%
X70320000Y-128200000D03*
X71280000Y-128200000D03*
%TD*%
D67*
%TO.C,FB1001*%
X187285000Y-247400000D03*
X186315000Y-247400000D03*
%TD*%
D15*
%TO.C,R103*%
X52200000Y-173225000D03*
X52200000Y-172205000D03*
%TD*%
D13*
%TO.C,C413*%
X70350000Y-130370000D03*
X70350000Y-131330000D03*
%TD*%
D11*
%TO.C,R1625*%
X203300000Y-216190000D03*
X203300000Y-217210000D03*
%TD*%
D17*
%TO.C,CB1605*%
X202700000Y-146380000D03*
X202700000Y-145420000D03*
%TD*%
D11*
%TO.C,R909*%
X89300000Y-225800000D03*
X89300000Y-226820000D03*
%TD*%
D15*
%TO.C,R1614*%
X183150000Y-62060000D03*
X183150000Y-61040000D03*
%TD*%
D11*
%TO.C,R809*%
X57000000Y-137890000D03*
X57000000Y-138910000D03*
%TD*%
D12*
%TO.C,C709*%
X59000000Y-127200000D03*
X58040000Y-127200000D03*
%TD*%
D63*
%TO.C,U1001*%
X180950000Y-236837500D03*
X181900000Y-236837500D03*
X182850000Y-236837500D03*
X182850000Y-234562500D03*
X180950000Y-234562500D03*
%TD*%
D56*
%TO.C,R915*%
X85725000Y-150300000D03*
X84075000Y-150300000D03*
%TD*%
D23*
%TO.C,MK1404*%
X185020000Y-221800000D03*
D24*
X181610000Y-221730000D03*
X181610000Y-224270000D03*
D23*
X185020000Y-224200000D03*
X185020000Y-223000000D03*
%TD*%
D17*
%TO.C,C910*%
X81862500Y-51880000D03*
X81862500Y-50920000D03*
%TD*%
D14*
%TO.C,C1603*%
X251720000Y-238500000D03*
X252680000Y-238500000D03*
%TD*%
D23*
%TO.C,MK1404*%
X231020000Y-221800000D03*
D24*
X227610000Y-221730000D03*
X227610000Y-224270000D03*
D23*
X231020000Y-224200000D03*
X231020000Y-223000000D03*
%TD*%
D17*
%TO.C,C706*%
X50200000Y-51080000D03*
X50200000Y-50120000D03*
%TD*%
D13*
%TO.C,C911*%
X88500000Y-206720000D03*
X88500000Y-207680000D03*
%TD*%
D15*
%TO.C,R403*%
X77000000Y-201010000D03*
X77000000Y-199990000D03*
%TD*%
%TO.C,R1620*%
X250400000Y-216610000D03*
X250400000Y-215590000D03*
%TD*%
D19*
%TO.C,R1609*%
X232590000Y-145800000D03*
X233610000Y-145800000D03*
%TD*%
D11*
%TO.C,R1626*%
X254900000Y-229390000D03*
X254900000Y-230410000D03*
%TD*%
D23*
%TO.C,MK1408*%
X238450000Y-215730000D03*
D24*
X238380000Y-219140000D03*
X240920000Y-219140000D03*
D23*
X240850000Y-215730000D03*
X239650000Y-215730000D03*
%TD*%
D19*
%TO.C,R205*%
X56490000Y-79400000D03*
X57510000Y-79400000D03*
%TD*%
D13*
%TO.C,C103*%
X62200000Y-224320000D03*
X62200000Y-225280000D03*
%TD*%
D16*
%TO.C,R1634*%
X205410000Y-75400000D03*
X204390000Y-75400000D03*
%TD*%
D15*
%TO.C,R1604*%
X208900000Y-237410000D03*
X208900000Y-236390000D03*
%TD*%
D12*
%TO.C,CB904*%
X87880000Y-91200000D03*
X86920000Y-91200000D03*
%TD*%
D13*
%TO.C,CB1609*%
X252600000Y-215620000D03*
X252600000Y-216580000D03*
%TD*%
D14*
%TO.C,CB1401*%
X238570000Y-156000000D03*
X239530000Y-156000000D03*
%TD*%
D51*
%TO.C,X401*%
X76200000Y-131000000D03*
X76200000Y-128700000D03*
D52*
X74300000Y-128700000D03*
X74300000Y-131000000D03*
%TD*%
D36*
%TO.C,C1609*%
X249000000Y-151412500D03*
X249000000Y-149987500D03*
%TD*%
D12*
%TO.C,CB901*%
X72980000Y-227600000D03*
X72020000Y-227600000D03*
%TD*%
%TO.C,C701*%
X46680000Y-128400000D03*
X45720000Y-128400000D03*
%TD*%
%TO.C,CB1502*%
X207680000Y-66600000D03*
X206720000Y-66600000D03*
%TD*%
D11*
%TO.C,R1613*%
X240850000Y-79990000D03*
X240850000Y-81010000D03*
%TD*%
D15*
%TO.C,R1611*%
X187800000Y-212110000D03*
X187800000Y-211090000D03*
%TD*%
%TO.C,R807*%
X55800000Y-138910000D03*
X55800000Y-137890000D03*
%TD*%
D16*
%TO.C,R1634*%
X251410000Y-75400000D03*
X250390000Y-75400000D03*
%TD*%
D15*
%TO.C,R1603*%
X205500000Y-85410000D03*
X205500000Y-84390000D03*
%TD*%
D17*
%TO.C,CB1608*%
X252600000Y-154380000D03*
X252600000Y-153420000D03*
%TD*%
D12*
%TO.C,CB903*%
X87880000Y-244400000D03*
X86920000Y-244400000D03*
%TD*%
D15*
%TO.C,R207*%
X62200000Y-218510000D03*
X62200000Y-217490000D03*
%TD*%
D47*
%TO.C,FB1101*%
X238215000Y-246800000D03*
X239185000Y-246800000D03*
%TD*%
D16*
%TO.C,R910*%
X90310000Y-168400000D03*
X89290000Y-168400000D03*
%TD*%
D23*
%TO.C,MK1402*%
X233800000Y-61780000D03*
D24*
X233730000Y-65190000D03*
X236270000Y-65190000D03*
D23*
X236200000Y-61780000D03*
X235000000Y-61780000D03*
%TD*%
D17*
%TO.C,C202*%
X38400000Y-226280000D03*
X38400000Y-225320000D03*
%TD*%
D23*
%TO.C,MK1402*%
X187800000Y-61780000D03*
D24*
X187730000Y-65190000D03*
X190270000Y-65190000D03*
D23*
X190200000Y-61780000D03*
X189000000Y-61780000D03*
%TD*%
D14*
%TO.C,C102*%
X67532400Y-156400000D03*
X68492400Y-156400000D03*
%TD*%
D13*
%TO.C,C703*%
X47800000Y-49120000D03*
X47800000Y-50080000D03*
%TD*%
D62*
%TO.C,U903*%
X85737500Y-203750000D03*
X85737500Y-202800000D03*
X85737500Y-201850000D03*
X83462500Y-201850000D03*
X83462500Y-203750000D03*
%TD*%
D13*
%TO.C,C804*%
X49000000Y-212920000D03*
X49000000Y-213880000D03*
%TD*%
D18*
%TO.C,R210*%
X90175000Y-203300000D03*
X91825000Y-203300000D03*
%TD*%
D12*
%TO.C,C712*%
X52280000Y-205300000D03*
X51320000Y-205300000D03*
%TD*%
D71*
%TO.C,U401*%
X68215000Y-125500000D03*
X68715000Y-125500000D03*
X69215000Y-125500000D03*
X69715000Y-125500000D03*
X70215000Y-125500000D03*
D72*
X70715000Y-125500000D03*
X71215000Y-125500000D03*
X71715000Y-125500000D03*
X72215000Y-125500000D03*
X72715000Y-125500000D03*
D73*
X73465000Y-124750000D03*
X73465000Y-124250000D03*
X73465000Y-123750000D03*
X73465000Y-123250000D03*
X73465000Y-122750000D03*
D74*
X73465000Y-122250000D03*
X73465000Y-121750000D03*
X73465000Y-121250000D03*
X73465000Y-120750000D03*
X73465000Y-120250000D03*
D72*
X72715000Y-119500000D03*
X72215000Y-119500000D03*
X71715000Y-119500000D03*
X71215000Y-119500000D03*
X70715000Y-119500000D03*
D71*
X70215000Y-119500000D03*
X69715000Y-119500000D03*
X69215000Y-119500000D03*
X68715000Y-119500000D03*
X68215000Y-119500000D03*
D74*
X67465000Y-120250000D03*
X67465000Y-120750000D03*
X67465000Y-121250000D03*
X67465000Y-121750000D03*
X67465000Y-122250000D03*
D73*
X67465000Y-122750000D03*
X67465000Y-123250000D03*
X67465000Y-123750000D03*
X67465000Y-124250000D03*
X67465000Y-124750000D03*
D75*
X69465000Y-123500000D03*
D76*
X71465000Y-123500000D03*
D77*
X69465000Y-121500000D03*
D78*
X71465000Y-121500000D03*
%TD*%
D12*
%TO.C,CB904*%
X87880000Y-167200000D03*
X86920000Y-167200000D03*
%TD*%
D23*
%TO.C,MK1404*%
X185020000Y-145800000D03*
D24*
X181610000Y-145730000D03*
X181610000Y-148270000D03*
D23*
X185020000Y-148200000D03*
X185020000Y-147000000D03*
%TD*%
D79*
%TO.C,Y102*%
X65012400Y-154500000D03*
X65012400Y-152000000D03*
%TD*%
D15*
%TO.C,R103*%
X52200000Y-97225000D03*
X52200000Y-96205000D03*
%TD*%
D13*
%TO.C,C1009*%
X250400000Y-80320000D03*
X250400000Y-81280000D03*
%TD*%
D19*
%TO.C,R1609*%
X232590000Y-69800000D03*
X233610000Y-69800000D03*
%TD*%
D53*
%TO.C,J205*%
X60075000Y-95350000D03*
X73925000Y-95400000D03*
D54*
X71375000Y-92400000D03*
X70125000Y-92400000D03*
X68875000Y-92400000D03*
D55*
X67625000Y-92400000D03*
X66375000Y-92400000D03*
X65125000Y-92400000D03*
D54*
X63875000Y-92400000D03*
D55*
X62625000Y-92400000D03*
%TD*%
D12*
%TO.C,C405*%
X65480000Y-196000000D03*
X64520000Y-196000000D03*
%TD*%
D80*
%TO.C,J206*%
X90650000Y-62050000D03*
X90650000Y-61300000D03*
D81*
X90650000Y-60700000D03*
X90650000Y-59200000D03*
X90650000Y-58200000D03*
X90650000Y-57200000D03*
D80*
X90650000Y-56600000D03*
D82*
X90650000Y-55850000D03*
D80*
X90650000Y-55850000D03*
X90650000Y-56600000D03*
D81*
X90650000Y-57700000D03*
X90650000Y-58700000D03*
X90650000Y-59700000D03*
X90650000Y-60200000D03*
D80*
X90650000Y-61300000D03*
X90650000Y-62050000D03*
%TD*%
D11*
%TO.C,R1631*%
X205500000Y-229390000D03*
X205500000Y-230410000D03*
%TD*%
D16*
%TO.C,R1624*%
X251410000Y-66600000D03*
X250390000Y-66600000D03*
%TD*%
D12*
%TO.C,C1503*%
X231430000Y-137050000D03*
X230470000Y-137050000D03*
%TD*%
%TO.C,CB1002*%
X228880000Y-168600000D03*
X227920000Y-168600000D03*
%TD*%
%TO.C,C1002*%
X228880000Y-250200000D03*
X227920000Y-250200000D03*
%TD*%
D19*
%TO.C,R107*%
X83690000Y-217400000D03*
X84710000Y-217400000D03*
%TD*%
D14*
%TO.C,CB1301*%
X78920000Y-224900000D03*
X79880000Y-224900000D03*
%TD*%
D45*
%TO.C,D901*%
X90195300Y-247600000D03*
X88620300Y-247600000D03*
%TD*%
D12*
%TO.C,CB901*%
X72980000Y-75600000D03*
X72020000Y-75600000D03*
%TD*%
D19*
%TO.C,R105*%
X83690000Y-139600000D03*
X84710000Y-139600000D03*
%TD*%
D46*
%TO.C,D303*%
X164400000Y-159825000D03*
X164400000Y-161400000D03*
%TD*%
D17*
%TO.C,C1401*%
X187600000Y-72080000D03*
X187600000Y-71120000D03*
%TD*%
D23*
%TO.C,MK1401*%
X236200000Y-232220000D03*
D24*
X236270000Y-228810000D03*
X233730000Y-228810000D03*
D23*
X233800000Y-232220000D03*
X235000000Y-232220000D03*
%TD*%
D16*
%TO.C,R302*%
X162710000Y-159800000D03*
X161690000Y-159800000D03*
%TD*%
D17*
%TO.C,C909*%
X79600000Y-79480000D03*
X79600000Y-78520000D03*
%TD*%
D14*
%TO.C,CB1301*%
X78920000Y-72900000D03*
X79880000Y-72900000D03*
%TD*%
D12*
%TO.C,C104*%
X70480000Y-227600000D03*
X69520000Y-227600000D03*
%TD*%
D13*
%TO.C,C103*%
X62200000Y-148320000D03*
X62200000Y-149280000D03*
%TD*%
D14*
%TO.C,C1402*%
X192570000Y-157000000D03*
X193530000Y-157000000D03*
%TD*%
D11*
%TO.C,R1002*%
X180700000Y-253090000D03*
X180700000Y-254110000D03*
%TD*%
D47*
%TO.C,FB303*%
X135030000Y-231500000D03*
X136000000Y-231500000D03*
%TD*%
D12*
%TO.C,C204*%
X57460000Y-230270000D03*
X56500000Y-230270000D03*
%TD*%
%TO.C,C1505*%
X190080000Y-59100000D03*
X189120000Y-59100000D03*
%TD*%
D13*
%TO.C,C408*%
X75550000Y-200020000D03*
X75550000Y-200980000D03*
%TD*%
D14*
%TO.C,CB105*%
X66220000Y-211700000D03*
X67180000Y-211700000D03*
%TD*%
D51*
%TO.C,X401*%
X76200000Y-55000000D03*
X76200000Y-52700000D03*
D52*
X74300000Y-52700000D03*
X74300000Y-55000000D03*
%TD*%
D37*
%TO.C,C1201*%
X81200000Y-45517500D03*
X81200000Y-44382500D03*
%TD*%
D14*
%TO.C,CB1405*%
X187920000Y-157900000D03*
X188880000Y-157900000D03*
%TD*%
D11*
%TO.C,R1101*%
X240300000Y-94890000D03*
X240300000Y-95910000D03*
%TD*%
D57*
%TO.C,U1401*%
X58825000Y-155575000D03*
X59475000Y-155575000D03*
X60125000Y-155575000D03*
X60775000Y-155575000D03*
X60775000Y-157625000D03*
X60125000Y-157625000D03*
X59475000Y-157625000D03*
X58825000Y-157625000D03*
%TD*%
D19*
%TO.C,R921*%
X85290000Y-129200000D03*
X86310000Y-129200000D03*
%TD*%
D29*
%TO.C,U1701*%
X253620000Y-240980000D03*
X252780000Y-240980000D03*
X253620000Y-241820000D03*
X252780000Y-241820000D03*
D30*
X253950000Y-239937500D03*
X253450000Y-239937500D03*
X252950000Y-239937500D03*
X252450000Y-239937500D03*
D31*
X251737500Y-240650000D03*
X251737500Y-241150000D03*
X251737500Y-241650000D03*
X251737500Y-242150000D03*
D30*
X252450000Y-242862500D03*
X252950000Y-242862500D03*
X253450000Y-242862500D03*
X253950000Y-242862500D03*
D31*
X254662500Y-242150000D03*
X254662500Y-241650000D03*
X254662500Y-241150000D03*
X254662500Y-240650000D03*
%TD*%
D19*
%TO.C,R202*%
X56490000Y-235000000D03*
X57510000Y-235000000D03*
%TD*%
D12*
%TO.C,C409*%
X67880000Y-52200000D03*
X66920000Y-52200000D03*
%TD*%
D46*
%TO.C,D1001*%
X182120000Y-100795000D03*
X182120000Y-102370000D03*
%TD*%
D19*
%TO.C,R105*%
X83690000Y-63600000D03*
X84710000Y-63600000D03*
%TD*%
D14*
%TO.C,CB1405*%
X233920000Y-81900000D03*
X234880000Y-81900000D03*
%TD*%
D13*
%TO.C,CB1604*%
X202700000Y-71620000D03*
X202700000Y-72580000D03*
%TD*%
D12*
%TO.C,CB1002*%
X182880000Y-92600000D03*
X181920000Y-92600000D03*
%TD*%
D83*
%TO.C,SW901*%
X95200000Y-96400000D03*
X95200000Y-94400000D03*
X95200000Y-90400000D03*
X95200000Y-88400000D03*
X92400000Y-96400000D03*
X92400000Y-94400000D03*
X92400000Y-90400000D03*
X92400000Y-88400000D03*
%TD*%
D17*
%TO.C,CB1606*%
X257700000Y-146400000D03*
X257700000Y-145440000D03*
%TD*%
D11*
%TO.C,R1613*%
X240850000Y-231990000D03*
X240850000Y-233010000D03*
%TD*%
D16*
%TO.C,R1201*%
X83310000Y-118800000D03*
X82290000Y-118800000D03*
%TD*%
D46*
%TO.C,D305*%
X160000000Y-232612500D03*
X160000000Y-234187500D03*
%TD*%
D14*
%TO.C,CB1401*%
X238570000Y-80000000D03*
X239530000Y-80000000D03*
%TD*%
D13*
%TO.C,C804*%
X49000000Y-136920000D03*
X49000000Y-137880000D03*
%TD*%
D14*
%TO.C,C301*%
X160520000Y-213800000D03*
X161480000Y-213800000D03*
%TD*%
D47*
%TO.C,FB1101*%
X238215000Y-170800000D03*
X239185000Y-170800000D03*
%TD*%
D14*
%TO.C,C1612*%
X204420000Y-228400000D03*
X205380000Y-228400000D03*
%TD*%
D47*
%TO.C,FB502*%
X44500000Y-202100000D03*
X45470000Y-202100000D03*
%TD*%
D19*
%TO.C,R1609*%
X186590000Y-69800000D03*
X187610000Y-69800000D03*
%TD*%
D13*
%TO.C,CB1003*%
X205500000Y-156320000D03*
X205500000Y-157280000D03*
%TD*%
D19*
%TO.C,R105*%
X83690000Y-215600000D03*
X84710000Y-215600000D03*
%TD*%
D15*
%TO.C,R903*%
X90300000Y-219110000D03*
X90300000Y-218090000D03*
%TD*%
D60*
%TO.C,U101*%
X66450000Y-148717200D03*
X66950000Y-148717200D03*
X67450000Y-148717200D03*
X67950000Y-148717200D03*
X68450000Y-148717200D03*
X68950000Y-148717200D03*
X69450000Y-148717200D03*
X69950000Y-148717200D03*
X70450000Y-148717200D03*
X70950000Y-148717200D03*
X71450000Y-148717200D03*
X71950000Y-148717200D03*
X72450000Y-148717200D03*
X72950000Y-148717200D03*
X73450000Y-148717200D03*
X73950000Y-148717200D03*
D61*
X75875000Y-146792200D03*
X75875000Y-146292200D03*
X75875000Y-145792200D03*
X75875000Y-145292200D03*
X75875000Y-144792200D03*
X75875000Y-144292200D03*
X75875000Y-143792200D03*
X75875000Y-143292200D03*
X75875000Y-142792200D03*
X75875000Y-142292200D03*
X75875000Y-141792200D03*
X75875000Y-141292200D03*
X75875000Y-140792200D03*
X75875000Y-140292200D03*
X75875000Y-139792200D03*
X75875000Y-139292200D03*
D60*
X73950000Y-137367200D03*
X73450000Y-137367200D03*
X72950000Y-137367200D03*
X72450000Y-137367200D03*
X71950000Y-137367200D03*
X71450000Y-137367200D03*
X70950000Y-137367200D03*
X70450000Y-137367200D03*
X69950000Y-137367200D03*
X69450000Y-137367200D03*
X68950000Y-137367200D03*
X68450000Y-137367200D03*
X67950000Y-137367200D03*
X67450000Y-137367200D03*
X66950000Y-137367200D03*
X66450000Y-137367200D03*
D61*
X64525000Y-139292200D03*
X64525000Y-139792200D03*
X64525000Y-140292200D03*
X64525000Y-140792200D03*
X64525000Y-141292200D03*
X64525000Y-141792200D03*
X64525000Y-142292200D03*
X64525000Y-142792200D03*
X64525000Y-143292200D03*
X64525000Y-143792200D03*
X64525000Y-144292200D03*
X64525000Y-144792200D03*
X64525000Y-145292200D03*
X64525000Y-145792200D03*
X64525000Y-146292200D03*
X64525000Y-146792200D03*
%TD*%
D65*
%TO.C,D102*%
X52200000Y-244525000D03*
X52200000Y-246275000D03*
%TD*%
D15*
%TO.C,R1621*%
X210600000Y-146430000D03*
X210600000Y-145410000D03*
%TD*%
D12*
%TO.C,C1505*%
X190080000Y-135100000D03*
X189120000Y-135100000D03*
%TD*%
D14*
%TO.C,C1501*%
X233920000Y-82900000D03*
X234880000Y-82900000D03*
%TD*%
%TO.C,C1610*%
X250420000Y-65600000D03*
X251380000Y-65600000D03*
%TD*%
%TO.C,C811*%
X58040000Y-211800000D03*
X59000000Y-211800000D03*
%TD*%
D17*
%TO.C,C905*%
X87262500Y-127880000D03*
X87262500Y-126920000D03*
%TD*%
D62*
%TO.C,U902*%
X83423500Y-155458000D03*
X83423500Y-154508000D03*
X83423500Y-153558000D03*
X81148500Y-153558000D03*
X81148500Y-155458000D03*
%TD*%
D14*
%TO.C,C403*%
X70320000Y-204200000D03*
X71280000Y-204200000D03*
%TD*%
D23*
%TO.C,MK1402*%
X233800000Y-213780000D03*
D24*
X233730000Y-217190000D03*
X236270000Y-217190000D03*
D23*
X236200000Y-213780000D03*
X235000000Y-213780000D03*
%TD*%
D12*
%TO.C,C1505*%
X236080000Y-211100000D03*
X235120000Y-211100000D03*
%TD*%
D15*
%TO.C,R1619*%
X251500000Y-140610000D03*
X251500000Y-139590000D03*
%TD*%
D19*
%TO.C,R1514*%
X208990000Y-66600000D03*
X210010000Y-66600000D03*
%TD*%
D45*
%TO.C,D901*%
X90195300Y-171600000D03*
X88620300Y-171600000D03*
%TD*%
D40*
%TO.C,C1608*%
X257400000Y-142587500D03*
X257400000Y-144012500D03*
%TD*%
D15*
%TO.C,R401*%
X63000000Y-203110000D03*
X63000000Y-202090000D03*
%TD*%
D12*
%TO.C,CB1402*%
X185430000Y-214050000D03*
X184470000Y-214050000D03*
%TD*%
%TO.C,CB1602*%
X250480000Y-90220000D03*
X249520000Y-90220000D03*
%TD*%
%TO.C,CB1402*%
X185430000Y-62050000D03*
X184470000Y-62050000D03*
%TD*%
D11*
%TO.C,R919*%
X79600000Y-228490000D03*
X79600000Y-229510000D03*
%TD*%
D14*
%TO.C,CB1401*%
X192570000Y-80000000D03*
X193530000Y-80000000D03*
%TD*%
D47*
%TO.C,FB1102*%
X192215000Y-248000000D03*
X193185000Y-248000000D03*
%TD*%
D13*
%TO.C,CB106*%
X63600000Y-148320000D03*
X63600000Y-149280000D03*
%TD*%
D12*
%TO.C,CB1502*%
X253680000Y-142600000D03*
X252720000Y-142600000D03*
%TD*%
D11*
%TO.C,R1623*%
X211100000Y-140190000D03*
X211100000Y-141210000D03*
%TD*%
D16*
%TO.C,R803*%
X48910000Y-139000000D03*
X47890000Y-139000000D03*
%TD*%
D12*
%TO.C,CB1202*%
X83680000Y-198950000D03*
X82720000Y-198950000D03*
%TD*%
D15*
%TO.C,R1602*%
X253900000Y-233310000D03*
X253900000Y-232290000D03*
%TD*%
D19*
%TO.C,R1629*%
X254990000Y-151400000D03*
X256010000Y-151400000D03*
%TD*%
D15*
%TO.C,R1601*%
X206600000Y-233310000D03*
X206600000Y-232290000D03*
%TD*%
D13*
%TO.C,C408*%
X75550000Y-124020000D03*
X75550000Y-124980000D03*
%TD*%
D15*
%TO.C,R1619*%
X205500000Y-216610000D03*
X205500000Y-215590000D03*
%TD*%
D13*
%TO.C,C1606*%
X250400000Y-82320000D03*
X250400000Y-83280000D03*
%TD*%
D12*
%TO.C,C302*%
X161480000Y-211400000D03*
X160520000Y-211400000D03*
%TD*%
D15*
%TO.C,R1604*%
X254900000Y-161410000D03*
X254900000Y-160390000D03*
%TD*%
D12*
%TO.C,C1004*%
X253680000Y-75400000D03*
X252720000Y-75400000D03*
%TD*%
D13*
%TO.C,C1605*%
X249500000Y-239740000D03*
X249500000Y-240700000D03*
%TD*%
D70*
%TO.C,SW102*%
X48400000Y-222400000D03*
X56150000Y-222400000D03*
%TD*%
D46*
%TO.C,D1001*%
X182120000Y-252795000D03*
X182120000Y-254370000D03*
%TD*%
D12*
%TO.C,CB1404*%
X236080000Y-136100000D03*
X235120000Y-136100000D03*
%TD*%
%TO.C,CB902*%
X72980000Y-150600000D03*
X72020000Y-150600000D03*
%TD*%
D56*
%TO.C,R916*%
X82525000Y-74300000D03*
X80875000Y-74300000D03*
%TD*%
D13*
%TO.C,CB1201*%
X85300000Y-122070000D03*
X85300000Y-123030000D03*
%TD*%
%TO.C,C1605*%
X249500000Y-87740000D03*
X249500000Y-88700000D03*
%TD*%
%TO.C,CB106*%
X63600000Y-224320000D03*
X63600000Y-225280000D03*
%TD*%
D16*
%TO.C,R1608*%
X208710000Y-168300000D03*
X207690000Y-168300000D03*
%TD*%
D15*
%TO.C,R108*%
X55700000Y-150410000D03*
X55700000Y-149390000D03*
%TD*%
D23*
%TO.C,MK1401*%
X236200000Y-156220000D03*
D24*
X236270000Y-152810000D03*
X233730000Y-152810000D03*
D23*
X233800000Y-156220000D03*
X235000000Y-156220000D03*
%TD*%
D14*
%TO.C,CB1401*%
X192570000Y-232000000D03*
X193530000Y-232000000D03*
%TD*%
%TO.C,C1402*%
X238570000Y-157000000D03*
X239530000Y-157000000D03*
%TD*%
D17*
%TO.C,C602*%
X44600000Y-140080000D03*
X44600000Y-139120000D03*
%TD*%
D11*
%TO.C,R1002*%
X226700000Y-177090000D03*
X226700000Y-178110000D03*
%TD*%
D17*
%TO.C,CB102*%
X48900000Y-74380000D03*
X48900000Y-73420000D03*
%TD*%
D14*
%TO.C,C1603*%
X205720000Y-162500000D03*
X206680000Y-162500000D03*
%TD*%
D12*
%TO.C,C1502*%
X255980000Y-65600000D03*
X255020000Y-65600000D03*
%TD*%
D15*
%TO.C,R1602*%
X207900000Y-81310000D03*
X207900000Y-80290000D03*
%TD*%
D37*
%TO.C,C1201*%
X81200000Y-121517500D03*
X81200000Y-120382500D03*
%TD*%
D19*
%TO.C,R1609*%
X232590000Y-221800000D03*
X233610000Y-221800000D03*
%TD*%
D84*
%TO.C,U1301*%
X84875000Y-71455000D03*
X84875000Y-70185000D03*
X84875000Y-68915000D03*
X84875000Y-67645000D03*
X79925000Y-67645000D03*
X79925000Y-68915000D03*
X79925000Y-70185000D03*
X79925000Y-71455000D03*
%TD*%
D15*
%TO.C,R401*%
X63000000Y-127110000D03*
X63000000Y-126090000D03*
%TD*%
D12*
%TO.C,C206*%
X71180000Y-166600000D03*
X70220000Y-166600000D03*
%TD*%
%TO.C,C908*%
X89180000Y-146000000D03*
X88220000Y-146000000D03*
%TD*%
D14*
%TO.C,C1005*%
X232320000Y-94200000D03*
X233280000Y-94200000D03*
%TD*%
D19*
%TO.C,R202*%
X56490000Y-83000000D03*
X57510000Y-83000000D03*
%TD*%
D14*
%TO.C,CB907*%
X82920000Y-151700000D03*
X83880000Y-151700000D03*
%TD*%
D13*
%TO.C,C707*%
X50200000Y-124120000D03*
X50200000Y-125080000D03*
%TD*%
D16*
%TO.C,R801*%
X46710000Y-63000000D03*
X45690000Y-63000000D03*
%TD*%
D12*
%TO.C,C205*%
X71280000Y-83200000D03*
X70320000Y-83200000D03*
%TD*%
D11*
%TO.C,R1615*%
X231550000Y-231940000D03*
X231550000Y-232960000D03*
%TD*%
D18*
%TO.C,R209*%
X86375000Y-136800000D03*
X88025000Y-136800000D03*
%TD*%
D25*
%TO.C,D104*%
X80412500Y-65400000D03*
X81987500Y-65400000D03*
%TD*%
D14*
%TO.C,C1610*%
X250420000Y-217600000D03*
X251380000Y-217600000D03*
%TD*%
D11*
%TO.C,R404*%
X72900000Y-204390000D03*
X72900000Y-205410000D03*
%TD*%
D15*
%TO.C,R1635*%
X203300000Y-77810000D03*
X203300000Y-76790000D03*
%TD*%
D68*
%TO.C,J501*%
X39450000Y-197175000D03*
X39400000Y-206025000D03*
D28*
X42400000Y-203475000D03*
D27*
X42400000Y-202225000D03*
X42400000Y-200975000D03*
X42400000Y-199725000D03*
%TD*%
D16*
%TO.C,R1610*%
X191310000Y-72200000D03*
X190290000Y-72200000D03*
%TD*%
D17*
%TO.C,CB1608*%
X206600000Y-230380000D03*
X206600000Y-229420000D03*
%TD*%
D13*
%TO.C,CB1604*%
X202700000Y-147620000D03*
X202700000Y-148580000D03*
%TD*%
D11*
%TO.C,R601*%
X46600000Y-136890000D03*
X46600000Y-137910000D03*
%TD*%
D15*
%TO.C,R1618*%
X210000000Y-64610000D03*
X210000000Y-63590000D03*
%TD*%
D23*
%TO.C,MK1404*%
X231020000Y-145800000D03*
D24*
X227610000Y-145730000D03*
X227610000Y-148270000D03*
D23*
X231020000Y-148200000D03*
X231020000Y-147000000D03*
%TD*%
D36*
%TO.C,C1613*%
X257400000Y-75412500D03*
X257400000Y-73987500D03*
%TD*%
D19*
%TO.C,R412*%
X75490000Y-45050000D03*
X76510000Y-45050000D03*
%TD*%
D84*
%TO.C,U1301*%
X84875000Y-223455000D03*
X84875000Y-222185000D03*
X84875000Y-220915000D03*
X84875000Y-219645000D03*
X79925000Y-219645000D03*
X79925000Y-220915000D03*
X79925000Y-222185000D03*
X79925000Y-223455000D03*
%TD*%
D26*
%TO.C,J301*%
X83750000Y-249975000D03*
X83800000Y-236125000D03*
D27*
X80800000Y-238675000D03*
X80800000Y-239925000D03*
X80800000Y-241175000D03*
D28*
X80800000Y-242425000D03*
X80800000Y-243675000D03*
X80800000Y-244925000D03*
D27*
X80800000Y-246175000D03*
D28*
X80800000Y-247425000D03*
%TD*%
D47*
%TO.C,FB501*%
X44500000Y-49100000D03*
X45470000Y-49100000D03*
%TD*%
D15*
%TO.C,R1622*%
X203800000Y-70410000D03*
X203800000Y-69390000D03*
%TD*%
D53*
%TO.C,J1101*%
X184575000Y-253550000D03*
X193425000Y-253600000D03*
D54*
X190875000Y-250600000D03*
D55*
X189625000Y-250600000D03*
X188375000Y-250600000D03*
X187125000Y-250600000D03*
%TD*%
D16*
%TO.C,R706*%
X48910000Y-122800000D03*
X47890000Y-122800000D03*
%TD*%
D47*
%TO.C,FB303*%
X135030000Y-79500000D03*
X136000000Y-79500000D03*
%TD*%
D13*
%TO.C,C304*%
X144900000Y-73145000D03*
X144900000Y-74105000D03*
%TD*%
D18*
%TO.C,R914*%
X88582800Y-89414000D03*
X90232800Y-89414000D03*
%TD*%
D13*
%TO.C,C807*%
X50200000Y-135920000D03*
X50200000Y-136880000D03*
%TD*%
D17*
%TO.C,CB1601*%
X204500000Y-88700000D03*
X204500000Y-87740000D03*
%TD*%
D46*
%TO.C,D1001*%
X228120000Y-252795000D03*
X228120000Y-254370000D03*
%TD*%
D47*
%TO.C,FB305*%
X155415000Y-71650000D03*
X156385000Y-71650000D03*
%TD*%
D16*
%TO.C,R1634*%
X205410000Y-151400000D03*
X204390000Y-151400000D03*
%TD*%
D15*
%TO.C,R1601*%
X252600000Y-81310000D03*
X252600000Y-80290000D03*
%TD*%
D47*
%TO.C,FB301*%
X160515000Y-60600000D03*
X161485000Y-60600000D03*
%TD*%
D19*
%TO.C,R408*%
X78490000Y-120050000D03*
X79510000Y-120050000D03*
%TD*%
%TO.C,R921*%
X85290000Y-205200000D03*
X86310000Y-205200000D03*
%TD*%
D12*
%TO.C,C802*%
X46680000Y-210600000D03*
X45720000Y-210600000D03*
%TD*%
%TO.C,C1502*%
X209980000Y-65600000D03*
X209020000Y-65600000D03*
%TD*%
D47*
%TO.C,FB502*%
X44500000Y-50100000D03*
X45470000Y-50100000D03*
%TD*%
D12*
%TO.C,C1611*%
X255980000Y-152400000D03*
X255020000Y-152400000D03*
%TD*%
D47*
%TO.C,FB601*%
X44515000Y-60900000D03*
X45485000Y-60900000D03*
%TD*%
%TO.C,FB1102*%
X238215000Y-96000000D03*
X239185000Y-96000000D03*
%TD*%
D46*
%TO.C,D303*%
X164400000Y-235825000D03*
X164400000Y-237400000D03*
%TD*%
D15*
%TO.C,R1603*%
X205500000Y-161410000D03*
X205500000Y-160390000D03*
%TD*%
D17*
%TO.C,CB1607*%
X207800000Y-78380000D03*
X207800000Y-77420000D03*
%TD*%
D15*
%TO.C,R1605*%
X204400000Y-85410000D03*
X204400000Y-84390000D03*
%TD*%
D70*
%TO.C,SW101*%
X45950000Y-146400000D03*
X38200000Y-146400000D03*
%TD*%
D11*
%TO.C,R1613*%
X194850000Y-79990000D03*
X194850000Y-81010000D03*
%TD*%
D15*
%TO.C,R810*%
X57000000Y-136910000D03*
X57000000Y-135890000D03*
%TD*%
%TO.C,R1635*%
X203300000Y-153810000D03*
X203300000Y-152790000D03*
%TD*%
%TO.C,R1001*%
X228900000Y-87610000D03*
X228900000Y-86590000D03*
%TD*%
D12*
%TO.C,C702*%
X46680000Y-198800000D03*
X45720000Y-198800000D03*
%TD*%
D15*
%TO.C,R102*%
X54600000Y-249225000D03*
X54600000Y-248205000D03*
%TD*%
D17*
%TO.C,C810*%
X58120000Y-137880000D03*
X58120000Y-136920000D03*
%TD*%
D16*
%TO.C,R302*%
X162710000Y-235800000D03*
X161690000Y-235800000D03*
%TD*%
D38*
%TO.C,U1201*%
X83950000Y-196187500D03*
X83450000Y-196187500D03*
X82950000Y-196187500D03*
X82450000Y-196187500D03*
D39*
X82437500Y-196700000D03*
X82437500Y-197200000D03*
D38*
X82450000Y-197712500D03*
X82950000Y-197712500D03*
X83450000Y-197712500D03*
X83950000Y-197712500D03*
D39*
X83962500Y-197200000D03*
X83962500Y-196700000D03*
%TD*%
D14*
%TO.C,C811*%
X58040000Y-135800000D03*
X59000000Y-135800000D03*
%TD*%
D12*
%TO.C,C1604*%
X208680000Y-238500000D03*
X207720000Y-238500000D03*
%TD*%
D23*
%TO.C,MK1402*%
X187800000Y-213780000D03*
D24*
X187730000Y-217190000D03*
X190270000Y-217190000D03*
D23*
X190200000Y-213780000D03*
X189000000Y-213780000D03*
%TD*%
D13*
%TO.C,C306*%
X79400000Y-86940000D03*
X79400000Y-87900000D03*
%TD*%
D56*
%TO.C,R915*%
X85725000Y-226300000D03*
X84075000Y-226300000D03*
%TD*%
D16*
%TO.C,R705*%
X48910000Y-204400000D03*
X47890000Y-204400000D03*
%TD*%
D14*
%TO.C,C303*%
X138370000Y-61950000D03*
X139330000Y-61950000D03*
%TD*%
D12*
%TO.C,C702*%
X46680000Y-46800000D03*
X45720000Y-46800000D03*
%TD*%
D16*
%TO.C,R409*%
X76510000Y-46050000D03*
X75490000Y-46050000D03*
%TD*%
D12*
%TO.C,C1004*%
X207680000Y-227400000D03*
X206720000Y-227400000D03*
%TD*%
D19*
%TO.C,R410*%
X75490000Y-120050000D03*
X76510000Y-120050000D03*
%TD*%
D40*
%TO.C,C1608*%
X211400000Y-66587500D03*
X211400000Y-68012500D03*
%TD*%
D85*
%TO.C,D105*%
X80200000Y-136550000D03*
X80200000Y-137850000D03*
X82200000Y-137850000D03*
X82200000Y-136550000D03*
%TD*%
D11*
%TO.C,R1003*%
X180900000Y-167490000D03*
X180900000Y-168510000D03*
%TD*%
D13*
%TO.C,C1508*%
X190300000Y-221920000D03*
X190300000Y-222880000D03*
%TD*%
D16*
%TO.C,R905*%
X90317800Y-93600000D03*
X89297800Y-93600000D03*
%TD*%
%TO.C,R904*%
X89210000Y-147041800D03*
X88190000Y-147041800D03*
%TD*%
D13*
%TO.C,CB101*%
X78300000Y-139020000D03*
X78300000Y-139980000D03*
%TD*%
D23*
%TO.C,MK1403*%
X238980000Y-72200000D03*
D24*
X242390000Y-72270000D03*
X242390000Y-69730000D03*
D23*
X238980000Y-69800000D03*
X238980000Y-71000000D03*
%TD*%
D12*
%TO.C,C1002*%
X228880000Y-98200000D03*
X227920000Y-98200000D03*
%TD*%
D15*
%TO.C,R1603*%
X251500000Y-161410000D03*
X251500000Y-160390000D03*
%TD*%
D19*
%TO.C,R203*%
X56490000Y-157800000D03*
X57510000Y-157800000D03*
%TD*%
D15*
%TO.C,R1603*%
X251500000Y-85410000D03*
X251500000Y-84390000D03*
%TD*%
D16*
%TO.C,R802*%
X46710000Y-211800000D03*
X45690000Y-211800000D03*
%TD*%
%TO.C,R802*%
X46710000Y-59800000D03*
X45690000Y-59800000D03*
%TD*%
D19*
%TO.C,R921*%
X85290000Y-53200000D03*
X86310000Y-53200000D03*
%TD*%
D11*
%TO.C,R404*%
X72900000Y-52390000D03*
X72900000Y-53410000D03*
%TD*%
D12*
%TO.C,C1502*%
X209980000Y-141600000D03*
X209020000Y-141600000D03*
%TD*%
D14*
%TO.C,C1005*%
X186320000Y-94200000D03*
X187280000Y-94200000D03*
%TD*%
D12*
%TO.C,C908*%
X89180000Y-70000000D03*
X88220000Y-70000000D03*
%TD*%
D19*
%TO.C,R1607*%
X251690000Y-168300000D03*
X252710000Y-168300000D03*
%TD*%
D12*
%TO.C,CB1406*%
X194730000Y-62050000D03*
X193770000Y-62050000D03*
%TD*%
D17*
%TO.C,C105*%
X63012400Y-154930000D03*
X63012400Y-153970000D03*
%TD*%
D12*
%TO.C,C206*%
X71180000Y-242600000D03*
X70220000Y-242600000D03*
%TD*%
D13*
%TO.C,C1009*%
X204400000Y-232320000D03*
X204400000Y-233280000D03*
%TD*%
D23*
%TO.C,MK1406*%
X183150000Y-139730000D03*
D24*
X183080000Y-143140000D03*
X185620000Y-143140000D03*
D23*
X185550000Y-139730000D03*
X184350000Y-139730000D03*
%TD*%
D14*
%TO.C,C1102*%
X192220000Y-97200000D03*
X193180000Y-97200000D03*
%TD*%
D11*
%TO.C,R1631*%
X251500000Y-229390000D03*
X251500000Y-230410000D03*
%TD*%
D16*
%TO.C,R906*%
X89210000Y-148100000D03*
X88190000Y-148100000D03*
%TD*%
D23*
%TO.C,MK1403*%
X238980000Y-224200000D03*
D24*
X242390000Y-224270000D03*
X242390000Y-221730000D03*
D23*
X238980000Y-221800000D03*
X238980000Y-223000000D03*
%TD*%
D16*
%TO.C,R1402*%
X59810000Y-76000000D03*
X58790000Y-76000000D03*
%TD*%
D13*
%TO.C,C907*%
X81800000Y-206520000D03*
X81800000Y-207480000D03*
%TD*%
D14*
%TO.C,C107*%
X66240000Y-210600000D03*
X67200000Y-210600000D03*
%TD*%
%TO.C,CB1403*%
X183270000Y-80950000D03*
X184230000Y-80950000D03*
%TD*%
D11*
%TO.C,R1632*%
X204400000Y-229390000D03*
X204400000Y-230410000D03*
%TD*%
D15*
%TO.C,R403*%
X77000000Y-49010000D03*
X77000000Y-47990000D03*
%TD*%
%TO.C,R103*%
X52200000Y-249225000D03*
X52200000Y-248205000D03*
%TD*%
D12*
%TO.C,CB1406*%
X240730000Y-62050000D03*
X239770000Y-62050000D03*
%TD*%
D18*
%TO.C,R208*%
X90175000Y-52900000D03*
X91825000Y-52900000D03*
%TD*%
D12*
%TO.C,C1507*%
X240730000Y-61050000D03*
X239770000Y-61050000D03*
%TD*%
%TO.C,C1003*%
X187280000Y-172600000D03*
X186320000Y-172600000D03*
%TD*%
D19*
%TO.C,R918*%
X58890000Y-196200000D03*
X59910000Y-196200000D03*
%TD*%
D15*
%TO.C,R1622*%
X249800000Y-70410000D03*
X249800000Y-69390000D03*
%TD*%
D16*
%TO.C,R702*%
X46710000Y-124000000D03*
X45690000Y-124000000D03*
%TD*%
D13*
%TO.C,CB1003*%
X251500000Y-80320000D03*
X251500000Y-81280000D03*
%TD*%
D17*
%TO.C,CB1601*%
X250500000Y-88700000D03*
X250500000Y-87740000D03*
%TD*%
D12*
%TO.C,CB1406*%
X240730000Y-138050000D03*
X239770000Y-138050000D03*
%TD*%
D23*
%TO.C,MK1402*%
X187800000Y-137780000D03*
D24*
X187730000Y-141190000D03*
X190270000Y-141190000D03*
D23*
X190200000Y-137780000D03*
X189000000Y-137780000D03*
%TD*%
D17*
%TO.C,C706*%
X50200000Y-127080000D03*
X50200000Y-126120000D03*
%TD*%
D13*
%TO.C,C1605*%
X203500000Y-87740000D03*
X203500000Y-88700000D03*
%TD*%
D17*
%TO.C,C602*%
X44600000Y-64080000D03*
X44600000Y-63120000D03*
%TD*%
%TO.C,C202*%
X38400000Y-74280000D03*
X38400000Y-73320000D03*
%TD*%
D14*
%TO.C,C1102*%
X192220000Y-173200000D03*
X193180000Y-173200000D03*
%TD*%
D17*
%TO.C,C806*%
X50200000Y-138880000D03*
X50200000Y-137920000D03*
%TD*%
D14*
%TO.C,C1005*%
X232320000Y-170200000D03*
X233280000Y-170200000D03*
%TD*%
%TO.C,C1001*%
X180920000Y-156900000D03*
X181880000Y-156900000D03*
%TD*%
D19*
%TO.C,R1302*%
X80890000Y-72900000D03*
X81910000Y-72900000D03*
%TD*%
D56*
%TO.C,R915*%
X85725000Y-74300000D03*
X84075000Y-74300000D03*
%TD*%
D64*
%TO.C,FB304*%
X78200000Y-162915000D03*
X78200000Y-163885000D03*
%TD*%
D13*
%TO.C,C103*%
X62200000Y-72320000D03*
X62200000Y-73280000D03*
%TD*%
D12*
%TO.C,C1604*%
X254680000Y-162500000D03*
X253720000Y-162500000D03*
%TD*%
%TO.C,C1007*%
X182880000Y-243400000D03*
X181920000Y-243400000D03*
%TD*%
D16*
%TO.C,R910*%
X90310000Y-92400000D03*
X89290000Y-92400000D03*
%TD*%
D46*
%TO.C,D1001*%
X182120000Y-176795000D03*
X182120000Y-178370000D03*
%TD*%
D53*
%TO.C,J207*%
X60075000Y-239850000D03*
X73925000Y-239900000D03*
D54*
X71375000Y-236900000D03*
X70125000Y-236900000D03*
X68875000Y-236900000D03*
D55*
X67625000Y-236900000D03*
X66375000Y-236900000D03*
X65125000Y-236900000D03*
D54*
X63875000Y-236900000D03*
D55*
X62625000Y-236900000D03*
%TD*%
D11*
%TO.C,R917*%
X95300000Y-72490000D03*
X95300000Y-73510000D03*
%TD*%
D23*
%TO.C,MK1404*%
X185020000Y-69800000D03*
D24*
X181610000Y-69730000D03*
X181610000Y-72270000D03*
D23*
X185020000Y-72200000D03*
X185020000Y-71000000D03*
%TD*%
D14*
%TO.C,C417*%
X44120000Y-44800000D03*
X45080000Y-44800000D03*
%TD*%
D12*
%TO.C,C1611*%
X209980000Y-76400000D03*
X209020000Y-76400000D03*
%TD*%
D13*
%TO.C,CB1604*%
X248700000Y-223620000D03*
X248700000Y-224580000D03*
%TD*%
D12*
%TO.C,C1008*%
X207680000Y-76400000D03*
X206720000Y-76400000D03*
%TD*%
D67*
%TO.C,FB302*%
X138885000Y-155500000D03*
X137915000Y-155500000D03*
%TD*%
D17*
%TO.C,CB1608*%
X252600000Y-78380000D03*
X252600000Y-77420000D03*
%TD*%
D20*
%TO.C,U701*%
X52580000Y-125180000D03*
X52580000Y-126020000D03*
X53420000Y-125180000D03*
X53420000Y-126020000D03*
D21*
X51537500Y-124850000D03*
X51537500Y-125350000D03*
X51537500Y-125850000D03*
X51537500Y-126350000D03*
D22*
X52250000Y-127062500D03*
X52750000Y-127062500D03*
X53250000Y-127062500D03*
X53750000Y-127062500D03*
D21*
X54462500Y-126350000D03*
X54462500Y-125850000D03*
X54462500Y-125350000D03*
X54462500Y-124850000D03*
D22*
X53750000Y-124137500D03*
X53250000Y-124137500D03*
X52750000Y-124137500D03*
X52250000Y-124137500D03*
%TD*%
D15*
%TO.C,R1606*%
X256000000Y-161410000D03*
X256000000Y-160390000D03*
%TD*%
D14*
%TO.C,C711*%
X58040000Y-48000000D03*
X59000000Y-48000000D03*
%TD*%
D12*
%TO.C,C205*%
X71280000Y-235200000D03*
X70320000Y-235200000D03*
%TD*%
D11*
%TO.C,R709*%
X57000000Y-50090000D03*
X57000000Y-51110000D03*
%TD*%
D26*
%TO.C,J301*%
X83750000Y-173975000D03*
X83800000Y-160125000D03*
D27*
X80800000Y-162675000D03*
X80800000Y-163925000D03*
X80800000Y-165175000D03*
D28*
X80800000Y-166425000D03*
X80800000Y-167675000D03*
X80800000Y-168925000D03*
D27*
X80800000Y-170175000D03*
D28*
X80800000Y-171425000D03*
%TD*%
D86*
%TO.C,J204*%
X41775000Y-161840000D03*
X41775000Y-160740000D03*
X41775000Y-159640000D03*
X41775000Y-158540000D03*
X41775000Y-157440000D03*
X41775000Y-156340000D03*
X41775000Y-155240000D03*
X41775000Y-154140000D03*
D87*
X53400000Y-152200000D03*
X44400000Y-152200000D03*
D88*
X42400000Y-166185000D03*
D89*
X53730000Y-166085000D03*
D90*
X54525000Y-161780000D03*
X54525000Y-154000000D03*
D89*
X42250000Y-151795000D03*
%TD*%
D47*
%TO.C,FB903*%
X88215000Y-69000000D03*
X89185000Y-69000000D03*
%TD*%
D14*
%TO.C,CB1403*%
X229270000Y-232950000D03*
X230230000Y-232950000D03*
%TD*%
D12*
%TO.C,C401*%
X65480000Y-121000000D03*
X64520000Y-121000000D03*
%TD*%
%TO.C,CB1602*%
X250480000Y-242220000D03*
X249520000Y-242220000D03*
%TD*%
D16*
%TO.C,R411*%
X76510000Y-123050000D03*
X75490000Y-123050000D03*
%TD*%
%TO.C,R705*%
X48910000Y-52400000D03*
X47890000Y-52400000D03*
%TD*%
D47*
%TO.C,FB501*%
X44500000Y-125100000D03*
X45470000Y-125100000D03*
%TD*%
D12*
%TO.C,CB1502*%
X253680000Y-66600000D03*
X252720000Y-66600000D03*
%TD*%
D16*
%TO.C,R805*%
X48910000Y-216200000D03*
X47890000Y-216200000D03*
%TD*%
D14*
%TO.C,CB1403*%
X229270000Y-156950000D03*
X230230000Y-156950000D03*
%TD*%
D47*
%TO.C,FB601*%
X44515000Y-212900000D03*
X45485000Y-212900000D03*
%TD*%
D16*
%TO.C,R413*%
X67910000Y-206200000D03*
X66890000Y-206200000D03*
%TD*%
%TO.C,R806*%
X48910000Y-58600000D03*
X47890000Y-58600000D03*
%TD*%
D66*
%TO.C,U1002*%
X182850000Y-170262500D03*
X181900000Y-170262500D03*
X180950000Y-170262500D03*
X180950000Y-172537500D03*
X182850000Y-172537500D03*
%TD*%
D15*
%TO.C,R922*%
X87300000Y-207710000D03*
X87300000Y-206690000D03*
%TD*%
D16*
%TO.C,R1401*%
X59810000Y-229100000D03*
X58790000Y-229100000D03*
%TD*%
D91*
%TO.C,U402*%
X65650000Y-50500000D03*
X65000000Y-50500000D03*
X64350000Y-50500000D03*
X64350000Y-52700000D03*
X65650000Y-52700000D03*
%TD*%
D12*
%TO.C,C1008*%
X253680000Y-228400000D03*
X252720000Y-228400000D03*
%TD*%
D40*
%TO.C,C1614*%
X203000000Y-142587500D03*
X203000000Y-144012500D03*
%TD*%
D13*
%TO.C,CB1603*%
X211700000Y-223640000D03*
X211700000Y-224600000D03*
%TD*%
D15*
%TO.C,R1619*%
X251500000Y-64610000D03*
X251500000Y-63590000D03*
%TD*%
D11*
%TO.C,R1628*%
X256600000Y-147610000D03*
X256600000Y-148630000D03*
%TD*%
D17*
%TO.C,C906*%
X85000000Y-155480000D03*
X85000000Y-154520000D03*
%TD*%
D12*
%TO.C,C1604*%
X208680000Y-86500000D03*
X207720000Y-86500000D03*
%TD*%
D17*
%TO.C,CB1408*%
X186600000Y-148080000D03*
X186600000Y-147120000D03*
%TD*%
D18*
%TO.C,R210*%
X90175000Y-127300000D03*
X91825000Y-127300000D03*
%TD*%
D19*
%TO.C,R1607*%
X205690000Y-92300000D03*
X206710000Y-92300000D03*
%TD*%
D17*
%TO.C,C602*%
X44600000Y-216080000D03*
X44600000Y-215120000D03*
%TD*%
D19*
%TO.C,R1629*%
X208990000Y-75400000D03*
X210010000Y-75400000D03*
%TD*%
D13*
%TO.C,C306*%
X79400000Y-162940000D03*
X79400000Y-163900000D03*
%TD*%
D19*
%TO.C,R911*%
X89290000Y-167200000D03*
X90310000Y-167200000D03*
%TD*%
D14*
%TO.C,CB907*%
X82920000Y-227700000D03*
X83880000Y-227700000D03*
%TD*%
D47*
%TO.C,FB901*%
X72015000Y-229600000D03*
X72985000Y-229600000D03*
%TD*%
D16*
%TO.C,R904*%
X89210000Y-71041800D03*
X88190000Y-71041800D03*
%TD*%
D15*
%TO.C,R1617*%
X208900000Y-216610000D03*
X208900000Y-215590000D03*
%TD*%
D13*
%TO.C,C804*%
X49000000Y-60920000D03*
X49000000Y-61880000D03*
%TD*%
D12*
%TO.C,C1003*%
X233280000Y-96600000D03*
X232320000Y-96600000D03*
%TD*%
D13*
%TO.C,CB1603*%
X257700000Y-223640000D03*
X257700000Y-224600000D03*
%TD*%
D12*
%TO.C,C1507*%
X194730000Y-137050000D03*
X193770000Y-137050000D03*
%TD*%
D13*
%TO.C,C1508*%
X190300000Y-145920000D03*
X190300000Y-146880000D03*
%TD*%
D46*
%TO.C,D1001*%
X228120000Y-100795000D03*
X228120000Y-102370000D03*
%TD*%
D12*
%TO.C,CB1406*%
X240730000Y-214050000D03*
X239770000Y-214050000D03*
%TD*%
D11*
%TO.C,R907*%
X95300000Y-74490000D03*
X95300000Y-75510000D03*
%TD*%
D13*
%TO.C,CB1407*%
X237300000Y-145920000D03*
X237300000Y-146880000D03*
%TD*%
D15*
%TO.C,R1611*%
X187800000Y-136110000D03*
X187800000Y-135090000D03*
%TD*%
D66*
%TO.C,U1002*%
X228850000Y-246262500D03*
X227900000Y-246262500D03*
X226950000Y-246262500D03*
X226950000Y-248537500D03*
X228850000Y-248537500D03*
%TD*%
D11*
%TO.C,R808*%
X55800000Y-211890000D03*
X55800000Y-212910000D03*
%TD*%
D15*
%TO.C,R1606*%
X210000000Y-161410000D03*
X210000000Y-160390000D03*
%TD*%
D25*
%TO.C,D903*%
X61212500Y-44200000D03*
X62787500Y-44200000D03*
%TD*%
D14*
%TO.C,C102*%
X67532400Y-80400000D03*
X68492400Y-80400000D03*
%TD*%
D13*
%TO.C,C703*%
X47800000Y-125120000D03*
X47800000Y-126080000D03*
%TD*%
D12*
%TO.C,CB1002*%
X182880000Y-244600000D03*
X181920000Y-244600000D03*
%TD*%
D16*
%TO.C,R803*%
X48910000Y-215000000D03*
X47890000Y-215000000D03*
%TD*%
D17*
%TO.C,C1202*%
X85300000Y-197030000D03*
X85300000Y-196070000D03*
%TD*%
D14*
%TO.C,CB1405*%
X233920000Y-157900000D03*
X234880000Y-157900000D03*
%TD*%
D47*
%TO.C,FB1101*%
X238215000Y-94800000D03*
X239185000Y-94800000D03*
%TD*%
D13*
%TO.C,C1606*%
X250400000Y-158320000D03*
X250400000Y-159280000D03*
%TD*%
D46*
%TO.C,D305*%
X160000000Y-80612500D03*
X160000000Y-82187500D03*
%TD*%
D13*
%TO.C,C413*%
X70350000Y-206370000D03*
X70350000Y-207330000D03*
%TD*%
D14*
%TO.C,C1006*%
X180920000Y-239700000D03*
X181880000Y-239700000D03*
%TD*%
D64*
%TO.C,FB201*%
X39600000Y-149315000D03*
X39600000Y-150285000D03*
%TD*%
D12*
%TO.C,C1611*%
X255980000Y-76400000D03*
X255020000Y-76400000D03*
%TD*%
D20*
%TO.C,U801*%
X52580000Y-136980000D03*
X52580000Y-137820000D03*
X53420000Y-136980000D03*
X53420000Y-137820000D03*
D21*
X51537500Y-136650000D03*
X51537500Y-137150000D03*
X51537500Y-137650000D03*
X51537500Y-138150000D03*
D22*
X52250000Y-138862500D03*
X52750000Y-138862500D03*
X53250000Y-138862500D03*
X53750000Y-138862500D03*
D21*
X54462500Y-138150000D03*
X54462500Y-137650000D03*
X54462500Y-137150000D03*
X54462500Y-136650000D03*
D22*
X53750000Y-135937500D03*
X53250000Y-135937500D03*
X52750000Y-135937500D03*
X52250000Y-135937500D03*
%TD*%
D17*
%TO.C,C1401*%
X233600000Y-148080000D03*
X233600000Y-147120000D03*
%TD*%
D15*
%TO.C,R1611*%
X187800000Y-60110000D03*
X187800000Y-59090000D03*
%TD*%
D17*
%TO.C,CB401*%
X72900000Y-55330000D03*
X72900000Y-54370000D03*
%TD*%
D15*
%TO.C,R1605*%
X250400000Y-237410000D03*
X250400000Y-236390000D03*
%TD*%
D57*
%TO.C,U1401*%
X58825000Y-231575000D03*
X59475000Y-231575000D03*
X60125000Y-231575000D03*
X60775000Y-231575000D03*
X60775000Y-233625000D03*
X60125000Y-233625000D03*
X59475000Y-233625000D03*
X58825000Y-233625000D03*
%TD*%
D13*
%TO.C,C707*%
X50200000Y-200120000D03*
X50200000Y-201080000D03*
%TD*%
D23*
%TO.C,MK1408*%
X192450000Y-139730000D03*
D24*
X192380000Y-143140000D03*
X194920000Y-143140000D03*
D23*
X194850000Y-139730000D03*
X193650000Y-139730000D03*
%TD*%
D62*
%TO.C,U903*%
X85737500Y-51750000D03*
X85737500Y-50800000D03*
X85737500Y-49850000D03*
X83462500Y-49850000D03*
X83462500Y-51750000D03*
%TD*%
D15*
%TO.C,R902*%
X90300000Y-145055200D03*
X90300000Y-144035200D03*
%TD*%
D13*
%TO.C,CB107*%
X53300000Y-149420000D03*
X53300000Y-150380000D03*
%TD*%
D16*
%TO.C,R411*%
X76510000Y-47050000D03*
X75490000Y-47050000D03*
%TD*%
D12*
%TO.C,C801*%
X46680000Y-64200000D03*
X45720000Y-64200000D03*
%TD*%
D13*
%TO.C,C805*%
X53800000Y-140120000D03*
X53800000Y-141080000D03*
%TD*%
%TO.C,C807*%
X50200000Y-59920000D03*
X50200000Y-60880000D03*
%TD*%
D41*
%TO.C,U301*%
X140225000Y-63665000D03*
X139375000Y-63665000D03*
X138325000Y-63665000D03*
X137475000Y-63665000D03*
X136425000Y-63665000D03*
X135575000Y-63665000D03*
X134525000Y-63665000D03*
X133675000Y-63665000D03*
X132625000Y-63665000D03*
X131775000Y-63665000D03*
X140225000Y-64665000D03*
X139375000Y-64665000D03*
X138325000Y-64665000D03*
X137475000Y-64665000D03*
X136425000Y-64665000D03*
X135575000Y-64665000D03*
X134525000Y-64665000D03*
X133675000Y-64665000D03*
X132625000Y-64665000D03*
X131775000Y-64665000D03*
D42*
X143100000Y-66540000D03*
X142100000Y-66540000D03*
X129900000Y-66540000D03*
X128900000Y-66540000D03*
X143100000Y-67390000D03*
X142100000Y-67390000D03*
X129900000Y-67390000D03*
X128900000Y-67390000D03*
X143100000Y-68440000D03*
X142100000Y-68440000D03*
X129900000Y-68440000D03*
X128900000Y-68440000D03*
X143100000Y-69290000D03*
X142100000Y-69290000D03*
X129900000Y-69290000D03*
X128900000Y-69290000D03*
X143100000Y-70340000D03*
X142100000Y-70340000D03*
X129900000Y-70340000D03*
X128900000Y-70340000D03*
X143100000Y-71190000D03*
X142100000Y-71190000D03*
X129900000Y-71190000D03*
X128900000Y-71190000D03*
X143100000Y-72240000D03*
X142100000Y-72240000D03*
X129900000Y-72240000D03*
X128900000Y-72240000D03*
X143100000Y-73090000D03*
X142100000Y-73090000D03*
X129900000Y-73090000D03*
X128900000Y-73090000D03*
X143100000Y-74140000D03*
X142100000Y-74140000D03*
X129900000Y-74140000D03*
X128900000Y-74140000D03*
X143100000Y-74990000D03*
X142100000Y-74990000D03*
X129900000Y-74990000D03*
X128900000Y-74990000D03*
D41*
X140225000Y-76865000D03*
X139375000Y-76865000D03*
X138325000Y-76865000D03*
X137475000Y-76865000D03*
X136425000Y-76865000D03*
X135575000Y-76865000D03*
X134525000Y-76865000D03*
X133675000Y-76865000D03*
X132625000Y-76865000D03*
X131775000Y-76865000D03*
X140225000Y-77865000D03*
X139375000Y-77865000D03*
X138325000Y-77865000D03*
X137475000Y-77865000D03*
X136425000Y-77865000D03*
X135575000Y-77865000D03*
X134525000Y-77865000D03*
X133675000Y-77865000D03*
X132625000Y-77865000D03*
X131775000Y-77865000D03*
%TD*%
D13*
%TO.C,CB107*%
X53300000Y-225420000D03*
X53300000Y-226380000D03*
%TD*%
D40*
%TO.C,C1614*%
X249000000Y-142587500D03*
X249000000Y-144012500D03*
%TD*%
D36*
%TO.C,C1609*%
X249000000Y-75412500D03*
X249000000Y-73987500D03*
%TD*%
D11*
%TO.C,R1627*%
X256000000Y-153390000D03*
X256000000Y-154410000D03*
%TD*%
D14*
%TO.C,C1001*%
X180920000Y-232900000D03*
X181880000Y-232900000D03*
%TD*%
D12*
%TO.C,CB1404*%
X190080000Y-136100000D03*
X189120000Y-136100000D03*
%TD*%
D16*
%TO.C,R302*%
X162710000Y-83800000D03*
X161690000Y-83800000D03*
%TD*%
D15*
%TO.C,R1619*%
X251500000Y-216610000D03*
X251500000Y-215590000D03*
%TD*%
%TO.C,R1603*%
X251500000Y-237410000D03*
X251500000Y-236390000D03*
%TD*%
D80*
%TO.C,J206*%
X90650000Y-214050000D03*
X90650000Y-213300000D03*
D81*
X90650000Y-212700000D03*
X90650000Y-211200000D03*
X90650000Y-210200000D03*
X90650000Y-209200000D03*
D80*
X90650000Y-208600000D03*
D82*
X90650000Y-207850000D03*
D80*
X90650000Y-207850000D03*
X90650000Y-208600000D03*
D81*
X90650000Y-209700000D03*
X90650000Y-210700000D03*
X90650000Y-211700000D03*
X90650000Y-212200000D03*
D80*
X90650000Y-213300000D03*
X90650000Y-214050000D03*
%TD*%
D14*
%TO.C,C1610*%
X204420000Y-141600000D03*
X205380000Y-141600000D03*
%TD*%
D17*
%TO.C,CB103*%
X62212400Y-71130000D03*
X62212400Y-70170000D03*
%TD*%
D65*
%TO.C,D102*%
X52200000Y-168525000D03*
X52200000Y-170275000D03*
%TD*%
D12*
%TO.C,CB903*%
X87880000Y-92400000D03*
X86920000Y-92400000D03*
%TD*%
D15*
%TO.C,R1635*%
X203300000Y-229810000D03*
X203300000Y-228790000D03*
%TD*%
%TO.C,R1618*%
X256000000Y-64610000D03*
X256000000Y-63590000D03*
%TD*%
D13*
%TO.C,C907*%
X81800000Y-130520000D03*
X81800000Y-131480000D03*
%TD*%
D19*
%TO.C,R1607*%
X205690000Y-244300000D03*
X206710000Y-244300000D03*
%TD*%
D11*
%TO.C,R1615*%
X185550000Y-155940000D03*
X185550000Y-156960000D03*
%TD*%
D13*
%TO.C,C304*%
X144900000Y-225145000D03*
X144900000Y-226105000D03*
%TD*%
%TO.C,C412*%
X77000000Y-50010000D03*
X77000000Y-50970000D03*
%TD*%
D46*
%TO.C,D1001*%
X228120000Y-176795000D03*
X228120000Y-178370000D03*
%TD*%
D11*
%TO.C,R1615*%
X231550000Y-79940000D03*
X231550000Y-80960000D03*
%TD*%
D19*
%TO.C,R304*%
X161690000Y-234200000D03*
X162710000Y-234200000D03*
%TD*%
D17*
%TO.C,C105*%
X63012400Y-78930000D03*
X63012400Y-77970000D03*
%TD*%
D47*
%TO.C,FB1102*%
X192215000Y-96000000D03*
X193185000Y-96000000D03*
%TD*%
D19*
%TO.C,R107*%
X83690000Y-65400000D03*
X84710000Y-65400000D03*
%TD*%
D23*
%TO.C,MK1401*%
X190200000Y-232220000D03*
D24*
X190270000Y-228810000D03*
X187730000Y-228810000D03*
D23*
X187800000Y-232220000D03*
X189000000Y-232220000D03*
%TD*%
D15*
%TO.C,R1620*%
X204400000Y-140610000D03*
X204400000Y-139590000D03*
%TD*%
%TO.C,R1614*%
X183150000Y-138060000D03*
X183150000Y-137040000D03*
%TD*%
D19*
%TO.C,R107*%
X83690000Y-141400000D03*
X84710000Y-141400000D03*
%TD*%
D12*
%TO.C,CB1402*%
X231430000Y-138050000D03*
X230470000Y-138050000D03*
%TD*%
%TO.C,C1504*%
X253680000Y-141600000D03*
X252720000Y-141600000D03*
%TD*%
D11*
%TO.C,R1631*%
X205500000Y-153390000D03*
X205500000Y-154410000D03*
%TD*%
D17*
%TO.C,C806*%
X50200000Y-62880000D03*
X50200000Y-61920000D03*
%TD*%
D19*
%TO.C,R201*%
X56490000Y-84200000D03*
X57510000Y-84200000D03*
%TD*%
D17*
%TO.C,C502*%
X44600000Y-204280000D03*
X44600000Y-203320000D03*
%TD*%
D67*
%TO.C,FB302*%
X138885000Y-79500000D03*
X137915000Y-79500000D03*
%TD*%
D92*
%TO.C,J201*%
X88750000Y-233800000D03*
X88750000Y-231800000D03*
D93*
X94500000Y-236150000D03*
X94500000Y-229450000D03*
%TD*%
D32*
%TO.C,U1601*%
X209150000Y-220200000D03*
X208500000Y-220200000D03*
X207850000Y-220200000D03*
X207200000Y-220200000D03*
X206550000Y-220200000D03*
X205900000Y-220200000D03*
X205250000Y-220200000D03*
X205250000Y-225800000D03*
X205900000Y-225800000D03*
X206550000Y-225800000D03*
X207200000Y-225800000D03*
X207850000Y-225800000D03*
X208500000Y-225800000D03*
X209150000Y-225800000D03*
%TD*%
D67*
%TO.C,FB1001*%
X233285000Y-171400000D03*
X232315000Y-171400000D03*
%TD*%
D12*
%TO.C,C1002*%
X228880000Y-174200000D03*
X227920000Y-174200000D03*
%TD*%
D18*
%TO.C,R914*%
X88582800Y-241414000D03*
X90232800Y-241414000D03*
%TD*%
D14*
%TO.C,C1006*%
X226920000Y-87700000D03*
X227880000Y-87700000D03*
%TD*%
D13*
%TO.C,C106*%
X63012400Y-151570000D03*
X63012400Y-152530000D03*
%TD*%
%TO.C,CB104*%
X77800000Y-145570000D03*
X77800000Y-146530000D03*
%TD*%
D17*
%TO.C,C910*%
X81862500Y-127880000D03*
X81862500Y-126920000D03*
%TD*%
D11*
%TO.C,R501*%
X46600000Y-201090000D03*
X46600000Y-202110000D03*
%TD*%
D36*
%TO.C,C1609*%
X203000000Y-151412500D03*
X203000000Y-149987500D03*
%TD*%
D17*
%TO.C,CB1608*%
X252600000Y-230380000D03*
X252600000Y-229420000D03*
%TD*%
D16*
%TO.C,R702*%
X46710000Y-48000000D03*
X45690000Y-48000000D03*
%TD*%
D12*
%TO.C,CB201*%
X57480000Y-153200000D03*
X56520000Y-153200000D03*
%TD*%
D19*
%TO.C,R1303*%
X82890000Y-224900000D03*
X83910000Y-224900000D03*
%TD*%
D11*
%TO.C,R1626*%
X254900000Y-77390000D03*
X254900000Y-78410000D03*
%TD*%
D71*
%TO.C,U401*%
X68215000Y-49500000D03*
X68715000Y-49500000D03*
X69215000Y-49500000D03*
X69715000Y-49500000D03*
X70215000Y-49500000D03*
D72*
X70715000Y-49500000D03*
X71215000Y-49500000D03*
X71715000Y-49500000D03*
X72215000Y-49500000D03*
X72715000Y-49500000D03*
D73*
X73465000Y-48750000D03*
X73465000Y-48250000D03*
X73465000Y-47750000D03*
X73465000Y-47250000D03*
X73465000Y-46750000D03*
D74*
X73465000Y-46250000D03*
X73465000Y-45750000D03*
X73465000Y-45250000D03*
X73465000Y-44750000D03*
X73465000Y-44250000D03*
D72*
X72715000Y-43500000D03*
X72215000Y-43500000D03*
X71715000Y-43500000D03*
X71215000Y-43500000D03*
X70715000Y-43500000D03*
D71*
X70215000Y-43500000D03*
X69715000Y-43500000D03*
X69215000Y-43500000D03*
X68715000Y-43500000D03*
X68215000Y-43500000D03*
D74*
X67465000Y-44250000D03*
X67465000Y-44750000D03*
X67465000Y-45250000D03*
X67465000Y-45750000D03*
X67465000Y-46250000D03*
D73*
X67465000Y-46750000D03*
X67465000Y-47250000D03*
X67465000Y-47750000D03*
X67465000Y-48250000D03*
X67465000Y-48750000D03*
D75*
X69465000Y-47500000D03*
D76*
X71465000Y-47500000D03*
D77*
X69465000Y-45500000D03*
D78*
X71465000Y-45500000D03*
%TD*%
D12*
%TO.C,C901*%
X72980000Y-230600000D03*
X72020000Y-230600000D03*
%TD*%
D14*
%TO.C,C1501*%
X187920000Y-82900000D03*
X188880000Y-82900000D03*
%TD*%
D12*
%TO.C,C1003*%
X233280000Y-172600000D03*
X232320000Y-172600000D03*
%TD*%
D13*
%TO.C,CB1407*%
X237300000Y-221920000D03*
X237300000Y-222880000D03*
%TD*%
D12*
%TO.C,C1007*%
X228880000Y-243400000D03*
X227920000Y-243400000D03*
%TD*%
D15*
%TO.C,R1621*%
X210600000Y-222430000D03*
X210600000Y-221410000D03*
%TD*%
D23*
%TO.C,MK1408*%
X238450000Y-139730000D03*
D24*
X238380000Y-143140000D03*
X240920000Y-143140000D03*
D23*
X240850000Y-139730000D03*
X239650000Y-139730000D03*
%TD*%
D14*
%TO.C,C416*%
X43920000Y-132700000D03*
X44880000Y-132700000D03*
%TD*%
D13*
%TO.C,CB1610*%
X207800000Y-139640000D03*
X207800000Y-140600000D03*
%TD*%
D12*
%TO.C,C1507*%
X194730000Y-61050000D03*
X193770000Y-61050000D03*
%TD*%
D44*
%TO.C,C1601*%
X206425000Y-234900000D03*
X207975000Y-234900000D03*
%TD*%
D13*
%TO.C,C704*%
X49000000Y-125120000D03*
X49000000Y-126080000D03*
%TD*%
D56*
%TO.C,R916*%
X82525000Y-226300000D03*
X80875000Y-226300000D03*
%TD*%
D13*
%TO.C,C304*%
X144900000Y-149145000D03*
X144900000Y-150105000D03*
%TD*%
D14*
%TO.C,C1001*%
X180920000Y-80900000D03*
X181880000Y-80900000D03*
%TD*%
D15*
%TO.C,R710*%
X57000000Y-49110000D03*
X57000000Y-48090000D03*
%TD*%
D19*
%TO.C,R1609*%
X186590000Y-221800000D03*
X187610000Y-221800000D03*
%TD*%
D49*
%TO.C,U201*%
X86325000Y-210162500D03*
D50*
X86250000Y-210700000D03*
D49*
X86325000Y-211237500D03*
X88025000Y-211237500D03*
D50*
X88100000Y-210700000D03*
D49*
X88025000Y-210162500D03*
%TD*%
D13*
%TO.C,CB101*%
X78300000Y-215020000D03*
X78300000Y-215980000D03*
%TD*%
D16*
%TO.C,R409*%
X76510000Y-122050000D03*
X75490000Y-122050000D03*
%TD*%
D15*
%TO.C,R1614*%
X229150000Y-138060000D03*
X229150000Y-137040000D03*
%TD*%
D47*
%TO.C,FB1102*%
X238215000Y-248000000D03*
X239185000Y-248000000D03*
%TD*%
D71*
%TO.C,U401*%
X68215000Y-201500000D03*
X68715000Y-201500000D03*
X69215000Y-201500000D03*
X69715000Y-201500000D03*
X70215000Y-201500000D03*
D72*
X70715000Y-201500000D03*
X71215000Y-201500000D03*
X71715000Y-201500000D03*
X72215000Y-201500000D03*
X72715000Y-201500000D03*
D73*
X73465000Y-200750000D03*
X73465000Y-200250000D03*
X73465000Y-199750000D03*
X73465000Y-199250000D03*
X73465000Y-198750000D03*
D74*
X73465000Y-198250000D03*
X73465000Y-197750000D03*
X73465000Y-197250000D03*
X73465000Y-196750000D03*
X73465000Y-196250000D03*
D72*
X72715000Y-195500000D03*
X72215000Y-195500000D03*
X71715000Y-195500000D03*
X71215000Y-195500000D03*
X70715000Y-195500000D03*
D71*
X70215000Y-195500000D03*
X69715000Y-195500000D03*
X69215000Y-195500000D03*
X68715000Y-195500000D03*
X68215000Y-195500000D03*
D74*
X67465000Y-196250000D03*
X67465000Y-196750000D03*
X67465000Y-197250000D03*
X67465000Y-197750000D03*
X67465000Y-198250000D03*
D73*
X67465000Y-198750000D03*
X67465000Y-199250000D03*
X67465000Y-199750000D03*
X67465000Y-200250000D03*
X67465000Y-200750000D03*
D75*
X69465000Y-199500000D03*
D76*
X71465000Y-199500000D03*
D77*
X69465000Y-197500000D03*
D78*
X71465000Y-197500000D03*
%TD*%
D45*
%TO.C,D902*%
X90195300Y-249400000D03*
X88620300Y-249400000D03*
%TD*%
%TO.C,D901*%
X90195300Y-95600000D03*
X88620300Y-95600000D03*
%TD*%
D20*
%TO.C,U801*%
X52580000Y-212980000D03*
X52580000Y-213820000D03*
X53420000Y-212980000D03*
X53420000Y-213820000D03*
D21*
X51537500Y-212650000D03*
X51537500Y-213150000D03*
X51537500Y-213650000D03*
X51537500Y-214150000D03*
D22*
X52250000Y-214862500D03*
X52750000Y-214862500D03*
X53250000Y-214862500D03*
X53750000Y-214862500D03*
D21*
X54462500Y-214150000D03*
X54462500Y-213650000D03*
X54462500Y-213150000D03*
X54462500Y-212650000D03*
D22*
X53750000Y-211937500D03*
X53250000Y-211937500D03*
X52750000Y-211937500D03*
X52250000Y-211937500D03*
%TD*%
D19*
%TO.C,R205*%
X56490000Y-231400000D03*
X57510000Y-231400000D03*
%TD*%
D16*
%TO.C,R704*%
X48910000Y-124000000D03*
X47890000Y-124000000D03*
%TD*%
D36*
%TO.C,C1613*%
X211400000Y-75412500D03*
X211400000Y-73987500D03*
%TD*%
D18*
%TO.C,R211*%
X93975000Y-52900000D03*
X95625000Y-52900000D03*
%TD*%
D13*
%TO.C,C1607*%
X210000000Y-234320000D03*
X210000000Y-235280000D03*
%TD*%
D58*
%TO.C,U904*%
X83462500Y-130650000D03*
X83462500Y-131600000D03*
X83462500Y-132550000D03*
X85737500Y-132550000D03*
X85737500Y-131600000D03*
X85737500Y-130650000D03*
%TD*%
D17*
%TO.C,CB906*%
X87200000Y-240980000D03*
X87200000Y-240020000D03*
%TD*%
D16*
%TO.C,R1401*%
X59810000Y-153100000D03*
X58790000Y-153100000D03*
%TD*%
D32*
%TO.C,U1601*%
X209150000Y-144200000D03*
X208500000Y-144200000D03*
X207850000Y-144200000D03*
X207200000Y-144200000D03*
X206550000Y-144200000D03*
X205900000Y-144200000D03*
X205250000Y-144200000D03*
X205250000Y-149800000D03*
X205900000Y-149800000D03*
X206550000Y-149800000D03*
X207200000Y-149800000D03*
X207850000Y-149800000D03*
X208500000Y-149800000D03*
X209150000Y-149800000D03*
%TD*%
D16*
%TO.C,R1201*%
X83310000Y-194800000D03*
X82290000Y-194800000D03*
%TD*%
D12*
%TO.C,CB1410*%
X59780000Y-230200000D03*
X58820000Y-230200000D03*
%TD*%
D36*
%TO.C,C1613*%
X211400000Y-151412500D03*
X211400000Y-149987500D03*
%TD*%
D18*
%TO.C,R211*%
X93975000Y-128900000D03*
X95625000Y-128900000D03*
%TD*%
D19*
%TO.C,R405*%
X72840000Y-51200000D03*
X73860000Y-51200000D03*
%TD*%
D69*
%TO.C,Y101*%
X67862400Y-154950000D03*
X70162400Y-154950000D03*
X70162400Y-153050000D03*
X67862400Y-153050000D03*
%TD*%
D17*
%TO.C,CB1605*%
X248700000Y-146380000D03*
X248700000Y-145420000D03*
%TD*%
D19*
%TO.C,R1301*%
X84890000Y-72900000D03*
X85910000Y-72900000D03*
%TD*%
D12*
%TO.C,C1505*%
X236080000Y-59100000D03*
X235120000Y-59100000D03*
%TD*%
D23*
%TO.C,MK1405*%
X194850000Y-154270000D03*
D24*
X194920000Y-150860000D03*
X192380000Y-150860000D03*
D23*
X192450000Y-154270000D03*
X193650000Y-154270000D03*
%TD*%
D11*
%TO.C,R919*%
X79600000Y-152490000D03*
X79600000Y-153510000D03*
%TD*%
D15*
%TO.C,R1630*%
X257100000Y-229810000D03*
X257100000Y-228790000D03*
%TD*%
D11*
%TO.C,R1002*%
X180700000Y-177090000D03*
X180700000Y-178110000D03*
%TD*%
D36*
%TO.C,C1613*%
X257400000Y-151412500D03*
X257400000Y-149987500D03*
%TD*%
D44*
%TO.C,C1601*%
X252425000Y-82900000D03*
X253975000Y-82900000D03*
%TD*%
D12*
%TO.C,C1008*%
X207680000Y-228400000D03*
X206720000Y-228400000D03*
%TD*%
D23*
%TO.C,MK1401*%
X236200000Y-80220000D03*
D24*
X236270000Y-76810000D03*
X233730000Y-76810000D03*
D23*
X233800000Y-80220000D03*
X235000000Y-80220000D03*
%TD*%
D14*
%TO.C,C407*%
X70320000Y-203200000D03*
X71280000Y-203200000D03*
%TD*%
D11*
%TO.C,R901*%
X88300000Y-73800000D03*
X88300000Y-74820000D03*
%TD*%
D14*
%TO.C,C1006*%
X226920000Y-163700000D03*
X227880000Y-163700000D03*
%TD*%
D15*
%TO.C,R102*%
X54600000Y-97225000D03*
X54600000Y-96205000D03*
%TD*%
D12*
%TO.C,C1004*%
X253680000Y-227400000D03*
X252720000Y-227400000D03*
%TD*%
D13*
%TO.C,C1606*%
X204400000Y-234320000D03*
X204400000Y-235280000D03*
%TD*%
D19*
%TO.C,C1602*%
X252690000Y-84900000D03*
X253710000Y-84900000D03*
%TD*%
D12*
%TO.C,C1004*%
X207680000Y-75400000D03*
X206720000Y-75400000D03*
%TD*%
%TO.C,C702*%
X46680000Y-122800000D03*
X45720000Y-122800000D03*
%TD*%
D13*
%TO.C,C911*%
X88500000Y-54720000D03*
X88500000Y-55680000D03*
%TD*%
D11*
%TO.C,R1628*%
X210600000Y-147610000D03*
X210600000Y-148630000D03*
%TD*%
D47*
%TO.C,FB305*%
X155415000Y-223650000D03*
X156385000Y-223650000D03*
%TD*%
D11*
%TO.C,R1612*%
X236200000Y-233890000D03*
X236200000Y-234910000D03*
%TD*%
D14*
%TO.C,CB1001*%
X226920000Y-238500000D03*
X227880000Y-238500000D03*
%TD*%
D40*
%TO.C,C1614*%
X249000000Y-66587500D03*
X249000000Y-68012500D03*
%TD*%
D12*
%TO.C,C1503*%
X231430000Y-61050000D03*
X230470000Y-61050000D03*
%TD*%
D47*
%TO.C,FB601*%
X44515000Y-136900000D03*
X45485000Y-136900000D03*
%TD*%
D14*
%TO.C,C303*%
X138370000Y-137950000D03*
X139330000Y-137950000D03*
%TD*%
D12*
%TO.C,C1007*%
X228880000Y-91400000D03*
X227920000Y-91400000D03*
%TD*%
D11*
%TO.C,R920*%
X81800000Y-208490000D03*
X81800000Y-209510000D03*
%TD*%
D15*
%TO.C,R1602*%
X207900000Y-233310000D03*
X207900000Y-232290000D03*
%TD*%
D12*
%TO.C,CB1502*%
X207680000Y-218600000D03*
X206720000Y-218600000D03*
%TD*%
D19*
%TO.C,R1609*%
X186590000Y-145800000D03*
X187610000Y-145800000D03*
%TD*%
D14*
%TO.C,CB1405*%
X233920000Y-233900000D03*
X234880000Y-233900000D03*
%TD*%
D13*
%TO.C,C412*%
X77000000Y-126010000D03*
X77000000Y-126970000D03*
%TD*%
%TO.C,C707*%
X50200000Y-48120000D03*
X50200000Y-49080000D03*
%TD*%
%TO.C,CB1610*%
X253800000Y-139640000D03*
X253800000Y-140600000D03*
%TD*%
D15*
%TO.C,R912*%
X95300000Y-223510000D03*
X95300000Y-222490000D03*
%TD*%
D11*
%TO.C,R1627*%
X210000000Y-229390000D03*
X210000000Y-230410000D03*
%TD*%
D13*
%TO.C,C1606*%
X204400000Y-82320000D03*
X204400000Y-83280000D03*
%TD*%
D14*
%TO.C,C1610*%
X204420000Y-65600000D03*
X205380000Y-65600000D03*
%TD*%
D15*
%TO.C,R1603*%
X205500000Y-237410000D03*
X205500000Y-236390000D03*
%TD*%
D12*
%TO.C,C1503*%
X231430000Y-213050000D03*
X230470000Y-213050000D03*
%TD*%
D15*
%TO.C,R1602*%
X207900000Y-157310000D03*
X207900000Y-156290000D03*
%TD*%
D14*
%TO.C,C1006*%
X180920000Y-163700000D03*
X181880000Y-163700000D03*
%TD*%
D15*
%TO.C,R1621*%
X256600000Y-70430000D03*
X256600000Y-69410000D03*
%TD*%
D17*
%TO.C,C909*%
X79600000Y-231480000D03*
X79600000Y-230520000D03*
%TD*%
D20*
%TO.C,U701*%
X52580000Y-49180000D03*
X52580000Y-50020000D03*
X53420000Y-49180000D03*
X53420000Y-50020000D03*
D21*
X51537500Y-48850000D03*
X51537500Y-49350000D03*
X51537500Y-49850000D03*
X51537500Y-50350000D03*
D22*
X52250000Y-51062500D03*
X52750000Y-51062500D03*
X53250000Y-51062500D03*
X53750000Y-51062500D03*
D21*
X54462500Y-50350000D03*
X54462500Y-49850000D03*
X54462500Y-49350000D03*
X54462500Y-48850000D03*
D22*
X53750000Y-48137500D03*
X53250000Y-48137500D03*
X52750000Y-48137500D03*
X52250000Y-48137500D03*
%TD*%
D14*
%TO.C,C1501*%
X187920000Y-158900000D03*
X188880000Y-158900000D03*
%TD*%
%TO.C,C404*%
X64970000Y-54200000D03*
X65930000Y-54200000D03*
%TD*%
D16*
%TO.C,R1624*%
X205410000Y-66600000D03*
X204390000Y-66600000D03*
%TD*%
D12*
%TO.C,C1503*%
X185430000Y-61050000D03*
X184470000Y-61050000D03*
%TD*%
D60*
%TO.C,U101*%
X66450000Y-72717200D03*
X66950000Y-72717200D03*
X67450000Y-72717200D03*
X67950000Y-72717200D03*
X68450000Y-72717200D03*
X68950000Y-72717200D03*
X69450000Y-72717200D03*
X69950000Y-72717200D03*
X70450000Y-72717200D03*
X70950000Y-72717200D03*
X71450000Y-72717200D03*
X71950000Y-72717200D03*
X72450000Y-72717200D03*
X72950000Y-72717200D03*
X73450000Y-72717200D03*
X73950000Y-72717200D03*
D61*
X75875000Y-70792200D03*
X75875000Y-70292200D03*
X75875000Y-69792200D03*
X75875000Y-69292200D03*
X75875000Y-68792200D03*
X75875000Y-68292200D03*
X75875000Y-67792200D03*
X75875000Y-67292200D03*
X75875000Y-66792200D03*
X75875000Y-66292200D03*
X75875000Y-65792200D03*
X75875000Y-65292200D03*
X75875000Y-64792200D03*
X75875000Y-64292200D03*
X75875000Y-63792200D03*
X75875000Y-63292200D03*
D60*
X73950000Y-61367200D03*
X73450000Y-61367200D03*
X72950000Y-61367200D03*
X72450000Y-61367200D03*
X71950000Y-61367200D03*
X71450000Y-61367200D03*
X70950000Y-61367200D03*
X70450000Y-61367200D03*
X69950000Y-61367200D03*
X69450000Y-61367200D03*
X68950000Y-61367200D03*
X68450000Y-61367200D03*
X67950000Y-61367200D03*
X67450000Y-61367200D03*
X66950000Y-61367200D03*
X66450000Y-61367200D03*
D61*
X64525000Y-63292200D03*
X64525000Y-63792200D03*
X64525000Y-64292200D03*
X64525000Y-64792200D03*
X64525000Y-65292200D03*
X64525000Y-65792200D03*
X64525000Y-66292200D03*
X64525000Y-66792200D03*
X64525000Y-67292200D03*
X64525000Y-67792200D03*
X64525000Y-68292200D03*
X64525000Y-68792200D03*
X64525000Y-69292200D03*
X64525000Y-69792200D03*
X64525000Y-70292200D03*
X64525000Y-70792200D03*
%TD*%
D85*
%TO.C,D105*%
X80200000Y-212550000D03*
X80200000Y-213850000D03*
X82200000Y-213850000D03*
X82200000Y-212550000D03*
%TD*%
D92*
%TO.C,J201*%
X88750000Y-81800000D03*
X88750000Y-79800000D03*
D93*
X94500000Y-84150000D03*
X94500000Y-77450000D03*
%TD*%
D11*
%TO.C,R101*%
X62212400Y-143990000D03*
X62212400Y-145010000D03*
%TD*%
D13*
%TO.C,C412*%
X77000000Y-202010000D03*
X77000000Y-202970000D03*
%TD*%
D16*
%TO.C,R305*%
X162710000Y-80600000D03*
X161690000Y-80600000D03*
%TD*%
D11*
%TO.C,R1*%
X54500000Y-73390000D03*
X54500000Y-74410000D03*
%TD*%
D12*
%TO.C,C402*%
X65480000Y-124000000D03*
X64520000Y-124000000D03*
%TD*%
D68*
%TO.C,J601*%
X39450000Y-56975000D03*
X39400000Y-65825000D03*
D28*
X42400000Y-63275000D03*
D27*
X42400000Y-62025000D03*
X42400000Y-60775000D03*
X42400000Y-59525000D03*
%TD*%
D12*
%TO.C,C203*%
X95280000Y-203500000D03*
X94320000Y-203500000D03*
%TD*%
D15*
%TO.C,R1620*%
X204400000Y-64610000D03*
X204400000Y-63590000D03*
%TD*%
%TO.C,R1635*%
X249300000Y-77810000D03*
X249300000Y-76790000D03*
%TD*%
D14*
%TO.C,C1001*%
X226920000Y-80900000D03*
X227880000Y-80900000D03*
%TD*%
D33*
%TO.C,U901*%
X91774500Y-148411200D03*
X92614500Y-148411200D03*
X91774500Y-147571200D03*
X92614500Y-147571200D03*
D34*
X91444500Y-149453700D03*
X91944500Y-149453700D03*
X92444500Y-149453700D03*
X92944500Y-149453700D03*
D35*
X93657000Y-148741200D03*
X93657000Y-148241200D03*
X93657000Y-147741200D03*
X93657000Y-147241200D03*
D34*
X92944500Y-146528700D03*
X92444500Y-146528700D03*
X91944500Y-146528700D03*
X91444500Y-146528700D03*
D35*
X90732000Y-147241200D03*
X90732000Y-147741200D03*
X90732000Y-148241200D03*
X90732000Y-148741200D03*
%TD*%
D15*
%TO.C,R1604*%
X254900000Y-237410000D03*
X254900000Y-236390000D03*
%TD*%
%TO.C,R1621*%
X210600000Y-70430000D03*
X210600000Y-69410000D03*
%TD*%
D14*
%TO.C,C903*%
X92820000Y-226800000D03*
X93780000Y-226800000D03*
%TD*%
D19*
%TO.C,R1303*%
X82890000Y-148900000D03*
X83910000Y-148900000D03*
%TD*%
D13*
%TO.C,C1606*%
X204400000Y-158320000D03*
X204400000Y-159280000D03*
%TD*%
D11*
%TO.C,R1612*%
X236200000Y-157890000D03*
X236200000Y-158910000D03*
%TD*%
D15*
%TO.C,R1602*%
X253900000Y-157310000D03*
X253900000Y-156290000D03*
%TD*%
D17*
%TO.C,CB103*%
X62212400Y-223130000D03*
X62212400Y-222170000D03*
%TD*%
D11*
%TO.C,R1633*%
X249800000Y-223590000D03*
X249800000Y-224610000D03*
%TD*%
D17*
%TO.C,C806*%
X50200000Y-214880000D03*
X50200000Y-213920000D03*
%TD*%
D15*
%TO.C,R1605*%
X204400000Y-161410000D03*
X204400000Y-160390000D03*
%TD*%
D12*
%TO.C,C801*%
X46680000Y-140200000D03*
X45720000Y-140200000D03*
%TD*%
D11*
%TO.C,R1632*%
X250400000Y-153390000D03*
X250400000Y-154410000D03*
%TD*%
D23*
%TO.C,MK1408*%
X192450000Y-215730000D03*
D24*
X192380000Y-219140000D03*
X194920000Y-219140000D03*
D23*
X194850000Y-215730000D03*
X193650000Y-215730000D03*
%TD*%
D64*
%TO.C,FB201*%
X39600000Y-73315000D03*
X39600000Y-74285000D03*
%TD*%
D12*
%TO.C,CB1404*%
X236080000Y-60100000D03*
X235120000Y-60100000D03*
%TD*%
D14*
%TO.C,C903*%
X92820000Y-150800000D03*
X93780000Y-150800000D03*
%TD*%
%TO.C,C808*%
X51320000Y-216100000D03*
X52280000Y-216100000D03*
%TD*%
D11*
%TO.C,R601*%
X46600000Y-212890000D03*
X46600000Y-213910000D03*
%TD*%
D12*
%TO.C,C1003*%
X187280000Y-248600000D03*
X186320000Y-248600000D03*
%TD*%
D16*
%TO.C,R804*%
X48910000Y-211800000D03*
X47890000Y-211800000D03*
%TD*%
D13*
%TO.C,C803*%
X47800000Y-212920000D03*
X47800000Y-213880000D03*
%TD*%
D19*
%TO.C,R104*%
X83690000Y-138000000D03*
X84710000Y-138000000D03*
%TD*%
D53*
%TO.C,J1101*%
X184575000Y-101550000D03*
X193425000Y-101600000D03*
D54*
X190875000Y-98600000D03*
D55*
X189625000Y-98600000D03*
X188375000Y-98600000D03*
X187125000Y-98600000D03*
%TD*%
D15*
%TO.C,R1614*%
X229150000Y-62060000D03*
X229150000Y-61040000D03*
%TD*%
D12*
%TO.C,C409*%
X67880000Y-128200000D03*
X66920000Y-128200000D03*
%TD*%
%TO.C,C912*%
X83880000Y-129200000D03*
X82920000Y-129200000D03*
%TD*%
D64*
%TO.C,FB304*%
X78200000Y-238915000D03*
X78200000Y-239885000D03*
%TD*%
D13*
%TO.C,C201*%
X40800000Y-225320000D03*
X40800000Y-226280000D03*
%TD*%
D15*
%TO.C,R1617*%
X208900000Y-140610000D03*
X208900000Y-139590000D03*
%TD*%
D12*
%TO.C,CB1404*%
X236080000Y-212100000D03*
X235120000Y-212100000D03*
%TD*%
D14*
%TO.C,C1102*%
X238220000Y-173200000D03*
X239180000Y-173200000D03*
%TD*%
D17*
%TO.C,CB1607*%
X253800000Y-154380000D03*
X253800000Y-153420000D03*
%TD*%
D14*
%TO.C,C811*%
X58040000Y-59800000D03*
X59000000Y-59800000D03*
%TD*%
D12*
%TO.C,C1502*%
X255980000Y-141600000D03*
X255020000Y-141600000D03*
%TD*%
D19*
%TO.C,C1602*%
X252690000Y-160900000D03*
X253710000Y-160900000D03*
%TD*%
D17*
%TO.C,CB906*%
X87200000Y-88980000D03*
X87200000Y-88020000D03*
%TD*%
D14*
%TO.C,C107*%
X66240000Y-58600000D03*
X67200000Y-58600000D03*
%TD*%
D15*
%TO.C,R1618*%
X210000000Y-216610000D03*
X210000000Y-215590000D03*
%TD*%
D13*
%TO.C,CB1603*%
X257700000Y-71640000D03*
X257700000Y-72600000D03*
%TD*%
D11*
%TO.C,R1612*%
X190200000Y-81890000D03*
X190200000Y-82910000D03*
%TD*%
D23*
%TO.C,MK1407*%
X185550000Y-230270000D03*
D24*
X185620000Y-226860000D03*
X183080000Y-226860000D03*
D23*
X183150000Y-230270000D03*
X184350000Y-230270000D03*
%TD*%
D17*
%TO.C,C1202*%
X85300000Y-121030000D03*
X85300000Y-120070000D03*
%TD*%
D14*
%TO.C,C1603*%
X205720000Y-86500000D03*
X206680000Y-86500000D03*
%TD*%
D16*
%TO.C,R801*%
X46710000Y-139000000D03*
X45690000Y-139000000D03*
%TD*%
D11*
%TO.C,R1615*%
X185550000Y-231940000D03*
X185550000Y-232960000D03*
%TD*%
D23*
%TO.C,MK1403*%
X238980000Y-148200000D03*
D24*
X242390000Y-148270000D03*
X242390000Y-145730000D03*
D23*
X238980000Y-145800000D03*
X238980000Y-147000000D03*
%TD*%
D12*
%TO.C,C402*%
X65480000Y-200000000D03*
X64520000Y-200000000D03*
%TD*%
D13*
%TO.C,C1009*%
X250400000Y-232320000D03*
X250400000Y-233280000D03*
%TD*%
D12*
%TO.C,C401*%
X65480000Y-45000000D03*
X64520000Y-45000000D03*
%TD*%
D26*
%TO.C,J301*%
X83750000Y-97975000D03*
X83800000Y-84125000D03*
D27*
X80800000Y-86675000D03*
X80800000Y-87925000D03*
X80800000Y-89175000D03*
D28*
X80800000Y-90425000D03*
X80800000Y-91675000D03*
X80800000Y-92925000D03*
D27*
X80800000Y-94175000D03*
D28*
X80800000Y-95425000D03*
%TD*%
D16*
%TO.C,R1610*%
X237310000Y-224200000D03*
X236290000Y-224200000D03*
%TD*%
D11*
%TO.C,R1628*%
X256600000Y-71610000D03*
X256600000Y-72630000D03*
%TD*%
D23*
%TO.C,MK1405*%
X240850000Y-230270000D03*
D24*
X240920000Y-226860000D03*
X238380000Y-226860000D03*
D23*
X238450000Y-230270000D03*
X239650000Y-230270000D03*
%TD*%
D17*
%TO.C,C1401*%
X187600000Y-224080000D03*
X187600000Y-223120000D03*
%TD*%
D14*
%TO.C,C1603*%
X251720000Y-86500000D03*
X252680000Y-86500000D03*
%TD*%
D15*
%TO.C,R1606*%
X256000000Y-237410000D03*
X256000000Y-236390000D03*
%TD*%
D23*
%TO.C,MK1406*%
X229150000Y-63730000D03*
D24*
X229080000Y-67140000D03*
X231620000Y-67140000D03*
D23*
X231550000Y-63730000D03*
X230350000Y-63730000D03*
%TD*%
D65*
%TO.C,D101*%
X54600000Y-168525000D03*
X54600000Y-170275000D03*
%TD*%
D68*
%TO.C,J601*%
X39450000Y-132975000D03*
X39400000Y-141825000D03*
D28*
X42400000Y-139275000D03*
D27*
X42400000Y-138025000D03*
X42400000Y-136775000D03*
X42400000Y-135525000D03*
%TD*%
D47*
%TO.C,FB1102*%
X192215000Y-172000000D03*
X193185000Y-172000000D03*
%TD*%
D12*
%TO.C,C901*%
X72980000Y-154600000D03*
X72020000Y-154600000D03*
%TD*%
%TO.C,CB902*%
X72980000Y-226600000D03*
X72020000Y-226600000D03*
%TD*%
D53*
%TO.C,J1101*%
X230575000Y-177550000D03*
X239425000Y-177600000D03*
D54*
X236875000Y-174600000D03*
D55*
X235625000Y-174600000D03*
X234375000Y-174600000D03*
X233125000Y-174600000D03*
%TD*%
D14*
%TO.C,C1501*%
X233920000Y-158900000D03*
X234880000Y-158900000D03*
%TD*%
D46*
%TO.C,D904*%
X78200000Y-76812500D03*
X78200000Y-78387500D03*
%TD*%
D11*
%TO.C,R920*%
X81800000Y-56490000D03*
X81800000Y-57510000D03*
%TD*%
D13*
%TO.C,C1605*%
X249500000Y-163740000D03*
X249500000Y-164700000D03*
%TD*%
D66*
%TO.C,U1002*%
X182850000Y-94262500D03*
X181900000Y-94262500D03*
X180950000Y-94262500D03*
X180950000Y-96537500D03*
X182850000Y-96537500D03*
%TD*%
D12*
%TO.C,C1101*%
X239180000Y-245600000D03*
X238220000Y-245600000D03*
%TD*%
D46*
%TO.C,D904*%
X78200000Y-228812500D03*
X78200000Y-230387500D03*
%TD*%
D12*
%TO.C,CB1602*%
X204480000Y-242220000D03*
X203520000Y-242220000D03*
%TD*%
D17*
%TO.C,C906*%
X85000000Y-231480000D03*
X85000000Y-230520000D03*
%TD*%
D66*
%TO.C,U1002*%
X182850000Y-246262500D03*
X181900000Y-246262500D03*
X180950000Y-246262500D03*
X180950000Y-248537500D03*
X182850000Y-248537500D03*
%TD*%
D16*
%TO.C,R803*%
X48910000Y-63000000D03*
X47890000Y-63000000D03*
%TD*%
%TO.C,R705*%
X48910000Y-128400000D03*
X47890000Y-128400000D03*
%TD*%
D19*
%TO.C,R1629*%
X254990000Y-227400000D03*
X256010000Y-227400000D03*
%TD*%
D13*
%TO.C,CB107*%
X53300000Y-73420000D03*
X53300000Y-74380000D03*
%TD*%
D12*
%TO.C,C1504*%
X253680000Y-217600000D03*
X252720000Y-217600000D03*
%TD*%
D17*
%TO.C,C601*%
X44600000Y-135680000D03*
X44600000Y-134720000D03*
%TD*%
D12*
%TO.C,C801*%
X46680000Y-216200000D03*
X45720000Y-216200000D03*
%TD*%
D18*
%TO.C,R206*%
X50275000Y-149900000D03*
X51925000Y-149900000D03*
%TD*%
D12*
%TO.C,CB1602*%
X204480000Y-90220000D03*
X203520000Y-90220000D03*
%TD*%
D59*
%TO.C,D301*%
X136000000Y-136450000D03*
X134600000Y-136450000D03*
%TD*%
D23*
%TO.C,MK1402*%
X233800000Y-137780000D03*
D24*
X233730000Y-141190000D03*
X236270000Y-141190000D03*
D23*
X236200000Y-137780000D03*
X235000000Y-137780000D03*
%TD*%
D15*
%TO.C,R903*%
X90300000Y-143110000D03*
X90300000Y-142090000D03*
%TD*%
D16*
%TO.C,R106*%
X68510000Y-151600000D03*
X67490000Y-151600000D03*
%TD*%
D12*
%TO.C,C1008*%
X253680000Y-152400000D03*
X252720000Y-152400000D03*
%TD*%
D17*
%TO.C,CB1606*%
X211700000Y-222400000D03*
X211700000Y-221440000D03*
%TD*%
D19*
%TO.C,R204*%
X56490000Y-232600000D03*
X57510000Y-232600000D03*
%TD*%
D86*
%TO.C,J204*%
X41775000Y-237840000D03*
X41775000Y-236740000D03*
X41775000Y-235640000D03*
X41775000Y-234540000D03*
X41775000Y-233440000D03*
X41775000Y-232340000D03*
X41775000Y-231240000D03*
X41775000Y-230140000D03*
D87*
X53400000Y-228200000D03*
X44400000Y-228200000D03*
D88*
X42400000Y-242185000D03*
D89*
X53730000Y-242085000D03*
D90*
X54525000Y-237780000D03*
X54525000Y-230000000D03*
D89*
X42250000Y-227795000D03*
%TD*%
D17*
%TO.C,C906*%
X85000000Y-79480000D03*
X85000000Y-78520000D03*
%TD*%
D48*
%TO.C,F901*%
X93225000Y-66400000D03*
X94975000Y-66400000D03*
%TD*%
D11*
%TO.C,R1615*%
X185550000Y-79940000D03*
X185550000Y-80960000D03*
%TD*%
D16*
%TO.C,R805*%
X48910000Y-64200000D03*
X47890000Y-64200000D03*
%TD*%
D19*
%TO.C,R204*%
X56490000Y-156600000D03*
X57510000Y-156600000D03*
%TD*%
D70*
%TO.C,SW101*%
X45950000Y-222400000D03*
X38200000Y-222400000D03*
%TD*%
D16*
%TO.C,R305*%
X162710000Y-156600000D03*
X161690000Y-156600000D03*
%TD*%
D25*
%TO.C,D104*%
X80412500Y-141400000D03*
X81987500Y-141400000D03*
%TD*%
D13*
%TO.C,C1009*%
X250400000Y-156320000D03*
X250400000Y-157280000D03*
%TD*%
D84*
%TO.C,U1301*%
X84875000Y-147455000D03*
X84875000Y-146185000D03*
X84875000Y-144915000D03*
X84875000Y-143645000D03*
X79925000Y-143645000D03*
X79925000Y-144915000D03*
X79925000Y-146185000D03*
X79925000Y-147455000D03*
%TD*%
D11*
%TO.C,R1623*%
X257100000Y-64190000D03*
X257100000Y-65210000D03*
%TD*%
D16*
%TO.C,R701*%
X46710000Y-203200000D03*
X45690000Y-203200000D03*
%TD*%
D63*
%TO.C,U1001*%
X180950000Y-84837500D03*
X181900000Y-84837500D03*
X182850000Y-84837500D03*
X182850000Y-82562500D03*
X180950000Y-82562500D03*
%TD*%
D14*
%TO.C,C708*%
X51320000Y-128300000D03*
X52280000Y-128300000D03*
%TD*%
D12*
%TO.C,CB201*%
X57480000Y-229200000D03*
X56520000Y-229200000D03*
%TD*%
%TO.C,C1002*%
X182880000Y-174200000D03*
X181920000Y-174200000D03*
%TD*%
D23*
%TO.C,MK1405*%
X240850000Y-154270000D03*
D24*
X240920000Y-150860000D03*
X238380000Y-150860000D03*
D23*
X238450000Y-154270000D03*
X239650000Y-154270000D03*
%TD*%
D12*
%TO.C,C410*%
X67880000Y-51200000D03*
X66920000Y-51200000D03*
%TD*%
D18*
%TO.C,R913*%
X88582800Y-163600000D03*
X90232800Y-163600000D03*
%TD*%
D11*
%TO.C,R101*%
X62212400Y-219990000D03*
X62212400Y-221010000D03*
%TD*%
D23*
%TO.C,MK1403*%
X192980000Y-224200000D03*
D24*
X196390000Y-224270000D03*
X196390000Y-221730000D03*
D23*
X192980000Y-221800000D03*
X192980000Y-223000000D03*
%TD*%
D13*
%TO.C,C1508*%
X236300000Y-145920000D03*
X236300000Y-146880000D03*
%TD*%
D11*
%TO.C,R708*%
X55800000Y-48090000D03*
X55800000Y-49110000D03*
%TD*%
D13*
%TO.C,C201*%
X40800000Y-73320000D03*
X40800000Y-74280000D03*
%TD*%
D15*
%TO.C,R1630*%
X257100000Y-77810000D03*
X257100000Y-76790000D03*
%TD*%
D14*
%TO.C,CB1405*%
X187920000Y-81900000D03*
X188880000Y-81900000D03*
%TD*%
D12*
%TO.C,CB1402*%
X231430000Y-214050000D03*
X230470000Y-214050000D03*
%TD*%
D11*
%TO.C,R1613*%
X194850000Y-155990000D03*
X194850000Y-157010000D03*
%TD*%
%TO.C,R1*%
X54500000Y-149390000D03*
X54500000Y-150410000D03*
%TD*%
D14*
%TO.C,CB108*%
X83720000Y-136600000D03*
X84680000Y-136600000D03*
%TD*%
D11*
%TO.C,R909*%
X89300000Y-149800000D03*
X89300000Y-150820000D03*
%TD*%
D12*
%TO.C,CB1404*%
X190080000Y-212100000D03*
X189120000Y-212100000D03*
%TD*%
D16*
%TO.C,R1402*%
X59810000Y-228000000D03*
X58790000Y-228000000D03*
%TD*%
D17*
%TO.C,CB906*%
X87200000Y-164980000D03*
X87200000Y-164020000D03*
%TD*%
D29*
%TO.C,U1701*%
X207620000Y-88980000D03*
X206780000Y-88980000D03*
X207620000Y-89820000D03*
X206780000Y-89820000D03*
D30*
X207950000Y-87937500D03*
X207450000Y-87937500D03*
X206950000Y-87937500D03*
X206450000Y-87937500D03*
D31*
X205737500Y-88650000D03*
X205737500Y-89150000D03*
X205737500Y-89650000D03*
X205737500Y-90150000D03*
D30*
X206450000Y-90862500D03*
X206950000Y-90862500D03*
X207450000Y-90862500D03*
X207950000Y-90862500D03*
D31*
X208662500Y-90150000D03*
X208662500Y-89650000D03*
X208662500Y-89150000D03*
X208662500Y-88650000D03*
%TD*%
D14*
%TO.C,C1501*%
X233920000Y-234900000D03*
X234880000Y-234900000D03*
%TD*%
D15*
%TO.C,R1618*%
X210000000Y-140610000D03*
X210000000Y-139590000D03*
%TD*%
D11*
%TO.C,R901*%
X88300000Y-149800000D03*
X88300000Y-150820000D03*
%TD*%
D15*
%TO.C,R1622*%
X203800000Y-146410000D03*
X203800000Y-145390000D03*
%TD*%
D68*
%TO.C,J501*%
X39450000Y-45175000D03*
X39400000Y-54025000D03*
D28*
X42400000Y-51475000D03*
D27*
X42400000Y-50225000D03*
X42400000Y-48975000D03*
X42400000Y-47725000D03*
%TD*%
D11*
%TO.C,R1002*%
X226700000Y-253090000D03*
X226700000Y-254110000D03*
%TD*%
D14*
%TO.C,C1006*%
X180920000Y-87700000D03*
X181880000Y-87700000D03*
%TD*%
D17*
%TO.C,C1401*%
X233600000Y-224080000D03*
X233600000Y-223120000D03*
%TD*%
D11*
%TO.C,R1627*%
X210000000Y-77390000D03*
X210000000Y-78410000D03*
%TD*%
D40*
%TO.C,C1614*%
X203000000Y-218587500D03*
X203000000Y-220012500D03*
%TD*%
D36*
%TO.C,C1613*%
X211400000Y-227412500D03*
X211400000Y-225987500D03*
%TD*%
D14*
%TO.C,C417*%
X44120000Y-196800000D03*
X45080000Y-196800000D03*
%TD*%
D16*
%TO.C,R804*%
X48910000Y-59800000D03*
X47890000Y-59800000D03*
%TD*%
D13*
%TO.C,CB1407*%
X237300000Y-69920000D03*
X237300000Y-70880000D03*
%TD*%
D19*
%TO.C,R911*%
X89290000Y-243200000D03*
X90310000Y-243200000D03*
%TD*%
D63*
%TO.C,U1001*%
X180950000Y-160837500D03*
X181900000Y-160837500D03*
X182850000Y-160837500D03*
X182850000Y-158562500D03*
X180950000Y-158562500D03*
%TD*%
D12*
%TO.C,C1004*%
X253680000Y-151400000D03*
X252720000Y-151400000D03*
%TD*%
D13*
%TO.C,C1508*%
X190300000Y-69920000D03*
X190300000Y-70880000D03*
%TD*%
D12*
%TO.C,C406*%
X65480000Y-49000000D03*
X64520000Y-49000000D03*
%TD*%
D16*
%TO.C,R106*%
X68510000Y-227600000D03*
X67490000Y-227600000D03*
%TD*%
D66*
%TO.C,U1002*%
X228850000Y-94262500D03*
X227900000Y-94262500D03*
X226950000Y-94262500D03*
X226950000Y-96537500D03*
X228850000Y-96537500D03*
%TD*%
D91*
%TO.C,U402*%
X65650000Y-126500000D03*
X65000000Y-126500000D03*
X64350000Y-126500000D03*
X64350000Y-128700000D03*
X65650000Y-128700000D03*
%TD*%
D11*
%TO.C,R1623*%
X211100000Y-216190000D03*
X211100000Y-217210000D03*
%TD*%
D12*
%TO.C,C812*%
X52280000Y-65100000D03*
X51320000Y-65100000D03*
%TD*%
D11*
%TO.C,R1623*%
X257100000Y-216190000D03*
X257100000Y-217210000D03*
%TD*%
D14*
%TO.C,C1005*%
X186320000Y-246200000D03*
X187280000Y-246200000D03*
%TD*%
D12*
%TO.C,C701*%
X46680000Y-204400000D03*
X45720000Y-204400000D03*
%TD*%
D13*
%TO.C,CB1610*%
X207800000Y-63640000D03*
X207800000Y-64600000D03*
%TD*%
D16*
%TO.C,R905*%
X90317800Y-245600000D03*
X89297800Y-245600000D03*
%TD*%
D15*
%TO.C,R1622*%
X203800000Y-222410000D03*
X203800000Y-221390000D03*
%TD*%
D70*
%TO.C,SW101*%
X45950000Y-70400000D03*
X38200000Y-70400000D03*
%TD*%
D15*
%TO.C,R402*%
X63000000Y-53110000D03*
X63000000Y-52090000D03*
%TD*%
%TO.C,R707*%
X55800000Y-51110000D03*
X55800000Y-50090000D03*
%TD*%
D12*
%TO.C,CB1202*%
X83680000Y-122950000D03*
X82720000Y-122950000D03*
%TD*%
D17*
%TO.C,C105*%
X63012400Y-230930000D03*
X63012400Y-229970000D03*
%TD*%
D16*
%TO.C,R1608*%
X254710000Y-168300000D03*
X253690000Y-168300000D03*
%TD*%
D14*
%TO.C,C708*%
X51320000Y-204300000D03*
X52280000Y-204300000D03*
%TD*%
D16*
%TO.C,R704*%
X48910000Y-48000000D03*
X47890000Y-48000000D03*
%TD*%
D12*
%TO.C,C809*%
X59000000Y-63000000D03*
X58040000Y-63000000D03*
%TD*%
D32*
%TO.C,U1601*%
X209150000Y-68200000D03*
X208500000Y-68200000D03*
X207850000Y-68200000D03*
X207200000Y-68200000D03*
X206550000Y-68200000D03*
X205900000Y-68200000D03*
X205250000Y-68200000D03*
X205250000Y-73800000D03*
X205900000Y-73800000D03*
X206550000Y-73800000D03*
X207200000Y-73800000D03*
X207850000Y-73800000D03*
X208500000Y-73800000D03*
X209150000Y-73800000D03*
%TD*%
D13*
%TO.C,CB1610*%
X207800000Y-215640000D03*
X207800000Y-216600000D03*
%TD*%
D12*
%TO.C,C1505*%
X236080000Y-135100000D03*
X235120000Y-135100000D03*
%TD*%
D17*
%TO.C,CB102*%
X48900000Y-150380000D03*
X48900000Y-149420000D03*
%TD*%
D86*
%TO.C,J204*%
X41775000Y-85840000D03*
X41775000Y-84740000D03*
X41775000Y-83640000D03*
X41775000Y-82540000D03*
X41775000Y-81440000D03*
X41775000Y-80340000D03*
X41775000Y-79240000D03*
X41775000Y-78140000D03*
D87*
X53400000Y-76200000D03*
X44400000Y-76200000D03*
D88*
X42400000Y-90185000D03*
D89*
X53730000Y-90085000D03*
D90*
X54525000Y-85780000D03*
X54525000Y-78000000D03*
D89*
X42250000Y-75795000D03*
%TD*%
D14*
%TO.C,C1506*%
X229270000Y-79950000D03*
X230230000Y-79950000D03*
%TD*%
D12*
%TO.C,C203*%
X95280000Y-51500000D03*
X94320000Y-51500000D03*
%TD*%
%TO.C,C1008*%
X207680000Y-152400000D03*
X206720000Y-152400000D03*
%TD*%
%TO.C,C709*%
X59000000Y-203200000D03*
X58040000Y-203200000D03*
%TD*%
D13*
%TO.C,C201*%
X40800000Y-149320000D03*
X40800000Y-150280000D03*
%TD*%
D53*
%TO.C,J1101*%
X230575000Y-253550000D03*
X239425000Y-253600000D03*
D54*
X236875000Y-250600000D03*
D55*
X235625000Y-250600000D03*
X234375000Y-250600000D03*
X233125000Y-250600000D03*
%TD*%
D11*
%TO.C,R1002*%
X226700000Y-101090000D03*
X226700000Y-102110000D03*
%TD*%
D19*
%TO.C,R407*%
X78490000Y-121050000D03*
X79510000Y-121050000D03*
%TD*%
D16*
%TO.C,R906*%
X89210000Y-72100000D03*
X88190000Y-72100000D03*
%TD*%
D64*
%TO.C,FB304*%
X78200000Y-86915000D03*
X78200000Y-87885000D03*
%TD*%
D13*
%TO.C,C411*%
X75540000Y-202010000D03*
X75540000Y-202970000D03*
%TD*%
%TO.C,C705*%
X53800000Y-128320000D03*
X53800000Y-129280000D03*
%TD*%
D12*
%TO.C,C305*%
X136000000Y-61950000D03*
X135040000Y-61950000D03*
%TD*%
D68*
%TO.C,J501*%
X39450000Y-121175000D03*
X39400000Y-130025000D03*
D28*
X42400000Y-127475000D03*
D27*
X42400000Y-126225000D03*
X42400000Y-124975000D03*
X42400000Y-123725000D03*
%TD*%
D17*
%TO.C,CB1601*%
X250500000Y-240700000D03*
X250500000Y-239740000D03*
%TD*%
D12*
%TO.C,C1002*%
X182880000Y-250200000D03*
X181920000Y-250200000D03*
%TD*%
D40*
%TO.C,C1608*%
X211400000Y-142587500D03*
X211400000Y-144012500D03*
%TD*%
D12*
%TO.C,C1101*%
X193180000Y-93600000D03*
X192220000Y-93600000D03*
%TD*%
D13*
%TO.C,C803*%
X47800000Y-60920000D03*
X47800000Y-61880000D03*
%TD*%
D19*
%TO.C,R407*%
X78490000Y-45050000D03*
X79510000Y-45050000D03*
%TD*%
D63*
%TO.C,U1001*%
X226950000Y-236837500D03*
X227900000Y-236837500D03*
X228850000Y-236837500D03*
X228850000Y-234562500D03*
X226950000Y-234562500D03*
%TD*%
D16*
%TO.C,R406*%
X63960000Y-206200000D03*
X62940000Y-206200000D03*
%TD*%
D14*
%TO.C,C102*%
X67532400Y-232400000D03*
X68492400Y-232400000D03*
%TD*%
D15*
%TO.C,R1630*%
X211100000Y-229810000D03*
X211100000Y-228790000D03*
%TD*%
D13*
%TO.C,C704*%
X49000000Y-201120000D03*
X49000000Y-202080000D03*
%TD*%
%TO.C,C1508*%
X236300000Y-221920000D03*
X236300000Y-222880000D03*
%TD*%
D14*
%TO.C,C415*%
X66920000Y-53200000D03*
X67880000Y-53200000D03*
%TD*%
D11*
%TO.C,R1101*%
X194300000Y-94890000D03*
X194300000Y-95910000D03*
%TD*%
%TO.C,R1626*%
X254900000Y-153390000D03*
X254900000Y-154410000D03*
%TD*%
D15*
%TO.C,R1605*%
X250400000Y-161410000D03*
X250400000Y-160390000D03*
%TD*%
D14*
%TO.C,C1102*%
X238220000Y-97200000D03*
X239180000Y-97200000D03*
%TD*%
D15*
%TO.C,R1619*%
X205500000Y-64610000D03*
X205500000Y-63590000D03*
%TD*%
D12*
%TO.C,CB1410*%
X59780000Y-78200000D03*
X58820000Y-78200000D03*
%TD*%
D13*
%TO.C,C101*%
X78300000Y-141020000D03*
X78300000Y-141980000D03*
%TD*%
D19*
%TO.C,R1301*%
X84890000Y-224900000D03*
X85910000Y-224900000D03*
%TD*%
D15*
%TO.C,R902*%
X90300000Y-69055200D03*
X90300000Y-68035200D03*
%TD*%
D12*
%TO.C,C1502*%
X209980000Y-217600000D03*
X209020000Y-217600000D03*
%TD*%
D13*
%TO.C,C803*%
X47800000Y-136920000D03*
X47800000Y-137880000D03*
%TD*%
D11*
%TO.C,R1002*%
X180700000Y-101090000D03*
X180700000Y-102110000D03*
%TD*%
%TO.C,R917*%
X95300000Y-148490000D03*
X95300000Y-149510000D03*
%TD*%
D12*
%TO.C,C1507*%
X240730000Y-137050000D03*
X239770000Y-137050000D03*
%TD*%
D83*
%TO.C,SW901*%
X95200000Y-172400000D03*
X95200000Y-170400000D03*
X95200000Y-166400000D03*
X95200000Y-164400000D03*
X92400000Y-172400000D03*
X92400000Y-170400000D03*
X92400000Y-166400000D03*
X92400000Y-164400000D03*
%TD*%
D11*
%TO.C,R1633*%
X203800000Y-71590000D03*
X203800000Y-72610000D03*
%TD*%
%TO.C,R1626*%
X208900000Y-229390000D03*
X208900000Y-230410000D03*
%TD*%
D12*
%TO.C,C809*%
X59000000Y-215000000D03*
X58040000Y-215000000D03*
%TD*%
D46*
%TO.C,D304*%
X164400000Y-156625000D03*
X164400000Y-158200000D03*
%TD*%
D14*
%TO.C,CB1401*%
X192570000Y-156000000D03*
X193530000Y-156000000D03*
%TD*%
D12*
%TO.C,C1503*%
X185430000Y-213050000D03*
X184470000Y-213050000D03*
%TD*%
D43*
%TO.C,FB101*%
X75800000Y-163885000D03*
X75800000Y-162915000D03*
%TD*%
D19*
%TO.C,R1629*%
X254990000Y-75400000D03*
X256010000Y-75400000D03*
%TD*%
D16*
%TO.C,R806*%
X48910000Y-134600000D03*
X47890000Y-134600000D03*
%TD*%
D15*
%TO.C,R1618*%
X256000000Y-140610000D03*
X256000000Y-139590000D03*
%TD*%
D23*
%TO.C,MK1406*%
X183150000Y-63730000D03*
D24*
X183080000Y-67140000D03*
X185620000Y-67140000D03*
D23*
X185550000Y-63730000D03*
X184350000Y-63730000D03*
%TD*%
D67*
%TO.C,FB302*%
X138885000Y-231500000D03*
X137915000Y-231500000D03*
%TD*%
D14*
%TO.C,C404*%
X64970000Y-130200000D03*
X65930000Y-130200000D03*
%TD*%
D13*
%TO.C,C411*%
X75540000Y-126010000D03*
X75540000Y-126970000D03*
%TD*%
D47*
%TO.C,FB602*%
X44515000Y-137900000D03*
X45485000Y-137900000D03*
%TD*%
D12*
%TO.C,C802*%
X46680000Y-58600000D03*
X45720000Y-58600000D03*
%TD*%
D17*
%TO.C,C1202*%
X85300000Y-45030000D03*
X85300000Y-44070000D03*
%TD*%
%TO.C,CB401*%
X72900000Y-207330000D03*
X72900000Y-206370000D03*
%TD*%
D11*
%TO.C,R1612*%
X190200000Y-157890000D03*
X190200000Y-158910000D03*
%TD*%
D15*
%TO.C,R1616*%
X192450000Y-138060000D03*
X192450000Y-137040000D03*
%TD*%
D16*
%TO.C,R910*%
X90310000Y-244400000D03*
X89290000Y-244400000D03*
%TD*%
D19*
%TO.C,R205*%
X56490000Y-155400000D03*
X57510000Y-155400000D03*
%TD*%
D15*
%TO.C,R922*%
X87300000Y-131710000D03*
X87300000Y-130690000D03*
%TD*%
D63*
%TO.C,U1001*%
X226950000Y-160837500D03*
X227900000Y-160837500D03*
X228850000Y-160837500D03*
X228850000Y-158562500D03*
X226950000Y-158562500D03*
%TD*%
D11*
%TO.C,R917*%
X95300000Y-224490000D03*
X95300000Y-225510000D03*
%TD*%
D13*
%TO.C,CB1003*%
X251500000Y-232320000D03*
X251500000Y-233280000D03*
%TD*%
D12*
%TO.C,C904*%
X89180000Y-220000000D03*
X88220000Y-220000000D03*
%TD*%
D16*
%TO.C,R1610*%
X191310000Y-148200000D03*
X190290000Y-148200000D03*
%TD*%
D11*
%TO.C,R1633*%
X249800000Y-147590000D03*
X249800000Y-148610000D03*
%TD*%
D53*
%TO.C,J207*%
X60075000Y-87850000D03*
X73925000Y-87900000D03*
D54*
X71375000Y-84900000D03*
X70125000Y-84900000D03*
X68875000Y-84900000D03*
D55*
X67625000Y-84900000D03*
X66375000Y-84900000D03*
X65125000Y-84900000D03*
D54*
X63875000Y-84900000D03*
D55*
X62625000Y-84900000D03*
%TD*%
D19*
%TO.C,R1403*%
X58790000Y-84200000D03*
X59810000Y-84200000D03*
%TD*%
D23*
%TO.C,MK1405*%
X194850000Y-78270000D03*
D24*
X194920000Y-74860000D03*
X192380000Y-74860000D03*
D23*
X192450000Y-78270000D03*
X193650000Y-78270000D03*
%TD*%
%TO.C,MK1401*%
X190200000Y-156220000D03*
D24*
X190270000Y-152810000D03*
X187730000Y-152810000D03*
D23*
X187800000Y-156220000D03*
X189000000Y-156220000D03*
%TD*%
D14*
%TO.C,C414*%
X70320000Y-129300000D03*
X71280000Y-129300000D03*
%TD*%
D13*
%TO.C,CB1609*%
X252600000Y-63620000D03*
X252600000Y-64580000D03*
%TD*%
D14*
%TO.C,C1001*%
X226920000Y-156900000D03*
X227880000Y-156900000D03*
%TD*%
D13*
%TO.C,C1009*%
X204400000Y-156320000D03*
X204400000Y-157280000D03*
%TD*%
D11*
%TO.C,R920*%
X81800000Y-132490000D03*
X81800000Y-133510000D03*
%TD*%
D80*
%TO.C,J206*%
X90650000Y-138050000D03*
X90650000Y-137300000D03*
D81*
X90650000Y-136700000D03*
X90650000Y-135200000D03*
X90650000Y-134200000D03*
X90650000Y-133200000D03*
D80*
X90650000Y-132600000D03*
D82*
X90650000Y-131850000D03*
D80*
X90650000Y-131850000D03*
X90650000Y-132600000D03*
D81*
X90650000Y-133700000D03*
X90650000Y-134700000D03*
X90650000Y-135700000D03*
X90650000Y-136200000D03*
D80*
X90650000Y-137300000D03*
X90650000Y-138050000D03*
%TD*%
D79*
%TO.C,Y102*%
X65012400Y-230500000D03*
X65012400Y-228000000D03*
%TD*%
D13*
%TO.C,CB1003*%
X251500000Y-156320000D03*
X251500000Y-157280000D03*
%TD*%
D19*
%TO.C,R412*%
X75490000Y-197050000D03*
X76510000Y-197050000D03*
%TD*%
D45*
%TO.C,D902*%
X90195300Y-97400000D03*
X88620300Y-97400000D03*
%TD*%
D17*
%TO.C,C810*%
X58120000Y-61880000D03*
X58120000Y-60920000D03*
%TD*%
D15*
%TO.C,R1602*%
X253900000Y-81310000D03*
X253900000Y-80290000D03*
%TD*%
D16*
%TO.C,R801*%
X46710000Y-215000000D03*
X45690000Y-215000000D03*
%TD*%
D12*
%TO.C,C1008*%
X253680000Y-76400000D03*
X252720000Y-76400000D03*
%TD*%
D14*
%TO.C,CB1409*%
X58820000Y-158975000D03*
X59780000Y-158975000D03*
%TD*%
D19*
%TO.C,R204*%
X56490000Y-80600000D03*
X57510000Y-80600000D03*
%TD*%
D38*
%TO.C,U1201*%
X83950000Y-120187500D03*
X83450000Y-120187500D03*
X82950000Y-120187500D03*
X82450000Y-120187500D03*
D39*
X82437500Y-120700000D03*
X82437500Y-121200000D03*
D38*
X82450000Y-121712500D03*
X82950000Y-121712500D03*
X83450000Y-121712500D03*
X83950000Y-121712500D03*
D39*
X83962500Y-121200000D03*
X83962500Y-120700000D03*
%TD*%
D15*
%TO.C,R1605*%
X204400000Y-237410000D03*
X204400000Y-236390000D03*
%TD*%
D19*
%TO.C,C1602*%
X206690000Y-160900000D03*
X207710000Y-160900000D03*
%TD*%
D17*
%TO.C,C601*%
X44600000Y-59680000D03*
X44600000Y-58720000D03*
%TD*%
D14*
%TO.C,CB1301*%
X78920000Y-148900000D03*
X79880000Y-148900000D03*
%TD*%
D11*
%TO.C,R1625*%
X249300000Y-140190000D03*
X249300000Y-141210000D03*
%TD*%
D41*
%TO.C,U301*%
X140225000Y-139665000D03*
X139375000Y-139665000D03*
X138325000Y-139665000D03*
X137475000Y-139665000D03*
X136425000Y-139665000D03*
X135575000Y-139665000D03*
X134525000Y-139665000D03*
X133675000Y-139665000D03*
X132625000Y-139665000D03*
X131775000Y-139665000D03*
X140225000Y-140665000D03*
X139375000Y-140665000D03*
X138325000Y-140665000D03*
X137475000Y-140665000D03*
X136425000Y-140665000D03*
X135575000Y-140665000D03*
X134525000Y-140665000D03*
X133675000Y-140665000D03*
X132625000Y-140665000D03*
X131775000Y-140665000D03*
D42*
X143100000Y-142540000D03*
X142100000Y-142540000D03*
X129900000Y-142540000D03*
X128900000Y-142540000D03*
X143100000Y-143390000D03*
X142100000Y-143390000D03*
X129900000Y-143390000D03*
X128900000Y-143390000D03*
X143100000Y-144440000D03*
X142100000Y-144440000D03*
X129900000Y-144440000D03*
X128900000Y-144440000D03*
X143100000Y-145290000D03*
X142100000Y-145290000D03*
X129900000Y-145290000D03*
X128900000Y-145290000D03*
X143100000Y-146340000D03*
X142100000Y-146340000D03*
X129900000Y-146340000D03*
X128900000Y-146340000D03*
X143100000Y-147190000D03*
X142100000Y-147190000D03*
X129900000Y-147190000D03*
X128900000Y-147190000D03*
X143100000Y-148240000D03*
X142100000Y-148240000D03*
X129900000Y-148240000D03*
X128900000Y-148240000D03*
X143100000Y-149090000D03*
X142100000Y-149090000D03*
X129900000Y-149090000D03*
X128900000Y-149090000D03*
X143100000Y-150140000D03*
X142100000Y-150140000D03*
X129900000Y-150140000D03*
X128900000Y-150140000D03*
X143100000Y-150990000D03*
X142100000Y-150990000D03*
X129900000Y-150990000D03*
X128900000Y-150990000D03*
D41*
X140225000Y-152865000D03*
X139375000Y-152865000D03*
X138325000Y-152865000D03*
X137475000Y-152865000D03*
X136425000Y-152865000D03*
X135575000Y-152865000D03*
X134525000Y-152865000D03*
X133675000Y-152865000D03*
X132625000Y-152865000D03*
X131775000Y-152865000D03*
X140225000Y-153865000D03*
X139375000Y-153865000D03*
X138325000Y-153865000D03*
X137475000Y-153865000D03*
X136425000Y-153865000D03*
X135575000Y-153865000D03*
X134525000Y-153865000D03*
X133675000Y-153865000D03*
X132625000Y-153865000D03*
X131775000Y-153865000D03*
%TD*%
D16*
%TO.C,R411*%
X76510000Y-199050000D03*
X75490000Y-199050000D03*
%TD*%
D19*
%TO.C,R1607*%
X205690000Y-168300000D03*
X206710000Y-168300000D03*
%TD*%
D17*
%TO.C,C909*%
X79600000Y-155480000D03*
X79600000Y-154520000D03*
%TD*%
D19*
%TO.C,R203*%
X56490000Y-81800000D03*
X57510000Y-81800000D03*
%TD*%
D16*
%TO.C,R706*%
X48910000Y-46800000D03*
X47890000Y-46800000D03*
%TD*%
D12*
%TO.C,C908*%
X89180000Y-222000000D03*
X88220000Y-222000000D03*
%TD*%
D15*
%TO.C,R1611*%
X233800000Y-136110000D03*
X233800000Y-135090000D03*
%TD*%
D19*
%TO.C,R405*%
X72840000Y-127200000D03*
X73860000Y-127200000D03*
%TD*%
D15*
%TO.C,R1630*%
X257100000Y-153810000D03*
X257100000Y-152790000D03*
%TD*%
D17*
%TO.C,CB1408*%
X186600000Y-224080000D03*
X186600000Y-223120000D03*
%TD*%
D11*
%TO.C,R909*%
X89300000Y-73800000D03*
X89300000Y-74820000D03*
%TD*%
D46*
%TO.C,D302*%
X160000000Y-235812500D03*
X160000000Y-237387500D03*
%TD*%
D11*
%TO.C,R1627*%
X256000000Y-229390000D03*
X256000000Y-230410000D03*
%TD*%
D15*
%TO.C,R108*%
X55700000Y-226410000D03*
X55700000Y-225390000D03*
%TD*%
D14*
%TO.C,CB1001*%
X226920000Y-86500000D03*
X227880000Y-86500000D03*
%TD*%
D29*
%TO.C,U1701*%
X253620000Y-88980000D03*
X252780000Y-88980000D03*
X253620000Y-89820000D03*
X252780000Y-89820000D03*
D30*
X253950000Y-87937500D03*
X253450000Y-87937500D03*
X252950000Y-87937500D03*
X252450000Y-87937500D03*
D31*
X251737500Y-88650000D03*
X251737500Y-89150000D03*
X251737500Y-89650000D03*
X251737500Y-90150000D03*
D30*
X252450000Y-90862500D03*
X252950000Y-90862500D03*
X253450000Y-90862500D03*
X253950000Y-90862500D03*
D31*
X254662500Y-90150000D03*
X254662500Y-89650000D03*
X254662500Y-89150000D03*
X254662500Y-88650000D03*
%TD*%
D11*
%TO.C,R1623*%
X211100000Y-64190000D03*
X211100000Y-65210000D03*
%TD*%
D15*
%TO.C,R1611*%
X233800000Y-212110000D03*
X233800000Y-211090000D03*
%TD*%
%TO.C,R1601*%
X206600000Y-157310000D03*
X206600000Y-156290000D03*
%TD*%
D13*
%TO.C,CB1609*%
X206600000Y-139620000D03*
X206600000Y-140580000D03*
%TD*%
D47*
%TO.C,FB903*%
X88215000Y-145000000D03*
X89185000Y-145000000D03*
%TD*%
D13*
%TO.C,CB1610*%
X253800000Y-215640000D03*
X253800000Y-216600000D03*
%TD*%
D17*
%TO.C,C601*%
X44600000Y-211680000D03*
X44600000Y-210720000D03*
%TD*%
D16*
%TO.C,R305*%
X162710000Y-232600000D03*
X161690000Y-232600000D03*
%TD*%
D23*
%TO.C,MK1405*%
X240850000Y-78270000D03*
D24*
X240920000Y-74860000D03*
X238380000Y-74860000D03*
D23*
X238450000Y-78270000D03*
X239650000Y-78270000D03*
%TD*%
D17*
%TO.C,CB401*%
X72900000Y-131330000D03*
X72900000Y-130370000D03*
%TD*%
%TO.C,C810*%
X58120000Y-213880000D03*
X58120000Y-212920000D03*
%TD*%
D47*
%TO.C,FB1102*%
X238215000Y-172000000D03*
X239185000Y-172000000D03*
%TD*%
D19*
%TO.C,R408*%
X78490000Y-196050000D03*
X79510000Y-196050000D03*
%TD*%
D13*
%TO.C,C1607*%
X210000000Y-82320000D03*
X210000000Y-83280000D03*
%TD*%
D19*
%TO.C,R408*%
X78490000Y-44050000D03*
X79510000Y-44050000D03*
%TD*%
D12*
%TO.C,C1007*%
X182880000Y-167400000D03*
X181920000Y-167400000D03*
%TD*%
D16*
%TO.C,R413*%
X67910000Y-130200000D03*
X66890000Y-130200000D03*
%TD*%
D15*
%TO.C,R902*%
X90300000Y-221055200D03*
X90300000Y-220035200D03*
%TD*%
D14*
%TO.C,CB1401*%
X238570000Y-232000000D03*
X239530000Y-232000000D03*
%TD*%
D12*
%TO.C,C409*%
X67880000Y-204200000D03*
X66920000Y-204200000D03*
%TD*%
D16*
%TO.C,R1610*%
X191310000Y-224200000D03*
X190290000Y-224200000D03*
%TD*%
D15*
%TO.C,R1616*%
X238450000Y-138060000D03*
X238450000Y-137040000D03*
%TD*%
D12*
%TO.C,C812*%
X52280000Y-141100000D03*
X51320000Y-141100000D03*
%TD*%
D47*
%TO.C,FB901*%
X72015000Y-77600000D03*
X72985000Y-77600000D03*
%TD*%
%TO.C,FB303*%
X135030000Y-155500000D03*
X136000000Y-155500000D03*
%TD*%
D11*
%TO.C,R1101*%
X194300000Y-246890000D03*
X194300000Y-247910000D03*
%TD*%
%TO.C,R1628*%
X256600000Y-223610000D03*
X256600000Y-224630000D03*
%TD*%
D46*
%TO.C,D304*%
X164400000Y-80625000D03*
X164400000Y-82200000D03*
%TD*%
D12*
%TO.C,C204*%
X57460000Y-78270000D03*
X56500000Y-78270000D03*
%TD*%
D19*
%TO.C,R202*%
X56490000Y-159000000D03*
X57510000Y-159000000D03*
%TD*%
D15*
%TO.C,R1606*%
X210000000Y-237410000D03*
X210000000Y-236390000D03*
%TD*%
D62*
%TO.C,U902*%
X83423500Y-79458000D03*
X83423500Y-78508000D03*
X83423500Y-77558000D03*
X81148500Y-77558000D03*
X81148500Y-79458000D03*
%TD*%
D47*
%TO.C,FB301*%
X160515000Y-212600000D03*
X161485000Y-212600000D03*
%TD*%
D13*
%TO.C,C408*%
X75550000Y-48020000D03*
X75550000Y-48980000D03*
%TD*%
D16*
%TO.C,R1624*%
X251410000Y-218600000D03*
X250390000Y-218600000D03*
%TD*%
D79*
%TO.C,Y102*%
X65012400Y-78500000D03*
X65012400Y-76000000D03*
%TD*%
D43*
%TO.C,FB102*%
X77000000Y-87885000D03*
X77000000Y-86915000D03*
%TD*%
D11*
%TO.C,R1631*%
X251500000Y-77390000D03*
X251500000Y-78410000D03*
%TD*%
D14*
%TO.C,C708*%
X51320000Y-52300000D03*
X52280000Y-52300000D03*
%TD*%
D46*
%TO.C,D302*%
X160000000Y-83812500D03*
X160000000Y-85387500D03*
%TD*%
D14*
%TO.C,C1501*%
X187920000Y-234900000D03*
X188880000Y-234900000D03*
%TD*%
D83*
%TO.C,SW901*%
X95200000Y-248400000D03*
X95200000Y-246400000D03*
X95200000Y-242400000D03*
X95200000Y-240400000D03*
X92400000Y-248400000D03*
X92400000Y-246400000D03*
X92400000Y-242400000D03*
X92400000Y-240400000D03*
%TD*%
D23*
%TO.C,MK1408*%
X192450000Y-63730000D03*
D24*
X192380000Y-67140000D03*
X194920000Y-67140000D03*
D23*
X194850000Y-63730000D03*
X193650000Y-63730000D03*
%TD*%
D12*
%TO.C,CB904*%
X87880000Y-243200000D03*
X86920000Y-243200000D03*
%TD*%
D14*
%TO.C,CB1001*%
X226920000Y-162500000D03*
X227880000Y-162500000D03*
%TD*%
D20*
%TO.C,U701*%
X52580000Y-201180000D03*
X52580000Y-202020000D03*
X53420000Y-201180000D03*
X53420000Y-202020000D03*
D21*
X51537500Y-200850000D03*
X51537500Y-201350000D03*
X51537500Y-201850000D03*
X51537500Y-202350000D03*
D22*
X52250000Y-203062500D03*
X52750000Y-203062500D03*
X53250000Y-203062500D03*
X53750000Y-203062500D03*
D21*
X54462500Y-202350000D03*
X54462500Y-201850000D03*
X54462500Y-201350000D03*
X54462500Y-200850000D03*
D22*
X53750000Y-200137500D03*
X53250000Y-200137500D03*
X52750000Y-200137500D03*
X52250000Y-200137500D03*
%TD*%
D14*
%TO.C,C303*%
X138370000Y-213950000D03*
X139330000Y-213950000D03*
%TD*%
D16*
%TO.C,R303*%
X162710000Y-161400000D03*
X161690000Y-161400000D03*
%TD*%
D85*
%TO.C,D105*%
X80200000Y-60550000D03*
X80200000Y-61850000D03*
X82200000Y-61850000D03*
X82200000Y-60550000D03*
%TD*%
D13*
%TO.C,CB1201*%
X85300000Y-46070000D03*
X85300000Y-47030000D03*
%TD*%
D11*
%TO.C,R1628*%
X210600000Y-71610000D03*
X210600000Y-72630000D03*
%TD*%
D15*
%TO.C,R207*%
X62200000Y-66510000D03*
X62200000Y-65490000D03*
%TD*%
D13*
%TO.C,CB1407*%
X191300000Y-221920000D03*
X191300000Y-222880000D03*
%TD*%
D18*
%TO.C,R209*%
X86375000Y-60800000D03*
X88025000Y-60800000D03*
%TD*%
D16*
%TO.C,R701*%
X46710000Y-127200000D03*
X45690000Y-127200000D03*
%TD*%
D36*
%TO.C,C1613*%
X257400000Y-227412500D03*
X257400000Y-225987500D03*
%TD*%
D11*
%TO.C,R1003*%
X180900000Y-91490000D03*
X180900000Y-92510000D03*
%TD*%
D13*
%TO.C,C306*%
X79400000Y-238940000D03*
X79400000Y-239900000D03*
%TD*%
D14*
%TO.C,C1612*%
X250420000Y-228400000D03*
X251380000Y-228400000D03*
%TD*%
D17*
%TO.C,CB1605*%
X202700000Y-70380000D03*
X202700000Y-69420000D03*
%TD*%
D11*
%TO.C,R1003*%
X180900000Y-243490000D03*
X180900000Y-244510000D03*
%TD*%
%TO.C,R809*%
X57000000Y-213890000D03*
X57000000Y-214910000D03*
%TD*%
D15*
%TO.C,R403*%
X77000000Y-125010000D03*
X77000000Y-123990000D03*
%TD*%
D53*
%TO.C,J205*%
X60075000Y-171350000D03*
X73925000Y-171400000D03*
D54*
X71375000Y-168400000D03*
X70125000Y-168400000D03*
X68875000Y-168400000D03*
D55*
X67625000Y-168400000D03*
X66375000Y-168400000D03*
X65125000Y-168400000D03*
D54*
X63875000Y-168400000D03*
D55*
X62625000Y-168400000D03*
%TD*%
D19*
%TO.C,R201*%
X56490000Y-236200000D03*
X57510000Y-236200000D03*
%TD*%
D46*
%TO.C,D304*%
X164400000Y-232625000D03*
X164400000Y-234200000D03*
%TD*%
D19*
%TO.C,R908*%
X86897800Y-93600000D03*
X87917800Y-93600000D03*
%TD*%
D17*
%TO.C,C905*%
X87262500Y-51880000D03*
X87262500Y-50920000D03*
%TD*%
D14*
%TO.C,C415*%
X66920000Y-205200000D03*
X67880000Y-205200000D03*
%TD*%
D15*
%TO.C,R1604*%
X208900000Y-161410000D03*
X208900000Y-160390000D03*
%TD*%
D14*
%TO.C,CB108*%
X83720000Y-60600000D03*
X84680000Y-60600000D03*
%TD*%
D15*
%TO.C,R414*%
X71400000Y-131360000D03*
X71400000Y-130340000D03*
%TD*%
D12*
%TO.C,C405*%
X65480000Y-44000000D03*
X64520000Y-44000000D03*
%TD*%
D19*
%TO.C,R1607*%
X251690000Y-92300000D03*
X252710000Y-92300000D03*
%TD*%
D11*
%TO.C,R501*%
X46600000Y-49090000D03*
X46600000Y-50110000D03*
%TD*%
D15*
%TO.C,R1630*%
X211100000Y-77810000D03*
X211100000Y-76790000D03*
%TD*%
D92*
%TO.C,J201*%
X88750000Y-157800000D03*
X88750000Y-155800000D03*
D93*
X94500000Y-160150000D03*
X94500000Y-153450000D03*
%TD*%
D40*
%TO.C,C1608*%
X211400000Y-218587500D03*
X211400000Y-220012500D03*
%TD*%
D15*
%TO.C,R1617*%
X254900000Y-64610000D03*
X254900000Y-63590000D03*
%TD*%
D14*
%TO.C,CB1403*%
X183270000Y-232950000D03*
X184230000Y-232950000D03*
%TD*%
D12*
%TO.C,C104*%
X70480000Y-75600000D03*
X69520000Y-75600000D03*
%TD*%
%TO.C,C1504*%
X207680000Y-217600000D03*
X206720000Y-217600000D03*
%TD*%
D14*
%TO.C,C1612*%
X204420000Y-76400000D03*
X205380000Y-76400000D03*
%TD*%
D15*
%TO.C,R922*%
X87300000Y-55710000D03*
X87300000Y-54690000D03*
%TD*%
D69*
%TO.C,Y101*%
X67862400Y-78950000D03*
X70162400Y-78950000D03*
X70162400Y-77050000D03*
X67862400Y-77050000D03*
%TD*%
D19*
%TO.C,R918*%
X58890000Y-120200000D03*
X59910000Y-120200000D03*
%TD*%
D12*
%TO.C,C1604*%
X208680000Y-162500000D03*
X207720000Y-162500000D03*
%TD*%
%TO.C,C912*%
X83880000Y-205200000D03*
X82920000Y-205200000D03*
%TD*%
D14*
%TO.C,CB1001*%
X180920000Y-86500000D03*
X181880000Y-86500000D03*
%TD*%
D12*
%TO.C,C1101*%
X239180000Y-93600000D03*
X238220000Y-93600000D03*
%TD*%
D14*
%TO.C,CB1001*%
X180920000Y-162500000D03*
X181880000Y-162500000D03*
%TD*%
%TO.C,C416*%
X43920000Y-56700000D03*
X44880000Y-56700000D03*
%TD*%
D91*
%TO.C,U402*%
X65650000Y-202500000D03*
X65000000Y-202500000D03*
X64350000Y-202500000D03*
X64350000Y-204700000D03*
X65650000Y-204700000D03*
%TD*%
D23*
%TO.C,MK1404*%
X231020000Y-69800000D03*
D24*
X227610000Y-69730000D03*
X227610000Y-72270000D03*
D23*
X231020000Y-72200000D03*
X231020000Y-71000000D03*
%TD*%
D26*
%TO.C,J302*%
X161025000Y-153950000D03*
X161075000Y-140100000D03*
D27*
X158075000Y-142650000D03*
X158075000Y-143900000D03*
X158075000Y-145150000D03*
D28*
X158075000Y-146400000D03*
X158075000Y-147650000D03*
X158075000Y-148900000D03*
D27*
X158075000Y-150150000D03*
D28*
X158075000Y-151400000D03*
%TD*%
D14*
%TO.C,CB1409*%
X58820000Y-82975000D03*
X59780000Y-82975000D03*
%TD*%
D16*
%TO.C,R303*%
X162710000Y-237400000D03*
X161690000Y-237400000D03*
%TD*%
D17*
%TO.C,C905*%
X87262500Y-203880000D03*
X87262500Y-202920000D03*
%TD*%
D18*
%TO.C,R210*%
X90175000Y-51300000D03*
X91825000Y-51300000D03*
%TD*%
D17*
%TO.C,CB103*%
X62212400Y-147130000D03*
X62212400Y-146170000D03*
%TD*%
D65*
%TO.C,D102*%
X52200000Y-92525000D03*
X52200000Y-94275000D03*
%TD*%
D62*
%TO.C,U903*%
X85737500Y-127750000D03*
X85737500Y-126800000D03*
X85737500Y-125850000D03*
X83462500Y-125850000D03*
X83462500Y-127750000D03*
%TD*%
D12*
%TO.C,C1507*%
X240730000Y-213050000D03*
X239770000Y-213050000D03*
%TD*%
%TO.C,C104*%
X70480000Y-151600000D03*
X69520000Y-151600000D03*
%TD*%
D15*
%TO.C,R807*%
X55800000Y-62910000D03*
X55800000Y-61890000D03*
%TD*%
D16*
%TO.C,R804*%
X48910000Y-135800000D03*
X47890000Y-135800000D03*
%TD*%
D19*
%TO.C,R1514*%
X208990000Y-218600000D03*
X210010000Y-218600000D03*
%TD*%
D11*
%TO.C,R501*%
X46600000Y-125090000D03*
X46600000Y-126110000D03*
%TD*%
D19*
%TO.C,R918*%
X58890000Y-44200000D03*
X59910000Y-44200000D03*
%TD*%
D15*
%TO.C,R414*%
X71400000Y-55360000D03*
X71400000Y-54340000D03*
%TD*%
D11*
%TO.C,R1632*%
X204400000Y-153390000D03*
X204400000Y-154410000D03*
%TD*%
D15*
%TO.C,R1001*%
X182900000Y-239610000D03*
X182900000Y-238590000D03*
%TD*%
D11*
%TO.C,R709*%
X57000000Y-202090000D03*
X57000000Y-203110000D03*
%TD*%
D17*
%TO.C,C502*%
X44600000Y-52280000D03*
X44600000Y-51320000D03*
%TD*%
D11*
%TO.C,R1613*%
X240850000Y-155990000D03*
X240850000Y-157010000D03*
%TD*%
D19*
%TO.C,R410*%
X75490000Y-44050000D03*
X76510000Y-44050000D03*
%TD*%
D17*
%TO.C,CB1608*%
X206600000Y-78380000D03*
X206600000Y-77420000D03*
%TD*%
D14*
%TO.C,CB1403*%
X183270000Y-156950000D03*
X184230000Y-156950000D03*
%TD*%
D40*
%TO.C,C1614*%
X249000000Y-218587500D03*
X249000000Y-220012500D03*
%TD*%
D15*
%TO.C,R1616*%
X192450000Y-62060000D03*
X192450000Y-61040000D03*
%TD*%
D29*
%TO.C,U1701*%
X253620000Y-164980000D03*
X252780000Y-164980000D03*
X253620000Y-165820000D03*
X252780000Y-165820000D03*
D30*
X253950000Y-163937500D03*
X253450000Y-163937500D03*
X252950000Y-163937500D03*
X252450000Y-163937500D03*
D31*
X251737500Y-164650000D03*
X251737500Y-165150000D03*
X251737500Y-165650000D03*
X251737500Y-166150000D03*
D30*
X252450000Y-166862500D03*
X252950000Y-166862500D03*
X253450000Y-166862500D03*
X253950000Y-166862500D03*
D31*
X254662500Y-166150000D03*
X254662500Y-165650000D03*
X254662500Y-165150000D03*
X254662500Y-164650000D03*
%TD*%
D13*
%TO.C,C705*%
X53800000Y-52320000D03*
X53800000Y-53280000D03*
%TD*%
D11*
%TO.C,R809*%
X57000000Y-61890000D03*
X57000000Y-62910000D03*
%TD*%
D19*
%TO.C,R908*%
X86897800Y-245600000D03*
X87917800Y-245600000D03*
%TD*%
D43*
%TO.C,FB102*%
X77000000Y-239885000D03*
X77000000Y-238915000D03*
%TD*%
D13*
%TO.C,C1605*%
X203500000Y-163740000D03*
X203500000Y-164700000D03*
%TD*%
D16*
%TO.C,R706*%
X48910000Y-198800000D03*
X47890000Y-198800000D03*
%TD*%
D19*
%TO.C,R1403*%
X58790000Y-160200000D03*
X59810000Y-160200000D03*
%TD*%
D15*
%TO.C,R1601*%
X252600000Y-157310000D03*
X252600000Y-156290000D03*
%TD*%
D11*
%TO.C,R1632*%
X250400000Y-229390000D03*
X250400000Y-230410000D03*
%TD*%
%TO.C,R1625*%
X249300000Y-64190000D03*
X249300000Y-65210000D03*
%TD*%
D19*
%TO.C,R304*%
X161690000Y-158200000D03*
X162710000Y-158200000D03*
%TD*%
D11*
%TO.C,R1627*%
X210000000Y-153390000D03*
X210000000Y-154410000D03*
%TD*%
D67*
%TO.C,FB1001*%
X233285000Y-247400000D03*
X232315000Y-247400000D03*
%TD*%
D13*
%TO.C,C411*%
X75540000Y-50010000D03*
X75540000Y-50970000D03*
%TD*%
D12*
%TO.C,C406*%
X65480000Y-201000000D03*
X64520000Y-201000000D03*
%TD*%
D16*
%TO.C,R1608*%
X208710000Y-244300000D03*
X207690000Y-244300000D03*
%TD*%
D13*
%TO.C,C1009*%
X204400000Y-80320000D03*
X204400000Y-81280000D03*
%TD*%
D67*
%TO.C,FB1001*%
X187285000Y-95400000D03*
X186315000Y-95400000D03*
%TD*%
D16*
%TO.C,R413*%
X67910000Y-54200000D03*
X66890000Y-54200000D03*
%TD*%
%TO.C,R905*%
X90317800Y-169600000D03*
X89297800Y-169600000D03*
%TD*%
D26*
%TO.C,J302*%
X161025000Y-77950000D03*
X161075000Y-64100000D03*
D27*
X158075000Y-66650000D03*
X158075000Y-67900000D03*
X158075000Y-69150000D03*
D28*
X158075000Y-70400000D03*
X158075000Y-71650000D03*
X158075000Y-72900000D03*
D27*
X158075000Y-74150000D03*
D28*
X158075000Y-75400000D03*
%TD*%
D18*
%TO.C,R913*%
X88582800Y-239600000D03*
X90232800Y-239600000D03*
%TD*%
D16*
%TO.C,R904*%
X89210000Y-223041800D03*
X88190000Y-223041800D03*
%TD*%
D17*
%TO.C,C710*%
X58120000Y-126080000D03*
X58120000Y-125120000D03*
%TD*%
D12*
%TO.C,C305*%
X136000000Y-137950000D03*
X135040000Y-137950000D03*
%TD*%
D13*
%TO.C,CB1201*%
X85300000Y-198070000D03*
X85300000Y-199030000D03*
%TD*%
D12*
%TO.C,CB1402*%
X185430000Y-138050000D03*
X184470000Y-138050000D03*
%TD*%
D17*
%TO.C,C910*%
X81862500Y-203880000D03*
X81862500Y-202920000D03*
%TD*%
D12*
%TO.C,CB1602*%
X250480000Y-166220000D03*
X249520000Y-166220000D03*
%TD*%
D14*
%TO.C,CB105*%
X66220000Y-135700000D03*
X67180000Y-135700000D03*
%TD*%
D12*
%TO.C,C1507*%
X194730000Y-213050000D03*
X193770000Y-213050000D03*
%TD*%
D17*
%TO.C,C502*%
X44600000Y-128280000D03*
X44600000Y-127320000D03*
%TD*%
D58*
%TO.C,U904*%
X83462500Y-54650000D03*
X83462500Y-55600000D03*
X83462500Y-56550000D03*
X85737500Y-56550000D03*
X85737500Y-55600000D03*
X85737500Y-54650000D03*
%TD*%
D18*
%TO.C,R209*%
X86375000Y-212800000D03*
X88025000Y-212800000D03*
%TD*%
D46*
%TO.C,D303*%
X164400000Y-83825000D03*
X164400000Y-85400000D03*
%TD*%
D13*
%TO.C,C101*%
X78300000Y-65020000D03*
X78300000Y-65980000D03*
%TD*%
%TO.C,CB1609*%
X206600000Y-215620000D03*
X206600000Y-216580000D03*
%TD*%
D12*
%TO.C,C402*%
X65480000Y-48000000D03*
X64520000Y-48000000D03*
%TD*%
D16*
%TO.C,R906*%
X89210000Y-224100000D03*
X88190000Y-224100000D03*
%TD*%
D29*
%TO.C,U1701*%
X207620000Y-164980000D03*
X206780000Y-164980000D03*
X207620000Y-165820000D03*
X206780000Y-165820000D03*
D30*
X207950000Y-163937500D03*
X207450000Y-163937500D03*
X206950000Y-163937500D03*
X206450000Y-163937500D03*
D31*
X205737500Y-164650000D03*
X205737500Y-165150000D03*
X205737500Y-165650000D03*
X205737500Y-166150000D03*
D30*
X206450000Y-166862500D03*
X206950000Y-166862500D03*
X207450000Y-166862500D03*
X207950000Y-166862500D03*
D31*
X208662500Y-166150000D03*
X208662500Y-165650000D03*
X208662500Y-165150000D03*
X208662500Y-164650000D03*
%TD*%
D17*
%TO.C,CB1601*%
X204500000Y-240700000D03*
X204500000Y-239740000D03*
%TD*%
D18*
%TO.C,R913*%
X88582800Y-87600000D03*
X90232800Y-87600000D03*
%TD*%
D13*
%TO.C,CB1407*%
X191300000Y-69920000D03*
X191300000Y-70880000D03*
%TD*%
D67*
%TO.C,FB1001*%
X187285000Y-171400000D03*
X186315000Y-171400000D03*
%TD*%
D23*
%TO.C,MK1407*%
X185550000Y-154270000D03*
D24*
X185620000Y-150860000D03*
X183080000Y-150860000D03*
D23*
X183150000Y-154270000D03*
X184350000Y-154270000D03*
%TD*%
D48*
%TO.C,F901*%
X93225000Y-142400000D03*
X94975000Y-142400000D03*
%TD*%
D65*
%TO.C,D101*%
X54600000Y-244525000D03*
X54600000Y-246275000D03*
%TD*%
D17*
%TO.C,CB1606*%
X211700000Y-70400000D03*
X211700000Y-69440000D03*
%TD*%
D13*
%TO.C,C1607*%
X256000000Y-158320000D03*
X256000000Y-159280000D03*
%TD*%
D16*
%TO.C,R1634*%
X205410000Y-227400000D03*
X204390000Y-227400000D03*
%TD*%
D12*
%TO.C,C1007*%
X182880000Y-91400000D03*
X181920000Y-91400000D03*
%TD*%
D47*
%TO.C,FB502*%
X44500000Y-126100000D03*
X45470000Y-126100000D03*
%TD*%
D19*
%TO.C,R407*%
X78490000Y-197050000D03*
X79510000Y-197050000D03*
%TD*%
D13*
%TO.C,CB101*%
X78300000Y-63020000D03*
X78300000Y-63980000D03*
%TD*%
D23*
%TO.C,MK1406*%
X229150000Y-139730000D03*
D24*
X229080000Y-143140000D03*
X231620000Y-143140000D03*
D23*
X231550000Y-139730000D03*
X230350000Y-139730000D03*
%TD*%
D15*
%TO.C,R1618*%
X256000000Y-216610000D03*
X256000000Y-215590000D03*
%TD*%
D19*
%TO.C,R1514*%
X208990000Y-142600000D03*
X210010000Y-142600000D03*
%TD*%
D17*
%TO.C,C1401*%
X187600000Y-148080000D03*
X187600000Y-147120000D03*
%TD*%
D12*
%TO.C,C1003*%
X233280000Y-248600000D03*
X232320000Y-248600000D03*
%TD*%
D15*
%TO.C,R807*%
X55800000Y-214910000D03*
X55800000Y-213890000D03*
%TD*%
D13*
%TO.C,C1607*%
X256000000Y-234320000D03*
X256000000Y-235280000D03*
%TD*%
%TO.C,C907*%
X81800000Y-54520000D03*
X81800000Y-55480000D03*
%TD*%
D17*
%TO.C,CB1607*%
X207800000Y-154380000D03*
X207800000Y-153420000D03*
%TD*%
D15*
%TO.C,R402*%
X63000000Y-129110000D03*
X63000000Y-128090000D03*
%TD*%
D12*
%TO.C,C1003*%
X187280000Y-96600000D03*
X186320000Y-96600000D03*
%TD*%
D14*
%TO.C,C1402*%
X238570000Y-233000000D03*
X239530000Y-233000000D03*
%TD*%
D11*
%TO.C,R1633*%
X203800000Y-147590000D03*
X203800000Y-148610000D03*
%TD*%
D12*
%TO.C,C901*%
X72980000Y-78600000D03*
X72020000Y-78600000D03*
%TD*%
D47*
%TO.C,FB501*%
X44500000Y-201100000D03*
X45470000Y-201100000D03*
%TD*%
D53*
%TO.C,J1101*%
X230575000Y-101550000D03*
X239425000Y-101600000D03*
D54*
X236875000Y-98600000D03*
D55*
X235625000Y-98600000D03*
X234375000Y-98600000D03*
X233125000Y-98600000D03*
%TD*%
D12*
%TO.C,C203*%
X95280000Y-127500000D03*
X94320000Y-127500000D03*
%TD*%
D44*
%TO.C,C1601*%
X206425000Y-82900000D03*
X207975000Y-82900000D03*
%TD*%
D13*
%TO.C,C703*%
X47800000Y-201120000D03*
X47800000Y-202080000D03*
%TD*%
D12*
%TO.C,CB1410*%
X59780000Y-154200000D03*
X58820000Y-154200000D03*
%TD*%
D16*
%TO.C,R1610*%
X237310000Y-148200000D03*
X236290000Y-148200000D03*
%TD*%
D14*
%TO.C,C1102*%
X192220000Y-249200000D03*
X193180000Y-249200000D03*
%TD*%
%TO.C,C416*%
X43920000Y-208700000D03*
X44880000Y-208700000D03*
%TD*%
D12*
%TO.C,C205*%
X71280000Y-159200000D03*
X70320000Y-159200000D03*
%TD*%
D14*
%TO.C,CB907*%
X82920000Y-75700000D03*
X83880000Y-75700000D03*
%TD*%
D49*
%TO.C,U201*%
X86325000Y-134162500D03*
D50*
X86250000Y-134700000D03*
D49*
X86325000Y-135237500D03*
X88025000Y-135237500D03*
D50*
X88100000Y-134700000D03*
D49*
X88025000Y-134162500D03*
%TD*%
D53*
%TO.C,J1101*%
X184575000Y-177550000D03*
X193425000Y-177600000D03*
D54*
X190875000Y-174600000D03*
D55*
X189625000Y-174600000D03*
X188375000Y-174600000D03*
X187125000Y-174600000D03*
%TD*%
D15*
%TO.C,R1001*%
X228900000Y-239610000D03*
X228900000Y-238590000D03*
%TD*%
D12*
%TO.C,C1504*%
X207680000Y-141600000D03*
X206720000Y-141600000D03*
%TD*%
%TO.C,C1611*%
X209980000Y-228400000D03*
X209020000Y-228400000D03*
%TD*%
D44*
%TO.C,C1601*%
X252425000Y-158900000D03*
X253975000Y-158900000D03*
%TD*%
D23*
%TO.C,MK1401*%
X190200000Y-80220000D03*
D24*
X190270000Y-76810000D03*
X187730000Y-76810000D03*
D23*
X187800000Y-80220000D03*
X189000000Y-80220000D03*
%TD*%
D15*
%TO.C,R1614*%
X183150000Y-214060000D03*
X183150000Y-213040000D03*
%TD*%
D43*
%TO.C,FB101*%
X75800000Y-87885000D03*
X75800000Y-86915000D03*
%TD*%
D12*
%TO.C,C902*%
X72980000Y-228600000D03*
X72020000Y-228600000D03*
%TD*%
D16*
%TO.C,R1634*%
X251410000Y-227400000D03*
X250390000Y-227400000D03*
%TD*%
%TO.C,R1201*%
X83310000Y-42800000D03*
X82290000Y-42800000D03*
%TD*%
M02*
