M48
; DRILL file {KiCad 7.0.1-3b83917a11~172~ubuntu22.04.1} date Tue 09 May 2023 12:12:21
; FORMAT={-:-/ absolute / metric / decimal}
; #@! TF.CreationDate,2023-05-09T12:12:21+02:00
; #@! TF.GenerationSoftware,Kicad,Pcbnew,7.0.1-3b83917a11~172~ubuntu22.04.1
; #@! TF.FileFunction,NonPlated,1,4,NPTH
FMAT,2
METRIC
; #@! TA.AperFunction,NonPlated,NPTH,ComponentDrill
T1C0.500
; #@! TA.AperFunction,NonPlated,NPTH,ComponentDrill
T2C0.650
; #@! TA.AperFunction,NonPlated,NPTH,ComponentDrill
T3C0.991
; #@! TA.AperFunction,NonPlated,NPTH,ComponentDrill
T4C2.375
%
G90
G05
T1
X37.0Y-30.0
X37.0Y-30.833
X37.0Y-31.667
X37.0Y-32.5
X37.0Y-33.333
X37.0Y-34.167
X37.0Y-35.0
X37.0Y-53.687
X37.0Y-54.562
X37.0Y-55.438
X37.0Y-56.313
X37.0Y-57.188
X37.0Y-69.249
X37.0Y-70.125
X37.0Y-71.0
X37.0Y-71.875
X37.0Y-72.751
X37.0Y-84.749
X37.0Y-85.624
X37.0Y-86.5
X37.0Y-87.375
X37.0Y-88.251
X37.0Y-107.0
X37.0Y-107.8
X37.0Y-108.6
X37.0Y-109.4
X37.0Y-110.2
X37.0Y-111.0
X37.0Y-129.686
X37.0Y-130.562
X37.0Y-131.438
X37.0Y-132.313
X37.0Y-133.188
X37.0Y-145.249
X37.0Y-146.124
X37.0Y-147.0
X37.0Y-147.875
X37.0Y-148.751
X37.0Y-160.749
X37.0Y-161.624
X37.0Y-162.5
X37.0Y-163.375
X37.0Y-164.251
X37.0Y-183.0
X37.0Y-183.8
X37.0Y-184.6
X37.0Y-185.4
X37.0Y-186.2
X37.0Y-187.0
X37.0Y-205.686
X37.0Y-206.562
X37.0Y-207.438
X37.0Y-208.313
X37.0Y-209.188
X37.0Y-221.249
X37.0Y-222.124
X37.0Y-223.0
X37.0Y-223.875
X37.0Y-224.751
X37.0Y-236.749
X37.0Y-237.624
X37.0Y-238.5
X37.0Y-239.375
X37.0Y-240.251
X37.0Y-259.0
X37.0Y-259.833
X37.0Y-260.667
X37.0Y-261.5
X37.0Y-262.333
X37.0Y-263.167
X37.0Y-264.0
X56.049Y-41.0
X56.049Y-101.0
X56.049Y-117.0
X56.049Y-177.0
X56.049Y-193.0
X56.049Y-253.0
X56.966Y-41.0
X56.966Y-101.0
X56.966Y-117.0
X56.966Y-177.0
X56.966Y-193.0
X56.966Y-253.0
X57.883Y-41.0
X57.883Y-101.0
X57.883Y-117.0
X57.883Y-177.0
X57.883Y-193.0
X57.883Y-253.0
X58.8Y-41.0
X58.8Y-101.0
X58.8Y-117.0
X58.8Y-177.0
X58.8Y-193.0
X58.8Y-253.0
X59.717Y-41.0
X59.717Y-101.0
X59.717Y-117.0
X59.717Y-177.0
X59.717Y-193.0
X59.717Y-253.0
X60.634Y-41.0
X60.634Y-101.0
X60.634Y-117.0
X60.634Y-177.0
X60.634Y-193.0
X60.634Y-253.0
X61.551Y-41.0
X61.551Y-101.0
X61.551Y-117.0
X61.551Y-177.0
X61.551Y-193.0
X61.551Y-253.0
X72.649Y-41.0
X72.649Y-101.0
X72.649Y-117.0
X72.649Y-177.0
X72.649Y-193.0
X72.649Y-253.0
X73.566Y-41.0
X73.566Y-101.0
X73.566Y-117.0
X73.566Y-177.0
X73.566Y-193.0
X73.566Y-253.0
X74.483Y-41.0
X74.483Y-101.0
X74.483Y-117.0
X74.483Y-177.0
X74.483Y-193.0
X74.483Y-253.0
X75.4Y-41.0
X75.4Y-101.0
X75.4Y-117.0
X75.4Y-177.0
X75.4Y-193.0
X75.4Y-253.0
X76.317Y-41.0
X76.317Y-101.0
X76.317Y-117.0
X76.317Y-177.0
X76.317Y-193.0
X76.317Y-253.0
X77.234Y-41.0
X77.234Y-101.0
X77.234Y-117.0
X77.234Y-177.0
X77.234Y-193.0
X77.234Y-253.0
X78.151Y-41.0
X78.151Y-101.0
X78.151Y-117.0
X78.151Y-177.0
X78.151Y-193.0
X78.151Y-253.0
X97.0Y-30.0
X97.0Y-30.833
X97.0Y-31.667
X97.0Y-32.5
X97.0Y-33.333
X97.0Y-34.167
X97.0Y-35.0
X97.0Y-56.249
X97.0Y-57.166
X97.0Y-58.083
X97.0Y-59.0
X97.0Y-59.917
X97.0Y-60.834
X97.0Y-61.751
X97.0Y-77.999
X97.0Y-78.916
X97.0Y-79.833
X97.0Y-80.75
X97.0Y-81.667
X97.0Y-82.584
X97.0Y-83.501
X97.0Y-107.0
X97.0Y-107.8
X97.0Y-108.6
X97.0Y-109.4
X97.0Y-110.2
X97.0Y-111.0
X97.0Y-132.249
X97.0Y-133.166
X97.0Y-134.083
X97.0Y-135.0
X97.0Y-135.917
X97.0Y-136.834
X97.0Y-137.751
X97.0Y-153.999
X97.0Y-154.916
X97.0Y-155.833
X97.0Y-156.75
X97.0Y-157.667
X97.0Y-158.584
X97.0Y-159.501
X97.0Y-183.0
X97.0Y-183.8
X97.0Y-184.6
X97.0Y-185.4
X97.0Y-186.2
X97.0Y-187.0
X97.0Y-208.249
X97.0Y-209.166
X97.0Y-210.083
X97.0Y-211.0
X97.0Y-211.917
X97.0Y-212.834
X97.0Y-213.751
X97.0Y-229.999
X97.0Y-230.916
X97.0Y-231.833
X97.0Y-232.75
X97.0Y-233.667
X97.0Y-234.584
X97.0Y-235.501
X97.0Y-259.0
X97.0Y-259.833
X97.0Y-260.667
X97.0Y-261.5
X97.0Y-262.333
X97.0Y-263.167
X97.0Y-264.0
X106.0Y-30.0
X106.0Y-30.833
X106.0Y-31.667
X106.0Y-32.5
X106.0Y-33.333
X106.0Y-34.167
X106.0Y-35.0
X106.0Y-53.687
X106.0Y-54.562
X106.0Y-55.438
X106.0Y-56.313
X106.0Y-57.188
X106.0Y-69.249
X106.0Y-70.125
X106.0Y-71.0
X106.0Y-71.875
X106.0Y-72.751
X106.0Y-84.811
X106.0Y-85.687
X106.0Y-86.562
X106.0Y-87.438
X106.0Y-88.313
X106.0Y-107.0
X106.0Y-107.8
X106.0Y-108.6
X106.0Y-109.4
X106.0Y-110.2
X106.0Y-111.0
X106.0Y-129.686
X106.0Y-130.562
X106.0Y-131.438
X106.0Y-132.313
X106.0Y-133.188
X106.0Y-145.249
X106.0Y-146.124
X106.0Y-147.0
X106.0Y-147.875
X106.0Y-148.751
X106.0Y-160.811
X106.0Y-161.687
X106.0Y-162.562
X106.0Y-163.438
X106.0Y-164.313
X106.0Y-183.0
X106.0Y-183.8
X106.0Y-184.6
X106.0Y-185.4
X106.0Y-186.2
X106.0Y-187.0
X106.0Y-205.686
X106.0Y-206.562
X106.0Y-207.438
X106.0Y-208.313
X106.0Y-209.188
X106.0Y-221.249
X106.0Y-222.124
X106.0Y-223.0
X106.0Y-223.875
X106.0Y-224.751
X106.0Y-236.811
X106.0Y-237.687
X106.0Y-238.562
X106.0Y-239.438
X106.0Y-240.313
X106.0Y-259.0
X106.0Y-259.833
X106.0Y-260.667
X106.0Y-261.5
X106.0Y-262.333
X106.0Y-263.167
X106.0Y-264.0
X125.049Y-41.0
X125.049Y-101.0
X125.049Y-117.0
X125.049Y-177.0
X125.049Y-193.0
X125.049Y-253.0
X125.966Y-41.0
X125.966Y-101.0
X125.966Y-117.0
X125.966Y-177.0
X125.966Y-193.0
X125.966Y-253.0
X126.883Y-41.0
X126.883Y-101.0
X126.883Y-117.0
X126.883Y-177.0
X126.883Y-193.0
X126.883Y-253.0
X127.8Y-41.0
X127.8Y-117.0
X127.8Y-193.0
X127.8Y-101.0
X127.8Y-177.0
X127.8Y-253.0
X128.717Y-41.0
X128.717Y-101.0
X128.717Y-117.0
X128.717Y-177.0
X128.717Y-193.0
X128.717Y-253.0
X129.634Y-41.0
X129.634Y-101.0
X129.634Y-117.0
X129.634Y-177.0
X129.634Y-193.0
X129.634Y-253.0
X130.551Y-41.0
X130.551Y-101.0
X130.551Y-117.0
X130.551Y-177.0
X130.551Y-193.0
X130.551Y-253.0
X141.649Y-41.0
X141.649Y-101.0
X141.649Y-117.0
X141.649Y-177.0
X141.649Y-193.0
X141.649Y-253.0
X142.566Y-41.0
X142.566Y-101.0
X142.566Y-117.0
X142.566Y-177.0
X142.566Y-193.0
X142.566Y-253.0
X143.483Y-41.0
X143.483Y-101.0
X143.483Y-117.0
X143.483Y-177.0
X143.483Y-193.0
X143.483Y-253.0
X144.4Y-41.0
X144.4Y-101.0
X144.4Y-117.0
X144.4Y-177.0
X144.4Y-193.0
X144.4Y-253.0
X145.317Y-41.0
X145.317Y-101.0
X145.317Y-117.0
X145.317Y-177.0
X145.317Y-193.0
X145.317Y-253.0
X146.234Y-41.0
X146.234Y-101.0
X146.234Y-117.0
X146.234Y-177.0
X146.234Y-193.0
X146.234Y-253.0
X147.151Y-41.0
X147.151Y-101.0
X147.151Y-117.0
X147.151Y-177.0
X147.151Y-193.0
X147.151Y-253.0
X164.0Y-69.249
X164.0Y-70.125
X164.0Y-71.0
X164.0Y-71.875
X164.0Y-72.751
X164.0Y-145.249
X164.0Y-146.124
X164.0Y-147.0
X164.0Y-147.875
X164.0Y-148.751
X164.0Y-221.249
X164.0Y-222.124
X164.0Y-223.0
X164.0Y-223.875
X164.0Y-224.751
X166.0Y-30.0
X166.0Y-30.833
X166.0Y-31.667
X166.0Y-32.5
X166.0Y-33.333
X166.0Y-34.167
X166.0Y-35.0
X166.0Y-53.687
X166.0Y-54.562
X166.0Y-55.438
X166.0Y-56.313
X166.0Y-57.188
X166.0Y-84.811
X166.0Y-85.687
X166.0Y-86.562
X166.0Y-87.438
X166.0Y-88.313
X166.0Y-107.0
X166.0Y-107.8
X166.0Y-108.6
X166.0Y-109.4
X166.0Y-110.2
X166.0Y-111.0
X166.0Y-129.686
X166.0Y-130.562
X166.0Y-131.438
X166.0Y-132.313
X166.0Y-133.188
X166.0Y-160.811
X166.0Y-161.687
X166.0Y-162.562
X166.0Y-163.438
X166.0Y-164.313
X166.0Y-183.0
X166.0Y-183.8
X166.0Y-184.6
X166.0Y-185.4
X166.0Y-186.2
X166.0Y-187.0
X166.0Y-205.686
X166.0Y-206.562
X166.0Y-207.438
X166.0Y-208.313
X166.0Y-209.188
X166.0Y-236.811
X166.0Y-237.687
X166.0Y-238.562
X166.0Y-239.438
X166.0Y-240.313
X166.0Y-259.0
X166.0Y-259.833
X166.0Y-260.667
X166.0Y-261.5
X166.0Y-262.333
X166.0Y-263.167
X166.0Y-264.0
X175.0Y-30.0
X175.0Y-30.833
X175.0Y-31.667
X175.0Y-32.5
X175.0Y-33.333
X175.0Y-34.167
X175.0Y-35.0
X175.0Y-51.687
X175.0Y-52.562
X175.0Y-53.438
X175.0Y-54.313
X175.0Y-55.188
X175.0Y-69.249
X175.0Y-70.125
X175.0Y-71.0
X175.0Y-71.875
X175.0Y-72.751
X175.0Y-86.811
X175.0Y-87.687
X175.0Y-88.562
X175.0Y-89.438
X175.0Y-90.313
X175.0Y-107.0
X175.0Y-107.8
X175.0Y-108.6
X175.0Y-109.4
X175.0Y-110.2
X175.0Y-111.0
X175.0Y-127.686
X175.0Y-128.562
X175.0Y-129.438
X175.0Y-130.313
X175.0Y-131.188
X175.0Y-145.249
X175.0Y-146.124
X175.0Y-147.0
X175.0Y-147.875
X175.0Y-148.751
X175.0Y-162.811
X175.0Y-163.687
X175.0Y-164.562
X175.0Y-165.438
X175.0Y-166.313
X175.0Y-183.0
X175.0Y-183.8
X175.0Y-184.6
X175.0Y-185.4
X175.0Y-186.2
X175.0Y-187.0
X175.0Y-203.686
X175.0Y-204.562
X175.0Y-205.438
X175.0Y-206.313
X175.0Y-207.188
X175.0Y-221.249
X175.0Y-222.124
X175.0Y-223.0
X175.0Y-223.875
X175.0Y-224.751
X175.0Y-238.811
X175.0Y-239.687
X175.0Y-240.562
X175.0Y-241.438
X175.0Y-242.313
X175.0Y-259.0
X175.0Y-259.833
X175.0Y-260.667
X175.0Y-261.5
X175.0Y-262.333
X175.0Y-263.167
X175.0Y-264.0
X182.187Y-37.0
X182.187Y-105.0
X182.187Y-113.0
X182.187Y-181.0
X182.187Y-189.0
X182.187Y-257.0
X183.062Y-37.0
X183.062Y-105.0
X183.062Y-113.0
X183.062Y-181.0
X183.062Y-189.0
X183.062Y-257.0
X183.938Y-37.0
X183.938Y-105.0
X183.938Y-113.0
X183.938Y-181.0
X183.938Y-189.0
X183.938Y-257.0
X184.813Y-37.0
X184.813Y-105.0
X184.813Y-113.0
X184.813Y-181.0
X184.813Y-189.0
X184.813Y-257.0
X185.689Y-37.0
X185.689Y-105.0
X185.689Y-113.0
X185.689Y-181.0
X185.689Y-189.0
X185.689Y-257.0
X192.249Y-37.0
X192.249Y-105.0
X192.249Y-113.0
X192.249Y-181.0
X192.249Y-189.0
X192.249Y-257.0
X193.125Y-37.0
X193.125Y-105.0
X193.125Y-113.0
X193.125Y-181.0
X193.125Y-189.0
X193.125Y-257.0
X194.0Y-37.0
X194.0Y-105.0
X194.0Y-113.0
X194.0Y-181.0
X194.0Y-189.0
X194.0Y-257.0
X194.875Y-37.0
X194.875Y-105.0
X194.875Y-113.0
X194.875Y-181.0
X194.875Y-189.0
X194.875Y-257.0
X195.751Y-37.0
X195.751Y-105.0
X195.751Y-113.0
X195.751Y-181.0
X195.751Y-189.0
X195.751Y-257.0
X202.311Y-37.0
X202.311Y-105.0
X202.311Y-113.0
X202.311Y-181.0
X202.311Y-189.0
X202.311Y-257.0
X203.187Y-37.0
X203.187Y-105.0
X203.187Y-113.0
X203.187Y-181.0
X203.187Y-189.0
X203.187Y-257.0
X204.062Y-37.0
X204.062Y-105.0
X204.062Y-113.0
X204.062Y-181.0
X204.062Y-189.0
X204.062Y-257.0
X204.938Y-37.0
X204.938Y-105.0
X204.938Y-113.0
X204.938Y-181.0
X204.938Y-189.0
X204.938Y-257.0
X205.813Y-37.0
X205.813Y-105.0
X205.813Y-113.0
X205.813Y-181.0
X205.813Y-189.0
X205.813Y-257.0
X213.0Y-51.687
X213.0Y-52.562
X213.0Y-53.438
X213.0Y-54.313
X213.0Y-55.188
X213.0Y-69.249
X213.0Y-70.125
X213.0Y-71.0
X213.0Y-71.875
X213.0Y-72.751
X213.0Y-86.811
X213.0Y-87.687
X213.0Y-88.562
X213.0Y-89.438
X213.0Y-90.313
X213.0Y-127.686
X213.0Y-128.562
X213.0Y-129.438
X213.0Y-130.313
X213.0Y-131.188
X213.0Y-145.249
X213.0Y-146.124
X213.0Y-147.0
X213.0Y-147.875
X213.0Y-148.751
X213.0Y-162.811
X213.0Y-163.687
X213.0Y-164.562
X213.0Y-165.438
X213.0Y-166.313
X213.0Y-203.686
X213.0Y-204.562
X213.0Y-205.438
X213.0Y-206.313
X213.0Y-207.188
X213.0Y-221.249
X213.0Y-222.124
X213.0Y-223.0
X213.0Y-223.875
X213.0Y-224.751
X213.0Y-238.811
X213.0Y-239.687
X213.0Y-240.562
X213.0Y-241.438
X213.0Y-242.313
X215.0Y-37.0
X215.0Y-107.0
X215.0Y-107.0
X215.0Y-107.8
X215.0Y-108.6
X215.0Y-109.4
X215.0Y-110.2
X215.0Y-111.0
X215.0Y-111.0
X215.0Y-183.0
X215.0Y-183.0
X215.0Y-183.8
X215.0Y-184.6
X215.0Y-185.4
X215.0Y-186.2
X215.0Y-187.0
X215.0Y-187.0
X215.0Y-257.0
X215.8Y-37.0
X215.8Y-107.0
X215.8Y-111.0
X215.8Y-183.0
X215.8Y-187.0
X215.8Y-257.0
X216.6Y-37.0
X216.6Y-107.0
X216.6Y-111.0
X216.6Y-183.0
X216.6Y-187.0
X216.6Y-257.0
X217.4Y-37.0
X217.4Y-107.0
X217.4Y-111.0
X217.4Y-183.0
X217.4Y-187.0
X217.4Y-257.0
X218.2Y-37.0
X218.2Y-107.0
X218.2Y-111.0
X218.2Y-183.0
X218.2Y-187.0
X218.2Y-257.0
X219.0Y-37.0
X219.0Y-107.0
X219.0Y-107.0
X219.0Y-107.8
X219.0Y-108.6
X219.0Y-109.4
X219.0Y-110.2
X219.0Y-111.0
X219.0Y-111.0
X219.0Y-183.0
X219.0Y-183.0
X219.0Y-183.8
X219.0Y-184.6
X219.0Y-185.4
X219.0Y-186.2
X219.0Y-187.0
X219.0Y-187.0
X219.0Y-257.0
X221.0Y-51.687
X221.0Y-52.562
X221.0Y-53.438
X221.0Y-54.313
X221.0Y-55.188
X221.0Y-69.249
X221.0Y-70.125
X221.0Y-71.0
X221.0Y-71.875
X221.0Y-72.751
X221.0Y-86.811
X221.0Y-87.687
X221.0Y-88.562
X221.0Y-89.438
X221.0Y-90.313
X221.0Y-127.686
X221.0Y-128.562
X221.0Y-129.438
X221.0Y-130.313
X221.0Y-131.188
X221.0Y-145.249
X221.0Y-146.124
X221.0Y-147.0
X221.0Y-147.875
X221.0Y-148.751
X221.0Y-162.811
X221.0Y-163.687
X221.0Y-164.562
X221.0Y-165.438
X221.0Y-166.313
X221.0Y-203.686
X221.0Y-204.562
X221.0Y-205.438
X221.0Y-206.313
X221.0Y-207.188
X221.0Y-221.249
X221.0Y-222.124
X221.0Y-223.0
X221.0Y-223.875
X221.0Y-224.751
X221.0Y-238.811
X221.0Y-239.687
X221.0Y-240.562
X221.0Y-241.438
X221.0Y-242.313
X228.186Y-37.0
X228.186Y-105.0
X228.186Y-113.0
X228.186Y-181.0
X228.186Y-189.0
X228.186Y-257.0
X229.062Y-37.0
X229.062Y-105.0
X229.062Y-113.0
X229.062Y-181.0
X229.062Y-189.0
X229.062Y-257.0
X229.938Y-37.0
X229.938Y-105.0
X229.938Y-113.0
X229.938Y-181.0
X229.938Y-189.0
X229.938Y-257.0
X230.813Y-37.0
X230.813Y-105.0
X230.813Y-113.0
X230.813Y-181.0
X230.813Y-189.0
X230.813Y-257.0
X231.688Y-37.0
X231.688Y-105.0
X231.688Y-113.0
X231.688Y-181.0
X231.688Y-189.0
X231.688Y-257.0
X238.249Y-37.0
X238.249Y-105.0
X238.249Y-113.0
X238.249Y-181.0
X238.249Y-189.0
X238.249Y-257.0
X239.124Y-37.0
X239.124Y-105.0
X239.124Y-113.0
X239.124Y-181.0
X239.124Y-189.0
X239.124Y-257.0
X240.0Y-37.0
X240.0Y-105.0
X240.0Y-113.0
X240.0Y-181.0
X240.0Y-189.0
X240.0Y-257.0
X240.875Y-37.0
X240.875Y-105.0
X240.875Y-113.0
X240.875Y-181.0
X240.875Y-189.0
X240.875Y-257.0
X241.751Y-37.0
X241.751Y-105.0
X241.751Y-113.0
X241.751Y-181.0
X241.751Y-189.0
X241.751Y-257.0
X248.311Y-37.0
X248.311Y-105.0
X248.311Y-113.0
X248.311Y-181.0
X248.311Y-189.0
X248.311Y-257.0
X249.187Y-37.0
X249.187Y-105.0
X249.187Y-113.0
X249.187Y-181.0
X249.187Y-189.0
X249.187Y-257.0
X250.062Y-37.0
X250.062Y-105.0
X250.062Y-113.0
X250.062Y-181.0
X250.062Y-189.0
X250.062Y-257.0
X250.938Y-37.0
X250.938Y-105.0
X250.938Y-113.0
X250.938Y-181.0
X250.938Y-189.0
X250.938Y-257.0
X251.813Y-37.0
X251.813Y-105.0
X251.813Y-113.0
X251.813Y-181.0
X251.813Y-189.0
X251.813Y-257.0
X259.0Y-30.0
X259.0Y-30.833
X259.0Y-31.667
X259.0Y-32.5
X259.0Y-33.333
X259.0Y-34.167
X259.0Y-35.0
X259.0Y-51.687
X259.0Y-52.562
X259.0Y-53.438
X259.0Y-54.313
X259.0Y-55.188
X259.0Y-69.249
X259.0Y-70.125
X259.0Y-71.0
X259.0Y-71.875
X259.0Y-72.751
X259.0Y-86.811
X259.0Y-87.687
X259.0Y-88.562
X259.0Y-89.438
X259.0Y-90.313
X259.0Y-107.0
X259.0Y-107.8
X259.0Y-108.6
X259.0Y-109.4
X259.0Y-110.2
X259.0Y-111.0
X259.0Y-127.686
X259.0Y-128.562
X259.0Y-129.438
X259.0Y-130.313
X259.0Y-131.188
X259.0Y-145.249
X259.0Y-146.124
X259.0Y-147.0
X259.0Y-147.875
X259.0Y-148.751
X259.0Y-162.811
X259.0Y-163.687
X259.0Y-164.562
X259.0Y-165.438
X259.0Y-166.313
X259.0Y-183.0
X259.0Y-183.8
X259.0Y-184.6
X259.0Y-185.4
X259.0Y-186.2
X259.0Y-187.0
X259.0Y-203.686
X259.0Y-204.562
X259.0Y-205.438
X259.0Y-206.313
X259.0Y-207.188
X259.0Y-221.249
X259.0Y-222.124
X259.0Y-223.0
X259.0Y-223.875
X259.0Y-224.751
X259.0Y-238.811
X259.0Y-239.687
X259.0Y-240.562
X259.0Y-241.438
X259.0Y-242.313
X259.0Y-259.0
X259.0Y-259.833
X259.0Y-260.667
X259.0Y-261.5
X259.0Y-262.333
X259.0Y-263.167
X259.0Y-264.0
T2
X92.0Y-61.95
X92.0Y-137.95
X92.0Y-213.95
X182.4Y-71.0
X182.4Y-147.0
X182.4Y-223.0
X184.35Y-66.35
X184.35Y-75.65
X184.35Y-142.35
X184.35Y-151.65
X184.35Y-218.35
X184.35Y-227.65
X189.0Y-64.4
X189.0Y-77.6
X189.0Y-140.4
X189.0Y-153.6
X189.0Y-216.4
X189.0Y-229.6
X193.65Y-66.35
X193.65Y-75.65
X193.65Y-142.35
X193.65Y-151.65
X193.65Y-218.35
X193.65Y-227.65
X195.6Y-71.0
X195.6Y-147.0
X195.6Y-223.0
X228.4Y-71.0
X228.4Y-147.0
X228.4Y-223.0
X230.35Y-66.35
X230.35Y-75.65
X230.35Y-142.35
X230.35Y-151.65
X230.35Y-218.35
X230.35Y-227.65
X235.0Y-64.4
X235.0Y-77.6
X235.0Y-140.4
X235.0Y-153.6
X235.0Y-216.4
X235.0Y-229.6
X239.65Y-66.35
X239.65Y-75.65
X239.65Y-142.35
X239.65Y-151.65
X239.65Y-218.35
X239.65Y-227.65
X241.6Y-71.0
X241.6Y-147.0
X241.6Y-223.0
T3
X47.32Y-94.184
X47.32Y-96.216
X47.32Y-170.184
X47.32Y-172.216
X47.32Y-246.184
X47.32Y-248.216
X57.48Y-95.2
X57.48Y-171.2
X57.48Y-247.2
T4
X49.225Y-92.66
X49.225Y-97.74
X49.225Y-168.66
X49.225Y-173.74
X49.225Y-244.66
X49.225Y-249.74
X57.48Y-92.66
X57.48Y-97.74
X57.48Y-168.66
X57.48Y-173.74
X57.48Y-244.66
X57.48Y-249.74
T2
G00X92.0Y-56.075
M15
G01X92.0Y-55.825
M16
G05
G00X92.0Y-132.075
M15
G01X92.0Y-131.825
M16
G05
G00X92.0Y-208.075
M15
G01X92.0Y-207.825
M16
G05
T0
M30
