%TF.GenerationSoftware,KiCad,Pcbnew,7.0.1-3b83917a11~172~ubuntu22.04.1*%
%TF.CreationDate,2023-05-09T12:11:44+02:00*%
%TF.ProjectId,panel,70616e65-6c2e-46b6-9963-61645f706362,C*%
%TF.SameCoordinates,Original*%
%TF.FileFunction,Soldermask,Bot*%
%TF.FilePolarity,Negative*%
%FSLAX46Y46*%
G04 Gerber Fmt 4.6, Leading zero omitted, Abs format (unit mm)*
G04 Created by KiCad (PCBNEW 7.0.1-3b83917a11~172~ubuntu22.04.1) date 2023-05-09 12:11:44*
%MOMM*%
%LPD*%
G01*
G04 APERTURE LIST*
G04 Aperture macros list*
%AMRotRect*
0 Rectangle, with rotation*
0 The origin of the aperture is its center*
0 $1 length*
0 $2 width*
0 $3 Rotation angle, in degrees counterclockwise*
0 Add horizontal line*
21,1,$1,$2,0,0,$3*%
%AMFreePoly0*
4,1,19,0.550000,-0.750000,0.000000,-0.750000,0.000000,-0.744911,-0.071157,-0.744911,-0.207708,-0.704816,-0.327430,-0.627875,-0.420627,-0.520320,-0.479746,-0.390866,-0.500000,-0.250000,-0.500000,0.250000,-0.479746,0.390866,-0.420627,0.520320,-0.327430,0.627875,-0.207708,0.704816,-0.071157,0.744911,0.000000,0.744911,0.000000,0.750000,0.550000,0.750000,0.550000,-0.750000,0.550000,-0.750000,
$1*%
%AMFreePoly1*
4,1,19,0.000000,0.744911,0.071157,0.744911,0.207708,0.704816,0.327430,0.627875,0.420627,0.520320,0.479746,0.390866,0.500000,0.250000,0.500000,-0.250000,0.479746,-0.390866,0.420627,-0.520320,0.327430,-0.627875,0.207708,-0.704816,0.071157,-0.744911,0.000000,-0.744911,0.000000,-0.750000,-0.550000,-0.750000,-0.550000,0.750000,0.000000,0.750000,0.000000,0.744911,0.000000,0.744911,
$1*%
%AMFreePoly2*
4,1,19,0.500000,-0.750000,0.000000,-0.750000,0.000000,-0.744911,-0.071157,-0.744911,-0.207708,-0.704816,-0.327430,-0.627875,-0.420627,-0.520320,-0.479746,-0.390866,-0.500000,-0.250000,-0.500000,0.250000,-0.479746,0.390866,-0.420627,0.520320,-0.327430,0.627875,-0.207708,0.704816,-0.071157,0.744911,0.000000,0.744911,0.000000,0.750000,0.500000,0.750000,0.500000,-0.750000,0.500000,-0.750000,
$1*%
%AMFreePoly3*
4,1,19,0.000000,0.744911,0.071157,0.744911,0.207708,0.704816,0.327430,0.627875,0.420627,0.520320,0.479746,0.390866,0.500000,0.250000,0.500000,-0.250000,0.479746,-0.390866,0.420627,-0.520320,0.327430,-0.627875,0.207708,-0.704816,0.071157,-0.744911,0.000000,-0.744911,0.000000,-0.750000,-0.500000,-0.750000,-0.500000,0.750000,0.000000,0.750000,0.000000,0.744911,0.000000,0.744911,
$1*%
G04 Aperture macros list end*
%ADD10C,0.200000*%
%ADD11C,0.800000*%
%ADD12C,6.400000*%
%ADD13C,0.650000*%
%ADD14O,0.650000X0.900000*%
%ADD15O,1.950000X0.950000*%
%ADD16C,0.500000*%
%ADD17R,1.000000X1.000000*%
%ADD18O,1.000000X1.000000*%
%ADD19C,1.000000*%
%ADD20FreePoly0,270.000000*%
%ADD21R,1.500000X1.000000*%
%ADD22FreePoly1,270.000000*%
%ADD23C,2.374900*%
%ADD24C,0.990600*%
%ADD25C,0.787400*%
%ADD26R,1.700000X1.700000*%
%ADD27O,1.700000X1.700000*%
%ADD28FreePoly2,180.000000*%
%ADD29FreePoly3,180.000000*%
%ADD30RotRect,5.100000X5.100000X45.000000*%
%ADD31C,17.800000*%
G04 APERTURE END LIST*
D10*
X200100000Y-233700000D02*
X203200000Y-230600000D01*
X246100000Y-233700000D02*
X249200000Y-230600000D01*
X200100000Y-157700000D02*
X203200000Y-154600000D01*
X246100000Y-157700000D02*
X249200000Y-154600000D01*
X200100000Y-81700000D02*
X203200000Y-78600000D01*
X246100000Y-81700000D02*
X249200000Y-78600000D01*
X212500000Y-216450000D02*
X211650000Y-217300000D01*
X258500000Y-216450000D02*
X257650000Y-217300000D01*
X212500000Y-140450000D02*
X211650000Y-141300000D01*
X258500000Y-140450000D02*
X257650000Y-141300000D01*
X212500000Y-64450000D02*
X211650000Y-65300000D01*
X258500000Y-64450000D02*
X257650000Y-65300000D01*
X206150000Y-229450000D02*
X207300000Y-229450000D01*
X252150000Y-229450000D02*
X253300000Y-229450000D01*
X206150000Y-153450000D02*
X207300000Y-153450000D01*
X252150000Y-153450000D02*
X253300000Y-153450000D01*
X252150000Y-77450000D02*
X253300000Y-77450000D01*
X206150000Y-77450000D02*
X207300000Y-77450000D01*
X211650000Y-217300000D02*
X206100000Y-217300000D01*
X257650000Y-217300000D02*
X252100000Y-217300000D01*
X211650000Y-141300000D02*
X206100000Y-141300000D01*
X257650000Y-141300000D02*
X252100000Y-141300000D01*
X211650000Y-65300000D02*
X206100000Y-65300000D01*
X257650000Y-65300000D02*
X252100000Y-65300000D01*
X191850000Y-233950000D02*
X191950000Y-234000000D01*
X237850000Y-233950000D02*
X237950000Y-234000000D01*
X191850000Y-157950000D02*
X191950000Y-158000000D01*
X237850000Y-157950000D02*
X237950000Y-158000000D01*
X191850000Y-81950000D02*
X191950000Y-82000000D01*
X237850000Y-81950000D02*
X237950000Y-82000000D01*
X192850000Y-210550000D02*
X196250000Y-210550000D01*
X238850000Y-210550000D02*
X242250000Y-210550000D01*
X192850000Y-134550000D02*
X196250000Y-134550000D01*
X238850000Y-134550000D02*
X242250000Y-134550000D01*
X192850000Y-58550000D02*
X196250000Y-58550000D01*
X238850000Y-58550000D02*
X242250000Y-58550000D01*
X191800000Y-234000000D02*
X195100000Y-234000000D01*
X237800000Y-234000000D02*
X241100000Y-234000000D01*
X191800000Y-158000000D02*
X195100000Y-158000000D01*
X237800000Y-158000000D02*
X241100000Y-158000000D01*
X191800000Y-82000000D02*
X195100000Y-82000000D01*
X237800000Y-82000000D02*
X241100000Y-82000000D01*
X193700000Y-236700000D02*
X197100000Y-236700000D01*
X239700000Y-236700000D02*
X243100000Y-236700000D01*
X193700000Y-160700000D02*
X197100000Y-160700000D01*
X239700000Y-160700000D02*
X243100000Y-160700000D01*
X193700000Y-84700000D02*
X197100000Y-84700000D01*
X239700000Y-84700000D02*
X243100000Y-84700000D01*
X203200000Y-230600000D02*
X204350000Y-229450000D01*
X249200000Y-230600000D02*
X250350000Y-229450000D01*
X203200000Y-154600000D02*
X204350000Y-153450000D01*
X249200000Y-154600000D02*
X250350000Y-153450000D01*
X203200000Y-78600000D02*
X204350000Y-77450000D01*
X249200000Y-78600000D02*
X250350000Y-77450000D01*
X186000000Y-233950000D02*
X191850000Y-233950000D01*
X232000000Y-233950000D02*
X237850000Y-233950000D01*
X186000000Y-157950000D02*
X191850000Y-157950000D01*
X232000000Y-157950000D02*
X237850000Y-157950000D01*
X186000000Y-81950000D02*
X191850000Y-81950000D01*
X232000000Y-81950000D02*
X237850000Y-81950000D01*
X189350000Y-234850000D02*
X185900000Y-234850000D01*
X235350000Y-234850000D02*
X231900000Y-234850000D01*
X189350000Y-158850000D02*
X185900000Y-158850000D01*
X235350000Y-158850000D02*
X231900000Y-158850000D01*
X189350000Y-82850000D02*
X185900000Y-82850000D01*
X235350000Y-82850000D02*
X231900000Y-82850000D01*
X206200000Y-228400000D02*
X203350000Y-228400000D01*
X252200000Y-228400000D02*
X249350000Y-228400000D01*
X206200000Y-152400000D02*
X203350000Y-152400000D01*
X252200000Y-152400000D02*
X249350000Y-152400000D01*
X206200000Y-76400000D02*
X203350000Y-76400000D01*
X252200000Y-76400000D02*
X249350000Y-76400000D01*
X203350000Y-228400000D02*
X196400000Y-235350000D01*
X249350000Y-228400000D02*
X242400000Y-235350000D01*
X203350000Y-152400000D02*
X196400000Y-159350000D01*
X249350000Y-152400000D02*
X242400000Y-159350000D01*
X203350000Y-76400000D02*
X196400000Y-83350000D01*
X249350000Y-76400000D02*
X242400000Y-83350000D01*
X201350000Y-217750000D02*
X195400000Y-211800000D01*
X247350000Y-217750000D02*
X241400000Y-211800000D01*
X201350000Y-141750000D02*
X195400000Y-135800000D01*
X247350000Y-141750000D02*
X241400000Y-135800000D01*
X201350000Y-65750000D02*
X195400000Y-59800000D01*
X247350000Y-65750000D02*
X241400000Y-59800000D01*
X207350000Y-229450000D02*
X211350000Y-229450000D01*
X253350000Y-229450000D02*
X257350000Y-229450000D01*
X253350000Y-77450000D02*
X257350000Y-77450000D01*
X207350000Y-153450000D02*
X211350000Y-153450000D01*
X253350000Y-153450000D02*
X257350000Y-153450000D01*
X207350000Y-77450000D02*
X211350000Y-77450000D01*
X195400000Y-211800000D02*
X192900000Y-211800000D01*
X241400000Y-211800000D02*
X238900000Y-211800000D01*
X241400000Y-59800000D02*
X238900000Y-59800000D01*
X195400000Y-135800000D02*
X192900000Y-135800000D01*
X241400000Y-135800000D02*
X238900000Y-135800000D01*
X195400000Y-59800000D02*
X192900000Y-59800000D01*
X202250000Y-226850000D02*
X202250000Y-226650000D01*
X248250000Y-226850000D02*
X248250000Y-226650000D01*
X248250000Y-74850000D02*
X248250000Y-74650000D01*
X202250000Y-150850000D02*
X202250000Y-150650000D01*
X248250000Y-150850000D02*
X248250000Y-150650000D01*
X202250000Y-74850000D02*
X202250000Y-74650000D01*
X197000000Y-209200000D02*
X187800000Y-209200000D01*
X243000000Y-209200000D02*
X233800000Y-209200000D01*
X243000000Y-57200000D02*
X233800000Y-57200000D01*
X197000000Y-133200000D02*
X187800000Y-133200000D01*
X243000000Y-133200000D02*
X233800000Y-133200000D01*
X197000000Y-57200000D02*
X187800000Y-57200000D01*
X196400000Y-235350000D02*
X189850000Y-235350000D01*
X242400000Y-235350000D02*
X235850000Y-235350000D01*
X242400000Y-83350000D02*
X235850000Y-83350000D01*
X196400000Y-159350000D02*
X189850000Y-159350000D01*
X242400000Y-159350000D02*
X235850000Y-159350000D01*
X196400000Y-83350000D02*
X189850000Y-83350000D01*
X189850000Y-235350000D02*
X189350000Y-234850000D01*
X235850000Y-235350000D02*
X235350000Y-234850000D01*
X235850000Y-83350000D02*
X235350000Y-82850000D01*
X189850000Y-159350000D02*
X189350000Y-158850000D01*
X235850000Y-159350000D02*
X235350000Y-158850000D01*
X189850000Y-83350000D02*
X189350000Y-82850000D01*
X205100000Y-217300000D02*
X197000000Y-209200000D01*
X251100000Y-217300000D02*
X243000000Y-209200000D01*
X205100000Y-141300000D02*
X197000000Y-133200000D01*
X251100000Y-141300000D02*
X243000000Y-133200000D01*
X205100000Y-65300000D02*
X197000000Y-57200000D01*
X251100000Y-65300000D02*
X243000000Y-57200000D01*
X196250000Y-210550000D02*
X204300000Y-218600000D01*
X242250000Y-210550000D02*
X250300000Y-218600000D01*
X196250000Y-134550000D02*
X204300000Y-142600000D01*
X242250000Y-134550000D02*
X250300000Y-142600000D01*
X196250000Y-58550000D02*
X204300000Y-66600000D01*
X242250000Y-58550000D02*
X250300000Y-66600000D01*
X197100000Y-236700000D02*
X200100000Y-233700000D01*
X243100000Y-236700000D02*
X246100000Y-233700000D01*
X197100000Y-160700000D02*
X200100000Y-157700000D01*
X243100000Y-160700000D02*
X246100000Y-157700000D01*
X197100000Y-84700000D02*
X200100000Y-81700000D01*
X243100000Y-84700000D02*
X246100000Y-81700000D01*
X195100000Y-234000000D02*
X202250000Y-226850000D01*
X241100000Y-234000000D02*
X248250000Y-226850000D01*
X195100000Y-158000000D02*
X202250000Y-150850000D01*
X241100000Y-158000000D02*
X248250000Y-150850000D01*
X195100000Y-82000000D02*
X202250000Y-74850000D01*
X241100000Y-82000000D02*
X248250000Y-74850000D01*
X190200000Y-236700000D02*
X193700000Y-236700000D01*
X236200000Y-236700000D02*
X239700000Y-236700000D01*
X190200000Y-160700000D02*
X193700000Y-160700000D01*
X236200000Y-160700000D02*
X239700000Y-160700000D01*
X190200000Y-84700000D02*
X193700000Y-84700000D01*
X236200000Y-84700000D02*
X239700000Y-84700000D01*
X211350000Y-229450000D02*
X211800000Y-229900000D01*
X257350000Y-229450000D02*
X257800000Y-229900000D01*
X211350000Y-153450000D02*
X211800000Y-153900000D01*
X257350000Y-153450000D02*
X257800000Y-153900000D01*
X211350000Y-77450000D02*
X211800000Y-77900000D01*
X257350000Y-77450000D02*
X257800000Y-77900000D01*
X204350000Y-229450000D02*
X206150000Y-229450000D01*
X250350000Y-229450000D02*
X252150000Y-229450000D01*
X204350000Y-153450000D02*
X206150000Y-153450000D01*
X250350000Y-153450000D02*
X252150000Y-153450000D01*
X250350000Y-77450000D02*
X252150000Y-77450000D01*
X204350000Y-77450000D02*
X206150000Y-77450000D01*
X204300000Y-218600000D02*
X206200000Y-218600000D01*
X250300000Y-218600000D02*
X252200000Y-218600000D01*
X204300000Y-142600000D02*
X206200000Y-142600000D01*
X250300000Y-142600000D02*
X252200000Y-142600000D01*
X204300000Y-66600000D02*
X206200000Y-66600000D01*
X250300000Y-66600000D02*
X252200000Y-66600000D01*
X206100000Y-217300000D02*
X205100000Y-217300000D01*
X252100000Y-217300000D02*
X251100000Y-217300000D01*
X206100000Y-141300000D02*
X205100000Y-141300000D01*
X252100000Y-141300000D02*
X251100000Y-141300000D01*
X206100000Y-65300000D02*
X205100000Y-65300000D01*
X252100000Y-65300000D02*
X251100000Y-65300000D01*
D11*
%TO.C,H201*%
X88600000Y-123050000D03*
X89302944Y-121352944D03*
X89302944Y-124747056D03*
X91000000Y-120650000D03*
D12*
X91000000Y-123050000D03*
D11*
X91000000Y-125450000D03*
X92697056Y-121352944D03*
X92697056Y-124747056D03*
X93400000Y-123050000D03*
%TD*%
%TO.C,H201*%
X88600000Y-199050000D03*
X89302944Y-197352944D03*
X89302944Y-200747056D03*
X91000000Y-196650000D03*
D12*
X91000000Y-199050000D03*
D11*
X91000000Y-201450000D03*
X92697056Y-197352944D03*
X92697056Y-200747056D03*
X93400000Y-199050000D03*
%TD*%
%TO.C,H201*%
X88600000Y-47050000D03*
X89302944Y-45352944D03*
X89302944Y-48747056D03*
X91000000Y-44650000D03*
D12*
X91000000Y-47050000D03*
D11*
X91000000Y-49450000D03*
X92697056Y-45352944D03*
X92697056Y-48747056D03*
X93400000Y-47050000D03*
%TD*%
%TO.C,H202*%
X40600000Y-171050000D03*
X41302944Y-169352944D03*
X41302944Y-172747056D03*
X43000000Y-168650000D03*
D12*
X43000000Y-171050000D03*
D11*
X43000000Y-173450000D03*
X44697056Y-169352944D03*
X44697056Y-172747056D03*
X45400000Y-171050000D03*
%TD*%
%TO.C,H202*%
X40600000Y-247050000D03*
X41302944Y-245352944D03*
X41302944Y-248747056D03*
X43000000Y-244650000D03*
D12*
X43000000Y-247050000D03*
D11*
X43000000Y-249450000D03*
X44697056Y-245352944D03*
X44697056Y-248747056D03*
X45400000Y-247050000D03*
%TD*%
%TO.C,H202*%
X40600000Y-95050000D03*
X41302944Y-93352944D03*
X41302944Y-96747056D03*
X43000000Y-92650000D03*
D12*
X43000000Y-95050000D03*
D11*
X43000000Y-97450000D03*
X44697056Y-93352944D03*
X44697056Y-96747056D03*
X45400000Y-95050000D03*
%TD*%
D13*
%TO.C,J206*%
X92000000Y-137950000D03*
D14*
X92000000Y-131950000D03*
D15*
X91275000Y-139270000D03*
X95100000Y-139270000D03*
X91275000Y-130630000D03*
X95100000Y-130630000D03*
%TD*%
D13*
%TO.C,J206*%
X92000000Y-213950000D03*
D14*
X92000000Y-207950000D03*
D15*
X91275000Y-215270000D03*
X95100000Y-215270000D03*
X91275000Y-206630000D03*
X95100000Y-206630000D03*
%TD*%
D13*
%TO.C,J206*%
X92000000Y-61950000D03*
D14*
X92000000Y-55950000D03*
D15*
X91275000Y-63270000D03*
X95100000Y-63270000D03*
X91275000Y-54630000D03*
X95100000Y-54630000D03*
%TD*%
D16*
%TO.C,REF\u002A\u002A*%
X37000000Y-110200000D03*
%TD*%
%TO.C,REF\u002A\u002A*%
X61551000Y-193000000D03*
%TD*%
%TO.C,REF\u002A\u002A*%
X37000000Y-162500000D03*
%TD*%
%TO.C,REF\u002A\u002A*%
X37000000Y-54562001D03*
%TD*%
%TO.C,REF\u002A\u002A*%
X97000000Y-263166666D03*
%TD*%
%TO.C,REF\u002A\u002A*%
X97000000Y-135916999D03*
%TD*%
%TO.C,REF\u002A\u002A*%
X97000000Y-32500000D03*
%TD*%
%TO.C,REF\u002A\u002A*%
X37000000Y-31666667D03*
%TD*%
%TO.C,REF\u002A\u002A*%
X77233999Y-177000000D03*
%TD*%
%TO.C,REF\u002A\u002A*%
X37000000Y-86500000D03*
%TD*%
%TO.C,REF\u002A\u002A*%
X57883001Y-101000000D03*
%TD*%
%TO.C,REF\u002A\u002A*%
X37000000Y-147875499D03*
%TD*%
%TO.C,REF\u002A\u002A*%
X37000000Y-129686500D03*
%TD*%
%TO.C,REF\u002A\u002A*%
X97000000Y-35000000D03*
%TD*%
%TO.C,REF\u002A\u002A*%
X97000000Y-110200000D03*
%TD*%
%TO.C,REF\u002A\u002A*%
X97000000Y-159500999D03*
%TD*%
%TO.C,REF\u002A\u002A*%
X97000000Y-107000000D03*
%TD*%
%TO.C,REF\u002A\u002A*%
X37000000Y-209188499D03*
%TD*%
%TO.C,REF\u002A\u002A*%
X76316999Y-117000000D03*
%TD*%
%TO.C,REF\u002A\u002A*%
X37000000Y-187000000D03*
%TD*%
%TO.C,REF\u002A\u002A*%
X77233999Y-41000000D03*
%TD*%
%TO.C,REF\u002A\u002A*%
X75400000Y-253000000D03*
%TD*%
%TO.C,REF\u002A\u002A*%
X97000000Y-185400000D03*
%TD*%
%TO.C,REF\u002A\u002A*%
X97000000Y-210083000D03*
%TD*%
%TO.C,REF\u002A\u002A*%
X60634000Y-101000000D03*
%TD*%
D17*
%TO.C,J203*%
X57000000Y-162200000D03*
D18*
X57000000Y-163470000D03*
X57000000Y-164740000D03*
X57000000Y-166010000D03*
%TD*%
D17*
%TO.C,J203*%
X57000000Y-238200000D03*
D18*
X57000000Y-239470000D03*
X57000000Y-240740000D03*
X57000000Y-242010000D03*
%TD*%
D17*
%TO.C,J203*%
X57000000Y-86200000D03*
D18*
X57000000Y-87470000D03*
X57000000Y-88740000D03*
X57000000Y-90010000D03*
%TD*%
D16*
%TO.C,REF\u002A\u002A*%
X37000000Y-160749000D03*
%TD*%
%TO.C,REF\u002A\u002A*%
X37000000Y-30833334D03*
%TD*%
%TO.C,REF\u002A\u002A*%
X37000000Y-223000000D03*
%TD*%
%TO.C,REF\u002A\u002A*%
X72649000Y-41000000D03*
%TD*%
%TO.C,REF\u002A\u002A*%
X37000000Y-207437500D03*
%TD*%
%TO.C,REF\u002A\u002A*%
X37000000Y-107000000D03*
%TD*%
%TO.C,REF\u002A\u002A*%
X58800000Y-101000000D03*
%TD*%
%TO.C,REF\u002A\u002A*%
X57883001Y-177000000D03*
%TD*%
%TO.C,REF\u002A\u002A*%
X97000000Y-211916999D03*
%TD*%
%TO.C,REF\u002A\u002A*%
X97000000Y-186200000D03*
%TD*%
%TO.C,REF\u002A\u002A*%
X37000000Y-221249000D03*
%TD*%
%TO.C,REF\u002A\u002A*%
X37000000Y-88250999D03*
%TD*%
%TO.C,REF\u002A\u002A*%
X74483000Y-193000000D03*
%TD*%
%TO.C,REF\u002A\u002A*%
X57883001Y-41000000D03*
%TD*%
%TO.C,REF\u002A\u002A*%
X97000000Y-82583999D03*
%TD*%
%TO.C,REF\u002A\u002A*%
X76316999Y-177000000D03*
%TD*%
%TO.C,REF\u002A\u002A*%
X37000000Y-183000000D03*
%TD*%
%TO.C,REF\u002A\u002A*%
X97000000Y-56249001D03*
%TD*%
%TO.C,REF\u002A\u002A*%
X56049001Y-193000000D03*
%TD*%
%TO.C,REF\u002A\u002A*%
X37000000Y-69249001D03*
%TD*%
%TO.C,REF\u002A\u002A*%
X97000000Y-111000000D03*
%TD*%
%TO.C,REF\u002A\u002A*%
X97000000Y-235500999D03*
%TD*%
%TO.C,REF\u002A\u002A*%
X97000000Y-59917000D03*
%TD*%
%TO.C,REF\u002A\u002A*%
X97000000Y-211000000D03*
%TD*%
%TO.C,REF\u002A\u002A*%
X58800000Y-177000000D03*
%TD*%
%TO.C,REF\u002A\u002A*%
X37000000Y-109400000D03*
%TD*%
%TO.C,REF\u002A\u002A*%
X60634000Y-253000000D03*
%TD*%
%TO.C,REF\u002A\u002A*%
X78150999Y-177000000D03*
%TD*%
%TO.C,REF\u002A\u002A*%
X97000000Y-209166000D03*
%TD*%
%TO.C,REF\u002A\u002A*%
X97000000Y-80750000D03*
%TD*%
%TO.C,REF\u002A\u002A*%
X58800000Y-193000000D03*
%TD*%
%TO.C,REF\u002A\u002A*%
X56966001Y-253000000D03*
%TD*%
%TO.C,REF\u002A\u002A*%
X76316999Y-101000000D03*
%TD*%
%TO.C,REF\u002A\u002A*%
X77233999Y-193000000D03*
%TD*%
%TO.C,REF\u002A\u002A*%
X97000000Y-133166000D03*
%TD*%
%TO.C,REF\u002A\u002A*%
X72649000Y-117000000D03*
%TD*%
%TO.C,REF\u002A\u002A*%
X59717000Y-193000000D03*
%TD*%
%TO.C,REF\u002A\u002A*%
X37000000Y-259833333D03*
%TD*%
%TO.C,REF\u002A\u002A*%
X73566000Y-101000000D03*
%TD*%
%TO.C,REF\u002A\u002A*%
X37000000Y-133188499D03*
%TD*%
%TO.C,REF\u002A\u002A*%
X61551000Y-117000000D03*
%TD*%
%TO.C,REF\u002A\u002A*%
X77233999Y-101000000D03*
%TD*%
%TO.C,REF\u002A\u002A*%
X72649000Y-193000000D03*
%TD*%
%TO.C,REF\u002A\u002A*%
X37000000Y-259000000D03*
%TD*%
%TO.C,REF\u002A\u002A*%
X56049001Y-177000000D03*
%TD*%
%TO.C,REF\u002A\u002A*%
X97000000Y-33333334D03*
%TD*%
%TO.C,REF\u002A\u002A*%
X37000000Y-260666666D03*
%TD*%
%TO.C,REF\u002A\u002A*%
X37000000Y-163375499D03*
%TD*%
%TO.C,REF\u002A\u002A*%
X73566000Y-41000000D03*
%TD*%
%TO.C,REF\u002A\u002A*%
X75400000Y-177000000D03*
%TD*%
%TO.C,REF\u002A\u002A*%
X37000000Y-264000000D03*
%TD*%
%TO.C,REF\u002A\u002A*%
X78150999Y-101000000D03*
%TD*%
%TO.C,REF\u002A\u002A*%
X58800000Y-253000000D03*
%TD*%
%TO.C,REF\u002A\u002A*%
X37000000Y-205686500D03*
%TD*%
%TO.C,REF\u002A\u002A*%
X76316999Y-193000000D03*
%TD*%
%TO.C,REF\u002A\u002A*%
X56966001Y-177000000D03*
%TD*%
%TO.C,REF\u002A\u002A*%
X72649000Y-177000000D03*
%TD*%
%TO.C,REF\u002A\u002A*%
X74483000Y-177000000D03*
%TD*%
%TO.C,REF\u002A\u002A*%
X74483000Y-41000000D03*
%TD*%
%TO.C,REF\u002A\u002A*%
X97000000Y-132249000D03*
%TD*%
%TO.C,REF\u002A\u002A*%
X37000000Y-161624500D03*
%TD*%
%TO.C,REF\u002A\u002A*%
X75400000Y-41000000D03*
%TD*%
%TO.C,REF\u002A\u002A*%
X78150999Y-41000000D03*
%TD*%
%TO.C,REF\u002A\u002A*%
X75400000Y-101000000D03*
%TD*%
%TO.C,REF\u002A\u002A*%
X37000000Y-206562000D03*
%TD*%
%TO.C,REF\u002A\u002A*%
X97000000Y-136833999D03*
%TD*%
%TO.C,REF\u002A\u002A*%
X97000000Y-156750000D03*
%TD*%
%TO.C,REF\u002A\u002A*%
X37000000Y-185400000D03*
%TD*%
%TO.C,REF\u002A\u002A*%
X37000000Y-33333334D03*
%TD*%
%TO.C,REF\u002A\u002A*%
X37000000Y-240250999D03*
%TD*%
%TO.C,REF\u002A\u002A*%
X37000000Y-70124501D03*
%TD*%
%TO.C,REF\u002A\u002A*%
X97000000Y-78916000D03*
%TD*%
%TO.C,REF\u002A\u002A*%
X97000000Y-230916000D03*
%TD*%
%TO.C,REF\u002A\u002A*%
X97000000Y-233666999D03*
%TD*%
%TO.C,REF\u002A\u002A*%
X97000000Y-57166001D03*
%TD*%
%TO.C,REF\u002A\u002A*%
X97000000Y-30833334D03*
%TD*%
%TO.C,REF\u002A\u002A*%
X78150999Y-117000000D03*
%TD*%
%TO.C,REF\u002A\u002A*%
X75400000Y-117000000D03*
%TD*%
%TO.C,REF\u002A\u002A*%
X37000000Y-56313000D03*
%TD*%
%TO.C,REF\u002A\u002A*%
X37000000Y-85624500D03*
%TD*%
%TO.C,REF\u002A\u002A*%
X75400000Y-193000000D03*
%TD*%
%TO.C,REF\u002A\u002A*%
X78150999Y-193000000D03*
%TD*%
%TO.C,REF\u002A\u002A*%
X97000000Y-58083001D03*
%TD*%
%TO.C,REF\u002A\u002A*%
X37000000Y-184600000D03*
%TD*%
%TO.C,REF\u002A\u002A*%
X97000000Y-30000000D03*
%TD*%
%TO.C,REF\u002A\u002A*%
X59717000Y-101000000D03*
%TD*%
%TO.C,REF\u002A\u002A*%
X37000000Y-145249000D03*
%TD*%
%TO.C,REF\u002A\u002A*%
X59717000Y-117000000D03*
%TD*%
%TO.C,REF\u002A\u002A*%
X73566000Y-117000000D03*
%TD*%
%TO.C,REF\u002A\u002A*%
X59717000Y-41000000D03*
%TD*%
%TO.C,REF\u002A\u002A*%
X37000000Y-130562000D03*
%TD*%
%TO.C,REF\u002A\u002A*%
X37000000Y-87375499D03*
%TD*%
%TO.C,REF\u002A\u002A*%
X61551000Y-177000000D03*
%TD*%
%TO.C,REF\u002A\u002A*%
X97000000Y-31666667D03*
%TD*%
%TO.C,REF\u002A\u002A*%
X60634000Y-117000000D03*
%TD*%
%TO.C,REF\u002A\u002A*%
X37000000Y-72750999D03*
%TD*%
%TO.C,REF\u002A\u002A*%
X37000000Y-108600000D03*
%TD*%
%TO.C,REF\u002A\u002A*%
X60634000Y-41000000D03*
%TD*%
%TO.C,REF\u002A\u002A*%
X56966001Y-101000000D03*
%TD*%
%TO.C,REF\u002A\u002A*%
X58800000Y-117000000D03*
%TD*%
%TO.C,REF\u002A\u002A*%
X97000000Y-234583999D03*
%TD*%
%TO.C,REF\u002A\u002A*%
X97000000Y-183800000D03*
%TD*%
%TO.C,REF\u002A\u002A*%
X59717000Y-253000000D03*
%TD*%
%TO.C,REF\u002A\u002A*%
X78150999Y-253000000D03*
%TD*%
%TO.C,REF\u002A\u002A*%
X37000000Y-30000000D03*
%TD*%
%TO.C,REF\u002A\u002A*%
X97000000Y-137750999D03*
%TD*%
%TO.C,REF\u002A\u002A*%
X72649000Y-101000000D03*
%TD*%
%TO.C,REF\u002A\u002A*%
X97000000Y-187000000D03*
%TD*%
%TO.C,REF\u002A\u002A*%
X58800000Y-41000000D03*
%TD*%
%TO.C,REF\u002A\u002A*%
X97000000Y-184600000D03*
%TD*%
%TO.C,REF\u002A\u002A*%
X97000000Y-79833000D03*
%TD*%
%TO.C,REF\u002A\u002A*%
X97000000Y-155833000D03*
%TD*%
%TO.C,REF\u002A\u002A*%
X37000000Y-148750999D03*
%TD*%
%TO.C,REF\u002A\u002A*%
X97000000Y-158583999D03*
%TD*%
%TO.C,REF\u002A\u002A*%
X60634000Y-193000000D03*
%TD*%
%TO.C,REF\u002A\u002A*%
X37000000Y-146124500D03*
%TD*%
%TO.C,REF\u002A\u002A*%
X57883001Y-117000000D03*
%TD*%
%TO.C,REF\u002A\u002A*%
X37000000Y-208312999D03*
%TD*%
%TO.C,REF\u002A\u002A*%
X37000000Y-237624500D03*
%TD*%
%TO.C,REF\u002A\u002A*%
X74483000Y-253000000D03*
%TD*%
%TO.C,REF\u002A\u002A*%
X97000000Y-212833999D03*
%TD*%
%TO.C,REF\u002A\u002A*%
X77233999Y-253000000D03*
%TD*%
%TO.C,REF\u002A\u002A*%
X37000000Y-262333333D03*
%TD*%
%TO.C,REF\u002A\u002A*%
X77233999Y-117000000D03*
%TD*%
%TO.C,REF\u002A\u002A*%
X97000000Y-60834000D03*
%TD*%
%TO.C,REF\u002A\u002A*%
X97000000Y-77999000D03*
%TD*%
%TO.C,REF\u002A\u002A*%
X97000000Y-183000000D03*
%TD*%
%TO.C,REF\u002A\u002A*%
X61551000Y-101000000D03*
%TD*%
%TO.C,REF\u002A\u002A*%
X37000000Y-71875499D03*
%TD*%
%TO.C,REF\u002A\u002A*%
X37000000Y-107800000D03*
%TD*%
%TO.C,REF\u002A\u002A*%
X76316999Y-253000000D03*
%TD*%
%TO.C,REF\u002A\u002A*%
X37000000Y-183800000D03*
%TD*%
%TO.C,REF\u002A\u002A*%
X37000000Y-236749000D03*
%TD*%
%TO.C,REF\u002A\u002A*%
X97000000Y-61751000D03*
%TD*%
%TO.C,REF\u002A\u002A*%
X97000000Y-231833000D03*
%TD*%
%TO.C,REF\u002A\u002A*%
X60634000Y-177000000D03*
%TD*%
%TO.C,REF\u002A\u002A*%
X97000000Y-260666666D03*
%TD*%
%TO.C,REF\u002A\u002A*%
X73566000Y-253000000D03*
%TD*%
%TO.C,REF\u002A\u002A*%
X57883001Y-193000000D03*
%TD*%
%TO.C,REF\u002A\u002A*%
X56049001Y-253000000D03*
%TD*%
%TO.C,REF\u002A\u002A*%
X37000000Y-222124500D03*
%TD*%
%TO.C,REF\u002A\u002A*%
X37000000Y-238500000D03*
%TD*%
%TO.C,REF\u002A\u002A*%
X37000000Y-186200000D03*
%TD*%
%TO.C,REF\u002A\u002A*%
X97000000Y-154916000D03*
%TD*%
%TO.C,REF\u002A\u002A*%
X61551000Y-253000000D03*
%TD*%
%TO.C,REF\u002A\u002A*%
X97000000Y-108600000D03*
%TD*%
%TO.C,REF\u002A\u002A*%
X97000000Y-34166667D03*
%TD*%
%TO.C,REF\u002A\u002A*%
X97000000Y-134083000D03*
%TD*%
%TO.C,REF\u002A\u002A*%
X37000000Y-71000000D03*
%TD*%
%TO.C,REF\u002A\u002A*%
X37000000Y-55437500D03*
%TD*%
%TO.C,REF\u002A\u002A*%
X97000000Y-264000000D03*
%TD*%
%TO.C,REF\u002A\u002A*%
X97000000Y-109400000D03*
%TD*%
%TO.C,REF\u002A\u002A*%
X56049001Y-117000000D03*
%TD*%
%TO.C,REF\u002A\u002A*%
X37000000Y-239375499D03*
%TD*%
%TO.C,REF\u002A\u002A*%
X37000000Y-84749000D03*
%TD*%
%TO.C,REF\u002A\u002A*%
X97000000Y-213750999D03*
%TD*%
%TO.C,REF\u002A\u002A*%
X97000000Y-232750000D03*
%TD*%
%TO.C,REF\u002A\u002A*%
X37000000Y-53686501D03*
%TD*%
%TO.C,REF\u002A\u002A*%
X97000000Y-81666999D03*
%TD*%
%TO.C,REF\u002A\u002A*%
X37000000Y-131437500D03*
%TD*%
%TO.C,REF\u002A\u002A*%
X37000000Y-261500000D03*
%TD*%
%TO.C,REF\u002A\u002A*%
X97000000Y-229999000D03*
%TD*%
%TO.C,REF\u002A\u002A*%
X61551000Y-41000000D03*
%TD*%
%TO.C,REF\u002A\u002A*%
X37000000Y-111000000D03*
%TD*%
%TO.C,REF\u002A\u002A*%
X97000000Y-153999000D03*
%TD*%
%TO.C,REF\u002A\u002A*%
X74483000Y-101000000D03*
%TD*%
%TO.C,REF\u002A\u002A*%
X97000000Y-262333333D03*
%TD*%
%TO.C,REF\u002A\u002A*%
X97000000Y-259833333D03*
%TD*%
%TO.C,REF\u002A\u002A*%
X37000000Y-34166667D03*
%TD*%
%TO.C,REF\u002A\u002A*%
X73566000Y-177000000D03*
%TD*%
%TO.C,REF\u002A\u002A*%
X37000000Y-263166666D03*
%TD*%
%TO.C,REF\u002A\u002A*%
X97000000Y-135000000D03*
%TD*%
%TO.C,REF\u002A\u002A*%
X97000000Y-157666999D03*
%TD*%
%TO.C,REF\u002A\u002A*%
X37000000Y-224750999D03*
%TD*%
%TO.C,REF\u002A\u002A*%
X72649000Y-253000000D03*
%TD*%
%TO.C,REF\u002A\u002A*%
X37000000Y-57188500D03*
%TD*%
%TO.C,REF\u002A\u002A*%
X56966001Y-41000000D03*
%TD*%
%TO.C,REF\u002A\u002A*%
X37000000Y-132312999D03*
%TD*%
%TO.C,REF\u002A\u002A*%
X57883001Y-253000000D03*
%TD*%
%TO.C,REF\u002A\u002A*%
X56966001Y-193000000D03*
%TD*%
%TO.C,REF\u002A\u002A*%
X74483000Y-117000000D03*
%TD*%
%TO.C,REF\u002A\u002A*%
X37000000Y-164250999D03*
%TD*%
%TO.C,REF\u002A\u002A*%
X73566000Y-193000000D03*
%TD*%
%TO.C,REF\u002A\u002A*%
X97000000Y-107800000D03*
%TD*%
%TO.C,REF\u002A\u002A*%
X56049001Y-41000000D03*
%TD*%
%TO.C,REF\u002A\u002A*%
X37000000Y-35000000D03*
%TD*%
%TO.C,REF\u002A\u002A*%
X56049001Y-101000000D03*
%TD*%
%TO.C,REF\u002A\u002A*%
X97000000Y-208249000D03*
%TD*%
%TO.C,REF\u002A\u002A*%
X97000000Y-261500000D03*
%TD*%
%TO.C,REF\u002A\u002A*%
X59717000Y-177000000D03*
%TD*%
%TO.C,REF\u002A\u002A*%
X97000000Y-59000000D03*
%TD*%
%TO.C,REF\u002A\u002A*%
X37000000Y-32500000D03*
%TD*%
%TO.C,REF\u002A\u002A*%
X37000000Y-147000000D03*
%TD*%
%TO.C,REF\u002A\u002A*%
X97000000Y-83500999D03*
%TD*%
%TO.C,REF\u002A\u002A*%
X76316999Y-41000000D03*
%TD*%
%TO.C,REF\u002A\u002A*%
X56966001Y-117000000D03*
%TD*%
%TO.C,REF\u002A\u002A*%
X37000000Y-223875499D03*
%TD*%
%TO.C,REF\u002A\u002A*%
X97000000Y-259000000D03*
%TD*%
D19*
%TO.C,TP902*%
X95200000Y-141500000D03*
%TD*%
%TO.C,TP902*%
X95200000Y-217500000D03*
%TD*%
%TO.C,TP902*%
X95200000Y-65500000D03*
%TD*%
D20*
%TO.C,JP401*%
X80700000Y-120550000D03*
D21*
X80700000Y-121850000D03*
D22*
X80700000Y-123150000D03*
%TD*%
D20*
%TO.C,JP401*%
X80700000Y-44550000D03*
D21*
X80700000Y-45850000D03*
D22*
X80700000Y-47150000D03*
%TD*%
D20*
%TO.C,JP401*%
X80700000Y-196550000D03*
D21*
X80700000Y-197850000D03*
D22*
X80700000Y-199150000D03*
%TD*%
D20*
%TO.C,JP402*%
X78500000Y-120550000D03*
D21*
X78500000Y-121850000D03*
D22*
X78500000Y-123150000D03*
%TD*%
D20*
%TO.C,JP402*%
X78500000Y-196550000D03*
D21*
X78500000Y-197850000D03*
D22*
X78500000Y-199150000D03*
%TD*%
D20*
%TO.C,JP402*%
X78500000Y-44550000D03*
D21*
X78500000Y-45850000D03*
D22*
X78500000Y-47150000D03*
%TD*%
D19*
%TO.C,TP406*%
X55075000Y-162175000D03*
%TD*%
%TO.C,TP406*%
X55075000Y-238175000D03*
%TD*%
%TO.C,TP406*%
X55075000Y-86175000D03*
%TD*%
%TO.C,TP407*%
X55075000Y-160025000D03*
%TD*%
%TO.C,TP407*%
X55075000Y-236025000D03*
%TD*%
%TO.C,TP407*%
X55075000Y-84025000D03*
%TD*%
%TO.C,TP904*%
X88200000Y-118600000D03*
%TD*%
%TO.C,TP904*%
X88200000Y-194600000D03*
%TD*%
%TO.C,TP904*%
X88200000Y-42600000D03*
%TD*%
D23*
%TO.C,J202*%
X57480000Y-173740000D03*
D24*
X57480000Y-171200000D03*
D23*
X57480000Y-168660000D03*
X49225000Y-173740000D03*
X49225000Y-168660000D03*
D24*
X47320000Y-172216000D03*
X47320000Y-170184000D03*
D25*
X56210000Y-171835000D03*
X54940000Y-171835000D03*
X53670000Y-171835000D03*
X52400000Y-171835000D03*
X51130000Y-171835000D03*
X49860000Y-171835000D03*
X48590000Y-171835000D03*
X48590000Y-170565000D03*
X49860000Y-170565000D03*
X51130000Y-170565000D03*
X52400000Y-170565000D03*
X53670000Y-170565000D03*
X54940000Y-170565000D03*
X56210000Y-170565000D03*
%TD*%
D23*
%TO.C,J202*%
X57480000Y-249740000D03*
D24*
X57480000Y-247200000D03*
D23*
X57480000Y-244660000D03*
X49225000Y-249740000D03*
X49225000Y-244660000D03*
D24*
X47320000Y-248216000D03*
X47320000Y-246184000D03*
D25*
X56210000Y-247835000D03*
X54940000Y-247835000D03*
X53670000Y-247835000D03*
X52400000Y-247835000D03*
X51130000Y-247835000D03*
X49860000Y-247835000D03*
X48590000Y-247835000D03*
X48590000Y-246565000D03*
X49860000Y-246565000D03*
X51130000Y-246565000D03*
X52400000Y-246565000D03*
X53670000Y-246565000D03*
X54940000Y-246565000D03*
X56210000Y-246565000D03*
%TD*%
D23*
%TO.C,J202*%
X57480000Y-97740000D03*
D24*
X57480000Y-95200000D03*
D23*
X57480000Y-92660000D03*
X49225000Y-97740000D03*
X49225000Y-92660000D03*
D24*
X47320000Y-96216000D03*
X47320000Y-94184000D03*
D25*
X56210000Y-95835000D03*
X54940000Y-95835000D03*
X53670000Y-95835000D03*
X52400000Y-95835000D03*
X51130000Y-95835000D03*
X49860000Y-95835000D03*
X48590000Y-95835000D03*
X48590000Y-94565000D03*
X49860000Y-94565000D03*
X51130000Y-94565000D03*
X52400000Y-94565000D03*
X53670000Y-94565000D03*
X54940000Y-94565000D03*
X56210000Y-94565000D03*
%TD*%
D20*
%TO.C,JP1401*%
X68400000Y-158300000D03*
D21*
X68400000Y-159600000D03*
D22*
X68400000Y-160900000D03*
%TD*%
D20*
%TO.C,JP1401*%
X68400000Y-234300000D03*
D21*
X68400000Y-235600000D03*
D22*
X68400000Y-236900000D03*
%TD*%
D20*
%TO.C,JP1401*%
X68400000Y-82300000D03*
D21*
X68400000Y-83600000D03*
D22*
X68400000Y-84900000D03*
%TD*%
D19*
%TO.C,TP903*%
X79600000Y-232900000D03*
%TD*%
%TO.C,TP903*%
X79600000Y-156900000D03*
%TD*%
%TO.C,TP903*%
X79600000Y-80900000D03*
%TD*%
D26*
%TO.C,J303*%
X109000000Y-217425000D03*
D27*
X109000000Y-219965000D03*
X109000000Y-222505000D03*
X109000000Y-225045000D03*
X109000000Y-227585000D03*
%TD*%
D26*
%TO.C,J303*%
X109000000Y-65425000D03*
D27*
X109000000Y-67965000D03*
X109000000Y-70505000D03*
X109000000Y-73045000D03*
X109000000Y-75585000D03*
%TD*%
D26*
%TO.C,J303*%
X109000000Y-141425000D03*
D27*
X109000000Y-143965000D03*
X109000000Y-146505000D03*
X109000000Y-149045000D03*
X109000000Y-151585000D03*
%TD*%
D11*
%TO.C,H301*%
X162400000Y-199000000D03*
X161697056Y-200697056D03*
X161697056Y-197302944D03*
X160000000Y-201400000D03*
D12*
X160000000Y-199000000D03*
D11*
X160000000Y-196600000D03*
X158302944Y-200697056D03*
X158302944Y-197302944D03*
X157600000Y-199000000D03*
%TD*%
%TO.C,H301*%
X162400000Y-47000000D03*
X161697056Y-48697056D03*
X161697056Y-45302944D03*
X160000000Y-49400000D03*
D12*
X160000000Y-47000000D03*
D11*
X160000000Y-44600000D03*
X158302944Y-48697056D03*
X158302944Y-45302944D03*
X157600000Y-47000000D03*
%TD*%
%TO.C,H301*%
X162400000Y-123000000D03*
X161697056Y-124697056D03*
X161697056Y-121302944D03*
X160000000Y-125400000D03*
D12*
X160000000Y-123000000D03*
D11*
X160000000Y-120600000D03*
X158302944Y-124697056D03*
X158302944Y-121302944D03*
X157600000Y-123000000D03*
%TD*%
%TO.C,H303*%
X162400000Y-95000000D03*
X161697056Y-96697056D03*
X161697056Y-93302944D03*
X160000000Y-97400000D03*
D12*
X160000000Y-95000000D03*
D11*
X160000000Y-92600000D03*
X158302944Y-96697056D03*
X158302944Y-93302944D03*
X157600000Y-95000000D03*
%TD*%
%TO.C,H303*%
X162400000Y-171000000D03*
X161697056Y-172697056D03*
X161697056Y-169302944D03*
X160000000Y-173400000D03*
D12*
X160000000Y-171000000D03*
D11*
X160000000Y-168600000D03*
X158302944Y-172697056D03*
X158302944Y-169302944D03*
X157600000Y-171000000D03*
%TD*%
%TO.C,H303*%
X162400000Y-247000000D03*
X161697056Y-248697056D03*
X161697056Y-245302944D03*
X160000000Y-249400000D03*
D12*
X160000000Y-247000000D03*
D11*
X160000000Y-244600000D03*
X158302944Y-248697056D03*
X158302944Y-245302944D03*
X157600000Y-247000000D03*
%TD*%
%TO.C,H304*%
X114400000Y-247000000D03*
X113697056Y-248697056D03*
X113697056Y-245302944D03*
X112000000Y-249400000D03*
D12*
X112000000Y-247000000D03*
D11*
X112000000Y-244600000D03*
X110302944Y-248697056D03*
X110302944Y-245302944D03*
X109600000Y-247000000D03*
%TD*%
%TO.C,H304*%
X114400000Y-95000000D03*
X113697056Y-96697056D03*
X113697056Y-93302944D03*
X112000000Y-97400000D03*
D12*
X112000000Y-95000000D03*
D11*
X112000000Y-92600000D03*
X110302944Y-96697056D03*
X110302944Y-93302944D03*
X109600000Y-95000000D03*
%TD*%
%TO.C,H304*%
X114400000Y-171000000D03*
X113697056Y-172697056D03*
X113697056Y-169302944D03*
X112000000Y-173400000D03*
D12*
X112000000Y-171000000D03*
D11*
X112000000Y-168600000D03*
X110302944Y-172697056D03*
X110302944Y-169302944D03*
X109600000Y-171000000D03*
%TD*%
%TO.C,H302*%
X114400000Y-47000000D03*
X113697056Y-48697056D03*
X113697056Y-45302944D03*
X112000000Y-49400000D03*
D12*
X112000000Y-47000000D03*
D11*
X112000000Y-44600000D03*
X110302944Y-48697056D03*
X110302944Y-45302944D03*
X109600000Y-47000000D03*
%TD*%
%TO.C,H302*%
X114400000Y-123000000D03*
X113697056Y-124697056D03*
X113697056Y-121302944D03*
X112000000Y-125400000D03*
D12*
X112000000Y-123000000D03*
D11*
X112000000Y-120600000D03*
X110302944Y-124697056D03*
X110302944Y-121302944D03*
X109600000Y-123000000D03*
%TD*%
%TO.C,H302*%
X114400000Y-199000000D03*
X113697056Y-200697056D03*
X113697056Y-197302944D03*
X112000000Y-201400000D03*
D12*
X112000000Y-199000000D03*
D11*
X112000000Y-196600000D03*
X110302944Y-200697056D03*
X110302944Y-197302944D03*
X109600000Y-199000000D03*
%TD*%
D16*
%TO.C,REF\u002A\u002A*%
X166000000Y-56313000D03*
%TD*%
%TO.C,REF\u002A\u002A*%
X106000000Y-185400000D03*
%TD*%
%TO.C,REF\u002A\u002A*%
X106000000Y-111000000D03*
%TD*%
%TO.C,REF\u002A\u002A*%
X106000000Y-34166667D03*
%TD*%
%TO.C,REF\u002A\u002A*%
X164000000Y-145249000D03*
%TD*%
%TO.C,REF\u002A\u002A*%
X147150999Y-100999999D03*
%TD*%
%TO.C,REF\u002A\u002A*%
X164000000Y-70124501D03*
%TD*%
%TO.C,REF\u002A\u002A*%
X106000000Y-71875499D03*
%TD*%
%TO.C,REF\u002A\u002A*%
X106000000Y-56313000D03*
%TD*%
%TO.C,REF\u002A\u002A*%
X106000000Y-259000000D03*
%TD*%
%TO.C,REF\u002A\u002A*%
X129634000Y-117000000D03*
%TD*%
%TO.C,REF\u002A\u002A*%
X166000000Y-53686501D03*
%TD*%
%TO.C,REF\u002A\u002A*%
X129634000Y-252999999D03*
%TD*%
%TO.C,REF\u002A\u002A*%
X106000000Y-72750999D03*
%TD*%
%TO.C,REF\u002A\u002A*%
X166000000Y-184600000D03*
%TD*%
%TO.C,REF\u002A\u002A*%
X106000000Y-240313499D03*
%TD*%
%TO.C,REF\u002A\u002A*%
X126883001Y-252999999D03*
%TD*%
%TO.C,REF\u002A\u002A*%
X166000000Y-205686500D03*
%TD*%
%TO.C,REF\u002A\u002A*%
X106000000Y-71000000D03*
%TD*%
%TO.C,REF\u002A\u002A*%
X166000000Y-236811500D03*
%TD*%
%TO.C,REF\u002A\u002A*%
X142566000Y-100999999D03*
%TD*%
%TO.C,REF\u002A\u002A*%
X106000000Y-261500000D03*
%TD*%
%TO.C,REF\u002A\u002A*%
X166000000Y-107800000D03*
%TD*%
%TO.C,REF\u002A\u002A*%
X166000000Y-54562001D03*
%TD*%
%TO.C,REF\u002A\u002A*%
X106000000Y-54562001D03*
%TD*%
%TO.C,REF\u002A\u002A*%
X143483000Y-193000000D03*
%TD*%
%TO.C,REF\u002A\u002A*%
X164000000Y-71875499D03*
%TD*%
%TO.C,REF\u002A\u002A*%
X106000000Y-236811500D03*
%TD*%
%TO.C,REF\u002A\u002A*%
X127800001Y-100999999D03*
%TD*%
%TO.C,REF\u002A\u002A*%
X125049001Y-176999998D03*
%TD*%
%TO.C,REF\u002A\u002A*%
X166000000Y-131437500D03*
%TD*%
%TO.C,REF\u002A\u002A*%
X106000000Y-260666666D03*
%TD*%
%TO.C,REF\u002A\u002A*%
X164000000Y-221249000D03*
%TD*%
%TO.C,REF\u002A\u002A*%
X125966001Y-41000000D03*
%TD*%
%TO.C,REF\u002A\u002A*%
X106000000Y-186200000D03*
%TD*%
%TO.C,REF\u002A\u002A*%
X106000000Y-206562000D03*
%TD*%
%TO.C,REF\u002A\u002A*%
X166000000Y-30000000D03*
%TD*%
%TO.C,REF\u002A\u002A*%
X106000000Y-31666667D03*
%TD*%
%TO.C,REF\u002A\u002A*%
X166000000Y-35000000D03*
%TD*%
%TO.C,REF\u002A\u002A*%
X143483000Y-252999999D03*
%TD*%
%TO.C,REF\u002A\u002A*%
X164000000Y-146124500D03*
%TD*%
%TO.C,REF\u002A\u002A*%
X166000000Y-33333334D03*
%TD*%
%TO.C,REF\u002A\u002A*%
X166000000Y-32500000D03*
%TD*%
%TO.C,REF\u002A\u002A*%
X166000000Y-31666667D03*
%TD*%
%TO.C,REF\u002A\u002A*%
X125966001Y-252999999D03*
%TD*%
%TO.C,REF\u002A\u002A*%
X166000000Y-162562500D03*
%TD*%
%TO.C,REF\u002A\u002A*%
X146233999Y-252999999D03*
%TD*%
%TO.C,REF\u002A\u002A*%
X127800001Y-252999999D03*
%TD*%
%TO.C,REF\u002A\u002A*%
X166000000Y-237687000D03*
%TD*%
%TO.C,REF\u002A\u002A*%
X143483000Y-100999999D03*
%TD*%
%TO.C,REF\u002A\u002A*%
X106000000Y-160811500D03*
%TD*%
%TO.C,REF\u002A\u002A*%
X125049001Y-252999998D03*
%TD*%
%TO.C,REF\u002A\u002A*%
X130551000Y-193000000D03*
%TD*%
%TO.C,REF\u002A\u002A*%
X145316999Y-193000000D03*
%TD*%
%TO.C,REF\u002A\u002A*%
X166000000Y-262333333D03*
%TD*%
%TO.C,REF\u002A\u002A*%
X125049001Y-193000000D03*
%TD*%
%TO.C,REF\u002A\u002A*%
X106000000Y-222124500D03*
%TD*%
%TO.C,REF\u002A\u002A*%
X146233999Y-41000000D03*
%TD*%
%TO.C,REF\u002A\u002A*%
X106000000Y-109400000D03*
%TD*%
%TO.C,REF\u002A\u002A*%
X147150999Y-193000000D03*
%TD*%
%TO.C,REF\u002A\u002A*%
X106000000Y-33333334D03*
%TD*%
%TO.C,REF\u002A\u002A*%
X106000000Y-147875499D03*
%TD*%
%TO.C,REF\u002A\u002A*%
X106000000Y-221249000D03*
%TD*%
%TO.C,REF\u002A\u002A*%
X125966001Y-117000000D03*
%TD*%
%TO.C,REF\u002A\u002A*%
X125049001Y-117000000D03*
%TD*%
%TO.C,REF\u002A\u002A*%
X106000000Y-264000000D03*
%TD*%
%TO.C,REF\u002A\u002A*%
X126883001Y-100999999D03*
%TD*%
%TO.C,REF\u002A\u002A*%
X130551000Y-117000000D03*
%TD*%
%TO.C,REF\u002A\u002A*%
X106000000Y-147000000D03*
%TD*%
%TO.C,REF\u002A\u002A*%
X166000000Y-238562500D03*
%TD*%
%TO.C,REF\u002A\u002A*%
X166000000Y-187000000D03*
%TD*%
%TO.C,REF\u002A\u002A*%
X144400000Y-117000000D03*
%TD*%
%TO.C,REF\u002A\u002A*%
X164000000Y-222124500D03*
%TD*%
%TO.C,REF\u002A\u002A*%
X164000000Y-148750999D03*
%TD*%
%TO.C,REF\u002A\u002A*%
X166000000Y-55437500D03*
%TD*%
%TO.C,REF\u002A\u002A*%
X106000000Y-86562500D03*
%TD*%
%TO.C,REF\u002A\u002A*%
X142566000Y-41000000D03*
%TD*%
%TO.C,REF\u002A\u002A*%
X164000000Y-147875499D03*
%TD*%
%TO.C,REF\u002A\u002A*%
X106000000Y-70124501D03*
%TD*%
%TO.C,REF\u002A\u002A*%
X127800001Y-176999999D03*
%TD*%
%TO.C,REF\u002A\u002A*%
X166000000Y-161687000D03*
%TD*%
%TO.C,REF\u002A\u002A*%
X126883001Y-193000000D03*
%TD*%
%TO.C,REF\u002A\u002A*%
X141649000Y-176999999D03*
%TD*%
%TO.C,REF\u002A\u002A*%
X145316999Y-252999999D03*
%TD*%
%TO.C,REF\u002A\u002A*%
X106000000Y-131437500D03*
%TD*%
%TO.C,REF\u002A\u002A*%
X106000000Y-209188499D03*
%TD*%
%TO.C,REF\u002A\u002A*%
X106000000Y-107000000D03*
%TD*%
%TO.C,REF\u002A\u002A*%
X166000000Y-132312999D03*
%TD*%
%TO.C,REF\u002A\u002A*%
X145316999Y-176999999D03*
%TD*%
%TO.C,REF\u002A\u002A*%
X129634000Y-100999999D03*
%TD*%
%TO.C,REF\u002A\u002A*%
X166000000Y-160811500D03*
%TD*%
%TO.C,REF\u002A\u002A*%
X166000000Y-186200000D03*
%TD*%
%TO.C,REF\u002A\u002A*%
X147150999Y-41000000D03*
%TD*%
%TO.C,REF\u002A\u002A*%
X141649000Y-41000000D03*
%TD*%
%TO.C,REF\u002A\u002A*%
X128717000Y-117000000D03*
%TD*%
%TO.C,REF\u002A\u002A*%
X106000000Y-107800000D03*
%TD*%
%TO.C,REF\u002A\u002A*%
X125966001Y-176999999D03*
%TD*%
%TO.C,REF\u002A\u002A*%
X142566000Y-176999999D03*
%TD*%
%TO.C,REF\u002A\u002A*%
X129634000Y-41000000D03*
%TD*%
%TO.C,REF\u002A\u002A*%
X143483000Y-176999999D03*
%TD*%
%TO.C,REF\u002A\u002A*%
X106000000Y-183800000D03*
%TD*%
%TO.C,REF\u002A\u002A*%
X106000000Y-238562500D03*
%TD*%
%TO.C,REF\u002A\u002A*%
X106000000Y-207437500D03*
%TD*%
%TO.C,REF\u002A\u002A*%
X106000000Y-239437999D03*
%TD*%
%TO.C,REF\u002A\u002A*%
X128717000Y-176999999D03*
%TD*%
%TO.C,REF\u002A\u002A*%
X130551000Y-176999999D03*
%TD*%
%TO.C,REF\u002A\u002A*%
X127800000Y-41000000D03*
%TD*%
%TO.C,REF\u002A\u002A*%
X166000000Y-130562000D03*
%TD*%
%TO.C,REF\u002A\u002A*%
X106000000Y-30000000D03*
%TD*%
%TO.C,REF\u002A\u002A*%
X164000000Y-224750999D03*
%TD*%
%TO.C,REF\u002A\u002A*%
X106000000Y-69249001D03*
%TD*%
%TO.C,REF\u002A\u002A*%
X106000000Y-259833333D03*
%TD*%
%TO.C,REF\u002A\u002A*%
X166000000Y-259833333D03*
%TD*%
%TO.C,REF\u002A\u002A*%
X128717000Y-41000000D03*
%TD*%
%TO.C,REF\u002A\u002A*%
X146233999Y-193000000D03*
%TD*%
%TO.C,REF\u002A\u002A*%
X106000000Y-35000000D03*
%TD*%
%TO.C,REF\u002A\u002A*%
X166000000Y-88313499D03*
%TD*%
%TO.C,REF\u002A\u002A*%
X166000000Y-209188499D03*
%TD*%
%TO.C,REF\u002A\u002A*%
X106000000Y-162562500D03*
%TD*%
%TO.C,REF\u002A\u002A*%
X144400000Y-100999999D03*
%TD*%
%TO.C,REF\u002A\u002A*%
X166000000Y-207437500D03*
%TD*%
%TO.C,REF\u002A\u002A*%
X106000000Y-184600000D03*
%TD*%
%TO.C,REF\u002A\u002A*%
X145316999Y-117000000D03*
%TD*%
%TO.C,REF\u002A\u002A*%
X166000000Y-84811500D03*
%TD*%
%TO.C,REF\u002A\u002A*%
X166000000Y-87437999D03*
%TD*%
%TO.C,REF\u002A\u002A*%
X144400000Y-252999999D03*
%TD*%
%TO.C,REF\u002A\u002A*%
X106000000Y-148750999D03*
%TD*%
%TO.C,REF\u002A\u002A*%
X143483000Y-41000000D03*
%TD*%
%TO.C,REF\u002A\u002A*%
X106000000Y-110200000D03*
%TD*%
%TO.C,REF\u002A\u002A*%
X141649000Y-193000000D03*
%TD*%
%TO.C,REF\u002A\u002A*%
X106000000Y-146124500D03*
%TD*%
%TO.C,REF\u002A\u002A*%
X106000000Y-88313499D03*
%TD*%
%TO.C,REF\u002A\u002A*%
X126883001Y-41000000D03*
%TD*%
%TO.C,REF\u002A\u002A*%
X166000000Y-86562500D03*
%TD*%
%TO.C,REF\u002A\u002A*%
X166000000Y-108600000D03*
%TD*%
%TO.C,REF\u002A\u002A*%
X129634000Y-193000000D03*
%TD*%
%TO.C,REF\u002A\u002A*%
X166000000Y-183000000D03*
%TD*%
%TO.C,REF\u002A\u002A*%
X147150999Y-176999999D03*
%TD*%
%TO.C,REF\u002A\u002A*%
X106000000Y-187000000D03*
%TD*%
%TO.C,REF\u002A\u002A*%
X166000000Y-109400000D03*
%TD*%
%TO.C,REF\u002A\u002A*%
X142566000Y-252999999D03*
%TD*%
%TO.C,REF\u002A\u002A*%
X126883001Y-117000000D03*
%TD*%
%TO.C,REF\u002A\u002A*%
X144400000Y-41000000D03*
%TD*%
%TO.C,REF\u002A\u002A*%
X106000000Y-32500000D03*
%TD*%
%TO.C,REF\u002A\u002A*%
X166000000Y-129686500D03*
%TD*%
%TO.C,REF\u002A\u002A*%
X166000000Y-107000000D03*
%TD*%
%TO.C,REF\u002A\u002A*%
X166000000Y-261500000D03*
%TD*%
%TO.C,REF\u002A\u002A*%
X106000000Y-55437500D03*
%TD*%
%TO.C,REF\u002A\u002A*%
X106000000Y-224750999D03*
%TD*%
%TO.C,REF\u002A\u002A*%
X106000000Y-237687000D03*
%TD*%
%TO.C,REF\u002A\u002A*%
X166000000Y-240313499D03*
%TD*%
%TO.C,REF\u002A\u002A*%
X166000000Y-164313499D03*
%TD*%
%TO.C,REF\u002A\u002A*%
X141649000Y-117000000D03*
%TD*%
%TO.C,REF\u002A\u002A*%
X166000000Y-163437999D03*
%TD*%
%TO.C,REF\u002A\u002A*%
X164000000Y-223875499D03*
%TD*%
%TO.C,REF\u002A\u002A*%
X125049001Y-100999998D03*
%TD*%
%TO.C,REF\u002A\u002A*%
X106000000Y-161687000D03*
%TD*%
%TO.C,REF\u002A\u002A*%
X166000000Y-185400000D03*
%TD*%
%TO.C,REF\u002A\u002A*%
X166000000Y-263166666D03*
%TD*%
%TO.C,REF\u002A\u002A*%
X127800000Y-193000000D03*
%TD*%
%TO.C,REF\u002A\u002A*%
X130551000Y-41000000D03*
%TD*%
%TO.C,REF\u002A\u002A*%
X106000000Y-223000000D03*
%TD*%
%TO.C,REF\u002A\u002A*%
X106000000Y-84811500D03*
%TD*%
%TO.C,REF\u002A\u002A*%
X166000000Y-259000000D03*
%TD*%
%TO.C,REF\u002A\u002A*%
X145316999Y-100999999D03*
%TD*%
%TO.C,REF\u002A\u002A*%
X106000000Y-85687000D03*
%TD*%
%TO.C,REF\u002A\u002A*%
X166000000Y-57188500D03*
%TD*%
%TO.C,REF\u002A\u002A*%
X106000000Y-57188500D03*
%TD*%
%TO.C,REF\u002A\u002A*%
X106000000Y-205686500D03*
%TD*%
%TO.C,REF\u002A\u002A*%
X141649000Y-100999999D03*
%TD*%
%TO.C,REF\u002A\u002A*%
X164000000Y-147000000D03*
%TD*%
%TO.C,REF\u002A\u002A*%
X106000000Y-164313499D03*
%TD*%
%TO.C,REF\u002A\u002A*%
X166000000Y-133188499D03*
%TD*%
%TO.C,REF\u002A\u002A*%
X125966001Y-193000000D03*
%TD*%
%TO.C,REF\u002A\u002A*%
X126883001Y-176999999D03*
%TD*%
%TO.C,REF\u002A\u002A*%
X125966001Y-100999999D03*
%TD*%
%TO.C,REF\u002A\u002A*%
X106000000Y-183000000D03*
%TD*%
%TO.C,REF\u002A\u002A*%
X147150999Y-117000000D03*
%TD*%
%TO.C,REF\u002A\u002A*%
X106000000Y-87437999D03*
%TD*%
%TO.C,REF\u002A\u002A*%
X166000000Y-34166667D03*
%TD*%
%TO.C,REF\u002A\u002A*%
X106000000Y-30833334D03*
%TD*%
%TO.C,REF\u002A\u002A*%
X166000000Y-30833334D03*
%TD*%
%TO.C,REF\u002A\u002A*%
X141649000Y-252999999D03*
%TD*%
%TO.C,REF\u002A\u002A*%
X147150999Y-252999999D03*
%TD*%
%TO.C,REF\u002A\u002A*%
X128717000Y-193000000D03*
%TD*%
%TO.C,REF\u002A\u002A*%
X127800000Y-117000000D03*
%TD*%
%TO.C,REF\u002A\u002A*%
X106000000Y-262333333D03*
%TD*%
%TO.C,REF\u002A\u002A*%
X146233999Y-117000000D03*
%TD*%
%TO.C,REF\u002A\u002A*%
X130551000Y-100999999D03*
%TD*%
%TO.C,REF\u002A\u002A*%
X166000000Y-239437999D03*
%TD*%
%TO.C,REF\u002A\u002A*%
X143483000Y-117000000D03*
%TD*%
%TO.C,REF\u002A\u002A*%
X142566000Y-117000000D03*
%TD*%
%TO.C,REF\u002A\u002A*%
X166000000Y-183800000D03*
%TD*%
%TO.C,REF\u002A\u002A*%
X106000000Y-130562000D03*
%TD*%
%TO.C,REF\u002A\u002A*%
X130551000Y-252999999D03*
%TD*%
%TO.C,REF\u002A\u002A*%
X129634000Y-176999999D03*
%TD*%
%TO.C,REF\u002A\u002A*%
X146233999Y-176999999D03*
%TD*%
%TO.C,REF\u002A\u002A*%
X106000000Y-108600000D03*
%TD*%
%TO.C,REF\u002A\u002A*%
X166000000Y-208312999D03*
%TD*%
%TO.C,REF\u002A\u002A*%
X166000000Y-260666666D03*
%TD*%
%TO.C,REF\u002A\u002A*%
X166000000Y-206562000D03*
%TD*%
%TO.C,REF\u002A\u002A*%
X164000000Y-71000000D03*
%TD*%
%TO.C,REF\u002A\u002A*%
X106000000Y-133188499D03*
%TD*%
%TO.C,REF\u002A\u002A*%
X146233999Y-100999999D03*
%TD*%
%TO.C,REF\u002A\u002A*%
X106000000Y-145249000D03*
%TD*%
%TO.C,REF\u002A\u002A*%
X106000000Y-223875499D03*
%TD*%
%TO.C,REF\u002A\u002A*%
X128717000Y-100999999D03*
%TD*%
%TO.C,REF\u002A\u002A*%
X142566000Y-193000000D03*
%TD*%
%TO.C,REF\u002A\u002A*%
X106000000Y-53686501D03*
%TD*%
%TO.C,REF\u002A\u002A*%
X145316999Y-41000000D03*
%TD*%
%TO.C,REF\u002A\u002A*%
X106000000Y-208312999D03*
%TD*%
%TO.C,REF\u002A\u002A*%
X106000000Y-263166666D03*
%TD*%
%TO.C,REF\u002A\u002A*%
X125049001Y-41000000D03*
%TD*%
%TO.C,REF\u002A\u002A*%
X106000000Y-129686500D03*
%TD*%
%TO.C,REF\u002A\u002A*%
X144400000Y-193000000D03*
%TD*%
%TO.C,REF\u002A\u002A*%
X166000000Y-264000000D03*
%TD*%
%TO.C,REF\u002A\u002A*%
X164000000Y-69249001D03*
%TD*%
%TO.C,REF\u002A\u002A*%
X166000000Y-111000000D03*
%TD*%
%TO.C,REF\u002A\u002A*%
X144400000Y-176999999D03*
%TD*%
%TO.C,REF\u002A\u002A*%
X106000000Y-132312999D03*
%TD*%
%TO.C,REF\u002A\u002A*%
X164000000Y-223000000D03*
%TD*%
%TO.C,REF\u002A\u002A*%
X166000000Y-110200000D03*
%TD*%
%TO.C,REF\u002A\u002A*%
X128717000Y-252999999D03*
%TD*%
%TO.C,REF\u002A\u002A*%
X164000000Y-72750999D03*
%TD*%
%TO.C,REF\u002A\u002A*%
X106000000Y-163437999D03*
%TD*%
%TO.C,REF\u002A\u002A*%
X166000000Y-85687000D03*
%TD*%
D28*
%TO.C,JP2*%
X156600000Y-220075000D03*
D29*
X155300000Y-220075000D03*
%TD*%
D28*
%TO.C,JP2*%
X156600000Y-68075000D03*
D29*
X155300000Y-68075000D03*
%TD*%
D28*
%TO.C,JP2*%
X156600000Y-144075000D03*
D29*
X155300000Y-144075000D03*
%TD*%
D30*
%TO.C,BT301*%
X126949033Y-232092211D03*
X145050967Y-213990277D03*
D31*
X136000000Y-223041244D03*
%TD*%
D30*
%TO.C,BT301*%
X126949033Y-80092211D03*
X145050967Y-61990277D03*
D31*
X136000000Y-71041244D03*
%TD*%
D30*
%TO.C,BT301*%
X126949033Y-156092211D03*
X145050967Y-137990277D03*
D31*
X136000000Y-147041244D03*
%TD*%
D28*
%TO.C,JP1*%
X156600000Y-222625000D03*
D29*
X155300000Y-222625000D03*
%TD*%
D28*
%TO.C,JP1*%
X156600000Y-70625000D03*
D29*
X155300000Y-70625000D03*
%TD*%
D28*
%TO.C,JP1*%
X156600000Y-146625000D03*
D29*
X155300000Y-146625000D03*
%TD*%
D16*
%TO.C,REF\u002A\u002A*%
X259000000Y-224750999D03*
%TD*%
%TO.C,REF\u002A\u002A*%
X175000000Y-186200000D03*
%TD*%
%TO.C,REF\u002A\u002A*%
X218200000Y-257000000D03*
%TD*%
%TO.C,REF\u002A\u002A*%
X175000000Y-207188499D03*
%TD*%
%TO.C,REF\u002A\u002A*%
X175000000Y-263166666D03*
%TD*%
%TO.C,REF\u002A\u002A*%
X250937999Y-37000000D03*
%TD*%
%TO.C,REF\u002A\u002A*%
X229937500Y-113000000D03*
%TD*%
%TO.C,REF\u002A\u002A*%
X240875499Y-37000000D03*
%TD*%
%TO.C,REF\u002A\u002A*%
X175000000Y-129437500D03*
%TD*%
%TO.C,REF\u002A\u002A*%
X217400000Y-107000000D03*
%TD*%
%TO.C,REF\u002A\u002A*%
X183937500Y-105000000D03*
%TD*%
%TO.C,REF\u002A\u002A*%
X217400000Y-37000000D03*
%TD*%
%TO.C,REF\u002A\u002A*%
X195750999Y-257000000D03*
%TD*%
%TO.C,REF\u002A\u002A*%
X175000000Y-224750999D03*
%TD*%
%TO.C,REF\u002A\u002A*%
X204937999Y-257000000D03*
%TD*%
%TO.C,REF\u002A\u002A*%
X228186500Y-105000000D03*
%TD*%
%TO.C,REF\u002A\u002A*%
X175000000Y-183800000D03*
%TD*%
%TO.C,REF\u002A\u002A*%
X231688499Y-181000000D03*
%TD*%
%TO.C,REF\u002A\u002A*%
X250937999Y-113000000D03*
%TD*%
%TO.C,REF\u002A\u002A*%
X213000000Y-207188499D03*
%TD*%
%TO.C,REF\u002A\u002A*%
X175000000Y-109400000D03*
%TD*%
%TO.C,REF\u002A\u002A*%
X216600000Y-111000000D03*
%TD*%
%TO.C,REF\u002A\u002A*%
X228186500Y-37000000D03*
%TD*%
%TO.C,REF\u002A\u002A*%
X240000000Y-257000000D03*
%TD*%
%TO.C,REF\u002A\u002A*%
X213000000Y-70124501D03*
%TD*%
%TO.C,REF\u002A\u002A*%
X175000000Y-203686500D03*
%TD*%
%TO.C,REF\u002A\u002A*%
X259000000Y-147875499D03*
%TD*%
%TO.C,REF\u002A\u002A*%
X221000000Y-224750999D03*
%TD*%
%TO.C,REF\u002A\u002A*%
X221000000Y-207188499D03*
%TD*%
%TO.C,REF\u002A\u002A*%
X204937999Y-37000000D03*
%TD*%
%TO.C,REF\u002A\u002A*%
X259000000Y-259000000D03*
%TD*%
%TO.C,REF\u002A\u002A*%
X221000000Y-86811500D03*
%TD*%
%TO.C,REF\u002A\u002A*%
X185688500Y-105000000D03*
%TD*%
%TO.C,REF\u002A\u002A*%
X213000000Y-128562000D03*
%TD*%
%TO.C,REF\u002A\u002A*%
X259000000Y-261500000D03*
%TD*%
%TO.C,REF\u002A\u002A*%
X175000000Y-221249000D03*
%TD*%
%TO.C,REF\u002A\u002A*%
X194000000Y-105000000D03*
%TD*%
%TO.C,REF\u002A\u002A*%
X204062500Y-189000000D03*
%TD*%
%TO.C,REF\u002A\u002A*%
X219000000Y-111000000D03*
%TD*%
%TO.C,REF\u002A\u002A*%
X192249001Y-105000000D03*
%TD*%
%TO.C,REF\u002A\u002A*%
X228186500Y-189000000D03*
%TD*%
%TO.C,REF\u002A\u002A*%
X229062000Y-37000000D03*
%TD*%
%TO.C,REF\u002A\u002A*%
X213000000Y-165437999D03*
%TD*%
%TO.C,REF\u002A\u002A*%
X213000000Y-127686500D03*
%TD*%
%TO.C,REF\u002A\u002A*%
X215000000Y-183000000D03*
%TD*%
%TO.C,REF\u002A\u002A*%
X183937500Y-113000000D03*
%TD*%
%TO.C,REF\u002A\u002A*%
X202311500Y-37000000D03*
%TD*%
%TO.C,REF\u002A\u002A*%
X183937500Y-189000000D03*
%TD*%
%TO.C,REF\u002A\u002A*%
X219000000Y-108600000D03*
%TD*%
%TO.C,REF\u002A\u002A*%
X213000000Y-147000000D03*
%TD*%
%TO.C,REF\u002A\u002A*%
X240000000Y-189000000D03*
%TD*%
%TO.C,REF\u002A\u002A*%
X259000000Y-88562500D03*
%TD*%
%TO.C,REF\u002A\u002A*%
X221000000Y-147875499D03*
%TD*%
%TO.C,REF\u002A\u002A*%
X193124501Y-189000000D03*
%TD*%
%TO.C,REF\u002A\u002A*%
X215800000Y-107000000D03*
%TD*%
%TO.C,REF\u002A\u002A*%
X205813499Y-113000000D03*
%TD*%
%TO.C,REF\u002A\u002A*%
X175000000Y-53437500D03*
%TD*%
%TO.C,REF\u002A\u002A*%
X259000000Y-89437999D03*
%TD*%
%TO.C,REF\u002A\u002A*%
X259000000Y-108600000D03*
%TD*%
%TO.C,REF\u002A\u002A*%
X221000000Y-55188500D03*
%TD*%
%TO.C,REF\u002A\u002A*%
X239124500Y-105000000D03*
%TD*%
%TO.C,REF\u002A\u002A*%
X221000000Y-238811500D03*
%TD*%
%TO.C,REF\u002A\u002A*%
X175000000Y-239687000D03*
%TD*%
%TO.C,REF\u002A\u002A*%
X204062500Y-37000000D03*
%TD*%
%TO.C,REF\u002A\u002A*%
X259000000Y-260666666D03*
%TD*%
%TO.C,REF\u002A\u002A*%
X221000000Y-130312999D03*
%TD*%
%TO.C,REF\u002A\u002A*%
X241750999Y-113000000D03*
%TD*%
%TO.C,REF\u002A\u002A*%
X259000000Y-127686500D03*
%TD*%
%TO.C,REF\u002A\u002A*%
X213000000Y-239687000D03*
%TD*%
%TO.C,REF\u002A\u002A*%
X230812999Y-37000000D03*
%TD*%
%TO.C,REF\u002A\u002A*%
X213000000Y-205437500D03*
%TD*%
%TO.C,REF\u002A\u002A*%
X219000000Y-107800000D03*
%TD*%
%TO.C,REF\u002A\u002A*%
X250062500Y-257000000D03*
%TD*%
%TO.C,REF\u002A\u002A*%
X204937999Y-181000000D03*
%TD*%
%TO.C,REF\u002A\u002A*%
X175000000Y-241437999D03*
%TD*%
%TO.C,REF\u002A\u002A*%
X175000000Y-145249000D03*
%TD*%
%TO.C,REF\u002A\u002A*%
X250062500Y-181000000D03*
%TD*%
%TO.C,REF\u002A\u002A*%
X221000000Y-145249000D03*
%TD*%
%TO.C,REF\u002A\u002A*%
X175000000Y-32500000D03*
%TD*%
%TO.C,REF\u002A\u002A*%
X259000000Y-71000000D03*
%TD*%
%TO.C,REF\u002A\u002A*%
X213000000Y-86811500D03*
%TD*%
%TO.C,REF\u002A\u002A*%
X238249000Y-37000000D03*
%TD*%
%TO.C,REF\u002A\u002A*%
X219000000Y-107000000D03*
%TD*%
%TO.C,REF\u002A\u002A*%
X215000000Y-111000000D03*
%TD*%
%TO.C,REF\u002A\u002A*%
X259000000Y-146124500D03*
%TD*%
%TO.C,REF\u002A\u002A*%
X221000000Y-148750999D03*
%TD*%
%TO.C,REF\u002A\u002A*%
X259000000Y-163687000D03*
%TD*%
%TO.C,REF\u002A\u002A*%
X221000000Y-165437999D03*
%TD*%
%TO.C,REF\u002A\u002A*%
X175000000Y-131188499D03*
%TD*%
%TO.C,REF\u002A\u002A*%
X219000000Y-37000000D03*
%TD*%
%TO.C,REF\u002A\u002A*%
X248311500Y-181000000D03*
%TD*%
%TO.C,REF\u002A\u002A*%
X175000000Y-238811500D03*
%TD*%
%TO.C,REF\u002A\u002A*%
X175000000Y-90313499D03*
%TD*%
%TO.C,REF\u002A\u002A*%
X229937500Y-189000000D03*
%TD*%
%TO.C,REF\u002A\u002A*%
X175000000Y-88562500D03*
%TD*%
%TO.C,REF\u002A\u002A*%
X175000000Y-262333333D03*
%TD*%
%TO.C,REF\u002A\u002A*%
X213000000Y-240562500D03*
%TD*%
%TO.C,REF\u002A\u002A*%
X194875499Y-37000000D03*
%TD*%
%TO.C,REF\u002A\u002A*%
X229937500Y-257000000D03*
%TD*%
%TO.C,REF\u002A\u002A*%
X259000000Y-166313499D03*
%TD*%
%TO.C,REF\u002A\u002A*%
X215000000Y-186200000D03*
%TD*%
%TO.C,REF\u002A\u002A*%
X175000000Y-147000000D03*
%TD*%
%TO.C,REF\u002A\u002A*%
X217400000Y-257000000D03*
%TD*%
%TO.C,REF\u002A\u002A*%
X215000000Y-108600000D03*
%TD*%
%TO.C,REF\u002A\u002A*%
X230812999Y-105000000D03*
%TD*%
D13*
%TO.C,MK1404*%
X228400000Y-223000000D03*
%TD*%
%TO.C,MK1404*%
X182400000Y-147000000D03*
%TD*%
%TO.C,MK1404*%
X228400000Y-147000000D03*
%TD*%
%TO.C,MK1404*%
X182400000Y-223000000D03*
%TD*%
%TO.C,MK1404*%
X182400000Y-71000000D03*
%TD*%
%TO.C,MK1404*%
X228400000Y-71000000D03*
%TD*%
D16*
%TO.C,REF\u002A\u002A*%
X259000000Y-240562500D03*
%TD*%
%TO.C,REF\u002A\u002A*%
X175000000Y-166313499D03*
%TD*%
%TO.C,REF\u002A\u002A*%
X259000000Y-147000000D03*
%TD*%
%TO.C,REF\u002A\u002A*%
X221000000Y-206312999D03*
%TD*%
%TO.C,REF\u002A\u002A*%
X213000000Y-89437999D03*
%TD*%
%TO.C,REF\u002A\u002A*%
X259000000Y-53437500D03*
%TD*%
%TO.C,REF\u002A\u002A*%
X239124500Y-189000000D03*
%TD*%
%TO.C,REF\u002A\u002A*%
X175000000Y-107000000D03*
%TD*%
%TO.C,REF\u002A\u002A*%
X192249001Y-189000000D03*
%TD*%
%TO.C,REF\u002A\u002A*%
X216600000Y-107000000D03*
%TD*%
%TO.C,REF\u002A\u002A*%
X259000000Y-130312999D03*
%TD*%
%TO.C,REF\u002A\u002A*%
X202311500Y-189000000D03*
%TD*%
%TO.C,REF\u002A\u002A*%
X217400000Y-111000000D03*
%TD*%
%TO.C,REF\u002A\u002A*%
X229062000Y-113000000D03*
%TD*%
%TO.C,REF\u002A\u002A*%
X248311500Y-189000000D03*
%TD*%
%TO.C,REF\u002A\u002A*%
X221000000Y-87687000D03*
%TD*%
%TO.C,REF\u002A\u002A*%
X175000000Y-165437999D03*
%TD*%
%TO.C,REF\u002A\u002A*%
X213000000Y-129437500D03*
%TD*%
%TO.C,REF\u002A\u002A*%
X193124501Y-257000000D03*
%TD*%
%TO.C,REF\u002A\u002A*%
X221000000Y-163687000D03*
%TD*%
%TO.C,REF\u002A\u002A*%
X259000000Y-131188499D03*
%TD*%
%TO.C,REF\u002A\u002A*%
X203187000Y-37000000D03*
%TD*%
%TO.C,REF\u002A\u002A*%
X259000000Y-264000000D03*
%TD*%
%TO.C,REF\u002A\u002A*%
X251813499Y-113000000D03*
%TD*%
%TO.C,REF\u002A\u002A*%
X249187000Y-105000000D03*
%TD*%
%TO.C,REF\u002A\u002A*%
X213000000Y-145249000D03*
%TD*%
%TO.C,REF\u002A\u002A*%
X229937500Y-105000000D03*
%TD*%
%TO.C,REF\u002A\u002A*%
X213000000Y-221249000D03*
%TD*%
%TO.C,REF\u002A\u002A*%
X202311500Y-113000000D03*
%TD*%
%TO.C,REF\u002A\u002A*%
X259000000Y-111000000D03*
%TD*%
%TO.C,REF\u002A\u002A*%
X213000000Y-148750999D03*
%TD*%
%TO.C,REF\u002A\u002A*%
X175000000Y-146124500D03*
%TD*%
%TO.C,REF\u002A\u002A*%
X249187000Y-113000000D03*
%TD*%
%TO.C,REF\u002A\u002A*%
X195750999Y-37000000D03*
%TD*%
%TO.C,REF\u002A\u002A*%
X219000000Y-183000000D03*
%TD*%
%TO.C,REF\u002A\u002A*%
X259000000Y-129437500D03*
%TD*%
%TO.C,REF\u002A\u002A*%
X250062500Y-37000000D03*
%TD*%
%TO.C,REF\u002A\u002A*%
X250937999Y-105000000D03*
%TD*%
%TO.C,REF\u002A\u002A*%
X221000000Y-239687000D03*
%TD*%
%TO.C,REF\u002A\u002A*%
X175000000Y-33333334D03*
%TD*%
%TO.C,REF\u002A\u002A*%
X213000000Y-69249001D03*
%TD*%
%TO.C,REF\u002A\u002A*%
X215800000Y-257000000D03*
%TD*%
%TO.C,REF\u002A\u002A*%
X193124501Y-105000000D03*
%TD*%
%TO.C,REF\u002A\u002A*%
X259000000Y-69249001D03*
%TD*%
%TO.C,REF\u002A\u002A*%
X221000000Y-222124500D03*
%TD*%
%TO.C,REF\u002A\u002A*%
X175000000Y-204562000D03*
%TD*%
%TO.C,REF\u002A\u002A*%
X239124500Y-257000000D03*
%TD*%
D13*
%TO.C,MK1402*%
X235000000Y-216400000D03*
%TD*%
%TO.C,MK1402*%
X189000000Y-140400000D03*
%TD*%
%TO.C,MK1402*%
X235000000Y-140400000D03*
%TD*%
%TO.C,MK1402*%
X189000000Y-216400000D03*
%TD*%
%TO.C,MK1402*%
X189000000Y-64400000D03*
%TD*%
%TO.C,MK1402*%
X235000000Y-64400000D03*
%TD*%
D16*
%TO.C,REF\u002A\u002A*%
X183062001Y-113000000D03*
%TD*%
%TO.C,REF\u002A\u002A*%
X213000000Y-51686501D03*
%TD*%
%TO.C,REF\u002A\u002A*%
X221000000Y-166313499D03*
%TD*%
%TO.C,REF\u002A\u002A*%
X241750999Y-105000000D03*
%TD*%
%TO.C,REF\u002A\u002A*%
X215000000Y-107000000D03*
%TD*%
%TO.C,REF\u002A\u002A*%
X175000000Y-71000000D03*
%TD*%
%TO.C,REF\u002A\u002A*%
X184813000Y-257000000D03*
%TD*%
%TO.C,REF\u002A\u002A*%
X259000000Y-164562500D03*
%TD*%
%TO.C,REF\u002A\u002A*%
X175000000Y-164562500D03*
%TD*%
D13*
%TO.C,MK1401*%
X235000000Y-229600000D03*
%TD*%
%TO.C,MK1401*%
X189000000Y-153600000D03*
%TD*%
%TO.C,MK1401*%
X235000000Y-153600000D03*
%TD*%
%TO.C,MK1401*%
X189000000Y-229600000D03*
%TD*%
%TO.C,MK1401*%
X189000000Y-77600000D03*
%TD*%
%TO.C,MK1401*%
X235000000Y-77600000D03*
%TD*%
D16*
%TO.C,REF\u002A\u002A*%
X239124500Y-181000000D03*
%TD*%
%TO.C,REF\u002A\u002A*%
X175000000Y-30833334D03*
%TD*%
%TO.C,REF\u002A\u002A*%
X213000000Y-52562001D03*
%TD*%
%TO.C,REF\u002A\u002A*%
X259000000Y-162811500D03*
%TD*%
%TO.C,REF\u002A\u002A*%
X259000000Y-145249000D03*
%TD*%
%TO.C,REF\u002A\u002A*%
X259000000Y-259833333D03*
%TD*%
%TO.C,REF\u002A\u002A*%
X182186501Y-113000000D03*
%TD*%
%TO.C,REF\u002A\u002A*%
X182186501Y-105000000D03*
%TD*%
%TO.C,REF\u002A\u002A*%
X213000000Y-147875499D03*
%TD*%
%TO.C,REF\u002A\u002A*%
X175000000Y-260666666D03*
%TD*%
%TO.C,REF\u002A\u002A*%
X231688499Y-37000000D03*
%TD*%
%TO.C,REF\u002A\u002A*%
X259000000Y-72750999D03*
%TD*%
%TO.C,REF\u002A\u002A*%
X175000000Y-127686500D03*
%TD*%
%TO.C,REF\u002A\u002A*%
X229062000Y-189000000D03*
%TD*%
%TO.C,REF\u002A\u002A*%
X213000000Y-222124500D03*
%TD*%
D11*
%TO.C,H1001*%
X235000000Y-131400000D03*
X233302944Y-130697056D03*
X236697056Y-130697056D03*
X232600000Y-129000000D03*
D12*
X235000000Y-129000000D03*
D11*
X237400000Y-129000000D03*
X233302944Y-127302944D03*
X236697056Y-127302944D03*
X235000000Y-126600000D03*
%TD*%
%TO.C,H1001*%
X235000000Y-207400000D03*
X233302944Y-206697056D03*
X236697056Y-206697056D03*
X232600000Y-205000000D03*
D12*
X235000000Y-205000000D03*
D11*
X237400000Y-205000000D03*
X233302944Y-203302944D03*
X236697056Y-203302944D03*
X235000000Y-202600000D03*
%TD*%
%TO.C,H1001*%
X189000000Y-131400000D03*
X187302944Y-130697056D03*
X190697056Y-130697056D03*
X186600000Y-129000000D03*
D12*
X189000000Y-129000000D03*
D11*
X191400000Y-129000000D03*
X187302944Y-127302944D03*
X190697056Y-127302944D03*
X189000000Y-126600000D03*
%TD*%
%TO.C,H1001*%
X189000000Y-207400000D03*
X187302944Y-206697056D03*
X190697056Y-206697056D03*
X186600000Y-205000000D03*
D12*
X189000000Y-205000000D03*
D11*
X191400000Y-205000000D03*
X187302944Y-203302944D03*
X190697056Y-203302944D03*
X189000000Y-202600000D03*
%TD*%
%TO.C,H1001*%
X189000000Y-55400000D03*
X187302944Y-54697056D03*
X190697056Y-54697056D03*
X186600000Y-53000000D03*
D12*
X189000000Y-53000000D03*
D11*
X191400000Y-53000000D03*
X187302944Y-51302944D03*
X190697056Y-51302944D03*
X189000000Y-50600000D03*
%TD*%
%TO.C,H1001*%
X235000000Y-55400000D03*
X233302944Y-54697056D03*
X236697056Y-54697056D03*
X232600000Y-53000000D03*
D12*
X235000000Y-53000000D03*
D11*
X237400000Y-53000000D03*
X233302944Y-51302944D03*
X236697056Y-51302944D03*
X235000000Y-50600000D03*
%TD*%
D16*
%TO.C,REF\u002A\u002A*%
X221000000Y-72750999D03*
%TD*%
%TO.C,REF\u002A\u002A*%
X192249001Y-113000000D03*
%TD*%
%TO.C,REF\u002A\u002A*%
X202311500Y-105000000D03*
%TD*%
%TO.C,REF\u002A\u002A*%
X213000000Y-162811500D03*
%TD*%
%TO.C,REF\u002A\u002A*%
X259000000Y-34166667D03*
%TD*%
D13*
%TO.C,MK1403*%
X241600000Y-223000000D03*
%TD*%
%TO.C,MK1403*%
X195600000Y-147000000D03*
%TD*%
%TO.C,MK1403*%
X241600000Y-147000000D03*
%TD*%
%TO.C,MK1403*%
X195600000Y-223000000D03*
%TD*%
%TO.C,MK1403*%
X195600000Y-71000000D03*
%TD*%
%TO.C,MK1403*%
X241600000Y-71000000D03*
%TD*%
D16*
%TO.C,REF\u002A\u002A*%
X183937500Y-181000000D03*
%TD*%
%TO.C,REF\u002A\u002A*%
X175000000Y-52562001D03*
%TD*%
%TO.C,REF\u002A\u002A*%
X259000000Y-107800000D03*
%TD*%
%TO.C,REF\u002A\u002A*%
X194000000Y-189000000D03*
%TD*%
%TO.C,REF\u002A\u002A*%
X259000000Y-70124501D03*
%TD*%
%TO.C,REF\u002A\u002A*%
X221000000Y-51686501D03*
%TD*%
%TO.C,REF\u002A\u002A*%
X216600000Y-183000000D03*
%TD*%
%TO.C,REF\u002A\u002A*%
X175000000Y-240562500D03*
%TD*%
%TO.C,REF\u002A\u002A*%
X204937999Y-189000000D03*
%TD*%
%TO.C,REF\u002A\u002A*%
X221000000Y-203686500D03*
%TD*%
%TO.C,REF\u002A\u002A*%
X213000000Y-131188499D03*
%TD*%
%TO.C,REF\u002A\u002A*%
X195750999Y-189000000D03*
%TD*%
%TO.C,REF\u002A\u002A*%
X240875499Y-189000000D03*
%TD*%
%TO.C,REF\u002A\u002A*%
X175000000Y-184600000D03*
%TD*%
%TO.C,REF\u002A\u002A*%
X205813499Y-181000000D03*
%TD*%
%TO.C,REF\u002A\u002A*%
X259000000Y-239687000D03*
%TD*%
%TO.C,REF\u002A\u002A*%
X213000000Y-164562500D03*
%TD*%
%TO.C,REF\u002A\u002A*%
X185688500Y-113000000D03*
%TD*%
%TO.C,REF\u002A\u002A*%
X249187000Y-181000000D03*
%TD*%
%TO.C,REF\u002A\u002A*%
X221000000Y-127686500D03*
%TD*%
%TO.C,REF\u002A\u002A*%
X251813499Y-105000000D03*
%TD*%
%TO.C,REF\u002A\u002A*%
X230812999Y-257000000D03*
%TD*%
%TO.C,REF\u002A\u002A*%
X183062001Y-181000000D03*
%TD*%
%TO.C,REF\u002A\u002A*%
X175000000Y-34166667D03*
%TD*%
%TO.C,REF\u002A\u002A*%
X219000000Y-187000000D03*
%TD*%
%TO.C,REF\u002A\u002A*%
X213000000Y-223875499D03*
%TD*%
%TO.C,REF\u002A\u002A*%
X259000000Y-109400000D03*
%TD*%
%TO.C,REF\u002A\u002A*%
X215000000Y-257000000D03*
%TD*%
%TO.C,REF\u002A\u002A*%
X205813499Y-189000000D03*
%TD*%
%TO.C,REF\u002A\u002A*%
X175000000Y-163687000D03*
%TD*%
%TO.C,REF\u002A\u002A*%
X215800000Y-111000000D03*
%TD*%
%TO.C,REF\u002A\u002A*%
X215000000Y-183000000D03*
%TD*%
%TO.C,REF\u002A\u002A*%
X259000000Y-223000000D03*
%TD*%
%TO.C,REF\u002A\u002A*%
X238249000Y-105000000D03*
%TD*%
%TO.C,REF\u002A\u002A*%
X192249001Y-257000000D03*
%TD*%
%TO.C,REF\u002A\u002A*%
X203187000Y-189000000D03*
%TD*%
%TO.C,REF\u002A\u002A*%
X219000000Y-111000000D03*
%TD*%
%TO.C,REF\u002A\u002A*%
X213000000Y-223000000D03*
%TD*%
%TO.C,REF\u002A\u002A*%
X259000000Y-128562000D03*
%TD*%
%TO.C,REF\u002A\u002A*%
X259000000Y-185400000D03*
%TD*%
%TO.C,REF\u002A\u002A*%
X221000000Y-88562500D03*
%TD*%
%TO.C,REF\u002A\u002A*%
X175000000Y-86811500D03*
%TD*%
%TO.C,REF\u002A\u002A*%
X213000000Y-163687000D03*
%TD*%
%TO.C,REF\u002A\u002A*%
X213000000Y-87687000D03*
%TD*%
%TO.C,REF\u002A\u002A*%
X185688500Y-189000000D03*
%TD*%
D13*
%TO.C,MK1405*%
X193650000Y-151650000D03*
%TD*%
%TO.C,MK1405*%
X239650000Y-151650000D03*
%TD*%
%TO.C,MK1405*%
X193650000Y-227650000D03*
%TD*%
%TO.C,MK1405*%
X193650000Y-75650000D03*
%TD*%
%TO.C,MK1405*%
X239650000Y-75650000D03*
%TD*%
%TO.C,MK1405*%
X239650000Y-227650000D03*
%TD*%
D16*
%TO.C,REF\u002A\u002A*%
X215000000Y-37000000D03*
%TD*%
%TO.C,REF\u002A\u002A*%
X175000000Y-206312999D03*
%TD*%
%TO.C,REF\u002A\u002A*%
X248311500Y-257000000D03*
%TD*%
%TO.C,REF\u002A\u002A*%
X259000000Y-32500000D03*
%TD*%
%TO.C,REF\u002A\u002A*%
X202311500Y-257000000D03*
%TD*%
%TO.C,REF\u002A\u002A*%
X259000000Y-242313499D03*
%TD*%
%TO.C,REF\u002A\u002A*%
X182186501Y-257000000D03*
%TD*%
%TO.C,REF\u002A\u002A*%
X175000000Y-30000000D03*
%TD*%
%TO.C,REF\u002A\u002A*%
X250062500Y-105000000D03*
%TD*%
%TO.C,REF\u002A\u002A*%
X221000000Y-53437500D03*
%TD*%
%TO.C,REF\u002A\u002A*%
X175000000Y-264000000D03*
%TD*%
%TO.C,REF\u002A\u002A*%
X229062000Y-257000000D03*
%TD*%
%TO.C,REF\u002A\u002A*%
X194875499Y-189000000D03*
%TD*%
%TO.C,REF\u002A\u002A*%
X175000000Y-108600000D03*
%TD*%
%TO.C,REF\u002A\u002A*%
X213000000Y-72750999D03*
%TD*%
%TO.C,REF\u002A\u002A*%
X259000000Y-31666667D03*
%TD*%
%TO.C,REF\u002A\u002A*%
X229062000Y-181000000D03*
%TD*%
%TO.C,REF\u002A\u002A*%
X238249000Y-257000000D03*
%TD*%
%TO.C,REF\u002A\u002A*%
X175000000Y-162811500D03*
%TD*%
%TO.C,REF\u002A\u002A*%
X219000000Y-184600000D03*
%TD*%
%TO.C,REF\u002A\u002A*%
X241750999Y-257000000D03*
%TD*%
%TO.C,REF\u002A\u002A*%
X259000000Y-30000000D03*
%TD*%
%TO.C,REF\u002A\u002A*%
X175000000Y-223875499D03*
%TD*%
%TO.C,REF\u002A\u002A*%
X213000000Y-55188500D03*
%TD*%
%TO.C,REF\u002A\u002A*%
X194000000Y-37000000D03*
%TD*%
%TO.C,REF\u002A\u002A*%
X221000000Y-89437999D03*
%TD*%
%TO.C,REF\u002A\u002A*%
X228186500Y-113000000D03*
%TD*%
%TO.C,REF\u002A\u002A*%
X213000000Y-53437500D03*
%TD*%
%TO.C,REF\u002A\u002A*%
X213000000Y-241437999D03*
%TD*%
%TO.C,REF\u002A\u002A*%
X215000000Y-107800000D03*
%TD*%
%TO.C,REF\u002A\u002A*%
X175000000Y-261500000D03*
%TD*%
%TO.C,REF\u002A\u002A*%
X195750999Y-105000000D03*
%TD*%
%TO.C,REF\u002A\u002A*%
X221000000Y-146124500D03*
%TD*%
%TO.C,REF\u002A\u002A*%
X240000000Y-181000000D03*
%TD*%
%TO.C,REF\u002A\u002A*%
X221000000Y-52562001D03*
%TD*%
%TO.C,REF\u002A\u002A*%
X221000000Y-71875499D03*
%TD*%
%TO.C,REF\u002A\u002A*%
X217400000Y-187000000D03*
%TD*%
%TO.C,REF\u002A\u002A*%
X259000000Y-262333333D03*
%TD*%
%TO.C,REF\u002A\u002A*%
X213000000Y-90313499D03*
%TD*%
%TO.C,REF\u002A\u002A*%
X175000000Y-187000000D03*
%TD*%
%TO.C,REF\u002A\u002A*%
X216600000Y-187000000D03*
%TD*%
%TO.C,REF\u002A\u002A*%
X238249000Y-113000000D03*
%TD*%
%TO.C,REF\u002A\u002A*%
X231688499Y-113000000D03*
%TD*%
%TO.C,REF\u002A\u002A*%
X213000000Y-130312999D03*
%TD*%
%TO.C,REF\u002A\u002A*%
X204062500Y-105000000D03*
%TD*%
%TO.C,REF\u002A\u002A*%
X175000000Y-87687000D03*
%TD*%
%TO.C,REF\u002A\u002A*%
X184813000Y-181000000D03*
%TD*%
%TO.C,REF\u002A\u002A*%
X250937999Y-189000000D03*
%TD*%
%TO.C,REF\u002A\u002A*%
X238249000Y-181000000D03*
%TD*%
%TO.C,REF\u002A\u002A*%
X259000000Y-203686500D03*
%TD*%
%TO.C,REF\u002A\u002A*%
X205813499Y-257000000D03*
%TD*%
%TO.C,REF\u002A\u002A*%
X259000000Y-207188499D03*
%TD*%
%TO.C,REF\u002A\u002A*%
X194000000Y-113000000D03*
%TD*%
%TO.C,REF\u002A\u002A*%
X217400000Y-183000000D03*
%TD*%
%TO.C,REF\u002A\u002A*%
X250937999Y-181000000D03*
%TD*%
%TO.C,REF\u002A\u002A*%
X248311500Y-37000000D03*
%TD*%
%TO.C,REF\u002A\u002A*%
X219000000Y-187000000D03*
%TD*%
%TO.C,REF\u002A\u002A*%
X250937999Y-257000000D03*
%TD*%
%TO.C,REF\u002A\u002A*%
X215800000Y-37000000D03*
%TD*%
%TO.C,REF\u002A\u002A*%
X221000000Y-164562500D03*
%TD*%
%TO.C,REF\u002A\u002A*%
X251813499Y-37000000D03*
%TD*%
%TO.C,REF\u002A\u002A*%
X240875499Y-257000000D03*
%TD*%
%TO.C,REF\u002A\u002A*%
X175000000Y-183000000D03*
%TD*%
%TO.C,REF\u002A\u002A*%
X204937999Y-113000000D03*
%TD*%
%TO.C,REF\u002A\u002A*%
X240875499Y-105000000D03*
%TD*%
%TO.C,REF\u002A\u002A*%
X259000000Y-86811500D03*
%TD*%
%TO.C,REF\u002A\u002A*%
X259000000Y-263166666D03*
%TD*%
%TO.C,REF\u002A\u002A*%
X249187000Y-257000000D03*
%TD*%
%TO.C,REF\u002A\u002A*%
X215000000Y-183800000D03*
%TD*%
%TO.C,REF\u002A\u002A*%
X241750999Y-37000000D03*
%TD*%
%TO.C,REF\u002A\u002A*%
X213000000Y-146124500D03*
%TD*%
%TO.C,REF\u002A\u002A*%
X185688500Y-257000000D03*
%TD*%
%TO.C,REF\u002A\u002A*%
X259000000Y-184600000D03*
%TD*%
%TO.C,REF\u002A\u002A*%
X259000000Y-238811500D03*
%TD*%
%TO.C,REF\u002A\u002A*%
X231688499Y-189000000D03*
%TD*%
%TO.C,REF\u002A\u002A*%
X205813499Y-105000000D03*
%TD*%
%TO.C,REF\u002A\u002A*%
X204062500Y-113000000D03*
%TD*%
%TO.C,REF\u002A\u002A*%
X251813499Y-181000000D03*
%TD*%
%TO.C,REF\u002A\u002A*%
X221000000Y-90313499D03*
%TD*%
%TO.C,REF\u002A\u002A*%
X219000000Y-183800000D03*
%TD*%
%TO.C,REF\u002A\u002A*%
X240875499Y-181000000D03*
%TD*%
%TO.C,REF\u002A\u002A*%
X241750999Y-181000000D03*
%TD*%
%TO.C,REF\u002A\u002A*%
X259000000Y-205437500D03*
%TD*%
%TO.C,REF\u002A\u002A*%
X221000000Y-131188499D03*
%TD*%
%TO.C,REF\u002A\u002A*%
X221000000Y-70124501D03*
%TD*%
D11*
%TO.C,H1002*%
X189000000Y-243400000D03*
X187302944Y-242697056D03*
X190697056Y-242697056D03*
X186600000Y-241000000D03*
D12*
X189000000Y-241000000D03*
D11*
X191400000Y-241000000D03*
X187302944Y-239302944D03*
X190697056Y-239302944D03*
X189000000Y-238600000D03*
%TD*%
%TO.C,H1002*%
X235000000Y-243400000D03*
X233302944Y-242697056D03*
X236697056Y-242697056D03*
X232600000Y-241000000D03*
D12*
X235000000Y-241000000D03*
D11*
X237400000Y-241000000D03*
X233302944Y-239302944D03*
X236697056Y-239302944D03*
X235000000Y-238600000D03*
%TD*%
%TO.C,H1002*%
X189000000Y-167400000D03*
X187302944Y-166697056D03*
X190697056Y-166697056D03*
X186600000Y-165000000D03*
D12*
X189000000Y-165000000D03*
D11*
X191400000Y-165000000D03*
X187302944Y-163302944D03*
X190697056Y-163302944D03*
X189000000Y-162600000D03*
%TD*%
%TO.C,H1002*%
X235000000Y-167400000D03*
X233302944Y-166697056D03*
X236697056Y-166697056D03*
X232600000Y-165000000D03*
D12*
X235000000Y-165000000D03*
D11*
X237400000Y-165000000D03*
X233302944Y-163302944D03*
X236697056Y-163302944D03*
X235000000Y-162600000D03*
%TD*%
%TO.C,H1002*%
X189000000Y-91400000D03*
X187302944Y-90697056D03*
X190697056Y-90697056D03*
X186600000Y-89000000D03*
D12*
X189000000Y-89000000D03*
D11*
X191400000Y-89000000D03*
X187302944Y-87302944D03*
X190697056Y-87302944D03*
X189000000Y-86600000D03*
%TD*%
%TO.C,H1002*%
X235000000Y-91400000D03*
X233302944Y-90697056D03*
X236697056Y-90697056D03*
X232600000Y-89000000D03*
D12*
X235000000Y-89000000D03*
D11*
X237400000Y-89000000D03*
X233302944Y-87302944D03*
X236697056Y-87302944D03*
X235000000Y-86600000D03*
%TD*%
D16*
%TO.C,REF\u002A\u002A*%
X215000000Y-111000000D03*
%TD*%
%TO.C,REF\u002A\u002A*%
X182186501Y-189000000D03*
%TD*%
%TO.C,REF\u002A\u002A*%
X194000000Y-181000000D03*
%TD*%
%TO.C,REF\u002A\u002A*%
X259000000Y-222124500D03*
%TD*%
%TO.C,REF\u002A\u002A*%
X213000000Y-203686500D03*
%TD*%
%TO.C,REF\u002A\u002A*%
X204062500Y-257000000D03*
%TD*%
%TO.C,REF\u002A\u002A*%
X221000000Y-129437500D03*
%TD*%
%TO.C,REF\u002A\u002A*%
X221000000Y-221249000D03*
%TD*%
%TO.C,REF\u002A\u002A*%
X259000000Y-183800000D03*
%TD*%
%TO.C,REF\u002A\u002A*%
X175000000Y-31666667D03*
%TD*%
%TO.C,REF\u002A\u002A*%
X215800000Y-183000000D03*
%TD*%
%TO.C,REF\u002A\u002A*%
X183062001Y-37000000D03*
%TD*%
%TO.C,REF\u002A\u002A*%
X240000000Y-105000000D03*
%TD*%
%TO.C,REF\u002A\u002A*%
X215000000Y-187000000D03*
%TD*%
%TO.C,REF\u002A\u002A*%
X259000000Y-187000000D03*
%TD*%
%TO.C,REF\u002A\u002A*%
X183062001Y-189000000D03*
%TD*%
%TO.C,REF\u002A\u002A*%
X203187000Y-105000000D03*
%TD*%
%TO.C,REF\u002A\u002A*%
X175000000Y-259000000D03*
%TD*%
%TO.C,REF\u002A\u002A*%
X204062500Y-181000000D03*
%TD*%
%TO.C,REF\u002A\u002A*%
X215000000Y-185400000D03*
%TD*%
%TO.C,REF\u002A\u002A*%
X195750999Y-113000000D03*
%TD*%
%TO.C,REF\u002A\u002A*%
X240000000Y-113000000D03*
%TD*%
%TO.C,REF\u002A\u002A*%
X175000000Y-55188500D03*
%TD*%
%TO.C,REF\u002A\u002A*%
X193124501Y-181000000D03*
%TD*%
%TO.C,REF\u002A\u002A*%
X259000000Y-90313499D03*
%TD*%
%TO.C,REF\u002A\u002A*%
X259000000Y-206312999D03*
%TD*%
%TO.C,REF\u002A\u002A*%
X175000000Y-205437500D03*
%TD*%
%TO.C,REF\u002A\u002A*%
X193124501Y-37000000D03*
%TD*%
D13*
%TO.C,MK1407*%
X184350000Y-227650000D03*
%TD*%
%TO.C,MK1407*%
X230350000Y-227650000D03*
%TD*%
%TO.C,MK1407*%
X184350000Y-151650000D03*
%TD*%
%TO.C,MK1407*%
X230350000Y-151650000D03*
%TD*%
%TO.C,MK1407*%
X184350000Y-75650000D03*
%TD*%
%TO.C,MK1407*%
X230350000Y-75650000D03*
%TD*%
D16*
%TO.C,REF\u002A\u002A*%
X175000000Y-147875499D03*
%TD*%
%TO.C,REF\u002A\u002A*%
X218200000Y-183000000D03*
%TD*%
%TO.C,REF\u002A\u002A*%
X182186501Y-181000000D03*
%TD*%
%TO.C,REF\u002A\u002A*%
X203187000Y-113000000D03*
%TD*%
%TO.C,REF\u002A\u002A*%
X249187000Y-37000000D03*
%TD*%
%TO.C,REF\u002A\u002A*%
X175000000Y-111000000D03*
%TD*%
%TO.C,REF\u002A\u002A*%
X213000000Y-71875499D03*
%TD*%
%TO.C,REF\u002A\u002A*%
X175000000Y-72750999D03*
%TD*%
%TO.C,REF\u002A\u002A*%
X228186500Y-181000000D03*
%TD*%
%TO.C,REF\u002A\u002A*%
X239124500Y-113000000D03*
%TD*%
%TO.C,REF\u002A\u002A*%
X175000000Y-148750999D03*
%TD*%
%TO.C,REF\u002A\u002A*%
X259000000Y-51686501D03*
%TD*%
%TO.C,REF\u002A\u002A*%
X183062001Y-257000000D03*
%TD*%
%TO.C,REF\u002A\u002A*%
X259000000Y-30833334D03*
%TD*%
%TO.C,REF\u002A\u002A*%
X218200000Y-111000000D03*
%TD*%
%TO.C,REF\u002A\u002A*%
X228186500Y-257000000D03*
%TD*%
%TO.C,REF\u002A\u002A*%
X218200000Y-37000000D03*
%TD*%
D13*
%TO.C,MK1406*%
X184350000Y-218350000D03*
%TD*%
%TO.C,MK1406*%
X230350000Y-218350000D03*
%TD*%
%TO.C,MK1406*%
X184350000Y-142350000D03*
%TD*%
%TO.C,MK1406*%
X230350000Y-142350000D03*
%TD*%
%TO.C,MK1406*%
X184350000Y-66350000D03*
%TD*%
%TO.C,MK1406*%
X230350000Y-66350000D03*
%TD*%
D16*
%TO.C,REF\u002A\u002A*%
X229937500Y-181000000D03*
%TD*%
%TO.C,REF\u002A\u002A*%
X175000000Y-69249001D03*
%TD*%
%TO.C,REF\u002A\u002A*%
X218200000Y-107000000D03*
%TD*%
%TO.C,REF\u002A\u002A*%
X259000000Y-107000000D03*
%TD*%
%TO.C,REF\u002A\u002A*%
X182186501Y-37000000D03*
%TD*%
%TO.C,REF\u002A\u002A*%
X221000000Y-147000000D03*
%TD*%
%TO.C,REF\u002A\u002A*%
X215000000Y-187000000D03*
%TD*%
%TO.C,REF\u002A\u002A*%
X221000000Y-162811500D03*
%TD*%
%TO.C,REF\u002A\u002A*%
X175000000Y-242313499D03*
%TD*%
%TO.C,REF\u002A\u002A*%
X213000000Y-166313499D03*
%TD*%
%TO.C,REF\u002A\u002A*%
X221000000Y-205437500D03*
%TD*%
%TO.C,REF\u002A\u002A*%
X249187000Y-189000000D03*
%TD*%
%TO.C,REF\u002A\u002A*%
X218200000Y-187000000D03*
%TD*%
%TO.C,REF\u002A\u002A*%
X205813499Y-37000000D03*
%TD*%
%TO.C,REF\u002A\u002A*%
X175000000Y-35000000D03*
%TD*%
%TO.C,REF\u002A\u002A*%
X215000000Y-107000000D03*
%TD*%
%TO.C,REF\u002A\u002A*%
X175000000Y-110200000D03*
%TD*%
%TO.C,REF\u002A\u002A*%
X215000000Y-184600000D03*
%TD*%
%TO.C,REF\u002A\u002A*%
X175000000Y-259833333D03*
%TD*%
%TO.C,REF\u002A\u002A*%
X221000000Y-223875499D03*
%TD*%
%TO.C,REF\u002A\u002A*%
X219000000Y-109400000D03*
%TD*%
%TO.C,REF\u002A\u002A*%
X219000000Y-257000000D03*
%TD*%
%TO.C,REF\u002A\u002A*%
X175000000Y-128562000D03*
%TD*%
%TO.C,REF\u002A\u002A*%
X230812999Y-113000000D03*
%TD*%
%TO.C,REF\u002A\u002A*%
X184813000Y-37000000D03*
%TD*%
%TO.C,REF\u002A\u002A*%
X259000000Y-148750999D03*
%TD*%
%TO.C,REF\u002A\u002A*%
X259000000Y-165437999D03*
%TD*%
%TO.C,REF\u002A\u002A*%
X175000000Y-222124500D03*
%TD*%
%TO.C,REF\u002A\u002A*%
X194875499Y-257000000D03*
%TD*%
%TO.C,REF\u002A\u002A*%
X175000000Y-89437999D03*
%TD*%
%TO.C,REF\u002A\u002A*%
X183937500Y-37000000D03*
%TD*%
%TO.C,REF\u002A\u002A*%
X221000000Y-71000000D03*
%TD*%
%TO.C,REF\u002A\u002A*%
X221000000Y-241437999D03*
%TD*%
%TO.C,REF\u002A\u002A*%
X215800000Y-187000000D03*
%TD*%
%TO.C,REF\u002A\u002A*%
X219000000Y-107000000D03*
%TD*%
%TO.C,REF\u002A\u002A*%
X230812999Y-189000000D03*
%TD*%
%TO.C,REF\u002A\u002A*%
X183937500Y-257000000D03*
%TD*%
%TO.C,REF\u002A\u002A*%
X221000000Y-223000000D03*
%TD*%
%TO.C,REF\u002A\u002A*%
X204937999Y-105000000D03*
%TD*%
%TO.C,REF\u002A\u002A*%
X215000000Y-109400000D03*
%TD*%
%TO.C,REF\u002A\u002A*%
X248311500Y-113000000D03*
%TD*%
%TO.C,REF\u002A\u002A*%
X259000000Y-71875499D03*
%TD*%
%TO.C,REF\u002A\u002A*%
X221000000Y-54313000D03*
%TD*%
%TO.C,REF\u002A\u002A*%
X259000000Y-110200000D03*
%TD*%
%TO.C,REF\u002A\u002A*%
X229937500Y-37000000D03*
%TD*%
%TO.C,REF\u002A\u002A*%
X203187000Y-181000000D03*
%TD*%
%TO.C,REF\u002A\u002A*%
X248311500Y-105000000D03*
%TD*%
%TO.C,REF\u002A\u002A*%
X192249001Y-37000000D03*
%TD*%
%TO.C,REF\u002A\u002A*%
X231688499Y-105000000D03*
%TD*%
%TO.C,REF\u002A\u002A*%
X213000000Y-54313000D03*
%TD*%
%TO.C,REF\u002A\u002A*%
X259000000Y-204562000D03*
%TD*%
%TO.C,REF\u002A\u002A*%
X259000000Y-186200000D03*
%TD*%
%TO.C,REF\u002A\u002A*%
X259000000Y-52562001D03*
%TD*%
%TO.C,REF\u002A\u002A*%
X213000000Y-71000000D03*
%TD*%
%TO.C,REF\u002A\u002A*%
X175000000Y-70124501D03*
%TD*%
%TO.C,REF\u002A\u002A*%
X194875499Y-105000000D03*
%TD*%
%TO.C,REF\u002A\u002A*%
X230812999Y-181000000D03*
%TD*%
%TO.C,REF\u002A\u002A*%
X250062500Y-189000000D03*
%TD*%
%TO.C,REF\u002A\u002A*%
X213000000Y-242313499D03*
%TD*%
%TO.C,REF\u002A\u002A*%
X192249001Y-181000000D03*
%TD*%
%TO.C,REF\u002A\u002A*%
X250062500Y-113000000D03*
%TD*%
D13*
%TO.C,MK1408*%
X193650000Y-218350000D03*
%TD*%
%TO.C,MK1408*%
X239650000Y-218350000D03*
%TD*%
%TO.C,MK1408*%
X193650000Y-142350000D03*
%TD*%
%TO.C,MK1408*%
X239650000Y-142350000D03*
%TD*%
%TO.C,MK1408*%
X193650000Y-66350000D03*
%TD*%
%TO.C,MK1408*%
X239650000Y-66350000D03*
%TD*%
D16*
%TO.C,REF\u002A\u002A*%
X184813000Y-189000000D03*
%TD*%
%TO.C,REF\u002A\u002A*%
X185688500Y-37000000D03*
%TD*%
%TO.C,REF\u002A\u002A*%
X175000000Y-107800000D03*
%TD*%
%TO.C,REF\u002A\u002A*%
X238249000Y-189000000D03*
%TD*%
%TO.C,REF\u002A\u002A*%
X221000000Y-69249001D03*
%TD*%
%TO.C,REF\u002A\u002A*%
X175000000Y-185400000D03*
%TD*%
%TO.C,REF\u002A\u002A*%
X195750999Y-181000000D03*
%TD*%
%TO.C,REF\u002A\u002A*%
X239124500Y-37000000D03*
%TD*%
%TO.C,REF\u002A\u002A*%
X194000000Y-257000000D03*
%TD*%
%TO.C,REF\u002A\u002A*%
X194875499Y-181000000D03*
%TD*%
%TO.C,REF\u002A\u002A*%
X194875499Y-113000000D03*
%TD*%
%TO.C,REF\u002A\u002A*%
X259000000Y-33333334D03*
%TD*%
%TO.C,REF\u002A\u002A*%
X241750999Y-189000000D03*
%TD*%
%TO.C,REF\u002A\u002A*%
X219000000Y-110200000D03*
%TD*%
%TO.C,REF\u002A\u002A*%
X259000000Y-35000000D03*
%TD*%
%TO.C,REF\u002A\u002A*%
X193124501Y-113000000D03*
%TD*%
%TO.C,REF\u002A\u002A*%
X213000000Y-206312999D03*
%TD*%
%TO.C,REF\u002A\u002A*%
X202311500Y-181000000D03*
%TD*%
%TO.C,REF\u002A\u002A*%
X259000000Y-54313000D03*
%TD*%
%TO.C,REF\u002A\u002A*%
X175000000Y-51686501D03*
%TD*%
%TO.C,REF\u002A\u002A*%
X213000000Y-88562500D03*
%TD*%
%TO.C,REF\u002A\u002A*%
X175000000Y-71875499D03*
%TD*%
%TO.C,REF\u002A\u002A*%
X184813000Y-113000000D03*
%TD*%
%TO.C,REF\u002A\u002A*%
X240000000Y-37000000D03*
%TD*%
%TO.C,REF\u002A\u002A*%
X251813499Y-189000000D03*
%TD*%
%TO.C,REF\u002A\u002A*%
X215000000Y-110200000D03*
%TD*%
%TO.C,REF\u002A\u002A*%
X213000000Y-224750999D03*
%TD*%
%TO.C,REF\u002A\u002A*%
X259000000Y-55188500D03*
%TD*%
%TO.C,REF\u002A\u002A*%
X219000000Y-183000000D03*
%TD*%
%TO.C,REF\u002A\u002A*%
X213000000Y-204562000D03*
%TD*%
%TO.C,REF\u002A\u002A*%
X231688499Y-257000000D03*
%TD*%
%TO.C,REF\u002A\u002A*%
X175000000Y-130312999D03*
%TD*%
%TO.C,REF\u002A\u002A*%
X229062000Y-105000000D03*
%TD*%
%TO.C,REF\u002A\u002A*%
X175000000Y-54313000D03*
%TD*%
%TO.C,REF\u002A\u002A*%
X185688500Y-181000000D03*
%TD*%
%TO.C,REF\u002A\u002A*%
X216600000Y-257000000D03*
%TD*%
%TO.C,REF\u002A\u002A*%
X221000000Y-204562000D03*
%TD*%
%TO.C,REF\u002A\u002A*%
X183062001Y-105000000D03*
%TD*%
%TO.C,REF\u002A\u002A*%
X219000000Y-185400000D03*
%TD*%
%TO.C,REF\u002A\u002A*%
X259000000Y-87687000D03*
%TD*%
%TO.C,REF\u002A\u002A*%
X221000000Y-240562500D03*
%TD*%
%TO.C,REF\u002A\u002A*%
X240875499Y-113000000D03*
%TD*%
%TO.C,REF\u002A\u002A*%
X213000000Y-238811500D03*
%TD*%
%TO.C,REF\u002A\u002A*%
X221000000Y-128562000D03*
%TD*%
%TO.C,REF\u002A\u002A*%
X259000000Y-223875499D03*
%TD*%
%TO.C,REF\u002A\u002A*%
X216600000Y-37000000D03*
%TD*%
%TO.C,REF\u002A\u002A*%
X259000000Y-221249000D03*
%TD*%
%TO.C,REF\u002A\u002A*%
X175000000Y-223000000D03*
%TD*%
%TO.C,REF\u002A\u002A*%
X203187000Y-257000000D03*
%TD*%
%TO.C,REF\u002A\u002A*%
X259000000Y-241437999D03*
%TD*%
%TO.C,REF\u002A\u002A*%
X221000000Y-242313499D03*
%TD*%
%TO.C,REF\u002A\u002A*%
X219000000Y-186200000D03*
%TD*%
%TO.C,REF\u002A\u002A*%
X259000000Y-183000000D03*
%TD*%
%TO.C,REF\u002A\u002A*%
X184813000Y-105000000D03*
%TD*%
%TO.C,REF\u002A\u002A*%
X251813499Y-257000000D03*
%TD*%
G36*
X91994089Y-117000004D02*
G01*
X92005958Y-117000154D01*
X92006580Y-117000166D01*
X92240083Y-117006083D01*
X92241324Y-117006130D01*
X92265102Y-117007336D01*
X92266341Y-117007414D01*
X92492729Y-117024654D01*
X92493963Y-117024764D01*
X92517682Y-117027175D01*
X92518918Y-117027317D01*
X92744039Y-117055989D01*
X92745266Y-117056161D01*
X92768870Y-117059776D01*
X92770097Y-117059980D01*
X92993513Y-117100024D01*
X92994728Y-117100257D01*
X93018100Y-117105058D01*
X93019316Y-117105324D01*
X93240395Y-117156627D01*
X93241598Y-117156922D01*
X93264700Y-117162902D01*
X93265901Y-117163230D01*
X93484119Y-117225670D01*
X93485307Y-117226026D01*
X93508110Y-117233180D01*
X93509290Y-117233567D01*
X93724057Y-117306976D01*
X93725227Y-117307392D01*
X93747591Y-117315675D01*
X93748750Y-117316121D01*
X93959546Y-117400324D01*
X93960691Y-117400799D01*
X93982574Y-117410189D01*
X93983710Y-117410693D01*
X94190031Y-117505491D01*
X94191153Y-117506024D01*
X94212534Y-117516512D01*
X94213641Y-117517072D01*
X94414859Y-117622180D01*
X94415951Y-117622769D01*
X94436750Y-117634313D01*
X94437829Y-117634929D01*
X94633534Y-117750135D01*
X94634596Y-117750779D01*
X94654715Y-117763320D01*
X94655759Y-117763989D01*
X94845362Y-117888947D01*
X94846390Y-117889643D01*
X94865956Y-117903261D01*
X94866966Y-117903984D01*
X95049906Y-118038320D01*
X95050896Y-118039066D01*
X95069737Y-118053649D01*
X95070710Y-118054422D01*
X95246622Y-118197859D01*
X95247571Y-118198653D01*
X95265653Y-118214173D01*
X95266588Y-118214996D01*
X95435077Y-118367220D01*
X95435988Y-118368065D01*
X95453277Y-118384500D01*
X95454165Y-118385366D01*
X95614632Y-118545833D01*
X95615498Y-118546721D01*
X95631933Y-118564010D01*
X95632778Y-118564921D01*
X95785002Y-118733410D01*
X95785825Y-118734345D01*
X95801345Y-118752427D01*
X95802139Y-118753376D01*
X95945576Y-118929288D01*
X95946349Y-118930261D01*
X95960932Y-118949102D01*
X95961678Y-118950092D01*
X96096014Y-119133032D01*
X96096737Y-119134042D01*
X96110355Y-119153608D01*
X96111051Y-119154636D01*
X96236009Y-119344239D01*
X96236678Y-119345283D01*
X96249219Y-119365402D01*
X96249863Y-119366464D01*
X96365069Y-119562169D01*
X96365685Y-119563248D01*
X96377229Y-119584047D01*
X96377818Y-119585139D01*
X96482926Y-119786357D01*
X96483486Y-119787463D01*
X96493963Y-119808820D01*
X96494496Y-119809943D01*
X96589305Y-120016288D01*
X96589809Y-120017424D01*
X96599199Y-120039307D01*
X96599674Y-120040452D01*
X96683877Y-120251248D01*
X96684322Y-120252406D01*
X96692598Y-120274750D01*
X96693015Y-120275921D01*
X96766431Y-120490708D01*
X96766817Y-120491886D01*
X96773965Y-120514666D01*
X96774322Y-120515856D01*
X96836768Y-120734097D01*
X96837096Y-120735298D01*
X96843076Y-120758400D01*
X96843371Y-120759603D01*
X96894674Y-120980682D01*
X96894940Y-120981898D01*
X96899741Y-121005270D01*
X96899974Y-121006485D01*
X96940018Y-121229901D01*
X96940222Y-121231128D01*
X96943837Y-121254732D01*
X96944009Y-121255959D01*
X96972681Y-121481080D01*
X96972823Y-121482316D01*
X96975234Y-121506035D01*
X96975344Y-121507269D01*
X96992584Y-121733657D01*
X96992662Y-121734896D01*
X96993868Y-121758674D01*
X96993915Y-121759915D01*
X96999832Y-121993394D01*
X96999844Y-121994013D01*
X96999996Y-122005986D01*
X97000000Y-122006608D01*
X97000000Y-122749359D01*
X96999078Y-122758819D01*
X96983227Y-122839380D01*
X96976061Y-122856887D01*
X96933549Y-122921381D01*
X96920283Y-122934870D01*
X96856511Y-122978448D01*
X96839124Y-122985906D01*
X96758833Y-123003097D01*
X96749391Y-123004176D01*
X91259045Y-123095682D01*
X91249370Y-123094882D01*
X91166911Y-123079726D01*
X91148972Y-123072556D01*
X91082951Y-123029430D01*
X91069177Y-123015884D01*
X91024955Y-122950588D01*
X91017488Y-122932770D01*
X91000962Y-122850582D01*
X91000000Y-122840923D01*
X91000000Y-117254823D01*
X91000941Y-117245264D01*
X91017127Y-117163890D01*
X91024444Y-117146226D01*
X91067808Y-117081327D01*
X91081327Y-117067808D01*
X91146226Y-117024444D01*
X91163890Y-117017127D01*
X91245264Y-117000941D01*
X91254823Y-117000000D01*
X91993470Y-117000000D01*
X91994089Y-117000004D01*
G37*
G36*
X91994089Y-41000004D02*
G01*
X92005958Y-41000154D01*
X92006580Y-41000166D01*
X92240083Y-41006083D01*
X92241324Y-41006130D01*
X92265102Y-41007336D01*
X92266341Y-41007414D01*
X92492729Y-41024654D01*
X92493963Y-41024764D01*
X92517682Y-41027175D01*
X92518918Y-41027317D01*
X92744039Y-41055989D01*
X92745266Y-41056161D01*
X92768870Y-41059776D01*
X92770097Y-41059980D01*
X92993513Y-41100024D01*
X92994728Y-41100257D01*
X93018100Y-41105058D01*
X93019316Y-41105324D01*
X93240395Y-41156627D01*
X93241598Y-41156922D01*
X93264700Y-41162902D01*
X93265901Y-41163230D01*
X93484119Y-41225670D01*
X93485307Y-41226026D01*
X93508110Y-41233180D01*
X93509290Y-41233567D01*
X93724057Y-41306976D01*
X93725227Y-41307392D01*
X93747591Y-41315675D01*
X93748750Y-41316121D01*
X93959546Y-41400324D01*
X93960691Y-41400799D01*
X93982574Y-41410189D01*
X93983710Y-41410693D01*
X94190031Y-41505491D01*
X94191153Y-41506024D01*
X94212534Y-41516512D01*
X94213641Y-41517072D01*
X94414859Y-41622180D01*
X94415951Y-41622769D01*
X94436750Y-41634313D01*
X94437829Y-41634929D01*
X94633534Y-41750135D01*
X94634596Y-41750779D01*
X94654715Y-41763320D01*
X94655759Y-41763989D01*
X94845362Y-41888947D01*
X94846390Y-41889643D01*
X94865956Y-41903261D01*
X94866966Y-41903984D01*
X95049906Y-42038320D01*
X95050896Y-42039066D01*
X95069737Y-42053649D01*
X95070710Y-42054422D01*
X95246622Y-42197859D01*
X95247571Y-42198653D01*
X95265653Y-42214173D01*
X95266588Y-42214996D01*
X95435077Y-42367220D01*
X95435988Y-42368065D01*
X95453277Y-42384500D01*
X95454165Y-42385366D01*
X95614632Y-42545833D01*
X95615498Y-42546721D01*
X95631933Y-42564010D01*
X95632778Y-42564921D01*
X95785002Y-42733410D01*
X95785825Y-42734345D01*
X95801345Y-42752427D01*
X95802139Y-42753376D01*
X95945576Y-42929288D01*
X95946349Y-42930261D01*
X95960932Y-42949102D01*
X95961678Y-42950092D01*
X96096014Y-43133032D01*
X96096737Y-43134042D01*
X96110355Y-43153608D01*
X96111051Y-43154636D01*
X96236009Y-43344239D01*
X96236678Y-43345283D01*
X96249219Y-43365402D01*
X96249863Y-43366464D01*
X96365069Y-43562169D01*
X96365685Y-43563248D01*
X96377229Y-43584047D01*
X96377818Y-43585139D01*
X96482926Y-43786357D01*
X96483486Y-43787463D01*
X96493963Y-43808820D01*
X96494496Y-43809943D01*
X96589305Y-44016288D01*
X96589809Y-44017424D01*
X96599199Y-44039307D01*
X96599674Y-44040452D01*
X96683877Y-44251248D01*
X96684322Y-44252406D01*
X96692598Y-44274750D01*
X96693015Y-44275921D01*
X96766431Y-44490708D01*
X96766817Y-44491886D01*
X96773965Y-44514666D01*
X96774322Y-44515856D01*
X96836768Y-44734097D01*
X96837096Y-44735298D01*
X96843076Y-44758400D01*
X96843371Y-44759603D01*
X96894674Y-44980682D01*
X96894940Y-44981898D01*
X96899741Y-45005270D01*
X96899974Y-45006485D01*
X96940018Y-45229901D01*
X96940222Y-45231128D01*
X96943837Y-45254732D01*
X96944009Y-45255959D01*
X96972681Y-45481080D01*
X96972823Y-45482316D01*
X96975234Y-45506035D01*
X96975344Y-45507269D01*
X96992584Y-45733657D01*
X96992662Y-45734896D01*
X96993868Y-45758674D01*
X96993915Y-45759915D01*
X96999832Y-45993394D01*
X96999844Y-45994013D01*
X96999996Y-46005986D01*
X97000000Y-46006608D01*
X97000000Y-46749359D01*
X96999078Y-46758819D01*
X96983227Y-46839380D01*
X96976061Y-46856887D01*
X96933549Y-46921381D01*
X96920283Y-46934870D01*
X96856511Y-46978448D01*
X96839124Y-46985906D01*
X96758833Y-47003097D01*
X96749391Y-47004176D01*
X91259045Y-47095682D01*
X91249370Y-47094882D01*
X91166911Y-47079726D01*
X91148972Y-47072556D01*
X91082951Y-47029430D01*
X91069177Y-47015884D01*
X91024955Y-46950588D01*
X91017488Y-46932770D01*
X91000962Y-46850582D01*
X91000000Y-46840923D01*
X91000000Y-41254823D01*
X91000941Y-41245264D01*
X91017127Y-41163890D01*
X91024444Y-41146226D01*
X91067808Y-41081327D01*
X91081327Y-41067808D01*
X91146226Y-41024444D01*
X91163890Y-41017127D01*
X91245264Y-41000941D01*
X91254823Y-41000000D01*
X91993470Y-41000000D01*
X91994089Y-41000004D01*
G37*
G36*
X91994089Y-193000004D02*
G01*
X92005958Y-193000154D01*
X92006580Y-193000166D01*
X92240083Y-193006083D01*
X92241324Y-193006130D01*
X92265102Y-193007336D01*
X92266341Y-193007414D01*
X92492729Y-193024654D01*
X92493963Y-193024764D01*
X92517682Y-193027175D01*
X92518918Y-193027317D01*
X92744039Y-193055989D01*
X92745266Y-193056161D01*
X92768870Y-193059776D01*
X92770097Y-193059980D01*
X92993513Y-193100024D01*
X92994728Y-193100257D01*
X93018100Y-193105058D01*
X93019316Y-193105324D01*
X93240395Y-193156627D01*
X93241598Y-193156922D01*
X93264700Y-193162902D01*
X93265901Y-193163230D01*
X93484119Y-193225670D01*
X93485307Y-193226026D01*
X93508110Y-193233180D01*
X93509290Y-193233567D01*
X93724057Y-193306976D01*
X93725227Y-193307392D01*
X93747591Y-193315675D01*
X93748750Y-193316121D01*
X93959546Y-193400324D01*
X93960691Y-193400799D01*
X93982574Y-193410189D01*
X93983710Y-193410693D01*
X94190031Y-193505491D01*
X94191153Y-193506024D01*
X94212534Y-193516512D01*
X94213641Y-193517072D01*
X94414859Y-193622180D01*
X94415951Y-193622769D01*
X94436750Y-193634313D01*
X94437829Y-193634929D01*
X94633534Y-193750135D01*
X94634596Y-193750779D01*
X94654715Y-193763320D01*
X94655759Y-193763989D01*
X94845362Y-193888947D01*
X94846390Y-193889643D01*
X94865956Y-193903261D01*
X94866966Y-193903984D01*
X95049906Y-194038320D01*
X95050896Y-194039066D01*
X95069737Y-194053649D01*
X95070710Y-194054422D01*
X95246622Y-194197859D01*
X95247571Y-194198653D01*
X95265653Y-194214173D01*
X95266588Y-194214996D01*
X95435077Y-194367220D01*
X95435988Y-194368065D01*
X95453277Y-194384500D01*
X95454165Y-194385366D01*
X95614632Y-194545833D01*
X95615498Y-194546721D01*
X95631933Y-194564010D01*
X95632778Y-194564921D01*
X95785002Y-194733410D01*
X95785825Y-194734345D01*
X95801345Y-194752427D01*
X95802139Y-194753376D01*
X95945576Y-194929288D01*
X95946349Y-194930261D01*
X95960932Y-194949102D01*
X95961678Y-194950092D01*
X96096014Y-195133032D01*
X96096737Y-195134042D01*
X96110355Y-195153608D01*
X96111051Y-195154636D01*
X96236009Y-195344239D01*
X96236678Y-195345283D01*
X96249219Y-195365402D01*
X96249863Y-195366464D01*
X96365069Y-195562169D01*
X96365685Y-195563248D01*
X96377229Y-195584047D01*
X96377818Y-195585139D01*
X96482926Y-195786357D01*
X96483486Y-195787463D01*
X96493963Y-195808820D01*
X96494496Y-195809943D01*
X96589305Y-196016288D01*
X96589809Y-196017424D01*
X96599199Y-196039307D01*
X96599674Y-196040452D01*
X96683877Y-196251248D01*
X96684322Y-196252406D01*
X96692598Y-196274750D01*
X96693015Y-196275921D01*
X96766431Y-196490708D01*
X96766817Y-196491886D01*
X96773965Y-196514666D01*
X96774322Y-196515856D01*
X96836768Y-196734097D01*
X96837096Y-196735298D01*
X96843076Y-196758400D01*
X96843371Y-196759603D01*
X96894674Y-196980682D01*
X96894940Y-196981898D01*
X96899741Y-197005270D01*
X96899974Y-197006485D01*
X96940018Y-197229901D01*
X96940222Y-197231128D01*
X96943837Y-197254732D01*
X96944009Y-197255959D01*
X96972681Y-197481080D01*
X96972823Y-197482316D01*
X96975234Y-197506035D01*
X96975344Y-197507269D01*
X96992584Y-197733657D01*
X96992662Y-197734896D01*
X96993868Y-197758674D01*
X96993915Y-197759915D01*
X96999832Y-197993394D01*
X96999844Y-197994013D01*
X96999996Y-198005986D01*
X97000000Y-198006608D01*
X97000000Y-198749359D01*
X96999078Y-198758819D01*
X96983227Y-198839380D01*
X96976061Y-198856887D01*
X96933549Y-198921381D01*
X96920283Y-198934870D01*
X96856511Y-198978448D01*
X96839124Y-198985906D01*
X96758833Y-199003097D01*
X96749391Y-199004176D01*
X91259045Y-199095682D01*
X91249370Y-199094882D01*
X91166911Y-199079726D01*
X91148972Y-199072556D01*
X91082951Y-199029430D01*
X91069177Y-199015884D01*
X91024955Y-198950588D01*
X91017488Y-198932770D01*
X91000962Y-198850582D01*
X91000000Y-198840923D01*
X91000000Y-193254823D01*
X91000941Y-193245264D01*
X91017127Y-193163890D01*
X91024444Y-193146226D01*
X91067808Y-193081327D01*
X91081327Y-193067808D01*
X91146226Y-193024444D01*
X91163890Y-193017127D01*
X91245264Y-193000941D01*
X91254823Y-193000000D01*
X91993470Y-193000000D01*
X91994089Y-193000004D01*
G37*
G36*
X161484976Y-193000016D02*
G01*
X161494380Y-193000254D01*
X161496859Y-193000379D01*
X161506292Y-193001097D01*
X161507527Y-193001207D01*
X161517672Y-193002238D01*
X161518909Y-193002380D01*
X161744074Y-193031058D01*
X161745303Y-193031230D01*
X161768914Y-193034847D01*
X161770139Y-193035051D01*
X161993538Y-193075092D01*
X161994756Y-193075326D01*
X162018076Y-193080118D01*
X162019289Y-193080383D01*
X162240416Y-193131697D01*
X162241621Y-193131993D01*
X162264716Y-193137972D01*
X162265915Y-193138299D01*
X162484124Y-193200737D01*
X162485313Y-193201093D01*
X162508092Y-193208240D01*
X162509272Y-193208627D01*
X162724062Y-193282046D01*
X162725231Y-193282462D01*
X162747596Y-193290745D01*
X162748755Y-193291191D01*
X162959551Y-193375395D01*
X162960694Y-193375869D01*
X162982568Y-193385254D01*
X162983706Y-193385759D01*
X163189987Y-193480540D01*
X163191108Y-193481073D01*
X163212522Y-193491577D01*
X163213630Y-193492138D01*
X163414855Y-193597251D01*
X163415950Y-193597840D01*
X163436787Y-193609407D01*
X163437863Y-193610022D01*
X163633495Y-193725185D01*
X163634559Y-193725830D01*
X163654781Y-193738436D01*
X163655824Y-193739105D01*
X163845338Y-193864007D01*
X163846366Y-193864703D01*
X163865915Y-193878310D01*
X163866924Y-193879032D01*
X164049912Y-194013403D01*
X164050904Y-194014150D01*
X164069702Y-194028701D01*
X164070673Y-194029473D01*
X164246650Y-194172964D01*
X164247603Y-194173762D01*
X164265705Y-194189303D01*
X164266636Y-194190123D01*
X164435036Y-194342269D01*
X164435947Y-194343113D01*
X164453240Y-194359552D01*
X164454128Y-194360418D01*
X164614580Y-194520871D01*
X164615446Y-194521759D01*
X164631927Y-194539096D01*
X164632772Y-194540007D01*
X164784943Y-194708440D01*
X164785764Y-194709372D01*
X164801319Y-194727492D01*
X164802115Y-194728444D01*
X164945560Y-194904369D01*
X164946333Y-194905342D01*
X164960865Y-194924117D01*
X164961612Y-194925107D01*
X165096016Y-195108144D01*
X165096738Y-195109155D01*
X165110349Y-195128712D01*
X165111045Y-195129739D01*
X165235960Y-195319279D01*
X165236629Y-195320323D01*
X165249205Y-195340498D01*
X165249849Y-195341561D01*
X165365034Y-195537236D01*
X165365650Y-195538314D01*
X165377195Y-195559115D01*
X165377784Y-195560208D01*
X165482896Y-195761440D01*
X165483457Y-195762548D01*
X165493978Y-195783998D01*
X165494510Y-195785119D01*
X165589260Y-195991342D01*
X165589765Y-195992478D01*
X165599158Y-196014370D01*
X165599632Y-196015515D01*
X165683828Y-196226297D01*
X165684274Y-196227456D01*
X165692556Y-196249820D01*
X165692972Y-196250989D01*
X165766375Y-196465740D01*
X165766762Y-196466919D01*
X165773916Y-196489720D01*
X165774273Y-196490910D01*
X165836722Y-196709172D01*
X165837048Y-196710369D01*
X165843021Y-196733438D01*
X165843317Y-196734644D01*
X165894622Y-196955747D01*
X165894887Y-196956960D01*
X165899680Y-196980284D01*
X165899914Y-196981503D01*
X165939956Y-197204917D01*
X165940160Y-197206140D01*
X165943781Y-197229773D01*
X165943953Y-197231004D01*
X165972622Y-197456129D01*
X165972764Y-197457361D01*
X165975178Y-197481098D01*
X165975288Y-197482336D01*
X165992526Y-197708737D01*
X165992604Y-197709968D01*
X165993810Y-197733679D01*
X165993857Y-197734915D01*
X165999829Y-197968422D01*
X165999841Y-197969045D01*
X165999995Y-197981026D01*
X165999999Y-197981656D01*
X165999999Y-197991136D01*
X166000000Y-197991140D01*
X166000000Y-198749359D01*
X165999078Y-198758819D01*
X165983227Y-198839380D01*
X165976061Y-198856887D01*
X165933549Y-198921381D01*
X165920283Y-198934870D01*
X165856511Y-198978448D01*
X165839124Y-198985906D01*
X165758833Y-199003097D01*
X165749391Y-199004176D01*
X160259045Y-199095682D01*
X160249370Y-199094882D01*
X160166911Y-199079726D01*
X160148972Y-199072556D01*
X160082951Y-199029430D01*
X160069177Y-199015884D01*
X160024955Y-198950588D01*
X160017488Y-198932770D01*
X160000962Y-198850582D01*
X160000000Y-198840923D01*
X160000000Y-193254823D01*
X160000941Y-193245264D01*
X160017127Y-193163890D01*
X160024444Y-193146226D01*
X160067808Y-193081327D01*
X160081327Y-193067808D01*
X160146226Y-193024444D01*
X160163890Y-193017127D01*
X160245264Y-193000941D01*
X160254823Y-193000000D01*
X161483736Y-193000000D01*
X161484976Y-193000016D01*
G37*
G36*
X161484976Y-41000016D02*
G01*
X161494380Y-41000254D01*
X161496859Y-41000379D01*
X161506292Y-41001097D01*
X161507527Y-41001207D01*
X161517672Y-41002238D01*
X161518909Y-41002380D01*
X161744074Y-41031058D01*
X161745303Y-41031230D01*
X161768914Y-41034847D01*
X161770139Y-41035051D01*
X161993538Y-41075092D01*
X161994756Y-41075326D01*
X162018076Y-41080118D01*
X162019289Y-41080383D01*
X162240416Y-41131697D01*
X162241621Y-41131993D01*
X162264716Y-41137972D01*
X162265915Y-41138299D01*
X162484124Y-41200737D01*
X162485313Y-41201093D01*
X162508092Y-41208240D01*
X162509272Y-41208627D01*
X162724062Y-41282046D01*
X162725231Y-41282462D01*
X162747596Y-41290745D01*
X162748755Y-41291191D01*
X162959551Y-41375395D01*
X162960694Y-41375869D01*
X162982568Y-41385254D01*
X162983706Y-41385759D01*
X163189987Y-41480540D01*
X163191108Y-41481073D01*
X163212522Y-41491577D01*
X163213630Y-41492138D01*
X163414855Y-41597251D01*
X163415950Y-41597840D01*
X163436787Y-41609407D01*
X163437863Y-41610022D01*
X163633495Y-41725185D01*
X163634559Y-41725830D01*
X163654781Y-41738436D01*
X163655824Y-41739105D01*
X163845338Y-41864007D01*
X163846366Y-41864703D01*
X163865915Y-41878310D01*
X163866924Y-41879032D01*
X164049912Y-42013403D01*
X164050904Y-42014150D01*
X164069702Y-42028701D01*
X164070673Y-42029473D01*
X164246650Y-42172964D01*
X164247603Y-42173762D01*
X164265705Y-42189303D01*
X164266636Y-42190123D01*
X164435036Y-42342269D01*
X164435947Y-42343113D01*
X164453240Y-42359552D01*
X164454128Y-42360418D01*
X164614580Y-42520871D01*
X164615446Y-42521759D01*
X164631927Y-42539096D01*
X164632772Y-42540007D01*
X164784943Y-42708440D01*
X164785764Y-42709372D01*
X164801319Y-42727492D01*
X164802115Y-42728444D01*
X164945560Y-42904369D01*
X164946333Y-42905342D01*
X164960865Y-42924117D01*
X164961612Y-42925107D01*
X165096016Y-43108144D01*
X165096738Y-43109155D01*
X165110349Y-43128712D01*
X165111045Y-43129739D01*
X165235960Y-43319279D01*
X165236629Y-43320323D01*
X165249205Y-43340498D01*
X165249849Y-43341561D01*
X165365034Y-43537236D01*
X165365650Y-43538314D01*
X165377195Y-43559115D01*
X165377784Y-43560208D01*
X165482896Y-43761440D01*
X165483457Y-43762548D01*
X165493978Y-43783998D01*
X165494510Y-43785119D01*
X165589260Y-43991342D01*
X165589765Y-43992478D01*
X165599158Y-44014370D01*
X165599632Y-44015515D01*
X165683828Y-44226297D01*
X165684274Y-44227456D01*
X165692556Y-44249820D01*
X165692972Y-44250989D01*
X165766375Y-44465740D01*
X165766762Y-44466919D01*
X165773916Y-44489720D01*
X165774273Y-44490910D01*
X165836722Y-44709172D01*
X165837048Y-44710369D01*
X165843021Y-44733438D01*
X165843317Y-44734644D01*
X165894622Y-44955747D01*
X165894887Y-44956960D01*
X165899680Y-44980284D01*
X165899914Y-44981503D01*
X165939956Y-45204917D01*
X165940160Y-45206140D01*
X165943781Y-45229773D01*
X165943953Y-45231004D01*
X165972622Y-45456129D01*
X165972764Y-45457361D01*
X165975178Y-45481098D01*
X165975288Y-45482336D01*
X165992526Y-45708737D01*
X165992604Y-45709968D01*
X165993810Y-45733679D01*
X165993857Y-45734915D01*
X165999829Y-45968422D01*
X165999841Y-45969045D01*
X165999995Y-45981026D01*
X165999999Y-45981656D01*
X165999999Y-45991136D01*
X166000000Y-45991140D01*
X166000000Y-46749359D01*
X165999078Y-46758819D01*
X165983227Y-46839380D01*
X165976061Y-46856887D01*
X165933549Y-46921381D01*
X165920283Y-46934870D01*
X165856511Y-46978448D01*
X165839124Y-46985906D01*
X165758833Y-47003097D01*
X165749391Y-47004176D01*
X160259045Y-47095682D01*
X160249370Y-47094882D01*
X160166911Y-47079726D01*
X160148972Y-47072556D01*
X160082951Y-47029430D01*
X160069177Y-47015884D01*
X160024955Y-46950588D01*
X160017488Y-46932770D01*
X160000962Y-46850582D01*
X160000000Y-46840923D01*
X160000000Y-41254823D01*
X160000941Y-41245264D01*
X160017127Y-41163890D01*
X160024444Y-41146226D01*
X160067808Y-41081327D01*
X160081327Y-41067808D01*
X160146226Y-41024444D01*
X160163890Y-41017127D01*
X160245264Y-41000941D01*
X160254823Y-41000000D01*
X161483736Y-41000000D01*
X161484976Y-41000016D01*
G37*
G36*
X161484976Y-117000016D02*
G01*
X161494380Y-117000254D01*
X161496859Y-117000379D01*
X161506292Y-117001097D01*
X161507527Y-117001207D01*
X161517672Y-117002238D01*
X161518909Y-117002380D01*
X161744074Y-117031058D01*
X161745303Y-117031230D01*
X161768914Y-117034847D01*
X161770139Y-117035051D01*
X161993538Y-117075092D01*
X161994756Y-117075326D01*
X162018076Y-117080118D01*
X162019289Y-117080383D01*
X162240416Y-117131697D01*
X162241621Y-117131993D01*
X162264716Y-117137972D01*
X162265915Y-117138299D01*
X162484124Y-117200737D01*
X162485313Y-117201093D01*
X162508092Y-117208240D01*
X162509272Y-117208627D01*
X162724062Y-117282046D01*
X162725231Y-117282462D01*
X162747596Y-117290745D01*
X162748755Y-117291191D01*
X162959551Y-117375395D01*
X162960694Y-117375869D01*
X162982568Y-117385254D01*
X162983706Y-117385759D01*
X163189987Y-117480540D01*
X163191108Y-117481073D01*
X163212522Y-117491577D01*
X163213630Y-117492138D01*
X163414855Y-117597251D01*
X163415950Y-117597840D01*
X163436787Y-117609407D01*
X163437863Y-117610022D01*
X163633495Y-117725185D01*
X163634559Y-117725830D01*
X163654781Y-117738436D01*
X163655824Y-117739105D01*
X163845338Y-117864007D01*
X163846366Y-117864703D01*
X163865915Y-117878310D01*
X163866924Y-117879032D01*
X164049912Y-118013403D01*
X164050904Y-118014150D01*
X164069702Y-118028701D01*
X164070673Y-118029473D01*
X164246650Y-118172964D01*
X164247603Y-118173762D01*
X164265705Y-118189303D01*
X164266636Y-118190123D01*
X164435036Y-118342269D01*
X164435947Y-118343113D01*
X164453240Y-118359552D01*
X164454128Y-118360418D01*
X164614580Y-118520871D01*
X164615446Y-118521759D01*
X164631927Y-118539096D01*
X164632772Y-118540007D01*
X164784943Y-118708440D01*
X164785764Y-118709372D01*
X164801319Y-118727492D01*
X164802115Y-118728444D01*
X164945560Y-118904369D01*
X164946333Y-118905342D01*
X164960865Y-118924117D01*
X164961612Y-118925107D01*
X165096016Y-119108144D01*
X165096738Y-119109155D01*
X165110349Y-119128712D01*
X165111045Y-119129739D01*
X165235960Y-119319279D01*
X165236629Y-119320323D01*
X165249205Y-119340498D01*
X165249849Y-119341561D01*
X165365034Y-119537236D01*
X165365650Y-119538314D01*
X165377195Y-119559115D01*
X165377784Y-119560208D01*
X165482896Y-119761440D01*
X165483457Y-119762548D01*
X165493978Y-119783998D01*
X165494510Y-119785119D01*
X165589260Y-119991342D01*
X165589765Y-119992478D01*
X165599158Y-120014370D01*
X165599632Y-120015515D01*
X165683828Y-120226297D01*
X165684274Y-120227456D01*
X165692556Y-120249820D01*
X165692972Y-120250989D01*
X165766375Y-120465740D01*
X165766762Y-120466919D01*
X165773916Y-120489720D01*
X165774273Y-120490910D01*
X165836722Y-120709172D01*
X165837048Y-120710369D01*
X165843021Y-120733438D01*
X165843317Y-120734644D01*
X165894622Y-120955747D01*
X165894887Y-120956960D01*
X165899680Y-120980284D01*
X165899914Y-120981503D01*
X165939956Y-121204917D01*
X165940160Y-121206140D01*
X165943781Y-121229773D01*
X165943953Y-121231004D01*
X165972622Y-121456129D01*
X165972764Y-121457361D01*
X165975178Y-121481098D01*
X165975288Y-121482336D01*
X165992526Y-121708737D01*
X165992604Y-121709968D01*
X165993810Y-121733679D01*
X165993857Y-121734915D01*
X165999829Y-121968422D01*
X165999841Y-121969045D01*
X165999995Y-121981026D01*
X165999999Y-121981656D01*
X165999999Y-121991136D01*
X166000000Y-121991140D01*
X166000000Y-122749359D01*
X165999078Y-122758819D01*
X165983227Y-122839380D01*
X165976061Y-122856887D01*
X165933549Y-122921381D01*
X165920283Y-122934870D01*
X165856511Y-122978448D01*
X165839124Y-122985906D01*
X165758833Y-123003097D01*
X165749391Y-123004176D01*
X160259045Y-123095682D01*
X160249370Y-123094882D01*
X160166911Y-123079726D01*
X160148972Y-123072556D01*
X160082951Y-123029430D01*
X160069177Y-123015884D01*
X160024955Y-122950588D01*
X160017488Y-122932770D01*
X160000962Y-122850582D01*
X160000000Y-122840923D01*
X160000000Y-117254823D01*
X160000941Y-117245264D01*
X160017127Y-117163890D01*
X160024444Y-117146226D01*
X160067808Y-117081327D01*
X160081327Y-117067808D01*
X160146226Y-117024444D01*
X160163890Y-117017127D01*
X160245264Y-117000941D01*
X160254823Y-117000000D01*
X161483736Y-117000000D01*
X161484976Y-117000016D01*
G37*
G36*
X210994089Y-113000004D02*
G01*
X211005958Y-113000154D01*
X211006580Y-113000166D01*
X211088176Y-113002234D01*
X211089417Y-113002281D01*
X211113155Y-113003485D01*
X211114394Y-113003563D01*
X211189224Y-113009262D01*
X211190458Y-113009372D01*
X211214177Y-113011783D01*
X211215413Y-113011925D01*
X211289766Y-113021395D01*
X211290994Y-113021567D01*
X211314588Y-113025181D01*
X211315814Y-113025385D01*
X211389647Y-113038619D01*
X211390867Y-113038853D01*
X211414235Y-113043656D01*
X211415446Y-113043921D01*
X211488474Y-113060867D01*
X211489680Y-113061163D01*
X211512772Y-113067142D01*
X211513970Y-113067469D01*
X211586041Y-113088091D01*
X211587230Y-113088447D01*
X211610044Y-113095605D01*
X211611224Y-113095992D01*
X211682133Y-113120230D01*
X211683302Y-113120646D01*
X211705688Y-113128937D01*
X211706847Y-113129383D01*
X211776517Y-113157213D01*
X211777664Y-113157688D01*
X211799531Y-113167072D01*
X211800665Y-113167576D01*
X211868816Y-113198889D01*
X211869937Y-113199421D01*
X211891321Y-113209910D01*
X211892428Y-113210471D01*
X211958936Y-113245211D01*
X211960029Y-113245800D01*
X211980844Y-113257353D01*
X211981923Y-113257969D01*
X212046613Y-113296050D01*
X212047675Y-113296694D01*
X212067851Y-113309270D01*
X212068895Y-113309939D01*
X212131557Y-113351237D01*
X212132585Y-113351933D01*
X212152125Y-113365533D01*
X212153135Y-113366255D01*
X212213588Y-113410646D01*
X212214578Y-113411393D01*
X212233419Y-113425976D01*
X212234393Y-113426750D01*
X212292550Y-113474172D01*
X212293501Y-113474967D01*
X212311592Y-113490497D01*
X212312524Y-113491318D01*
X212368177Y-113541599D01*
X212369088Y-113542444D01*
X212386360Y-113558863D01*
X212387248Y-113559729D01*
X212440269Y-113612750D01*
X212441135Y-113613638D01*
X212457554Y-113630910D01*
X212458399Y-113631821D01*
X212508680Y-113687474D01*
X212509501Y-113688406D01*
X212525031Y-113706497D01*
X212525826Y-113707448D01*
X212573248Y-113765605D01*
X212574022Y-113766579D01*
X212588605Y-113785420D01*
X212589352Y-113786410D01*
X212633743Y-113846863D01*
X212634465Y-113847873D01*
X212648065Y-113867413D01*
X212648761Y-113868441D01*
X212690059Y-113931103D01*
X212690728Y-113932147D01*
X212703304Y-113952323D01*
X212703948Y-113953385D01*
X212742029Y-114018075D01*
X212742645Y-114019153D01*
X212754190Y-114039953D01*
X212754779Y-114041047D01*
X212789527Y-114107570D01*
X212790087Y-114108677D01*
X212800574Y-114130056D01*
X212801107Y-114131177D01*
X212832422Y-114199333D01*
X212832926Y-114200467D01*
X212842307Y-114222326D01*
X212842782Y-114223473D01*
X212870615Y-114293151D01*
X212871061Y-114294310D01*
X212879352Y-114316696D01*
X212879768Y-114317865D01*
X212904006Y-114388774D01*
X212904393Y-114389953D01*
X212911548Y-114412756D01*
X212911904Y-114413946D01*
X212932529Y-114486028D01*
X212932856Y-114487226D01*
X212938835Y-114510318D01*
X212939131Y-114511524D01*
X212956077Y-114584552D01*
X212956342Y-114585763D01*
X212961145Y-114609131D01*
X212961379Y-114610351D01*
X212974613Y-114684184D01*
X212974817Y-114685410D01*
X212978431Y-114709004D01*
X212978603Y-114710232D01*
X212988073Y-114784585D01*
X212988215Y-114785821D01*
X212990626Y-114809540D01*
X212990736Y-114810774D01*
X212996435Y-114885604D01*
X212996513Y-114886843D01*
X212997717Y-114910581D01*
X212997764Y-114911821D01*
X212999832Y-114993393D01*
X212999844Y-114994013D01*
X212999995Y-115005907D01*
X212999999Y-115006529D01*
X212999999Y-115026565D01*
X213000000Y-115026567D01*
X213000000Y-118993391D01*
X212999996Y-118994014D01*
X212999844Y-119005963D01*
X212999832Y-119006581D01*
X212999049Y-119037490D01*
X212999002Y-119038732D01*
X212997795Y-119062524D01*
X212997717Y-119063760D01*
X212995871Y-119088011D01*
X212995761Y-119089248D01*
X212993346Y-119113002D01*
X212993204Y-119114239D01*
X212990130Y-119138367D01*
X212989958Y-119139594D01*
X212986343Y-119163191D01*
X212986139Y-119164418D01*
X212981841Y-119188392D01*
X212981607Y-119189607D01*
X212976824Y-119212885D01*
X212976559Y-119214100D01*
X212971056Y-119237813D01*
X212970760Y-119239018D01*
X212964771Y-119262148D01*
X212964444Y-119263345D01*
X212957768Y-119286677D01*
X212957412Y-119287867D01*
X212950261Y-119310658D01*
X212949874Y-119311837D01*
X212942013Y-119334836D01*
X212941596Y-119336007D01*
X212933320Y-119358351D01*
X212932876Y-119359507D01*
X212923834Y-119382146D01*
X212923358Y-119383295D01*
X212913968Y-119405175D01*
X212913464Y-119406309D01*
X212903289Y-119428454D01*
X212902756Y-119429575D01*
X212892275Y-119450942D01*
X212891716Y-119452048D01*
X212880460Y-119473599D01*
X212879870Y-119474694D01*
X212868283Y-119495570D01*
X212867666Y-119496650D01*
X212855285Y-119517680D01*
X212854643Y-119518739D01*
X212842091Y-119538877D01*
X212841421Y-119539921D01*
X212828010Y-119560271D01*
X212827312Y-119561302D01*
X212813694Y-119580866D01*
X212812973Y-119581874D01*
X212798561Y-119601500D01*
X212797815Y-119602490D01*
X212783224Y-119621341D01*
X212782451Y-119622314D01*
X212767072Y-119641175D01*
X212766274Y-119642129D01*
X212750748Y-119660213D01*
X212749929Y-119661143D01*
X212733606Y-119679210D01*
X212732761Y-119680121D01*
X212716342Y-119697393D01*
X212715476Y-119698281D01*
X212698281Y-119715476D01*
X212697393Y-119716342D01*
X212680121Y-119732761D01*
X212679210Y-119733606D01*
X212661143Y-119749929D01*
X212660213Y-119750748D01*
X212642129Y-119766274D01*
X212641175Y-119767072D01*
X212622314Y-119782451D01*
X212621341Y-119783224D01*
X212602490Y-119797815D01*
X212601500Y-119798561D01*
X212581874Y-119812973D01*
X212580866Y-119813694D01*
X212561302Y-119827312D01*
X212560271Y-119828010D01*
X212539921Y-119841421D01*
X212538877Y-119842091D01*
X212518739Y-119854643D01*
X212517680Y-119855285D01*
X212496650Y-119867666D01*
X212495570Y-119868283D01*
X212474709Y-119879862D01*
X212473614Y-119880452D01*
X212452048Y-119891716D01*
X212450942Y-119892275D01*
X212429575Y-119902756D01*
X212428454Y-119903289D01*
X212406309Y-119913464D01*
X212405175Y-119913968D01*
X212383295Y-119923358D01*
X212382146Y-119923834D01*
X212359507Y-119932876D01*
X212358351Y-119933320D01*
X212336007Y-119941596D01*
X212334836Y-119942013D01*
X212311837Y-119949874D01*
X212310658Y-119950261D01*
X212287867Y-119957412D01*
X212286677Y-119957768D01*
X212263345Y-119964444D01*
X212262148Y-119964771D01*
X212239018Y-119970760D01*
X212237813Y-119971056D01*
X212214100Y-119976559D01*
X212212885Y-119976824D01*
X212189607Y-119981607D01*
X212188392Y-119981841D01*
X212164418Y-119986139D01*
X212163191Y-119986343D01*
X212139594Y-119989958D01*
X212138367Y-119990130D01*
X212114239Y-119993204D01*
X212113002Y-119993346D01*
X212089248Y-119995761D01*
X212088011Y-119995871D01*
X212063760Y-119997717D01*
X212062524Y-119997795D01*
X212038732Y-119999002D01*
X212037490Y-119999049D01*
X212003305Y-119999915D01*
X212002991Y-119999922D01*
X212000296Y-119999973D01*
X211999694Y-119999981D01*
X211996982Y-119999999D01*
X211996657Y-120000000D01*
X208454823Y-120000000D01*
X208445263Y-119999058D01*
X208363889Y-119982871D01*
X208346226Y-119975555D01*
X208281327Y-119932191D01*
X208267808Y-119918672D01*
X208224444Y-119853773D01*
X208217128Y-119836109D01*
X208200942Y-119754736D01*
X208200000Y-119745177D01*
X208200000Y-113254823D01*
X208200941Y-113245264D01*
X208217127Y-113163890D01*
X208224444Y-113146226D01*
X208267808Y-113081327D01*
X208281327Y-113067808D01*
X208346226Y-113024444D01*
X208363890Y-113017127D01*
X208445264Y-113000941D01*
X208454823Y-113000000D01*
X210993470Y-113000000D01*
X210994089Y-113000004D01*
G37*
G36*
X256994089Y-113000004D02*
G01*
X257005958Y-113000154D01*
X257006580Y-113000166D01*
X257088176Y-113002234D01*
X257089417Y-113002281D01*
X257113155Y-113003485D01*
X257114394Y-113003563D01*
X257189224Y-113009262D01*
X257190458Y-113009372D01*
X257214177Y-113011783D01*
X257215413Y-113011925D01*
X257289766Y-113021395D01*
X257290994Y-113021567D01*
X257314588Y-113025181D01*
X257315814Y-113025385D01*
X257389647Y-113038619D01*
X257390867Y-113038853D01*
X257414235Y-113043656D01*
X257415446Y-113043921D01*
X257488474Y-113060867D01*
X257489680Y-113061163D01*
X257512772Y-113067142D01*
X257513970Y-113067469D01*
X257586041Y-113088091D01*
X257587230Y-113088447D01*
X257610044Y-113095605D01*
X257611224Y-113095992D01*
X257682133Y-113120230D01*
X257683302Y-113120646D01*
X257705688Y-113128937D01*
X257706847Y-113129383D01*
X257776517Y-113157213D01*
X257777664Y-113157688D01*
X257799531Y-113167072D01*
X257800665Y-113167576D01*
X257868816Y-113198889D01*
X257869937Y-113199421D01*
X257891321Y-113209910D01*
X257892428Y-113210471D01*
X257958936Y-113245211D01*
X257960029Y-113245800D01*
X257980844Y-113257353D01*
X257981923Y-113257969D01*
X258046613Y-113296050D01*
X258047675Y-113296694D01*
X258067851Y-113309270D01*
X258068895Y-113309939D01*
X258131557Y-113351237D01*
X258132585Y-113351933D01*
X258152125Y-113365533D01*
X258153135Y-113366255D01*
X258213588Y-113410646D01*
X258214578Y-113411393D01*
X258233419Y-113425976D01*
X258234393Y-113426750D01*
X258292550Y-113474172D01*
X258293501Y-113474967D01*
X258311592Y-113490497D01*
X258312524Y-113491318D01*
X258368177Y-113541599D01*
X258369088Y-113542444D01*
X258386360Y-113558863D01*
X258387248Y-113559729D01*
X258440269Y-113612750D01*
X258441135Y-113613638D01*
X258457554Y-113630910D01*
X258458399Y-113631821D01*
X258508680Y-113687474D01*
X258509501Y-113688406D01*
X258525031Y-113706497D01*
X258525826Y-113707448D01*
X258573248Y-113765605D01*
X258574022Y-113766579D01*
X258588605Y-113785420D01*
X258589352Y-113786410D01*
X258633743Y-113846863D01*
X258634465Y-113847873D01*
X258648065Y-113867413D01*
X258648761Y-113868441D01*
X258690059Y-113931103D01*
X258690728Y-113932147D01*
X258703304Y-113952323D01*
X258703948Y-113953385D01*
X258742029Y-114018075D01*
X258742645Y-114019153D01*
X258754190Y-114039953D01*
X258754779Y-114041047D01*
X258789527Y-114107570D01*
X258790087Y-114108677D01*
X258800574Y-114130056D01*
X258801107Y-114131177D01*
X258832422Y-114199333D01*
X258832926Y-114200467D01*
X258842307Y-114222326D01*
X258842782Y-114223473D01*
X258870615Y-114293151D01*
X258871061Y-114294310D01*
X258879352Y-114316696D01*
X258879768Y-114317865D01*
X258904006Y-114388774D01*
X258904393Y-114389953D01*
X258911548Y-114412756D01*
X258911904Y-114413946D01*
X258932529Y-114486028D01*
X258932856Y-114487226D01*
X258938835Y-114510318D01*
X258939131Y-114511524D01*
X258956077Y-114584552D01*
X258956342Y-114585763D01*
X258961145Y-114609131D01*
X258961379Y-114610351D01*
X258974613Y-114684184D01*
X258974817Y-114685410D01*
X258978431Y-114709004D01*
X258978603Y-114710232D01*
X258988073Y-114784585D01*
X258988215Y-114785821D01*
X258990626Y-114809540D01*
X258990736Y-114810774D01*
X258996435Y-114885604D01*
X258996513Y-114886843D01*
X258997717Y-114910581D01*
X258997764Y-114911821D01*
X258999832Y-114993393D01*
X258999844Y-114994013D01*
X258999995Y-115005907D01*
X258999999Y-115006529D01*
X258999999Y-115026565D01*
X259000000Y-115026567D01*
X259000000Y-118993391D01*
X258999996Y-118994014D01*
X258999844Y-119005963D01*
X258999832Y-119006581D01*
X258999049Y-119037490D01*
X258999002Y-119038732D01*
X258997795Y-119062524D01*
X258997717Y-119063760D01*
X258995871Y-119088011D01*
X258995761Y-119089248D01*
X258993346Y-119113002D01*
X258993204Y-119114239D01*
X258990130Y-119138367D01*
X258989958Y-119139594D01*
X258986343Y-119163191D01*
X258986139Y-119164418D01*
X258981841Y-119188392D01*
X258981607Y-119189607D01*
X258976824Y-119212885D01*
X258976559Y-119214100D01*
X258971056Y-119237813D01*
X258970760Y-119239018D01*
X258964771Y-119262148D01*
X258964444Y-119263345D01*
X258957768Y-119286677D01*
X258957412Y-119287867D01*
X258950261Y-119310658D01*
X258949874Y-119311837D01*
X258942013Y-119334836D01*
X258941596Y-119336007D01*
X258933320Y-119358351D01*
X258932876Y-119359507D01*
X258923834Y-119382146D01*
X258923358Y-119383295D01*
X258913968Y-119405175D01*
X258913464Y-119406309D01*
X258903289Y-119428454D01*
X258902756Y-119429575D01*
X258892275Y-119450942D01*
X258891716Y-119452048D01*
X258880460Y-119473599D01*
X258879870Y-119474694D01*
X258868283Y-119495570D01*
X258867666Y-119496650D01*
X258855285Y-119517680D01*
X258854643Y-119518739D01*
X258842091Y-119538877D01*
X258841421Y-119539921D01*
X258828010Y-119560271D01*
X258827312Y-119561302D01*
X258813694Y-119580866D01*
X258812973Y-119581874D01*
X258798561Y-119601500D01*
X258797815Y-119602490D01*
X258783224Y-119621341D01*
X258782451Y-119622314D01*
X258767072Y-119641175D01*
X258766274Y-119642129D01*
X258750748Y-119660213D01*
X258749929Y-119661143D01*
X258733606Y-119679210D01*
X258732761Y-119680121D01*
X258716342Y-119697393D01*
X258715476Y-119698281D01*
X258698281Y-119715476D01*
X258697393Y-119716342D01*
X258680121Y-119732761D01*
X258679210Y-119733606D01*
X258661143Y-119749929D01*
X258660213Y-119750748D01*
X258642129Y-119766274D01*
X258641175Y-119767072D01*
X258622314Y-119782451D01*
X258621341Y-119783224D01*
X258602490Y-119797815D01*
X258601500Y-119798561D01*
X258581874Y-119812973D01*
X258580866Y-119813694D01*
X258561302Y-119827312D01*
X258560271Y-119828010D01*
X258539921Y-119841421D01*
X258538877Y-119842091D01*
X258518739Y-119854643D01*
X258517680Y-119855285D01*
X258496650Y-119867666D01*
X258495570Y-119868283D01*
X258474709Y-119879862D01*
X258473614Y-119880452D01*
X258452048Y-119891716D01*
X258450942Y-119892275D01*
X258429575Y-119902756D01*
X258428454Y-119903289D01*
X258406309Y-119913464D01*
X258405175Y-119913968D01*
X258383295Y-119923358D01*
X258382146Y-119923834D01*
X258359507Y-119932876D01*
X258358351Y-119933320D01*
X258336007Y-119941596D01*
X258334836Y-119942013D01*
X258311837Y-119949874D01*
X258310658Y-119950261D01*
X258287867Y-119957412D01*
X258286677Y-119957768D01*
X258263345Y-119964444D01*
X258262148Y-119964771D01*
X258239018Y-119970760D01*
X258237813Y-119971056D01*
X258214100Y-119976559D01*
X258212885Y-119976824D01*
X258189607Y-119981607D01*
X258188392Y-119981841D01*
X258164418Y-119986139D01*
X258163191Y-119986343D01*
X258139594Y-119989958D01*
X258138367Y-119990130D01*
X258114239Y-119993204D01*
X258113002Y-119993346D01*
X258089248Y-119995761D01*
X258088011Y-119995871D01*
X258063760Y-119997717D01*
X258062524Y-119997795D01*
X258038732Y-119999002D01*
X258037490Y-119999049D01*
X258003305Y-119999915D01*
X258002991Y-119999922D01*
X258000296Y-119999973D01*
X257999694Y-119999981D01*
X257996982Y-119999999D01*
X257996657Y-120000000D01*
X254454823Y-120000000D01*
X254445263Y-119999058D01*
X254363889Y-119982871D01*
X254346226Y-119975555D01*
X254281327Y-119932191D01*
X254267808Y-119918672D01*
X254224444Y-119853773D01*
X254217128Y-119836109D01*
X254200942Y-119754736D01*
X254200000Y-119745177D01*
X254200000Y-113254823D01*
X254200941Y-113245264D01*
X254217127Y-113163890D01*
X254224444Y-113146226D01*
X254267808Y-113081327D01*
X254281327Y-113067808D01*
X254346226Y-113024444D01*
X254363890Y-113017127D01*
X254445264Y-113000941D01*
X254454823Y-113000000D01*
X256993470Y-113000000D01*
X256994089Y-113000004D01*
G37*
G36*
X210994089Y-189000004D02*
G01*
X211005958Y-189000154D01*
X211006580Y-189000166D01*
X211088176Y-189002234D01*
X211089417Y-189002281D01*
X211113155Y-189003485D01*
X211114394Y-189003563D01*
X211189224Y-189009262D01*
X211190458Y-189009372D01*
X211214177Y-189011783D01*
X211215413Y-189011925D01*
X211289766Y-189021395D01*
X211290994Y-189021567D01*
X211314588Y-189025181D01*
X211315814Y-189025385D01*
X211389647Y-189038619D01*
X211390867Y-189038853D01*
X211414235Y-189043656D01*
X211415446Y-189043921D01*
X211488474Y-189060867D01*
X211489680Y-189061163D01*
X211512772Y-189067142D01*
X211513970Y-189067469D01*
X211586041Y-189088091D01*
X211587230Y-189088447D01*
X211610044Y-189095605D01*
X211611224Y-189095992D01*
X211682133Y-189120230D01*
X211683302Y-189120646D01*
X211705688Y-189128937D01*
X211706847Y-189129383D01*
X211776517Y-189157213D01*
X211777664Y-189157688D01*
X211799531Y-189167072D01*
X211800665Y-189167576D01*
X211868816Y-189198889D01*
X211869937Y-189199421D01*
X211891321Y-189209910D01*
X211892428Y-189210471D01*
X211958936Y-189245211D01*
X211960029Y-189245800D01*
X211980844Y-189257353D01*
X211981923Y-189257969D01*
X212046613Y-189296050D01*
X212047675Y-189296694D01*
X212067851Y-189309270D01*
X212068895Y-189309939D01*
X212131557Y-189351237D01*
X212132585Y-189351933D01*
X212152125Y-189365533D01*
X212153135Y-189366255D01*
X212213588Y-189410646D01*
X212214578Y-189411393D01*
X212233419Y-189425976D01*
X212234393Y-189426750D01*
X212292550Y-189474172D01*
X212293501Y-189474967D01*
X212311592Y-189490497D01*
X212312524Y-189491318D01*
X212368177Y-189541599D01*
X212369088Y-189542444D01*
X212386360Y-189558863D01*
X212387248Y-189559729D01*
X212440269Y-189612750D01*
X212441135Y-189613638D01*
X212457554Y-189630910D01*
X212458399Y-189631821D01*
X212508680Y-189687474D01*
X212509501Y-189688406D01*
X212525031Y-189706497D01*
X212525826Y-189707448D01*
X212573248Y-189765605D01*
X212574022Y-189766579D01*
X212588605Y-189785420D01*
X212589352Y-189786410D01*
X212633743Y-189846863D01*
X212634465Y-189847873D01*
X212648065Y-189867413D01*
X212648761Y-189868441D01*
X212690059Y-189931103D01*
X212690728Y-189932147D01*
X212703304Y-189952323D01*
X212703948Y-189953385D01*
X212742029Y-190018075D01*
X212742645Y-190019153D01*
X212754190Y-190039953D01*
X212754779Y-190041047D01*
X212789527Y-190107570D01*
X212790087Y-190108677D01*
X212800574Y-190130056D01*
X212801107Y-190131177D01*
X212832422Y-190199333D01*
X212832926Y-190200467D01*
X212842307Y-190222326D01*
X212842782Y-190223473D01*
X212870615Y-190293151D01*
X212871061Y-190294310D01*
X212879352Y-190316696D01*
X212879768Y-190317865D01*
X212904006Y-190388774D01*
X212904393Y-190389953D01*
X212911548Y-190412756D01*
X212911904Y-190413946D01*
X212932529Y-190486028D01*
X212932856Y-190487226D01*
X212938835Y-190510318D01*
X212939131Y-190511524D01*
X212956077Y-190584552D01*
X212956342Y-190585763D01*
X212961145Y-190609131D01*
X212961379Y-190610351D01*
X212974613Y-190684184D01*
X212974817Y-190685410D01*
X212978431Y-190709004D01*
X212978603Y-190710232D01*
X212988073Y-190784585D01*
X212988215Y-190785821D01*
X212990626Y-190809540D01*
X212990736Y-190810774D01*
X212996435Y-190885604D01*
X212996513Y-190886843D01*
X212997717Y-190910581D01*
X212997764Y-190911821D01*
X212999832Y-190993393D01*
X212999844Y-190994013D01*
X212999995Y-191005907D01*
X212999999Y-191006529D01*
X212999999Y-191026565D01*
X213000000Y-191026567D01*
X213000000Y-194993391D01*
X212999996Y-194994014D01*
X212999844Y-195005963D01*
X212999832Y-195006581D01*
X212999049Y-195037490D01*
X212999002Y-195038732D01*
X212997795Y-195062524D01*
X212997717Y-195063760D01*
X212995871Y-195088011D01*
X212995761Y-195089248D01*
X212993346Y-195113002D01*
X212993204Y-195114239D01*
X212990130Y-195138367D01*
X212989958Y-195139594D01*
X212986343Y-195163191D01*
X212986139Y-195164418D01*
X212981841Y-195188392D01*
X212981607Y-195189607D01*
X212976824Y-195212885D01*
X212976559Y-195214100D01*
X212971056Y-195237813D01*
X212970760Y-195239018D01*
X212964771Y-195262148D01*
X212964444Y-195263345D01*
X212957768Y-195286677D01*
X212957412Y-195287867D01*
X212950261Y-195310658D01*
X212949874Y-195311837D01*
X212942013Y-195334836D01*
X212941596Y-195336007D01*
X212933320Y-195358351D01*
X212932876Y-195359507D01*
X212923834Y-195382146D01*
X212923358Y-195383295D01*
X212913968Y-195405175D01*
X212913464Y-195406309D01*
X212903289Y-195428454D01*
X212902756Y-195429575D01*
X212892275Y-195450942D01*
X212891716Y-195452048D01*
X212880460Y-195473599D01*
X212879870Y-195474694D01*
X212868283Y-195495570D01*
X212867666Y-195496650D01*
X212855285Y-195517680D01*
X212854643Y-195518739D01*
X212842091Y-195538877D01*
X212841421Y-195539921D01*
X212828010Y-195560271D01*
X212827312Y-195561302D01*
X212813694Y-195580866D01*
X212812973Y-195581874D01*
X212798561Y-195601500D01*
X212797815Y-195602490D01*
X212783224Y-195621341D01*
X212782451Y-195622314D01*
X212767072Y-195641175D01*
X212766274Y-195642129D01*
X212750748Y-195660213D01*
X212749929Y-195661143D01*
X212733606Y-195679210D01*
X212732761Y-195680121D01*
X212716342Y-195697393D01*
X212715476Y-195698281D01*
X212698281Y-195715476D01*
X212697393Y-195716342D01*
X212680121Y-195732761D01*
X212679210Y-195733606D01*
X212661143Y-195749929D01*
X212660213Y-195750748D01*
X212642129Y-195766274D01*
X212641175Y-195767072D01*
X212622314Y-195782451D01*
X212621341Y-195783224D01*
X212602490Y-195797815D01*
X212601500Y-195798561D01*
X212581874Y-195812973D01*
X212580866Y-195813694D01*
X212561302Y-195827312D01*
X212560271Y-195828010D01*
X212539921Y-195841421D01*
X212538877Y-195842091D01*
X212518739Y-195854643D01*
X212517680Y-195855285D01*
X212496650Y-195867666D01*
X212495570Y-195868283D01*
X212474709Y-195879862D01*
X212473614Y-195880452D01*
X212452048Y-195891716D01*
X212450942Y-195892275D01*
X212429575Y-195902756D01*
X212428454Y-195903289D01*
X212406309Y-195913464D01*
X212405175Y-195913968D01*
X212383295Y-195923358D01*
X212382146Y-195923834D01*
X212359507Y-195932876D01*
X212358351Y-195933320D01*
X212336007Y-195941596D01*
X212334836Y-195942013D01*
X212311837Y-195949874D01*
X212310658Y-195950261D01*
X212287867Y-195957412D01*
X212286677Y-195957768D01*
X212263345Y-195964444D01*
X212262148Y-195964771D01*
X212239018Y-195970760D01*
X212237813Y-195971056D01*
X212214100Y-195976559D01*
X212212885Y-195976824D01*
X212189607Y-195981607D01*
X212188392Y-195981841D01*
X212164418Y-195986139D01*
X212163191Y-195986343D01*
X212139594Y-195989958D01*
X212138367Y-195990130D01*
X212114239Y-195993204D01*
X212113002Y-195993346D01*
X212089248Y-195995761D01*
X212088011Y-195995871D01*
X212063760Y-195997717D01*
X212062524Y-195997795D01*
X212038732Y-195999002D01*
X212037490Y-195999049D01*
X212003305Y-195999915D01*
X212002991Y-195999922D01*
X212000296Y-195999973D01*
X211999694Y-195999981D01*
X211996982Y-195999999D01*
X211996657Y-196000000D01*
X208454823Y-196000000D01*
X208445263Y-195999058D01*
X208363889Y-195982871D01*
X208346226Y-195975555D01*
X208281327Y-195932191D01*
X208267808Y-195918672D01*
X208224444Y-195853773D01*
X208217128Y-195836109D01*
X208200942Y-195754736D01*
X208200000Y-195745177D01*
X208200000Y-189254823D01*
X208200941Y-189245264D01*
X208217127Y-189163890D01*
X208224444Y-189146226D01*
X208267808Y-189081327D01*
X208281327Y-189067808D01*
X208346226Y-189024444D01*
X208363890Y-189017127D01*
X208445264Y-189000941D01*
X208454823Y-189000000D01*
X210993470Y-189000000D01*
X210994089Y-189000004D01*
G37*
G36*
X256994089Y-189000004D02*
G01*
X257005958Y-189000154D01*
X257006580Y-189000166D01*
X257088176Y-189002234D01*
X257089417Y-189002281D01*
X257113155Y-189003485D01*
X257114394Y-189003563D01*
X257189224Y-189009262D01*
X257190458Y-189009372D01*
X257214177Y-189011783D01*
X257215413Y-189011925D01*
X257289766Y-189021395D01*
X257290994Y-189021567D01*
X257314588Y-189025181D01*
X257315814Y-189025385D01*
X257389647Y-189038619D01*
X257390867Y-189038853D01*
X257414235Y-189043656D01*
X257415446Y-189043921D01*
X257488474Y-189060867D01*
X257489680Y-189061163D01*
X257512772Y-189067142D01*
X257513970Y-189067469D01*
X257586041Y-189088091D01*
X257587230Y-189088447D01*
X257610044Y-189095605D01*
X257611224Y-189095992D01*
X257682133Y-189120230D01*
X257683302Y-189120646D01*
X257705688Y-189128937D01*
X257706847Y-189129383D01*
X257776517Y-189157213D01*
X257777664Y-189157688D01*
X257799531Y-189167072D01*
X257800665Y-189167576D01*
X257868816Y-189198889D01*
X257869937Y-189199421D01*
X257891321Y-189209910D01*
X257892428Y-189210471D01*
X257958936Y-189245211D01*
X257960029Y-189245800D01*
X257980844Y-189257353D01*
X257981923Y-189257969D01*
X258046613Y-189296050D01*
X258047675Y-189296694D01*
X258067851Y-189309270D01*
X258068895Y-189309939D01*
X258131557Y-189351237D01*
X258132585Y-189351933D01*
X258152125Y-189365533D01*
X258153135Y-189366255D01*
X258213588Y-189410646D01*
X258214578Y-189411393D01*
X258233419Y-189425976D01*
X258234393Y-189426750D01*
X258292550Y-189474172D01*
X258293501Y-189474967D01*
X258311592Y-189490497D01*
X258312524Y-189491318D01*
X258368177Y-189541599D01*
X258369088Y-189542444D01*
X258386360Y-189558863D01*
X258387248Y-189559729D01*
X258440269Y-189612750D01*
X258441135Y-189613638D01*
X258457554Y-189630910D01*
X258458399Y-189631821D01*
X258508680Y-189687474D01*
X258509501Y-189688406D01*
X258525031Y-189706497D01*
X258525826Y-189707448D01*
X258573248Y-189765605D01*
X258574022Y-189766579D01*
X258588605Y-189785420D01*
X258589352Y-189786410D01*
X258633743Y-189846863D01*
X258634465Y-189847873D01*
X258648065Y-189867413D01*
X258648761Y-189868441D01*
X258690059Y-189931103D01*
X258690728Y-189932147D01*
X258703304Y-189952323D01*
X258703948Y-189953385D01*
X258742029Y-190018075D01*
X258742645Y-190019153D01*
X258754190Y-190039953D01*
X258754779Y-190041047D01*
X258789527Y-190107570D01*
X258790087Y-190108677D01*
X258800574Y-190130056D01*
X258801107Y-190131177D01*
X258832422Y-190199333D01*
X258832926Y-190200467D01*
X258842307Y-190222326D01*
X258842782Y-190223473D01*
X258870615Y-190293151D01*
X258871061Y-190294310D01*
X258879352Y-190316696D01*
X258879768Y-190317865D01*
X258904006Y-190388774D01*
X258904393Y-190389953D01*
X258911548Y-190412756D01*
X258911904Y-190413946D01*
X258932529Y-190486028D01*
X258932856Y-190487226D01*
X258938835Y-190510318D01*
X258939131Y-190511524D01*
X258956077Y-190584552D01*
X258956342Y-190585763D01*
X258961145Y-190609131D01*
X258961379Y-190610351D01*
X258974613Y-190684184D01*
X258974817Y-190685410D01*
X258978431Y-190709004D01*
X258978603Y-190710232D01*
X258988073Y-190784585D01*
X258988215Y-190785821D01*
X258990626Y-190809540D01*
X258990736Y-190810774D01*
X258996435Y-190885604D01*
X258996513Y-190886843D01*
X258997717Y-190910581D01*
X258997764Y-190911821D01*
X258999832Y-190993393D01*
X258999844Y-190994013D01*
X258999995Y-191005907D01*
X258999999Y-191006529D01*
X258999999Y-191026565D01*
X259000000Y-191026567D01*
X259000000Y-194993391D01*
X258999996Y-194994014D01*
X258999844Y-195005963D01*
X258999832Y-195006581D01*
X258999049Y-195037490D01*
X258999002Y-195038732D01*
X258997795Y-195062524D01*
X258997717Y-195063760D01*
X258995871Y-195088011D01*
X258995761Y-195089248D01*
X258993346Y-195113002D01*
X258993204Y-195114239D01*
X258990130Y-195138367D01*
X258989958Y-195139594D01*
X258986343Y-195163191D01*
X258986139Y-195164418D01*
X258981841Y-195188392D01*
X258981607Y-195189607D01*
X258976824Y-195212885D01*
X258976559Y-195214100D01*
X258971056Y-195237813D01*
X258970760Y-195239018D01*
X258964771Y-195262148D01*
X258964444Y-195263345D01*
X258957768Y-195286677D01*
X258957412Y-195287867D01*
X258950261Y-195310658D01*
X258949874Y-195311837D01*
X258942013Y-195334836D01*
X258941596Y-195336007D01*
X258933320Y-195358351D01*
X258932876Y-195359507D01*
X258923834Y-195382146D01*
X258923358Y-195383295D01*
X258913968Y-195405175D01*
X258913464Y-195406309D01*
X258903289Y-195428454D01*
X258902756Y-195429575D01*
X258892275Y-195450942D01*
X258891716Y-195452048D01*
X258880460Y-195473599D01*
X258879870Y-195474694D01*
X258868283Y-195495570D01*
X258867666Y-195496650D01*
X258855285Y-195517680D01*
X258854643Y-195518739D01*
X258842091Y-195538877D01*
X258841421Y-195539921D01*
X258828010Y-195560271D01*
X258827312Y-195561302D01*
X258813694Y-195580866D01*
X258812973Y-195581874D01*
X258798561Y-195601500D01*
X258797815Y-195602490D01*
X258783224Y-195621341D01*
X258782451Y-195622314D01*
X258767072Y-195641175D01*
X258766274Y-195642129D01*
X258750748Y-195660213D01*
X258749929Y-195661143D01*
X258733606Y-195679210D01*
X258732761Y-195680121D01*
X258716342Y-195697393D01*
X258715476Y-195698281D01*
X258698281Y-195715476D01*
X258697393Y-195716342D01*
X258680121Y-195732761D01*
X258679210Y-195733606D01*
X258661143Y-195749929D01*
X258660213Y-195750748D01*
X258642129Y-195766274D01*
X258641175Y-195767072D01*
X258622314Y-195782451D01*
X258621341Y-195783224D01*
X258602490Y-195797815D01*
X258601500Y-195798561D01*
X258581874Y-195812973D01*
X258580866Y-195813694D01*
X258561302Y-195827312D01*
X258560271Y-195828010D01*
X258539921Y-195841421D01*
X258538877Y-195842091D01*
X258518739Y-195854643D01*
X258517680Y-195855285D01*
X258496650Y-195867666D01*
X258495570Y-195868283D01*
X258474709Y-195879862D01*
X258473614Y-195880452D01*
X258452048Y-195891716D01*
X258450942Y-195892275D01*
X258429575Y-195902756D01*
X258428454Y-195903289D01*
X258406309Y-195913464D01*
X258405175Y-195913968D01*
X258383295Y-195923358D01*
X258382146Y-195923834D01*
X258359507Y-195932876D01*
X258358351Y-195933320D01*
X258336007Y-195941596D01*
X258334836Y-195942013D01*
X258311837Y-195949874D01*
X258310658Y-195950261D01*
X258287867Y-195957412D01*
X258286677Y-195957768D01*
X258263345Y-195964444D01*
X258262148Y-195964771D01*
X258239018Y-195970760D01*
X258237813Y-195971056D01*
X258214100Y-195976559D01*
X258212885Y-195976824D01*
X258189607Y-195981607D01*
X258188392Y-195981841D01*
X258164418Y-195986139D01*
X258163191Y-195986343D01*
X258139594Y-195989958D01*
X258138367Y-195990130D01*
X258114239Y-195993204D01*
X258113002Y-195993346D01*
X258089248Y-195995761D01*
X258088011Y-195995871D01*
X258063760Y-195997717D01*
X258062524Y-195997795D01*
X258038732Y-195999002D01*
X258037490Y-195999049D01*
X258003305Y-195999915D01*
X258002991Y-195999922D01*
X258000296Y-195999973D01*
X257999694Y-195999981D01*
X257996982Y-195999999D01*
X257996657Y-196000000D01*
X254454823Y-196000000D01*
X254445263Y-195999058D01*
X254363889Y-195982871D01*
X254346226Y-195975555D01*
X254281327Y-195932191D01*
X254267808Y-195918672D01*
X254224444Y-195853773D01*
X254217128Y-195836109D01*
X254200942Y-195754736D01*
X254200000Y-195745177D01*
X254200000Y-189254823D01*
X254200941Y-189245264D01*
X254217127Y-189163890D01*
X254224444Y-189146226D01*
X254267808Y-189081327D01*
X254281327Y-189067808D01*
X254346226Y-189024444D01*
X254363890Y-189017127D01*
X254445264Y-189000941D01*
X254454823Y-189000000D01*
X256993470Y-189000000D01*
X256994089Y-189000004D01*
G37*
G36*
X210994089Y-37000004D02*
G01*
X211005958Y-37000154D01*
X211006580Y-37000166D01*
X211088176Y-37002234D01*
X211089417Y-37002281D01*
X211113155Y-37003485D01*
X211114394Y-37003563D01*
X211189224Y-37009262D01*
X211190458Y-37009372D01*
X211214177Y-37011783D01*
X211215413Y-37011925D01*
X211289766Y-37021395D01*
X211290994Y-37021567D01*
X211314588Y-37025181D01*
X211315814Y-37025385D01*
X211389647Y-37038619D01*
X211390867Y-37038853D01*
X211414235Y-37043656D01*
X211415446Y-37043921D01*
X211488474Y-37060867D01*
X211489680Y-37061163D01*
X211512772Y-37067142D01*
X211513970Y-37067469D01*
X211586041Y-37088091D01*
X211587230Y-37088447D01*
X211610044Y-37095605D01*
X211611224Y-37095992D01*
X211682133Y-37120230D01*
X211683302Y-37120646D01*
X211705688Y-37128937D01*
X211706847Y-37129383D01*
X211776517Y-37157213D01*
X211777664Y-37157688D01*
X211799531Y-37167072D01*
X211800665Y-37167576D01*
X211868816Y-37198889D01*
X211869937Y-37199421D01*
X211891321Y-37209910D01*
X211892428Y-37210471D01*
X211958936Y-37245211D01*
X211960029Y-37245800D01*
X211980844Y-37257353D01*
X211981923Y-37257969D01*
X212046613Y-37296050D01*
X212047675Y-37296694D01*
X212067851Y-37309270D01*
X212068895Y-37309939D01*
X212131557Y-37351237D01*
X212132585Y-37351933D01*
X212152125Y-37365533D01*
X212153135Y-37366255D01*
X212213588Y-37410646D01*
X212214578Y-37411393D01*
X212233419Y-37425976D01*
X212234393Y-37426750D01*
X212292550Y-37474172D01*
X212293501Y-37474967D01*
X212311592Y-37490497D01*
X212312524Y-37491318D01*
X212368177Y-37541599D01*
X212369088Y-37542444D01*
X212386360Y-37558863D01*
X212387248Y-37559729D01*
X212440269Y-37612750D01*
X212441135Y-37613638D01*
X212457554Y-37630910D01*
X212458399Y-37631821D01*
X212508680Y-37687474D01*
X212509501Y-37688406D01*
X212525031Y-37706497D01*
X212525826Y-37707448D01*
X212573248Y-37765605D01*
X212574022Y-37766579D01*
X212588605Y-37785420D01*
X212589352Y-37786410D01*
X212633743Y-37846863D01*
X212634465Y-37847873D01*
X212648065Y-37867413D01*
X212648761Y-37868441D01*
X212690059Y-37931103D01*
X212690728Y-37932147D01*
X212703304Y-37952323D01*
X212703948Y-37953385D01*
X212742029Y-38018075D01*
X212742645Y-38019153D01*
X212754190Y-38039953D01*
X212754779Y-38041047D01*
X212789527Y-38107570D01*
X212790088Y-38108677D01*
X212800577Y-38130061D01*
X212801109Y-38131182D01*
X212832422Y-38199333D01*
X212832926Y-38200467D01*
X212842307Y-38222326D01*
X212842782Y-38223473D01*
X212870615Y-38293151D01*
X212871061Y-38294310D01*
X212879352Y-38316696D01*
X212879768Y-38317865D01*
X212904006Y-38388774D01*
X212904393Y-38389953D01*
X212911548Y-38412756D01*
X212911904Y-38413946D01*
X212932529Y-38486028D01*
X212932856Y-38487226D01*
X212938835Y-38510318D01*
X212939131Y-38511524D01*
X212956077Y-38584552D01*
X212956342Y-38585763D01*
X212961145Y-38609131D01*
X212961379Y-38610351D01*
X212974613Y-38684184D01*
X212974817Y-38685410D01*
X212978431Y-38709004D01*
X212978603Y-38710232D01*
X212988073Y-38784585D01*
X212988215Y-38785821D01*
X212990626Y-38809540D01*
X212990736Y-38810774D01*
X212996435Y-38885604D01*
X212996513Y-38886843D01*
X212997717Y-38910581D01*
X212997764Y-38911821D01*
X212999832Y-38993393D01*
X212999844Y-38994013D01*
X212999995Y-39005907D01*
X212999999Y-39006529D01*
X212999999Y-39026565D01*
X213000000Y-39026567D01*
X213000000Y-42993391D01*
X212999996Y-42994014D01*
X212999844Y-43005963D01*
X212999832Y-43006581D01*
X212999049Y-43037490D01*
X212999002Y-43038732D01*
X212997795Y-43062524D01*
X212997717Y-43063760D01*
X212995871Y-43088011D01*
X212995761Y-43089248D01*
X212993346Y-43113002D01*
X212993204Y-43114239D01*
X212990130Y-43138367D01*
X212989958Y-43139594D01*
X212986343Y-43163191D01*
X212986139Y-43164418D01*
X212981841Y-43188392D01*
X212981607Y-43189607D01*
X212976824Y-43212885D01*
X212976559Y-43214100D01*
X212971056Y-43237813D01*
X212970760Y-43239018D01*
X212964771Y-43262148D01*
X212964444Y-43263345D01*
X212957768Y-43286677D01*
X212957412Y-43287867D01*
X212950261Y-43310658D01*
X212949874Y-43311837D01*
X212942013Y-43334836D01*
X212941596Y-43336007D01*
X212933320Y-43358351D01*
X212932876Y-43359507D01*
X212923834Y-43382146D01*
X212923358Y-43383295D01*
X212913968Y-43405175D01*
X212913464Y-43406309D01*
X212903289Y-43428454D01*
X212902756Y-43429575D01*
X212892275Y-43450942D01*
X212891716Y-43452048D01*
X212880460Y-43473599D01*
X212879870Y-43474694D01*
X212868283Y-43495570D01*
X212867666Y-43496650D01*
X212855285Y-43517680D01*
X212854643Y-43518739D01*
X212842091Y-43538877D01*
X212841421Y-43539921D01*
X212828010Y-43560271D01*
X212827312Y-43561302D01*
X212813694Y-43580866D01*
X212812973Y-43581874D01*
X212798561Y-43601500D01*
X212797815Y-43602490D01*
X212783224Y-43621341D01*
X212782451Y-43622314D01*
X212767072Y-43641175D01*
X212766274Y-43642129D01*
X212750748Y-43660213D01*
X212749929Y-43661143D01*
X212733606Y-43679210D01*
X212732761Y-43680121D01*
X212716342Y-43697393D01*
X212715476Y-43698281D01*
X212698281Y-43715476D01*
X212697393Y-43716342D01*
X212680121Y-43732761D01*
X212679210Y-43733606D01*
X212661143Y-43749929D01*
X212660213Y-43750748D01*
X212642129Y-43766274D01*
X212641175Y-43767072D01*
X212622314Y-43782451D01*
X212621341Y-43783224D01*
X212602490Y-43797815D01*
X212601500Y-43798561D01*
X212581874Y-43812973D01*
X212580866Y-43813694D01*
X212561302Y-43827312D01*
X212560271Y-43828010D01*
X212539921Y-43841421D01*
X212538877Y-43842091D01*
X212518739Y-43854643D01*
X212517680Y-43855285D01*
X212496650Y-43867666D01*
X212495570Y-43868283D01*
X212474709Y-43879862D01*
X212473614Y-43880452D01*
X212452048Y-43891716D01*
X212450942Y-43892275D01*
X212429575Y-43902756D01*
X212428454Y-43903289D01*
X212406309Y-43913464D01*
X212405175Y-43913968D01*
X212383295Y-43923358D01*
X212382146Y-43923834D01*
X212359507Y-43932876D01*
X212358351Y-43933320D01*
X212336007Y-43941596D01*
X212334836Y-43942013D01*
X212311837Y-43949874D01*
X212310658Y-43950261D01*
X212287867Y-43957412D01*
X212286677Y-43957768D01*
X212263345Y-43964444D01*
X212262148Y-43964771D01*
X212239018Y-43970760D01*
X212237813Y-43971056D01*
X212214100Y-43976559D01*
X212212885Y-43976824D01*
X212189607Y-43981607D01*
X212188392Y-43981841D01*
X212164418Y-43986139D01*
X212163191Y-43986343D01*
X212139594Y-43989958D01*
X212138367Y-43990130D01*
X212114239Y-43993204D01*
X212113002Y-43993346D01*
X212089248Y-43995761D01*
X212088011Y-43995871D01*
X212063760Y-43997717D01*
X212062524Y-43997795D01*
X212038732Y-43999002D01*
X212037490Y-43999049D01*
X212003305Y-43999915D01*
X212002991Y-43999922D01*
X212000296Y-43999973D01*
X211999694Y-43999981D01*
X211996982Y-43999999D01*
X211996657Y-44000000D01*
X208454823Y-44000000D01*
X208445263Y-43999058D01*
X208363889Y-43982871D01*
X208346226Y-43975555D01*
X208281327Y-43932191D01*
X208267808Y-43918672D01*
X208224444Y-43853773D01*
X208217128Y-43836109D01*
X208200942Y-43754736D01*
X208200000Y-43745177D01*
X208200000Y-37254823D01*
X208200941Y-37245264D01*
X208217127Y-37163890D01*
X208224444Y-37146226D01*
X208267808Y-37081327D01*
X208281327Y-37067808D01*
X208346226Y-37024444D01*
X208363890Y-37017127D01*
X208445264Y-37000941D01*
X208454823Y-37000000D01*
X210993470Y-37000000D01*
X210994089Y-37000004D01*
G37*
G36*
X256994089Y-37000004D02*
G01*
X257005958Y-37000154D01*
X257006580Y-37000166D01*
X257088176Y-37002234D01*
X257089417Y-37002281D01*
X257113155Y-37003485D01*
X257114394Y-37003563D01*
X257189224Y-37009262D01*
X257190458Y-37009372D01*
X257214177Y-37011783D01*
X257215413Y-37011925D01*
X257289766Y-37021395D01*
X257290994Y-37021567D01*
X257314588Y-37025181D01*
X257315814Y-37025385D01*
X257389647Y-37038619D01*
X257390867Y-37038853D01*
X257414235Y-37043656D01*
X257415446Y-37043921D01*
X257488474Y-37060867D01*
X257489680Y-37061163D01*
X257512772Y-37067142D01*
X257513970Y-37067469D01*
X257586041Y-37088091D01*
X257587230Y-37088447D01*
X257610044Y-37095605D01*
X257611224Y-37095992D01*
X257682133Y-37120230D01*
X257683302Y-37120646D01*
X257705688Y-37128937D01*
X257706847Y-37129383D01*
X257776517Y-37157213D01*
X257777664Y-37157688D01*
X257799531Y-37167072D01*
X257800665Y-37167576D01*
X257868816Y-37198889D01*
X257869937Y-37199421D01*
X257891321Y-37209910D01*
X257892428Y-37210471D01*
X257958936Y-37245211D01*
X257960029Y-37245800D01*
X257980844Y-37257353D01*
X257981923Y-37257969D01*
X258046613Y-37296050D01*
X258047675Y-37296694D01*
X258067851Y-37309270D01*
X258068895Y-37309939D01*
X258131557Y-37351237D01*
X258132585Y-37351933D01*
X258152125Y-37365533D01*
X258153135Y-37366255D01*
X258213588Y-37410646D01*
X258214578Y-37411393D01*
X258233419Y-37425976D01*
X258234393Y-37426750D01*
X258292550Y-37474172D01*
X258293501Y-37474967D01*
X258311592Y-37490497D01*
X258312524Y-37491318D01*
X258368177Y-37541599D01*
X258369088Y-37542444D01*
X258386360Y-37558863D01*
X258387248Y-37559729D01*
X258440269Y-37612750D01*
X258441135Y-37613638D01*
X258457554Y-37630910D01*
X258458399Y-37631821D01*
X258508680Y-37687474D01*
X258509501Y-37688406D01*
X258525031Y-37706497D01*
X258525826Y-37707448D01*
X258573248Y-37765605D01*
X258574022Y-37766579D01*
X258588605Y-37785420D01*
X258589352Y-37786410D01*
X258633743Y-37846863D01*
X258634465Y-37847873D01*
X258648065Y-37867413D01*
X258648761Y-37868441D01*
X258690059Y-37931103D01*
X258690728Y-37932147D01*
X258703304Y-37952323D01*
X258703948Y-37953385D01*
X258742029Y-38018075D01*
X258742645Y-38019153D01*
X258754190Y-38039953D01*
X258754779Y-38041047D01*
X258789527Y-38107570D01*
X258790088Y-38108677D01*
X258800577Y-38130061D01*
X258801109Y-38131182D01*
X258832422Y-38199333D01*
X258832926Y-38200467D01*
X258842307Y-38222326D01*
X258842782Y-38223473D01*
X258870615Y-38293151D01*
X258871061Y-38294310D01*
X258879352Y-38316696D01*
X258879768Y-38317865D01*
X258904006Y-38388774D01*
X258904393Y-38389953D01*
X258911548Y-38412756D01*
X258911904Y-38413946D01*
X258932529Y-38486028D01*
X258932856Y-38487226D01*
X258938835Y-38510318D01*
X258939131Y-38511524D01*
X258956077Y-38584552D01*
X258956342Y-38585763D01*
X258961145Y-38609131D01*
X258961379Y-38610351D01*
X258974613Y-38684184D01*
X258974817Y-38685410D01*
X258978431Y-38709004D01*
X258978603Y-38710232D01*
X258988073Y-38784585D01*
X258988215Y-38785821D01*
X258990626Y-38809540D01*
X258990736Y-38810774D01*
X258996435Y-38885604D01*
X258996513Y-38886843D01*
X258997717Y-38910581D01*
X258997764Y-38911821D01*
X258999832Y-38993393D01*
X258999844Y-38994013D01*
X258999995Y-39005907D01*
X258999999Y-39006529D01*
X258999999Y-39026565D01*
X259000000Y-39026567D01*
X259000000Y-42993391D01*
X258999996Y-42994014D01*
X258999844Y-43005963D01*
X258999832Y-43006581D01*
X258999049Y-43037490D01*
X258999002Y-43038732D01*
X258997795Y-43062524D01*
X258997717Y-43063760D01*
X258995871Y-43088011D01*
X258995761Y-43089248D01*
X258993346Y-43113002D01*
X258993204Y-43114239D01*
X258990130Y-43138367D01*
X258989958Y-43139594D01*
X258986343Y-43163191D01*
X258986139Y-43164418D01*
X258981841Y-43188392D01*
X258981607Y-43189607D01*
X258976824Y-43212885D01*
X258976559Y-43214100D01*
X258971056Y-43237813D01*
X258970760Y-43239018D01*
X258964771Y-43262148D01*
X258964444Y-43263345D01*
X258957768Y-43286677D01*
X258957412Y-43287867D01*
X258950261Y-43310658D01*
X258949874Y-43311837D01*
X258942013Y-43334836D01*
X258941596Y-43336007D01*
X258933320Y-43358351D01*
X258932876Y-43359507D01*
X258923834Y-43382146D01*
X258923358Y-43383295D01*
X258913968Y-43405175D01*
X258913464Y-43406309D01*
X258903289Y-43428454D01*
X258902756Y-43429575D01*
X258892275Y-43450942D01*
X258891716Y-43452048D01*
X258880460Y-43473599D01*
X258879870Y-43474694D01*
X258868283Y-43495570D01*
X258867666Y-43496650D01*
X258855285Y-43517680D01*
X258854643Y-43518739D01*
X258842091Y-43538877D01*
X258841421Y-43539921D01*
X258828010Y-43560271D01*
X258827312Y-43561302D01*
X258813694Y-43580866D01*
X258812973Y-43581874D01*
X258798561Y-43601500D01*
X258797815Y-43602490D01*
X258783224Y-43621341D01*
X258782451Y-43622314D01*
X258767072Y-43641175D01*
X258766274Y-43642129D01*
X258750748Y-43660213D01*
X258749929Y-43661143D01*
X258733606Y-43679210D01*
X258732761Y-43680121D01*
X258716342Y-43697393D01*
X258715476Y-43698281D01*
X258698281Y-43715476D01*
X258697393Y-43716342D01*
X258680121Y-43732761D01*
X258679210Y-43733606D01*
X258661143Y-43749929D01*
X258660213Y-43750748D01*
X258642129Y-43766274D01*
X258641175Y-43767072D01*
X258622314Y-43782451D01*
X258621341Y-43783224D01*
X258602490Y-43797815D01*
X258601500Y-43798561D01*
X258581874Y-43812973D01*
X258580866Y-43813694D01*
X258561302Y-43827312D01*
X258560271Y-43828010D01*
X258539921Y-43841421D01*
X258538877Y-43842091D01*
X258518739Y-43854643D01*
X258517680Y-43855285D01*
X258496650Y-43867666D01*
X258495570Y-43868283D01*
X258474709Y-43879862D01*
X258473614Y-43880452D01*
X258452048Y-43891716D01*
X258450942Y-43892275D01*
X258429575Y-43902756D01*
X258428454Y-43903289D01*
X258406309Y-43913464D01*
X258405175Y-43913968D01*
X258383295Y-43923358D01*
X258382146Y-43923834D01*
X258359507Y-43932876D01*
X258358351Y-43933320D01*
X258336007Y-43941596D01*
X258334836Y-43942013D01*
X258311837Y-43949874D01*
X258310658Y-43950261D01*
X258287867Y-43957412D01*
X258286677Y-43957768D01*
X258263345Y-43964444D01*
X258262148Y-43964771D01*
X258239018Y-43970760D01*
X258237813Y-43971056D01*
X258214100Y-43976559D01*
X258212885Y-43976824D01*
X258189607Y-43981607D01*
X258188392Y-43981841D01*
X258164418Y-43986139D01*
X258163191Y-43986343D01*
X258139594Y-43989958D01*
X258138367Y-43990130D01*
X258114239Y-43993204D01*
X258113002Y-43993346D01*
X258089248Y-43995761D01*
X258088011Y-43995871D01*
X258063760Y-43997717D01*
X258062524Y-43997795D01*
X258038732Y-43999002D01*
X258037490Y-43999049D01*
X258003305Y-43999915D01*
X258002991Y-43999922D01*
X258000296Y-43999973D01*
X257999694Y-43999981D01*
X257996982Y-43999999D01*
X257996657Y-44000000D01*
X254454823Y-44000000D01*
X254445263Y-43999058D01*
X254363889Y-43982871D01*
X254346226Y-43975555D01*
X254281327Y-43932191D01*
X254267808Y-43918672D01*
X254224444Y-43853773D01*
X254217128Y-43836109D01*
X254200942Y-43754736D01*
X254200000Y-43745177D01*
X254200000Y-37254823D01*
X254200941Y-37245264D01*
X254217127Y-37163890D01*
X254224444Y-37146226D01*
X254267808Y-37081327D01*
X254281327Y-37067808D01*
X254346226Y-37024444D01*
X254363890Y-37017127D01*
X254445264Y-37000941D01*
X254454823Y-37000000D01*
X256993470Y-37000000D01*
X256994089Y-37000004D01*
G37*
M02*
