%TF.GenerationSoftware,KiCad,Pcbnew,7.0.2*%
%TF.CreationDate,2023-05-01T18:48:22+02:00*%
%TF.ProjectId,kleinvoet,6b6c6569-6e76-46f6-9574-2e6b69636164,C*%
%TF.SameCoordinates,Original*%
%TF.FileFunction,Soldermask,Top*%
%TF.FilePolarity,Negative*%
%FSLAX46Y46*%
G04 Gerber Fmt 4.6, Leading zero omitted, Abs format (unit mm)*
G04 Created by KiCad (PCBNEW 7.0.2) date 2023-05-01 18:48:22*
%MOMM*%
%LPD*%
G01*
G04 APERTURE LIST*
G04 Aperture macros list*
%AMRoundRect*
0 Rectangle with rounded corners*
0 $1 Rounding radius*
0 $2 $3 $4 $5 $6 $7 $8 $9 X,Y pos of 4 corners*
0 Add a 4 corners polygon primitive as box body*
4,1,4,$2,$3,$4,$5,$6,$7,$8,$9,$2,$3,0*
0 Add four circle primitives for the rounded corners*
1,1,$1+$1,$2,$3*
1,1,$1+$1,$4,$5*
1,1,$1+$1,$6,$7*
1,1,$1+$1,$8,$9*
0 Add four rect primitives between the rounded corners*
20,1,$1+$1,$2,$3,$4,$5,0*
20,1,$1+$1,$4,$5,$6,$7,0*
20,1,$1+$1,$6,$7,$8,$9,0*
20,1,$1+$1,$8,$9,$2,$3,0*%
%AMFreePoly0*
4,1,19,0.000000,0.744911,0.071157,0.744911,0.207708,0.704816,0.327430,0.627875,0.420627,0.520320,0.479746,0.390866,0.500000,0.250000,0.500000,-0.250000,0.479746,-0.390866,0.420627,-0.520320,0.327430,-0.627875,0.207708,-0.704816,0.071157,-0.744911,0.000000,-0.744911,0.000000,-0.750000,-0.550000,-0.750000,-0.550000,0.750000,0.000000,0.750000,0.000000,0.744911,0.000000,0.744911,
$1*%
%AMFreePoly1*
4,1,19,0.550000,-0.750000,0.000000,-0.750000,0.000000,-0.744911,-0.071157,-0.744911,-0.207708,-0.704816,-0.327430,-0.627875,-0.420627,-0.520320,-0.479746,-0.390866,-0.500000,-0.250000,-0.500000,0.250000,-0.479746,0.390866,-0.420627,0.520320,-0.327430,0.627875,-0.207708,0.704816,-0.071157,0.744911,0.000000,0.744911,0.000000,0.750000,0.550000,0.750000,0.550000,-0.750000,0.550000,-0.750000,
$1*%
%AMFreePoly2*
4,1,19,0.000000,0.744911,0.071157,0.744911,0.207708,0.704816,0.327430,0.627875,0.420627,0.520320,0.479746,0.390866,0.500000,0.250000,0.500000,-0.250000,0.479746,-0.390866,0.420627,-0.520320,0.327430,-0.627875,0.207708,-0.704816,0.071157,-0.744911,0.000000,-0.744911,0.000000,-0.750000,-0.500000,-0.750000,-0.500000,0.750000,0.000000,0.750000,0.000000,0.744911,0.000000,0.744911,
$1*%
%AMFreePoly3*
4,1,19,0.500000,-0.750000,0.000000,-0.750000,0.000000,-0.744911,-0.071157,-0.744911,-0.207708,-0.704816,-0.327430,-0.627875,-0.420627,-0.520320,-0.479746,-0.390866,-0.500000,-0.250000,-0.500000,0.250000,-0.479746,0.390866,-0.420627,0.520320,-0.327430,0.627875,-0.207708,0.704816,-0.071157,0.744911,0.000000,0.744911,0.000000,0.750000,0.500000,0.750000,0.500000,-0.750000,0.500000,-0.750000,
$1*%
G04 Aperture macros list end*
%ADD10C,0.400000*%
%ADD11RoundRect,0.140000X0.170000X-0.140000X0.170000X0.140000X-0.170000X0.140000X-0.170000X-0.140000X0*%
%ADD12RoundRect,0.140000X-0.140000X-0.170000X0.140000X-0.170000X0.140000X0.170000X-0.140000X0.170000X0*%
%ADD13RoundRect,0.140000X0.140000X0.170000X-0.140000X0.170000X-0.140000X-0.170000X0.140000X-0.170000X0*%
%ADD14RoundRect,0.135000X0.135000X0.185000X-0.135000X0.185000X-0.135000X-0.185000X0.135000X-0.185000X0*%
%ADD15RoundRect,0.218750X0.218750X0.256250X-0.218750X0.256250X-0.218750X-0.256250X0.218750X-0.256250X0*%
%ADD16RoundRect,0.135000X-0.135000X-0.185000X0.135000X-0.185000X0.135000X0.185000X-0.135000X0.185000X0*%
%ADD17R,1.300000X1.100000*%
%ADD18R,1.250000X1.000000*%
%ADD19RoundRect,0.200000X-0.200000X-0.275000X0.200000X-0.275000X0.200000X0.275000X-0.200000X0.275000X0*%
%ADD20RoundRect,0.140000X-0.170000X0.140000X-0.170000X-0.140000X0.170000X-0.140000X0.170000X0.140000X0*%
%ADD21R,1.900000X1.100000*%
%ADD22C,0.800000*%
%ADD23C,6.400000*%
%ADD24RoundRect,0.135000X-0.185000X0.135000X-0.185000X-0.135000X0.185000X-0.135000X0.185000X0.135000X0*%
%ADD25RoundRect,0.150000X0.512500X0.150000X-0.512500X0.150000X-0.512500X-0.150000X0.512500X-0.150000X0*%
%ADD26RoundRect,0.237500X-0.287500X-0.237500X0.287500X-0.237500X0.287500X0.237500X-0.287500X0.237500X0*%
%ADD27RoundRect,0.250001X1.449999X-0.499999X1.449999X0.499999X-1.449999X0.499999X-1.449999X-0.499999X0*%
%ADD28RoundRect,0.250000X1.500000X-0.250000X1.500000X0.250000X-1.500000X0.250000X-1.500000X-0.250000X0*%
%ADD29R,1.000000X0.375000*%
%ADD30R,1.200000X0.300000*%
%ADD31RoundRect,0.218750X-0.218750X-0.256250X0.218750X-0.256250X0.218750X0.256250X-0.218750X0.256250X0*%
%ADD32R,1.680000X1.680000*%
%ADD33RoundRect,0.062500X-0.062500X-0.350000X0.062500X-0.350000X0.062500X0.350000X-0.062500X0.350000X0*%
%ADD34RoundRect,0.062500X-0.350000X-0.062500X0.350000X-0.062500X0.350000X0.062500X-0.350000X0.062500X0*%
%ADD35RoundRect,0.237500X-0.237500X0.287500X-0.237500X-0.287500X0.237500X-0.287500X0.237500X0.287500X0*%
%ADD36RoundRect,0.135000X0.185000X-0.135000X0.185000X0.135000X-0.185000X0.135000X-0.185000X-0.135000X0*%
%ADD37RoundRect,0.275000X-0.275000X0.375000X-0.275000X-0.375000X0.275000X-0.375000X0.275000X0.375000X0*%
%ADD38RoundRect,0.275000X0.275000X-0.375000X0.275000X0.375000X-0.275000X0.375000X-0.275000X-0.375000X0*%
%ADD39RoundRect,0.075000X0.700000X-0.075000X0.700000X0.075000X-0.700000X0.075000X-0.700000X-0.075000X0*%
%ADD40RoundRect,0.075000X0.075000X-0.700000X0.075000X0.700000X-0.075000X0.700000X-0.075000X-0.700000X0*%
%ADD41RoundRect,0.111600X0.788400X-0.788400X0.788400X0.788400X-0.788400X0.788400X-0.788400X-0.788400X0*%
%ADD42RoundRect,0.111600X0.788400X0.788400X-0.788400X0.788400X-0.788400X-0.788400X0.788400X-0.788400X0*%
%ADD43RoundRect,0.111600X-0.788400X-0.788400X0.788400X-0.788400X0.788400X0.788400X-0.788400X0.788400X0*%
%ADD44RoundRect,0.111600X-0.788400X0.788400X-0.788400X-0.788400X0.788400X-0.788400X0.788400X0.788400X0*%
%ADD45RoundRect,0.075000X0.325000X0.075000X-0.325000X0.075000X-0.325000X-0.075000X0.325000X-0.075000X0*%
%ADD46RoundRect,0.075000X-0.325000X-0.075000X0.325000X-0.075000X0.325000X0.075000X-0.325000X0.075000X0*%
%ADD47RoundRect,0.075000X0.075000X-0.325000X0.075000X0.325000X-0.075000X0.325000X-0.075000X-0.325000X0*%
%ADD48RoundRect,0.075000X-0.075000X0.325000X-0.075000X-0.325000X0.075000X-0.325000X0.075000X0.325000X0*%
%ADD49O,1.950000X0.950000*%
%ADD50R,1.500000X0.520000*%
%ADD51R,1.500000X0.280000*%
%ADD52R,1.500000X0.523000*%
%ADD53O,0.650000X0.900000*%
%ADD54C,0.650000*%
%ADD55O,1.700000X1.700000*%
%ADD56R,1.700000X1.700000*%
%ADD57RoundRect,0.218750X-0.256250X0.218750X-0.256250X-0.218750X0.256250X-0.218750X0.256250X0.218750X0*%
%ADD58RoundRect,0.200000X0.600000X-0.200000X0.600000X0.200000X-0.600000X0.200000X-0.600000X-0.200000X0*%
%ADD59RoundRect,0.200000X-0.600000X0.200000X-0.600000X-0.200000X0.600000X-0.200000X0.600000X0.200000X0*%
%ADD60RoundRect,0.525000X-0.975000X0.525000X-0.975000X-0.525000X0.975000X-0.525000X0.975000X0.525000X0*%
%ADD61RoundRect,0.147500X0.172500X-0.147500X0.172500X0.147500X-0.172500X0.147500X-0.172500X-0.147500X0*%
%ADD62R,0.350000X0.500000*%
%ADD63RoundRect,0.250000X0.287500X0.275000X-0.287500X0.275000X-0.287500X-0.275000X0.287500X-0.275000X0*%
%ADD64O,1.000000X1.000000*%
%ADD65R,1.000000X1.000000*%
%ADD66RoundRect,0.150000X-0.150000X-0.200000X0.150000X-0.200000X0.150000X0.200000X-0.150000X0.200000X0*%
%ADD67RoundRect,0.200000X0.200000X0.275000X-0.200000X0.275000X-0.200000X-0.275000X0.200000X-0.275000X0*%
%ADD68C,0.900000*%
%ADD69C,0.700000*%
%ADD70RoundRect,0.000001X-0.900000X0.750000X-0.900000X-0.750000X0.900000X-0.750000X0.900000X0.750000X0*%
%ADD71RoundRect,0.000001X-0.750000X0.900000X-0.750000X-0.900000X0.750000X-0.900000X0.750000X0.900000X0*%
%ADD72RoundRect,0.150000X-0.100000X0.350000X-0.100000X-0.350000X0.100000X-0.350000X0.100000X0.350000X0*%
%ADD73R,1.000000X0.600000*%
%ADD74RoundRect,0.250000X-0.287500X-0.275000X0.287500X-0.275000X0.287500X0.275000X-0.287500X0.275000X0*%
%ADD75RoundRect,0.147500X-0.172500X0.147500X-0.172500X-0.147500X0.172500X-0.147500X0.172500X0.147500X0*%
%ADD76RoundRect,0.155000X0.155000X-0.212500X0.155000X0.212500X-0.155000X0.212500X-0.155000X-0.212500X0*%
%ADD77RoundRect,0.147500X-0.147500X-0.172500X0.147500X-0.172500X0.147500X0.172500X-0.147500X0.172500X0*%
%ADD78RoundRect,0.147500X0.147500X0.172500X-0.147500X0.172500X-0.147500X-0.172500X0.147500X-0.172500X0*%
%ADD79RoundRect,0.062500X0.062500X0.350000X-0.062500X0.350000X-0.062500X-0.350000X0.062500X-0.350000X0*%
%ADD80RoundRect,0.062500X0.350000X0.062500X-0.350000X0.062500X-0.350000X-0.062500X0.350000X-0.062500X0*%
%ADD81RoundRect,0.225000X-0.250000X0.225000X-0.250000X-0.225000X0.250000X-0.225000X0.250000X0.225000X0*%
%ADD82FreePoly0,0.000000*%
%ADD83R,1.000000X1.500000*%
%ADD84FreePoly1,0.000000*%
%ADD85RoundRect,0.150000X-0.512500X-0.150000X0.512500X-0.150000X0.512500X0.150000X-0.512500X0.150000X0*%
%ADD86RoundRect,0.525000X0.975000X-0.525000X0.975000X0.525000X-0.975000X0.525000X-0.975000X-0.525000X0*%
%ADD87FreePoly2,180.000000*%
%ADD88FreePoly3,180.000000*%
%ADD89RoundRect,0.300000X0.500000X-0.300000X0.500000X0.300000X-0.500000X0.300000X-0.500000X-0.300000X0*%
%ADD90RoundRect,0.200000X0.200000X0.600000X-0.200000X0.600000X-0.200000X-0.600000X0.200000X-0.600000X0*%
%ADD91RoundRect,0.200000X-0.200000X-0.600000X0.200000X-0.600000X0.200000X0.600000X-0.200000X0.600000X0*%
%ADD92RoundRect,0.525000X-0.525000X-0.975000X0.525000X-0.975000X0.525000X0.975000X-0.525000X0.975000X0*%
%ADD93RoundRect,0.150000X0.825000X0.150000X-0.825000X0.150000X-0.825000X-0.150000X0.825000X-0.150000X0*%
%ADD94C,1.000000*%
%ADD95RoundRect,0.087500X0.712500X-0.087500X0.712500X0.087500X-0.712500X0.087500X-0.712500X-0.087500X0*%
%ADD96RoundRect,0.062500X0.350000X-0.062500X0.350000X0.062500X-0.350000X0.062500X-0.350000X-0.062500X0*%
%ADD97RoundRect,0.062500X0.062500X-0.350000X0.062500X0.350000X-0.062500X0.350000X-0.062500X-0.350000X0*%
%ADD98R,0.375000X0.350000*%
%ADD99R,0.350000X0.375000*%
%ADD100R,2.200000X1.150000*%
%ADD101R,1.150000X1.500000*%
%ADD102R,2.500000X0.950000*%
%ADD103R,1.250000X1.160000*%
%ADD104R,1.250000X0.800000*%
%ADD105C,0.990600*%
%ADD106C,2.374900*%
%TA.AperFunction,Profile*%
%ADD107C,0.050000*%
%TD*%
G04 APERTURE END LIST*
D10*
X132300000Y-72200000D02*
X132300000Y-70300000D01*
X123200000Y-70700000D02*
X127500000Y-70700000D01*
X104800000Y-46500000D02*
X120800000Y-46500000D01*
X130200000Y-47200000D02*
X130200000Y-47200000D01*
X123200000Y-47200000D02*
X138400000Y-47200000D01*
X123200000Y-52200000D02*
X117800000Y-57600000D01*
X125600000Y-65800000D02*
X123200000Y-65800000D01*
X127500000Y-72200000D02*
X132300000Y-72200000D01*
X104800000Y-34200000D02*
X123200000Y-34200000D01*
X102800000Y-57600000D02*
X117800000Y-57600000D01*
X123200000Y-52200000D02*
X123200000Y-39200000D01*
X138400000Y-47200000D02*
X138400000Y-43250000D01*
X123200000Y-65800000D02*
X123200000Y-70700000D01*
X127500000Y-69600000D02*
X127500000Y-72200000D01*
D11*
%TO.C,C502*%
X105600000Y-42320000D03*
X105600000Y-43280000D03*
%TD*%
%TO.C,C501*%
X105603750Y-37920000D03*
X105603750Y-38880000D03*
%TD*%
D12*
%TO.C,C903*%
X154780000Y-65800000D03*
X153820000Y-65800000D03*
%TD*%
D13*
%TO.C,C904*%
X149220000Y-59000000D03*
X150180000Y-59000000D03*
%TD*%
D14*
%TO.C,R905*%
X150297800Y-84600000D03*
X151317800Y-84600000D03*
%TD*%
D15*
%TO.C,D901*%
X149620300Y-86600000D03*
X151195300Y-86600000D03*
%TD*%
%TO.C,D902*%
X149620300Y-88400000D03*
X151195300Y-88400000D03*
%TD*%
D16*
%TO.C,R908*%
X148917800Y-84600000D03*
X147897800Y-84600000D03*
%TD*%
D17*
%TO.C,Y101*%
X128862400Y-68050000D03*
X131162400Y-68050000D03*
X131162400Y-69950000D03*
X128862400Y-69950000D03*
%TD*%
D18*
%TO.C,SW101*%
X99200000Y-61400000D03*
X106950000Y-61400000D03*
%TD*%
D19*
%TO.C,R209*%
X149025000Y-51800000D03*
X147375000Y-51800000D03*
%TD*%
D11*
%TO.C,CB401*%
X133900000Y-45370000D03*
X133900000Y-46330000D03*
%TD*%
D20*
%TO.C,C101*%
X139300000Y-56980000D03*
X139300000Y-56020000D03*
%TD*%
%TO.C,C103*%
X123200000Y-64280000D03*
X123200000Y-63320000D03*
%TD*%
D13*
%TO.C,C104*%
X130520000Y-66600000D03*
X131480000Y-66600000D03*
%TD*%
D11*
%TO.C,C105*%
X124012400Y-68970000D03*
X124012400Y-69930000D03*
%TD*%
D20*
%TO.C,C106*%
X124012400Y-67530000D03*
X124012400Y-66570000D03*
%TD*%
D12*
%TO.C,C403*%
X132280000Y-43200000D03*
X131320000Y-43200000D03*
%TD*%
D11*
%TO.C,CB102*%
X109900000Y-64420000D03*
X109900000Y-65380000D03*
%TD*%
D20*
%TO.C,CB101*%
X139300000Y-54980000D03*
X139300000Y-54020000D03*
%TD*%
D11*
%TO.C,CB103*%
X123212400Y-61170000D03*
X123212400Y-62130000D03*
%TD*%
D20*
%TO.C,CB104*%
X138800000Y-61530000D03*
X138800000Y-60570000D03*
%TD*%
D12*
%TO.C,CB105*%
X128180000Y-50700000D03*
X127220000Y-50700000D03*
%TD*%
D20*
%TO.C,CB106*%
X124600000Y-64280000D03*
X124600000Y-63320000D03*
%TD*%
%TO.C,CB107*%
X114300000Y-65380000D03*
X114300000Y-64420000D03*
%TD*%
D19*
%TO.C,R208*%
X152825000Y-43900000D03*
X151175000Y-43900000D03*
%TD*%
D21*
%TO.C,Y102*%
X126012400Y-67000000D03*
X126012400Y-69500000D03*
%TD*%
D22*
%TO.C,H201*%
X149600000Y-38050000D03*
X150302944Y-39747056D03*
X150302944Y-36352944D03*
X152000000Y-40450000D03*
D23*
X152000000Y-38050000D03*
D22*
X154400000Y-38050000D03*
X153697056Y-36352944D03*
X153697056Y-39747056D03*
X152000000Y-35650000D03*
%TD*%
D14*
%TO.C,R106*%
X128490000Y-66600000D03*
X129510000Y-66600000D03*
%TD*%
D24*
%TO.C,R101*%
X123212400Y-60010000D03*
X123212400Y-58990000D03*
%TD*%
D22*
%TO.C,H202*%
X101600000Y-86050000D03*
X102302944Y-87747056D03*
X102302944Y-84352944D03*
X104000000Y-88450000D03*
D23*
X104000000Y-86050000D03*
D22*
X106400000Y-86050000D03*
X105697056Y-84352944D03*
X105697056Y-87747056D03*
X104000000Y-83650000D03*
%TD*%
D18*
%TO.C,SW102*%
X117150000Y-61400000D03*
X109400000Y-61400000D03*
%TD*%
D25*
%TO.C,U903*%
X144462500Y-42750000D03*
X144462500Y-40850000D03*
X146737500Y-40850000D03*
X146737500Y-41800000D03*
X146737500Y-42750000D03*
%TD*%
D26*
%TO.C,F901*%
X155975000Y-57400000D03*
X154225000Y-57400000D03*
%TD*%
D27*
%TO.C,J201*%
X155500000Y-68450000D03*
X155500000Y-75150000D03*
D28*
X149750000Y-70800000D03*
X149750000Y-72800000D03*
%TD*%
D11*
%TO.C,C910*%
X142862500Y-41920000D03*
X142862500Y-42880000D03*
%TD*%
D29*
%TO.C,U201*%
X149025000Y-49162500D03*
D30*
X149100000Y-49700000D03*
D29*
X149025000Y-50237500D03*
X147325000Y-50237500D03*
D30*
X147250000Y-49700000D03*
D29*
X147325000Y-49162500D03*
%TD*%
D31*
%TO.C,D103*%
X142987500Y-54600000D03*
X141412500Y-54600000D03*
%TD*%
D16*
%TO.C,R105*%
X145710000Y-54600000D03*
X144690000Y-54600000D03*
%TD*%
D12*
%TO.C,C102*%
X129492400Y-71400000D03*
X128532400Y-71400000D03*
%TD*%
D32*
%TO.C,U801*%
X114000000Y-52400000D03*
D33*
X113250000Y-50937500D03*
X113750000Y-50937500D03*
X114250000Y-50937500D03*
X114750000Y-50937500D03*
D34*
X115462500Y-51650000D03*
X115462500Y-52150000D03*
X115462500Y-52650000D03*
X115462500Y-53150000D03*
D33*
X114750000Y-53862500D03*
X114250000Y-53862500D03*
X113750000Y-53862500D03*
X113250000Y-53862500D03*
D34*
X112537500Y-53150000D03*
X112537500Y-52650000D03*
X112537500Y-52150000D03*
X112537500Y-51650000D03*
%TD*%
D32*
%TO.C,U701*%
X114000000Y-40600000D03*
D33*
X113250000Y-39137500D03*
X113750000Y-39137500D03*
X114250000Y-39137500D03*
X114750000Y-39137500D03*
D34*
X115462500Y-39850000D03*
X115462500Y-40350000D03*
X115462500Y-40850000D03*
X115462500Y-41350000D03*
D33*
X114750000Y-42062500D03*
X114250000Y-42062500D03*
X113750000Y-42062500D03*
X113250000Y-42062500D03*
D34*
X112537500Y-41350000D03*
X112537500Y-40850000D03*
X112537500Y-40350000D03*
X112537500Y-39850000D03*
%TD*%
D13*
%TO.C,C401*%
X125520000Y-36000000D03*
X126480000Y-36000000D03*
%TD*%
%TO.C,C402*%
X125520000Y-39000000D03*
X126480000Y-39000000D03*
%TD*%
%TO.C,C405*%
X125520000Y-35000000D03*
X126480000Y-35000000D03*
%TD*%
%TO.C,C406*%
X125520000Y-40000000D03*
X126480000Y-40000000D03*
%TD*%
D12*
%TO.C,C407*%
X132280000Y-42200000D03*
X131320000Y-42200000D03*
%TD*%
D13*
%TO.C,C409*%
X127920000Y-43200000D03*
X128880000Y-43200000D03*
%TD*%
%TO.C,C410*%
X127920000Y-42200000D03*
X128880000Y-42200000D03*
%TD*%
D20*
%TO.C,C411*%
X136540000Y-41970000D03*
X136540000Y-41010000D03*
%TD*%
%TO.C,C412*%
X138000000Y-41970000D03*
X138000000Y-41010000D03*
%TD*%
%TO.C,C413*%
X131350000Y-46330000D03*
X131350000Y-45370000D03*
%TD*%
D12*
%TO.C,C414*%
X132280000Y-44300000D03*
X131320000Y-44300000D03*
%TD*%
D13*
%TO.C,C701*%
X106720000Y-43400000D03*
X107680000Y-43400000D03*
%TD*%
%TO.C,C702*%
X106720000Y-37800000D03*
X107680000Y-37800000D03*
%TD*%
D20*
%TO.C,C703*%
X108800000Y-41080000D03*
X108800000Y-40120000D03*
%TD*%
D11*
%TO.C,C706*%
X111200000Y-41120000D03*
X111200000Y-42080000D03*
%TD*%
D20*
%TO.C,C707*%
X111200000Y-40080000D03*
X111200000Y-39120000D03*
%TD*%
D12*
%TO.C,C708*%
X113280000Y-43300000D03*
X112320000Y-43300000D03*
%TD*%
D13*
%TO.C,C709*%
X119040000Y-42200000D03*
X120000000Y-42200000D03*
%TD*%
D11*
%TO.C,C710*%
X119120000Y-40120000D03*
X119120000Y-41080000D03*
%TD*%
D12*
%TO.C,C711*%
X120000000Y-39000000D03*
X119040000Y-39000000D03*
%TD*%
D13*
%TO.C,C801*%
X106720000Y-55200000D03*
X107680000Y-55200000D03*
%TD*%
%TO.C,C802*%
X106720000Y-49600000D03*
X107680000Y-49600000D03*
%TD*%
D20*
%TO.C,C803*%
X108800000Y-52880000D03*
X108800000Y-51920000D03*
%TD*%
D11*
%TO.C,C806*%
X111200000Y-52920000D03*
X111200000Y-53880000D03*
%TD*%
D20*
%TO.C,C807*%
X111200000Y-51880000D03*
X111200000Y-50920000D03*
%TD*%
D12*
%TO.C,C808*%
X113280000Y-55100000D03*
X112320000Y-55100000D03*
%TD*%
D13*
%TO.C,C809*%
X119040000Y-54000000D03*
X120000000Y-54000000D03*
%TD*%
D11*
%TO.C,C810*%
X119120000Y-51920000D03*
X119120000Y-52880000D03*
%TD*%
D12*
%TO.C,C811*%
X120000000Y-50800000D03*
X119040000Y-50800000D03*
%TD*%
D35*
%TO.C,D101*%
X115600000Y-85275000D03*
X115600000Y-83525000D03*
%TD*%
%TO.C,D102*%
X113200000Y-85275000D03*
X113200000Y-83525000D03*
%TD*%
D31*
%TO.C,D104*%
X142987500Y-56400000D03*
X141412500Y-56400000D03*
%TD*%
D36*
%TO.C,R102*%
X115600000Y-87205000D03*
X115600000Y-88225000D03*
%TD*%
%TO.C,R103*%
X113200000Y-87205000D03*
X113200000Y-88225000D03*
%TD*%
D16*
%TO.C,R107*%
X145710000Y-56400000D03*
X144690000Y-56400000D03*
%TD*%
D24*
%TO.C,R404*%
X133900000Y-44410000D03*
X133900000Y-43390000D03*
%TD*%
D16*
%TO.C,R407*%
X140510000Y-36050000D03*
X139490000Y-36050000D03*
%TD*%
%TO.C,R408*%
X140510000Y-35050000D03*
X139490000Y-35050000D03*
%TD*%
D36*
%TO.C,R414*%
X132400000Y-45340000D03*
X132400000Y-46360000D03*
%TD*%
D14*
%TO.C,R701*%
X106690000Y-42200000D03*
X107710000Y-42200000D03*
%TD*%
%TO.C,R702*%
X106690000Y-39000000D03*
X107710000Y-39000000D03*
%TD*%
%TO.C,R703*%
X108890000Y-42200000D03*
X109910000Y-42200000D03*
%TD*%
%TO.C,R704*%
X108890000Y-39000000D03*
X109910000Y-39000000D03*
%TD*%
%TO.C,R705*%
X108890000Y-43400000D03*
X109910000Y-43400000D03*
%TD*%
%TO.C,R706*%
X108890000Y-37800000D03*
X109910000Y-37800000D03*
%TD*%
D24*
%TO.C,R709*%
X118000000Y-42110000D03*
X118000000Y-41090000D03*
%TD*%
D36*
%TO.C,R710*%
X118000000Y-39090000D03*
X118000000Y-40110000D03*
%TD*%
D14*
%TO.C,R801*%
X106690000Y-54000000D03*
X107710000Y-54000000D03*
%TD*%
%TO.C,R802*%
X106690000Y-50800000D03*
X107710000Y-50800000D03*
%TD*%
%TO.C,R803*%
X108890000Y-54000000D03*
X109910000Y-54000000D03*
%TD*%
%TO.C,R804*%
X108890000Y-50800000D03*
X109910000Y-50800000D03*
%TD*%
%TO.C,R805*%
X108890000Y-55200000D03*
X109910000Y-55200000D03*
%TD*%
%TO.C,R806*%
X108890000Y-49600000D03*
X109910000Y-49600000D03*
%TD*%
D24*
%TO.C,R809*%
X118000000Y-53910000D03*
X118000000Y-52890000D03*
%TD*%
D36*
%TO.C,R810*%
X118000000Y-50890000D03*
X118000000Y-51910000D03*
%TD*%
D37*
%TO.C,X401*%
X135300000Y-46000000D03*
X135300000Y-43700000D03*
D38*
X137200000Y-43700000D03*
X137200000Y-46000000D03*
%TD*%
D20*
%TO.C,C408*%
X136550000Y-39980000D03*
X136550000Y-39020000D03*
%TD*%
D39*
%TO.C,U101*%
X125525000Y-61792200D03*
X125525000Y-61292200D03*
X125525000Y-60792200D03*
X125525000Y-60292200D03*
X125525000Y-59792200D03*
X125525000Y-59292200D03*
X125525000Y-58792200D03*
X125525000Y-58292200D03*
X125525000Y-57792200D03*
X125525000Y-57292200D03*
X125525000Y-56792200D03*
X125525000Y-56292200D03*
X125525000Y-55792200D03*
X125525000Y-55292200D03*
X125525000Y-54792200D03*
X125525000Y-54292200D03*
D40*
X127450000Y-52367200D03*
X127950000Y-52367200D03*
X128450000Y-52367200D03*
X128950000Y-52367200D03*
X129450000Y-52367200D03*
X129950000Y-52367200D03*
X130450000Y-52367200D03*
X130950000Y-52367200D03*
X131450000Y-52367200D03*
X131950000Y-52367200D03*
X132450000Y-52367200D03*
X132950000Y-52367200D03*
X133450000Y-52367200D03*
X133950000Y-52367200D03*
X134450000Y-52367200D03*
X134950000Y-52367200D03*
D39*
X136875000Y-54292200D03*
X136875000Y-54792200D03*
X136875000Y-55292200D03*
X136875000Y-55792200D03*
X136875000Y-56292200D03*
X136875000Y-56792200D03*
X136875000Y-57292200D03*
X136875000Y-57792200D03*
X136875000Y-58292200D03*
X136875000Y-58792200D03*
X136875000Y-59292200D03*
X136875000Y-59792200D03*
X136875000Y-60292200D03*
X136875000Y-60792200D03*
X136875000Y-61292200D03*
X136875000Y-61792200D03*
D40*
X134950000Y-63717200D03*
X134450000Y-63717200D03*
X133950000Y-63717200D03*
X133450000Y-63717200D03*
X132950000Y-63717200D03*
X132450000Y-63717200D03*
X131950000Y-63717200D03*
X131450000Y-63717200D03*
X130950000Y-63717200D03*
X130450000Y-63717200D03*
X129950000Y-63717200D03*
X129450000Y-63717200D03*
X128950000Y-63717200D03*
X128450000Y-63717200D03*
X127950000Y-63717200D03*
X127450000Y-63717200D03*
%TD*%
D16*
%TO.C,R205*%
X118510000Y-70400000D03*
X117490000Y-70400000D03*
%TD*%
D41*
%TO.C,U401*%
X132465000Y-36500000D03*
D42*
X130465000Y-36500000D03*
D43*
X132465000Y-38500000D03*
D44*
X130465000Y-38500000D03*
D45*
X128465000Y-39750000D03*
X128465000Y-39250000D03*
X128465000Y-38750000D03*
X128465000Y-38250000D03*
X128465000Y-37750000D03*
D46*
X128465000Y-37250000D03*
X128465000Y-36750000D03*
X128465000Y-36250000D03*
X128465000Y-35750000D03*
X128465000Y-35250000D03*
D47*
X129215000Y-34500000D03*
X129715000Y-34500000D03*
X130215000Y-34500000D03*
X130715000Y-34500000D03*
X131215000Y-34500000D03*
D48*
X131715000Y-34500000D03*
X132215000Y-34500000D03*
X132715000Y-34500000D03*
X133215000Y-34500000D03*
X133715000Y-34500000D03*
D46*
X134465000Y-35250000D03*
X134465000Y-35750000D03*
X134465000Y-36250000D03*
X134465000Y-36750000D03*
X134465000Y-37250000D03*
D45*
X134465000Y-37750000D03*
X134465000Y-38250000D03*
X134465000Y-38750000D03*
X134465000Y-39250000D03*
X134465000Y-39750000D03*
D48*
X133715000Y-40500000D03*
X133215000Y-40500000D03*
X132715000Y-40500000D03*
X132215000Y-40500000D03*
X131715000Y-40500000D03*
D47*
X131215000Y-40500000D03*
X130715000Y-40500000D03*
X130215000Y-40500000D03*
X129715000Y-40500000D03*
X129215000Y-40500000D03*
%TD*%
D49*
%TO.C,J206*%
X156100000Y-45630000D03*
X152275000Y-45630000D03*
X156100000Y-54270000D03*
X152275000Y-54270000D03*
D50*
X151650000Y-53050000D03*
X151650000Y-52300000D03*
D51*
X151650000Y-51200000D03*
X151650000Y-50700000D03*
X151650000Y-49700000D03*
X151650000Y-48700000D03*
D50*
X151650000Y-47600000D03*
X151650000Y-46850000D03*
D52*
X151650000Y-46850000D03*
D50*
X151650000Y-47600000D03*
D51*
X151650000Y-48200000D03*
X151650000Y-49200000D03*
X151650000Y-50200000D03*
X151650000Y-51700000D03*
D50*
X151650000Y-52300000D03*
X151650000Y-53050000D03*
D53*
X153000000Y-46950000D03*
D54*
X153000000Y-52950000D03*
%TD*%
D55*
%TO.C,J303*%
X27000000Y-66585000D03*
X27000000Y-64045000D03*
X27000000Y-61505000D03*
X27000000Y-58965000D03*
D56*
X27000000Y-56425000D03*
%TD*%
D22*
%TO.C,H301*%
X80400000Y-38000000D03*
X79697056Y-36302944D03*
X79697056Y-39697056D03*
X78000000Y-35600000D03*
D23*
X78000000Y-38000000D03*
D22*
X75600000Y-38000000D03*
X76302944Y-39697056D03*
X76302944Y-36302944D03*
X78000000Y-40400000D03*
%TD*%
%TO.C,H303*%
X80400000Y-86000000D03*
X79697056Y-84302944D03*
X79697056Y-87697056D03*
X78000000Y-83600000D03*
D23*
X78000000Y-86000000D03*
D22*
X75600000Y-86000000D03*
X76302944Y-87697056D03*
X76302944Y-84302944D03*
X78000000Y-88400000D03*
%TD*%
%TO.C,H304*%
X32400000Y-86000000D03*
X31697056Y-84302944D03*
X31697056Y-87697056D03*
X30000000Y-83600000D03*
D23*
X30000000Y-86000000D03*
D22*
X27600000Y-86000000D03*
X28302944Y-87697056D03*
X28302944Y-84302944D03*
X30000000Y-88400000D03*
%TD*%
%TO.C,H302*%
X32400000Y-38000000D03*
X31697056Y-36302944D03*
X31697056Y-39697056D03*
X30000000Y-35600000D03*
D23*
X30000000Y-38000000D03*
D22*
X27600000Y-38000000D03*
X28302944Y-39697056D03*
X28302944Y-36302944D03*
X30000000Y-40400000D03*
%TD*%
D57*
%TO.C,D304*%
X82400000Y-73200000D03*
X82400000Y-71625000D03*
%TD*%
D13*
%TO.C,C305*%
X53040000Y-52950000D03*
X54000000Y-52950000D03*
%TD*%
D14*
%TO.C,R305*%
X79690000Y-71600000D03*
X80710000Y-71600000D03*
%TD*%
D12*
%TO.C,C303*%
X57330000Y-52950000D03*
X56370000Y-52950000D03*
%TD*%
D57*
%TO.C,D305*%
X78000000Y-73187500D03*
X78000000Y-71612500D03*
%TD*%
D20*
%TO.C,C304*%
X62900000Y-65105000D03*
X62900000Y-64145000D03*
%TD*%
D16*
%TO.C,R304*%
X80710000Y-73200000D03*
X79690000Y-73200000D03*
%TD*%
D58*
%TO.C,J601*%
X103400000Y-50525000D03*
X103400000Y-51775000D03*
X103400000Y-53025000D03*
D59*
X103400000Y-54275000D03*
D60*
X100400000Y-56825000D03*
X100450000Y-47975000D03*
%TD*%
D20*
%TO.C,C804*%
X110000000Y-52880000D03*
X110000000Y-51920000D03*
%TD*%
%TO.C,CB1403*%
X199050000Y-41230000D03*
X199050000Y-40270000D03*
%TD*%
D14*
%TO.C,R1402*%
X119790000Y-67000000D03*
X120810000Y-67000000D03*
%TD*%
%TO.C,R1628*%
X207370000Y-67600000D03*
X208390000Y-67600000D03*
%TD*%
D24*
%TO.C,R1607*%
X187700000Y-63710000D03*
X187700000Y-62690000D03*
%TD*%
D16*
%TO.C,R1605*%
X195610000Y-61400000D03*
X194590000Y-61400000D03*
%TD*%
D24*
%TO.C,R1514*%
X213400000Y-67010000D03*
X213400000Y-65990000D03*
%TD*%
D14*
%TO.C,R409*%
X136490000Y-37050000D03*
X137510000Y-37050000D03*
%TD*%
D11*
%TO.C,CB1404*%
X219900000Y-46120000D03*
X219900000Y-47080000D03*
%TD*%
D19*
%TO.C,R206*%
X112925000Y-64900000D03*
X111275000Y-64900000D03*
%TD*%
D14*
%TO.C,R303*%
X79690000Y-76400000D03*
X80710000Y-76400000D03*
%TD*%
D61*
%TO.C,FB102*%
X138000000Y-77915000D03*
X138000000Y-78885000D03*
%TD*%
D11*
%TO.C,C1505*%
X220900000Y-46120000D03*
X220900000Y-47080000D03*
%TD*%
D13*
%TO.C,CB903*%
X147920000Y-83400000D03*
X148880000Y-83400000D03*
%TD*%
D16*
%TO.C,R201*%
X118510000Y-75200000D03*
X117490000Y-75200000D03*
%TD*%
D12*
%TO.C,CB1607*%
X202580000Y-64800000D03*
X201620000Y-64800000D03*
%TD*%
D20*
%TO.C,C306*%
X140400000Y-78900000D03*
X140400000Y-77940000D03*
%TD*%
D12*
%TO.C,CB907*%
X144880000Y-66700000D03*
X143920000Y-66700000D03*
%TD*%
D62*
%TO.C,U1401*%
X119825000Y-72625000D03*
X120475000Y-72625000D03*
X121125000Y-72625000D03*
X121775000Y-72625000D03*
X121775000Y-70575000D03*
X121125000Y-70575000D03*
X120475000Y-70575000D03*
X119825000Y-70575000D03*
%TD*%
D63*
%TO.C,C1608*%
X211987500Y-68400000D03*
X213412500Y-68400000D03*
%TD*%
D36*
%TO.C,R207*%
X123200000Y-56490000D03*
X123200000Y-57510000D03*
%TD*%
D16*
%TO.C,R204*%
X118510000Y-71600000D03*
X117490000Y-71600000D03*
%TD*%
D13*
%TO.C,C1606*%
X196720000Y-61400000D03*
X197680000Y-61400000D03*
%TD*%
D12*
%TO.C,CB1408*%
X208880000Y-43600000D03*
X207920000Y-43600000D03*
%TD*%
D20*
%TO.C,CB1401*%
X200000000Y-50530000D03*
X200000000Y-49570000D03*
%TD*%
D16*
%TO.C,R1618*%
X216410000Y-67000000D03*
X215390000Y-67000000D03*
%TD*%
D24*
%TO.C,C1602*%
X195100000Y-64710000D03*
X195100000Y-63690000D03*
%TD*%
D13*
%TO.C,CB904*%
X147920000Y-82200000D03*
X148880000Y-82200000D03*
%TD*%
D64*
%TO.C,J203*%
X118000000Y-81010000D03*
X118000000Y-79740000D03*
X118000000Y-78470000D03*
D65*
X118000000Y-77200000D03*
%TD*%
D11*
%TO.C,C909*%
X140600000Y-69520000D03*
X140600000Y-70480000D03*
%TD*%
D12*
%TO.C,C404*%
X126930000Y-45200000D03*
X125970000Y-45200000D03*
%TD*%
D36*
%TO.C,R402*%
X124000000Y-43090000D03*
X124000000Y-44110000D03*
%TD*%
D66*
%TO.C,D301*%
X52600000Y-51450000D03*
X54000000Y-51450000D03*
%TD*%
D11*
%TO.C,C202*%
X99400000Y-64320000D03*
X99400000Y-65280000D03*
%TD*%
%TO.C,C1503*%
X218950000Y-41470000D03*
X218950000Y-42430000D03*
%TD*%
D20*
%TO.C,CB1201*%
X146300000Y-38030000D03*
X146300000Y-37070000D03*
%TD*%
D13*
%TO.C,CB201*%
X117520000Y-68200000D03*
X118480000Y-68200000D03*
%TD*%
D67*
%TO.C,R916*%
X141875000Y-65300000D03*
X143525000Y-65300000D03*
%TD*%
D36*
%TO.C,R912*%
X156300000Y-61490000D03*
X156300000Y-62510000D03*
%TD*%
D14*
%TO.C,R906*%
X149190000Y-63100000D03*
X150210000Y-63100000D03*
%TD*%
D24*
%TO.C,R1609*%
X210200000Y-44610000D03*
X210200000Y-43590000D03*
%TD*%
D16*
%TO.C,R202*%
X118510000Y-74000000D03*
X117490000Y-74000000D03*
%TD*%
D13*
%TO.C,CB1202*%
X143720000Y-37950000D03*
X144680000Y-37950000D03*
%TD*%
D12*
%TO.C,C415*%
X128880000Y-44200000D03*
X127920000Y-44200000D03*
%TD*%
D16*
%TO.C,R1635*%
X203210000Y-60300000D03*
X202190000Y-60300000D03*
%TD*%
D11*
%TO.C,CB1406*%
X217950000Y-50770000D03*
X217950000Y-51730000D03*
%TD*%
D68*
%TO.C,MK1404*%
X209000000Y-42020000D03*
X207800000Y-42020000D03*
D69*
X207730000Y-38610000D03*
X210270000Y-38610000D03*
D68*
X210200000Y-42020000D03*
D54*
X209000000Y-39400000D03*
%TD*%
D16*
%TO.C,R921*%
X147310000Y-44200000D03*
X146290000Y-44200000D03*
%TD*%
D61*
%TO.C,FB101*%
X136800000Y-77915000D03*
X136800000Y-78885000D03*
%TD*%
D70*
%TO.C,U301*%
X60600000Y-57965000D03*
X60600000Y-59865000D03*
X60600000Y-61765000D03*
X60600000Y-63665000D03*
X60600000Y-65565000D03*
D71*
X57800000Y-68365000D03*
X55900000Y-68365000D03*
X54000000Y-68365000D03*
X52100000Y-68365000D03*
X50200000Y-68365000D03*
D70*
X47400000Y-65565000D03*
X47400000Y-63665000D03*
X47400000Y-61765000D03*
X47400000Y-59865000D03*
X47400000Y-57965000D03*
D71*
X50200000Y-55165000D03*
X52100000Y-55165000D03*
X54000000Y-55165000D03*
X55900000Y-55165000D03*
X57800000Y-55165000D03*
%TD*%
D72*
%TO.C,U402*%
X126650000Y-43700000D03*
X125350000Y-43700000D03*
X125350000Y-41500000D03*
X126000000Y-41500000D03*
X126650000Y-41500000D03*
%TD*%
D20*
%TO.C,CB1405*%
X198100000Y-45880000D03*
X198100000Y-44920000D03*
%TD*%
D73*
%TO.C,D105*%
X143200000Y-51550000D03*
X143200000Y-52850000D03*
X141200000Y-52850000D03*
X141200000Y-51550000D03*
%TD*%
D16*
%TO.C,R1622*%
X210610000Y-60800000D03*
X209590000Y-60800000D03*
%TD*%
D20*
%TO.C,C704*%
X110000000Y-41080000D03*
X110000000Y-40120000D03*
%TD*%
D12*
%TO.C,CB1409*%
X120780000Y-73975000D03*
X119820000Y-73975000D03*
%TD*%
D11*
%TO.C,CB1602*%
X189780000Y-60520000D03*
X189780000Y-61480000D03*
%TD*%
D12*
%TO.C,CB1301*%
X140880000Y-63900000D03*
X139920000Y-63900000D03*
%TD*%
D14*
%TO.C,R1612*%
X197090000Y-47200000D03*
X198110000Y-47200000D03*
%TD*%
D74*
%TO.C,C1613*%
X206012500Y-68400000D03*
X204587500Y-68400000D03*
%TD*%
D20*
%TO.C,C1006*%
X192300000Y-38880000D03*
X192300000Y-37920000D03*
%TD*%
%TO.C,C1501*%
X197100000Y-45880000D03*
X197100000Y-44920000D03*
%TD*%
D75*
%TO.C,FB201*%
X100600000Y-65285000D03*
X100600000Y-64315000D03*
%TD*%
D12*
%TO.C,CB1606*%
X210560000Y-68700000D03*
X209600000Y-68700000D03*
%TD*%
D76*
%TO.C,C1201*%
X142200000Y-35382500D03*
X142200000Y-36517500D03*
%TD*%
D20*
%TO.C,C1610*%
X214400000Y-62380000D03*
X214400000Y-61420000D03*
%TD*%
D68*
%TO.C,MK1402*%
X218220000Y-46000000D03*
X218220000Y-47200000D03*
D69*
X214810000Y-47270000D03*
X214810000Y-44730000D03*
D68*
X218220000Y-44800000D03*
D54*
X215600000Y-46000000D03*
%TD*%
D12*
%TO.C,C301*%
X79480000Y-52800000D03*
X78520000Y-52800000D03*
%TD*%
D57*
%TO.C,D904*%
X139200000Y-69387500D03*
X139200000Y-67812500D03*
%TD*%
D13*
%TO.C,CB1407*%
X209120000Y-48300000D03*
X210080000Y-48300000D03*
%TD*%
D19*
%TO.C,R913*%
X151232800Y-78600000D03*
X149582800Y-78600000D03*
%TD*%
D16*
%TO.C,R1403*%
X120810000Y-75200000D03*
X119790000Y-75200000D03*
%TD*%
%TO.C,R405*%
X134860000Y-42200000D03*
X133840000Y-42200000D03*
%TD*%
D68*
%TO.C,MK1401*%
X199780000Y-46000000D03*
X199780000Y-44800000D03*
D69*
X203190000Y-44730000D03*
X203190000Y-47270000D03*
D68*
X199780000Y-47200000D03*
D54*
X202400000Y-46000000D03*
%TD*%
D77*
%TO.C,FB501*%
X106470000Y-40100000D03*
X105500000Y-40100000D03*
%TD*%
D19*
%TO.C,R914*%
X151232800Y-80414000D03*
X149582800Y-80414000D03*
%TD*%
D13*
%TO.C,C302*%
X78520000Y-50400000D03*
X79480000Y-50400000D03*
%TD*%
D11*
%TO.C,C1604*%
X193500000Y-64720000D03*
X193500000Y-65680000D03*
%TD*%
D13*
%TO.C,C901*%
X133020000Y-69600000D03*
X133980000Y-69600000D03*
%TD*%
%TO.C,C1605*%
X191300000Y-60500000D03*
X192260000Y-60500000D03*
%TD*%
D78*
%TO.C,FB302*%
X55915000Y-70500000D03*
X56885000Y-70500000D03*
%TD*%
D14*
%TO.C,R411*%
X136490000Y-38050000D03*
X137510000Y-38050000D03*
%TD*%
D24*
%TO.C,R917*%
X156300000Y-64510000D03*
X156300000Y-63490000D03*
%TD*%
D14*
%TO.C,R1613*%
X198990000Y-51850000D03*
X200010000Y-51850000D03*
%TD*%
D22*
%TO.C,H1001*%
X224600000Y-46000000D03*
X225302944Y-47697056D03*
X225302944Y-44302944D03*
X227000000Y-48400000D03*
D23*
X227000000Y-46000000D03*
D22*
X229400000Y-46000000D03*
X228697056Y-44302944D03*
X228697056Y-47697056D03*
X227000000Y-43600000D03*
%TD*%
D77*
%TO.C,FB901*%
X133985000Y-68600000D03*
X133015000Y-68600000D03*
%TD*%
%TO.C,FB502*%
X106470000Y-41100000D03*
X105500000Y-41100000D03*
%TD*%
D16*
%TO.C,R412*%
X137510000Y-36050000D03*
X136490000Y-36050000D03*
%TD*%
D36*
%TO.C,R1610*%
X207800000Y-47290000D03*
X207800000Y-48310000D03*
%TD*%
D11*
%TO.C,C602*%
X105600000Y-54120000D03*
X105600000Y-55080000D03*
%TD*%
D68*
%TO.C,MK1403*%
X209000000Y-49980000D03*
X210200000Y-49980000D03*
D69*
X210270000Y-53390000D03*
X207730000Y-53390000D03*
D68*
X207800000Y-49980000D03*
D54*
X209000000Y-52600000D03*
%TD*%
D12*
%TO.C,CB1605*%
X210580000Y-59700000D03*
X209620000Y-59700000D03*
%TD*%
D36*
%TO.C,R401*%
X124000000Y-41090000D03*
X124000000Y-42110000D03*
%TD*%
D11*
%TO.C,C905*%
X148262500Y-41920000D03*
X148262500Y-42880000D03*
%TD*%
D20*
%TO.C,C1603*%
X193500000Y-63680000D03*
X193500000Y-62720000D03*
%TD*%
D14*
%TO.C,R1626*%
X201590000Y-65900000D03*
X202610000Y-65900000D03*
%TD*%
D36*
%TO.C,R108*%
X116700000Y-64390000D03*
X116700000Y-65410000D03*
%TD*%
D11*
%TO.C,C1507*%
X218950000Y-50770000D03*
X218950000Y-51730000D03*
%TD*%
D20*
%TO.C,C1005*%
X185800000Y-44280000D03*
X185800000Y-43320000D03*
%TD*%
D15*
%TO.C,D1001*%
X177630000Y-39120000D03*
X179205000Y-39120000D03*
%TD*%
D32*
%TO.C,U1701*%
X190600000Y-64200000D03*
D79*
X191350000Y-65662500D03*
X190850000Y-65662500D03*
X190350000Y-65662500D03*
X189850000Y-65662500D03*
D80*
X189137500Y-64950000D03*
X189137500Y-64450000D03*
X189137500Y-63950000D03*
X189137500Y-63450000D03*
D79*
X189850000Y-62737500D03*
X190350000Y-62737500D03*
X190850000Y-62737500D03*
X191350000Y-62737500D03*
D80*
X192062500Y-63450000D03*
X192062500Y-63950000D03*
X192062500Y-64450000D03*
X192062500Y-64950000D03*
%TD*%
D20*
%TO.C,CB1001*%
X193500000Y-38880000D03*
X193500000Y-37920000D03*
%TD*%
D63*
%TO.C,C1614*%
X211987500Y-60000000D03*
X213412500Y-60000000D03*
%TD*%
D20*
%TO.C,C911*%
X149500000Y-46680000D03*
X149500000Y-45720000D03*
%TD*%
D36*
%TO.C,R707*%
X116800000Y-41090000D03*
X116800000Y-42110000D03*
%TD*%
D81*
%TO.C,C1601*%
X197100000Y-64975000D03*
X197100000Y-63425000D03*
%TD*%
D36*
%TO.C,R807*%
X116800000Y-52890000D03*
X116800000Y-53910000D03*
%TD*%
D16*
%TO.C,R1619*%
X216410000Y-62500000D03*
X215390000Y-62500000D03*
%TD*%
D75*
%TO.C,FB304*%
X139200000Y-78885000D03*
X139200000Y-77915000D03*
%TD*%
D16*
%TO.C,R104*%
X145710000Y-53000000D03*
X144690000Y-53000000D03*
%TD*%
D74*
%TO.C,C1609*%
X206012500Y-60000000D03*
X204587500Y-60000000D03*
%TD*%
D16*
%TO.C,R1602*%
X199710000Y-64900000D03*
X198690000Y-64900000D03*
%TD*%
D36*
%TO.C,R903*%
X151300000Y-57090000D03*
X151300000Y-58110000D03*
%TD*%
D20*
%TO.C,C1102*%
X182800000Y-50180000D03*
X182800000Y-49220000D03*
%TD*%
D14*
%TO.C,R1401*%
X119790000Y-68100000D03*
X120810000Y-68100000D03*
%TD*%
D13*
%TO.C,CB902*%
X133020000Y-65600000D03*
X133980000Y-65600000D03*
%TD*%
D16*
%TO.C,R410*%
X137510000Y-35050000D03*
X136490000Y-35050000D03*
%TD*%
D82*
%TO.C,JP901*%
X155700000Y-59600000D03*
D83*
X154400000Y-59600000D03*
D84*
X153100000Y-59600000D03*
%TD*%
D24*
%TO.C,R1629*%
X204600000Y-67010000D03*
X204600000Y-65990000D03*
%TD*%
D14*
%TO.C,R1631*%
X201590000Y-62500000D03*
X202610000Y-62500000D03*
%TD*%
D85*
%TO.C,U1001*%
X197437500Y-37950000D03*
X197437500Y-39850000D03*
X195162500Y-39850000D03*
X195162500Y-38900000D03*
X195162500Y-37950000D03*
%TD*%
D68*
%TO.C,MK1405*%
X201730000Y-50650000D03*
X201730000Y-49450000D03*
D69*
X205140000Y-49380000D03*
X205140000Y-51920000D03*
D68*
X201730000Y-51850000D03*
D54*
X204350000Y-50650000D03*
%TD*%
D11*
%TO.C,C1101*%
X186400000Y-49220000D03*
X186400000Y-50180000D03*
%TD*%
D16*
%TO.C,R1606*%
X195610000Y-67000000D03*
X194590000Y-67000000D03*
%TD*%
D24*
%TO.C,R501*%
X107600000Y-41110000D03*
X107600000Y-40090000D03*
%TD*%
D77*
%TO.C,FB301*%
X79485000Y-51600000D03*
X78515000Y-51600000D03*
%TD*%
D24*
%TO.C,R808*%
X116800000Y-51910000D03*
X116800000Y-50890000D03*
%TD*%
D11*
%TO.C,C1504*%
X214400000Y-63720000D03*
X214400000Y-64680000D03*
%TD*%
D25*
%TO.C,U1002*%
X183462500Y-39850000D03*
X183462500Y-37950000D03*
X185737500Y-37950000D03*
X185737500Y-38900000D03*
X185737500Y-39850000D03*
%TD*%
D16*
%TO.C,R1611*%
X220910000Y-44800000D03*
X219890000Y-44800000D03*
%TD*%
D14*
%TO.C,R1201*%
X143290000Y-33800000D03*
X144310000Y-33800000D03*
%TD*%
D13*
%TO.C,C712*%
X112320000Y-44300000D03*
X113280000Y-44300000D03*
%TD*%
D77*
%TO.C,FB903*%
X150185000Y-60000000D03*
X149215000Y-60000000D03*
%TD*%
D11*
%TO.C,CB1502*%
X213400000Y-63720000D03*
X213400000Y-64680000D03*
%TD*%
D19*
%TO.C,R210*%
X152825000Y-42300000D03*
X151175000Y-42300000D03*
%TD*%
D14*
%TO.C,R910*%
X150290000Y-83400000D03*
X151310000Y-83400000D03*
%TD*%
D16*
%TO.C,R918*%
X120910000Y-35200000D03*
X119890000Y-35200000D03*
%TD*%
D13*
%TO.C,C1009*%
X198720000Y-61400000D03*
X199680000Y-61400000D03*
%TD*%
D11*
%TO.C,C1502*%
X214400000Y-66020000D03*
X214400000Y-66980000D03*
%TD*%
D13*
%TO.C,C206*%
X131220000Y-81600000D03*
X132180000Y-81600000D03*
%TD*%
%TO.C,C912*%
X143920000Y-44200000D03*
X144880000Y-44200000D03*
%TD*%
D24*
%TO.C,R708*%
X116800000Y-40110000D03*
X116800000Y-39090000D03*
%TD*%
D20*
%TO.C,C1506*%
X200050000Y-41230000D03*
X200050000Y-40270000D03*
%TD*%
D13*
%TO.C,C902*%
X133020000Y-67600000D03*
X133980000Y-67600000D03*
%TD*%
D77*
%TO.C,FB305*%
X74385000Y-62650000D03*
X73415000Y-62650000D03*
%TD*%
D14*
%TO.C,R1623*%
X214790000Y-68100000D03*
X215810000Y-68100000D03*
%TD*%
%TO.C,R1633*%
X207390000Y-60800000D03*
X208410000Y-60800000D03*
%TD*%
D12*
%TO.C,C1401*%
X208880000Y-44600000D03*
X207920000Y-44600000D03*
%TD*%
D85*
%TO.C,U904*%
X146737500Y-45650000D03*
X146737500Y-46600000D03*
X146737500Y-47550000D03*
X144462500Y-47550000D03*
X144462500Y-46600000D03*
X144462500Y-45650000D03*
%TD*%
D59*
%TO.C,J302*%
X76075000Y-66400000D03*
D58*
X76075000Y-65150000D03*
D59*
X76075000Y-63900000D03*
X76075000Y-62650000D03*
X76075000Y-61400000D03*
D58*
X76075000Y-60150000D03*
X76075000Y-58900000D03*
X76075000Y-57650000D03*
D86*
X79075000Y-55100000D03*
X79025000Y-68950000D03*
%TD*%
D36*
%TO.C,R902*%
X151300000Y-59035200D03*
X151300000Y-60055200D03*
%TD*%
D16*
%TO.C,R1601*%
X199710000Y-63600000D03*
X198690000Y-63600000D03*
%TD*%
D11*
%TO.C,CB1402*%
X217950000Y-41470000D03*
X217950000Y-42430000D03*
%TD*%
D13*
%TO.C,CB1610*%
X215400000Y-64800000D03*
X216360000Y-64800000D03*
%TD*%
D57*
%TO.C,D302*%
X78000000Y-76387500D03*
X78000000Y-74812500D03*
%TD*%
D87*
%TO.C,JP101*%
X118450000Y-64900000D03*
D88*
X119750000Y-64900000D03*
%TD*%
D16*
%TO.C,R1303*%
X144910000Y-63900000D03*
X143890000Y-63900000D03*
%TD*%
D57*
%TO.C,D303*%
X82400000Y-76400000D03*
X82400000Y-74825000D03*
%TD*%
D14*
%TO.C,R1002*%
X177890000Y-37700000D03*
X178910000Y-37700000D03*
%TD*%
D89*
%TO.C,SW901*%
X153400000Y-79400000D03*
X153400000Y-81400000D03*
X153400000Y-85400000D03*
X153400000Y-87400000D03*
X156200000Y-79400000D03*
X156200000Y-81400000D03*
X156200000Y-85400000D03*
X156200000Y-87400000D03*
%TD*%
D19*
%TO.C,R211*%
X156625000Y-43900000D03*
X154975000Y-43900000D03*
%TD*%
D24*
%TO.C,R907*%
X156300000Y-66510000D03*
X156300000Y-65490000D03*
%TD*%
D75*
%TO.C,FB1102*%
X184000000Y-50185000D03*
X184000000Y-49215000D03*
%TD*%
D20*
%TO.C,C805*%
X114800000Y-56080000D03*
X114800000Y-55120000D03*
%TD*%
D11*
%TO.C,C1007*%
X188600000Y-38920000D03*
X188600000Y-39880000D03*
%TD*%
D22*
%TO.C,H1002*%
X188600000Y-46000000D03*
X189302944Y-47697056D03*
X189302944Y-44302944D03*
X191000000Y-48400000D03*
D23*
X191000000Y-46000000D03*
D22*
X193400000Y-46000000D03*
X192697056Y-44302944D03*
X192697056Y-47697056D03*
X191000000Y-43600000D03*
%TD*%
D77*
%TO.C,FB303*%
X54000000Y-70500000D03*
X53030000Y-70500000D03*
%TD*%
D12*
%TO.C,CB108*%
X145680000Y-51600000D03*
X144720000Y-51600000D03*
%TD*%
D16*
%TO.C,R1301*%
X146910000Y-63900000D03*
X145890000Y-63900000D03*
%TD*%
D13*
%TO.C,CB1410*%
X119820000Y-69200000D03*
X120780000Y-69200000D03*
%TD*%
D11*
%TO.C,C1003*%
X183400000Y-43320000D03*
X183400000Y-44280000D03*
%TD*%
%TO.C,C1202*%
X146300000Y-35070000D03*
X146300000Y-36030000D03*
%TD*%
D12*
%TO.C,CB1608*%
X202580000Y-63600000D03*
X201620000Y-63600000D03*
%TD*%
D14*
%TO.C,R904*%
X149190000Y-62041800D03*
X150210000Y-62041800D03*
%TD*%
D16*
%TO.C,R1617*%
X216410000Y-65900000D03*
X215390000Y-65900000D03*
%TD*%
D12*
%TO.C,C107*%
X128200000Y-49600000D03*
X127240000Y-49600000D03*
%TD*%
D11*
%TO.C,C601*%
X105600000Y-49720000D03*
X105600000Y-50680000D03*
%TD*%
D14*
%TO.C,R1627*%
X201590000Y-67000000D03*
X202610000Y-67000000D03*
%TD*%
D36*
%TO.C,R1624*%
X213400000Y-61390000D03*
X213400000Y-62410000D03*
%TD*%
D90*
%TO.C,J205*%
X123625000Y-83400000D03*
D91*
X124875000Y-83400000D03*
D90*
X126125000Y-83400000D03*
X127375000Y-83400000D03*
X128625000Y-83400000D03*
D91*
X129875000Y-83400000D03*
X131125000Y-83400000D03*
X132375000Y-83400000D03*
D92*
X134925000Y-86400000D03*
X121075000Y-86350000D03*
%TD*%
D11*
%TO.C,CB906*%
X148200000Y-79020000D03*
X148200000Y-79980000D03*
%TD*%
D14*
%TO.C,R1003*%
X187490000Y-37900000D03*
X188510000Y-37900000D03*
%TD*%
D12*
%TO.C,C416*%
X105880000Y-47700000D03*
X104920000Y-47700000D03*
%TD*%
D68*
%TO.C,MK1407*%
X201730000Y-41350000D03*
X201730000Y-40150000D03*
D69*
X205140000Y-40080000D03*
X205140000Y-42620000D03*
D68*
X201730000Y-42550000D03*
D54*
X204350000Y-41350000D03*
%TD*%
D20*
%TO.C,C1001*%
X199100000Y-38880000D03*
X199100000Y-37920000D03*
%TD*%
D16*
%TO.C,R1603*%
X195610000Y-62500000D03*
X194590000Y-62500000D03*
%TD*%
D11*
%TO.C,C1008*%
X203600000Y-63720000D03*
X203600000Y-64680000D03*
%TD*%
D24*
%TO.C,R919*%
X140600000Y-68510000D03*
X140600000Y-67490000D03*
%TD*%
D13*
%TO.C,C205*%
X131320000Y-74200000D03*
X132280000Y-74200000D03*
%TD*%
D93*
%TO.C,U1301*%
X140925000Y-62455000D03*
X140925000Y-61185000D03*
X140925000Y-59915000D03*
X140925000Y-58645000D03*
X145875000Y-58645000D03*
X145875000Y-59915000D03*
X145875000Y-61185000D03*
X145875000Y-62455000D03*
%TD*%
D94*
%TO.C,TP1001*%
X184000000Y-41800000D03*
%TD*%
D11*
%TO.C,CB1002*%
X187400000Y-38920000D03*
X187400000Y-39880000D03*
%TD*%
%TO.C,C1004*%
X204600000Y-63720000D03*
X204600000Y-64680000D03*
%TD*%
D20*
%TO.C,C201*%
X101800000Y-65280000D03*
X101800000Y-64320000D03*
%TD*%
%TO.C,C1612*%
X203600000Y-62380000D03*
X203600000Y-61420000D03*
%TD*%
D14*
%TO.C,R302*%
X79690000Y-74800000D03*
X80710000Y-74800000D03*
%TD*%
D68*
%TO.C,MK1406*%
X216270000Y-41350000D03*
X216270000Y-42550000D03*
D69*
X212860000Y-42620000D03*
X212860000Y-40080000D03*
D68*
X216270000Y-40150000D03*
D54*
X213650000Y-41350000D03*
%TD*%
D24*
%TO.C,R909*%
X150300000Y-65820000D03*
X150300000Y-64800000D03*
%TD*%
D58*
%TO.C,J1101*%
X181400000Y-44125000D03*
X181400000Y-45375000D03*
X181400000Y-46625000D03*
D59*
X181400000Y-47875000D03*
D60*
X178400000Y-50425000D03*
X178450000Y-41575000D03*
%TD*%
D13*
%TO.C,C1508*%
X209120000Y-47300000D03*
X210080000Y-47300000D03*
%TD*%
D12*
%TO.C,C417*%
X106080000Y-35800000D03*
X105120000Y-35800000D03*
%TD*%
D13*
%TO.C,C1607*%
X196720000Y-67000000D03*
X197680000Y-67000000D03*
%TD*%
D16*
%TO.C,R1614*%
X218960000Y-40150000D03*
X217940000Y-40150000D03*
%TD*%
D61*
%TO.C,FB1001*%
X184600000Y-43315000D03*
X184600000Y-44285000D03*
%TD*%
D90*
%TO.C,J207*%
X123625000Y-75900000D03*
D91*
X124875000Y-75900000D03*
D90*
X126125000Y-75900000D03*
X127375000Y-75900000D03*
X128625000Y-75900000D03*
D91*
X129875000Y-75900000D03*
X131125000Y-75900000D03*
X132375000Y-75900000D03*
D92*
X134925000Y-78900000D03*
X121075000Y-78850000D03*
%TD*%
D13*
%TO.C,C812*%
X112320000Y-56100000D03*
X113280000Y-56100000D03*
%TD*%
D14*
%TO.C,R1101*%
X184090000Y-51300000D03*
X185110000Y-51300000D03*
%TD*%
D58*
%TO.C,J501*%
X103400000Y-38725000D03*
X103400000Y-39975000D03*
X103400000Y-41225000D03*
D59*
X103400000Y-42475000D03*
D60*
X100400000Y-45025000D03*
X100450000Y-36175000D03*
%TD*%
D36*
%TO.C,R1634*%
X204600000Y-61390000D03*
X204600000Y-62410000D03*
%TD*%
D95*
%TO.C,U1601*%
X206200000Y-66150000D03*
X206200000Y-65500000D03*
X206200000Y-64850000D03*
X206200000Y-64200000D03*
X206200000Y-63550000D03*
X206200000Y-62900000D03*
X206200000Y-62250000D03*
X211800000Y-62250000D03*
X211800000Y-62900000D03*
X211800000Y-63550000D03*
X211800000Y-64200000D03*
X211800000Y-64850000D03*
X211800000Y-65500000D03*
X211800000Y-66150000D03*
%TD*%
D14*
%TO.C,R1632*%
X201590000Y-61400000D03*
X202610000Y-61400000D03*
%TD*%
%TO.C,R406*%
X123940000Y-45200000D03*
X124960000Y-45200000D03*
%TD*%
D16*
%TO.C,R1621*%
X210590000Y-67600000D03*
X209570000Y-67600000D03*
%TD*%
D20*
%TO.C,C705*%
X114800000Y-44280000D03*
X114800000Y-43320000D03*
%TD*%
D13*
%TO.C,C203*%
X155320000Y-42500000D03*
X156280000Y-42500000D03*
%TD*%
D31*
%TO.C,D903*%
X123787500Y-35200000D03*
X122212500Y-35200000D03*
%TD*%
D16*
%TO.C,R1604*%
X195610000Y-65900000D03*
X194590000Y-65900000D03*
%TD*%
D11*
%TO.C,C1002*%
X181800000Y-38920000D03*
X181800000Y-39880000D03*
%TD*%
D68*
%TO.C,MK1408*%
X216270000Y-50650000D03*
X216270000Y-51850000D03*
D69*
X212860000Y-51920000D03*
X212860000Y-49380000D03*
D68*
X216270000Y-49450000D03*
D54*
X213650000Y-50650000D03*
%TD*%
D11*
%TO.C,C906*%
X146000000Y-69520000D03*
X146000000Y-70480000D03*
%TD*%
D24*
%TO.C,R901*%
X149300000Y-65820000D03*
X149300000Y-64800000D03*
%TD*%
D14*
%TO.C,R413*%
X127890000Y-45200000D03*
X128910000Y-45200000D03*
%TD*%
D16*
%TO.C,R911*%
X151310000Y-82200000D03*
X150290000Y-82200000D03*
%TD*%
D36*
%TO.C,R922*%
X148300000Y-45690000D03*
X148300000Y-46710000D03*
%TD*%
D11*
%TO.C,C1611*%
X203600000Y-66020000D03*
X203600000Y-66980000D03*
%TD*%
D59*
%TO.C,J301*%
X141800000Y-86425000D03*
D58*
X141800000Y-85175000D03*
D59*
X141800000Y-83925000D03*
X141800000Y-82675000D03*
X141800000Y-81425000D03*
D58*
X141800000Y-80175000D03*
X141800000Y-78925000D03*
X141800000Y-77675000D03*
D86*
X144800000Y-75125000D03*
X144750000Y-88975000D03*
%TD*%
D20*
%TO.C,C1402*%
X199000000Y-50530000D03*
X199000000Y-49570000D03*
%TD*%
D16*
%TO.C,R1302*%
X142910000Y-63900000D03*
X141890000Y-63900000D03*
%TD*%
D32*
%TO.C,U901*%
X153194500Y-62991200D03*
D96*
X151732000Y-63741200D03*
X151732000Y-63241200D03*
X151732000Y-62741200D03*
X151732000Y-62241200D03*
D97*
X152444500Y-61528700D03*
X152944500Y-61528700D03*
X153444500Y-61528700D03*
X153944500Y-61528700D03*
D96*
X154657000Y-62241200D03*
X154657000Y-62741200D03*
X154657000Y-63241200D03*
X154657000Y-63741200D03*
D97*
X153944500Y-64453700D03*
X153444500Y-64453700D03*
X152944500Y-64453700D03*
X152444500Y-64453700D03*
%TD*%
D24*
%TO.C,R920*%
X142800000Y-48510000D03*
X142800000Y-47490000D03*
%TD*%
D16*
%TO.C,R1620*%
X216410000Y-61400000D03*
X215390000Y-61400000D03*
%TD*%
%TO.C,R1630*%
X203210000Y-68100000D03*
X202190000Y-68100000D03*
%TD*%
D13*
%TO.C,CB1603*%
X207400000Y-68700000D03*
X208360000Y-68700000D03*
%TD*%
%TO.C,C908*%
X149220000Y-61000000D03*
X150180000Y-61000000D03*
%TD*%
D20*
%TO.C,C907*%
X142800000Y-46480000D03*
X142800000Y-45520000D03*
%TD*%
D13*
%TO.C,C204*%
X117500000Y-69270000D03*
X118460000Y-69270000D03*
%TD*%
%TO.C,CB1609*%
X215420000Y-63600000D03*
X216380000Y-63600000D03*
%TD*%
D67*
%TO.C,R915*%
X145075000Y-65300000D03*
X146725000Y-65300000D03*
%TD*%
D77*
%TO.C,FB602*%
X106485000Y-52900000D03*
X105515000Y-52900000D03*
%TD*%
D12*
%TO.C,CB1601*%
X192260000Y-61500000D03*
X191300000Y-61500000D03*
%TD*%
D14*
%TO.C,R1625*%
X214790000Y-60300000D03*
X215810000Y-60300000D03*
%TD*%
D36*
%TO.C,R403*%
X138000000Y-38990000D03*
X138000000Y-40010000D03*
%TD*%
D24*
%TO.C,R601*%
X107600000Y-52910000D03*
X107600000Y-51890000D03*
%TD*%
D13*
%TO.C,CB1604*%
X207420000Y-59700000D03*
X208380000Y-59700000D03*
%TD*%
D16*
%TO.C,R203*%
X118510000Y-72800000D03*
X117490000Y-72800000D03*
%TD*%
D98*
%TO.C,U1201*%
X144962500Y-35700000D03*
X144962500Y-36200000D03*
D99*
X144950000Y-36712500D03*
X144450000Y-36712500D03*
X143950000Y-36712500D03*
X143450000Y-36712500D03*
D98*
X143437500Y-36200000D03*
X143437500Y-35700000D03*
D99*
X143450000Y-35187500D03*
X143950000Y-35187500D03*
X144450000Y-35187500D03*
X144950000Y-35187500D03*
%TD*%
D13*
%TO.C,CB901*%
X133020000Y-66600000D03*
X133980000Y-66600000D03*
%TD*%
D16*
%TO.C,R1001*%
X193410000Y-39900000D03*
X192390000Y-39900000D03*
%TD*%
D36*
%TO.C,R1608*%
X187700000Y-64690000D03*
X187700000Y-65710000D03*
%TD*%
D13*
%TO.C,CB1003*%
X198720000Y-62500000D03*
X199680000Y-62500000D03*
%TD*%
D16*
%TO.C,R1616*%
X218960000Y-49450000D03*
X217940000Y-49450000D03*
%TD*%
D75*
%TO.C,FB1101*%
X185200000Y-50185000D03*
X185200000Y-49215000D03*
%TD*%
D100*
%TO.C,J204*%
X103250000Y-66795000D03*
D101*
X115525000Y-69000000D03*
X115525000Y-76780000D03*
D100*
X114730000Y-81085000D03*
D102*
X103400000Y-81185000D03*
D103*
X105400000Y-67200000D03*
X114400000Y-67200000D03*
D104*
X102775000Y-69140000D03*
X102775000Y-70240000D03*
X102775000Y-71340000D03*
X102775000Y-72440000D03*
X102775000Y-73540000D03*
X102775000Y-74640000D03*
X102775000Y-75740000D03*
X102775000Y-76840000D03*
%TD*%
D14*
%TO.C,R1615*%
X199040000Y-42550000D03*
X200060000Y-42550000D03*
%TD*%
D24*
%TO.C,R1*%
X115500000Y-65410000D03*
X115500000Y-64390000D03*
%TD*%
D25*
%TO.C,U902*%
X142148500Y-70458000D03*
X142148500Y-68558000D03*
X144423500Y-68558000D03*
X144423500Y-69508000D03*
X144423500Y-70458000D03*
%TD*%
D77*
%TO.C,FB601*%
X106485000Y-51900000D03*
X105515000Y-51900000D03*
%TD*%
D105*
%TO.C,J202*%
X108320000Y-85184000D03*
X118480000Y-86200000D03*
X108320000Y-87216000D03*
D106*
X118480000Y-83660000D03*
X110225000Y-88740000D03*
X110225000Y-83660000D03*
X118480000Y-88740000D03*
%TD*%
G36*
X152999443Y-32000052D02*
G01*
X153000503Y-32000076D01*
X153005454Y-32000239D01*
X153424333Y-32018527D01*
X153425395Y-32018585D01*
X153434669Y-32019192D01*
X153436808Y-32019379D01*
X153446086Y-32020396D01*
X153447143Y-32020523D01*
X153856909Y-32074468D01*
X153857970Y-32074620D01*
X153867147Y-32076033D01*
X153869254Y-32076404D01*
X153878379Y-32078220D01*
X153879421Y-32078440D01*
X154282907Y-32167891D01*
X154283944Y-32168132D01*
X154292987Y-32170344D01*
X154295057Y-32170899D01*
X154303997Y-32173505D01*
X154305019Y-32173815D01*
X154699172Y-32298091D01*
X154700189Y-32298424D01*
X154709017Y-32301421D01*
X154711023Y-32302151D01*
X154719690Y-32305521D01*
X154720683Y-32305920D01*
X155102486Y-32464068D01*
X155103470Y-32464488D01*
X155112006Y-32468244D01*
X155113944Y-32469148D01*
X155122296Y-32473267D01*
X155123249Y-32473749D01*
X155489882Y-32664606D01*
X155490823Y-32665110D01*
X155498935Y-32669560D01*
X155500789Y-32670630D01*
X155508748Y-32675460D01*
X155509655Y-32676024D01*
X155858235Y-32898094D01*
X155859131Y-32898679D01*
X155866850Y-32903837D01*
X155868598Y-32905061D01*
X155876127Y-32910581D01*
X155876984Y-32911224D01*
X156204820Y-33162781D01*
X156205662Y-33163441D01*
X156212962Y-33169300D01*
X156214597Y-33170672D01*
X156221567Y-33176784D01*
X156222365Y-33177499D01*
X156527101Y-33456739D01*
X156527877Y-33457467D01*
X156534589Y-33463891D01*
X156536108Y-33465410D01*
X156542532Y-33472122D01*
X156543260Y-33472898D01*
X156822500Y-33777634D01*
X156823215Y-33778432D01*
X156829327Y-33785402D01*
X156830699Y-33787037D01*
X156836558Y-33794337D01*
X156837218Y-33795179D01*
X157088775Y-34123015D01*
X157089418Y-34123872D01*
X157094938Y-34131401D01*
X157096162Y-34133149D01*
X157101320Y-34140868D01*
X157101905Y-34141764D01*
X157323975Y-34490344D01*
X157324539Y-34491251D01*
X157329369Y-34499210D01*
X157330439Y-34501064D01*
X157334889Y-34509176D01*
X157335393Y-34510117D01*
X157526250Y-34876750D01*
X157526732Y-34877703D01*
X157530851Y-34886055D01*
X157531755Y-34887993D01*
X157535511Y-34896529D01*
X157535931Y-34897513D01*
X157694079Y-35279316D01*
X157694478Y-35280309D01*
X157697848Y-35288976D01*
X157698578Y-35290982D01*
X157701575Y-35299810D01*
X157701908Y-35300827D01*
X157826184Y-35694980D01*
X157826494Y-35696002D01*
X157829100Y-35704942D01*
X157829655Y-35707012D01*
X157831867Y-35716055D01*
X157832108Y-35717092D01*
X157921559Y-36120578D01*
X157921779Y-36121620D01*
X157923595Y-36130745D01*
X157923966Y-36132852D01*
X157925379Y-36142029D01*
X157925531Y-36143090D01*
X157979476Y-36552856D01*
X157979603Y-36553913D01*
X157980620Y-36563191D01*
X157980807Y-36565330D01*
X157981414Y-36574604D01*
X157981472Y-36575667D01*
X157999762Y-36994550D01*
X157999924Y-36999514D01*
X157999946Y-37000537D01*
X158000000Y-37005446D01*
X158000000Y-37749359D01*
X157999078Y-37758819D01*
X157983227Y-37839380D01*
X157976061Y-37856887D01*
X157933549Y-37921381D01*
X157920283Y-37934870D01*
X157856511Y-37978448D01*
X157839124Y-37985906D01*
X157758833Y-38003097D01*
X157749391Y-38004176D01*
X152259045Y-38095682D01*
X152249370Y-38094882D01*
X152166911Y-38079726D01*
X152148972Y-38072556D01*
X152082951Y-38029430D01*
X152069177Y-38015884D01*
X152024955Y-37950588D01*
X152017488Y-37932770D01*
X152000962Y-37850582D01*
X152000000Y-37840923D01*
X152000000Y-32254823D01*
X152000941Y-32245264D01*
X152017127Y-32163890D01*
X152024444Y-32146226D01*
X152067808Y-32081327D01*
X152081327Y-32067808D01*
X152146226Y-32024444D01*
X152163890Y-32017127D01*
X152245264Y-32000941D01*
X152254823Y-32000000D01*
X152994545Y-32000000D01*
X152999443Y-32000052D01*
G37*
D107*
X153000000Y-92000000D02*
G75*
G03*
X158000000Y-87000000I0J5000000D01*
G01*
X158000000Y-37000000D02*
G75*
G03*
X153000000Y-32000000I-5000000J0D01*
G01*
X158000000Y-87000000D02*
X158000000Y-37000000D01*
X153000000Y-32000000D02*
X148500000Y-32000000D01*
X98000000Y-87000000D02*
G75*
G03*
X103000000Y-92000000I5000000J0D01*
G01*
X103000000Y-32000000D02*
G75*
G03*
X98000000Y-37000000I0J-5000000D01*
G01*
X148500000Y-92000000D02*
X153000000Y-92000000D01*
X33500000Y-32000000D02*
X29000000Y-32000000D01*
X24000000Y-37000000D02*
X24000000Y-87000000D01*
X79000000Y-92000000D02*
G75*
G03*
X84000000Y-87000000I0J5000000D01*
G01*
X24000000Y-87000000D02*
G75*
G03*
X29000000Y-92000000I5000000J0D01*
G01*
X29000000Y-32000000D02*
G75*
G03*
X24000000Y-37000000I0J-5000000D01*
G01*
X29000000Y-92000000D02*
X33500000Y-92000000D01*
X83999937Y-36975063D02*
G75*
G03*
X79000001Y-31975063I-4999937J63D01*
G01*
X108750000Y-93000000D02*
X108750000Y-94000000D01*
X113250000Y-93000000D02*
X113250000Y-94000000D01*
X114500000Y-92000000D02*
X114250000Y-92000000D01*
X107750000Y-92000000D02*
X107500000Y-92000000D01*
X74500000Y-92000000D02*
X74250000Y-92000000D01*
X108750000Y-93000000D02*
G75*
G03*
X107750000Y-92000000I-1000000J0D01*
G01*
X114250000Y-92000000D02*
G75*
G03*
X113250000Y-93000000I0J-1000000D01*
G01*
X107500000Y-92000000D02*
X103000000Y-92000000D01*
X112250000Y-95000000D02*
G75*
G03*
X113250000Y-94000000I0J1000000D01*
G01*
X74250000Y-92000000D02*
G75*
G03*
X73250000Y-93000000I0J-1000000D01*
G01*
X68750000Y-93000000D02*
G75*
G03*
X67750000Y-92000000I-1000000J0D01*
G01*
X68750000Y-94000000D02*
G75*
G03*
X69750000Y-95000000I1000000J0D01*
G01*
X72250000Y-95000000D02*
X69750000Y-95000000D01*
X72250000Y-95000000D02*
G75*
G03*
X73250000Y-94000000I0J1000000D01*
G01*
X68750000Y-93000000D02*
X68750000Y-94000000D01*
X73250000Y-93000000D02*
X73250000Y-94000000D01*
X141500000Y-92000000D02*
X114500000Y-92000000D01*
X40201249Y-92000000D02*
X67750000Y-92000000D01*
X74500000Y-92000000D02*
X79000000Y-92000000D01*
X40500000Y-32000000D02*
X67500000Y-32000000D01*
X74500000Y-32000000D02*
X79000001Y-31975063D01*
X141500000Y-32000000D02*
X114500000Y-32000000D01*
X107500000Y-32000000D02*
X103000000Y-32000000D01*
X98000000Y-37000000D02*
X98000000Y-87000000D01*
X84000000Y-71250000D02*
X84000000Y-87000000D01*
X112250000Y-95000000D02*
X109750000Y-95000000D01*
X228500000Y-34500000D02*
G75*
G03*
X227500000Y-33500000I-1000000J0D01*
G01*
X231000000Y-33000000D02*
G75*
G03*
X232000000Y-34000000I1000000J0D01*
G01*
X224500000Y-58500000D02*
X227500000Y-58500000D01*
X182000000Y-33000000D02*
G75*
G03*
X183000000Y-34000000I1000000J0D01*
G01*
X82000000Y-69250000D02*
G75*
G03*
X83000000Y-70250000I1000000J0D01*
G01*
X146250000Y-95000000D02*
G75*
G03*
X147250000Y-94000000I0J1000000D01*
G01*
X142750000Y-31000000D02*
X142750000Y-30000000D01*
X73250000Y-30000000D02*
G75*
G03*
X72250000Y-29000000I-1000000J0D01*
G01*
X147250000Y-93000000D02*
X147250000Y-94000000D01*
X189500000Y-56000000D02*
X189500000Y-57500000D01*
X35750000Y-29000000D02*
G75*
G03*
X34750000Y-30000000I0J-1000000D01*
G01*
X141750000Y-92000000D02*
X141500000Y-92000000D01*
X74250000Y-32000000D02*
X74500000Y-32000000D01*
X193500000Y-58500000D02*
G75*
G03*
X194500000Y-57500000I0J1000000D01*
G01*
X243000000Y-55000000D02*
X243000000Y-34000000D01*
X235000000Y-34000000D02*
G75*
G03*
X236000000Y-33000000I0J1000000D01*
G01*
X223500000Y-56000000D02*
X223500000Y-57500000D01*
X39250000Y-93000000D02*
X39250000Y-94000000D01*
X223500000Y-57500000D02*
G75*
G03*
X224500000Y-58500000I1000000J0D01*
G01*
X141500000Y-32000000D02*
X141750000Y-32000000D01*
X147250000Y-30000000D02*
G75*
G03*
X146250000Y-29000000I-1000000J0D01*
G01*
X67750000Y-32000000D02*
G75*
G03*
X68750000Y-31000000I0J1000000D01*
G01*
X241000000Y-70000000D02*
G75*
G03*
X243000000Y-68000000I0J2000000D01*
G01*
X194500000Y-56000000D02*
G75*
G03*
X193500000Y-55000000I-1000000J0D01*
G01*
X34750000Y-31000000D02*
X34750000Y-30000000D01*
X35750000Y-29000000D02*
X38250000Y-29000000D01*
X193500000Y-33500000D02*
X190500000Y-33500000D01*
X33500000Y-32000000D02*
X33750000Y-32000000D01*
X243000000Y-68000000D02*
X243000000Y-55000000D01*
X34750000Y-93000000D02*
G75*
G03*
X33750000Y-92000000I-1000000J0D01*
G01*
X33750000Y-92000000D02*
X33500000Y-92000000D01*
X232000000Y-34000000D02*
X235000000Y-34000000D01*
X40201249Y-91999999D02*
G75*
G03*
X39250000Y-93000000I24351J-975601D01*
G01*
X38250000Y-95000000D02*
X35750000Y-95000000D01*
X142750000Y-93000000D02*
G75*
G03*
X141750000Y-92000000I-1000000J0D01*
G01*
X183000000Y-34000000D02*
X186000000Y-34000000D01*
X223500000Y-34500000D02*
X223500000Y-36000000D01*
X193500000Y-55000000D02*
X190500000Y-55000000D01*
X183000000Y-68000000D02*
G75*
G03*
X182000000Y-69000000I0J-1000000D01*
G01*
X190500000Y-58500000D02*
X193500000Y-58500000D01*
X194500000Y-57500000D02*
X194500000Y-56000000D01*
X228500000Y-36000000D02*
X228500000Y-34500000D01*
X235000000Y-68000000D02*
X232000000Y-68000000D01*
X224500000Y-37000000D02*
X227500000Y-37000000D01*
X113250000Y-31000000D02*
G75*
G03*
X114250000Y-32000000I1000000J0D01*
G01*
X113250000Y-30000000D02*
G75*
G03*
X112250000Y-29000000I-1000000J0D01*
G01*
X34750000Y-94000000D02*
G75*
G03*
X35750000Y-95000000I1000000J0D01*
G01*
X83000000Y-53925000D02*
G75*
G03*
X84000000Y-52925000I0J1000000D01*
G01*
X194500000Y-34500000D02*
G75*
G03*
X193500000Y-33500000I-1000000J0D01*
G01*
X187000000Y-69000000D02*
G75*
G03*
X188000000Y-70000000I1000000J0D01*
G01*
X147250000Y-31000000D02*
G75*
G03*
X148250000Y-32000000I1000000J0D01*
G01*
X175000000Y-68000000D02*
G75*
G03*
X177000000Y-70000000I2000000J0D01*
G01*
X39250000Y-31000000D02*
X39250000Y-30000000D01*
X236000000Y-69000000D02*
G75*
G03*
X237000000Y-70000000I1000000J0D01*
G01*
X237000000Y-32000000D02*
G75*
G03*
X236000000Y-33000000I0J-1000000D01*
G01*
X190500000Y-33500000D02*
G75*
G03*
X189500000Y-34500000I0J-1000000D01*
G01*
X227500000Y-37000000D02*
G75*
G03*
X228500000Y-36000000I0J1000000D01*
G01*
X236000000Y-69000000D02*
G75*
G03*
X235000000Y-68000000I-1000000J0D01*
G01*
X147250000Y-31000000D02*
X147250000Y-30000000D01*
X84000000Y-71250000D02*
G75*
G03*
X83000000Y-70250000I-1000000J0D01*
G01*
X223500000Y-36000000D02*
G75*
G03*
X224500000Y-37000000I1000000J0D01*
G01*
X67500000Y-32000000D02*
X67750000Y-32000000D01*
X40250000Y-32000000D02*
X40500000Y-32000000D01*
X109750000Y-29000000D02*
G75*
G03*
X108750000Y-30000000I0J-1000000D01*
G01*
X224500000Y-55000000D02*
G75*
G03*
X223500000Y-56000000I0J-1000000D01*
G01*
X188000000Y-70000000D02*
X230000000Y-70000000D01*
X83000000Y-53925000D02*
G75*
G03*
X82000000Y-54925000I0J-1000000D01*
G01*
X114250000Y-32000000D02*
X114500000Y-32000000D01*
X113250000Y-31000000D02*
X113250000Y-30000000D01*
X230000000Y-32000000D02*
X188000000Y-32000000D01*
X188000000Y-32000000D02*
G75*
G03*
X187000000Y-33000000I0J-1000000D01*
G01*
X228500000Y-56000000D02*
G75*
G03*
X227500000Y-55000000I-1000000J0D01*
G01*
X228500000Y-57500000D02*
X228500000Y-56000000D01*
X143750000Y-29000000D02*
X146250000Y-29000000D01*
X69750000Y-29000000D02*
X72250000Y-29000000D01*
X190500000Y-37000000D02*
X193500000Y-37000000D01*
X181000000Y-70000000D02*
X177000000Y-70000000D01*
X142750000Y-94000000D02*
G75*
G03*
X143750000Y-95000000I1000000J0D01*
G01*
X189500000Y-57500000D02*
G75*
G03*
X190500000Y-58500000I1000000J0D01*
G01*
X227500000Y-33500000D02*
X224500000Y-33500000D01*
X107500000Y-32000000D02*
X107750000Y-32000000D01*
X193500000Y-37000000D02*
G75*
G03*
X194500000Y-36000000I0J1000000D01*
G01*
X177000000Y-32000000D02*
G75*
G03*
X175000000Y-34000000I0J-2000000D01*
G01*
X34750000Y-93000000D02*
X34750000Y-94000000D01*
X186000000Y-34000000D02*
G75*
G03*
X187000000Y-33000000I0J1000000D01*
G01*
X39250000Y-31000000D02*
G75*
G03*
X40250000Y-32000000I1000000J0D01*
G01*
X84000000Y-52925000D02*
X84000000Y-36975063D01*
X230000000Y-70000000D02*
G75*
G03*
X231000000Y-69000000I0J1000000D01*
G01*
X107750000Y-32000000D02*
G75*
G03*
X108750000Y-31000000I0J1000000D01*
G01*
X73250000Y-31000000D02*
X73250000Y-30000000D01*
X243000000Y-34000000D02*
G75*
G03*
X241000000Y-32000000I-2000000J0D01*
G01*
X227500000Y-58500000D02*
G75*
G03*
X228500000Y-57500000I0J1000000D01*
G01*
X189500000Y-36000000D02*
G75*
G03*
X190500000Y-37000000I1000000J0D01*
G01*
X68750000Y-31000000D02*
X68750000Y-30000000D01*
X39250000Y-30000000D02*
G75*
G03*
X38250000Y-29000000I-1000000J0D01*
G01*
X186000000Y-68000000D02*
X183000000Y-68000000D01*
X241000000Y-70000000D02*
X237000000Y-70000000D01*
X33750000Y-32000000D02*
G75*
G03*
X34750000Y-31000000I0J1000000D01*
G01*
X148500000Y-92000000D02*
X148250000Y-92000000D01*
X181000000Y-70000000D02*
G75*
G03*
X182000000Y-69000000I0J1000000D01*
G01*
X73250000Y-31000000D02*
G75*
G03*
X74250000Y-32000000I1000000J0D01*
G01*
X194500000Y-36000000D02*
X194500000Y-34500000D01*
X108750000Y-94000000D02*
G75*
G03*
X109750000Y-95000000I1000000J0D01*
G01*
X190500000Y-55000000D02*
G75*
G03*
X189500000Y-56000000I0J-1000000D01*
G01*
X181000000Y-32000000D02*
X177000000Y-32000000D01*
X231000000Y-33000000D02*
G75*
G03*
X230000000Y-32000000I-1000000J0D01*
G01*
X148250000Y-32000000D02*
X148500000Y-32000000D01*
X227500000Y-55000000D02*
X224500000Y-55000000D01*
X224500000Y-33500000D02*
G75*
G03*
X223500000Y-34500000I0J-1000000D01*
G01*
X82000000Y-54925000D02*
X82000000Y-69250000D01*
X109750000Y-29000000D02*
X112250000Y-29000000D01*
X143750000Y-29000000D02*
G75*
G03*
X142750000Y-30000000I0J-1000000D01*
G01*
X108750000Y-31000000D02*
X108750000Y-30000000D01*
X182000000Y-33000000D02*
G75*
G03*
X181000000Y-32000000I-1000000J0D01*
G01*
X175000000Y-34000000D02*
X175000000Y-68000000D01*
X38250000Y-95000000D02*
G75*
G03*
X39250000Y-94000000I0J1000000D01*
G01*
X187000000Y-69000000D02*
G75*
G03*
X186000000Y-68000000I-1000000J0D01*
G01*
X148250000Y-92000000D02*
G75*
G03*
X147250000Y-93000000I0J-1000000D01*
G01*
X189500000Y-34500000D02*
X189500000Y-36000000D01*
X141750000Y-32000000D02*
G75*
G03*
X142750000Y-31000000I0J1000000D01*
G01*
X237000000Y-32000000D02*
X241000000Y-32000000D01*
X142750000Y-93000000D02*
X142750000Y-94000000D01*
X69750000Y-29000000D02*
G75*
G03*
X68750000Y-30000000I0J-1000000D01*
G01*
X146250000Y-95000000D02*
X143750000Y-95000000D01*
X232000000Y-68000000D02*
G75*
G03*
X231000000Y-69000000I0J-1000000D01*
G01*
M02*
