%TF.GenerationSoftware,KiCad,Pcbnew,5.1.6-c6e7f7d~86~ubuntu18.04.1*%
%TF.CreationDate,2020-07-05T20:54:57+02:00*%
%TF.ProjectId,kleinvoet,6b6c6569-6e76-46f6-9574-2e6b69636164,Rev. A*%
%TF.SameCoordinates,Original*%
%TF.FileFunction,Profile,NP*%
%FSLAX46Y46*%
G04 Gerber Fmt 4.6, Leading zero omitted, Abs format (unit mm)*
G04 Created by KiCad (PCBNEW 5.1.6-c6e7f7d~86~ubuntu18.04.1) date 2020-07-05 20:54:57*
%MOMM*%
%LPD*%
G01*
G04 APERTURE LIST*
%TA.AperFunction,Profile*%
%ADD10C,0.050000*%
%TD*%
G04 APERTURE END LIST*
D10*
X84713000Y-64754000D02*
X82259464Y-64757970D01*
X54233000Y-55214000D02*
X54233000Y-34894000D01*
X56773000Y-57754000D02*
X58740536Y-57750030D01*
X56773000Y-57754000D02*
G75*
G02*
X54233000Y-55214000I0J2540000D01*
G01*
X102249999Y-155274937D02*
G75*
G02*
X97250001Y-150749999I1J5024937D01*
G01*
X97348039Y-36264718D02*
X97250000Y-36750000D01*
X84730500Y-122649000D02*
X82250000Y-122653000D01*
X66259464Y-129656970D02*
G75*
G02*
X64750000Y-128157000I-9464J1499970D01*
G01*
X64750000Y-124157000D02*
G75*
G02*
X66250000Y-122657000I1500000J0D01*
G01*
X64750000Y-128157000D02*
X64750000Y-124157000D01*
X56793000Y-129754000D02*
X59250000Y-129645000D01*
X84733000Y-129754000D02*
X82259464Y-129652970D01*
X66250000Y-122657000D02*
X75240536Y-122641030D01*
X80750000Y-128153000D02*
X80750000Y-124153000D01*
X76750000Y-124141000D02*
X76750000Y-128141000D01*
X76750000Y-128141000D02*
G75*
G02*
X75250000Y-129641000I-1500000J0D01*
G01*
X80750000Y-124153000D02*
G75*
G02*
X82250000Y-122653000I1500000J0D01*
G01*
X59240536Y-122645030D02*
G75*
G02*
X60750000Y-124145000I9464J-1499970D01*
G01*
X60750000Y-128145000D02*
G75*
G02*
X59250000Y-129645000I-1500000J0D01*
G01*
X82259464Y-129652970D02*
G75*
G02*
X80750000Y-128153000I-9464J1499970D01*
G01*
X75240536Y-122641030D02*
G75*
G02*
X76750000Y-124141000I9464J-1499970D01*
G01*
X66259464Y-129656970D02*
X75250000Y-129641000D01*
X60750000Y-124145000D02*
X60750000Y-128145000D01*
X56790500Y-122649000D02*
X59240536Y-122645030D01*
X84713000Y-90154000D02*
X82250000Y-90158000D01*
X66259464Y-97161970D02*
G75*
G02*
X64750000Y-95662000I-9464J1499970D01*
G01*
X64750000Y-91662000D02*
G75*
G02*
X66250000Y-90162000I1500000J0D01*
G01*
X64750000Y-95662000D02*
X64750000Y-91662000D01*
X56790500Y-97249000D02*
X58750000Y-97150000D01*
X84730500Y-97249000D02*
X82259464Y-97157970D01*
X66250000Y-90162000D02*
X75240536Y-90146030D01*
X80750000Y-95658000D02*
X80750000Y-91658000D01*
X76750000Y-91646000D02*
X76750000Y-95646000D01*
X76750000Y-95646000D02*
G75*
G02*
X75250000Y-97146000I-1500000J0D01*
G01*
X80750000Y-91658000D02*
G75*
G02*
X82250000Y-90158000I1500000J0D01*
G01*
X58740536Y-90150030D02*
G75*
G02*
X60250000Y-91650000I9464J-1499970D01*
G01*
X60250000Y-95650000D02*
G75*
G02*
X58750000Y-97150000I-1500000J0D01*
G01*
X82259464Y-97157970D02*
G75*
G02*
X80750000Y-95658000I-9464J1499970D01*
G01*
X75240536Y-90146030D02*
G75*
G02*
X76750000Y-91646000I9464J-1499970D01*
G01*
X66259464Y-97161970D02*
X75250000Y-97146000D01*
X60250000Y-91650000D02*
X60250000Y-95650000D01*
X56773000Y-90154000D02*
X58740536Y-90150030D01*
X64750000Y-63250000D02*
X64750000Y-59262000D01*
X64750000Y-59262000D02*
G75*
G02*
X66250000Y-57762000I1500000J0D01*
G01*
X66259464Y-64749970D02*
G75*
G02*
X64750000Y-63250000I-9464J1499970D01*
G01*
X66259464Y-64749970D02*
X75250000Y-64746000D01*
X75240536Y-57746030D02*
G75*
G02*
X76750000Y-59246000I9464J-1499970D01*
G01*
X76750000Y-63246000D02*
G75*
G02*
X75250000Y-64746000I-1500000J0D01*
G01*
X76750000Y-59246000D02*
X76750000Y-63246000D01*
X66250000Y-57762000D02*
X75240536Y-57746030D01*
X84713000Y-57754000D02*
X82250000Y-57758000D01*
X82259464Y-64757970D02*
G75*
G02*
X80750000Y-63258000I-9464J1499970D01*
G01*
X80750000Y-59258000D02*
G75*
G02*
X82250000Y-57758000I1500000J0D01*
G01*
X80750000Y-63258000D02*
X80750000Y-59258000D01*
X60250000Y-59250000D02*
X60250000Y-63250000D01*
X60250000Y-63250000D02*
G75*
G02*
X58750000Y-64750000I-1500000J0D01*
G01*
X56773000Y-64754000D02*
X58750000Y-64750000D01*
X58740536Y-57750030D02*
G75*
G02*
X60250000Y-59250000I9464J-1499970D01*
G01*
X97250000Y-53250000D02*
X97250000Y-69250000D01*
X94250000Y-69250000D02*
X94250000Y-53250000D01*
X97250000Y-85750000D02*
X97250000Y-87250000D01*
X94250000Y-101750000D02*
X94250000Y-85750000D01*
X97250000Y-101750000D02*
X97250000Y-100250000D01*
X97250000Y-134250000D02*
X97250000Y-118250000D01*
X94250000Y-118250000D02*
X94250000Y-134250000D01*
X94250000Y-141250000D02*
X94250000Y-143750000D01*
X97250000Y-134250000D02*
G75*
G02*
X94250000Y-134250000I-1500000J0D01*
G01*
X94250000Y-150750000D02*
G75*
G02*
X97250000Y-150750000I1500000J0D01*
G01*
X94250000Y-141250000D02*
G75*
G02*
X97250000Y-141250000I1500000J0D01*
G01*
X97250000Y-141250000D02*
X97250000Y-143750000D01*
X97250000Y-143750000D02*
G75*
G02*
X94250000Y-143750000I-1500000J0D01*
G01*
X94250000Y-108750000D02*
X94250000Y-111250000D01*
X97250000Y-101750000D02*
G75*
G02*
X94250000Y-101750000I-1500000J0D01*
G01*
X94250000Y-118250000D02*
G75*
G02*
X97250000Y-118250000I1500000J0D01*
G01*
X94250000Y-108750000D02*
G75*
G02*
X97250000Y-108750000I1500000J0D01*
G01*
X97250000Y-108750000D02*
X97250000Y-111250000D01*
X97250000Y-111250000D02*
G75*
G02*
X94250000Y-111250000I-1500000J0D01*
G01*
X94250000Y-76250000D02*
X94250000Y-78750000D01*
X97250000Y-69250000D02*
G75*
G02*
X94250000Y-69250000I-1500000J0D01*
G01*
X94250000Y-85750000D02*
G75*
G02*
X97250000Y-85750000I1500000J0D01*
G01*
X94250000Y-76250000D02*
G75*
G02*
X97250000Y-76250000I1500000J0D01*
G01*
X97250000Y-76250000D02*
X97250000Y-78750000D01*
X97250000Y-78750000D02*
G75*
G02*
X94250000Y-78750000I-1500000J0D01*
G01*
X90250000Y-118250000D02*
X90250000Y-131250000D01*
X90256000Y-85750000D02*
X90250000Y-98750000D01*
X90256000Y-53250000D02*
X90250000Y-69250000D01*
X87250000Y-134250000D02*
X87273000Y-132294000D01*
X87250000Y-150750000D02*
G75*
G02*
X90250000Y-150750000I1500000J0D01*
G01*
X90250000Y-134250000D02*
G75*
G02*
X87250000Y-134250000I-1500000J0D01*
G01*
X87250000Y-141250000D02*
G75*
G02*
X90250000Y-141250000I1500000J0D01*
G01*
X90250000Y-143750000D02*
G75*
G02*
X87250000Y-143750000I-1500000J0D01*
G01*
X90250000Y-141250000D02*
X90250000Y-143750000D01*
X87250000Y-141250000D02*
X87250000Y-143750000D01*
X90250000Y-134250000D02*
X90250000Y-131250000D01*
X87273000Y-152614000D02*
X87250000Y-150750000D01*
X87250000Y-101750000D02*
X87270500Y-99789000D01*
X87250000Y-118250000D02*
G75*
G02*
X90250000Y-118250000I1500000J0D01*
G01*
X90250000Y-101750000D02*
G75*
G02*
X87250000Y-101750000I-1500000J0D01*
G01*
X87250000Y-108750000D02*
G75*
G02*
X90250000Y-108750000I1500000J0D01*
G01*
X90250000Y-111250000D02*
G75*
G02*
X87250000Y-111250000I-1500000J0D01*
G01*
X90250000Y-108750000D02*
X90250000Y-111250000D01*
X87250000Y-108750000D02*
X87250000Y-111250000D01*
X90250000Y-101750000D02*
X90250000Y-98750000D01*
X87270500Y-120109000D02*
X87250000Y-118250000D01*
X87250000Y-69250000D02*
X87253000Y-67294000D01*
X87256000Y-85750000D02*
G75*
G02*
X90256000Y-85750000I1500000J0D01*
G01*
X90250000Y-69250000D02*
G75*
G02*
X87250000Y-69250000I-1500000J0D01*
G01*
X87250000Y-76250000D02*
G75*
G02*
X90250000Y-76250000I1500000J0D01*
G01*
X90250000Y-78750000D02*
G75*
G02*
X87250000Y-78750000I-1500000J0D01*
G01*
X90250000Y-76250000D02*
X90250000Y-78750000D01*
X87250000Y-76250000D02*
X87250000Y-78750000D01*
X87253000Y-87614000D02*
X87256000Y-85750000D01*
X87250000Y-43750000D02*
X87250000Y-46250000D01*
X87250000Y-43750000D02*
G75*
G02*
X90250000Y-43750000I1500000J0D01*
G01*
X90250000Y-43750000D02*
X90250000Y-46250000D01*
X90250000Y-46250000D02*
G75*
G02*
X87250000Y-46250000I-1500000J0D01*
G01*
X94256000Y-153750000D02*
G75*
G02*
X92756000Y-155250000I-1500000J0D01*
G01*
X94250000Y-150750000D02*
X94256000Y-153750000D01*
X91756000Y-155250000D02*
X92756000Y-155250000D01*
X91756000Y-155250000D02*
G75*
G02*
X90256000Y-153750000I0J1500000D01*
G01*
X90250000Y-150750000D02*
X90256000Y-153750000D01*
X94250000Y-43750000D02*
X94250000Y-46250000D01*
X90250000Y-36750000D02*
G75*
G02*
X87250000Y-36750000I-1500000J0D01*
G01*
X87250000Y-36750000D02*
X87253000Y-34894000D01*
X90250000Y-36750000D02*
X90250000Y-33750000D01*
X92750000Y-32250000D02*
X91750000Y-32250000D01*
X90250000Y-33750000D02*
G75*
G02*
X91750000Y-32250000I1500000J0D01*
G01*
X87256000Y-53250000D02*
G75*
G02*
X90256000Y-53250000I1500000J0D01*
G01*
X94250000Y-36750000D02*
X94250000Y-33750000D01*
X92750000Y-32250000D02*
G75*
G02*
X94250000Y-33750000I0J-1500000D01*
G01*
X97250000Y-46250000D02*
G75*
G02*
X94250000Y-46250000I-1500000J0D01*
G01*
X97250000Y-43750000D02*
X97250000Y-46250000D01*
X94250000Y-43750000D02*
G75*
G02*
X97250000Y-43750000I1500000J0D01*
G01*
X87253000Y-55214000D02*
X87256000Y-53250000D01*
X94250000Y-53250000D02*
G75*
G02*
X97250000Y-53250000I1500000J0D01*
G01*
X97250000Y-36750000D02*
G75*
G02*
X94250000Y-36750000I-1500000J0D01*
G01*
X56793000Y-155154000D02*
X84733000Y-155154000D01*
X54253000Y-132294000D02*
X54253000Y-152614000D01*
X54233000Y-87614000D02*
X54233000Y-67294000D01*
X84713000Y-32354000D02*
X56773000Y-32354000D01*
X84733000Y-129754000D02*
G75*
G02*
X87273000Y-132294000I0J-2540000D01*
G01*
X54253000Y-132294000D02*
G75*
G02*
X56793000Y-129754000I2540000J0D01*
G01*
X56793000Y-155154000D02*
G75*
G02*
X54253000Y-152614000I0J2540000D01*
G01*
X87273000Y-152614000D02*
G75*
G02*
X84733000Y-155154000I-2540000J0D01*
G01*
X84713000Y-64754000D02*
G75*
G02*
X87253000Y-67294000I0J-2540000D01*
G01*
X54233000Y-67294000D02*
G75*
G02*
X56773000Y-64754000I2540000J0D01*
G01*
X56773000Y-90154000D02*
G75*
G02*
X54233000Y-87614000I0J2540000D01*
G01*
X87253000Y-87614000D02*
G75*
G02*
X84713000Y-90154000I-2540000J0D01*
G01*
X84713000Y-32354000D02*
G75*
G02*
X87253000Y-34894000I0J-2540000D01*
G01*
X54233000Y-34894000D02*
G75*
G02*
X56773000Y-32354000I2540000J0D01*
G01*
X87253000Y-55214000D02*
G75*
G02*
X84713000Y-57754000I-2540000J0D01*
G01*
X152250000Y-95250000D02*
X146250000Y-95250000D01*
X146250000Y-92250000D02*
X152250000Y-92250000D01*
X146250000Y-95250000D02*
G75*
G02*
X146250000Y-92250000I0J1500000D01*
G01*
X139250000Y-92250000D02*
G75*
G02*
X139250000Y-95250000I0J-1500000D01*
G01*
X108750000Y-92250000D02*
G75*
G02*
X108750000Y-95250000I0J-1500000D01*
G01*
X115750000Y-95250000D02*
G75*
G02*
X115750000Y-92250000I0J1500000D01*
G01*
X108750000Y-92250000D02*
X102250000Y-92250000D01*
X108750000Y-95250000D02*
X102250000Y-95250000D01*
X97348039Y-36264718D02*
G75*
G02*
X102250000Y-32250000I4901961J-985282D01*
G01*
X157250000Y-87250000D02*
X157250000Y-37250000D01*
X157250000Y-87250000D02*
G75*
G02*
X152250000Y-92250000I-5000000J0D01*
G01*
X115750000Y-92250000D02*
X139250000Y-92250000D01*
X152250000Y-32250000D02*
G75*
G02*
X157250000Y-37250000I0J-5000000D01*
G01*
X102250000Y-92250000D02*
G75*
G02*
X97250000Y-87250000I0J5000000D01*
G01*
X152250000Y-32250000D02*
X102250000Y-32250000D01*
X157250000Y-150250000D02*
G75*
G02*
X152250000Y-155250000I-5000000J0D01*
G01*
X152250000Y-95250000D02*
G75*
G02*
X157250000Y-100250000I0J-5000000D01*
G01*
X97250000Y-100250000D02*
G75*
G02*
X102250000Y-95250000I5000000J0D01*
G01*
X157250000Y-150250000D02*
X157250000Y-100250000D01*
X102249999Y-155274937D02*
X152250000Y-155250000D01*
X139250000Y-95250000D02*
X115750000Y-95250000D01*
X87270500Y-120109000D02*
G75*
G02*
X84730500Y-122649000I-2540000J0D01*
G01*
X56790500Y-122649000D02*
G75*
G02*
X54250500Y-120109000I0J2540000D01*
G01*
X54250500Y-99789000D02*
G75*
G02*
X56790500Y-97249000I2540000J0D01*
G01*
X84730500Y-97249000D02*
G75*
G02*
X87270500Y-99789000I0J-2540000D01*
G01*
X54250500Y-99789000D02*
X54250500Y-120109000D01*
M02*
