%TF.GenerationSoftware,KiCad,Pcbnew,5.1.6-c6e7f7d~86~ubuntu18.04.1*%
%TF.CreationDate,2020-07-05T20:54:57+02:00*%
%TF.ProjectId,kleinvoet,6b6c6569-6e76-46f6-9574-2e6b69636164,Rev. A*%
%TF.SameCoordinates,Original*%
%TF.FileFunction,OtherDrawing,Comment*%
%FSLAX46Y46*%
G04 Gerber Fmt 4.6, Leading zero omitted, Abs format (unit mm)*
G04 Created by KiCad (PCBNEW 5.1.6-c6e7f7d~86~ubuntu18.04.1) date 2020-07-05 20:54:57*
%MOMM*%
%LPD*%
G01*
G04 APERTURE LIST*
%ADD10C,0.120000*%
%ADD11C,0.050000*%
%ADD12C,0.200000*%
%ADD13C,0.100000*%
G04 APERTURE END LIST*
D10*
%TO.C,REF\u002A\u002A*%
X87250000Y-108250000D02*
G75*
G02*
X88750000Y-106750000I1500000J0D01*
G01*
X88750000Y-103750000D02*
G75*
G02*
X87250000Y-102250000I0J1500000D01*
G01*
X87250000Y-117750000D02*
G75*
G02*
X88750000Y-116250000I1500000J0D01*
G01*
X88750000Y-113250000D02*
G75*
G02*
X87250000Y-111750000I0J1500000D01*
G01*
X87250000Y-37250000D02*
G75*
G02*
X85750000Y-38750000I-1500000J0D01*
G01*
X85750000Y-41750000D02*
G75*
G02*
X87250000Y-43250000I0J-1500000D01*
G01*
X97250000Y-37250000D02*
G75*
G02*
X95750000Y-38750000I-1500000J0D01*
G01*
X95750000Y-41750000D02*
G75*
G02*
X97250000Y-43250000I0J-1500000D01*
G01*
X87500000Y-46750000D02*
G75*
G02*
X86000000Y-48250000I-1500000J0D01*
G01*
X86000000Y-51250000D02*
G75*
G02*
X87500000Y-52750000I0J-1500000D01*
G01*
X97250000Y-52750000D02*
G75*
G02*
X98750000Y-51250000I1500000J0D01*
G01*
X98750000Y-48250000D02*
G75*
G02*
X97250000Y-46750000I0J1500000D01*
G01*
X87250000Y-75500000D02*
G75*
G02*
X88750000Y-74000000I1500000J0D01*
G01*
X88750000Y-71000000D02*
G75*
G02*
X87250000Y-69500000I0J1500000D01*
G01*
X97250000Y-75500000D02*
G75*
G02*
X98750000Y-74000000I1500000J0D01*
G01*
X98750000Y-71000000D02*
G75*
G02*
X97250000Y-69500000I0J1500000D01*
G01*
X87250000Y-79250000D02*
G75*
G02*
X85750000Y-80750000I-1500000J0D01*
G01*
X85750000Y-83750000D02*
G75*
G02*
X87250000Y-85250000I0J-1500000D01*
G01*
X65500000Y-57750000D02*
G75*
G02*
X64000000Y-56250000I0J1500000D01*
G01*
X61000000Y-56250000D02*
G75*
G02*
X59500000Y-57750000I-1500000J0D01*
G01*
X81750000Y-57750000D02*
G75*
G02*
X80250000Y-56250000I0J1500000D01*
G01*
X77250000Y-56250000D02*
G75*
G02*
X75750000Y-57750000I-1500000J0D01*
G01*
X65500000Y-64750000D02*
G75*
G02*
X64000000Y-63250000I0J1500000D01*
G01*
X61000000Y-63250000D02*
G75*
G02*
X59500000Y-64750000I-1500000J0D01*
G01*
X81750000Y-64750000D02*
G75*
G02*
X80250000Y-63250000I0J1500000D01*
G01*
X77250000Y-63250000D02*
G75*
G02*
X75750000Y-64750000I-1500000J0D01*
G01*
X81750000Y-90250000D02*
G75*
G02*
X80250000Y-88750000I0J1500000D01*
G01*
X77250000Y-88750000D02*
G75*
G02*
X75750000Y-90250000I-1500000J0D01*
G01*
X65500000Y-90250000D02*
G75*
G02*
X64000000Y-88750000I0J1500000D01*
G01*
X61000000Y-88750000D02*
G75*
G02*
X59500000Y-90250000I-1500000J0D01*
G01*
X65750000Y-129750000D02*
G75*
G02*
X64250000Y-128250000I0J1500000D01*
G01*
X61250000Y-128250000D02*
G75*
G02*
X59750000Y-129750000I-1500000J0D01*
G01*
X81750000Y-129750000D02*
G75*
G02*
X80250000Y-128250000I0J1500000D01*
G01*
X77250000Y-128250000D02*
G75*
G02*
X75750000Y-129750000I-1500000J0D01*
G01*
X87250000Y-150250000D02*
G75*
G02*
X88750000Y-148750000I1500000J0D01*
G01*
X88750000Y-145750000D02*
G75*
G02*
X87250000Y-144250000I0J1500000D01*
G01*
X87250000Y-140750000D02*
G75*
G02*
X88750000Y-139250000I1500000J0D01*
G01*
X88750000Y-136250000D02*
G75*
G02*
X87250000Y-134750000I0J1500000D01*
G01*
X98750000Y-80750000D02*
G75*
G02*
X97250000Y-79250000I0J1500000D01*
G01*
X97250000Y-85250000D02*
G75*
G02*
X98750000Y-83750000I1500000J0D01*
G01*
X98750000Y-103750000D02*
G75*
G02*
X97250000Y-102250000I0J1500000D01*
G01*
X97250000Y-108250000D02*
G75*
G02*
X98750000Y-106750000I1500000J0D01*
G01*
X98750000Y-113250000D02*
G75*
G02*
X97250000Y-111750000I0J1500000D01*
G01*
X97250000Y-117750000D02*
G75*
G02*
X98750000Y-116250000I1500000J0D01*
G01*
X98750000Y-145750000D02*
G75*
G02*
X97250000Y-144250000I0J1500000D01*
G01*
X97250000Y-150250000D02*
G75*
G02*
X98750000Y-148750000I1500000J0D01*
G01*
X98750000Y-136250000D02*
G75*
G02*
X97250000Y-134750000I0J1500000D01*
G01*
X97250000Y-140750000D02*
G75*
G02*
X98750000Y-139250000I1500000J0D01*
G01*
X80250000Y-95600000D02*
G75*
G03*
X81750000Y-97100000I1500000J0D01*
G01*
X75750000Y-97100000D02*
G75*
G03*
X77250000Y-95600000I0J1500000D01*
G01*
X64000000Y-95600000D02*
G75*
G03*
X65500000Y-97100000I1500000J0D01*
G01*
X59500000Y-97100000D02*
G75*
G03*
X61000000Y-95600000I0J1500000D01*
G01*
X64250000Y-121100000D02*
G75*
G03*
X65750000Y-122600000I1500000J0D01*
G01*
X59750000Y-122600000D02*
G75*
G03*
X61250000Y-121100000I0J1500000D01*
G01*
X80250000Y-121100000D02*
G75*
G03*
X81750000Y-122600000I1500000J0D01*
G01*
X75750000Y-122600000D02*
G75*
G03*
X77250000Y-121100000I0J1500000D01*
G01*
D11*
%TO.C,J13*%
X157300000Y-55650000D02*
X157300000Y-44650000D01*
D10*
%TO.C,J11*%
X122640000Y-80000000D02*
X123040000Y-80000000D01*
X122640000Y-80000000D02*
X122640000Y-77600000D01*
X123040000Y-80000000D02*
X123040000Y-77600000D01*
X122640000Y-77600000D02*
X123040000Y-77600000D01*
X122640000Y-80000000D02*
X123040000Y-77600000D01*
X111920000Y-82500000D02*
X121120000Y-82500000D01*
X111920000Y-82500000D02*
X111920000Y-79100000D01*
X121120000Y-82500000D02*
X121120000Y-79100000D01*
X111920000Y-79100000D02*
X121120000Y-79100000D01*
X111920000Y-82500000D02*
X121120000Y-79100000D01*
D12*
%TO.C,BT1*%
X137126244Y-125050000D02*
G75*
G03*
X137126244Y-125050000I-10000000J0D01*
G01*
%TD*%
%TO.C,J13*%
D13*
X157102380Y-53697619D02*
X156102380Y-53697619D01*
X156102380Y-53316666D01*
X156150000Y-53221428D01*
X156197619Y-53173809D01*
X156292857Y-53126190D01*
X156435714Y-53126190D01*
X156530952Y-53173809D01*
X156578571Y-53221428D01*
X156626190Y-53316666D01*
X156626190Y-53697619D01*
X157007142Y-52126190D02*
X157054761Y-52173809D01*
X157102380Y-52316666D01*
X157102380Y-52411904D01*
X157054761Y-52554761D01*
X156959523Y-52650000D01*
X156864285Y-52697619D01*
X156673809Y-52745238D01*
X156530952Y-52745238D01*
X156340476Y-52697619D01*
X156245238Y-52650000D01*
X156150000Y-52554761D01*
X156102380Y-52411904D01*
X156102380Y-52316666D01*
X156150000Y-52173809D01*
X156197619Y-52126190D01*
X156578571Y-51364285D02*
X156626190Y-51221428D01*
X156673809Y-51173809D01*
X156769047Y-51126190D01*
X156911904Y-51126190D01*
X157007142Y-51173809D01*
X157054761Y-51221428D01*
X157102380Y-51316666D01*
X157102380Y-51697619D01*
X156102380Y-51697619D01*
X156102380Y-51364285D01*
X156150000Y-51269047D01*
X156197619Y-51221428D01*
X156292857Y-51173809D01*
X156388095Y-51173809D01*
X156483333Y-51221428D01*
X156530952Y-51269047D01*
X156578571Y-51364285D01*
X156578571Y-51697619D01*
X156578571Y-49935714D02*
X156578571Y-49602380D01*
X157102380Y-49459523D02*
X157102380Y-49935714D01*
X156102380Y-49935714D01*
X156102380Y-49459523D01*
X157102380Y-49030952D02*
X156102380Y-49030952D01*
X156102380Y-48792857D01*
X156150000Y-48650000D01*
X156245238Y-48554761D01*
X156340476Y-48507142D01*
X156530952Y-48459523D01*
X156673809Y-48459523D01*
X156864285Y-48507142D01*
X156959523Y-48554761D01*
X157054761Y-48650000D01*
X157102380Y-48792857D01*
X157102380Y-49030952D01*
X156150000Y-47507142D02*
X156102380Y-47602380D01*
X156102380Y-47745238D01*
X156150000Y-47888095D01*
X156245238Y-47983333D01*
X156340476Y-48030952D01*
X156530952Y-48078571D01*
X156673809Y-48078571D01*
X156864285Y-48030952D01*
X156959523Y-47983333D01*
X157054761Y-47888095D01*
X157102380Y-47745238D01*
X157102380Y-47650000D01*
X157054761Y-47507142D01*
X157007142Y-47459523D01*
X156673809Y-47459523D01*
X156673809Y-47650000D01*
X156578571Y-47030952D02*
X156578571Y-46697619D01*
X157102380Y-46554761D02*
X157102380Y-47030952D01*
X156102380Y-47030952D01*
X156102380Y-46554761D01*
%TD*%
M02*
