M48
; DRILL file {KiCad 5.1.6-c6e7f7d~86~ubuntu18.04.1} date Sun Jul  5 20:54:59 2020
; FORMAT={-:-/ absolute / inch / decimal}
; #@! TF.CreationDate,2020-07-05T20:54:59+02:00
; #@! TF.GenerationSoftware,Kicad,Pcbnew,5.1.6-c6e7f7d~86~ubuntu18.04.1
FMAT,2
INCH
T1C0.0079
T2C0.0150
T3C0.0157
T4C0.0197
T5C0.0200
T6C0.0250
T7C0.0256
T8C0.0315
T9C0.0394
T10C0.1063
T11C0.1260
T12C0.0236
T13C0.0250
T14C0.0256
%
G90
G05
T1
X5.7608Y-2.5374
X5.7854Y-2.5177
X5.7854Y-2.5571
X5.81Y-2.5374
T2
X2.1752Y-4.0551
X2.1752Y-4.1339
X2.1752Y-4.2126
X2.1752Y-4.2913
X2.1752Y-4.3701
X2.1752Y-4.4488
X2.1752Y-4.5276
X2.1752Y-4.6063
X2.1752Y-4.685
X2.1766Y-1.5037
X2.1766Y-1.5825
X2.1766Y-1.6612
X2.1766Y-1.74
X2.1766Y-1.8187
X2.1766Y-1.8974
X2.1766Y-1.9762
X2.1766Y-2.0549
X2.1766Y-2.1337
X2.1766Y-2.7833
X2.1766Y-2.862
X2.1766Y-2.9407
X2.1766Y-3.0195
X2.1766Y-3.0982
X2.1766Y-3.177
X2.1766Y-3.2557
X2.1766Y-3.3344
X2.1766Y-3.4132
X2.1766Y-5.3423
X2.1766Y-5.4211
X2.1766Y-5.4998
X2.1766Y-5.5785
X2.1766Y-5.6573
X2.1766Y-5.736
X2.1766Y-5.8148
X2.1766Y-5.8935
X2.1766Y-5.9722
X2.2539Y-4.1339
X2.2539Y-4.2126
X2.2539Y-4.2913
X2.2539Y-4.6063
X2.2539Y-4.685
X2.2539Y-4.7638
X2.2553Y-1.5825
X2.2553Y-1.6612
X2.2553Y-1.74
X2.2553Y-2.0549
X2.2553Y-2.1337
X2.2553Y-2.2124
X2.2553Y-2.862
X2.2553Y-2.9407
X2.2553Y-3.0195
X2.2553Y-3.3344
X2.2553Y-3.4132
X2.2553Y-3.4919
X2.2553Y-5.4211
X2.2553Y-5.4998
X2.2553Y-5.5785
X2.2553Y-5.8935
X2.2553Y-5.9722
X2.2553Y-6.051
X2.3327Y-4.685
X2.3327Y-4.7638
X2.3341Y-2.1337
X2.3341Y-2.2124
X2.3341Y-3.4132
X2.3341Y-3.4919
X2.3341Y-5.9722
X2.3341Y-6.051
X2.4114Y-3.8583
X2.4114Y-4.2913
X2.4114Y-4.685
X2.4114Y-4.7638
X2.4128Y-1.3069
X2.4128Y-1.74
X2.4128Y-2.1337
X2.4128Y-2.2124
X2.4128Y-2.5864
X2.4128Y-3.0195
X2.4128Y-3.4132
X2.4128Y-3.4919
X2.4128Y-5.1455
X2.4128Y-5.5785
X2.4128Y-5.9722
X2.4128Y-6.051
X2.4213Y-4.1339
X2.4213Y-4.2126
X2.4213Y-4.3701
X2.4213Y-4.4094
X2.4227Y-1.5825
X2.4227Y-1.6612
X2.4227Y-1.8187
X2.4227Y-1.8581
X2.4227Y-2.862
X2.4227Y-2.9407
X2.4227Y-3.0982
X2.4227Y-3.1376
X2.4227Y-5.4211
X2.4227Y-5.4998
X2.4227Y-5.6573
X2.4227Y-5.6967
X2.4902Y-3.8583
X2.4902Y-3.9764
X2.4902Y-4.5276
X2.4902Y-4.685
X2.4902Y-4.7638
X2.4916Y-1.3069
X2.4916Y-1.425
X2.4916Y-1.9762
X2.4916Y-2.1337
X2.4916Y-2.2124
X2.4916Y-2.5864
X2.4916Y-2.7045
X2.4916Y-3.2557
X2.4916Y-3.4132
X2.4916Y-3.4919
X2.4916Y-5.1455
X2.4916Y-5.2636
X2.4916Y-5.8148
X2.4916Y-5.9722
X2.4916Y-6.051
X2.5295Y-4.2913
X2.5295Y-4.3701
X2.5309Y-1.74
X2.5309Y-1.8187
X2.5309Y-3.0195
X2.5309Y-3.0982
X2.5309Y-5.5785
X2.5309Y-5.6573
X2.5689Y-3.8583
X2.5689Y-3.8976
X2.5689Y-3.9764
X2.5689Y-4.4488
X2.5689Y-4.5276
X2.5703Y-1.3069
X2.5703Y-1.3463
X2.5703Y-1.425
X2.5703Y-1.8974
X2.5703Y-1.9762
X2.5703Y-2.5864
X2.5703Y-2.6258
X2.5703Y-2.7045
X2.5703Y-3.177
X2.5703Y-3.2557
X2.5703Y-5.1455
X2.5703Y-5.1848
X2.5703Y-5.2636
X2.5703Y-5.736
X2.5703Y-5.8148
X2.6083Y-3.9764
X2.6097Y-1.425
X2.6097Y-2.7045
X2.6097Y-5.2636
X2.6476Y-3.8583
X2.6476Y-3.8976
X2.649Y-1.3069
X2.649Y-1.3463
X2.649Y-2.5864
X2.649Y-2.6258
X2.649Y-5.1455
X2.649Y-5.1848
X2.7264Y-3.8583
X2.7264Y-4.4488
X2.7264Y-4.5276
X2.7264Y-4.7638
X2.7278Y-1.3069
X2.7278Y-1.8974
X2.7278Y-1.9762
X2.7278Y-2.2124
X2.7278Y-2.5864
X2.7278Y-3.177
X2.7278Y-3.2557
X2.7278Y-3.4919
X2.7278Y-5.1455
X2.7278Y-5.736
X2.7278Y-5.8148
X2.7278Y-6.051
X2.8051Y-3.8583
X2.8051Y-4.5276
X2.8051Y-4.7638
X2.8065Y-1.3069
X2.8065Y-1.9762
X2.8065Y-2.2124
X2.8065Y-2.5864
X2.8065Y-3.2557
X2.8065Y-3.4919
X2.8065Y-5.1455
X2.8065Y-5.8148
X2.8065Y-6.051
X2.8839Y-3.8583
X2.8839Y-4.6063
X2.8839Y-4.685
X2.8839Y-4.7638
X2.8853Y-1.3069
X2.8853Y-2.0549
X2.8853Y-2.1337
X2.8853Y-2.2124
X2.8853Y-2.5864
X2.8853Y-3.3344
X2.8853Y-3.4132
X2.8853Y-3.4919
X2.8853Y-5.1455
X2.8853Y-5.8935
X2.8853Y-5.9722
X2.8853Y-6.051
X2.9626Y-3.8583
X2.9626Y-4.0551
X2.9626Y-4.7638
X2.964Y-1.3069
X2.964Y-1.5037
X2.964Y-2.2124
X2.964Y-2.5864
X2.964Y-2.7833
X2.964Y-3.4919
X2.964Y-5.1455
X2.964Y-5.3423
X2.964Y-6.051
X3.002Y-4.5669
X3.0034Y-2.0156
X3.0034Y-3.2951
X3.0034Y-5.8541
X3.0413Y-3.8583
X3.0413Y-3.9764
X3.0413Y-4.7638
X3.0427Y-1.3069
X3.0427Y-1.425
X3.0427Y-2.2124
X3.0427Y-2.5864
X3.0427Y-2.7045
X3.0427Y-3.4919
X3.0427Y-5.1455
X3.0427Y-5.2636
X3.0427Y-6.051
X3.0512Y-4.1339
X3.0512Y-4.2126
X3.0526Y-1.5825
X3.0526Y-1.6612
X3.0526Y-2.862
X3.0526Y-2.9407
X3.0526Y-5.4211
X3.0526Y-5.4998
X3.0807Y-4.5669
X3.0821Y-2.0156
X3.0821Y-3.2951
X3.0821Y-5.8541
X3.1201Y-3.8583
X3.1201Y-4.7638
X3.1215Y-1.3069
X3.1215Y-2.2124
X3.1215Y-2.5864
X3.1215Y-3.4919
X3.1215Y-5.1455
X3.1215Y-6.051
X3.1988Y-3.8583
X3.1988Y-3.9764
X3.1988Y-4.0551
X3.1988Y-4.2126
X3.1988Y-4.2913
X3.1988Y-4.7638
X3.2002Y-1.3069
X3.2002Y-1.425
X3.2002Y-1.5037
X3.2002Y-1.6612
X3.2002Y-1.74
X3.2002Y-2.2124
X3.2002Y-2.5864
X3.2002Y-2.7045
X3.2002Y-2.7833
X3.2002Y-2.9407
X3.2002Y-3.0195
X3.2002Y-3.4919
X3.2002Y-5.1455
X3.2002Y-5.2636
X3.2002Y-5.3423
X3.2002Y-5.4998
X3.2002Y-5.5785
X3.2002Y-6.051
X3.2776Y-3.8583
X3.2776Y-4.7638
X3.279Y-1.3069
X3.279Y-2.2124
X3.279Y-2.5864
X3.279Y-3.4919
X3.279Y-5.1455
X3.279Y-6.051
X3.3563Y-3.8583
X3.3563Y-4.7638
X3.3577Y-1.3069
X3.3577Y-2.2124
X3.3577Y-2.5864
X3.3577Y-3.4919
X3.3577Y-5.1455
X3.3577Y-6.051
X4.0256Y-4.1437
X4.0256Y-4.3406
X4.0256Y-4.5374
X4.0256Y-4.7343
X4.0256Y-4.9311
X4.0256Y-5.128
X4.0256Y-5.3248
X4.0256Y-5.5217
X4.0256Y-5.7185
X4.124Y-2.2933
X4.124Y-2.5059
X4.1555Y-2.1594
X4.2224Y-3.9469
X4.2224Y-4.1437
X4.2224Y-4.3406
X4.2224Y-4.5374
X4.2224Y-4.7343
X4.2224Y-4.9311
X4.2224Y-5.128
X4.2224Y-5.3248
X4.2224Y-5.5217
X4.2224Y-5.7185
X4.2224Y-5.9154
X4.2296Y-2.2414
X4.2382Y-2.1122
X4.2382Y-2.1673
X4.2421Y-1.9469
X4.3209Y-2.5295
X4.3282Y-2.0177
X4.3445Y-2.2895
X4.3484Y-2.498
X4.3602Y-2.0177
X4.3602Y-2.6772
X4.3642Y-2.5295
X4.3795Y-3.3863
X4.3799Y-3.5039
X4.3898Y-2.6476
X4.3898Y-2.7067
X4.4094Y-1.8701
X4.4099Y-1.7761
X4.4193Y-2.6181
X4.4193Y-2.6772
X4.4193Y-2.7362
X4.4193Y-3.9469
X4.4193Y-4.1437
X4.4193Y-4.3406
X4.4193Y-4.5374
X4.4193Y-4.7343
X4.4193Y-4.9311
X4.4193Y-5.128
X4.4193Y-5.3248
X4.4193Y-5.5217
X4.4193Y-5.7185
X4.4193Y-5.9154
X4.4488Y-2.5886
X4.4488Y-2.6476
X4.4488Y-2.7067
X4.4508Y-1.9469
X4.4508Y-2.1122
X4.4508Y-2.1673
X4.4547Y-2.2895
X4.4783Y-2.6772
X4.5079Y-2.5197
X4.5079Y-2.6476
X4.5472Y-2.4803
X4.5472Y-2.5197
X4.5965Y-2.4409
X4.5965Y-2.4803
X4.5965Y-2.5197
X4.6063Y-3.5236
X4.6161Y-3.9469
X4.6161Y-4.1437
X4.6161Y-4.3406
X4.6161Y-4.7343
X4.6161Y-5.128
X4.6161Y-5.3248
X4.6161Y-5.5217
X4.6161Y-5.7185
X4.6161Y-5.9154
X4.6358Y-2.4016
X4.6358Y-2.4409
X4.6358Y-3.7795
X4.6555Y-3.376
X4.6654Y-2.3819
X4.6654Y-2.4606
X4.7343Y-2.8445
X4.7382Y-1.6319
X4.7382Y-1.6909
X4.7441Y-2.6476
X4.7539Y-2.3819
X4.7638Y-2.2441
X4.7697Y-2.7539
X4.8061Y-2.503
X4.813Y-3.9469
X4.813Y-4.1437
X4.813Y-4.3406
X4.813Y-4.5374
X4.813Y-4.7343
X4.813Y-4.9311
X4.813Y-5.128
X4.813Y-5.3248
X4.813Y-5.5217
X4.813Y-5.7185
X4.813Y-5.9154
X4.8152Y-2.7382
X4.8152Y-2.7869
X4.8152Y-2.8407
X4.8152Y-2.8944
X4.8152Y-2.9482
X4.8327Y-2.6909
X4.8563Y-2.8406
X4.8582Y-2.7382
X4.866Y-2.9482
X4.878Y-2.3614
X4.8839Y-1.5807
X4.8839Y-1.6358
X4.8839Y-1.6949
X4.9006Y-2.384
X4.9012Y-2.7382
X4.9035Y-2.8406
X4.9169Y-2.9482
X4.9169Y-3.0032
X4.9169Y-3.0582
X4.9169Y-3.1132
X4.9169Y-3.1682
X4.9259Y-2.4036
X4.939Y-1.6358
X4.9442Y-2.7382
X4.9626Y-1.8699
X4.9626Y-1.8979
X4.9626Y-1.9722
X4.9626Y-2.0002
X4.9626Y-2.2343
X4.966Y-3.1682
X4.9677Y-2.9482
X4.9872Y-2.7382
X4.9902Y-2.2539
X5.0056Y-2.6716
X5.0098Y-4.3406
X5.0098Y-4.7343
X5.0098Y-4.9311
X5.0098Y-5.128
X5.0098Y-5.7185
X5.0098Y-5.9154
X5.0152Y-3.1682
X5.0152Y-3.2257
X5.0152Y-3.2832
X5.0185Y-2.9482
X5.0295Y-2.185
X5.0295Y-2.2343
X5.0302Y-2.7382
X5.0302Y-3.0782
X5.0302Y-3.1232
X5.0413Y-2.2815
X5.0413Y-2.5965
X5.0492Y-2.3799
X5.065Y-2.3051
X5.0652Y-3.1682
X5.0694Y-2.9482
X5.0714Y-3.2832
X5.1202Y-2.7382
X5.1202Y-2.8082
X5.1202Y-2.8782
X5.1202Y-2.9482
X5.1277Y-3.2832
X5.128Y-2.0571
X5.128Y-2.0886
X5.128Y-2.5984
X5.1516Y-2.4902
X5.1692Y-2.9482
X5.1831Y-2.5571
X5.1839Y-3.2832
X5.1902Y-2.7382
X5.1949Y-2.3602
X5.2067Y-4.1437
X5.2067Y-4.3406
X5.2067Y-4.5374
X5.2067Y-4.7343
X5.2067Y-4.9311
X5.2067Y-5.128
X5.2067Y-5.3248
X5.2067Y-5.7185
X5.2067Y-5.9154
X5.2106Y-2.3012
X5.2106Y-2.6083
X5.2343Y-2.3563
X5.2362Y-2.2736
X5.2402Y-2.7382
X5.2402Y-2.7987
X5.2402Y-2.8593
X5.2402Y-2.9199
X5.2402Y-2.9804
X5.2402Y-3.041
X5.2402Y-3.1015
X5.2402Y-3.1621
X5.2402Y-3.2226
X5.2402Y-3.2832
X5.2421Y-2.5816
X5.2894Y-3.1713
X5.2894Y-3.2067
X5.2894Y-3.2421
X5.3169Y-2.5453
X5.3248Y-1.7579
X5.3248Y-2.2776
X5.3287Y-3.1713
X5.3287Y-3.2067
X5.3346Y-2.4188
X5.3346Y-2.4508
X5.3346Y-2.5
X5.3445Y-2.3642
X5.3445Y-3.8701
X5.3484Y-2.1358
X5.3484Y-2.5335
X5.3494Y-1.9478
X5.3563Y-3.061
X5.3602Y-2.813
X5.3602Y-2.8445
X5.3602Y-2.9311
X5.3602Y-2.9626
X5.3642Y-2.5571
X5.3681Y-2.3406
X5.3957Y-2.187
X5.4035Y-4.1437
X5.4035Y-4.3406
X5.4035Y-4.5374
X5.4035Y-4.7343
X5.4035Y-5.128
X5.4035Y-5.5217
X5.4035Y-5.7185
X5.4035Y-5.9154
X5.4114Y-3.4232
X5.4193Y-3.3287
X5.4272Y-1.9193
X5.4272Y-2.0138
X5.4272Y-2.6319
X5.435Y-2.2736
X5.4547Y-2.2539
X5.4587Y-2.624
X5.5217Y-2.7185
X5.5237Y-2.4477
X5.5453Y-2.7538
X5.5492Y-2.6949
X5.5728Y-2.1909
X5.5772Y-2.3944
X5.5886Y-2.065
X5.5886Y-2.1043
X5.5886Y-2.1437
X5.6004Y-3.9469
X5.6004Y-4.1437
X5.6004Y-4.3406
X5.6004Y-4.5374
X5.6004Y-4.7343
X5.6004Y-4.9311
X5.6004Y-5.128
X5.6004Y-5.3248
X5.6004Y-5.5217
X5.6004Y-5.7185
X5.6004Y-5.9154
X5.624Y-2.4626
X5.624Y-2.498
X5.624Y-2.5335
X5.628Y-2.065
X5.628Y-2.1043
X5.628Y-2.1437
X5.628Y-2.8957
X5.628Y-2.939
X5.628Y-2.9823
X5.6594Y-2.4232
X5.6594Y-2.4626
X5.6594Y-2.498
X5.6594Y-2.5335
X5.6713Y-3.2382
X5.687Y-1.9547
X5.687Y-2.8917
X5.687Y-2.939
X5.687Y-2.9823
X5.687Y-3.0335
X5.6949Y-2.498
X5.6949Y-2.5335
X5.7106Y-3.2382
X5.7972Y-3.9469
X5.7972Y-4.1437
X5.7972Y-4.3406
X5.7972Y-4.5374
X5.7972Y-4.7343
X5.7972Y-4.9311
X5.7972Y-5.128
X5.7972Y-5.3248
X5.7972Y-5.5217
X5.7972Y-5.7185
X5.7972Y-5.9154
X5.8602Y-2.0059
X5.8839Y-2.4744
X5.9213Y-2.5079
X5.9232Y-2.3602
X5.9232Y-2.4075
X5.9232Y-2.4547
X5.9626Y-2.5079
X5.9941Y-3.2382
X5.9941Y-4.1437
X5.9941Y-4.3406
X5.9941Y-4.5374
X5.9941Y-4.7343
X5.9941Y-4.9311
X5.9941Y-5.128
X5.9941Y-5.3248
X5.9941Y-5.5217
X5.9941Y-5.7185
X6.061Y-1.9665
X6.0965Y-2.376
T3
X2.6358Y-4.1939
X2.6372Y-1.6425
X2.6372Y-2.922
X2.6372Y-5.4811
X2.7358Y-4.0189
X2.7358Y-4.0689
X2.7372Y-1.4675
X2.7372Y-1.5175
X2.7372Y-2.747
X2.7372Y-2.797
X2.7372Y-5.3061
X2.7372Y-5.3561
X2.7765Y-4.1595
X2.7779Y-1.6081
X2.7779Y-2.8876
X2.7779Y-5.4467
X2.7858Y-3.9789
X2.7872Y-1.4275
X2.7872Y-2.707
X2.7872Y-5.2661
X2.8158Y-4.1595
X2.8158Y-4.1989
X2.8172Y-1.6081
X2.8172Y-1.6475
X2.8172Y-2.8876
X2.8172Y-2.927
X2.8172Y-5.4467
X2.8172Y-5.4861
X2.8358Y-3.9789
X2.8372Y-1.4275
X2.8372Y-2.707
X2.8372Y-5.2661
X2.8558Y-4.1589
X2.8558Y-4.1989
X2.8572Y-1.6075
X2.8572Y-1.6475
X2.8572Y-2.887
X2.8572Y-2.927
X2.8572Y-5.4461
X2.8572Y-5.4861
X2.8608Y-4.4189
X2.8622Y-1.8675
X2.8622Y-3.147
X2.8622Y-5.7061
X2.8658Y-4.0189
X2.8658Y-4.0689
X2.8658Y-4.1133
X2.8672Y-1.4675
X2.8672Y-1.5175
X2.8672Y-1.562
X2.8672Y-2.747
X2.8672Y-2.797
X2.8672Y-2.8415
X2.8672Y-5.3061
X2.8672Y-5.3561
X2.8672Y-5.4006
X2.8758Y-4.3139
X2.8772Y-1.7625
X2.8772Y-3.042
X2.8772Y-5.6011
X2.8808Y-3.9789
X2.8822Y-1.4275
X2.8822Y-2.707
X2.8822Y-5.2661
X2.9158Y-4.0189
X2.9158Y-4.0689
X2.9158Y-4.1189
X2.9158Y-4.4189
X2.9172Y-1.4675
X2.9172Y-1.5175
X2.9172Y-1.5675
X2.9172Y-1.8675
X2.9172Y-2.747
X2.9172Y-2.797
X2.9172Y-2.847
X2.9172Y-3.147
X2.9172Y-5.3061
X2.9172Y-5.3561
X2.9172Y-5.4061
X2.9172Y-5.7061
X2.9208Y-3.9789
X2.9222Y-1.4275
X2.9222Y-2.707
X2.9222Y-5.2661
X2.9458Y-4.2439
X2.9458Y-4.2889
X2.9472Y-1.6925
X2.9472Y-1.7375
X2.9472Y-2.972
X2.9472Y-3.017
X2.9472Y-5.5311
X2.9472Y-5.5761
X2.9908Y-4.2939
X2.9922Y-1.7425
X2.9922Y-3.022
X2.9922Y-5.5811
X3.0058Y-4.4189
X3.0072Y-1.8675
X3.0072Y-3.147
X3.0072Y-5.7061
X3.0358Y-4.5039
X3.0372Y-1.9525
X3.0372Y-3.232
X3.0372Y-5.7911
X3.0458Y-4.3139
X3.0472Y-1.7625
X3.0472Y-3.042
X3.0472Y-5.6011
X3.0508Y-4.4189
X3.0522Y-1.8675
X3.0522Y-3.147
X3.0522Y-5.7061
T4
X3.9705Y-3.9862
X3.9981Y-3.9194
X3.9981Y-4.053
X4.065Y-3.8917
X4.065Y-4.0807
X4.1318Y-3.9194
X4.1318Y-4.053
X4.1594Y-3.9862
X5.8602Y-1.5059
X5.8879Y-1.4391
X5.8879Y-1.5727
X5.9547Y-1.4114
X5.9547Y-1.6004
X6.0215Y-1.4391
X6.0215Y-1.5727
X6.0492Y-1.5059
X5.8602Y-3.9862
X5.8879Y-3.9194
X5.8879Y-4.053
X5.9547Y-3.8917
X5.9547Y-4.0807
X6.0215Y-3.9194
X6.0215Y-4.053
X6.0492Y-3.9862
X3.9705Y-1.5059
X3.9981Y-1.4391
X3.9981Y-1.5727
X4.065Y-1.4114
X4.065Y-1.6004
X4.1318Y-1.4391
X4.1318Y-1.5727
X4.1594Y-1.5059
X3.9705Y-3.3957
X3.9981Y-3.3289
X3.9981Y-3.4625
X4.065Y-3.3012
X4.065Y-3.4902
X4.1318Y-3.3289
X4.1318Y-3.4625
X4.1594Y-3.3957
X5.8602Y-5.876
X5.8879Y-5.8092
X5.8879Y-5.9428
X5.9547Y-5.7815
X5.9547Y-5.9705
X6.0215Y-5.8092
X6.0215Y-5.9428
X6.0492Y-5.876
X3.9705Y-5.876
X3.9981Y-5.8092
X3.9981Y-5.9428
X4.065Y-5.7815
X4.065Y-5.9705
X4.1318Y-5.8092
X4.1318Y-5.9428
X4.1594Y-5.876
T5
X2.3228Y-4.4685
X2.3242Y-1.9171
X2.3242Y-3.1967
X2.3242Y-5.7557
X2.3327Y-4.1535
X2.3327Y-4.1929
X2.3327Y-4.3012
X2.3327Y-4.4193
X2.3341Y-1.6022
X2.3341Y-1.6415
X2.3341Y-1.7498
X2.3341Y-1.8679
X2.3341Y-2.8817
X2.3341Y-2.9211
X2.3341Y-3.0293
X2.3341Y-3.1474
X2.3341Y-5.4407
X2.3341Y-5.4801
X2.3341Y-5.5884
X2.3341Y-5.7065
X2.372Y-4.1535
X2.372Y-4.1929
X2.372Y-4.3012
X2.372Y-4.4193
X2.3734Y-1.6022
X2.3734Y-1.6415
X2.3734Y-1.7498
X2.3734Y-1.8679
X2.3734Y-2.8817
X2.3734Y-2.9211
X2.3734Y-3.0293
X2.3734Y-3.1474
X2.3734Y-5.4407
X2.3734Y-5.4801
X2.3734Y-5.5884
X2.3734Y-5.7065
X2.7559Y-4.2618
X2.7559Y-4.3209
X2.7573Y-1.7104
X2.7573Y-1.7695
X2.7573Y-2.99
X2.7573Y-3.049
X2.7573Y-5.549
X2.7573Y-5.6081
X2.7854Y-4.3012
X2.7868Y-1.7498
X2.7868Y-3.0293
X2.7868Y-5.5884
X2.815Y-4.3209
X2.8164Y-1.7695
X2.8164Y-3.049
X2.8164Y-5.6081
X3.1299Y-4.311
X3.1313Y-1.7596
X3.1313Y-3.0392
X3.1313Y-5.5982
X3.1594Y-4.2126
X3.1608Y-1.6612
X3.1608Y-2.9407
X3.1608Y-5.4998
X3.1988Y-4.252
X3.2002Y-1.7006
X3.2002Y-2.9801
X3.2002Y-5.5392
X4.4665Y-4.8524
X4.5157Y-4.8543
X4.5177Y-4.9311
X4.5565Y-3.4114
X4.5565Y-3.5217
X4.628Y-5.0059
X4.6516Y-3.4193
X4.6555Y-3.5217
X4.935Y-4.4232
X4.935Y-5.4547
X4.935Y-5.498
X5.0098Y-4.5098
X5.0886Y-1.8012
X5.0886Y-1.8799
X5.0886Y-1.9587
X5.1181Y-1.8406
X5.1181Y-1.9193
X5.1181Y-1.998
X5.1673Y-1.7913
X5.1673Y-1.8406
X5.187Y-5.4823
X5.2264Y-1.3878
X5.2264Y-1.437
X5.2264Y-1.4862
X5.2264Y-1.5354
X5.2264Y-5.4823
X5.2756Y-1.3878
X5.2756Y-1.437
X5.2756Y-1.4862
X5.3642Y-1.3878
X5.3642Y-1.437
X5.3642Y-1.4862
X5.3878Y-2.128
X5.4035Y-1.811
X5.4114Y-4.9272
X5.4114Y-5.0059
X5.4124Y-1.623
X5.4134Y-1.3878
X5.4134Y-1.437
X5.4134Y-1.4862
X5.4134Y-1.5354
X5.4134Y-1.6929
X5.4528Y-1.624
X5.4528Y-1.6929
X5.4626Y-1.811
X5.4921Y-1.5748
X5.4921Y-1.6535
X5.561Y-1.5157
X5.5709Y-2.2441
X5.5709Y-2.2933
X5.6201Y-1.5157
X5.689Y-1.5748
X5.689Y-1.6634
X5.6988Y-1.7717
X5.7264Y-2.7421
X5.7264Y-2.7815
X5.7264Y-2.8248
X5.7264Y-2.8681
X5.7421Y-2.2146
X5.7421Y-2.2618
X5.748Y-1.7717
X5.7776Y-2.7421
X5.7776Y-2.7815
X5.7776Y-2.8248
X5.7776Y-2.8681
X5.7815Y-3.3209
X5.7874Y-2.9528
X5.7874Y-2.9921
X5.7874Y-3.0315
X5.7874Y-3.0709
X5.7874Y-3.1102
X5.7874Y-3.1496
X5.7874Y-3.189
X5.7874Y-3.6024
X5.7972Y-1.7717
X5.7972Y-2.2146
X5.7972Y-2.2618
X5.8248Y-3.3209
X5.8268Y-3.1102
X5.8268Y-3.1496
X5.8268Y-3.189
X5.8366Y-3.6024
X5.8445Y-2.7421
X5.8445Y-2.7815
X5.8445Y-2.8248
X5.8445Y-2.8681
X5.8465Y-1.7717
X5.8465Y-1.811
X5.8524Y-2.2618
X5.8799Y-2.1122
X5.8957Y-1.7717
X5.8957Y-1.811
X5.8996Y-2.1476
X5.9232Y-2.2067
X5.9311Y-2.813
X5.9311Y-2.8681
X5.9311Y-2.9232
X5.9744Y-3.3169
X5.9823Y-2.2067
X5.9843Y-3.2776
X6.0807Y-3.372
T6
X5.8553Y-3.4557
X6.0531Y-2.0669
T7
X4.9173Y-3.4028
X4.9173Y-3.4528
X4.9673Y-3.4028
X4.9673Y-3.4528
X5.0173Y-3.4028
X5.0173Y-3.4528
X5.0673Y-3.4028
X5.0673Y-3.4528
X5.1173Y-3.4028
X5.1173Y-3.4528
X5.1673Y-3.4028
X5.1673Y-3.4528
X5.2173Y-3.4028
X5.2173Y-3.4528
X4.8346Y-4.0256
X4.8846Y-4.0256
X4.9346Y-4.0256
X4.9846Y-4.0256
X5.0346Y-4.0256
X5.0846Y-4.0256
X5.1346Y-4.0256
X5.1846Y-4.0256
X5.5807Y-3.3209
X5.5807Y-3.3709
X5.5807Y-3.4209
X5.5807Y-3.4709
X5.6307Y-3.3209
X5.6307Y-3.3709
X5.6307Y-3.4209
X5.6307Y-3.4709
T8
X3.9252Y-2.8041
X3.9252Y-2.8829
X3.9252Y-2.9616
X3.9252Y-3.0404
X4.0039Y-2.8041
X4.0039Y-2.8829
X4.0039Y-2.9616
X4.0039Y-3.0404
X4.3799Y-1.3681
X4.3799Y-1.4469
X4.4587Y-1.3681
X4.4587Y-1.4469
X4.5374Y-1.3681
X4.5374Y-1.4469
X4.6161Y-1.3681
X4.6161Y-1.4469
X3.9252Y-2.3327
X3.9252Y-2.4114
X3.9252Y-2.4902
X3.9252Y-2.5689
X4.0039Y-2.3327
X4.0039Y-2.4114
X4.0039Y-2.4902
X4.0039Y-2.5689
X3.9252Y-1.8612
X3.9252Y-1.94
X3.9252Y-2.0187
X3.9252Y-2.0974
X4.0039Y-1.8612
X4.0039Y-1.94
X4.0039Y-2.0187
X4.0039Y-2.0974
T9
X3.2972Y-1.4075
X3.2972Y-1.5075
X3.2972Y-1.6075
X3.2972Y-1.7075
X3.2972Y-1.8075
X3.2972Y-1.9075
X3.2972Y-2.0075
X3.2972Y-2.1075
X3.2972Y-2.687
X3.2972Y-2.787
X3.2972Y-2.887
X3.2972Y-2.987
X3.2972Y-3.087
X3.2972Y-3.187
X3.2972Y-3.287
X3.2972Y-3.387
X3.2958Y-3.9589
X3.2958Y-4.0589
X3.2958Y-4.1589
X3.2958Y-4.2589
X3.2958Y-4.3589
X3.2958Y-4.4589
X3.2958Y-4.5589
X3.2958Y-4.6589
X3.2972Y-5.2461
X3.2972Y-5.3461
X3.2972Y-5.4461
X3.2972Y-5.5461
X3.2972Y-5.6461
X3.2972Y-5.7461
X3.2972Y-5.8461
X3.2972Y-5.9461
X4.7598Y-3.8917
X4.8598Y-3.8917
X4.9598Y-3.8917
X5.0598Y-3.8917
X5.1598Y-3.8917
X5.2598Y-3.8917
T10
X2.6258Y-5.9905
X2.6258Y-3.4315
X2.2608Y-3.9449
X2.6258Y-2.1519
X2.2622Y-5.2321
X2.2622Y-2.673
X2.6244Y-4.7033
X2.2622Y-1.3935
T11
X5.9547Y-1.5059
X5.9547Y-3.9862
X4.065Y-1.5059
X4.065Y-3.3957
X5.9547Y-5.876
X4.065Y-5.876
X4.065Y-3.9862
T12
X2.4172Y-3.2996
X2.4158Y-4.5714
X2.4172Y-2.0201
X2.4172Y-5.8586
T13
X3.435Y-4.0846
X3.435Y-4.124
X3.435Y-4.1634
X3.435Y-4.2028
X3.8287Y-4.0846
X3.8287Y-4.124
X3.8287Y-4.1634
X3.8287Y-4.2028
X2.4016Y-2.5492
X2.4409Y-2.5492
X2.4803Y-2.5492
X2.5197Y-2.5492
X3.435Y-4.4587
X3.435Y-4.498
X3.435Y-4.5374
X3.435Y-4.5768
X2.4114Y-5.1083
X2.4508Y-5.1083
X2.4902Y-5.1083
X2.5295Y-5.1083
X3.435Y-5.3642
X3.435Y-5.4035
X3.435Y-5.4429
X3.435Y-5.4823
X3.0413Y-5.1083
X3.0807Y-5.1083
X3.1201Y-5.1083
X3.1594Y-5.1083
X2.4114Y-4.8268
X2.4508Y-4.8268
X2.4902Y-4.8268
X2.5295Y-4.8268
X3.0413Y-4.8268
X3.0807Y-4.8268
X3.1201Y-4.8268
X3.1594Y-4.8268
X3.8287Y-1.8996
X3.8287Y-1.939
X3.8287Y-1.9783
X3.8287Y-2.0177
X3.435Y-5.7382
X3.435Y-5.7776
X3.435Y-5.8169
X3.435Y-5.8563
X3.0413Y-3.8228
X3.0807Y-3.8228
X3.1201Y-3.8228
X3.1594Y-3.8228
X2.4016Y-3.8228
X2.4409Y-3.8228
X2.4803Y-3.8228
X2.5197Y-3.8228
X3.0413Y-3.5531
X3.0807Y-3.5531
X3.1201Y-3.5531
X3.1594Y-3.5531
X3.8287Y-5.3642
X3.8287Y-5.4035
X3.8287Y-5.4429
X3.8287Y-5.4823
X3.435Y-3.1791
X3.435Y-3.2185
X3.435Y-3.2579
X3.435Y-3.2972
X3.435Y-2.7953
X3.435Y-2.8346
X3.435Y-2.874
X3.435Y-2.9134
X3.4449Y-1.8996
X3.4449Y-1.939
X3.4449Y-1.9783
X3.4449Y-2.0177
X3.8287Y-2.7953
X3.8287Y-2.8346
X3.8287Y-2.874
X3.8287Y-2.9134
X2.4016Y-3.5531
X2.4409Y-3.5531
X2.4803Y-3.5531
X2.5197Y-3.5531
X2.4016Y-2.2736
X2.4409Y-2.2736
X2.4803Y-2.2736
X2.5197Y-2.2736
X3.8287Y-3.1791
X3.8287Y-3.2185
X3.8287Y-3.2579
X3.8287Y-3.2972
X3.8287Y-5.7382
X3.8287Y-5.7776
X3.8287Y-5.8169
X3.8287Y-5.8563
X3.0413Y-2.2736
X3.0807Y-2.2736
X3.1201Y-2.2736
X3.1594Y-2.2736
X3.435Y-1.5256
X3.435Y-1.565
X3.435Y-1.6043
X3.435Y-1.6437
X3.8287Y-4.4587
X3.8287Y-4.498
X3.8287Y-4.5374
X3.8287Y-4.5768
X3.8287Y-1.5256
X3.8287Y-1.565
X3.8287Y-1.6043
X3.8287Y-1.6437
X3.0413Y-2.5492
X3.0807Y-2.5492
X3.1201Y-2.5492
X3.1594Y-2.5492
T14
X5.9941Y-2.0925
T7
G00X5.9459Y-1.8043
M15
G01X5.9852Y-1.8043
M16
G05
G00X5.9459Y-2.1445
M15
G01X5.9852Y-2.1445
M16
G05
G00X6.0965Y-1.8043
M15
G01X6.1358Y-1.8043
M16
G05
G00X6.0965Y-2.1445
M15
G01X6.1358Y-2.1445
M16
G05
T14
G00X5.9941Y-1.8612
M15
G01X5.9941Y-1.8514
M16
G05
T0
M30
