M48
; DRILL file {KiCad 7.0.2} date Thu 27 Apr 2023 15:04:12
; FORMAT={-:-/ absolute / metric / decimal}
; #@! TF.CreationDate,2023-04-27T15:04:12+02:00
; #@! TF.GenerationSoftware,Kicad,Pcbnew,7.0.2
; #@! TF.FileFunction,Plated,1,4,PTH
FMAT,2
METRIC
; #@! TA.AperFunction,Plated,PTH,ViaDrill
T1C0.200
; #@! TA.AperFunction,Plated,PTH,ComponentDrill
T2C0.200
; #@! TA.AperFunction,Plated,PTH,ViaDrill
T3C0.250
; #@! TA.AperFunction,Plated,PTH,ComponentDrill
T4C0.500
; #@! TA.AperFunction,Plated,PTH,ComponentDrill
T5C0.650
; #@! TA.AperFunction,Plated,PTH,ComponentDrill
T6C1.000
; #@! TA.AperFunction,Plated,PTH,ComponentDrill
T7C3.200
%
G90
G05
T1
X104.46Y-76.84
X105.96Y-75.74
X106.7Y-67.2
X106.86Y-72.44
X107.9Y-74.64
X112.4Y-69.7
X112.55Y-68.15
X112.925Y-62.025
X121.8Y-57.5
X122.058Y-55.842
X123.8Y-55.243
X126.25Y-53.5
X126.8Y-56.8
X128.569Y-60.525
X129.05Y-60.55
X130.15Y-54.0
X131.2Y-54.65
X131.25Y-58.768
X131.593Y-39.793
X132.05Y-59.25
X132.759Y-62.517
X135.125Y-37.75
X135.55Y-37.75
X136.15Y-35.35
X136.15Y-36.345
X141.25Y-67.5
X142.35Y-46.357
X142.35Y-46.8
X143.2Y-37.05
X143.45Y-46.35
X143.45Y-46.8
X146.3Y-49.7
X147.9Y-86.2
X148.25Y-49.7
X148.6Y-85.58
X196.0Y-47.2
X197.7Y-42.55
X203.898Y-59.299
X203.898Y-69.1
X214.089Y-59.299
X214.189Y-69.1
X220.65Y-49.45
X222.2Y-44.8
T2
X113.41Y-40.01
X113.41Y-41.19
X113.41Y-51.81
X113.41Y-52.99
X114.59Y-40.01
X114.59Y-41.19
X114.59Y-51.81
X114.59Y-52.99
X152.605Y-62.401
X152.605Y-63.581
X153.784Y-62.401
X153.784Y-63.581
X190.01Y-63.61
X190.01Y-64.79
X191.19Y-63.61
X191.19Y-64.79
T3
X30.0Y-44.0
X30.0Y-50.0
X30.0Y-56.0
X30.0Y-62.0
X30.0Y-68.0
X30.0Y-74.0
X30.0Y-80.0
X36.0Y-38.0
X36.0Y-44.0
X36.0Y-50.0
X36.0Y-56.0
X36.0Y-62.0
X36.0Y-68.0
X36.0Y-74.0
X36.0Y-80.0
X36.0Y-86.0
X41.75Y-71.1
X42.0Y-38.0
X42.0Y-44.0
X42.0Y-50.0
X42.0Y-56.0
X42.0Y-62.0
X42.0Y-68.0
X42.0Y-74.0
X42.0Y-80.0
X42.0Y-86.0
X44.5Y-59.9
X44.9Y-67.9
X44.95Y-74.3
X48.0Y-38.0
X48.0Y-44.0
X48.0Y-50.0
X48.0Y-56.0
X48.0Y-68.0
X48.0Y-74.0
X48.0Y-80.0
X48.0Y-86.0
X48.1Y-71.1
X51.8Y-51.45
X52.35Y-52.9
X53.05Y-71.791
X54.0Y-38.0
X54.0Y-44.0
X54.0Y-50.0
X54.0Y-62.0
X54.0Y-74.0
X54.0Y-80.0
X54.0Y-86.0
X56.375Y-51.8
X56.375Y-52.25
X56.9Y-72.325
X57.325Y-51.8
X57.325Y-52.25
X59.8Y-53.0
X60.0Y-38.0
X60.0Y-44.0
X60.0Y-50.0
X60.0Y-56.0
X60.0Y-68.0
X60.0Y-74.0
X60.0Y-80.0
X60.0Y-86.0
X63.036Y-59.841
X63.05Y-49.8
X63.05Y-56.15
X63.35Y-61.75
X63.6Y-64.15
X63.6Y-65.1
X64.0Y-64.15
X64.0Y-65.1
X66.0Y-38.0
X66.0Y-44.0
X66.0Y-50.0
X66.0Y-56.0
X66.0Y-62.0
X66.0Y-68.0
X66.0Y-74.0
X66.0Y-80.0
X66.0Y-86.0
X66.25Y-53.0
X72.0Y-38.0
X72.0Y-44.0
X72.0Y-50.0
X72.0Y-56.0
X72.0Y-62.0
X72.0Y-68.0
X72.0Y-74.0
X72.0Y-80.0
X72.0Y-86.0
X72.75Y-62.65
X74.6Y-59.925
X74.6Y-61.625
X74.875Y-65.175
X74.875Y-66.425
X77.5Y-58.6
X77.5Y-59.2
X77.5Y-63.6
X77.5Y-64.2
X78.0Y-44.0
X78.0Y-62.0
X78.0Y-66.7
X78.0Y-77.2
X78.0Y-80.0
X78.3Y-58.6
X78.3Y-59.2
X78.3Y-63.6
X78.3Y-64.2
X79.0Y-73.2
X79.522Y-73.919
X79.7Y-77.1
X80.4Y-50.0
X80.4Y-50.8
X80.4Y-51.2
X80.4Y-52.0
X81.0Y-50.0
X81.0Y-50.8
X81.0Y-51.2
X81.0Y-52.0
X81.4Y-71.6
X81.4Y-74.8
X99.2Y-62.5
X99.25Y-60.3
X99.4Y-63.8
X100.6Y-63.8
X101.8Y-39.8
X101.8Y-40.2
X101.8Y-51.6
X101.8Y-52.0
X101.8Y-63.8
X101.8Y-65.8
X102.2Y-39.8
X102.2Y-40.2
X102.2Y-51.6
X102.2Y-52.0
X102.8Y-57.6
X103.05Y-78.95
X103.1Y-61.5
X103.9Y-71.3
X104.3Y-71.0
X104.3Y-71.6
X104.5Y-77.3
X104.8Y-34.2
X104.8Y-46.5
X104.8Y-57.6
X105.6Y-37.1
X105.6Y-44.1
X105.6Y-49.0
X105.6Y-55.8
X106.0Y-76.2
X106.7Y-36.9
X106.7Y-44.2
X106.7Y-47.7
X106.7Y-48.9
X106.7Y-55.9
X106.8Y-34.2
X106.8Y-46.5
X106.8Y-57.6
X106.9Y-35.8
X107.1Y-72.9
X107.3Y-47.7
X107.3Y-78.9
X107.45Y-73.65
X107.5Y-35.8
X107.8Y-88.9
X107.9Y-75.1
X108.2Y-59.3
X108.8Y-34.2
X108.8Y-46.5
X108.8Y-57.6
X109.2Y-87.5
X109.234Y-64.934
X109.9Y-63.2
X110.8Y-34.2
X110.8Y-46.5
X110.8Y-57.6
X111.362Y-87.337
X111.7Y-43.3
X111.7Y-44.3
X111.7Y-55.09
X111.7Y-56.09
X111.8Y-82.6
X111.8Y-88.1
X112.1Y-69.4
X112.2Y-67.9
X112.4Y-82.6
X112.4Y-87.85
X112.65Y-71.9
X112.8Y-34.2
X112.8Y-46.5
X112.8Y-57.6
X113.2Y-89.3
X113.4Y-76.65
X113.6Y-78.9
X113.9Y-36.91
X113.9Y-37.91
X113.9Y-43.3
X113.9Y-44.3
X113.9Y-48.7
X113.9Y-49.7
X113.9Y-55.09
X113.9Y-56.09
X114.0Y-84.6
X114.67Y-87.67
X114.8Y-34.2
X114.8Y-46.5
X115.4Y-43.3
X115.4Y-44.3
X115.4Y-55.09
X115.4Y-56.09
X115.5Y-39.2
X115.5Y-51.0
X115.6Y-84.3
X116.8Y-34.2
X116.8Y-46.5
X116.8Y-57.6
X117.4Y-67.3
X117.8Y-66.9
X118.8Y-34.2
X118.8Y-46.5
X118.8Y-56.6
X119.0Y-80.8
X119.0Y-81.3
X119.1Y-35.2
X119.8Y-71.2
X120.0Y-38.1
X120.8Y-34.2
X120.8Y-42.2
X120.8Y-46.5
X120.8Y-51.0
X120.8Y-53.6
X120.8Y-54.6
X121.1Y-73.3
X121.5Y-66.2
X121.5Y-67.6
X121.8Y-57.0
X121.9Y-58.0
X121.9Y-62.8
X122.0Y-67.0
X122.2Y-62.4
X122.3Y-56.2
X122.4Y-53.0
X122.6Y-73.2
X123.15Y-71.6
X123.2Y-34.2
X123.2Y-39.2
X123.2Y-41.2
X123.2Y-43.2
X123.2Y-45.2
X123.2Y-47.2
X123.2Y-49.1
X123.2Y-51.2
X123.2Y-65.8
X123.2Y-68.7
X123.2Y-70.7
X123.4Y-65.15
X123.6Y-78.1
X123.6Y-78.7
X123.7Y-54.8
X123.8Y-36.1
X123.8Y-68.2
X123.85Y-88.75
X123.9Y-60.6
X124.3Y-60.2
X124.3Y-68.3
X124.6Y-65.15
X124.8Y-35.0
X124.8Y-36.0
X124.8Y-39.0
X124.8Y-40.0
X124.8Y-73.2
X124.8Y-77.575
X124.8Y-80.2
X124.9Y-82.1
X125.2Y-45.95
X125.2Y-47.2
X125.6Y-63.3
X125.6Y-64.3
X125.6Y-65.8
X125.6Y-70.7
X125.6Y-71.6
X125.7Y-45.95
X126.0Y-42.4
X126.1Y-73.2
X126.1Y-77.075
X126.1Y-80.2
X126.15Y-81.575
X126.15Y-85.4
X126.7Y-45.95
X127.2Y-35.0
X127.2Y-36.0
X127.2Y-39.0
X127.2Y-40.0
X127.2Y-44.2
X127.2Y-45.95
X127.2Y-47.2
X127.2Y-48.3
X127.2Y-48.8
X127.25Y-42.2
X127.25Y-43.2
X127.3Y-56.8
X127.4Y-61.3
X127.4Y-79.4
X127.5Y-69.6
X127.5Y-70.7
X127.5Y-72.2
X127.5Y-73.15
X127.6Y-88.9
X128.179Y-57.279
X128.2Y-48.3
X128.2Y-48.8
X128.55Y-40.3
X128.55Y-40.8
X128.6Y-79.924
X128.6Y-85.45
X128.65Y-81.075
X128.7Y-80.5
X129.079Y-57.079
X129.2Y-47.2
X129.4Y-80.5
X129.5Y-39.5
X129.55Y-44.2
X129.6Y-35.6
X129.6Y-37.5
X129.7Y-33.7
X129.7Y-68.8
X129.75Y-58.2
X129.85Y-62.099
X129.85Y-73.2
X129.875Y-80.449
X129.9Y-72.225
X130.0Y-65.9
X130.017Y-45.2
X130.076Y-56.825
X130.1Y-71.4
X130.2Y-33.7
X130.2Y-53.6
X130.3Y-69.2
X130.8Y-42.15
X130.8Y-43.25
X130.8Y-84.6
X130.8Y-85.1
X130.8Y-85.6
X130.913Y-65.11
X131.2Y-47.2
X131.25Y-56.6
X131.3Y-41.35
X131.384Y-49.334
X131.4Y-84.6
X131.4Y-85.1
X131.4Y-85.6
X131.475Y-64.9
X131.5Y-35.6
X131.5Y-37.5
X131.6Y-54.798
X131.75Y-41.35
X131.95Y-62.45
X132.1Y-84.6
X132.1Y-85.1
X132.1Y-85.6
X132.3Y-65.6
X132.3Y-66.6
X132.3Y-67.6
X132.3Y-68.6
X132.3Y-69.6
X132.3Y-70.3
X132.3Y-72.2
X132.3Y-73.05
X132.7Y-84.6
X132.7Y-85.1
X132.7Y-85.6
X132.8Y-59.25
X132.9Y-42.45
X132.9Y-43.3
X133.15Y-43.8
X133.15Y-45.35
X133.17Y-46.35
X133.2Y-33.7
X133.215Y-41.118
X133.4Y-35.6
X133.4Y-37.5
X133.4Y-39.5
X133.6Y-41.325
X133.6Y-60.8
X133.7Y-33.7
X133.825Y-54.406
X133.9Y-53.8
X134.258Y-49.908
X134.45Y-53.75
X134.7Y-49.55
X135.309Y-49.599
X135.7Y-49.075
X136.4Y-47.849
X137.1Y-47.2
X137.2Y-39.95
X137.225Y-65.4
X137.23Y-39.05
X137.3Y-41.95
X137.3Y-42.55
X137.4Y-50.25
X137.749Y-62.749
X137.95Y-52.95
X138.0Y-55.817
X138.0Y-56.816
X138.3Y-35.45
X138.3Y-36.0
X138.4Y-43.25
X138.4Y-45.2
X138.4Y-47.2
X138.4Y-57.3
X138.5Y-56.3
X138.625Y-39.4
X138.7Y-86.35
X138.8Y-62.2
X138.8Y-70.3
X138.8Y-70.8
X139.3Y-53.1
X139.3Y-70.8
X139.37Y-60.57
X139.8Y-64.9
X139.8Y-70.3
X139.8Y-70.8
X139.872Y-36.795
X139.9Y-55.0
X140.3Y-55.7
X140.3Y-56.55
X140.65Y-48.309
X140.65Y-48.909
X140.9Y-64.9
X141.2Y-36.85
X141.4Y-69.3
X141.4Y-69.7
X141.476Y-35.274
X141.5Y-42.7
X141.5Y-43.2
X141.5Y-45.3
X141.5Y-45.8
X141.7Y-73.1
X141.8Y-69.3
X141.8Y-69.7
X141.8Y-89.05
X142.0Y-42.7
X142.0Y-43.2
X142.0Y-45.3
X142.0Y-45.8
X142.55Y-40.6
X142.55Y-41.1
X142.8Y-36.5
X142.95Y-34.95
X143.0Y-81.4
X143.1Y-69.3
X143.1Y-69.7
X143.1Y-77.4
X143.1Y-78.0
X143.1Y-78.7
X143.1Y-79.3
X143.15Y-40.6
X143.15Y-41.1
X143.15Y-61.25
X143.2Y-38.35
X143.5Y-69.3
X143.5Y-69.7
X143.525Y-66.305
X143.6Y-77.4
X143.6Y-78.0
X143.6Y-78.7
X143.6Y-79.3
X143.7Y-73.1
X143.7Y-83.9
X144.0Y-36.15
X144.1Y-77.4
X144.1Y-78.0
X144.1Y-78.7
X144.1Y-79.3
X144.15Y-58.65
X144.2Y-71.1
X144.2Y-71.6
X144.45Y-34.52
X144.45Y-35.7
X144.7Y-50.9
X144.7Y-71.1
X144.7Y-71.6
X145.4Y-37.6
X145.563Y-34.075
X145.6Y-36.1
X145.6Y-36.85
X145.65Y-38.35
X145.7Y-50.9
X145.7Y-55.35
X145.7Y-55.8
X145.7Y-66.7
X145.85Y-68.55
X146.072Y-34.478
X146.7Y-69.3
X146.7Y-69.7
X146.8Y-70.5
X146.8Y-71.0
X146.9Y-67.6
X147.1Y-69.3
X147.1Y-69.7
X147.2Y-82.2
X147.2Y-83.4
X147.3Y-70.5
X147.3Y-71.0
X147.3Y-80.0
X147.35Y-52.9
X147.45Y-58.65
X147.9Y-78.4
X148.0Y-41.2
X148.4Y-57.3
X148.4Y-62.0
X148.4Y-63.1
X148.5Y-41.2
X148.5Y-59.0
X148.6Y-61.0
X148.7Y-57.9
X148.9Y-52.9
X148.9Y-55.05
X149.2Y-47.4
X149.2Y-47.9
X149.3Y-66.5
X149.5Y-69.05
X149.5Y-69.55
X149.6Y-82.2
X149.6Y-83.4
X149.75Y-67.6
X149.8Y-47.4
X149.8Y-47.9
X150.0Y-69.05
X150.0Y-69.55
X150.1Y-52.3
X150.3Y-66.55
X150.5Y-46.3
X150.5Y-46.8
X150.5Y-47.6
X150.5Y-48.05
X150.5Y-52.3
X150.5Y-53.05
X150.5Y-53.55
X150.9Y-63.266
X152.05Y-33.4
X152.1Y-80.4
X152.1Y-84.6
X153.4Y-84.3
X153.4Y-88.5
X154.5Y-42.5
X154.5Y-61.5
X154.5Y-66.45
X154.5Y-66.95
X155.1Y-66.45
X155.1Y-66.95
X155.5Y-62.5
X155.8Y-55.3
X155.8Y-56.1
X156.1Y-47.6
X156.1Y-49.9
X156.1Y-52.3
X156.2Y-78.3
X156.2Y-84.3
X156.35Y-40.9
X156.5Y-55.3
X156.5Y-56.1
X156.9Y-63.107
X157.0Y-62.5
X157.2Y-55.3
X157.2Y-56.1
X157.2Y-56.8
X157.2Y-57.6
X157.25Y-64.5
X157.25Y-66.5
X177.2Y-37.7
X179.0Y-30.0
X179.0Y-31.0
X179.0Y-36.0
X179.0Y-46.0
X179.0Y-56.0
X179.0Y-66.0
X180.6Y-39.7
X180.6Y-40.1
X180.9Y-38.7
X180.9Y-39.1
X181.0Y-39.7
X181.0Y-40.1
X182.1Y-43.275
X182.6Y-43.3
X182.7Y-38.7
X182.7Y-39.1
X182.75Y-45.1
X182.75Y-45.6
X182.8Y-48.5
X183.25Y-45.1
X183.25Y-45.6
X183.75Y-45.1
X183.75Y-45.6
X184.5Y-38.7
X184.5Y-39.1
X185.8Y-45.0
X185.8Y-45.5
X186.4Y-48.5
X189.0Y-30.0
X189.0Y-31.0
X189.0Y-36.0
X189.0Y-56.0
X189.18Y-60.51
X189.18Y-61.51
X189.5Y-38.7
X189.5Y-39.1
X190.68Y-60.51
X190.68Y-61.51
X190.68Y-66.9
X190.68Y-67.9
X191.3Y-38.7
X191.3Y-39.1
X192.88Y-60.51
X192.88Y-61.51
X196.0Y-46.75
X196.3Y-38.7
X196.3Y-39.1
X196.5Y-44.55
X196.5Y-45.05
X196.5Y-45.75
X196.5Y-46.25
X197.675Y-67.7
X197.7Y-42.1
X197.7Y-60.55
X198.05Y-62.5
X198.1Y-38.7
X198.1Y-39.1
X198.45Y-41.1
X198.45Y-41.6
X198.45Y-49.2
X198.45Y-49.7
X198.45Y-50.4
X198.45Y-50.9
X198.7Y-60.7
X199.0Y-30.0
X199.0Y-31.0
X199.0Y-36.0
X199.0Y-56.0
X199.0Y-66.0
X199.9Y-37.7
X199.9Y-38.1
X199.9Y-38.7
X199.9Y-39.1
X200.3Y-37.7
X200.3Y-38.1
X200.4Y-61.4
X200.4Y-62.5
X200.4Y-63.6
X200.9Y-61.4
X200.9Y-62.5
X200.9Y-63.6
X200.9Y-64.8
X200.9Y-65.9
X200.9Y-67.0
X203.6Y-63.2
X203.6Y-65.2
X204.15Y-44.75
X204.15Y-46.0
X204.15Y-47.25
X204.6Y-63.2
X204.6Y-65.2
X206.1Y-40.1
X206.1Y-41.35
X206.1Y-42.6
X206.1Y-49.35
X206.1Y-50.65
X206.1Y-51.9
X206.998Y-59.702
X207.5Y-63.9
X207.5Y-64.5
X207.55Y-45.3
X207.75Y-37.7
X207.75Y-54.3
X208.0Y-63.9
X208.0Y-64.5
X208.05Y-45.3
X208.75Y-45.3
X208.75Y-46.7
X209.0Y-30.0
X209.0Y-31.0
X209.0Y-36.0
X209.0Y-37.7
X209.0Y-54.3
X209.0Y-56.0
X209.0Y-59.4
X209.0Y-60.0
X209.0Y-60.5
X209.0Y-61.1
X209.0Y-66.0
X209.0Y-67.3
X209.0Y-67.9
X209.0Y-68.4
X209.25Y-45.3
X209.25Y-46.7
X209.95Y-46.7
X210.0Y-63.9
X210.0Y-64.5
X210.25Y-37.7
X210.25Y-54.3
X210.45Y-46.7
X210.5Y-63.9
X210.5Y-64.5
X211.028Y-59.675
X211.9Y-40.1
X211.9Y-41.35
X211.95Y-42.65
X211.95Y-49.375
X211.95Y-50.65
X211.95Y-51.925
X213.4Y-63.15
X213.45Y-65.25
X213.9Y-44.75
X213.9Y-46.0
X213.9Y-47.25
X214.689Y-63.1
X214.7Y-65.3
X215.1Y-64.2
X215.7Y-64.2
X217.1Y-61.4
X217.1Y-62.5
X217.1Y-63.6
X217.1Y-64.8
X217.1Y-65.9
X217.1Y-67.0
X219.0Y-30.0
X219.0Y-31.0
X219.0Y-36.0
X219.0Y-56.0
X219.0Y-66.0
X219.55Y-50.4
X219.55Y-50.9
X219.55Y-51.6
X219.55Y-52.1
X219.57Y-41.1
X219.57Y-41.6
X219.57Y-42.3
X219.57Y-42.8
X220.65Y-49.0
X221.5Y-45.75
X221.5Y-46.25
X221.5Y-46.95
X221.5Y-47.45
X222.2Y-44.35
X229.0Y-30.0
X229.0Y-31.0
X229.0Y-36.0
X229.0Y-56.0
X229.0Y-66.0
X239.0Y-30.0
X239.0Y-31.0
X239.0Y-36.0
X239.0Y-46.0
X239.0Y-56.0
X239.0Y-66.0
T4
X27.6Y-38.0
X27.6Y-86.0
X28.303Y-36.303
X28.303Y-39.697
X28.303Y-84.303
X28.303Y-87.697
X30.0Y-35.6
X30.0Y-40.4
X30.0Y-83.6
X30.0Y-88.4
X31.697Y-36.303
X31.697Y-39.697
X31.697Y-84.303
X31.697Y-87.697
X32.4Y-38.0
X32.4Y-86.0
X75.6Y-38.0
X75.6Y-86.0
X76.303Y-36.303
X76.303Y-39.697
X76.303Y-84.303
X76.303Y-87.697
X78.0Y-35.6
X78.0Y-40.4
X78.0Y-83.6
X78.0Y-88.4
X79.697Y-36.303
X79.697Y-39.697
X79.697Y-84.303
X79.697Y-87.697
X80.4Y-38.0
X80.4Y-86.0
X101.6Y-86.05
X102.303Y-84.353
X102.303Y-87.747
X104.0Y-83.65
X104.0Y-88.45
X105.697Y-84.353
X105.697Y-87.747
X106.4Y-86.05
X149.6Y-38.05
X150.303Y-36.353
X150.303Y-39.747
X152.0Y-35.65
X152.0Y-40.45
X153.697Y-36.353
X153.697Y-39.747
X154.4Y-38.05
X188.6Y-46.0
X189.303Y-44.303
X189.303Y-47.697
X191.0Y-43.6
X191.0Y-48.4
X192.697Y-44.303
X192.697Y-47.697
X193.4Y-46.0
X224.6Y-46.0
X225.303Y-44.303
X225.303Y-47.697
X227.0Y-43.6
X227.0Y-48.4
X228.697Y-44.303
X228.697Y-47.697
X229.4Y-46.0
T5
X118.0Y-77.2
X118.0Y-78.47
X118.0Y-79.74
X118.0Y-81.01
T6
X27.0Y-56.425
X27.0Y-58.965
X27.0Y-61.505
X27.0Y-64.045
X27.0Y-66.585
T7
X30.0Y-38.0
X30.0Y-86.0
X78.0Y-38.0
X78.0Y-86.0
X104.0Y-86.05
X152.0Y-38.05
X191.0Y-46.0
X227.0Y-46.0
T5
G00X151.775Y-45.63
M15
G01X152.775Y-45.63
M16
G05
G00X151.775Y-54.27
M15
G01X152.775Y-54.27
M16
G05
G00X155.6Y-45.63
M15
G01X156.6Y-45.63
M16
G05
G00X155.6Y-54.27
M15
G01X156.6Y-54.27
M16
G05
T0
M30
