%TF.GenerationSoftware,KiCad,Pcbnew,7.0.2*%
%TF.CreationDate,2023-04-27T15:04:23+02:00*%
%TF.ProjectId,kleinvoet,6b6c6569-6e76-46f6-9574-2e6b69636164,C*%
%TF.SameCoordinates,Original*%
%TF.FileFunction,OtherDrawing,Comment*%
%FSLAX46Y46*%
G04 Gerber Fmt 4.6, Leading zero omitted, Abs format (unit mm)*
G04 Created by KiCad (PCBNEW 7.0.2) date 2023-04-27 15:04:23*
%MOMM*%
%LPD*%
G01*
G04 APERTURE LIST*
%ADD10C,0.100000*%
%ADD11C,0.150000*%
%ADD12C,0.120000*%
%TA.AperFunction,Profile*%
%ADD13C,0.050000*%
%TD*%
G04 APERTURE END LIST*
D10*
X202400000Y-46000000D02*
X215600000Y-46000000D01*
X228562050Y-46000000D02*
G75*
G03*
X228562050Y-46000000I-1562050J0D01*
G01*
X192612452Y-46000000D02*
G75*
G03*
X192612452Y-46000000I-1612452J0D01*
G01*
X202400000Y-39400000D02*
X215600000Y-52600000D01*
X231000000Y-34000000D02*
X232100000Y-34000000D01*
X232500000Y-34000000D02*
X233600000Y-34000000D01*
X234000000Y-34000000D02*
X235100000Y-34000000D01*
X235500000Y-34000000D02*
X236000000Y-34000000D01*
X236000000Y-34000000D02*
X236000000Y-35100000D01*
X236000000Y-35500000D02*
X236000000Y-36600000D01*
X236000000Y-37000000D02*
X236000000Y-38100000D01*
X236000000Y-38500000D02*
X236000000Y-39600000D01*
X236000000Y-40000000D02*
X236000000Y-41100000D01*
X236000000Y-41500000D02*
X236000000Y-42600000D01*
X236000000Y-43000000D02*
X236000000Y-44100000D01*
X236000000Y-44500000D02*
X236000000Y-45600000D01*
X236000000Y-46000000D02*
X236000000Y-47100000D01*
X236000000Y-47500000D02*
X236000000Y-48600000D01*
X236000000Y-49000000D02*
X236000000Y-50100000D01*
X236000000Y-50500000D02*
X236000000Y-51600000D01*
X236000000Y-52000000D02*
X236000000Y-53100000D01*
X236000000Y-53500000D02*
X236000000Y-54600000D01*
X236000000Y-55000000D02*
X236000000Y-56100000D01*
X236000000Y-56500000D02*
X236000000Y-57600000D01*
X236000000Y-58000000D02*
X236000000Y-59100000D01*
X236000000Y-59500000D02*
X236000000Y-60600000D01*
X236000000Y-61000000D02*
X236000000Y-62100000D01*
X236000000Y-62500000D02*
X236000000Y-63600000D01*
X236000000Y-64000000D02*
X236000000Y-65100000D01*
X236000000Y-65500000D02*
X236000000Y-66600000D01*
X236000000Y-67000000D02*
X236000000Y-68000000D01*
X236000000Y-68000000D02*
X234900000Y-68000000D01*
X234500000Y-68000000D02*
X233400000Y-68000000D01*
X233000000Y-68000000D02*
X231900000Y-68000000D01*
X231500000Y-68000000D02*
X231000000Y-68000000D01*
X231000000Y-68000000D02*
X231000000Y-66900000D01*
X231000000Y-66500000D02*
X231000000Y-65400000D01*
X231000000Y-65000000D02*
X231000000Y-63900000D01*
X231000000Y-63500000D02*
X231000000Y-62400000D01*
X231000000Y-62000000D02*
X231000000Y-60900000D01*
X231000000Y-60500000D02*
X231000000Y-59400000D01*
X231000000Y-59000000D02*
X231000000Y-57900000D01*
X231000000Y-57500000D02*
X231000000Y-56400000D01*
X231000000Y-56000000D02*
X231000000Y-54900000D01*
X231000000Y-54500000D02*
X231000000Y-53400000D01*
X231000000Y-53000000D02*
X231000000Y-51900000D01*
X231000000Y-51500000D02*
X231000000Y-50400000D01*
X231000000Y-50000000D02*
X231000000Y-48900000D01*
X231000000Y-48500000D02*
X231000000Y-47400000D01*
X231000000Y-47000000D02*
X231000000Y-45900000D01*
X231000000Y-45500000D02*
X231000000Y-44400000D01*
X231000000Y-44000000D02*
X231000000Y-42900000D01*
X231000000Y-42500000D02*
X231000000Y-41400000D01*
X231000000Y-41000000D02*
X231000000Y-39900000D01*
X231000000Y-39500000D02*
X231000000Y-38400000D01*
X231000000Y-38000000D02*
X231000000Y-36900000D01*
X231000000Y-36500000D02*
X231000000Y-35400000D01*
X231000000Y-35000000D02*
X231000000Y-34000000D01*
X189600000Y-56000000D02*
X194400000Y-56000000D01*
X194400000Y-57600000D01*
X189600000Y-57600000D01*
X189600000Y-56000000D01*
X223600000Y-34400000D02*
X228400000Y-34400000D01*
X228400000Y-36000000D01*
X223600000Y-36000000D01*
X223600000Y-34400000D01*
X222000000Y-32000000D02*
X223100000Y-32000000D01*
X223500000Y-32000000D02*
X224600000Y-32000000D01*
X225000000Y-32000000D02*
X226100000Y-32000000D01*
X226500000Y-32000000D02*
X227600000Y-32000000D01*
X228000000Y-32000000D02*
X229100000Y-32000000D01*
X229500000Y-32000000D02*
X230000000Y-32000000D01*
X230000000Y-32000000D02*
X230000000Y-33100000D01*
X230000000Y-33500000D02*
X230000000Y-34600000D01*
X230000000Y-35000000D02*
X230000000Y-36100000D01*
X230000000Y-36500000D02*
X230000000Y-37600000D01*
X230000000Y-38000000D02*
X230000000Y-39100000D01*
X230000000Y-39500000D02*
X230000000Y-40600000D01*
X230000000Y-41000000D02*
X230000000Y-42100000D01*
X230000000Y-42500000D02*
X230000000Y-43600000D01*
X230000000Y-44000000D02*
X230000000Y-45100000D01*
X230000000Y-45500000D02*
X230000000Y-46600000D01*
X230000000Y-47000000D02*
X230000000Y-48100000D01*
X230000000Y-48500000D02*
X230000000Y-49600000D01*
X230000000Y-50000000D02*
X230000000Y-51100000D01*
X230000000Y-51500000D02*
X230000000Y-52600000D01*
X230000000Y-53000000D02*
X230000000Y-54100000D01*
X230000000Y-54500000D02*
X230000000Y-55600000D01*
X230000000Y-56000000D02*
X230000000Y-57100000D01*
X230000000Y-57500000D02*
X230000000Y-58600000D01*
X230000000Y-59000000D02*
X230000000Y-59200000D01*
X230000000Y-59200000D02*
X228900000Y-59200000D01*
X228500000Y-59200000D02*
X227400000Y-59200000D01*
X227000000Y-59200000D02*
X225900000Y-59200000D01*
X225500000Y-59200000D02*
X224400000Y-59200000D01*
X224000000Y-59200000D02*
X222900000Y-59200000D01*
X222500000Y-59200000D02*
X222000000Y-59200000D01*
X222000000Y-59200000D02*
X222000000Y-58100000D01*
X222000000Y-57700000D02*
X222000000Y-56600000D01*
X222000000Y-56200000D02*
X222000000Y-55100000D01*
X222000000Y-54700000D02*
X222000000Y-53600000D01*
X222000000Y-53200000D02*
X222000000Y-52100000D01*
X222000000Y-51700000D02*
X222000000Y-50600000D01*
X222000000Y-50200000D02*
X222000000Y-49100000D01*
X222000000Y-48700000D02*
X222000000Y-47600000D01*
X222000000Y-47200000D02*
X222000000Y-46100000D01*
X222000000Y-45700000D02*
X222000000Y-44600000D01*
X222000000Y-44200000D02*
X222000000Y-43100000D01*
X222000000Y-42700000D02*
X222000000Y-41600000D01*
X222000000Y-41200000D02*
X222000000Y-40100000D01*
X222000000Y-39700000D02*
X222000000Y-38600000D01*
X222000000Y-38200000D02*
X222000000Y-37100000D01*
X222000000Y-36700000D02*
X222000000Y-35600000D01*
X222000000Y-35200000D02*
X222000000Y-34100000D01*
X222000000Y-33700000D02*
X222000000Y-32600000D01*
X222000000Y-32200000D02*
X222000000Y-32000000D01*
X215600000Y-46000000D02*
X215508545Y-47094914D01*
X215430277Y-47487120D02*
X215094467Y-48533271D01*
X214929840Y-48897756D02*
X214366945Y-49841340D01*
X214124425Y-50159357D02*
X213363396Y-50951845D01*
X213055457Y-51207040D02*
X212135433Y-51807671D01*
X211777912Y-51986919D02*
X210746213Y-52364804D01*
X210357497Y-52458885D02*
X209267182Y-52594589D01*
X208867264Y-52598665D02*
X207774410Y-52485208D01*
X207383858Y-52399069D02*
X206344672Y-52042287D01*
X205983572Y-51870363D02*
X205051499Y-51288605D01*
X204738423Y-51039738D02*
X203961402Y-50262925D01*
X203712452Y-49949916D02*
X203130444Y-49017999D01*
X202958423Y-48656945D02*
X202601363Y-47617854D01*
X202515119Y-47227325D02*
X202401370Y-46134502D01*
X202405338Y-45734583D02*
X202540751Y-44644232D01*
X202634727Y-44255491D02*
X203012337Y-43223690D01*
X203191488Y-42866121D02*
X203791874Y-41945937D01*
X204046986Y-41637929D02*
X204839270Y-40876687D01*
X205157222Y-40634083D02*
X206100656Y-40070935D01*
X206465096Y-39906210D02*
X207511158Y-39570120D01*
X207903342Y-39491748D02*
X208998232Y-39400000D01*
X209397991Y-39412010D02*
X210485398Y-39569324D01*
X210872170Y-39671099D02*
X211896168Y-40069383D01*
X212250062Y-40255690D02*
X213157985Y-40874460D01*
X213460800Y-41135715D02*
X214205953Y-41943148D01*
X214442115Y-42265916D02*
X214986175Y-43220484D01*
X215143536Y-43588163D02*
X215458521Y-44640773D01*
X215528990Y-45034454D02*
X215600000Y-46000000D01*
X188000000Y-32000000D02*
X189100000Y-32000000D01*
X189500000Y-32000000D02*
X190600000Y-32000000D01*
X191000000Y-32000000D02*
X192100000Y-32000000D01*
X192500000Y-32000000D02*
X193600000Y-32000000D01*
X194000000Y-32000000D02*
X195100000Y-32000000D01*
X195500000Y-32000000D02*
X196000000Y-32000000D01*
X196000000Y-32000000D02*
X196000000Y-33100000D01*
X196000000Y-33500000D02*
X196000000Y-34600000D01*
X196000000Y-35000000D02*
X196000000Y-36100000D01*
X196000000Y-36500000D02*
X196000000Y-37600000D01*
X196000000Y-38000000D02*
X196000000Y-39100000D01*
X196000000Y-39500000D02*
X196000000Y-40600000D01*
X196000000Y-41000000D02*
X196000000Y-42100000D01*
X196000000Y-42500000D02*
X196000000Y-43600000D01*
X196000000Y-44000000D02*
X196000000Y-45100000D01*
X196000000Y-45500000D02*
X196000000Y-46600000D01*
X196000000Y-47000000D02*
X196000000Y-48100000D01*
X196000000Y-48500000D02*
X196000000Y-49600000D01*
X196000000Y-50000000D02*
X196000000Y-51100000D01*
X196000000Y-51500000D02*
X196000000Y-52600000D01*
X196000000Y-53000000D02*
X196000000Y-54100000D01*
X196000000Y-54500000D02*
X196000000Y-55600000D01*
X196000000Y-56000000D02*
X196000000Y-57100000D01*
X196000000Y-57500000D02*
X196000000Y-58600000D01*
X196000000Y-59000000D02*
X196000000Y-59200000D01*
X196000000Y-59200000D02*
X194900000Y-59200000D01*
X194500000Y-59200000D02*
X193400000Y-59200000D01*
X193000000Y-59200000D02*
X191900000Y-59200000D01*
X191500000Y-59200000D02*
X190400000Y-59200000D01*
X190000000Y-59200000D02*
X188900000Y-59200000D01*
X188500000Y-59200000D02*
X188000000Y-59200000D01*
X188000000Y-59200000D02*
X188000000Y-58100000D01*
X188000000Y-57700000D02*
X188000000Y-56600000D01*
X188000000Y-56200000D02*
X188000000Y-55100000D01*
X188000000Y-54700000D02*
X188000000Y-53600000D01*
X188000000Y-53200000D02*
X188000000Y-52100000D01*
X188000000Y-51700000D02*
X188000000Y-50600000D01*
X188000000Y-50200000D02*
X188000000Y-49100000D01*
X188000000Y-48700000D02*
X188000000Y-47600000D01*
X188000000Y-47200000D02*
X188000000Y-46100000D01*
X188000000Y-45700000D02*
X188000000Y-44600000D01*
X188000000Y-44200000D02*
X188000000Y-43100000D01*
X188000000Y-42700000D02*
X188000000Y-41600000D01*
X188000000Y-41200000D02*
X188000000Y-40100000D01*
X188000000Y-39700000D02*
X188000000Y-38600000D01*
X188000000Y-38200000D02*
X188000000Y-37100000D01*
X188000000Y-36700000D02*
X188000000Y-35600000D01*
X188000000Y-35200000D02*
X188000000Y-34100000D01*
X188000000Y-33700000D02*
X188000000Y-32600000D01*
X188000000Y-32200000D02*
X188000000Y-32000000D01*
X209000000Y-52603029D02*
X209000000Y-39396971D01*
X223600000Y-56000000D02*
X228400000Y-56000000D01*
X228400000Y-57600000D01*
X223600000Y-57600000D01*
X223600000Y-56000000D01*
X189600000Y-34400000D02*
X194400000Y-34400000D01*
X194400000Y-36000000D01*
X189600000Y-36000000D01*
X189600000Y-34400000D01*
X182000000Y-34000000D02*
X183100000Y-34000000D01*
X183500000Y-34000000D02*
X184600000Y-34000000D01*
X185000000Y-34000000D02*
X186100000Y-34000000D01*
X186500000Y-34000000D02*
X187000000Y-34000000D01*
X187000000Y-34000000D02*
X187000000Y-35100000D01*
X187000000Y-35500000D02*
X187000000Y-36600000D01*
X187000000Y-37000000D02*
X187000000Y-38100000D01*
X187000000Y-38500000D02*
X187000000Y-39600000D01*
X187000000Y-40000000D02*
X187000000Y-41100000D01*
X187000000Y-41500000D02*
X187000000Y-42600000D01*
X187000000Y-43000000D02*
X187000000Y-44100000D01*
X187000000Y-44500000D02*
X187000000Y-45600000D01*
X187000000Y-46000000D02*
X187000000Y-47100000D01*
X187000000Y-47500000D02*
X187000000Y-48600000D01*
X187000000Y-49000000D02*
X187000000Y-50100000D01*
X187000000Y-50500000D02*
X187000000Y-51600000D01*
X187000000Y-52000000D02*
X187000000Y-53100000D01*
X187000000Y-53500000D02*
X187000000Y-54600000D01*
X187000000Y-55000000D02*
X187000000Y-56100000D01*
X187000000Y-56500000D02*
X187000000Y-57600000D01*
X187000000Y-58000000D02*
X187000000Y-59100000D01*
X187000000Y-59500000D02*
X187000000Y-60600000D01*
X187000000Y-61000000D02*
X187000000Y-62100000D01*
X187000000Y-62500000D02*
X187000000Y-63600000D01*
X187000000Y-64000000D02*
X187000000Y-65100000D01*
X187000000Y-65500000D02*
X187000000Y-66600000D01*
X187000000Y-67000000D02*
X187000000Y-68000000D01*
X187000000Y-68000000D02*
X185900000Y-68000000D01*
X185500000Y-68000000D02*
X184400000Y-68000000D01*
X184000000Y-68000000D02*
X182900000Y-68000000D01*
X182500000Y-68000000D02*
X182000000Y-68000000D01*
X182000000Y-68000000D02*
X182000000Y-66900000D01*
X182000000Y-66500000D02*
X182000000Y-65400000D01*
X182000000Y-65000000D02*
X182000000Y-63900000D01*
X182000000Y-63500000D02*
X182000000Y-62400000D01*
X182000000Y-62000000D02*
X182000000Y-60900000D01*
X182000000Y-60500000D02*
X182000000Y-59400000D01*
X182000000Y-59000000D02*
X182000000Y-57900000D01*
X182000000Y-57500000D02*
X182000000Y-56400000D01*
X182000000Y-56000000D02*
X182000000Y-54900000D01*
X182000000Y-54500000D02*
X182000000Y-53400000D01*
X182000000Y-53000000D02*
X182000000Y-51900000D01*
X182000000Y-51500000D02*
X182000000Y-50400000D01*
X182000000Y-50000000D02*
X182000000Y-48900000D01*
X182000000Y-48500000D02*
X182000000Y-47400000D01*
X182000000Y-47000000D02*
X182000000Y-45900000D01*
X182000000Y-45500000D02*
X182000000Y-44400000D01*
X182000000Y-44000000D02*
X182000000Y-42900000D01*
X182000000Y-42500000D02*
X182000000Y-41400000D01*
X182000000Y-41000000D02*
X182000000Y-39900000D01*
X182000000Y-39500000D02*
X182000000Y-38400000D01*
X182000000Y-38000000D02*
X182000000Y-36900000D01*
X182000000Y-36500000D02*
X182000000Y-35400000D01*
X182000000Y-35000000D02*
X182000000Y-34000000D01*
X202400000Y-52600000D02*
X215600000Y-39400000D01*
X179000000Y-57400000D02*
X180100000Y-57400000D01*
X180500000Y-57400000D02*
X181600000Y-57400000D01*
X182000000Y-57400000D02*
X183100000Y-57400000D01*
X183500000Y-57400000D02*
X184600000Y-57400000D01*
X185000000Y-57400000D02*
X186100000Y-57400000D01*
X186500000Y-57400000D02*
X187600000Y-57400000D01*
X188000000Y-57400000D02*
X189100000Y-57400000D01*
X189500000Y-57400000D02*
X190600000Y-57400000D01*
X191000000Y-57400000D02*
X192100000Y-57400000D01*
X192500000Y-57400000D02*
X193600000Y-57400000D01*
X194000000Y-57400000D02*
X195100000Y-57400000D01*
X195500000Y-57400000D02*
X196600000Y-57400000D01*
X197000000Y-57400000D02*
X198100000Y-57400000D01*
X198500000Y-57400000D02*
X199600000Y-57400000D01*
X200000000Y-57400000D02*
X201100000Y-57400000D01*
X201500000Y-57400000D02*
X202600000Y-57400000D01*
X203000000Y-57400000D02*
X204100000Y-57400000D01*
X204500000Y-57400000D02*
X205600000Y-57400000D01*
X206000000Y-57400000D02*
X207100000Y-57400000D01*
X207500000Y-57400000D02*
X208600000Y-57400000D01*
X209000000Y-57400000D02*
X210100000Y-57400000D01*
X210500000Y-57400000D02*
X211600000Y-57400000D01*
X212000000Y-57400000D02*
X213100000Y-57400000D01*
X213500000Y-57400000D02*
X214600000Y-57400000D01*
X215000000Y-57400000D02*
X216100000Y-57400000D01*
X216500000Y-57400000D02*
X217600000Y-57400000D01*
X218000000Y-57400000D02*
X219100000Y-57400000D01*
X219500000Y-57400000D02*
X220600000Y-57400000D01*
X221000000Y-57400000D02*
X222100000Y-57400000D01*
X222500000Y-57400000D02*
X223600000Y-57400000D01*
X224000000Y-57400000D02*
X225100000Y-57400000D01*
X225500000Y-57400000D02*
X226600000Y-57400000D01*
X227000000Y-57400000D02*
X228100000Y-57400000D01*
X228500000Y-57400000D02*
X229600000Y-57400000D01*
X230000000Y-57400000D02*
X231100000Y-57400000D01*
X231500000Y-57400000D02*
X232600000Y-57400000D01*
X233000000Y-57400000D02*
X234100000Y-57400000D01*
X234500000Y-57400000D02*
X235600000Y-57400000D01*
X236000000Y-57400000D02*
X237100000Y-57400000D01*
X237500000Y-57400000D02*
X238600000Y-57400000D01*
X239000000Y-57400000D02*
X239000000Y-57400000D01*
X239000000Y-57400000D02*
X239000000Y-58500000D01*
X239000000Y-58900000D02*
X239000000Y-60000000D01*
X239000000Y-60400000D02*
X239000000Y-61500000D01*
X239000000Y-61900000D02*
X239000000Y-63000000D01*
X239000000Y-63400000D02*
X239000000Y-64500000D01*
X239000000Y-64900000D02*
X239000000Y-66000000D01*
X239000000Y-66400000D02*
X239000000Y-67400000D01*
X239000000Y-67400000D02*
X237900000Y-67400000D01*
X237500000Y-67400000D02*
X236400000Y-67400000D01*
X236000000Y-67400000D02*
X234900000Y-67400000D01*
X234500000Y-67400000D02*
X233400000Y-67400000D01*
X233000000Y-67400000D02*
X231900000Y-67400000D01*
X231500000Y-67400000D02*
X230400000Y-67400000D01*
X230000000Y-67400000D02*
X228900000Y-67400000D01*
X228500000Y-67400000D02*
X227400000Y-67400000D01*
X227000000Y-67400000D02*
X225900000Y-67400000D01*
X225500000Y-67400000D02*
X224400000Y-67400000D01*
X224000000Y-67400000D02*
X222900000Y-67400000D01*
X222500000Y-67400000D02*
X221400000Y-67400000D01*
X221000000Y-67400000D02*
X219900000Y-67400000D01*
X219500000Y-67400000D02*
X218400000Y-67400000D01*
X218000000Y-67400000D02*
X216900000Y-67400000D01*
X216500000Y-67400000D02*
X215400000Y-67400000D01*
X215000000Y-67400000D02*
X213900000Y-67400000D01*
X213500000Y-67400000D02*
X212400000Y-67400000D01*
X212000000Y-67400000D02*
X210900000Y-67400000D01*
X210500000Y-67400000D02*
X209400000Y-67400000D01*
X209000000Y-67400000D02*
X207900000Y-67400000D01*
X207500000Y-67400000D02*
X206400000Y-67400000D01*
X206000000Y-67400000D02*
X204900000Y-67400000D01*
X204500000Y-67400000D02*
X203400000Y-67400000D01*
X203000000Y-67400000D02*
X201900000Y-67400000D01*
X201500000Y-67400000D02*
X200400000Y-67400000D01*
X200000000Y-67400000D02*
X198900000Y-67400000D01*
X198500000Y-67400000D02*
X197400000Y-67400000D01*
X197000000Y-67400000D02*
X195900000Y-67400000D01*
X195500000Y-67400000D02*
X194400000Y-67400000D01*
X194000000Y-67400000D02*
X192900000Y-67400000D01*
X192500000Y-67400000D02*
X191400000Y-67400000D01*
X191000000Y-67400000D02*
X189900000Y-67400000D01*
X189500000Y-67400000D02*
X188400000Y-67400000D01*
X188000000Y-67400000D02*
X186900000Y-67400000D01*
X186500000Y-67400000D02*
X185400000Y-67400000D01*
X185000000Y-67400000D02*
X183900000Y-67400000D01*
X183500000Y-67400000D02*
X182400000Y-67400000D01*
X182000000Y-67400000D02*
X180900000Y-67400000D01*
X180500000Y-67400000D02*
X179400000Y-67400000D01*
X179000000Y-67400000D02*
X179000000Y-67400000D01*
X179000000Y-67400000D02*
X179000000Y-66300000D01*
X179000000Y-65900000D02*
X179000000Y-64800000D01*
X179000000Y-64400000D02*
X179000000Y-63300000D01*
X179000000Y-62900000D02*
X179000000Y-61800000D01*
X179000000Y-61400000D02*
X179000000Y-60300000D01*
X179000000Y-59900000D02*
X179000000Y-58800000D01*
X179000000Y-58400000D02*
X179000000Y-57400000D01*
X217000000Y-46000000D02*
X216924494Y-47096537D01*
X216859786Y-47491226D02*
X216581205Y-48554470D01*
X216444060Y-48930180D02*
X215972170Y-49922860D01*
X215767395Y-50266421D02*
X215118737Y-51153741D01*
X214853510Y-51453110D02*
X214050821Y-52203966D01*
X213734440Y-52448648D02*
X212805857Y-53036721D01*
X212449412Y-53218140D02*
X211427485Y-53622815D01*
X211043470Y-53734612D02*
X209964022Y-53941703D01*
X209565897Y-53979959D02*
X208466766Y-53982209D01*
X208068488Y-53945582D02*
X206988201Y-53742910D01*
X206603731Y-53632686D02*
X205580158Y-53232197D01*
X205222972Y-53052238D02*
X204291991Y-52467971D01*
X203974611Y-52224585D02*
X203168855Y-51477020D01*
X202902406Y-51178740D02*
X202250121Y-50294082D01*
X202043942Y-49951362D02*
X201567993Y-48960621D01*
X201429312Y-48585476D02*
X201146382Y-47523381D01*
X201080060Y-47128960D02*
X201000066Y-46032741D01*
X201008428Y-45632870D02*
X201134176Y-44540953D01*
X201216928Y-44149649D02*
X201544009Y-43100310D01*
X201698251Y-42731289D02*
X202215199Y-41761310D01*
X202435525Y-41427509D02*
X203124220Y-40570891D01*
X203402905Y-40284010D02*
X204239207Y-39570781D01*
X204566483Y-39340875D02*
X205521075Y-38796036D01*
X205885471Y-38631166D02*
X206924891Y-38273815D01*
X207313633Y-38179759D02*
X208401448Y-38022422D01*
X208800908Y-38002477D02*
X209898985Y-38050671D01*
X210295162Y-38105536D02*
X211365010Y-38357570D01*
X211744016Y-38485322D02*
X212748133Y-38932362D01*
X213096683Y-39128524D02*
X213999871Y-39754899D01*
X214305748Y-40012593D02*
X215076348Y-40796347D01*
X215328828Y-41106542D02*
X215939827Y-42020202D01*
X216130061Y-42372022D02*
X216560042Y-43383561D01*
X216681362Y-43764676D02*
X216915253Y-44838635D01*
X216963405Y-45235685D02*
X217000000Y-46000000D01*
D11*
X185542857Y-30277619D02*
X185780952Y-31277619D01*
X185780952Y-31277619D02*
X185971428Y-30563333D01*
X185971428Y-30563333D02*
X186161904Y-31277619D01*
X186161904Y-31277619D02*
X186400000Y-30277619D01*
X186780952Y-31277619D02*
X186780952Y-30277619D01*
X187257142Y-31277619D02*
X187257142Y-30277619D01*
X187257142Y-30277619D02*
X187828570Y-31277619D01*
X187828570Y-31277619D02*
X187828570Y-30277619D01*
X188304761Y-31277619D02*
X188304761Y-30277619D01*
X188304761Y-30277619D02*
X188542856Y-30277619D01*
X188542856Y-30277619D02*
X188685713Y-30325238D01*
X188685713Y-30325238D02*
X188780951Y-30420476D01*
X188780951Y-30420476D02*
X188828570Y-30515714D01*
X188828570Y-30515714D02*
X188876189Y-30706190D01*
X188876189Y-30706190D02*
X188876189Y-30849047D01*
X188876189Y-30849047D02*
X188828570Y-31039523D01*
X188828570Y-31039523D02*
X188780951Y-31134761D01*
X188780951Y-31134761D02*
X188685713Y-31230000D01*
X188685713Y-31230000D02*
X188542856Y-31277619D01*
X188542856Y-31277619D02*
X188304761Y-31277619D01*
X190399999Y-30753809D02*
X190066666Y-30753809D01*
X190066666Y-31277619D02*
X190066666Y-30277619D01*
X190066666Y-30277619D02*
X190542856Y-30277619D01*
X190923809Y-31277619D02*
X190923809Y-30277619D01*
X191876189Y-31277619D02*
X191399999Y-31277619D01*
X191399999Y-31277619D02*
X191399999Y-30277619D01*
X192066666Y-30277619D02*
X192638094Y-30277619D01*
X192352380Y-31277619D02*
X192352380Y-30277619D01*
X192971428Y-30753809D02*
X193304761Y-30753809D01*
X193447618Y-31277619D02*
X192971428Y-31277619D01*
X192971428Y-31277619D02*
X192971428Y-30277619D01*
X192971428Y-30277619D02*
X193447618Y-30277619D01*
X194447618Y-31277619D02*
X194114285Y-30801428D01*
X193876190Y-31277619D02*
X193876190Y-30277619D01*
X193876190Y-30277619D02*
X194257142Y-30277619D01*
X194257142Y-30277619D02*
X194352380Y-30325238D01*
X194352380Y-30325238D02*
X194399999Y-30372857D01*
X194399999Y-30372857D02*
X194447618Y-30468095D01*
X194447618Y-30468095D02*
X194447618Y-30610952D01*
X194447618Y-30610952D02*
X194399999Y-30706190D01*
X194399999Y-30706190D02*
X194352380Y-30753809D01*
X194352380Y-30753809D02*
X194257142Y-30801428D01*
X194257142Y-30801428D02*
X193876190Y-30801428D01*
X195590476Y-31230000D02*
X195733333Y-31277619D01*
X195733333Y-31277619D02*
X195971428Y-31277619D01*
X195971428Y-31277619D02*
X196066666Y-31230000D01*
X196066666Y-31230000D02*
X196114285Y-31182380D01*
X196114285Y-31182380D02*
X196161904Y-31087142D01*
X196161904Y-31087142D02*
X196161904Y-30991904D01*
X196161904Y-30991904D02*
X196114285Y-30896666D01*
X196114285Y-30896666D02*
X196066666Y-30849047D01*
X196066666Y-30849047D02*
X195971428Y-30801428D01*
X195971428Y-30801428D02*
X195780952Y-30753809D01*
X195780952Y-30753809D02*
X195685714Y-30706190D01*
X195685714Y-30706190D02*
X195638095Y-30658571D01*
X195638095Y-30658571D02*
X195590476Y-30563333D01*
X195590476Y-30563333D02*
X195590476Y-30468095D01*
X195590476Y-30468095D02*
X195638095Y-30372857D01*
X195638095Y-30372857D02*
X195685714Y-30325238D01*
X195685714Y-30325238D02*
X195780952Y-30277619D01*
X195780952Y-30277619D02*
X196019047Y-30277619D01*
X196019047Y-30277619D02*
X196161904Y-30325238D01*
X196590476Y-31277619D02*
X196590476Y-30277619D01*
X196590476Y-30277619D02*
X196971428Y-30277619D01*
X196971428Y-30277619D02*
X197066666Y-30325238D01*
X197066666Y-30325238D02*
X197114285Y-30372857D01*
X197114285Y-30372857D02*
X197161904Y-30468095D01*
X197161904Y-30468095D02*
X197161904Y-30610952D01*
X197161904Y-30610952D02*
X197114285Y-30706190D01*
X197114285Y-30706190D02*
X197066666Y-30753809D01*
X197066666Y-30753809D02*
X196971428Y-30801428D01*
X196971428Y-30801428D02*
X196590476Y-30801428D01*
X197542857Y-30991904D02*
X198019047Y-30991904D01*
X197447619Y-31277619D02*
X197780952Y-30277619D01*
X197780952Y-30277619D02*
X198114285Y-31277619D01*
X199019047Y-31182380D02*
X198971428Y-31230000D01*
X198971428Y-31230000D02*
X198828571Y-31277619D01*
X198828571Y-31277619D02*
X198733333Y-31277619D01*
X198733333Y-31277619D02*
X198590476Y-31230000D01*
X198590476Y-31230000D02*
X198495238Y-31134761D01*
X198495238Y-31134761D02*
X198447619Y-31039523D01*
X198447619Y-31039523D02*
X198400000Y-30849047D01*
X198400000Y-30849047D02*
X198400000Y-30706190D01*
X198400000Y-30706190D02*
X198447619Y-30515714D01*
X198447619Y-30515714D02*
X198495238Y-30420476D01*
X198495238Y-30420476D02*
X198590476Y-30325238D01*
X198590476Y-30325238D02*
X198733333Y-30277619D01*
X198733333Y-30277619D02*
X198828571Y-30277619D01*
X198828571Y-30277619D02*
X198971428Y-30325238D01*
X198971428Y-30325238D02*
X199019047Y-30372857D01*
X199447619Y-30753809D02*
X199780952Y-30753809D01*
X199923809Y-31277619D02*
X199447619Y-31277619D01*
X199447619Y-31277619D02*
X199447619Y-30277619D01*
X199447619Y-30277619D02*
X199923809Y-30277619D01*
X200923809Y-31277619D02*
X200590476Y-30801428D01*
X200352381Y-31277619D02*
X200352381Y-30277619D01*
X200352381Y-30277619D02*
X200733333Y-30277619D01*
X200733333Y-30277619D02*
X200828571Y-30325238D01*
X200828571Y-30325238D02*
X200876190Y-30372857D01*
X200876190Y-30372857D02*
X200923809Y-30468095D01*
X200923809Y-30468095D02*
X200923809Y-30610952D01*
X200923809Y-30610952D02*
X200876190Y-30706190D01*
X200876190Y-30706190D02*
X200828571Y-30753809D01*
X200828571Y-30753809D02*
X200733333Y-30801428D01*
X200733333Y-30801428D02*
X200352381Y-30801428D01*
X205342857Y-30877619D02*
X205580952Y-31877619D01*
X205580952Y-31877619D02*
X205771428Y-31163333D01*
X205771428Y-31163333D02*
X205961904Y-31877619D01*
X205961904Y-31877619D02*
X206200000Y-30877619D01*
X206580952Y-31877619D02*
X206580952Y-30877619D01*
X207057142Y-31877619D02*
X207057142Y-30877619D01*
X207057142Y-30877619D02*
X207628570Y-31877619D01*
X207628570Y-31877619D02*
X207628570Y-30877619D01*
X208104761Y-31877619D02*
X208104761Y-30877619D01*
X208104761Y-30877619D02*
X208342856Y-30877619D01*
X208342856Y-30877619D02*
X208485713Y-30925238D01*
X208485713Y-30925238D02*
X208580951Y-31020476D01*
X208580951Y-31020476D02*
X208628570Y-31115714D01*
X208628570Y-31115714D02*
X208676189Y-31306190D01*
X208676189Y-31306190D02*
X208676189Y-31449047D01*
X208676189Y-31449047D02*
X208628570Y-31639523D01*
X208628570Y-31639523D02*
X208580951Y-31734761D01*
X208580951Y-31734761D02*
X208485713Y-31830000D01*
X208485713Y-31830000D02*
X208342856Y-31877619D01*
X208342856Y-31877619D02*
X208104761Y-31877619D01*
X210199999Y-31353809D02*
X209866666Y-31353809D01*
X209866666Y-31877619D02*
X209866666Y-30877619D01*
X209866666Y-30877619D02*
X210342856Y-30877619D01*
X210723809Y-31877619D02*
X210723809Y-30877619D01*
X211676189Y-31877619D02*
X211199999Y-31877619D01*
X211199999Y-31877619D02*
X211199999Y-30877619D01*
X211866666Y-30877619D02*
X212438094Y-30877619D01*
X212152380Y-31877619D02*
X212152380Y-30877619D01*
X212771428Y-31353809D02*
X213104761Y-31353809D01*
X213247618Y-31877619D02*
X212771428Y-31877619D01*
X212771428Y-31877619D02*
X212771428Y-30877619D01*
X212771428Y-30877619D02*
X213247618Y-30877619D01*
X214247618Y-31877619D02*
X213914285Y-31401428D01*
X213676190Y-31877619D02*
X213676190Y-30877619D01*
X213676190Y-30877619D02*
X214057142Y-30877619D01*
X214057142Y-30877619D02*
X214152380Y-30925238D01*
X214152380Y-30925238D02*
X214199999Y-30972857D01*
X214199999Y-30972857D02*
X214247618Y-31068095D01*
X214247618Y-31068095D02*
X214247618Y-31210952D01*
X214247618Y-31210952D02*
X214199999Y-31306190D01*
X214199999Y-31306190D02*
X214152380Y-31353809D01*
X214152380Y-31353809D02*
X214057142Y-31401428D01*
X214057142Y-31401428D02*
X213676190Y-31401428D01*
X228638095Y-35877619D02*
X228638095Y-34877619D01*
X228638095Y-34877619D02*
X229019047Y-34877619D01*
X229019047Y-34877619D02*
X229114285Y-34925238D01*
X229114285Y-34925238D02*
X229161904Y-34972857D01*
X229161904Y-34972857D02*
X229209523Y-35068095D01*
X229209523Y-35068095D02*
X229209523Y-35210952D01*
X229209523Y-35210952D02*
X229161904Y-35306190D01*
X229161904Y-35306190D02*
X229114285Y-35353809D01*
X229114285Y-35353809D02*
X229019047Y-35401428D01*
X229019047Y-35401428D02*
X228638095Y-35401428D01*
X230209523Y-35782380D02*
X230161904Y-35830000D01*
X230161904Y-35830000D02*
X230019047Y-35877619D01*
X230019047Y-35877619D02*
X229923809Y-35877619D01*
X229923809Y-35877619D02*
X229780952Y-35830000D01*
X229780952Y-35830000D02*
X229685714Y-35734761D01*
X229685714Y-35734761D02*
X229638095Y-35639523D01*
X229638095Y-35639523D02*
X229590476Y-35449047D01*
X229590476Y-35449047D02*
X229590476Y-35306190D01*
X229590476Y-35306190D02*
X229638095Y-35115714D01*
X229638095Y-35115714D02*
X229685714Y-35020476D01*
X229685714Y-35020476D02*
X229780952Y-34925238D01*
X229780952Y-34925238D02*
X229923809Y-34877619D01*
X229923809Y-34877619D02*
X230019047Y-34877619D01*
X230019047Y-34877619D02*
X230161904Y-34925238D01*
X230161904Y-34925238D02*
X230209523Y-34972857D01*
X230971428Y-35353809D02*
X231114285Y-35401428D01*
X231114285Y-35401428D02*
X231161904Y-35449047D01*
X231161904Y-35449047D02*
X231209523Y-35544285D01*
X231209523Y-35544285D02*
X231209523Y-35687142D01*
X231209523Y-35687142D02*
X231161904Y-35782380D01*
X231161904Y-35782380D02*
X231114285Y-35830000D01*
X231114285Y-35830000D02*
X231019047Y-35877619D01*
X231019047Y-35877619D02*
X230638095Y-35877619D01*
X230638095Y-35877619D02*
X230638095Y-34877619D01*
X230638095Y-34877619D02*
X230971428Y-34877619D01*
X230971428Y-34877619D02*
X231066666Y-34925238D01*
X231066666Y-34925238D02*
X231114285Y-34972857D01*
X231114285Y-34972857D02*
X231161904Y-35068095D01*
X231161904Y-35068095D02*
X231161904Y-35163333D01*
X231161904Y-35163333D02*
X231114285Y-35258571D01*
X231114285Y-35258571D02*
X231066666Y-35306190D01*
X231066666Y-35306190D02*
X230971428Y-35353809D01*
X230971428Y-35353809D02*
X230638095Y-35353809D01*
X232352381Y-35830000D02*
X232495238Y-35877619D01*
X232495238Y-35877619D02*
X232733333Y-35877619D01*
X232733333Y-35877619D02*
X232828571Y-35830000D01*
X232828571Y-35830000D02*
X232876190Y-35782380D01*
X232876190Y-35782380D02*
X232923809Y-35687142D01*
X232923809Y-35687142D02*
X232923809Y-35591904D01*
X232923809Y-35591904D02*
X232876190Y-35496666D01*
X232876190Y-35496666D02*
X232828571Y-35449047D01*
X232828571Y-35449047D02*
X232733333Y-35401428D01*
X232733333Y-35401428D02*
X232542857Y-35353809D01*
X232542857Y-35353809D02*
X232447619Y-35306190D01*
X232447619Y-35306190D02*
X232400000Y-35258571D01*
X232400000Y-35258571D02*
X232352381Y-35163333D01*
X232352381Y-35163333D02*
X232352381Y-35068095D01*
X232352381Y-35068095D02*
X232400000Y-34972857D01*
X232400000Y-34972857D02*
X232447619Y-34925238D01*
X232447619Y-34925238D02*
X232542857Y-34877619D01*
X232542857Y-34877619D02*
X232780952Y-34877619D01*
X232780952Y-34877619D02*
X232923809Y-34925238D01*
X233828571Y-35877619D02*
X233352381Y-35877619D01*
X233352381Y-35877619D02*
X233352381Y-34877619D01*
X234352381Y-34877619D02*
X234542857Y-34877619D01*
X234542857Y-34877619D02*
X234638095Y-34925238D01*
X234638095Y-34925238D02*
X234733333Y-35020476D01*
X234733333Y-35020476D02*
X234780952Y-35210952D01*
X234780952Y-35210952D02*
X234780952Y-35544285D01*
X234780952Y-35544285D02*
X234733333Y-35734761D01*
X234733333Y-35734761D02*
X234638095Y-35830000D01*
X234638095Y-35830000D02*
X234542857Y-35877619D01*
X234542857Y-35877619D02*
X234352381Y-35877619D01*
X234352381Y-35877619D02*
X234257143Y-35830000D01*
X234257143Y-35830000D02*
X234161905Y-35734761D01*
X234161905Y-35734761D02*
X234114286Y-35544285D01*
X234114286Y-35544285D02*
X234114286Y-35210952D01*
X234114286Y-35210952D02*
X234161905Y-35020476D01*
X234161905Y-35020476D02*
X234257143Y-34925238D01*
X234257143Y-34925238D02*
X234352381Y-34877619D01*
X235066667Y-34877619D02*
X235638095Y-34877619D01*
X235352381Y-35877619D02*
X235352381Y-34877619D01*
X227238095Y-44315570D02*
X227238095Y-43315570D01*
X227238095Y-43315570D02*
X227571428Y-44029855D01*
X227571428Y-44029855D02*
X227904761Y-43315570D01*
X227904761Y-43315570D02*
X227904761Y-44315570D01*
X228571428Y-43315570D02*
X228761904Y-43315570D01*
X228761904Y-43315570D02*
X228857142Y-43363189D01*
X228857142Y-43363189D02*
X228952380Y-43458427D01*
X228952380Y-43458427D02*
X228999999Y-43648903D01*
X228999999Y-43648903D02*
X228999999Y-43982236D01*
X228999999Y-43982236D02*
X228952380Y-44172712D01*
X228952380Y-44172712D02*
X228857142Y-44267951D01*
X228857142Y-44267951D02*
X228761904Y-44315570D01*
X228761904Y-44315570D02*
X228571428Y-44315570D01*
X228571428Y-44315570D02*
X228476190Y-44267951D01*
X228476190Y-44267951D02*
X228380952Y-44172712D01*
X228380952Y-44172712D02*
X228333333Y-43982236D01*
X228333333Y-43982236D02*
X228333333Y-43648903D01*
X228333333Y-43648903D02*
X228380952Y-43458427D01*
X228380952Y-43458427D02*
X228476190Y-43363189D01*
X228476190Y-43363189D02*
X228571428Y-43315570D01*
X229428571Y-43315570D02*
X229428571Y-44125093D01*
X229428571Y-44125093D02*
X229476190Y-44220331D01*
X229476190Y-44220331D02*
X229523809Y-44267951D01*
X229523809Y-44267951D02*
X229619047Y-44315570D01*
X229619047Y-44315570D02*
X229809523Y-44315570D01*
X229809523Y-44315570D02*
X229904761Y-44267951D01*
X229904761Y-44267951D02*
X229952380Y-44220331D01*
X229952380Y-44220331D02*
X229999999Y-44125093D01*
X229999999Y-44125093D02*
X229999999Y-43315570D01*
X230476190Y-44315570D02*
X230476190Y-43315570D01*
X230476190Y-43315570D02*
X231047618Y-44315570D01*
X231047618Y-44315570D02*
X231047618Y-43315570D01*
X231380952Y-43315570D02*
X231952380Y-43315570D01*
X231666666Y-44315570D02*
X231666666Y-43315570D01*
X232285714Y-44315570D02*
X232285714Y-43315570D01*
X232761904Y-44315570D02*
X232761904Y-43315570D01*
X232761904Y-43315570D02*
X233333332Y-44315570D01*
X233333332Y-44315570D02*
X233333332Y-43315570D01*
X234333332Y-43363189D02*
X234238094Y-43315570D01*
X234238094Y-43315570D02*
X234095237Y-43315570D01*
X234095237Y-43315570D02*
X233952380Y-43363189D01*
X233952380Y-43363189D02*
X233857142Y-43458427D01*
X233857142Y-43458427D02*
X233809523Y-43553665D01*
X233809523Y-43553665D02*
X233761904Y-43744141D01*
X233761904Y-43744141D02*
X233761904Y-43886998D01*
X233761904Y-43886998D02*
X233809523Y-44077474D01*
X233809523Y-44077474D02*
X233857142Y-44172712D01*
X233857142Y-44172712D02*
X233952380Y-44267951D01*
X233952380Y-44267951D02*
X234095237Y-44315570D01*
X234095237Y-44315570D02*
X234190475Y-44315570D01*
X234190475Y-44315570D02*
X234333332Y-44267951D01*
X234333332Y-44267951D02*
X234380951Y-44220331D01*
X234380951Y-44220331D02*
X234380951Y-43886998D01*
X234380951Y-43886998D02*
X234190475Y-43886998D01*
X235571428Y-44315570D02*
X235571428Y-43315570D01*
X235571428Y-43791760D02*
X236142856Y-43791760D01*
X236142856Y-44315570D02*
X236142856Y-43315570D01*
X236809523Y-43315570D02*
X236999999Y-43315570D01*
X236999999Y-43315570D02*
X237095237Y-43363189D01*
X237095237Y-43363189D02*
X237190475Y-43458427D01*
X237190475Y-43458427D02*
X237238094Y-43648903D01*
X237238094Y-43648903D02*
X237238094Y-43982236D01*
X237238094Y-43982236D02*
X237190475Y-44172712D01*
X237190475Y-44172712D02*
X237095237Y-44267951D01*
X237095237Y-44267951D02*
X236999999Y-44315570D01*
X236999999Y-44315570D02*
X236809523Y-44315570D01*
X236809523Y-44315570D02*
X236714285Y-44267951D01*
X236714285Y-44267951D02*
X236619047Y-44172712D01*
X236619047Y-44172712D02*
X236571428Y-43982236D01*
X236571428Y-43982236D02*
X236571428Y-43648903D01*
X236571428Y-43648903D02*
X236619047Y-43458427D01*
X236619047Y-43458427D02*
X236714285Y-43363189D01*
X236714285Y-43363189D02*
X236809523Y-43315570D01*
X238142856Y-44315570D02*
X237666666Y-44315570D01*
X237666666Y-44315570D02*
X237666666Y-43315570D01*
X238476190Y-43791760D02*
X238809523Y-43791760D01*
X238952380Y-44315570D02*
X238476190Y-44315570D01*
X238476190Y-44315570D02*
X238476190Y-43315570D01*
X238476190Y-43315570D02*
X238952380Y-43315570D01*
X239333333Y-44267951D02*
X239476190Y-44315570D01*
X239476190Y-44315570D02*
X239714285Y-44315570D01*
X239714285Y-44315570D02*
X239809523Y-44267951D01*
X239809523Y-44267951D02*
X239857142Y-44220331D01*
X239857142Y-44220331D02*
X239904761Y-44125093D01*
X239904761Y-44125093D02*
X239904761Y-44029855D01*
X239904761Y-44029855D02*
X239857142Y-43934617D01*
X239857142Y-43934617D02*
X239809523Y-43886998D01*
X239809523Y-43886998D02*
X239714285Y-43839379D01*
X239714285Y-43839379D02*
X239523809Y-43791760D01*
X239523809Y-43791760D02*
X239428571Y-43744141D01*
X239428571Y-43744141D02*
X239380952Y-43696522D01*
X239380952Y-43696522D02*
X239333333Y-43601284D01*
X239333333Y-43601284D02*
X239333333Y-43506046D01*
X239333333Y-43506046D02*
X239380952Y-43410808D01*
X239380952Y-43410808D02*
X239428571Y-43363189D01*
X239428571Y-43363189D02*
X239523809Y-43315570D01*
X239523809Y-43315570D02*
X239761904Y-43315570D01*
X239761904Y-43315570D02*
X239904761Y-43363189D01*
X194638095Y-57477619D02*
X194638095Y-56477619D01*
X194638095Y-56477619D02*
X195019047Y-56477619D01*
X195019047Y-56477619D02*
X195114285Y-56525238D01*
X195114285Y-56525238D02*
X195161904Y-56572857D01*
X195161904Y-56572857D02*
X195209523Y-56668095D01*
X195209523Y-56668095D02*
X195209523Y-56810952D01*
X195209523Y-56810952D02*
X195161904Y-56906190D01*
X195161904Y-56906190D02*
X195114285Y-56953809D01*
X195114285Y-56953809D02*
X195019047Y-57001428D01*
X195019047Y-57001428D02*
X194638095Y-57001428D01*
X196209523Y-57382380D02*
X196161904Y-57430000D01*
X196161904Y-57430000D02*
X196019047Y-57477619D01*
X196019047Y-57477619D02*
X195923809Y-57477619D01*
X195923809Y-57477619D02*
X195780952Y-57430000D01*
X195780952Y-57430000D02*
X195685714Y-57334761D01*
X195685714Y-57334761D02*
X195638095Y-57239523D01*
X195638095Y-57239523D02*
X195590476Y-57049047D01*
X195590476Y-57049047D02*
X195590476Y-56906190D01*
X195590476Y-56906190D02*
X195638095Y-56715714D01*
X195638095Y-56715714D02*
X195685714Y-56620476D01*
X195685714Y-56620476D02*
X195780952Y-56525238D01*
X195780952Y-56525238D02*
X195923809Y-56477619D01*
X195923809Y-56477619D02*
X196019047Y-56477619D01*
X196019047Y-56477619D02*
X196161904Y-56525238D01*
X196161904Y-56525238D02*
X196209523Y-56572857D01*
X196971428Y-56953809D02*
X197114285Y-57001428D01*
X197114285Y-57001428D02*
X197161904Y-57049047D01*
X197161904Y-57049047D02*
X197209523Y-57144285D01*
X197209523Y-57144285D02*
X197209523Y-57287142D01*
X197209523Y-57287142D02*
X197161904Y-57382380D01*
X197161904Y-57382380D02*
X197114285Y-57430000D01*
X197114285Y-57430000D02*
X197019047Y-57477619D01*
X197019047Y-57477619D02*
X196638095Y-57477619D01*
X196638095Y-57477619D02*
X196638095Y-56477619D01*
X196638095Y-56477619D02*
X196971428Y-56477619D01*
X196971428Y-56477619D02*
X197066666Y-56525238D01*
X197066666Y-56525238D02*
X197114285Y-56572857D01*
X197114285Y-56572857D02*
X197161904Y-56668095D01*
X197161904Y-56668095D02*
X197161904Y-56763333D01*
X197161904Y-56763333D02*
X197114285Y-56858571D01*
X197114285Y-56858571D02*
X197066666Y-56906190D01*
X197066666Y-56906190D02*
X196971428Y-56953809D01*
X196971428Y-56953809D02*
X196638095Y-56953809D01*
X198352381Y-57430000D02*
X198495238Y-57477619D01*
X198495238Y-57477619D02*
X198733333Y-57477619D01*
X198733333Y-57477619D02*
X198828571Y-57430000D01*
X198828571Y-57430000D02*
X198876190Y-57382380D01*
X198876190Y-57382380D02*
X198923809Y-57287142D01*
X198923809Y-57287142D02*
X198923809Y-57191904D01*
X198923809Y-57191904D02*
X198876190Y-57096666D01*
X198876190Y-57096666D02*
X198828571Y-57049047D01*
X198828571Y-57049047D02*
X198733333Y-57001428D01*
X198733333Y-57001428D02*
X198542857Y-56953809D01*
X198542857Y-56953809D02*
X198447619Y-56906190D01*
X198447619Y-56906190D02*
X198400000Y-56858571D01*
X198400000Y-56858571D02*
X198352381Y-56763333D01*
X198352381Y-56763333D02*
X198352381Y-56668095D01*
X198352381Y-56668095D02*
X198400000Y-56572857D01*
X198400000Y-56572857D02*
X198447619Y-56525238D01*
X198447619Y-56525238D02*
X198542857Y-56477619D01*
X198542857Y-56477619D02*
X198780952Y-56477619D01*
X198780952Y-56477619D02*
X198923809Y-56525238D01*
X199828571Y-57477619D02*
X199352381Y-57477619D01*
X199352381Y-57477619D02*
X199352381Y-56477619D01*
X200352381Y-56477619D02*
X200542857Y-56477619D01*
X200542857Y-56477619D02*
X200638095Y-56525238D01*
X200638095Y-56525238D02*
X200733333Y-56620476D01*
X200733333Y-56620476D02*
X200780952Y-56810952D01*
X200780952Y-56810952D02*
X200780952Y-57144285D01*
X200780952Y-57144285D02*
X200733333Y-57334761D01*
X200733333Y-57334761D02*
X200638095Y-57430000D01*
X200638095Y-57430000D02*
X200542857Y-57477619D01*
X200542857Y-57477619D02*
X200352381Y-57477619D01*
X200352381Y-57477619D02*
X200257143Y-57430000D01*
X200257143Y-57430000D02*
X200161905Y-57334761D01*
X200161905Y-57334761D02*
X200114286Y-57144285D01*
X200114286Y-57144285D02*
X200114286Y-56810952D01*
X200114286Y-56810952D02*
X200161905Y-56620476D01*
X200161905Y-56620476D02*
X200257143Y-56525238D01*
X200257143Y-56525238D02*
X200352381Y-56477619D01*
X201066667Y-56477619D02*
X201638095Y-56477619D01*
X201352381Y-57477619D02*
X201352381Y-56477619D01*
X228638095Y-57477619D02*
X228638095Y-56477619D01*
X228638095Y-56477619D02*
X229019047Y-56477619D01*
X229019047Y-56477619D02*
X229114285Y-56525238D01*
X229114285Y-56525238D02*
X229161904Y-56572857D01*
X229161904Y-56572857D02*
X229209523Y-56668095D01*
X229209523Y-56668095D02*
X229209523Y-56810952D01*
X229209523Y-56810952D02*
X229161904Y-56906190D01*
X229161904Y-56906190D02*
X229114285Y-56953809D01*
X229114285Y-56953809D02*
X229019047Y-57001428D01*
X229019047Y-57001428D02*
X228638095Y-57001428D01*
X230209523Y-57382380D02*
X230161904Y-57430000D01*
X230161904Y-57430000D02*
X230019047Y-57477619D01*
X230019047Y-57477619D02*
X229923809Y-57477619D01*
X229923809Y-57477619D02*
X229780952Y-57430000D01*
X229780952Y-57430000D02*
X229685714Y-57334761D01*
X229685714Y-57334761D02*
X229638095Y-57239523D01*
X229638095Y-57239523D02*
X229590476Y-57049047D01*
X229590476Y-57049047D02*
X229590476Y-56906190D01*
X229590476Y-56906190D02*
X229638095Y-56715714D01*
X229638095Y-56715714D02*
X229685714Y-56620476D01*
X229685714Y-56620476D02*
X229780952Y-56525238D01*
X229780952Y-56525238D02*
X229923809Y-56477619D01*
X229923809Y-56477619D02*
X230019047Y-56477619D01*
X230019047Y-56477619D02*
X230161904Y-56525238D01*
X230161904Y-56525238D02*
X230209523Y-56572857D01*
X230971428Y-56953809D02*
X231114285Y-57001428D01*
X231114285Y-57001428D02*
X231161904Y-57049047D01*
X231161904Y-57049047D02*
X231209523Y-57144285D01*
X231209523Y-57144285D02*
X231209523Y-57287142D01*
X231209523Y-57287142D02*
X231161904Y-57382380D01*
X231161904Y-57382380D02*
X231114285Y-57430000D01*
X231114285Y-57430000D02*
X231019047Y-57477619D01*
X231019047Y-57477619D02*
X230638095Y-57477619D01*
X230638095Y-57477619D02*
X230638095Y-56477619D01*
X230638095Y-56477619D02*
X230971428Y-56477619D01*
X230971428Y-56477619D02*
X231066666Y-56525238D01*
X231066666Y-56525238D02*
X231114285Y-56572857D01*
X231114285Y-56572857D02*
X231161904Y-56668095D01*
X231161904Y-56668095D02*
X231161904Y-56763333D01*
X231161904Y-56763333D02*
X231114285Y-56858571D01*
X231114285Y-56858571D02*
X231066666Y-56906190D01*
X231066666Y-56906190D02*
X230971428Y-56953809D01*
X230971428Y-56953809D02*
X230638095Y-56953809D01*
X232352381Y-57430000D02*
X232495238Y-57477619D01*
X232495238Y-57477619D02*
X232733333Y-57477619D01*
X232733333Y-57477619D02*
X232828571Y-57430000D01*
X232828571Y-57430000D02*
X232876190Y-57382380D01*
X232876190Y-57382380D02*
X232923809Y-57287142D01*
X232923809Y-57287142D02*
X232923809Y-57191904D01*
X232923809Y-57191904D02*
X232876190Y-57096666D01*
X232876190Y-57096666D02*
X232828571Y-57049047D01*
X232828571Y-57049047D02*
X232733333Y-57001428D01*
X232733333Y-57001428D02*
X232542857Y-56953809D01*
X232542857Y-56953809D02*
X232447619Y-56906190D01*
X232447619Y-56906190D02*
X232400000Y-56858571D01*
X232400000Y-56858571D02*
X232352381Y-56763333D01*
X232352381Y-56763333D02*
X232352381Y-56668095D01*
X232352381Y-56668095D02*
X232400000Y-56572857D01*
X232400000Y-56572857D02*
X232447619Y-56525238D01*
X232447619Y-56525238D02*
X232542857Y-56477619D01*
X232542857Y-56477619D02*
X232780952Y-56477619D01*
X232780952Y-56477619D02*
X232923809Y-56525238D01*
X233828571Y-57477619D02*
X233352381Y-57477619D01*
X233352381Y-57477619D02*
X233352381Y-56477619D01*
X234352381Y-56477619D02*
X234542857Y-56477619D01*
X234542857Y-56477619D02*
X234638095Y-56525238D01*
X234638095Y-56525238D02*
X234733333Y-56620476D01*
X234733333Y-56620476D02*
X234780952Y-56810952D01*
X234780952Y-56810952D02*
X234780952Y-57144285D01*
X234780952Y-57144285D02*
X234733333Y-57334761D01*
X234733333Y-57334761D02*
X234638095Y-57430000D01*
X234638095Y-57430000D02*
X234542857Y-57477619D01*
X234542857Y-57477619D02*
X234352381Y-57477619D01*
X234352381Y-57477619D02*
X234257143Y-57430000D01*
X234257143Y-57430000D02*
X234161905Y-57334761D01*
X234161905Y-57334761D02*
X234114286Y-57144285D01*
X234114286Y-57144285D02*
X234114286Y-56810952D01*
X234114286Y-56810952D02*
X234161905Y-56620476D01*
X234161905Y-56620476D02*
X234257143Y-56525238D01*
X234257143Y-56525238D02*
X234352381Y-56477619D01*
X235066667Y-56477619D02*
X235638095Y-56477619D01*
X235352381Y-57477619D02*
X235352381Y-56477619D01*
X184377619Y-33190476D02*
X183901428Y-33523809D01*
X184377619Y-33761904D02*
X183377619Y-33761904D01*
X183377619Y-33761904D02*
X183377619Y-33380952D01*
X183377619Y-33380952D02*
X183425238Y-33285714D01*
X183425238Y-33285714D02*
X183472857Y-33238095D01*
X183472857Y-33238095D02*
X183568095Y-33190476D01*
X183568095Y-33190476D02*
X183710952Y-33190476D01*
X183710952Y-33190476D02*
X183806190Y-33238095D01*
X183806190Y-33238095D02*
X183853809Y-33285714D01*
X183853809Y-33285714D02*
X183901428Y-33380952D01*
X183901428Y-33380952D02*
X183901428Y-33761904D01*
X183377619Y-32761904D02*
X184187142Y-32761904D01*
X184187142Y-32761904D02*
X184282380Y-32714285D01*
X184282380Y-32714285D02*
X184330000Y-32666666D01*
X184330000Y-32666666D02*
X184377619Y-32571428D01*
X184377619Y-32571428D02*
X184377619Y-32380952D01*
X184377619Y-32380952D02*
X184330000Y-32285714D01*
X184330000Y-32285714D02*
X184282380Y-32238095D01*
X184282380Y-32238095D02*
X184187142Y-32190476D01*
X184187142Y-32190476D02*
X183377619Y-32190476D01*
X183853809Y-31380952D02*
X183901428Y-31238095D01*
X183901428Y-31238095D02*
X183949047Y-31190476D01*
X183949047Y-31190476D02*
X184044285Y-31142857D01*
X184044285Y-31142857D02*
X184187142Y-31142857D01*
X184187142Y-31142857D02*
X184282380Y-31190476D01*
X184282380Y-31190476D02*
X184330000Y-31238095D01*
X184330000Y-31238095D02*
X184377619Y-31333333D01*
X184377619Y-31333333D02*
X184377619Y-31714285D01*
X184377619Y-31714285D02*
X183377619Y-31714285D01*
X183377619Y-31714285D02*
X183377619Y-31380952D01*
X183377619Y-31380952D02*
X183425238Y-31285714D01*
X183425238Y-31285714D02*
X183472857Y-31238095D01*
X183472857Y-31238095D02*
X183568095Y-31190476D01*
X183568095Y-31190476D02*
X183663333Y-31190476D01*
X183663333Y-31190476D02*
X183758571Y-31238095D01*
X183758571Y-31238095D02*
X183806190Y-31285714D01*
X183806190Y-31285714D02*
X183853809Y-31380952D01*
X183853809Y-31380952D02*
X183853809Y-31714285D01*
X183853809Y-30380952D02*
X183901428Y-30238095D01*
X183901428Y-30238095D02*
X183949047Y-30190476D01*
X183949047Y-30190476D02*
X184044285Y-30142857D01*
X184044285Y-30142857D02*
X184187142Y-30142857D01*
X184187142Y-30142857D02*
X184282380Y-30190476D01*
X184282380Y-30190476D02*
X184330000Y-30238095D01*
X184330000Y-30238095D02*
X184377619Y-30333333D01*
X184377619Y-30333333D02*
X184377619Y-30714285D01*
X184377619Y-30714285D02*
X183377619Y-30714285D01*
X183377619Y-30714285D02*
X183377619Y-30380952D01*
X183377619Y-30380952D02*
X183425238Y-30285714D01*
X183425238Y-30285714D02*
X183472857Y-30238095D01*
X183472857Y-30238095D02*
X183568095Y-30190476D01*
X183568095Y-30190476D02*
X183663333Y-30190476D01*
X183663333Y-30190476D02*
X183758571Y-30238095D01*
X183758571Y-30238095D02*
X183806190Y-30285714D01*
X183806190Y-30285714D02*
X183853809Y-30380952D01*
X183853809Y-30380952D02*
X183853809Y-30714285D01*
X183853809Y-29714285D02*
X183853809Y-29380952D01*
X184377619Y-29238095D02*
X184377619Y-29714285D01*
X184377619Y-29714285D02*
X183377619Y-29714285D01*
X183377619Y-29714285D02*
X183377619Y-29238095D01*
X184377619Y-28238095D02*
X183901428Y-28571428D01*
X184377619Y-28809523D02*
X183377619Y-28809523D01*
X183377619Y-28809523D02*
X183377619Y-28428571D01*
X183377619Y-28428571D02*
X183425238Y-28333333D01*
X183425238Y-28333333D02*
X183472857Y-28285714D01*
X183472857Y-28285714D02*
X183568095Y-28238095D01*
X183568095Y-28238095D02*
X183710952Y-28238095D01*
X183710952Y-28238095D02*
X183806190Y-28285714D01*
X183806190Y-28285714D02*
X183853809Y-28333333D01*
X183853809Y-28333333D02*
X183901428Y-28428571D01*
X183901428Y-28428571D02*
X183901428Y-28809523D01*
X183853809Y-27476190D02*
X183901428Y-27333333D01*
X183901428Y-27333333D02*
X183949047Y-27285714D01*
X183949047Y-27285714D02*
X184044285Y-27238095D01*
X184044285Y-27238095D02*
X184187142Y-27238095D01*
X184187142Y-27238095D02*
X184282380Y-27285714D01*
X184282380Y-27285714D02*
X184330000Y-27333333D01*
X184330000Y-27333333D02*
X184377619Y-27428571D01*
X184377619Y-27428571D02*
X184377619Y-27809523D01*
X184377619Y-27809523D02*
X183377619Y-27809523D01*
X183377619Y-27809523D02*
X183377619Y-27476190D01*
X183377619Y-27476190D02*
X183425238Y-27380952D01*
X183425238Y-27380952D02*
X183472857Y-27333333D01*
X183472857Y-27333333D02*
X183568095Y-27285714D01*
X183568095Y-27285714D02*
X183663333Y-27285714D01*
X183663333Y-27285714D02*
X183758571Y-27333333D01*
X183758571Y-27333333D02*
X183806190Y-27380952D01*
X183806190Y-27380952D02*
X183853809Y-27476190D01*
X183853809Y-27476190D02*
X183853809Y-27809523D01*
X184091904Y-26857142D02*
X184091904Y-26380952D01*
X184377619Y-26952380D02*
X183377619Y-26619047D01*
X183377619Y-26619047D02*
X184377619Y-26285714D01*
X184377619Y-25952380D02*
X183377619Y-25952380D01*
X183377619Y-25952380D02*
X184377619Y-25380952D01*
X184377619Y-25380952D02*
X183377619Y-25380952D01*
X184377619Y-24904761D02*
X183377619Y-24904761D01*
X183377619Y-24904761D02*
X183377619Y-24666666D01*
X183377619Y-24666666D02*
X183425238Y-24523809D01*
X183425238Y-24523809D02*
X183520476Y-24428571D01*
X183520476Y-24428571D02*
X183615714Y-24380952D01*
X183615714Y-24380952D02*
X183806190Y-24333333D01*
X183806190Y-24333333D02*
X183949047Y-24333333D01*
X183949047Y-24333333D02*
X184139523Y-24380952D01*
X184139523Y-24380952D02*
X184234761Y-24428571D01*
X184234761Y-24428571D02*
X184330000Y-24523809D01*
X184330000Y-24523809D02*
X184377619Y-24666666D01*
X184377619Y-24666666D02*
X184377619Y-24904761D01*
X184330000Y-23952380D02*
X184377619Y-23809523D01*
X184377619Y-23809523D02*
X184377619Y-23571428D01*
X184377619Y-23571428D02*
X184330000Y-23476190D01*
X184330000Y-23476190D02*
X184282380Y-23428571D01*
X184282380Y-23428571D02*
X184187142Y-23380952D01*
X184187142Y-23380952D02*
X184091904Y-23380952D01*
X184091904Y-23380952D02*
X183996666Y-23428571D01*
X183996666Y-23428571D02*
X183949047Y-23476190D01*
X183949047Y-23476190D02*
X183901428Y-23571428D01*
X183901428Y-23571428D02*
X183853809Y-23761904D01*
X183853809Y-23761904D02*
X183806190Y-23857142D01*
X183806190Y-23857142D02*
X183758571Y-23904761D01*
X183758571Y-23904761D02*
X183663333Y-23952380D01*
X183663333Y-23952380D02*
X183568095Y-23952380D01*
X183568095Y-23952380D02*
X183472857Y-23904761D01*
X183472857Y-23904761D02*
X183425238Y-23857142D01*
X183425238Y-23857142D02*
X183377619Y-23761904D01*
X183377619Y-23761904D02*
X183377619Y-23523809D01*
X183377619Y-23523809D02*
X183425238Y-23380952D01*
X194638095Y-35877619D02*
X194638095Y-34877619D01*
X194638095Y-34877619D02*
X195019047Y-34877619D01*
X195019047Y-34877619D02*
X195114285Y-34925238D01*
X195114285Y-34925238D02*
X195161904Y-34972857D01*
X195161904Y-34972857D02*
X195209523Y-35068095D01*
X195209523Y-35068095D02*
X195209523Y-35210952D01*
X195209523Y-35210952D02*
X195161904Y-35306190D01*
X195161904Y-35306190D02*
X195114285Y-35353809D01*
X195114285Y-35353809D02*
X195019047Y-35401428D01*
X195019047Y-35401428D02*
X194638095Y-35401428D01*
X196209523Y-35782380D02*
X196161904Y-35830000D01*
X196161904Y-35830000D02*
X196019047Y-35877619D01*
X196019047Y-35877619D02*
X195923809Y-35877619D01*
X195923809Y-35877619D02*
X195780952Y-35830000D01*
X195780952Y-35830000D02*
X195685714Y-35734761D01*
X195685714Y-35734761D02*
X195638095Y-35639523D01*
X195638095Y-35639523D02*
X195590476Y-35449047D01*
X195590476Y-35449047D02*
X195590476Y-35306190D01*
X195590476Y-35306190D02*
X195638095Y-35115714D01*
X195638095Y-35115714D02*
X195685714Y-35020476D01*
X195685714Y-35020476D02*
X195780952Y-34925238D01*
X195780952Y-34925238D02*
X195923809Y-34877619D01*
X195923809Y-34877619D02*
X196019047Y-34877619D01*
X196019047Y-34877619D02*
X196161904Y-34925238D01*
X196161904Y-34925238D02*
X196209523Y-34972857D01*
X196971428Y-35353809D02*
X197114285Y-35401428D01*
X197114285Y-35401428D02*
X197161904Y-35449047D01*
X197161904Y-35449047D02*
X197209523Y-35544285D01*
X197209523Y-35544285D02*
X197209523Y-35687142D01*
X197209523Y-35687142D02*
X197161904Y-35782380D01*
X197161904Y-35782380D02*
X197114285Y-35830000D01*
X197114285Y-35830000D02*
X197019047Y-35877619D01*
X197019047Y-35877619D02*
X196638095Y-35877619D01*
X196638095Y-35877619D02*
X196638095Y-34877619D01*
X196638095Y-34877619D02*
X196971428Y-34877619D01*
X196971428Y-34877619D02*
X197066666Y-34925238D01*
X197066666Y-34925238D02*
X197114285Y-34972857D01*
X197114285Y-34972857D02*
X197161904Y-35068095D01*
X197161904Y-35068095D02*
X197161904Y-35163333D01*
X197161904Y-35163333D02*
X197114285Y-35258571D01*
X197114285Y-35258571D02*
X197066666Y-35306190D01*
X197066666Y-35306190D02*
X196971428Y-35353809D01*
X196971428Y-35353809D02*
X196638095Y-35353809D01*
X198352381Y-35830000D02*
X198495238Y-35877619D01*
X198495238Y-35877619D02*
X198733333Y-35877619D01*
X198733333Y-35877619D02*
X198828571Y-35830000D01*
X198828571Y-35830000D02*
X198876190Y-35782380D01*
X198876190Y-35782380D02*
X198923809Y-35687142D01*
X198923809Y-35687142D02*
X198923809Y-35591904D01*
X198923809Y-35591904D02*
X198876190Y-35496666D01*
X198876190Y-35496666D02*
X198828571Y-35449047D01*
X198828571Y-35449047D02*
X198733333Y-35401428D01*
X198733333Y-35401428D02*
X198542857Y-35353809D01*
X198542857Y-35353809D02*
X198447619Y-35306190D01*
X198447619Y-35306190D02*
X198400000Y-35258571D01*
X198400000Y-35258571D02*
X198352381Y-35163333D01*
X198352381Y-35163333D02*
X198352381Y-35068095D01*
X198352381Y-35068095D02*
X198400000Y-34972857D01*
X198400000Y-34972857D02*
X198447619Y-34925238D01*
X198447619Y-34925238D02*
X198542857Y-34877619D01*
X198542857Y-34877619D02*
X198780952Y-34877619D01*
X198780952Y-34877619D02*
X198923809Y-34925238D01*
X199828571Y-35877619D02*
X199352381Y-35877619D01*
X199352381Y-35877619D02*
X199352381Y-34877619D01*
X200352381Y-34877619D02*
X200542857Y-34877619D01*
X200542857Y-34877619D02*
X200638095Y-34925238D01*
X200638095Y-34925238D02*
X200733333Y-35020476D01*
X200733333Y-35020476D02*
X200780952Y-35210952D01*
X200780952Y-35210952D02*
X200780952Y-35544285D01*
X200780952Y-35544285D02*
X200733333Y-35734761D01*
X200733333Y-35734761D02*
X200638095Y-35830000D01*
X200638095Y-35830000D02*
X200542857Y-35877619D01*
X200542857Y-35877619D02*
X200352381Y-35877619D01*
X200352381Y-35877619D02*
X200257143Y-35830000D01*
X200257143Y-35830000D02*
X200161905Y-35734761D01*
X200161905Y-35734761D02*
X200114286Y-35544285D01*
X200114286Y-35544285D02*
X200114286Y-35210952D01*
X200114286Y-35210952D02*
X200161905Y-35020476D01*
X200161905Y-35020476D02*
X200257143Y-34925238D01*
X200257143Y-34925238D02*
X200352381Y-34877619D01*
X201066667Y-34877619D02*
X201638095Y-34877619D01*
X201352381Y-35877619D02*
X201352381Y-34877619D01*
X188571428Y-66753809D02*
X188714285Y-66801428D01*
X188714285Y-66801428D02*
X188761904Y-66849047D01*
X188761904Y-66849047D02*
X188809523Y-66944285D01*
X188809523Y-66944285D02*
X188809523Y-67087142D01*
X188809523Y-67087142D02*
X188761904Y-67182380D01*
X188761904Y-67182380D02*
X188714285Y-67230000D01*
X188714285Y-67230000D02*
X188619047Y-67277619D01*
X188619047Y-67277619D02*
X188238095Y-67277619D01*
X188238095Y-67277619D02*
X188238095Y-66277619D01*
X188238095Y-66277619D02*
X188571428Y-66277619D01*
X188571428Y-66277619D02*
X188666666Y-66325238D01*
X188666666Y-66325238D02*
X188714285Y-66372857D01*
X188714285Y-66372857D02*
X188761904Y-66468095D01*
X188761904Y-66468095D02*
X188761904Y-66563333D01*
X188761904Y-66563333D02*
X188714285Y-66658571D01*
X188714285Y-66658571D02*
X188666666Y-66706190D01*
X188666666Y-66706190D02*
X188571428Y-66753809D01*
X188571428Y-66753809D02*
X188238095Y-66753809D01*
X189190476Y-66991904D02*
X189666666Y-66991904D01*
X189095238Y-67277619D02*
X189428571Y-66277619D01*
X189428571Y-66277619D02*
X189761904Y-67277619D01*
X189952381Y-66277619D02*
X190523809Y-66277619D01*
X190238095Y-67277619D02*
X190238095Y-66277619D01*
X190714286Y-66277619D02*
X191285714Y-66277619D01*
X191000000Y-67277619D02*
X191000000Y-66277619D01*
X191619048Y-66753809D02*
X191952381Y-66753809D01*
X192095238Y-67277619D02*
X191619048Y-67277619D01*
X191619048Y-67277619D02*
X191619048Y-66277619D01*
X191619048Y-66277619D02*
X192095238Y-66277619D01*
X193095238Y-67277619D02*
X192761905Y-66801428D01*
X192523810Y-67277619D02*
X192523810Y-66277619D01*
X192523810Y-66277619D02*
X192904762Y-66277619D01*
X192904762Y-66277619D02*
X193000000Y-66325238D01*
X193000000Y-66325238D02*
X193047619Y-66372857D01*
X193047619Y-66372857D02*
X193095238Y-66468095D01*
X193095238Y-66468095D02*
X193095238Y-66610952D01*
X193095238Y-66610952D02*
X193047619Y-66706190D01*
X193047619Y-66706190D02*
X193000000Y-66753809D01*
X193000000Y-66753809D02*
X192904762Y-66801428D01*
X192904762Y-66801428D02*
X192523810Y-66801428D01*
X193714286Y-66801428D02*
X193714286Y-67277619D01*
X193380953Y-66277619D02*
X193714286Y-66801428D01*
X193714286Y-66801428D02*
X194047619Y-66277619D01*
X195000001Y-66277619D02*
X195571429Y-66277619D01*
X195285715Y-67277619D02*
X195285715Y-66277619D01*
X195857144Y-66991904D02*
X196333334Y-66991904D01*
X195761906Y-67277619D02*
X196095239Y-66277619D01*
X196095239Y-66277619D02*
X196428572Y-67277619D01*
X196761906Y-67277619D02*
X196761906Y-66277619D01*
X196761906Y-66277619D02*
X197142858Y-66277619D01*
X197142858Y-66277619D02*
X197238096Y-66325238D01*
X197238096Y-66325238D02*
X197285715Y-66372857D01*
X197285715Y-66372857D02*
X197333334Y-66468095D01*
X197333334Y-66468095D02*
X197333334Y-66610952D01*
X197333334Y-66610952D02*
X197285715Y-66706190D01*
X197285715Y-66706190D02*
X197238096Y-66753809D01*
X197238096Y-66753809D02*
X197142858Y-66801428D01*
X197142858Y-66801428D02*
X196761906Y-66801428D01*
X197761906Y-66753809D02*
X198095239Y-66753809D01*
X198238096Y-67277619D02*
X197761906Y-67277619D01*
X197761906Y-67277619D02*
X197761906Y-66277619D01*
X197761906Y-66277619D02*
X198238096Y-66277619D01*
X233377619Y-33190476D02*
X232901428Y-33523809D01*
X233377619Y-33761904D02*
X232377619Y-33761904D01*
X232377619Y-33761904D02*
X232377619Y-33380952D01*
X232377619Y-33380952D02*
X232425238Y-33285714D01*
X232425238Y-33285714D02*
X232472857Y-33238095D01*
X232472857Y-33238095D02*
X232568095Y-33190476D01*
X232568095Y-33190476D02*
X232710952Y-33190476D01*
X232710952Y-33190476D02*
X232806190Y-33238095D01*
X232806190Y-33238095D02*
X232853809Y-33285714D01*
X232853809Y-33285714D02*
X232901428Y-33380952D01*
X232901428Y-33380952D02*
X232901428Y-33761904D01*
X232377619Y-32761904D02*
X233187142Y-32761904D01*
X233187142Y-32761904D02*
X233282380Y-32714285D01*
X233282380Y-32714285D02*
X233330000Y-32666666D01*
X233330000Y-32666666D02*
X233377619Y-32571428D01*
X233377619Y-32571428D02*
X233377619Y-32380952D01*
X233377619Y-32380952D02*
X233330000Y-32285714D01*
X233330000Y-32285714D02*
X233282380Y-32238095D01*
X233282380Y-32238095D02*
X233187142Y-32190476D01*
X233187142Y-32190476D02*
X232377619Y-32190476D01*
X232853809Y-31380952D02*
X232901428Y-31238095D01*
X232901428Y-31238095D02*
X232949047Y-31190476D01*
X232949047Y-31190476D02*
X233044285Y-31142857D01*
X233044285Y-31142857D02*
X233187142Y-31142857D01*
X233187142Y-31142857D02*
X233282380Y-31190476D01*
X233282380Y-31190476D02*
X233330000Y-31238095D01*
X233330000Y-31238095D02*
X233377619Y-31333333D01*
X233377619Y-31333333D02*
X233377619Y-31714285D01*
X233377619Y-31714285D02*
X232377619Y-31714285D01*
X232377619Y-31714285D02*
X232377619Y-31380952D01*
X232377619Y-31380952D02*
X232425238Y-31285714D01*
X232425238Y-31285714D02*
X232472857Y-31238095D01*
X232472857Y-31238095D02*
X232568095Y-31190476D01*
X232568095Y-31190476D02*
X232663333Y-31190476D01*
X232663333Y-31190476D02*
X232758571Y-31238095D01*
X232758571Y-31238095D02*
X232806190Y-31285714D01*
X232806190Y-31285714D02*
X232853809Y-31380952D01*
X232853809Y-31380952D02*
X232853809Y-31714285D01*
X232853809Y-30380952D02*
X232901428Y-30238095D01*
X232901428Y-30238095D02*
X232949047Y-30190476D01*
X232949047Y-30190476D02*
X233044285Y-30142857D01*
X233044285Y-30142857D02*
X233187142Y-30142857D01*
X233187142Y-30142857D02*
X233282380Y-30190476D01*
X233282380Y-30190476D02*
X233330000Y-30238095D01*
X233330000Y-30238095D02*
X233377619Y-30333333D01*
X233377619Y-30333333D02*
X233377619Y-30714285D01*
X233377619Y-30714285D02*
X232377619Y-30714285D01*
X232377619Y-30714285D02*
X232377619Y-30380952D01*
X232377619Y-30380952D02*
X232425238Y-30285714D01*
X232425238Y-30285714D02*
X232472857Y-30238095D01*
X232472857Y-30238095D02*
X232568095Y-30190476D01*
X232568095Y-30190476D02*
X232663333Y-30190476D01*
X232663333Y-30190476D02*
X232758571Y-30238095D01*
X232758571Y-30238095D02*
X232806190Y-30285714D01*
X232806190Y-30285714D02*
X232853809Y-30380952D01*
X232853809Y-30380952D02*
X232853809Y-30714285D01*
X232853809Y-29714285D02*
X232853809Y-29380952D01*
X233377619Y-29238095D02*
X233377619Y-29714285D01*
X233377619Y-29714285D02*
X232377619Y-29714285D01*
X232377619Y-29714285D02*
X232377619Y-29238095D01*
X233377619Y-28238095D02*
X232901428Y-28571428D01*
X233377619Y-28809523D02*
X232377619Y-28809523D01*
X232377619Y-28809523D02*
X232377619Y-28428571D01*
X232377619Y-28428571D02*
X232425238Y-28333333D01*
X232425238Y-28333333D02*
X232472857Y-28285714D01*
X232472857Y-28285714D02*
X232568095Y-28238095D01*
X232568095Y-28238095D02*
X232710952Y-28238095D01*
X232710952Y-28238095D02*
X232806190Y-28285714D01*
X232806190Y-28285714D02*
X232853809Y-28333333D01*
X232853809Y-28333333D02*
X232901428Y-28428571D01*
X232901428Y-28428571D02*
X232901428Y-28809523D01*
X232853809Y-27476190D02*
X232901428Y-27333333D01*
X232901428Y-27333333D02*
X232949047Y-27285714D01*
X232949047Y-27285714D02*
X233044285Y-27238095D01*
X233044285Y-27238095D02*
X233187142Y-27238095D01*
X233187142Y-27238095D02*
X233282380Y-27285714D01*
X233282380Y-27285714D02*
X233330000Y-27333333D01*
X233330000Y-27333333D02*
X233377619Y-27428571D01*
X233377619Y-27428571D02*
X233377619Y-27809523D01*
X233377619Y-27809523D02*
X232377619Y-27809523D01*
X232377619Y-27809523D02*
X232377619Y-27476190D01*
X232377619Y-27476190D02*
X232425238Y-27380952D01*
X232425238Y-27380952D02*
X232472857Y-27333333D01*
X232472857Y-27333333D02*
X232568095Y-27285714D01*
X232568095Y-27285714D02*
X232663333Y-27285714D01*
X232663333Y-27285714D02*
X232758571Y-27333333D01*
X232758571Y-27333333D02*
X232806190Y-27380952D01*
X232806190Y-27380952D02*
X232853809Y-27476190D01*
X232853809Y-27476190D02*
X232853809Y-27809523D01*
X233091904Y-26857142D02*
X233091904Y-26380952D01*
X233377619Y-26952380D02*
X232377619Y-26619047D01*
X232377619Y-26619047D02*
X233377619Y-26285714D01*
X233377619Y-25952380D02*
X232377619Y-25952380D01*
X232377619Y-25952380D02*
X233377619Y-25380952D01*
X233377619Y-25380952D02*
X232377619Y-25380952D01*
X233377619Y-24904761D02*
X232377619Y-24904761D01*
X232377619Y-24904761D02*
X232377619Y-24666666D01*
X232377619Y-24666666D02*
X232425238Y-24523809D01*
X232425238Y-24523809D02*
X232520476Y-24428571D01*
X232520476Y-24428571D02*
X232615714Y-24380952D01*
X232615714Y-24380952D02*
X232806190Y-24333333D01*
X232806190Y-24333333D02*
X232949047Y-24333333D01*
X232949047Y-24333333D02*
X233139523Y-24380952D01*
X233139523Y-24380952D02*
X233234761Y-24428571D01*
X233234761Y-24428571D02*
X233330000Y-24523809D01*
X233330000Y-24523809D02*
X233377619Y-24666666D01*
X233377619Y-24666666D02*
X233377619Y-24904761D01*
X233330000Y-23952380D02*
X233377619Y-23809523D01*
X233377619Y-23809523D02*
X233377619Y-23571428D01*
X233377619Y-23571428D02*
X233330000Y-23476190D01*
X233330000Y-23476190D02*
X233282380Y-23428571D01*
X233282380Y-23428571D02*
X233187142Y-23380952D01*
X233187142Y-23380952D02*
X233091904Y-23380952D01*
X233091904Y-23380952D02*
X232996666Y-23428571D01*
X232996666Y-23428571D02*
X232949047Y-23476190D01*
X232949047Y-23476190D02*
X232901428Y-23571428D01*
X232901428Y-23571428D02*
X232853809Y-23761904D01*
X232853809Y-23761904D02*
X232806190Y-23857142D01*
X232806190Y-23857142D02*
X232758571Y-23904761D01*
X232758571Y-23904761D02*
X232663333Y-23952380D01*
X232663333Y-23952380D02*
X232568095Y-23952380D01*
X232568095Y-23952380D02*
X232472857Y-23904761D01*
X232472857Y-23904761D02*
X232425238Y-23857142D01*
X232425238Y-23857142D02*
X232377619Y-23761904D01*
X232377619Y-23761904D02*
X232377619Y-23523809D01*
X232377619Y-23523809D02*
X232425238Y-23380952D01*
X191238095Y-44265168D02*
X191238095Y-43265168D01*
X191238095Y-43265168D02*
X191571428Y-43979453D01*
X191571428Y-43979453D02*
X191904761Y-43265168D01*
X191904761Y-43265168D02*
X191904761Y-44265168D01*
X192571428Y-43265168D02*
X192761904Y-43265168D01*
X192761904Y-43265168D02*
X192857142Y-43312787D01*
X192857142Y-43312787D02*
X192952380Y-43408025D01*
X192952380Y-43408025D02*
X192999999Y-43598501D01*
X192999999Y-43598501D02*
X192999999Y-43931834D01*
X192999999Y-43931834D02*
X192952380Y-44122310D01*
X192952380Y-44122310D02*
X192857142Y-44217549D01*
X192857142Y-44217549D02*
X192761904Y-44265168D01*
X192761904Y-44265168D02*
X192571428Y-44265168D01*
X192571428Y-44265168D02*
X192476190Y-44217549D01*
X192476190Y-44217549D02*
X192380952Y-44122310D01*
X192380952Y-44122310D02*
X192333333Y-43931834D01*
X192333333Y-43931834D02*
X192333333Y-43598501D01*
X192333333Y-43598501D02*
X192380952Y-43408025D01*
X192380952Y-43408025D02*
X192476190Y-43312787D01*
X192476190Y-43312787D02*
X192571428Y-43265168D01*
X193428571Y-43265168D02*
X193428571Y-44074691D01*
X193428571Y-44074691D02*
X193476190Y-44169929D01*
X193476190Y-44169929D02*
X193523809Y-44217549D01*
X193523809Y-44217549D02*
X193619047Y-44265168D01*
X193619047Y-44265168D02*
X193809523Y-44265168D01*
X193809523Y-44265168D02*
X193904761Y-44217549D01*
X193904761Y-44217549D02*
X193952380Y-44169929D01*
X193952380Y-44169929D02*
X193999999Y-44074691D01*
X193999999Y-44074691D02*
X193999999Y-43265168D01*
X194476190Y-44265168D02*
X194476190Y-43265168D01*
X194476190Y-43265168D02*
X195047618Y-44265168D01*
X195047618Y-44265168D02*
X195047618Y-43265168D01*
X195380952Y-43265168D02*
X195952380Y-43265168D01*
X195666666Y-44265168D02*
X195666666Y-43265168D01*
X196285714Y-44265168D02*
X196285714Y-43265168D01*
X196761904Y-44265168D02*
X196761904Y-43265168D01*
X196761904Y-43265168D02*
X197333332Y-44265168D01*
X197333332Y-44265168D02*
X197333332Y-43265168D01*
X198333332Y-43312787D02*
X198238094Y-43265168D01*
X198238094Y-43265168D02*
X198095237Y-43265168D01*
X198095237Y-43265168D02*
X197952380Y-43312787D01*
X197952380Y-43312787D02*
X197857142Y-43408025D01*
X197857142Y-43408025D02*
X197809523Y-43503263D01*
X197809523Y-43503263D02*
X197761904Y-43693739D01*
X197761904Y-43693739D02*
X197761904Y-43836596D01*
X197761904Y-43836596D02*
X197809523Y-44027072D01*
X197809523Y-44027072D02*
X197857142Y-44122310D01*
X197857142Y-44122310D02*
X197952380Y-44217549D01*
X197952380Y-44217549D02*
X198095237Y-44265168D01*
X198095237Y-44265168D02*
X198190475Y-44265168D01*
X198190475Y-44265168D02*
X198333332Y-44217549D01*
X198333332Y-44217549D02*
X198380951Y-44169929D01*
X198380951Y-44169929D02*
X198380951Y-43836596D01*
X198380951Y-43836596D02*
X198190475Y-43836596D01*
X199571428Y-44265168D02*
X199571428Y-43265168D01*
X199571428Y-43741358D02*
X200142856Y-43741358D01*
X200142856Y-44265168D02*
X200142856Y-43265168D01*
X200809523Y-43265168D02*
X200999999Y-43265168D01*
X200999999Y-43265168D02*
X201095237Y-43312787D01*
X201095237Y-43312787D02*
X201190475Y-43408025D01*
X201190475Y-43408025D02*
X201238094Y-43598501D01*
X201238094Y-43598501D02*
X201238094Y-43931834D01*
X201238094Y-43931834D02*
X201190475Y-44122310D01*
X201190475Y-44122310D02*
X201095237Y-44217549D01*
X201095237Y-44217549D02*
X200999999Y-44265168D01*
X200999999Y-44265168D02*
X200809523Y-44265168D01*
X200809523Y-44265168D02*
X200714285Y-44217549D01*
X200714285Y-44217549D02*
X200619047Y-44122310D01*
X200619047Y-44122310D02*
X200571428Y-43931834D01*
X200571428Y-43931834D02*
X200571428Y-43598501D01*
X200571428Y-43598501D02*
X200619047Y-43408025D01*
X200619047Y-43408025D02*
X200714285Y-43312787D01*
X200714285Y-43312787D02*
X200809523Y-43265168D01*
X202142856Y-44265168D02*
X201666666Y-44265168D01*
X201666666Y-44265168D02*
X201666666Y-43265168D01*
X202476190Y-43741358D02*
X202809523Y-43741358D01*
X202952380Y-44265168D02*
X202476190Y-44265168D01*
X202476190Y-44265168D02*
X202476190Y-43265168D01*
X202476190Y-43265168D02*
X202952380Y-43265168D01*
X203333333Y-44217549D02*
X203476190Y-44265168D01*
X203476190Y-44265168D02*
X203714285Y-44265168D01*
X203714285Y-44265168D02*
X203809523Y-44217549D01*
X203809523Y-44217549D02*
X203857142Y-44169929D01*
X203857142Y-44169929D02*
X203904761Y-44074691D01*
X203904761Y-44074691D02*
X203904761Y-43979453D01*
X203904761Y-43979453D02*
X203857142Y-43884215D01*
X203857142Y-43884215D02*
X203809523Y-43836596D01*
X203809523Y-43836596D02*
X203714285Y-43788977D01*
X203714285Y-43788977D02*
X203523809Y-43741358D01*
X203523809Y-43741358D02*
X203428571Y-43693739D01*
X203428571Y-43693739D02*
X203380952Y-43646120D01*
X203380952Y-43646120D02*
X203333333Y-43550882D01*
X203333333Y-43550882D02*
X203333333Y-43455644D01*
X203333333Y-43455644D02*
X203380952Y-43360406D01*
X203380952Y-43360406D02*
X203428571Y-43312787D01*
X203428571Y-43312787D02*
X203523809Y-43265168D01*
X203523809Y-43265168D02*
X203761904Y-43265168D01*
X203761904Y-43265168D02*
X203904761Y-43312787D01*
X216342857Y-30277619D02*
X216580952Y-31277619D01*
X216580952Y-31277619D02*
X216771428Y-30563333D01*
X216771428Y-30563333D02*
X216961904Y-31277619D01*
X216961904Y-31277619D02*
X217200000Y-30277619D01*
X217580952Y-31277619D02*
X217580952Y-30277619D01*
X218057142Y-31277619D02*
X218057142Y-30277619D01*
X218057142Y-30277619D02*
X218628570Y-31277619D01*
X218628570Y-31277619D02*
X218628570Y-30277619D01*
X219104761Y-31277619D02*
X219104761Y-30277619D01*
X219104761Y-30277619D02*
X219342856Y-30277619D01*
X219342856Y-30277619D02*
X219485713Y-30325238D01*
X219485713Y-30325238D02*
X219580951Y-30420476D01*
X219580951Y-30420476D02*
X219628570Y-30515714D01*
X219628570Y-30515714D02*
X219676189Y-30706190D01*
X219676189Y-30706190D02*
X219676189Y-30849047D01*
X219676189Y-30849047D02*
X219628570Y-31039523D01*
X219628570Y-31039523D02*
X219580951Y-31134761D01*
X219580951Y-31134761D02*
X219485713Y-31230000D01*
X219485713Y-31230000D02*
X219342856Y-31277619D01*
X219342856Y-31277619D02*
X219104761Y-31277619D01*
X221199999Y-30753809D02*
X220866666Y-30753809D01*
X220866666Y-31277619D02*
X220866666Y-30277619D01*
X220866666Y-30277619D02*
X221342856Y-30277619D01*
X221723809Y-31277619D02*
X221723809Y-30277619D01*
X222676189Y-31277619D02*
X222199999Y-31277619D01*
X222199999Y-31277619D02*
X222199999Y-30277619D01*
X222866666Y-30277619D02*
X223438094Y-30277619D01*
X223152380Y-31277619D02*
X223152380Y-30277619D01*
X223771428Y-30753809D02*
X224104761Y-30753809D01*
X224247618Y-31277619D02*
X223771428Y-31277619D01*
X223771428Y-31277619D02*
X223771428Y-30277619D01*
X223771428Y-30277619D02*
X224247618Y-30277619D01*
X225247618Y-31277619D02*
X224914285Y-30801428D01*
X224676190Y-31277619D02*
X224676190Y-30277619D01*
X224676190Y-30277619D02*
X225057142Y-30277619D01*
X225057142Y-30277619D02*
X225152380Y-30325238D01*
X225152380Y-30325238D02*
X225199999Y-30372857D01*
X225199999Y-30372857D02*
X225247618Y-30468095D01*
X225247618Y-30468095D02*
X225247618Y-30610952D01*
X225247618Y-30610952D02*
X225199999Y-30706190D01*
X225199999Y-30706190D02*
X225152380Y-30753809D01*
X225152380Y-30753809D02*
X225057142Y-30801428D01*
X225057142Y-30801428D02*
X224676190Y-30801428D01*
X226390476Y-31230000D02*
X226533333Y-31277619D01*
X226533333Y-31277619D02*
X226771428Y-31277619D01*
X226771428Y-31277619D02*
X226866666Y-31230000D01*
X226866666Y-31230000D02*
X226914285Y-31182380D01*
X226914285Y-31182380D02*
X226961904Y-31087142D01*
X226961904Y-31087142D02*
X226961904Y-30991904D01*
X226961904Y-30991904D02*
X226914285Y-30896666D01*
X226914285Y-30896666D02*
X226866666Y-30849047D01*
X226866666Y-30849047D02*
X226771428Y-30801428D01*
X226771428Y-30801428D02*
X226580952Y-30753809D01*
X226580952Y-30753809D02*
X226485714Y-30706190D01*
X226485714Y-30706190D02*
X226438095Y-30658571D01*
X226438095Y-30658571D02*
X226390476Y-30563333D01*
X226390476Y-30563333D02*
X226390476Y-30468095D01*
X226390476Y-30468095D02*
X226438095Y-30372857D01*
X226438095Y-30372857D02*
X226485714Y-30325238D01*
X226485714Y-30325238D02*
X226580952Y-30277619D01*
X226580952Y-30277619D02*
X226819047Y-30277619D01*
X226819047Y-30277619D02*
X226961904Y-30325238D01*
X227390476Y-31277619D02*
X227390476Y-30277619D01*
X227390476Y-30277619D02*
X227771428Y-30277619D01*
X227771428Y-30277619D02*
X227866666Y-30325238D01*
X227866666Y-30325238D02*
X227914285Y-30372857D01*
X227914285Y-30372857D02*
X227961904Y-30468095D01*
X227961904Y-30468095D02*
X227961904Y-30610952D01*
X227961904Y-30610952D02*
X227914285Y-30706190D01*
X227914285Y-30706190D02*
X227866666Y-30753809D01*
X227866666Y-30753809D02*
X227771428Y-30801428D01*
X227771428Y-30801428D02*
X227390476Y-30801428D01*
X228342857Y-30991904D02*
X228819047Y-30991904D01*
X228247619Y-31277619D02*
X228580952Y-30277619D01*
X228580952Y-30277619D02*
X228914285Y-31277619D01*
X229819047Y-31182380D02*
X229771428Y-31230000D01*
X229771428Y-31230000D02*
X229628571Y-31277619D01*
X229628571Y-31277619D02*
X229533333Y-31277619D01*
X229533333Y-31277619D02*
X229390476Y-31230000D01*
X229390476Y-31230000D02*
X229295238Y-31134761D01*
X229295238Y-31134761D02*
X229247619Y-31039523D01*
X229247619Y-31039523D02*
X229200000Y-30849047D01*
X229200000Y-30849047D02*
X229200000Y-30706190D01*
X229200000Y-30706190D02*
X229247619Y-30515714D01*
X229247619Y-30515714D02*
X229295238Y-30420476D01*
X229295238Y-30420476D02*
X229390476Y-30325238D01*
X229390476Y-30325238D02*
X229533333Y-30277619D01*
X229533333Y-30277619D02*
X229628571Y-30277619D01*
X229628571Y-30277619D02*
X229771428Y-30325238D01*
X229771428Y-30325238D02*
X229819047Y-30372857D01*
X230247619Y-30753809D02*
X230580952Y-30753809D01*
X230723809Y-31277619D02*
X230247619Y-31277619D01*
X230247619Y-31277619D02*
X230247619Y-30277619D01*
X230247619Y-30277619D02*
X230723809Y-30277619D01*
X231723809Y-31277619D02*
X231390476Y-30801428D01*
X231152381Y-31277619D02*
X231152381Y-30277619D01*
X231152381Y-30277619D02*
X231533333Y-30277619D01*
X231533333Y-30277619D02*
X231628571Y-30325238D01*
X231628571Y-30325238D02*
X231676190Y-30372857D01*
X231676190Y-30372857D02*
X231723809Y-30468095D01*
X231723809Y-30468095D02*
X231723809Y-30610952D01*
X231723809Y-30610952D02*
X231676190Y-30706190D01*
X231676190Y-30706190D02*
X231628571Y-30753809D01*
X231628571Y-30753809D02*
X231533333Y-30801428D01*
X231533333Y-30801428D02*
X231152381Y-30801428D01*
X209277619Y-54761904D02*
X208277619Y-54761904D01*
X208277619Y-54761904D02*
X208991904Y-54428571D01*
X208991904Y-54428571D02*
X208277619Y-54095238D01*
X208277619Y-54095238D02*
X209277619Y-54095238D01*
X209277619Y-53619047D02*
X208277619Y-53619047D01*
X209182380Y-52571429D02*
X209230000Y-52619048D01*
X209230000Y-52619048D02*
X209277619Y-52761905D01*
X209277619Y-52761905D02*
X209277619Y-52857143D01*
X209277619Y-52857143D02*
X209230000Y-53000000D01*
X209230000Y-53000000D02*
X209134761Y-53095238D01*
X209134761Y-53095238D02*
X209039523Y-53142857D01*
X209039523Y-53142857D02*
X208849047Y-53190476D01*
X208849047Y-53190476D02*
X208706190Y-53190476D01*
X208706190Y-53190476D02*
X208515714Y-53142857D01*
X208515714Y-53142857D02*
X208420476Y-53095238D01*
X208420476Y-53095238D02*
X208325238Y-53000000D01*
X208325238Y-53000000D02*
X208277619Y-52857143D01*
X208277619Y-52857143D02*
X208277619Y-52761905D01*
X208277619Y-52761905D02*
X208325238Y-52619048D01*
X208325238Y-52619048D02*
X208372857Y-52571429D01*
X209277619Y-51571429D02*
X208801428Y-51904762D01*
X209277619Y-52142857D02*
X208277619Y-52142857D01*
X208277619Y-52142857D02*
X208277619Y-51761905D01*
X208277619Y-51761905D02*
X208325238Y-51666667D01*
X208325238Y-51666667D02*
X208372857Y-51619048D01*
X208372857Y-51619048D02*
X208468095Y-51571429D01*
X208468095Y-51571429D02*
X208610952Y-51571429D01*
X208610952Y-51571429D02*
X208706190Y-51619048D01*
X208706190Y-51619048D02*
X208753809Y-51666667D01*
X208753809Y-51666667D02*
X208801428Y-51761905D01*
X208801428Y-51761905D02*
X208801428Y-52142857D01*
X208277619Y-50952381D02*
X208277619Y-50761905D01*
X208277619Y-50761905D02*
X208325238Y-50666667D01*
X208325238Y-50666667D02*
X208420476Y-50571429D01*
X208420476Y-50571429D02*
X208610952Y-50523810D01*
X208610952Y-50523810D02*
X208944285Y-50523810D01*
X208944285Y-50523810D02*
X209134761Y-50571429D01*
X209134761Y-50571429D02*
X209230000Y-50666667D01*
X209230000Y-50666667D02*
X209277619Y-50761905D01*
X209277619Y-50761905D02*
X209277619Y-50952381D01*
X209277619Y-50952381D02*
X209230000Y-51047619D01*
X209230000Y-51047619D02*
X209134761Y-51142857D01*
X209134761Y-51142857D02*
X208944285Y-51190476D01*
X208944285Y-51190476D02*
X208610952Y-51190476D01*
X208610952Y-51190476D02*
X208420476Y-51142857D01*
X208420476Y-51142857D02*
X208325238Y-51047619D01*
X208325238Y-51047619D02*
X208277619Y-50952381D01*
X209277619Y-50095238D02*
X208277619Y-50095238D01*
X208277619Y-50095238D02*
X208277619Y-49714286D01*
X208277619Y-49714286D02*
X208325238Y-49619048D01*
X208325238Y-49619048D02*
X208372857Y-49571429D01*
X208372857Y-49571429D02*
X208468095Y-49523810D01*
X208468095Y-49523810D02*
X208610952Y-49523810D01*
X208610952Y-49523810D02*
X208706190Y-49571429D01*
X208706190Y-49571429D02*
X208753809Y-49619048D01*
X208753809Y-49619048D02*
X208801428Y-49714286D01*
X208801428Y-49714286D02*
X208801428Y-50095238D01*
X209277619Y-49095238D02*
X208277619Y-49095238D01*
X208753809Y-49095238D02*
X208753809Y-48523810D01*
X209277619Y-48523810D02*
X208277619Y-48523810D01*
X208277619Y-47857143D02*
X208277619Y-47666667D01*
X208277619Y-47666667D02*
X208325238Y-47571429D01*
X208325238Y-47571429D02*
X208420476Y-47476191D01*
X208420476Y-47476191D02*
X208610952Y-47428572D01*
X208610952Y-47428572D02*
X208944285Y-47428572D01*
X208944285Y-47428572D02*
X209134761Y-47476191D01*
X209134761Y-47476191D02*
X209230000Y-47571429D01*
X209230000Y-47571429D02*
X209277619Y-47666667D01*
X209277619Y-47666667D02*
X209277619Y-47857143D01*
X209277619Y-47857143D02*
X209230000Y-47952381D01*
X209230000Y-47952381D02*
X209134761Y-48047619D01*
X209134761Y-48047619D02*
X208944285Y-48095238D01*
X208944285Y-48095238D02*
X208610952Y-48095238D01*
X208610952Y-48095238D02*
X208420476Y-48047619D01*
X208420476Y-48047619D02*
X208325238Y-47952381D01*
X208325238Y-47952381D02*
X208277619Y-47857143D01*
X209277619Y-47000000D02*
X208277619Y-47000000D01*
X208277619Y-47000000D02*
X209277619Y-46428572D01*
X209277619Y-46428572D02*
X208277619Y-46428572D01*
X208753809Y-45952381D02*
X208753809Y-45619048D01*
X209277619Y-45476191D02*
X209277619Y-45952381D01*
X209277619Y-45952381D02*
X208277619Y-45952381D01*
X208277619Y-45952381D02*
X208277619Y-45476191D01*
X209277619Y-44285714D02*
X208277619Y-44285714D01*
X208277619Y-44285714D02*
X208277619Y-43904762D01*
X208277619Y-43904762D02*
X208325238Y-43809524D01*
X208325238Y-43809524D02*
X208372857Y-43761905D01*
X208372857Y-43761905D02*
X208468095Y-43714286D01*
X208468095Y-43714286D02*
X208610952Y-43714286D01*
X208610952Y-43714286D02*
X208706190Y-43761905D01*
X208706190Y-43761905D02*
X208753809Y-43809524D01*
X208753809Y-43809524D02*
X208801428Y-43904762D01*
X208801428Y-43904762D02*
X208801428Y-44285714D01*
X208753809Y-43285714D02*
X208753809Y-42952381D01*
X209277619Y-42809524D02*
X209277619Y-43285714D01*
X209277619Y-43285714D02*
X208277619Y-43285714D01*
X208277619Y-43285714D02*
X208277619Y-42809524D01*
X209277619Y-41809524D02*
X208801428Y-42142857D01*
X209277619Y-42380952D02*
X208277619Y-42380952D01*
X208277619Y-42380952D02*
X208277619Y-42000000D01*
X208277619Y-42000000D02*
X208325238Y-41904762D01*
X208325238Y-41904762D02*
X208372857Y-41857143D01*
X208372857Y-41857143D02*
X208468095Y-41809524D01*
X208468095Y-41809524D02*
X208610952Y-41809524D01*
X208610952Y-41809524D02*
X208706190Y-41857143D01*
X208706190Y-41857143D02*
X208753809Y-41904762D01*
X208753809Y-41904762D02*
X208801428Y-42000000D01*
X208801428Y-42000000D02*
X208801428Y-42380952D01*
X209277619Y-41380952D02*
X208277619Y-41380952D01*
X209277619Y-40904762D02*
X208277619Y-40904762D01*
X208277619Y-40904762D02*
X208991904Y-40571429D01*
X208991904Y-40571429D02*
X208277619Y-40238096D01*
X208277619Y-40238096D02*
X209277619Y-40238096D01*
X208753809Y-39761905D02*
X208753809Y-39428572D01*
X209277619Y-39285715D02*
X209277619Y-39761905D01*
X209277619Y-39761905D02*
X208277619Y-39761905D01*
X208277619Y-39761905D02*
X208277619Y-39285715D01*
X208277619Y-39000000D02*
X208277619Y-38428572D01*
X209277619Y-38714286D02*
X208277619Y-38714286D01*
X208753809Y-38095238D02*
X208753809Y-37761905D01*
X209277619Y-37619048D02*
X209277619Y-38095238D01*
X209277619Y-38095238D02*
X208277619Y-38095238D01*
X208277619Y-38095238D02*
X208277619Y-37619048D01*
X209277619Y-36619048D02*
X208801428Y-36952381D01*
X209277619Y-37190476D02*
X208277619Y-37190476D01*
X208277619Y-37190476D02*
X208277619Y-36809524D01*
X208277619Y-36809524D02*
X208325238Y-36714286D01*
X208325238Y-36714286D02*
X208372857Y-36666667D01*
X208372857Y-36666667D02*
X208468095Y-36619048D01*
X208468095Y-36619048D02*
X208610952Y-36619048D01*
X208610952Y-36619048D02*
X208706190Y-36666667D01*
X208706190Y-36666667D02*
X208753809Y-36714286D01*
X208753809Y-36714286D02*
X208801428Y-36809524D01*
X208801428Y-36809524D02*
X208801428Y-37190476D01*
D12*
%TO.C,SW101*%
X104425000Y-62050000D02*
X101725000Y-62050000D01*
X101725000Y-62050000D02*
X101725000Y-60750000D01*
X101725000Y-60750000D02*
X104425000Y-60750000D01*
X104425000Y-60750000D02*
X104425000Y-62050000D01*
%TO.C,SW102*%
X111925000Y-60750000D02*
X114625000Y-60750000D01*
X114625000Y-60750000D02*
X114625000Y-62050000D01*
X114625000Y-62050000D02*
X111925000Y-62050000D01*
X111925000Y-62050000D02*
X111925000Y-60750000D01*
%TD*%
D13*
X153000000Y-92000000D02*
G75*
G03*
X158000000Y-87000000I0J5000000D01*
G01*
X158000000Y-37000000D02*
G75*
G03*
X153000000Y-32000000I-5000000J0D01*
G01*
X158000000Y-87000000D02*
X158000000Y-37000000D01*
X153000000Y-32000000D02*
X148500000Y-32000000D01*
X98000000Y-87000000D02*
G75*
G03*
X103000000Y-92000000I5000000J0D01*
G01*
X103000000Y-32000000D02*
G75*
G03*
X98000000Y-37000000I0J-5000000D01*
G01*
X148500000Y-92000000D02*
X153000000Y-92000000D01*
X33500000Y-32000000D02*
X29000000Y-32000000D01*
X24000000Y-37000000D02*
X24000000Y-87000000D01*
X79000000Y-92000000D02*
G75*
G03*
X84000000Y-87000000I0J5000000D01*
G01*
X24000000Y-87000000D02*
G75*
G03*
X29000000Y-92000000I5000000J0D01*
G01*
X29000000Y-32000000D02*
G75*
G03*
X24000000Y-37000000I0J-5000000D01*
G01*
X29000000Y-92000000D02*
X33500000Y-92000000D01*
X83999937Y-36975063D02*
G75*
G03*
X79000001Y-31975063I-4999937J63D01*
G01*
X108750000Y-93000000D02*
X108750000Y-94000000D01*
X113250000Y-93000000D02*
X113250000Y-94000000D01*
X114500000Y-92000000D02*
X114250000Y-92000000D01*
X107750000Y-92000000D02*
X107500000Y-92000000D01*
X74500000Y-92000000D02*
X74250000Y-92000000D01*
X108750000Y-93000000D02*
G75*
G03*
X107750000Y-92000000I-1000000J0D01*
G01*
X114250000Y-92000000D02*
G75*
G03*
X113250000Y-93000000I0J-1000000D01*
G01*
X107500000Y-92000000D02*
X103000000Y-92000000D01*
X112250000Y-95000000D02*
G75*
G03*
X113250000Y-94000000I0J1000000D01*
G01*
X74250000Y-92000000D02*
G75*
G03*
X73250000Y-93000000I0J-1000000D01*
G01*
X68750000Y-93000000D02*
G75*
G03*
X67750000Y-92000000I-1000000J0D01*
G01*
X68750000Y-94000000D02*
G75*
G03*
X69750000Y-95000000I1000000J0D01*
G01*
X72250000Y-95000000D02*
X69750000Y-95000000D01*
X72250000Y-95000000D02*
G75*
G03*
X73250000Y-94000000I0J1000000D01*
G01*
X68750000Y-93000000D02*
X68750000Y-94000000D01*
X73250000Y-93000000D02*
X73250000Y-94000000D01*
X141500000Y-92000000D02*
X114500000Y-92000000D01*
X40201249Y-92000000D02*
X67750000Y-92000000D01*
X74500000Y-92000000D02*
X79000000Y-92000000D01*
X40500000Y-32000000D02*
X67500000Y-32000000D01*
X74500000Y-32000000D02*
X79000001Y-31975063D01*
X141500000Y-32000000D02*
X114500000Y-32000000D01*
X107500000Y-32000000D02*
X103000000Y-32000000D01*
X98000000Y-37000000D02*
X98000000Y-87000000D01*
X84000000Y-71250000D02*
X84000000Y-87000000D01*
X112250000Y-95000000D02*
X109750000Y-95000000D01*
X228500000Y-34500000D02*
G75*
G03*
X227500000Y-33500000I-1000000J0D01*
G01*
X231000000Y-33000000D02*
G75*
G03*
X232000000Y-34000000I1000000J0D01*
G01*
X224500000Y-58500000D02*
X227500000Y-58500000D01*
X182000000Y-33000000D02*
G75*
G03*
X183000000Y-34000000I1000000J0D01*
G01*
X82000000Y-69250000D02*
G75*
G03*
X83000000Y-70250000I1000000J0D01*
G01*
X146250000Y-95000000D02*
G75*
G03*
X147250000Y-94000000I0J1000000D01*
G01*
X142750000Y-31000000D02*
X142750000Y-30000000D01*
X73250000Y-30000000D02*
G75*
G03*
X72250000Y-29000000I-1000000J0D01*
G01*
X147250000Y-93000000D02*
X147250000Y-94000000D01*
X189500000Y-56000000D02*
X189500000Y-57500000D01*
X35750000Y-29000000D02*
G75*
G03*
X34750000Y-30000000I0J-1000000D01*
G01*
X141750000Y-92000000D02*
X141500000Y-92000000D01*
X74250000Y-32000000D02*
X74500000Y-32000000D01*
X193500000Y-58500000D02*
G75*
G03*
X194500000Y-57500000I0J1000000D01*
G01*
X243000000Y-55000000D02*
X243000000Y-34000000D01*
X235000000Y-34000000D02*
G75*
G03*
X236000000Y-33000000I0J1000000D01*
G01*
X223500000Y-56000000D02*
X223500000Y-57500000D01*
X39250000Y-93000000D02*
X39250000Y-94000000D01*
X223500000Y-57500000D02*
G75*
G03*
X224500000Y-58500000I1000000J0D01*
G01*
X141500000Y-32000000D02*
X141750000Y-32000000D01*
X147250000Y-30000000D02*
G75*
G03*
X146250000Y-29000000I-1000000J0D01*
G01*
X67750000Y-32000000D02*
G75*
G03*
X68750000Y-31000000I0J1000000D01*
G01*
X241000000Y-70000000D02*
G75*
G03*
X243000000Y-68000000I0J2000000D01*
G01*
X194500000Y-56000000D02*
G75*
G03*
X193500000Y-55000000I-1000000J0D01*
G01*
X34750000Y-31000000D02*
X34750000Y-30000000D01*
X35750000Y-29000000D02*
X38250000Y-29000000D01*
X193500000Y-33500000D02*
X190500000Y-33500000D01*
X33500000Y-32000000D02*
X33750000Y-32000000D01*
X243000000Y-68000000D02*
X243000000Y-55000000D01*
X34750000Y-93000000D02*
G75*
G03*
X33750000Y-92000000I-1000000J0D01*
G01*
X33750000Y-92000000D02*
X33500000Y-92000000D01*
X232000000Y-34000000D02*
X235000000Y-34000000D01*
X40201249Y-91999999D02*
G75*
G03*
X39250000Y-93000000I24351J-975601D01*
G01*
X38250000Y-95000000D02*
X35750000Y-95000000D01*
X142750000Y-93000000D02*
G75*
G03*
X141750000Y-92000000I-1000000J0D01*
G01*
X183000000Y-34000000D02*
X186000000Y-34000000D01*
X223500000Y-34500000D02*
X223500000Y-36000000D01*
X193500000Y-55000000D02*
X190500000Y-55000000D01*
X183000000Y-68000000D02*
G75*
G03*
X182000000Y-69000000I0J-1000000D01*
G01*
X190500000Y-58500000D02*
X193500000Y-58500000D01*
X194500000Y-57500000D02*
X194500000Y-56000000D01*
X228500000Y-36000000D02*
X228500000Y-34500000D01*
X235000000Y-68000000D02*
X232000000Y-68000000D01*
X224500000Y-37000000D02*
X227500000Y-37000000D01*
X113250000Y-31000000D02*
G75*
G03*
X114250000Y-32000000I1000000J0D01*
G01*
X113250000Y-30000000D02*
G75*
G03*
X112250000Y-29000000I-1000000J0D01*
G01*
X34750000Y-94000000D02*
G75*
G03*
X35750000Y-95000000I1000000J0D01*
G01*
X83000000Y-53925000D02*
G75*
G03*
X84000000Y-52925000I0J1000000D01*
G01*
X194500000Y-34500000D02*
G75*
G03*
X193500000Y-33500000I-1000000J0D01*
G01*
X187000000Y-69000000D02*
G75*
G03*
X188000000Y-70000000I1000000J0D01*
G01*
X147250000Y-31000000D02*
G75*
G03*
X148250000Y-32000000I1000000J0D01*
G01*
X175000000Y-68000000D02*
G75*
G03*
X177000000Y-70000000I2000000J0D01*
G01*
X39250000Y-31000000D02*
X39250000Y-30000000D01*
X236000000Y-69000000D02*
G75*
G03*
X237000000Y-70000000I1000000J0D01*
G01*
X237000000Y-32000000D02*
G75*
G03*
X236000000Y-33000000I0J-1000000D01*
G01*
X190500000Y-33500000D02*
G75*
G03*
X189500000Y-34500000I0J-1000000D01*
G01*
X227500000Y-37000000D02*
G75*
G03*
X228500000Y-36000000I0J1000000D01*
G01*
X236000000Y-69000000D02*
G75*
G03*
X235000000Y-68000000I-1000000J0D01*
G01*
X147250000Y-31000000D02*
X147250000Y-30000000D01*
X84000000Y-71250000D02*
G75*
G03*
X83000000Y-70250000I-1000000J0D01*
G01*
X223500000Y-36000000D02*
G75*
G03*
X224500000Y-37000000I1000000J0D01*
G01*
X67500000Y-32000000D02*
X67750000Y-32000000D01*
X40250000Y-32000000D02*
X40500000Y-32000000D01*
X109750000Y-29000000D02*
G75*
G03*
X108750000Y-30000000I0J-1000000D01*
G01*
X224500000Y-55000000D02*
G75*
G03*
X223500000Y-56000000I0J-1000000D01*
G01*
X188000000Y-70000000D02*
X230000000Y-70000000D01*
X83000000Y-53925000D02*
G75*
G03*
X82000000Y-54925000I0J-1000000D01*
G01*
X114250000Y-32000000D02*
X114500000Y-32000000D01*
X113250000Y-31000000D02*
X113250000Y-30000000D01*
X230000000Y-32000000D02*
X188000000Y-32000000D01*
X188000000Y-32000000D02*
G75*
G03*
X187000000Y-33000000I0J-1000000D01*
G01*
X228500000Y-56000000D02*
G75*
G03*
X227500000Y-55000000I-1000000J0D01*
G01*
X228500000Y-57500000D02*
X228500000Y-56000000D01*
X143750000Y-29000000D02*
X146250000Y-29000000D01*
X69750000Y-29000000D02*
X72250000Y-29000000D01*
X190500000Y-37000000D02*
X193500000Y-37000000D01*
X181000000Y-70000000D02*
X177000000Y-70000000D01*
X142750000Y-94000000D02*
G75*
G03*
X143750000Y-95000000I1000000J0D01*
G01*
X189500000Y-57500000D02*
G75*
G03*
X190500000Y-58500000I1000000J0D01*
G01*
X227500000Y-33500000D02*
X224500000Y-33500000D01*
X107500000Y-32000000D02*
X107750000Y-32000000D01*
X193500000Y-37000000D02*
G75*
G03*
X194500000Y-36000000I0J1000000D01*
G01*
X177000000Y-32000000D02*
G75*
G03*
X175000000Y-34000000I0J-2000000D01*
G01*
X34750000Y-93000000D02*
X34750000Y-94000000D01*
X186000000Y-34000000D02*
G75*
G03*
X187000000Y-33000000I0J1000000D01*
G01*
X39250000Y-31000000D02*
G75*
G03*
X40250000Y-32000000I1000000J0D01*
G01*
X84000000Y-52925000D02*
X84000000Y-36975063D01*
X230000000Y-70000000D02*
G75*
G03*
X231000000Y-69000000I0J1000000D01*
G01*
X107750000Y-32000000D02*
G75*
G03*
X108750000Y-31000000I0J1000000D01*
G01*
X73250000Y-31000000D02*
X73250000Y-30000000D01*
X243000000Y-34000000D02*
G75*
G03*
X241000000Y-32000000I-2000000J0D01*
G01*
X227500000Y-58500000D02*
G75*
G03*
X228500000Y-57500000I0J1000000D01*
G01*
X189500000Y-36000000D02*
G75*
G03*
X190500000Y-37000000I1000000J0D01*
G01*
X68750000Y-31000000D02*
X68750000Y-30000000D01*
X39250000Y-30000000D02*
G75*
G03*
X38250000Y-29000000I-1000000J0D01*
G01*
X186000000Y-68000000D02*
X183000000Y-68000000D01*
X241000000Y-70000000D02*
X237000000Y-70000000D01*
X33750000Y-32000000D02*
G75*
G03*
X34750000Y-31000000I0J1000000D01*
G01*
X148500000Y-92000000D02*
X148250000Y-92000000D01*
X181000000Y-70000000D02*
G75*
G03*
X182000000Y-69000000I0J1000000D01*
G01*
X73250000Y-31000000D02*
G75*
G03*
X74250000Y-32000000I1000000J0D01*
G01*
X194500000Y-36000000D02*
X194500000Y-34500000D01*
X108750000Y-94000000D02*
G75*
G03*
X109750000Y-95000000I1000000J0D01*
G01*
X190500000Y-55000000D02*
G75*
G03*
X189500000Y-56000000I0J-1000000D01*
G01*
X181000000Y-32000000D02*
X177000000Y-32000000D01*
X231000000Y-33000000D02*
G75*
G03*
X230000000Y-32000000I-1000000J0D01*
G01*
X148250000Y-32000000D02*
X148500000Y-32000000D01*
X227500000Y-55000000D02*
X224500000Y-55000000D01*
X224500000Y-33500000D02*
G75*
G03*
X223500000Y-34500000I0J-1000000D01*
G01*
X82000000Y-54925000D02*
X82000000Y-69250000D01*
X109750000Y-29000000D02*
X112250000Y-29000000D01*
X143750000Y-29000000D02*
G75*
G03*
X142750000Y-30000000I0J-1000000D01*
G01*
X108750000Y-31000000D02*
X108750000Y-30000000D01*
X182000000Y-33000000D02*
G75*
G03*
X181000000Y-32000000I-1000000J0D01*
G01*
X175000000Y-34000000D02*
X175000000Y-68000000D01*
X38250000Y-95000000D02*
G75*
G03*
X39250000Y-94000000I0J1000000D01*
G01*
X187000000Y-69000000D02*
G75*
G03*
X186000000Y-68000000I-1000000J0D01*
G01*
X148250000Y-92000000D02*
G75*
G03*
X147250000Y-93000000I0J-1000000D01*
G01*
X189500000Y-34500000D02*
X189500000Y-36000000D01*
X141750000Y-32000000D02*
G75*
G03*
X142750000Y-31000000I0J1000000D01*
G01*
X237000000Y-32000000D02*
X241000000Y-32000000D01*
X142750000Y-93000000D02*
X142750000Y-94000000D01*
X69750000Y-29000000D02*
G75*
G03*
X68750000Y-30000000I0J-1000000D01*
G01*
X146250000Y-95000000D02*
X143750000Y-95000000D01*
X232000000Y-68000000D02*
G75*
G03*
X231000000Y-69000000I0J-1000000D01*
G01*
M02*
