%TF.GenerationSoftware,KiCad,Pcbnew,5.1.6-c6e7f7d~86~ubuntu18.04.1*%
%TF.CreationDate,2020-07-05T20:54:57+02:00*%
%TF.ProjectId,kleinvoet,6b6c6569-6e76-46f6-9574-2e6b69636164,Rev. A*%
%TF.SameCoordinates,Original*%
%TF.FileFunction,Soldermask,Bot*%
%TF.FilePolarity,Negative*%
%FSLAX46Y46*%
G04 Gerber Fmt 4.6, Leading zero omitted, Abs format (unit mm)*
G04 Created by KiCad (PCBNEW 5.1.6-c6e7f7d~86~ubuntu18.04.1) date 2020-07-05 20:54:57*
%MOMM*%
%LPD*%
G01*
G04 APERTURE LIST*
%ADD10C,0.450000*%
%ADD11C,0.010000*%
%ADD12O,1.100000X1.100000*%
%ADD13R,1.100000X1.100000*%
%ADD14C,0.900000*%
%ADD15C,6.500000*%
%ADD16C,0.735000*%
%ADD17C,0.700000*%
%ADD18O,1.800000X1.800000*%
%ADD19R,1.800000X1.800000*%
%ADD20C,4.800000*%
%ADD21O,2.050000X1.050000*%
%ADD22C,0.750000*%
%ADD23O,0.750000X1.000000*%
%ADD24R,1.260000X1.350000*%
%ADD25R,1.600000X1.250000*%
%ADD26R,1.250000X2.300000*%
%ADD27R,1.050000X2.600000*%
%ADD28R,0.900000X1.350000*%
%ADD29O,1.450000X1.450000*%
%ADD30R,1.450000X1.450000*%
%ADD31C,17.900000*%
%ADD32C,0.100000*%
G04 APERTURE END LIST*
D10*
X118175213Y-105704313D02*
X116760999Y-104290099D01*
X117367090Y-106512435D02*
X117165060Y-105098222D01*
X115952877Y-105098222D02*
X117569121Y-105098222D01*
X116087564Y-107791962D02*
X116760999Y-107118527D01*
X115346785Y-105704313D01*
X114875381Y-107522588D02*
X114403976Y-107993992D01*
X114942724Y-108936801D02*
X115616159Y-108263366D01*
X114201946Y-106849153D01*
X113528511Y-107522588D01*
X114336633Y-109542893D02*
X112922419Y-108128679D01*
X113663198Y-110216328D02*
X112248984Y-108802114D01*
X112855076Y-111024450D01*
X111440862Y-109610236D01*
X110969458Y-110081641D02*
X111912267Y-111967259D01*
X110026649Y-111024450D01*
X109285870Y-111765228D02*
X109016496Y-112034602D01*
X108949153Y-112236633D01*
X108949153Y-112506007D01*
X109151183Y-112842724D01*
X109622588Y-113314129D01*
X109959305Y-113516159D01*
X110228679Y-113516159D01*
X110430710Y-113448816D01*
X110700084Y-113179442D01*
X110767427Y-112977411D01*
X110767427Y-112708037D01*
X110565397Y-112371320D01*
X110093992Y-111899915D01*
X109757275Y-111697885D01*
X109487901Y-111697885D01*
X109285870Y-111765228D01*
X108747122Y-113650846D02*
X108275718Y-114122251D01*
X108814466Y-115065060D02*
X109487901Y-114391625D01*
X108073687Y-112977411D01*
X107400252Y-113650846D01*
X106996191Y-114054907D02*
X106188069Y-114863029D01*
X108006344Y-115873182D02*
X106592130Y-114458968D01*
D11*
%TO.C,G\u002A\u002A\u002A*%
G36*
X108256271Y-143363280D02*
G01*
X108360584Y-143322376D01*
X108456355Y-143252717D01*
X108401278Y-143203952D01*
X108369646Y-143191313D01*
X108227620Y-143190155D01*
X108182567Y-143226664D01*
X108161274Y-143339131D01*
X108256271Y-143363280D01*
G37*
X108256271Y-143363280D02*
X108360584Y-143322376D01*
X108456355Y-143252717D01*
X108401278Y-143203952D01*
X108369646Y-143191313D01*
X108227620Y-143190155D01*
X108182567Y-143226664D01*
X108161274Y-143339131D01*
X108256271Y-143363280D01*
G36*
X108106083Y-137142609D02*
G01*
X108211629Y-137304400D01*
X108350831Y-137415715D01*
X108475785Y-137423155D01*
X108476127Y-137422945D01*
X108555071Y-137307293D01*
X108513610Y-137115277D01*
X108429129Y-136952000D01*
X108305527Y-136740334D01*
X108359491Y-137015500D01*
X108382530Y-137226432D01*
X108347404Y-137279943D01*
X108267393Y-137172136D01*
X108215246Y-137057834D01*
X108145025Y-136911613D01*
X108103687Y-136913361D01*
X108082097Y-136983738D01*
X108106083Y-137142609D01*
G37*
X108106083Y-137142609D02*
X108211629Y-137304400D01*
X108350831Y-137415715D01*
X108475785Y-137423155D01*
X108476127Y-137422945D01*
X108555071Y-137307293D01*
X108513610Y-137115277D01*
X108429129Y-136952000D01*
X108305527Y-136740334D01*
X108359491Y-137015500D01*
X108382530Y-137226432D01*
X108347404Y-137279943D01*
X108267393Y-137172136D01*
X108215246Y-137057834D01*
X108145025Y-136911613D01*
X108103687Y-136913361D01*
X108082097Y-136983738D01*
X108106083Y-137142609D01*
G36*
X108444488Y-135824763D02*
G01*
X108505834Y-135777467D01*
X108637463Y-135653886D01*
X108636891Y-135598724D01*
X108622034Y-135597334D01*
X108551359Y-135655193D01*
X108473867Y-135745500D01*
X108400643Y-135845787D01*
X108444488Y-135824763D01*
G37*
X108444488Y-135824763D02*
X108505834Y-135777467D01*
X108637463Y-135653886D01*
X108636891Y-135598724D01*
X108622034Y-135597334D01*
X108551359Y-135655193D01*
X108473867Y-135745500D01*
X108400643Y-135845787D01*
X108444488Y-135824763D01*
G36*
X107589799Y-140459795D02*
G01*
X107593468Y-140521543D01*
X107622266Y-140881726D01*
X107659987Y-141196924D01*
X107699822Y-141413514D01*
X107711767Y-141452876D01*
X107745075Y-141677416D01*
X107721187Y-141822479D01*
X107687061Y-141980023D01*
X107649615Y-142258672D01*
X107614799Y-142610452D01*
X107600421Y-142796145D01*
X107577490Y-143184985D01*
X107576984Y-143449187D01*
X107603391Y-143632491D01*
X107661197Y-143778641D01*
X107709714Y-143861769D01*
X107865059Y-144065650D01*
X108046025Y-144243281D01*
X108218346Y-144369625D01*
X108347752Y-144419647D01*
X108399978Y-144368308D01*
X108400000Y-144366099D01*
X108341261Y-144250044D01*
X108286122Y-144233334D01*
X108096475Y-144155383D01*
X107946799Y-143946351D01*
X107858485Y-143643467D01*
X107843948Y-143463796D01*
X107829515Y-143211365D01*
X107799558Y-143034662D01*
X107780311Y-142992756D01*
X107732000Y-142854102D01*
X107719932Y-142619758D01*
X107739658Y-142358405D01*
X107786729Y-142138725D01*
X107842129Y-142038256D01*
X107921340Y-141984327D01*
X107980083Y-142001758D01*
X108039899Y-142118799D01*
X108122331Y-142363701D01*
X108144978Y-142435438D01*
X108232967Y-142662654D01*
X108321724Y-142753306D01*
X108407687Y-142749227D01*
X108573186Y-142774050D01*
X108645142Y-142853789D01*
X108713767Y-142955538D01*
X108734267Y-142901598D01*
X108736092Y-142835533D01*
X108671594Y-142660962D01*
X108562916Y-142555641D01*
X108399767Y-142386351D01*
X108223427Y-142096092D01*
X108053261Y-141730073D01*
X107908638Y-141333498D01*
X107808923Y-140951574D01*
X107776388Y-140719667D01*
X107740761Y-140405067D01*
X107686782Y-140129987D01*
X107644813Y-140000000D01*
X107600672Y-139927939D01*
X107577950Y-139968762D01*
X107574906Y-140140154D01*
X107589799Y-140459795D01*
G37*
X107589799Y-140459795D02*
X107593468Y-140521543D01*
X107622266Y-140881726D01*
X107659987Y-141196924D01*
X107699822Y-141413514D01*
X107711767Y-141452876D01*
X107745075Y-141677416D01*
X107721187Y-141822479D01*
X107687061Y-141980023D01*
X107649615Y-142258672D01*
X107614799Y-142610452D01*
X107600421Y-142796145D01*
X107577490Y-143184985D01*
X107576984Y-143449187D01*
X107603391Y-143632491D01*
X107661197Y-143778641D01*
X107709714Y-143861769D01*
X107865059Y-144065650D01*
X108046025Y-144243281D01*
X108218346Y-144369625D01*
X108347752Y-144419647D01*
X108399978Y-144368308D01*
X108400000Y-144366099D01*
X108341261Y-144250044D01*
X108286122Y-144233334D01*
X108096475Y-144155383D01*
X107946799Y-143946351D01*
X107858485Y-143643467D01*
X107843948Y-143463796D01*
X107829515Y-143211365D01*
X107799558Y-143034662D01*
X107780311Y-142992756D01*
X107732000Y-142854102D01*
X107719932Y-142619758D01*
X107739658Y-142358405D01*
X107786729Y-142138725D01*
X107842129Y-142038256D01*
X107921340Y-141984327D01*
X107980083Y-142001758D01*
X108039899Y-142118799D01*
X108122331Y-142363701D01*
X108144978Y-142435438D01*
X108232967Y-142662654D01*
X108321724Y-142753306D01*
X108407687Y-142749227D01*
X108573186Y-142774050D01*
X108645142Y-142853789D01*
X108713767Y-142955538D01*
X108734267Y-142901598D01*
X108736092Y-142835533D01*
X108671594Y-142660962D01*
X108562916Y-142555641D01*
X108399767Y-142386351D01*
X108223427Y-142096092D01*
X108053261Y-141730073D01*
X107908638Y-141333498D01*
X107808923Y-140951574D01*
X107776388Y-140719667D01*
X107740761Y-140405067D01*
X107686782Y-140129987D01*
X107644813Y-140000000D01*
X107600672Y-139927939D01*
X107577950Y-139968762D01*
X107574906Y-140140154D01*
X107589799Y-140459795D01*
G36*
X108781000Y-135597334D02*
G01*
X108823334Y-135555000D01*
X108781000Y-135512667D01*
X108738667Y-135555000D01*
X108781000Y-135597334D01*
G37*
X108781000Y-135597334D02*
X108823334Y-135555000D01*
X108781000Y-135512667D01*
X108738667Y-135555000D01*
X108781000Y-135597334D01*
G36*
X108493273Y-140439026D02*
G01*
X108496641Y-140445707D01*
X108542638Y-140603410D01*
X108530310Y-140671978D01*
X108521245Y-140804653D01*
X108576398Y-140984898D01*
X108664623Y-141136302D01*
X108739550Y-141185334D01*
X108786050Y-141127990D01*
X108753254Y-141037167D01*
X108627479Y-140619886D01*
X108634735Y-140156016D01*
X108743689Y-139773979D01*
X108834716Y-139547474D01*
X108854263Y-139454814D01*
X108804803Y-139477509D01*
X108780235Y-139500723D01*
X108635061Y-139708106D01*
X108525620Y-139977677D01*
X108471746Y-140243347D01*
X108493273Y-140439026D01*
G37*
X108493273Y-140439026D02*
X108496641Y-140445707D01*
X108542638Y-140603410D01*
X108530310Y-140671978D01*
X108521245Y-140804653D01*
X108576398Y-140984898D01*
X108664623Y-141136302D01*
X108739550Y-141185334D01*
X108786050Y-141127990D01*
X108753254Y-141037167D01*
X108627479Y-140619886D01*
X108634735Y-140156016D01*
X108743689Y-139773979D01*
X108834716Y-139547474D01*
X108854263Y-139454814D01*
X108804803Y-139477509D01*
X108780235Y-139500723D01*
X108635061Y-139708106D01*
X108525620Y-139977677D01*
X108471746Y-140243347D01*
X108493273Y-140439026D01*
G36*
X107557873Y-137659773D02*
G01*
X107605223Y-137934555D01*
X107670941Y-138205989D01*
X107744397Y-138568514D01*
X107752287Y-138815081D01*
X107732719Y-138883322D01*
X107675343Y-139053472D01*
X107621290Y-139308992D01*
X107606309Y-139407334D01*
X107554953Y-139788334D01*
X107674702Y-139492000D01*
X107757102Y-139245557D01*
X107799744Y-139036090D01*
X107800892Y-139017908D01*
X107843220Y-138870764D01*
X107943572Y-138664238D01*
X108073071Y-138445120D01*
X108202843Y-138260203D01*
X108304012Y-138156278D01*
X108336379Y-138150173D01*
X108424872Y-138122071D01*
X108553401Y-138024752D01*
X108716172Y-137921802D01*
X108874191Y-137950368D01*
X108895391Y-137961252D01*
X109106723Y-138043738D01*
X109228647Y-138026988D01*
X109246667Y-137977875D01*
X109176302Y-137897467D01*
X109056167Y-137842243D01*
X108771510Y-137761590D01*
X108617406Y-137746918D01*
X108569393Y-137796062D01*
X108569334Y-137799198D01*
X108500100Y-137872269D01*
X108432459Y-137883334D01*
X108333880Y-137831466D01*
X108339866Y-137714000D01*
X108346119Y-137578918D01*
X108311244Y-137544667D01*
X108249121Y-137618583D01*
X108190996Y-137800256D01*
X108183313Y-137837984D01*
X108115943Y-138062741D01*
X108025904Y-138215624D01*
X108017759Y-138223030D01*
X107925340Y-138223735D01*
X107851328Y-138062733D01*
X107797560Y-137746839D01*
X107766170Y-137290667D01*
X107787654Y-136833492D01*
X107901480Y-136475655D01*
X108056538Y-136241130D01*
X108139886Y-136127045D01*
X108109491Y-136107421D01*
X108061334Y-136120713D01*
X107928850Y-136228224D01*
X107780795Y-136440027D01*
X107649484Y-136697992D01*
X107567234Y-136943990D01*
X107555003Y-137031507D01*
X107543942Y-137387215D01*
X107557873Y-137659773D01*
G37*
X107557873Y-137659773D02*
X107605223Y-137934555D01*
X107670941Y-138205989D01*
X107744397Y-138568514D01*
X107752287Y-138815081D01*
X107732719Y-138883322D01*
X107675343Y-139053472D01*
X107621290Y-139308992D01*
X107606309Y-139407334D01*
X107554953Y-139788334D01*
X107674702Y-139492000D01*
X107757102Y-139245557D01*
X107799744Y-139036090D01*
X107800892Y-139017908D01*
X107843220Y-138870764D01*
X107943572Y-138664238D01*
X108073071Y-138445120D01*
X108202843Y-138260203D01*
X108304012Y-138156278D01*
X108336379Y-138150173D01*
X108424872Y-138122071D01*
X108553401Y-138024752D01*
X108716172Y-137921802D01*
X108874191Y-137950368D01*
X108895391Y-137961252D01*
X109106723Y-138043738D01*
X109228647Y-138026988D01*
X109246667Y-137977875D01*
X109176302Y-137897467D01*
X109056167Y-137842243D01*
X108771510Y-137761590D01*
X108617406Y-137746918D01*
X108569393Y-137796062D01*
X108569334Y-137799198D01*
X108500100Y-137872269D01*
X108432459Y-137883334D01*
X108333880Y-137831466D01*
X108339866Y-137714000D01*
X108346119Y-137578918D01*
X108311244Y-137544667D01*
X108249121Y-137618583D01*
X108190996Y-137800256D01*
X108183313Y-137837984D01*
X108115943Y-138062741D01*
X108025904Y-138215624D01*
X108017759Y-138223030D01*
X107925340Y-138223735D01*
X107851328Y-138062733D01*
X107797560Y-137746839D01*
X107766170Y-137290667D01*
X107787654Y-136833492D01*
X107901480Y-136475655D01*
X108056538Y-136241130D01*
X108139886Y-136127045D01*
X108109491Y-136107421D01*
X108061334Y-136120713D01*
X107928850Y-136228224D01*
X107780795Y-136440027D01*
X107649484Y-136697992D01*
X107567234Y-136943990D01*
X107555003Y-137031507D01*
X107543942Y-137387215D01*
X107557873Y-137659773D01*
G36*
X109206785Y-140422900D02*
G01*
X109246667Y-140465667D01*
X109312223Y-140498843D01*
X109310185Y-140450293D01*
X109246667Y-140296334D01*
X109190736Y-140189954D01*
X109169813Y-140237789D01*
X109167951Y-140270170D01*
X109206785Y-140422900D01*
G37*
X109206785Y-140422900D02*
X109246667Y-140465667D01*
X109312223Y-140498843D01*
X109310185Y-140450293D01*
X109246667Y-140296334D01*
X109190736Y-140189954D01*
X109169813Y-140237789D01*
X109167951Y-140270170D01*
X109206785Y-140422900D01*
G36*
X109263063Y-139862975D02*
G01*
X109306340Y-139822283D01*
X109381539Y-139661938D01*
X109507807Y-139413165D01*
X109642734Y-139205226D01*
X109653392Y-139191930D01*
X109686272Y-139142392D01*
X109616132Y-139202779D01*
X109521834Y-139295915D01*
X109353666Y-139506893D01*
X109258520Y-139706415D01*
X109249981Y-139765923D01*
X109263063Y-139862975D01*
G37*
X109263063Y-139862975D02*
X109306340Y-139822283D01*
X109381539Y-139661938D01*
X109507807Y-139413165D01*
X109642734Y-139205226D01*
X109653392Y-139191930D01*
X109686272Y-139142392D01*
X109616132Y-139202779D01*
X109521834Y-139295915D01*
X109353666Y-139506893D01*
X109258520Y-139706415D01*
X109249981Y-139765923D01*
X109263063Y-139862975D01*
G36*
X109840353Y-140500774D02*
G01*
X109889000Y-140537021D01*
X109911770Y-140423933D01*
X109914148Y-140254000D01*
X109908550Y-140032833D01*
X109893501Y-139966267D01*
X109860387Y-140039574D01*
X109835650Y-140119774D01*
X109805173Y-140360168D01*
X109840353Y-140500774D01*
G37*
X109840353Y-140500774D02*
X109889000Y-140537021D01*
X109911770Y-140423933D01*
X109914148Y-140254000D01*
X109908550Y-140032833D01*
X109893501Y-139966267D01*
X109860387Y-140039574D01*
X109835650Y-140119774D01*
X109805173Y-140360168D01*
X109840353Y-140500774D01*
G36*
X109227059Y-141040041D02*
G01*
X109387517Y-141229554D01*
X109591296Y-141397196D01*
X109758343Y-141482834D01*
X109899394Y-141593702D01*
X109996219Y-141760710D01*
X110055392Y-141908756D01*
X110079631Y-141904287D01*
X110086649Y-141798338D01*
X110028743Y-141604659D01*
X109908526Y-141459671D01*
X109733654Y-141306649D01*
X109516938Y-141099768D01*
X109442859Y-141025324D01*
X109268494Y-140863203D01*
X109180755Y-140827243D01*
X109162000Y-140881200D01*
X109227059Y-141040041D01*
G37*
X109227059Y-141040041D02*
X109387517Y-141229554D01*
X109591296Y-141397196D01*
X109758343Y-141482834D01*
X109899394Y-141593702D01*
X109996219Y-141760710D01*
X110055392Y-141908756D01*
X110079631Y-141904287D01*
X110086649Y-141798338D01*
X110028743Y-141604659D01*
X109908526Y-141459671D01*
X109733654Y-141306649D01*
X109516938Y-141099768D01*
X109442859Y-141025324D01*
X109268494Y-140863203D01*
X109180755Y-140827243D01*
X109162000Y-140881200D01*
X109227059Y-141040041D01*
G36*
X109238485Y-138267344D02*
G01*
X109246667Y-138265104D01*
X109452787Y-138218368D01*
X109743539Y-138163794D01*
X109913976Y-138135566D01*
X110184233Y-138081007D01*
X110386844Y-138017838D01*
X110453375Y-137980492D01*
X110443828Y-137939738D01*
X110277778Y-137956698D01*
X110174045Y-137978315D01*
X109924945Y-138019309D01*
X109735692Y-138024293D01*
X109696722Y-138016058D01*
X109556426Y-138029949D01*
X109354598Y-138119913D01*
X109308742Y-138147773D01*
X109149581Y-138255007D01*
X109128657Y-138290147D01*
X109238485Y-138267344D01*
G37*
X109238485Y-138267344D02*
X109246667Y-138265104D01*
X109452787Y-138218368D01*
X109743539Y-138163794D01*
X109913976Y-138135566D01*
X110184233Y-138081007D01*
X110386844Y-138017838D01*
X110453375Y-137980492D01*
X110443828Y-137939738D01*
X110277778Y-137956698D01*
X110174045Y-137978315D01*
X109924945Y-138019309D01*
X109735692Y-138024293D01*
X109696722Y-138016058D01*
X109556426Y-138029949D01*
X109354598Y-138119913D01*
X109308742Y-138147773D01*
X109149581Y-138255007D01*
X109128657Y-138290147D01*
X109238485Y-138267344D01*
G36*
X110134875Y-136019736D02*
G01*
X110175021Y-136020667D01*
X110313907Y-135970338D01*
X110347334Y-135897874D01*
X110412015Y-135747687D01*
X110459552Y-135707374D01*
X110584091Y-135573306D01*
X110628273Y-135486171D01*
X110650035Y-135396878D01*
X110596231Y-135402958D01*
X110438043Y-135508368D01*
X110431216Y-135513225D01*
X110234830Y-135680355D01*
X110097282Y-135844743D01*
X110090182Y-135857221D01*
X110048243Y-135982323D01*
X110134875Y-136019736D01*
G37*
X110134875Y-136019736D02*
X110175021Y-136020667D01*
X110313907Y-135970338D01*
X110347334Y-135897874D01*
X110412015Y-135747687D01*
X110459552Y-135707374D01*
X110584091Y-135573306D01*
X110628273Y-135486171D01*
X110650035Y-135396878D01*
X110596231Y-135402958D01*
X110438043Y-135508368D01*
X110431216Y-135513225D01*
X110234830Y-135680355D01*
X110097282Y-135844743D01*
X110090182Y-135857221D01*
X110048243Y-135982323D01*
X110134875Y-136019736D01*
G36*
X110728334Y-138052667D02*
G01*
X110770667Y-138010334D01*
X110728334Y-137968000D01*
X110686000Y-138010334D01*
X110728334Y-138052667D01*
G37*
X110728334Y-138052667D02*
X110770667Y-138010334D01*
X110728334Y-137968000D01*
X110686000Y-138010334D01*
X110728334Y-138052667D01*
G36*
X110584038Y-136293512D02*
G01*
X110638771Y-136232334D01*
X110776672Y-136049475D01*
X110848973Y-135913516D01*
X110852220Y-135893667D01*
X110808801Y-135885910D01*
X110719437Y-135978334D01*
X110586951Y-136166590D01*
X110514719Y-136299200D01*
X110510996Y-136350172D01*
X110584038Y-136293512D01*
G37*
X110584038Y-136293512D02*
X110638771Y-136232334D01*
X110776672Y-136049475D01*
X110848973Y-135913516D01*
X110852220Y-135893667D01*
X110808801Y-135885910D01*
X110719437Y-135978334D01*
X110586951Y-136166590D01*
X110514719Y-136299200D01*
X110510996Y-136350172D01*
X110584038Y-136293512D01*
G36*
X110746768Y-140251577D02*
G01*
X110765670Y-140254000D01*
X110880337Y-140192456D01*
X110897667Y-140169334D01*
X110878473Y-140096850D01*
X110817997Y-140084667D01*
X110702155Y-140128871D01*
X110686000Y-140169334D01*
X110746768Y-140251577D01*
G37*
X110746768Y-140251577D02*
X110765670Y-140254000D01*
X110880337Y-140192456D01*
X110897667Y-140169334D01*
X110878473Y-140096850D01*
X110817997Y-140084667D01*
X110702155Y-140128871D01*
X110686000Y-140169334D01*
X110746768Y-140251577D01*
G36*
X110993299Y-139994116D02*
G01*
X111147506Y-139943687D01*
X111194000Y-139915334D01*
X111260492Y-139853574D01*
X111176401Y-139832905D01*
X111130500Y-139831963D01*
X110981849Y-139862822D01*
X110940000Y-139915334D01*
X110993299Y-139994116D01*
G37*
X110993299Y-139994116D02*
X111147506Y-139943687D01*
X111194000Y-139915334D01*
X111260492Y-139853574D01*
X111176401Y-139832905D01*
X111130500Y-139831963D01*
X110981849Y-139862822D01*
X110940000Y-139915334D01*
X110993299Y-139994116D01*
G36*
X110742786Y-141947334D02*
G01*
X110852198Y-141890829D01*
X111008059Y-141753047D01*
X111024667Y-141735667D01*
X111190761Y-141591213D01*
X111327358Y-141524524D01*
X111335759Y-141524000D01*
X111438594Y-141471862D01*
X111448000Y-141437159D01*
X111384477Y-141407950D01*
X111219929Y-141468274D01*
X111214967Y-141470824D01*
X111035935Y-141584917D01*
X110869725Y-141723873D01*
X110751479Y-141852229D01*
X110716340Y-141934520D01*
X110742786Y-141947334D01*
G37*
X110742786Y-141947334D02*
X110852198Y-141890829D01*
X111008059Y-141753047D01*
X111024667Y-141735667D01*
X111190761Y-141591213D01*
X111327358Y-141524524D01*
X111335759Y-141524000D01*
X111438594Y-141471862D01*
X111448000Y-141437159D01*
X111384477Y-141407950D01*
X111219929Y-141468274D01*
X111214967Y-141470824D01*
X111035935Y-141584917D01*
X110869725Y-141723873D01*
X110751479Y-141852229D01*
X110716340Y-141934520D01*
X110742786Y-141947334D01*
G36*
X111575000Y-140762000D02*
G01*
X111617334Y-140719667D01*
X111575000Y-140677334D01*
X111532667Y-140719667D01*
X111575000Y-140762000D01*
G37*
X111575000Y-140762000D02*
X111617334Y-140719667D01*
X111575000Y-140677334D01*
X111532667Y-140719667D01*
X111575000Y-140762000D01*
G36*
X110913772Y-138645994D02*
G01*
X111003500Y-138752615D01*
X111151160Y-138848005D01*
X111340704Y-138928237D01*
X111513617Y-138974259D01*
X111611389Y-138967023D01*
X111617334Y-138952458D01*
X111545863Y-138897310D01*
X111404328Y-138849099D01*
X111197689Y-138743757D01*
X111023328Y-138582067D01*
X110903627Y-138458650D01*
X110855913Y-138481025D01*
X110855334Y-138493793D01*
X110913772Y-138645994D01*
G37*
X110913772Y-138645994D02*
X111003500Y-138752615D01*
X111151160Y-138848005D01*
X111340704Y-138928237D01*
X111513617Y-138974259D01*
X111611389Y-138967023D01*
X111617334Y-138952458D01*
X111545863Y-138897310D01*
X111404328Y-138849099D01*
X111197689Y-138743757D01*
X111023328Y-138582067D01*
X110903627Y-138458650D01*
X110855913Y-138481025D01*
X110855334Y-138493793D01*
X110913772Y-138645994D01*
G36*
X111251182Y-138277755D02*
G01*
X111388299Y-138441634D01*
X111553711Y-138604283D01*
X111695778Y-138712677D01*
X111743600Y-138730000D01*
X111788200Y-138674367D01*
X111723269Y-138523942D01*
X111567474Y-138313163D01*
X111374515Y-138116488D01*
X111247244Y-138058312D01*
X111194840Y-138142259D01*
X111194000Y-138165672D01*
X111251182Y-138277755D01*
G37*
X111251182Y-138277755D02*
X111388299Y-138441634D01*
X111553711Y-138604283D01*
X111695778Y-138712677D01*
X111743600Y-138730000D01*
X111788200Y-138674367D01*
X111723269Y-138523942D01*
X111567474Y-138313163D01*
X111374515Y-138116488D01*
X111247244Y-138058312D01*
X111194840Y-138142259D01*
X111194000Y-138165672D01*
X111251182Y-138277755D01*
G36*
X109236183Y-142518720D02*
G01*
X109408771Y-142498371D01*
X109500667Y-142483215D01*
X110071121Y-142431917D01*
X110608181Y-142488784D01*
X110657303Y-142499053D01*
X110860595Y-142518950D01*
X110977586Y-142447132D01*
X111019646Y-142380048D01*
X111136139Y-142242537D01*
X111312179Y-142107649D01*
X111491824Y-142010275D01*
X111619132Y-141985306D01*
X111636867Y-141995090D01*
X111712876Y-141970826D01*
X111795768Y-141885880D01*
X111870037Y-141785063D01*
X111831897Y-141800652D01*
X111750818Y-141862667D01*
X111634301Y-141941779D01*
X111615350Y-141893489D01*
X111637058Y-141799167D01*
X111640401Y-141643811D01*
X111581832Y-141608667D01*
X111449475Y-141670185D01*
X111286945Y-141814017D01*
X111154130Y-141979080D01*
X111109334Y-142090590D01*
X111045849Y-142227849D01*
X110850898Y-142305028D01*
X110517731Y-142322443D01*
X110039603Y-142280415D01*
X109409763Y-142179262D01*
X109373667Y-142172565D01*
X109281665Y-142161508D01*
X109310167Y-142177360D01*
X109407307Y-142244895D01*
X109358469Y-142347920D01*
X109267833Y-142428691D01*
X109197244Y-142497376D01*
X109236183Y-142518720D01*
G37*
X109236183Y-142518720D02*
X109408771Y-142498371D01*
X109500667Y-142483215D01*
X110071121Y-142431917D01*
X110608181Y-142488784D01*
X110657303Y-142499053D01*
X110860595Y-142518950D01*
X110977586Y-142447132D01*
X111019646Y-142380048D01*
X111136139Y-142242537D01*
X111312179Y-142107649D01*
X111491824Y-142010275D01*
X111619132Y-141985306D01*
X111636867Y-141995090D01*
X111712876Y-141970826D01*
X111795768Y-141885880D01*
X111870037Y-141785063D01*
X111831897Y-141800652D01*
X111750818Y-141862667D01*
X111634301Y-141941779D01*
X111615350Y-141893489D01*
X111637058Y-141799167D01*
X111640401Y-141643811D01*
X111581832Y-141608667D01*
X111449475Y-141670185D01*
X111286945Y-141814017D01*
X111154130Y-141979080D01*
X111109334Y-142090590D01*
X111045849Y-142227849D01*
X110850898Y-142305028D01*
X110517731Y-142322443D01*
X110039603Y-142280415D01*
X109409763Y-142179262D01*
X109373667Y-142172565D01*
X109281665Y-142161508D01*
X109310167Y-142177360D01*
X109407307Y-142244895D01*
X109358469Y-142347920D01*
X109267833Y-142428691D01*
X109197244Y-142497376D01*
X109236183Y-142518720D01*
G36*
X111091086Y-140655351D02*
G01*
X111278667Y-140714695D01*
X111409187Y-140741339D01*
X111390200Y-140704787D01*
X111368181Y-140688964D01*
X111328030Y-140630398D01*
X111427294Y-140591101D01*
X111579847Y-140570650D01*
X111755869Y-140547660D01*
X111765720Y-140530959D01*
X111675837Y-140522233D01*
X111520554Y-140487101D01*
X111490334Y-140423334D01*
X111483621Y-140345315D01*
X111452997Y-140338667D01*
X111367530Y-140404112D01*
X111363334Y-140432392D01*
X111301967Y-140489584D01*
X111239045Y-140478423D01*
X111100944Y-140482323D01*
X111061233Y-140517331D01*
X111029443Y-140600154D01*
X111091086Y-140655351D01*
G37*
X111091086Y-140655351D02*
X111278667Y-140714695D01*
X111409187Y-140741339D01*
X111390200Y-140704787D01*
X111368181Y-140688964D01*
X111328030Y-140630398D01*
X111427294Y-140591101D01*
X111579847Y-140570650D01*
X111755869Y-140547660D01*
X111765720Y-140530959D01*
X111675837Y-140522233D01*
X111520554Y-140487101D01*
X111490334Y-140423334D01*
X111483621Y-140345315D01*
X111452997Y-140338667D01*
X111367530Y-140404112D01*
X111363334Y-140432392D01*
X111301967Y-140489584D01*
X111239045Y-140478423D01*
X111100944Y-140482323D01*
X111061233Y-140517331D01*
X111029443Y-140600154D01*
X111091086Y-140655351D01*
G36*
X111730222Y-139887111D02*
G01*
X111830702Y-139897244D01*
X111843111Y-139887111D01*
X111831489Y-139836777D01*
X111786667Y-139830667D01*
X111716977Y-139861645D01*
X111730222Y-139887111D01*
G37*
X111730222Y-139887111D02*
X111830702Y-139897244D01*
X111843111Y-139887111D01*
X111831489Y-139836777D01*
X111786667Y-139830667D01*
X111716977Y-139861645D01*
X111730222Y-139887111D01*
G36*
X112506334Y-141693334D02*
G01*
X112548667Y-141651000D01*
X112506334Y-141608667D01*
X112464000Y-141651000D01*
X112506334Y-141693334D01*
G37*
X112506334Y-141693334D02*
X112548667Y-141651000D01*
X112506334Y-141608667D01*
X112464000Y-141651000D01*
X112506334Y-141693334D01*
G36*
X112105154Y-139213215D02*
G01*
X112325764Y-139226846D01*
X112443821Y-139211506D01*
X112463612Y-139188620D01*
X112342026Y-139175779D01*
X112252334Y-139174685D01*
X112088369Y-139183021D01*
X112063494Y-139202144D01*
X112105154Y-139213215D01*
G37*
X112105154Y-139213215D02*
X112325764Y-139226846D01*
X112443821Y-139211506D01*
X112463612Y-139188620D01*
X112342026Y-139175779D01*
X112252334Y-139174685D01*
X112088369Y-139183021D01*
X112063494Y-139202144D01*
X112105154Y-139213215D01*
G36*
X111099314Y-140225239D02*
G01*
X111287877Y-140221567D01*
X111404691Y-140207388D01*
X111652105Y-140183097D01*
X111782703Y-140212281D01*
X111837083Y-140286866D01*
X111963802Y-140393982D01*
X112155559Y-140422037D01*
X112415323Y-140398736D01*
X112535141Y-140339050D01*
X112503989Y-140253540D01*
X112398347Y-140189484D01*
X112172605Y-140100192D01*
X112067408Y-140098978D01*
X112079384Y-140163483D01*
X112090292Y-140262179D01*
X112005760Y-140289708D01*
X111889920Y-140231575D01*
X111870526Y-140210693D01*
X111745489Y-140146949D01*
X111538857Y-140111432D01*
X111310383Y-140105203D01*
X111119815Y-140129323D01*
X111026905Y-140184852D01*
X111025085Y-140195688D01*
X111099314Y-140225239D01*
G37*
X111099314Y-140225239D02*
X111287877Y-140221567D01*
X111404691Y-140207388D01*
X111652105Y-140183097D01*
X111782703Y-140212281D01*
X111837083Y-140286866D01*
X111963802Y-140393982D01*
X112155559Y-140422037D01*
X112415323Y-140398736D01*
X112535141Y-140339050D01*
X112503989Y-140253540D01*
X112398347Y-140189484D01*
X112172605Y-140100192D01*
X112067408Y-140098978D01*
X112079384Y-140163483D01*
X112090292Y-140262179D01*
X112005760Y-140289708D01*
X111889920Y-140231575D01*
X111870526Y-140210693D01*
X111745489Y-140146949D01*
X111538857Y-140111432D01*
X111310383Y-140105203D01*
X111119815Y-140129323D01*
X111026905Y-140184852D01*
X111025085Y-140195688D01*
X111099314Y-140225239D01*
G36*
X112263601Y-140611873D02*
G01*
X112317705Y-140707597D01*
X112412381Y-140803696D01*
X112515911Y-140777567D01*
X112591997Y-140722375D01*
X112700535Y-140632539D01*
X112674877Y-140623750D01*
X112603622Y-140647130D01*
X112436307Y-140641690D01*
X112375392Y-140586290D01*
X112290524Y-140509218D01*
X112257812Y-140516633D01*
X112263601Y-140611873D01*
G37*
X112263601Y-140611873D02*
X112317705Y-140707597D01*
X112412381Y-140803696D01*
X112515911Y-140777567D01*
X112591997Y-140722375D01*
X112700535Y-140632539D01*
X112674877Y-140623750D01*
X112603622Y-140647130D01*
X112436307Y-140641690D01*
X112375392Y-140586290D01*
X112290524Y-140509218D01*
X112257812Y-140516633D01*
X112263601Y-140611873D01*
G36*
X112915556Y-142681111D02*
G01*
X113016035Y-142691244D01*
X113028445Y-142681111D01*
X113016822Y-142630777D01*
X112972000Y-142624667D01*
X112902310Y-142655645D01*
X112915556Y-142681111D01*
G37*
X112915556Y-142681111D02*
X113016035Y-142691244D01*
X113028445Y-142681111D01*
X113016822Y-142630777D01*
X112972000Y-142624667D01*
X112902310Y-142655645D01*
X112915556Y-142681111D01*
G36*
X113099000Y-139830667D02*
G01*
X113141334Y-139788334D01*
X113099000Y-139746000D01*
X113056667Y-139788334D01*
X113099000Y-139830667D01*
G37*
X113099000Y-139830667D02*
X113141334Y-139788334D01*
X113099000Y-139746000D01*
X113056667Y-139788334D01*
X113099000Y-139830667D01*
G36*
X112895554Y-140985817D02*
G01*
X112910112Y-140990007D01*
X113094542Y-141002402D01*
X113164112Y-140986869D01*
X113166926Y-140959075D01*
X113034384Y-140947723D01*
X113014334Y-140947839D01*
X112883019Y-140960048D01*
X112895554Y-140985817D01*
G37*
X112895554Y-140985817D02*
X112910112Y-140990007D01*
X113094542Y-141002402D01*
X113164112Y-140986869D01*
X113166926Y-140959075D01*
X113034384Y-140947723D01*
X113014334Y-140947839D01*
X112883019Y-140960048D01*
X112895554Y-140985817D01*
G36*
X112949756Y-140110762D02*
G01*
X113090489Y-140111377D01*
X113131367Y-140090827D01*
X113175277Y-140027694D01*
X113063824Y-139977340D01*
X112924959Y-139968618D01*
X112887334Y-140002930D01*
X112949756Y-140110762D01*
G37*
X112949756Y-140110762D02*
X113090489Y-140111377D01*
X113131367Y-140090827D01*
X113175277Y-140027694D01*
X113063824Y-139977340D01*
X112924959Y-139968618D01*
X112887334Y-140002930D01*
X112949756Y-140110762D01*
G36*
X113084889Y-138278445D02*
G01*
X113185369Y-138288578D01*
X113197778Y-138278445D01*
X113186156Y-138228110D01*
X113141334Y-138222000D01*
X113071643Y-138252978D01*
X113084889Y-138278445D01*
G37*
X113084889Y-138278445D02*
X113185369Y-138288578D01*
X113197778Y-138278445D01*
X113186156Y-138228110D01*
X113141334Y-138222000D01*
X113071643Y-138252978D01*
X113084889Y-138278445D01*
G36*
X113268334Y-142116667D02*
G01*
X113310667Y-142074334D01*
X113268334Y-142032000D01*
X113226000Y-142074334D01*
X113268334Y-142116667D01*
G37*
X113268334Y-142116667D02*
X113310667Y-142074334D01*
X113268334Y-142032000D01*
X113226000Y-142074334D01*
X113268334Y-142116667D01*
G36*
X113691667Y-139746000D02*
G01*
X113767749Y-139826771D01*
X113781330Y-139830667D01*
X113817696Y-139765161D01*
X113818667Y-139746000D01*
X113753579Y-139664587D01*
X113729003Y-139661334D01*
X113678437Y-139713203D01*
X113691667Y-139746000D01*
G37*
X113691667Y-139746000D02*
X113767749Y-139826771D01*
X113781330Y-139830667D01*
X113817696Y-139765161D01*
X113818667Y-139746000D01*
X113753579Y-139664587D01*
X113729003Y-139661334D01*
X113678437Y-139713203D01*
X113691667Y-139746000D01*
G36*
X113715539Y-140595869D02*
G01*
X113776334Y-140623285D01*
X113885355Y-140625044D01*
X113903334Y-140590010D01*
X113834717Y-140517239D01*
X113776334Y-140508000D01*
X113663371Y-140526115D01*
X113649334Y-140541275D01*
X113715539Y-140595869D01*
G37*
X113715539Y-140595869D02*
X113776334Y-140623285D01*
X113885355Y-140625044D01*
X113903334Y-140590010D01*
X113834717Y-140517239D01*
X113776334Y-140508000D01*
X113663371Y-140526115D01*
X113649334Y-140541275D01*
X113715539Y-140595869D01*
G36*
X113718125Y-139465170D02*
G01*
X113850449Y-139475264D01*
X113880403Y-139458486D01*
X113855152Y-139420004D01*
X113769278Y-139414018D01*
X113678936Y-139434695D01*
X113718125Y-139465170D01*
G37*
X113718125Y-139465170D02*
X113850449Y-139475264D01*
X113880403Y-139458486D01*
X113855152Y-139420004D01*
X113769278Y-139414018D01*
X113678936Y-139434695D01*
X113718125Y-139465170D01*
G36*
X113761611Y-140075138D02*
G01*
X113875540Y-140068483D01*
X113982546Y-140038633D01*
X113933291Y-139999913D01*
X113870049Y-139974339D01*
X113720095Y-139941718D01*
X113665438Y-139955674D01*
X113655120Y-140033310D01*
X113761611Y-140075138D01*
G37*
X113761611Y-140075138D02*
X113875540Y-140068483D01*
X113982546Y-140038633D01*
X113933291Y-139999913D01*
X113870049Y-139974339D01*
X113720095Y-139941718D01*
X113665438Y-139955674D01*
X113655120Y-140033310D01*
X113761611Y-140075138D01*
G36*
X113945667Y-139830667D02*
G01*
X113988000Y-139788334D01*
X113945667Y-139746000D01*
X113903334Y-139788334D01*
X113945667Y-139830667D01*
G37*
X113945667Y-139830667D02*
X113988000Y-139788334D01*
X113945667Y-139746000D01*
X113903334Y-139788334D01*
X113945667Y-139830667D01*
G36*
X112979388Y-140648465D02*
G01*
X113053643Y-140678630D01*
X113132987Y-140697410D01*
X113075482Y-140748580D01*
X113065848Y-140793977D01*
X113209023Y-140811186D01*
X113254938Y-140810784D01*
X113452414Y-140770880D01*
X113504876Y-140691783D01*
X113415529Y-140616179D01*
X113238108Y-140586716D01*
X113091531Y-140576481D01*
X113101811Y-140545953D01*
X113183667Y-140508000D01*
X113383328Y-140456816D01*
X113642042Y-140429919D01*
X113665503Y-140429284D01*
X113894114Y-140399706D01*
X114026536Y-140335136D01*
X114036613Y-140256509D01*
X113949955Y-140201597D01*
X113778043Y-140207138D01*
X113691046Y-140254515D01*
X113526566Y-140322454D01*
X113285683Y-140353950D01*
X113244601Y-140354211D01*
X113029793Y-140367243D01*
X112938120Y-140428954D01*
X112923619Y-140513557D01*
X112979388Y-140648465D01*
G37*
X112979388Y-140648465D02*
X113053643Y-140678630D01*
X113132987Y-140697410D01*
X113075482Y-140748580D01*
X113065848Y-140793977D01*
X113209023Y-140811186D01*
X113254938Y-140810784D01*
X113452414Y-140770880D01*
X113504876Y-140691783D01*
X113415529Y-140616179D01*
X113238108Y-140586716D01*
X113091531Y-140576481D01*
X113101811Y-140545953D01*
X113183667Y-140508000D01*
X113383328Y-140456816D01*
X113642042Y-140429919D01*
X113665503Y-140429284D01*
X113894114Y-140399706D01*
X114026536Y-140335136D01*
X114036613Y-140256509D01*
X113949955Y-140201597D01*
X113778043Y-140207138D01*
X113691046Y-140254515D01*
X113526566Y-140322454D01*
X113285683Y-140353950D01*
X113244601Y-140354211D01*
X113029793Y-140367243D01*
X112938120Y-140428954D01*
X112923619Y-140513557D01*
X112979388Y-140648465D01*
G36*
X114226125Y-140057837D02*
G01*
X114358449Y-140067931D01*
X114388403Y-140051153D01*
X114363152Y-140012671D01*
X114277278Y-140006684D01*
X114186936Y-140027362D01*
X114226125Y-140057837D01*
G37*
X114226125Y-140057837D02*
X114358449Y-140067931D01*
X114388403Y-140051153D01*
X114363152Y-140012671D01*
X114277278Y-140006684D01*
X114186936Y-140027362D01*
X114226125Y-140057837D01*
G36*
X114220834Y-140310073D02*
G01*
X114394176Y-140321256D01*
X114432500Y-140310073D01*
X114443136Y-140279171D01*
X114326667Y-140267369D01*
X114206471Y-140280674D01*
X114220834Y-140310073D01*
G37*
X114220834Y-140310073D02*
X114394176Y-140321256D01*
X114432500Y-140310073D01*
X114443136Y-140279171D01*
X114326667Y-140267369D01*
X114206471Y-140280674D01*
X114220834Y-140310073D01*
G36*
X114538334Y-140169334D02*
G01*
X114580667Y-140127000D01*
X114538334Y-140084667D01*
X114496000Y-140127000D01*
X114538334Y-140169334D01*
G37*
X114538334Y-140169334D02*
X114580667Y-140127000D01*
X114538334Y-140084667D01*
X114496000Y-140127000D01*
X114538334Y-140169334D01*
G36*
X114538334Y-138645334D02*
G01*
X114580667Y-138603000D01*
X114538334Y-138560667D01*
X114496000Y-138603000D01*
X114538334Y-138645334D01*
G37*
X114538334Y-138645334D02*
X114580667Y-138603000D01*
X114538334Y-138560667D01*
X114496000Y-138603000D01*
X114538334Y-138645334D01*
G36*
X114228150Y-139797786D02*
G01*
X114366608Y-139900743D01*
X114432500Y-139923086D01*
X114618670Y-139958375D01*
X114652395Y-139933742D01*
X114533251Y-139863852D01*
X114435369Y-139823710D01*
X114286943Y-139751547D01*
X114284274Y-139687378D01*
X114329536Y-139650027D01*
X114409904Y-139586239D01*
X114345992Y-139593254D01*
X114326667Y-139598443D01*
X114209859Y-139681754D01*
X114228150Y-139797786D01*
G37*
X114228150Y-139797786D02*
X114366608Y-139900743D01*
X114432500Y-139923086D01*
X114618670Y-139958375D01*
X114652395Y-139933742D01*
X114533251Y-139863852D01*
X114435369Y-139823710D01*
X114286943Y-139751547D01*
X114284274Y-139687378D01*
X114329536Y-139650027D01*
X114409904Y-139586239D01*
X114345992Y-139593254D01*
X114326667Y-139598443D01*
X114209859Y-139681754D01*
X114228150Y-139797786D01*
G36*
X115119120Y-140265992D02*
G01*
X115188130Y-140448993D01*
X115275197Y-140619429D01*
X115357942Y-140736896D01*
X115413983Y-140760987D01*
X115425451Y-140715434D01*
X115373598Y-140578197D01*
X115346219Y-140545419D01*
X115289462Y-140415047D01*
X115247466Y-140189537D01*
X115240386Y-140113349D01*
X115203144Y-139880937D01*
X115150652Y-139809042D01*
X115105718Y-139898047D01*
X115090549Y-140110830D01*
X115119120Y-140265992D01*
G37*
X115119120Y-140265992D02*
X115188130Y-140448993D01*
X115275197Y-140619429D01*
X115357942Y-140736896D01*
X115413983Y-140760987D01*
X115425451Y-140715434D01*
X115373598Y-140578197D01*
X115346219Y-140545419D01*
X115289462Y-140415047D01*
X115247466Y-140189537D01*
X115240386Y-140113349D01*
X115203144Y-139880937D01*
X115150652Y-139809042D01*
X115105718Y-139898047D01*
X115090549Y-140110830D01*
X115119120Y-140265992D01*
G36*
X115799514Y-140569736D02*
G01*
X115837996Y-140544485D01*
X115843983Y-140458611D01*
X115823305Y-140368269D01*
X115792830Y-140407459D01*
X115782736Y-140539782D01*
X115799514Y-140569736D01*
G37*
X115799514Y-140569736D02*
X115837996Y-140544485D01*
X115843983Y-140458611D01*
X115823305Y-140368269D01*
X115792830Y-140407459D01*
X115782736Y-140539782D01*
X115799514Y-140569736D01*
G36*
X116102061Y-140494295D02*
G01*
X116154204Y-140547353D01*
X116178058Y-140460758D01*
X116181392Y-140296334D01*
X116175023Y-140095349D01*
X116153975Y-140046655D01*
X116108340Y-140133278D01*
X116099268Y-140155628D01*
X116067508Y-140396570D01*
X116102061Y-140494295D01*
G37*
X116102061Y-140494295D02*
X116154204Y-140547353D01*
X116178058Y-140460758D01*
X116181392Y-140296334D01*
X116175023Y-140095349D01*
X116153975Y-140046655D01*
X116108340Y-140133278D01*
X116099268Y-140155628D01*
X116067508Y-140396570D01*
X116102061Y-140494295D01*
G36*
X116217556Y-139887111D02*
G01*
X116267890Y-139875489D01*
X116274000Y-139830667D01*
X116243022Y-139760977D01*
X116217556Y-139774222D01*
X116207423Y-139874702D01*
X116217556Y-139887111D01*
G37*
X116217556Y-139887111D02*
X116267890Y-139875489D01*
X116274000Y-139830667D01*
X116243022Y-139760977D01*
X116217556Y-139774222D01*
X116207423Y-139874702D01*
X116217556Y-139887111D01*
G36*
X116328049Y-140381000D02*
G01*
X116388144Y-140492402D01*
X116410059Y-140508000D01*
X116439656Y-140438863D01*
X116443334Y-140381000D01*
X116399025Y-140268307D01*
X116361324Y-140254000D01*
X116314739Y-140316061D01*
X116328049Y-140381000D01*
G37*
X116328049Y-140381000D02*
X116388144Y-140492402D01*
X116410059Y-140508000D01*
X116439656Y-140438863D01*
X116443334Y-140381000D01*
X116399025Y-140268307D01*
X116361324Y-140254000D01*
X116314739Y-140316061D01*
X116328049Y-140381000D01*
G36*
X116386889Y-140141111D02*
G01*
X116437223Y-140129489D01*
X116443334Y-140084667D01*
X116412355Y-140014977D01*
X116386889Y-140028222D01*
X116376756Y-140128702D01*
X116386889Y-140141111D01*
G37*
X116386889Y-140141111D02*
X116437223Y-140129489D01*
X116443334Y-140084667D01*
X116412355Y-140014977D01*
X116386889Y-140028222D01*
X116376756Y-140128702D01*
X116386889Y-140141111D01*
G36*
X116572749Y-140350806D02*
G01*
X116612667Y-140423334D01*
X116679754Y-140491103D01*
X116694741Y-140465667D01*
X116652584Y-140326528D01*
X116612667Y-140254000D01*
X116545579Y-140186231D01*
X116530593Y-140211667D01*
X116572749Y-140350806D01*
G37*
X116572749Y-140350806D02*
X116612667Y-140423334D01*
X116679754Y-140491103D01*
X116694741Y-140465667D01*
X116652584Y-140326528D01*
X116612667Y-140254000D01*
X116545579Y-140186231D01*
X116530593Y-140211667D01*
X116572749Y-140350806D01*
G36*
X116834362Y-140376603D02*
G01*
X116902684Y-140495777D01*
X116946863Y-140475813D01*
X116951334Y-140428330D01*
X116889842Y-140313521D01*
X116867637Y-140296933D01*
X116819524Y-140310561D01*
X116834362Y-140376603D01*
G37*
X116834362Y-140376603D02*
X116902684Y-140495777D01*
X116946863Y-140475813D01*
X116951334Y-140428330D01*
X116889842Y-140313521D01*
X116867637Y-140296933D01*
X116819524Y-140310561D01*
X116834362Y-140376603D01*
G36*
X117069514Y-140231070D02*
G01*
X117107996Y-140205819D01*
X117113983Y-140119945D01*
X117093305Y-140029602D01*
X117062830Y-140068792D01*
X117052736Y-140201116D01*
X117069514Y-140231070D01*
G37*
X117069514Y-140231070D02*
X117107996Y-140205819D01*
X117113983Y-140119945D01*
X117093305Y-140029602D01*
X117062830Y-140068792D01*
X117052736Y-140201116D01*
X117069514Y-140231070D01*
G36*
X117247667Y-139661334D02*
G01*
X117290000Y-139619000D01*
X117247667Y-139576667D01*
X117205334Y-139619000D01*
X117247667Y-139661334D01*
G37*
X117247667Y-139661334D02*
X117290000Y-139619000D01*
X117247667Y-139576667D01*
X117205334Y-139619000D01*
X117247667Y-139661334D01*
G36*
X108993604Y-135460841D02*
G01*
X109169835Y-135407320D01*
X109236145Y-135384923D01*
X109489342Y-135300321D01*
X109619992Y-135268242D01*
X109665929Y-135286881D01*
X109664987Y-135354429D01*
X109663680Y-135364500D01*
X109661539Y-135535274D01*
X109669986Y-135639667D01*
X109692666Y-135714967D01*
X109727462Y-135629197D01*
X109743699Y-135558752D01*
X109810030Y-135403920D01*
X109947547Y-135298405D01*
X110181023Y-135235145D01*
X110535230Y-135207078D01*
X110980747Y-135206125D01*
X111292901Y-135215606D01*
X111480710Y-135241737D01*
X111589165Y-135301221D01*
X111663254Y-135410761D01*
X111692395Y-135470334D01*
X111795134Y-135652783D01*
X111880802Y-135750753D01*
X111885009Y-135752732D01*
X111948846Y-135813128D01*
X111875670Y-135872711D01*
X111697333Y-135918120D01*
X111448000Y-135936000D01*
X111221780Y-135953306D01*
X111047180Y-135995105D01*
X110953383Y-136046218D01*
X110969574Y-136091466D01*
X111104337Y-136114741D01*
X111392725Y-136125253D01*
X111589530Y-136114377D01*
X111771742Y-136076752D01*
X111814032Y-136065317D01*
X112044526Y-136045761D01*
X112148149Y-136094282D01*
X112172504Y-136207215D01*
X112057943Y-136325924D01*
X111832863Y-136430118D01*
X111596167Y-136488722D01*
X111392484Y-136541998D01*
X111284092Y-136605628D01*
X111278667Y-136620776D01*
X111281848Y-136670818D01*
X111315194Y-136688697D01*
X111414406Y-136668958D01*
X111615188Y-136606146D01*
X111823342Y-136537571D01*
X112118527Y-136450306D01*
X112313330Y-136425578D01*
X112462907Y-136458973D01*
X112512537Y-136482408D01*
X112644757Y-136573838D01*
X112667526Y-136635586D01*
X112649243Y-136750897D01*
X112738455Y-136889241D01*
X112889893Y-137000590D01*
X113030435Y-137036667D01*
X113181792Y-137044183D01*
X113193056Y-137095378D01*
X113090956Y-137219107D01*
X112929667Y-137401547D01*
X113162500Y-137251703D01*
X113318316Y-137174007D01*
X113393969Y-137180632D01*
X113395334Y-137189207D01*
X113328902Y-137294434D01*
X113299328Y-137308558D01*
X113271435Y-137381308D01*
X113355392Y-137492630D01*
X113453848Y-137617207D01*
X113424468Y-137700381D01*
X113387898Y-137729028D01*
X113333541Y-137784198D01*
X113427039Y-137778297D01*
X113458834Y-137771605D01*
X113612687Y-137761529D01*
X113630411Y-137834042D01*
X113512089Y-137997317D01*
X113461732Y-138052771D01*
X113350363Y-138182755D01*
X113357012Y-138216880D01*
X113425819Y-138195929D01*
X113610045Y-138203880D01*
X113885410Y-138319957D01*
X113960308Y-138362056D01*
X114228578Y-138496221D01*
X114377111Y-138513669D01*
X114400777Y-138493080D01*
X114518527Y-138402463D01*
X114764307Y-138276092D01*
X115103907Y-138126712D01*
X115503120Y-137967069D01*
X115927734Y-137809907D01*
X116343541Y-137667970D01*
X116716332Y-137554002D01*
X117011896Y-137480749D01*
X117173807Y-137460000D01*
X117327734Y-137433502D01*
X117374667Y-137386264D01*
X117300877Y-137355226D01*
X117113829Y-137364248D01*
X117014834Y-137380019D01*
X116721266Y-137446604D01*
X116453254Y-137525348D01*
X116409454Y-137541159D01*
X116199910Y-137587049D01*
X115909707Y-137584913D01*
X115520454Y-137538159D01*
X115132961Y-137488988D01*
X114741935Y-137453901D01*
X114439848Y-137440682D01*
X114166935Y-137427024D01*
X114116924Y-137410760D01*
X114116924Y-137587000D01*
X114539296Y-137605580D01*
X114871466Y-137620608D01*
X115087670Y-137632735D01*
X115241121Y-137646361D01*
X115385028Y-137665880D01*
X115512000Y-137685955D01*
X115640996Y-137710878D01*
X115685279Y-137741170D01*
X115627298Y-137789915D01*
X115449503Y-137870195D01*
X115134344Y-137995093D01*
X115056979Y-138025144D01*
X114721840Y-138147879D01*
X114441898Y-138236870D01*
X114256978Y-138280123D01*
X114210312Y-138280113D01*
X114149482Y-138179988D01*
X114117457Y-137977134D01*
X114115962Y-137915259D01*
X114116924Y-137587000D01*
X114116924Y-137410760D01*
X113976903Y-137365221D01*
X113793426Y-137222104D01*
X113681831Y-137111261D01*
X113418541Y-136887626D01*
X113194007Y-136786387D01*
X113152373Y-136782667D01*
X113017061Y-136763637D01*
X113001607Y-136724838D01*
X112982895Y-136636132D01*
X112870209Y-136475713D01*
X112782885Y-136377865D01*
X112504017Y-136084440D01*
X112317219Y-135880817D01*
X112196351Y-135735558D01*
X112115273Y-135617222D01*
X112047843Y-135494368D01*
X112047094Y-135492903D01*
X111915938Y-135311295D01*
X111780932Y-135214513D01*
X111628680Y-135111428D01*
X111585479Y-135043777D01*
X111481821Y-134978088D01*
X111267956Y-134934868D01*
X111001773Y-134916154D01*
X110741162Y-134923986D01*
X110544010Y-134960399D01*
X110474333Y-135004667D01*
X110357381Y-135070705D01*
X110219504Y-135089334D01*
X109935956Y-135114547D01*
X109605873Y-135179288D01*
X109294328Y-135267205D01*
X109066395Y-135361947D01*
X109023155Y-135389940D01*
X108951250Y-135454893D01*
X108993604Y-135460841D01*
G37*
X108993604Y-135460841D02*
X109169835Y-135407320D01*
X109236145Y-135384923D01*
X109489342Y-135300321D01*
X109619992Y-135268242D01*
X109665929Y-135286881D01*
X109664987Y-135354429D01*
X109663680Y-135364500D01*
X109661539Y-135535274D01*
X109669986Y-135639667D01*
X109692666Y-135714967D01*
X109727462Y-135629197D01*
X109743699Y-135558752D01*
X109810030Y-135403920D01*
X109947547Y-135298405D01*
X110181023Y-135235145D01*
X110535230Y-135207078D01*
X110980747Y-135206125D01*
X111292901Y-135215606D01*
X111480710Y-135241737D01*
X111589165Y-135301221D01*
X111663254Y-135410761D01*
X111692395Y-135470334D01*
X111795134Y-135652783D01*
X111880802Y-135750753D01*
X111885009Y-135752732D01*
X111948846Y-135813128D01*
X111875670Y-135872711D01*
X111697333Y-135918120D01*
X111448000Y-135936000D01*
X111221780Y-135953306D01*
X111047180Y-135995105D01*
X110953383Y-136046218D01*
X110969574Y-136091466D01*
X111104337Y-136114741D01*
X111392725Y-136125253D01*
X111589530Y-136114377D01*
X111771742Y-136076752D01*
X111814032Y-136065317D01*
X112044526Y-136045761D01*
X112148149Y-136094282D01*
X112172504Y-136207215D01*
X112057943Y-136325924D01*
X111832863Y-136430118D01*
X111596167Y-136488722D01*
X111392484Y-136541998D01*
X111284092Y-136605628D01*
X111278667Y-136620776D01*
X111281848Y-136670818D01*
X111315194Y-136688697D01*
X111414406Y-136668958D01*
X111615188Y-136606146D01*
X111823342Y-136537571D01*
X112118527Y-136450306D01*
X112313330Y-136425578D01*
X112462907Y-136458973D01*
X112512537Y-136482408D01*
X112644757Y-136573838D01*
X112667526Y-136635586D01*
X112649243Y-136750897D01*
X112738455Y-136889241D01*
X112889893Y-137000590D01*
X113030435Y-137036667D01*
X113181792Y-137044183D01*
X113193056Y-137095378D01*
X113090956Y-137219107D01*
X112929667Y-137401547D01*
X113162500Y-137251703D01*
X113318316Y-137174007D01*
X113393969Y-137180632D01*
X113395334Y-137189207D01*
X113328902Y-137294434D01*
X113299328Y-137308558D01*
X113271435Y-137381308D01*
X113355392Y-137492630D01*
X113453848Y-137617207D01*
X113424468Y-137700381D01*
X113387898Y-137729028D01*
X113333541Y-137784198D01*
X113427039Y-137778297D01*
X113458834Y-137771605D01*
X113612687Y-137761529D01*
X113630411Y-137834042D01*
X113512089Y-137997317D01*
X113461732Y-138052771D01*
X113350363Y-138182755D01*
X113357012Y-138216880D01*
X113425819Y-138195929D01*
X113610045Y-138203880D01*
X113885410Y-138319957D01*
X113960308Y-138362056D01*
X114228578Y-138496221D01*
X114377111Y-138513669D01*
X114400777Y-138493080D01*
X114518527Y-138402463D01*
X114764307Y-138276092D01*
X115103907Y-138126712D01*
X115503120Y-137967069D01*
X115927734Y-137809907D01*
X116343541Y-137667970D01*
X116716332Y-137554002D01*
X117011896Y-137480749D01*
X117173807Y-137460000D01*
X117327734Y-137433502D01*
X117374667Y-137386264D01*
X117300877Y-137355226D01*
X117113829Y-137364248D01*
X117014834Y-137380019D01*
X116721266Y-137446604D01*
X116453254Y-137525348D01*
X116409454Y-137541159D01*
X116199910Y-137587049D01*
X115909707Y-137584913D01*
X115520454Y-137538159D01*
X115132961Y-137488988D01*
X114741935Y-137453901D01*
X114439848Y-137440682D01*
X114166935Y-137427024D01*
X114116924Y-137410760D01*
X114116924Y-137587000D01*
X114539296Y-137605580D01*
X114871466Y-137620608D01*
X115087670Y-137632735D01*
X115241121Y-137646361D01*
X115385028Y-137665880D01*
X115512000Y-137685955D01*
X115640996Y-137710878D01*
X115685279Y-137741170D01*
X115627298Y-137789915D01*
X115449503Y-137870195D01*
X115134344Y-137995093D01*
X115056979Y-138025144D01*
X114721840Y-138147879D01*
X114441898Y-138236870D01*
X114256978Y-138280123D01*
X114210312Y-138280113D01*
X114149482Y-138179988D01*
X114117457Y-137977134D01*
X114115962Y-137915259D01*
X114116924Y-137587000D01*
X114116924Y-137410760D01*
X113976903Y-137365221D01*
X113793426Y-137222104D01*
X113681831Y-137111261D01*
X113418541Y-136887626D01*
X113194007Y-136786387D01*
X113152373Y-136782667D01*
X113017061Y-136763637D01*
X113001607Y-136724838D01*
X112982895Y-136636132D01*
X112870209Y-136475713D01*
X112782885Y-136377865D01*
X112504017Y-136084440D01*
X112317219Y-135880817D01*
X112196351Y-135735558D01*
X112115273Y-135617222D01*
X112047843Y-135494368D01*
X112047094Y-135492903D01*
X111915938Y-135311295D01*
X111780932Y-135214513D01*
X111628680Y-135111428D01*
X111585479Y-135043777D01*
X111481821Y-134978088D01*
X111267956Y-134934868D01*
X111001773Y-134916154D01*
X110741162Y-134923986D01*
X110544010Y-134960399D01*
X110474333Y-135004667D01*
X110357381Y-135070705D01*
X110219504Y-135089334D01*
X109935956Y-135114547D01*
X109605873Y-135179288D01*
X109294328Y-135267205D01*
X109066395Y-135361947D01*
X109023155Y-135389940D01*
X108951250Y-135454893D01*
X108993604Y-135460841D01*
G36*
X117246652Y-140458711D02*
G01*
X117369405Y-140508000D01*
X117485027Y-140470037D01*
X117518597Y-140338570D01*
X117474345Y-140087227D01*
X117450898Y-140000000D01*
X117407374Y-139860982D01*
X117389182Y-139879682D01*
X117383106Y-139973837D01*
X117341548Y-140144912D01*
X117290000Y-140211667D01*
X117206552Y-140333739D01*
X117246652Y-140458711D01*
G37*
X117246652Y-140458711D02*
X117369405Y-140508000D01*
X117485027Y-140470037D01*
X117518597Y-140338570D01*
X117474345Y-140087227D01*
X117450898Y-140000000D01*
X117407374Y-139860982D01*
X117389182Y-139879682D01*
X117383106Y-139973837D01*
X117341548Y-140144912D01*
X117290000Y-140211667D01*
X117206552Y-140333739D01*
X117246652Y-140458711D01*
G36*
X115367507Y-141069063D02*
G01*
X115470450Y-141081678D01*
X115696806Y-141068016D01*
X116003224Y-141031171D01*
X116099000Y-141016882D01*
X116632856Y-140963466D01*
X117122965Y-140969956D01*
X117526056Y-141033834D01*
X117734500Y-141112002D01*
X117861367Y-141162880D01*
X117870385Y-141131905D01*
X117772125Y-141047594D01*
X117692167Y-140997812D01*
X117487018Y-140939765D01*
X117115151Y-140904400D01*
X116577666Y-140891814D01*
X116495411Y-140891857D01*
X116061418Y-140888608D01*
X115796175Y-140875896D01*
X115699365Y-140853694D01*
X115754578Y-140825936D01*
X115949742Y-140759463D01*
X116015267Y-140705704D01*
X115940322Y-140683850D01*
X115829500Y-140693178D01*
X115714050Y-140690702D01*
X115647497Y-140615905D01*
X115605959Y-140429416D01*
X115588802Y-140296334D01*
X115553309Y-140091568D01*
X115521240Y-140041691D01*
X115502112Y-140132365D01*
X115505444Y-140349254D01*
X115510310Y-140414547D01*
X115483154Y-140649152D01*
X115420776Y-140816586D01*
X115359445Y-140981558D01*
X115367507Y-141069063D01*
G37*
X115367507Y-141069063D02*
X115470450Y-141081678D01*
X115696806Y-141068016D01*
X116003224Y-141031171D01*
X116099000Y-141016882D01*
X116632856Y-140963466D01*
X117122965Y-140969956D01*
X117526056Y-141033834D01*
X117734500Y-141112002D01*
X117861367Y-141162880D01*
X117870385Y-141131905D01*
X117772125Y-141047594D01*
X117692167Y-140997812D01*
X117487018Y-140939765D01*
X117115151Y-140904400D01*
X116577666Y-140891814D01*
X116495411Y-140891857D01*
X116061418Y-140888608D01*
X115796175Y-140875896D01*
X115699365Y-140853694D01*
X115754578Y-140825936D01*
X115949742Y-140759463D01*
X116015267Y-140705704D01*
X115940322Y-140683850D01*
X115829500Y-140693178D01*
X115714050Y-140690702D01*
X115647497Y-140615905D01*
X115605959Y-140429416D01*
X115588802Y-140296334D01*
X115553309Y-140091568D01*
X115521240Y-140041691D01*
X115502112Y-140132365D01*
X115505444Y-140349254D01*
X115510310Y-140414547D01*
X115483154Y-140649152D01*
X115420776Y-140816586D01*
X115359445Y-140981558D01*
X115367507Y-141069063D01*
G36*
X117726770Y-140462179D02*
G01*
X117817958Y-140456132D01*
X117946167Y-140416193D01*
X118088109Y-140297414D01*
X118138000Y-140127560D01*
X118079463Y-139979222D01*
X118049902Y-139956370D01*
X117985718Y-139968497D01*
X117986402Y-140014874D01*
X117951555Y-140104333D01*
X117908993Y-140107553D01*
X117819799Y-140160633D01*
X117739409Y-140294672D01*
X117710845Y-140425944D01*
X117726770Y-140462179D01*
G37*
X117726770Y-140462179D02*
X117817958Y-140456132D01*
X117946167Y-140416193D01*
X118088109Y-140297414D01*
X118138000Y-140127560D01*
X118079463Y-139979222D01*
X118049902Y-139956370D01*
X117985718Y-139968497D01*
X117986402Y-140014874D01*
X117951555Y-140104333D01*
X117908993Y-140107553D01*
X117819799Y-140160633D01*
X117739409Y-140294672D01*
X117710845Y-140425944D01*
X117726770Y-140462179D01*
G36*
X117494908Y-137364398D02*
G01*
X117603806Y-137433149D01*
X117780995Y-137486233D01*
X117998154Y-137591097D01*
X118115693Y-137730002D01*
X118209873Y-137925667D01*
X118215603Y-137730847D01*
X118169776Y-137569708D01*
X117998209Y-137444932D01*
X117927720Y-137413347D01*
X117658498Y-137316303D01*
X117507799Y-137296714D01*
X117490168Y-137356225D01*
X117494908Y-137364398D01*
G37*
X117494908Y-137364398D02*
X117603806Y-137433149D01*
X117780995Y-137486233D01*
X117998154Y-137591097D01*
X118115693Y-137730002D01*
X118209873Y-137925667D01*
X118215603Y-137730847D01*
X118169776Y-137569708D01*
X117998209Y-137444932D01*
X117927720Y-137413347D01*
X117658498Y-137316303D01*
X117507799Y-137296714D01*
X117490168Y-137356225D01*
X117494908Y-137364398D01*
G36*
X109913740Y-145329385D02*
G01*
X110212005Y-145449387D01*
X110510493Y-145537740D01*
X110592810Y-145554124D01*
X110814309Y-145559263D01*
X111103277Y-145527170D01*
X111409941Y-145468699D01*
X111684530Y-145394701D01*
X111877269Y-145316030D01*
X111938068Y-145260797D01*
X112007459Y-145155878D01*
X112152873Y-144980918D01*
X112235318Y-144889618D01*
X112454881Y-144623020D01*
X112668272Y-144318879D01*
X112718000Y-144238176D01*
X112924910Y-143957961D01*
X113182254Y-143697869D01*
X113258316Y-143637006D01*
X113519914Y-143404761D01*
X113736886Y-143141110D01*
X113873885Y-142894026D01*
X113903334Y-142761597D01*
X113987367Y-142680752D01*
X114236938Y-142600440D01*
X114540124Y-142539694D01*
X114893941Y-142486468D01*
X115148909Y-142473529D01*
X115371103Y-142502756D01*
X115608180Y-142570050D01*
X115900256Y-142650034D01*
X116162101Y-142698066D01*
X116262556Y-142704672D01*
X116297468Y-142683905D01*
X116190545Y-142632985D01*
X115964464Y-142561869D01*
X115893000Y-142542373D01*
X115425932Y-142403270D01*
X115027318Y-142255915D01*
X114723115Y-142112132D01*
X114539281Y-141983751D01*
X114496000Y-141905839D01*
X114568302Y-141760111D01*
X114743276Y-141622103D01*
X114958026Y-141535041D01*
X115051622Y-141524000D01*
X115209430Y-141550928D01*
X115478799Y-141622906D01*
X115812293Y-141726730D01*
X115963958Y-141778000D01*
X116383872Y-141918310D01*
X116669706Y-141998774D01*
X116844436Y-142022836D01*
X116931043Y-141993938D01*
X116952630Y-141926167D01*
X116981901Y-141882092D01*
X117036000Y-141947334D01*
X117103549Y-142013331D01*
X117119370Y-141985509D01*
X117198586Y-141901138D01*
X117416218Y-141793188D01*
X117745244Y-141674178D01*
X117882667Y-141631948D01*
X117916253Y-141651866D01*
X117833366Y-141749538D01*
X117809787Y-141770913D01*
X117619548Y-141897267D01*
X117454951Y-141947334D01*
X117298681Y-141985671D01*
X117251030Y-142026558D01*
X117281095Y-142060750D01*
X117419106Y-142041816D01*
X117616712Y-141981781D01*
X117825560Y-141892667D01*
X117858875Y-141875400D01*
X117981411Y-141779348D01*
X118116558Y-141633624D01*
X118228213Y-141484576D01*
X118280275Y-141378556D01*
X118264470Y-141354667D01*
X118160908Y-141390314D01*
X118072018Y-141434373D01*
X117910527Y-141501559D01*
X117647724Y-141591474D01*
X117336348Y-141688326D01*
X117029141Y-141776327D01*
X116778845Y-141839684D01*
X116641491Y-141862667D01*
X116499704Y-141835126D01*
X116252755Y-141763617D01*
X115949002Y-141664810D01*
X115636802Y-141555376D01*
X115364514Y-141451985D01*
X115180494Y-141371309D01*
X115135233Y-141343410D01*
X114986554Y-141279290D01*
X114902400Y-141270000D01*
X114767170Y-141227739D01*
X114751010Y-141135718D01*
X114837751Y-141046077D01*
X114982834Y-141010633D01*
X115135358Y-141001652D01*
X115130607Y-140974031D01*
X115036944Y-140933052D01*
X114871370Y-140819802D01*
X114807316Y-140728179D01*
X114700416Y-140636874D01*
X114626205Y-140645486D01*
X114513158Y-140657959D01*
X114507353Y-140592591D01*
X114596722Y-140491701D01*
X114686500Y-140434060D01*
X114815677Y-140363368D01*
X114790743Y-140356654D01*
X114665334Y-140386233D01*
X114421218Y-140425348D01*
X114267363Y-140432074D01*
X114097213Y-140460526D01*
X114030132Y-140508326D01*
X114046029Y-140553513D01*
X114125302Y-140534665D01*
X114229302Y-140521177D01*
X114217413Y-140619286D01*
X114212620Y-140728947D01*
X114260707Y-140739818D01*
X114337564Y-140797279D01*
X114379588Y-140952500D01*
X114365322Y-141122709D01*
X114304661Y-141185334D01*
X114252047Y-141214350D01*
X114303117Y-141280317D01*
X114364465Y-141429861D01*
X114293505Y-141560298D01*
X114143278Y-141608667D01*
X114131713Y-141612127D01*
X114131713Y-142105211D01*
X114267396Y-142123450D01*
X114501177Y-142192202D01*
X114736771Y-142267657D01*
X114888428Y-142322297D01*
X114919334Y-142338576D01*
X114844470Y-142364722D01*
X114652177Y-142412516D01*
X114483645Y-142450074D01*
X114233121Y-142496611D01*
X114059856Y-142515319D01*
X114013858Y-142509413D01*
X114006090Y-142411325D01*
X114031390Y-142269601D01*
X114068443Y-142151391D01*
X114131713Y-142105211D01*
X114131713Y-141612127D01*
X114031544Y-141642102D01*
X114029252Y-141691584D01*
X114045412Y-141851082D01*
X113937370Y-142002596D01*
X113746439Y-142102389D01*
X113625188Y-142119360D01*
X113452203Y-142130841D01*
X113425510Y-142171321D01*
X113481033Y-142225193D01*
X113607672Y-142376200D01*
X113716576Y-142571098D01*
X113824086Y-142813862D01*
X113516709Y-142756198D01*
X113314232Y-142732658D01*
X113257283Y-142768408D01*
X113267773Y-142793094D01*
X113254270Y-142910391D01*
X113148514Y-143041773D01*
X112970813Y-143195892D01*
X113161907Y-143333990D01*
X113262649Y-143426159D01*
X113230506Y-143452512D01*
X113226000Y-143451853D01*
X113065158Y-143469127D01*
X112843687Y-143538339D01*
X112822285Y-143547056D01*
X112571480Y-143615149D01*
X112282528Y-143606241D01*
X112123478Y-143579035D01*
X111880897Y-143536735D01*
X111775024Y-143538233D01*
X111778296Y-143586234D01*
X111797232Y-143611063D01*
X111934149Y-143704832D01*
X112163627Y-143802594D01*
X112259175Y-143833299D01*
X112487996Y-143916981D01*
X112569448Y-143997911D01*
X112555404Y-144053099D01*
X112460886Y-144122388D01*
X112310573Y-144072513D01*
X112149672Y-144026207D01*
X112086909Y-144057676D01*
X112114704Y-144140946D01*
X112208771Y-144190610D01*
X112346251Y-144266611D01*
X112379334Y-144323706D01*
X112311912Y-144389130D01*
X112151074Y-144393428D01*
X111958957Y-144342380D01*
X111833985Y-144272974D01*
X111615895Y-144172748D01*
X111461029Y-144148667D01*
X111316794Y-144159696D01*
X111322534Y-144221453D01*
X111392545Y-144303500D01*
X111516564Y-144459333D01*
X111524026Y-144534948D01*
X111403354Y-144534030D01*
X111142967Y-144460268D01*
X111024667Y-144420658D01*
X111003621Y-144448902D01*
X111084638Y-144567788D01*
X111189764Y-144686609D01*
X111423826Y-144893910D01*
X111599398Y-144954261D01*
X111634264Y-144947627D01*
X111760572Y-144949339D01*
X111786667Y-144998153D01*
X111706802Y-145061043D01*
X111469951Y-145071038D01*
X111404460Y-145066653D01*
X111162930Y-145060372D01*
X111063327Y-145095958D01*
X111063136Y-145142794D01*
X111060805Y-145237173D01*
X110962706Y-145229039D01*
X110802425Y-145125154D01*
X110751162Y-145080000D01*
X110609062Y-144970983D01*
X110491730Y-144914412D01*
X110438503Y-144920886D01*
X110488714Y-145001000D01*
X110499733Y-145012267D01*
X110590724Y-145135549D01*
X110551444Y-145204679D01*
X110369982Y-145225049D01*
X110072167Y-145205846D01*
X109543000Y-145153951D01*
X109913740Y-145329385D01*
G37*
X109913740Y-145329385D02*
X110212005Y-145449387D01*
X110510493Y-145537740D01*
X110592810Y-145554124D01*
X110814309Y-145559263D01*
X111103277Y-145527170D01*
X111409941Y-145468699D01*
X111684530Y-145394701D01*
X111877269Y-145316030D01*
X111938068Y-145260797D01*
X112007459Y-145155878D01*
X112152873Y-144980918D01*
X112235318Y-144889618D01*
X112454881Y-144623020D01*
X112668272Y-144318879D01*
X112718000Y-144238176D01*
X112924910Y-143957961D01*
X113182254Y-143697869D01*
X113258316Y-143637006D01*
X113519914Y-143404761D01*
X113736886Y-143141110D01*
X113873885Y-142894026D01*
X113903334Y-142761597D01*
X113987367Y-142680752D01*
X114236938Y-142600440D01*
X114540124Y-142539694D01*
X114893941Y-142486468D01*
X115148909Y-142473529D01*
X115371103Y-142502756D01*
X115608180Y-142570050D01*
X115900256Y-142650034D01*
X116162101Y-142698066D01*
X116262556Y-142704672D01*
X116297468Y-142683905D01*
X116190545Y-142632985D01*
X115964464Y-142561869D01*
X115893000Y-142542373D01*
X115425932Y-142403270D01*
X115027318Y-142255915D01*
X114723115Y-142112132D01*
X114539281Y-141983751D01*
X114496000Y-141905839D01*
X114568302Y-141760111D01*
X114743276Y-141622103D01*
X114958026Y-141535041D01*
X115051622Y-141524000D01*
X115209430Y-141550928D01*
X115478799Y-141622906D01*
X115812293Y-141726730D01*
X115963958Y-141778000D01*
X116383872Y-141918310D01*
X116669706Y-141998774D01*
X116844436Y-142022836D01*
X116931043Y-141993938D01*
X116952630Y-141926167D01*
X116981901Y-141882092D01*
X117036000Y-141947334D01*
X117103549Y-142013331D01*
X117119370Y-141985509D01*
X117198586Y-141901138D01*
X117416218Y-141793188D01*
X117745244Y-141674178D01*
X117882667Y-141631948D01*
X117916253Y-141651866D01*
X117833366Y-141749538D01*
X117809787Y-141770913D01*
X117619548Y-141897267D01*
X117454951Y-141947334D01*
X117298681Y-141985671D01*
X117251030Y-142026558D01*
X117281095Y-142060750D01*
X117419106Y-142041816D01*
X117616712Y-141981781D01*
X117825560Y-141892667D01*
X117858875Y-141875400D01*
X117981411Y-141779348D01*
X118116558Y-141633624D01*
X118228213Y-141484576D01*
X118280275Y-141378556D01*
X118264470Y-141354667D01*
X118160908Y-141390314D01*
X118072018Y-141434373D01*
X117910527Y-141501559D01*
X117647724Y-141591474D01*
X117336348Y-141688326D01*
X117029141Y-141776327D01*
X116778845Y-141839684D01*
X116641491Y-141862667D01*
X116499704Y-141835126D01*
X116252755Y-141763617D01*
X115949002Y-141664810D01*
X115636802Y-141555376D01*
X115364514Y-141451985D01*
X115180494Y-141371309D01*
X115135233Y-141343410D01*
X114986554Y-141279290D01*
X114902400Y-141270000D01*
X114767170Y-141227739D01*
X114751010Y-141135718D01*
X114837751Y-141046077D01*
X114982834Y-141010633D01*
X115135358Y-141001652D01*
X115130607Y-140974031D01*
X115036944Y-140933052D01*
X114871370Y-140819802D01*
X114807316Y-140728179D01*
X114700416Y-140636874D01*
X114626205Y-140645486D01*
X114513158Y-140657959D01*
X114507353Y-140592591D01*
X114596722Y-140491701D01*
X114686500Y-140434060D01*
X114815677Y-140363368D01*
X114790743Y-140356654D01*
X114665334Y-140386233D01*
X114421218Y-140425348D01*
X114267363Y-140432074D01*
X114097213Y-140460526D01*
X114030132Y-140508326D01*
X114046029Y-140553513D01*
X114125302Y-140534665D01*
X114229302Y-140521177D01*
X114217413Y-140619286D01*
X114212620Y-140728947D01*
X114260707Y-140739818D01*
X114337564Y-140797279D01*
X114379588Y-140952500D01*
X114365322Y-141122709D01*
X114304661Y-141185334D01*
X114252047Y-141214350D01*
X114303117Y-141280317D01*
X114364465Y-141429861D01*
X114293505Y-141560298D01*
X114143278Y-141608667D01*
X114131713Y-141612127D01*
X114131713Y-142105211D01*
X114267396Y-142123450D01*
X114501177Y-142192202D01*
X114736771Y-142267657D01*
X114888428Y-142322297D01*
X114919334Y-142338576D01*
X114844470Y-142364722D01*
X114652177Y-142412516D01*
X114483645Y-142450074D01*
X114233121Y-142496611D01*
X114059856Y-142515319D01*
X114013858Y-142509413D01*
X114006090Y-142411325D01*
X114031390Y-142269601D01*
X114068443Y-142151391D01*
X114131713Y-142105211D01*
X114131713Y-141612127D01*
X114031544Y-141642102D01*
X114029252Y-141691584D01*
X114045412Y-141851082D01*
X113937370Y-142002596D01*
X113746439Y-142102389D01*
X113625188Y-142119360D01*
X113452203Y-142130841D01*
X113425510Y-142171321D01*
X113481033Y-142225193D01*
X113607672Y-142376200D01*
X113716576Y-142571098D01*
X113824086Y-142813862D01*
X113516709Y-142756198D01*
X113314232Y-142732658D01*
X113257283Y-142768408D01*
X113267773Y-142793094D01*
X113254270Y-142910391D01*
X113148514Y-143041773D01*
X112970813Y-143195892D01*
X113161907Y-143333990D01*
X113262649Y-143426159D01*
X113230506Y-143452512D01*
X113226000Y-143451853D01*
X113065158Y-143469127D01*
X112843687Y-143538339D01*
X112822285Y-143547056D01*
X112571480Y-143615149D01*
X112282528Y-143606241D01*
X112123478Y-143579035D01*
X111880897Y-143536735D01*
X111775024Y-143538233D01*
X111778296Y-143586234D01*
X111797232Y-143611063D01*
X111934149Y-143704832D01*
X112163627Y-143802594D01*
X112259175Y-143833299D01*
X112487996Y-143916981D01*
X112569448Y-143997911D01*
X112555404Y-144053099D01*
X112460886Y-144122388D01*
X112310573Y-144072513D01*
X112149672Y-144026207D01*
X112086909Y-144057676D01*
X112114704Y-144140946D01*
X112208771Y-144190610D01*
X112346251Y-144266611D01*
X112379334Y-144323706D01*
X112311912Y-144389130D01*
X112151074Y-144393428D01*
X111958957Y-144342380D01*
X111833985Y-144272974D01*
X111615895Y-144172748D01*
X111461029Y-144148667D01*
X111316794Y-144159696D01*
X111322534Y-144221453D01*
X111392545Y-144303500D01*
X111516564Y-144459333D01*
X111524026Y-144534948D01*
X111403354Y-144534030D01*
X111142967Y-144460268D01*
X111024667Y-144420658D01*
X111003621Y-144448902D01*
X111084638Y-144567788D01*
X111189764Y-144686609D01*
X111423826Y-144893910D01*
X111599398Y-144954261D01*
X111634264Y-144947627D01*
X111760572Y-144949339D01*
X111786667Y-144998153D01*
X111706802Y-145061043D01*
X111469951Y-145071038D01*
X111404460Y-145066653D01*
X111162930Y-145060372D01*
X111063327Y-145095958D01*
X111063136Y-145142794D01*
X111060805Y-145237173D01*
X110962706Y-145229039D01*
X110802425Y-145125154D01*
X110751162Y-145080000D01*
X110609062Y-144970983D01*
X110491730Y-144914412D01*
X110438503Y-144920886D01*
X110488714Y-145001000D01*
X110499733Y-145012267D01*
X110590724Y-145135549D01*
X110551444Y-145204679D01*
X110369982Y-145225049D01*
X110072167Y-145205846D01*
X109543000Y-145153951D01*
X109913740Y-145329385D01*
G36*
X118105299Y-141094783D02*
G01*
X118259506Y-141044354D01*
X118306000Y-141016000D01*
X118372492Y-140954241D01*
X118288401Y-140933571D01*
X118242500Y-140932630D01*
X118093849Y-140963489D01*
X118052000Y-141016000D01*
X118105299Y-141094783D01*
G37*
X118105299Y-141094783D02*
X118259506Y-141044354D01*
X118306000Y-141016000D01*
X118372492Y-140954241D01*
X118288401Y-140933571D01*
X118242500Y-140932630D01*
X118093849Y-140963489D01*
X118052000Y-141016000D01*
X118105299Y-141094783D01*
G36*
X118348334Y-140762000D02*
G01*
X118390667Y-140719667D01*
X118348334Y-140677334D01*
X118306000Y-140719667D01*
X118348334Y-140762000D01*
G37*
X118348334Y-140762000D02*
X118390667Y-140719667D01*
X118348334Y-140677334D01*
X118306000Y-140719667D01*
X118348334Y-140762000D01*
G36*
X118410711Y-140452509D02*
G01*
X118453188Y-140579854D01*
X118475334Y-140592667D01*
X118538306Y-140521900D01*
X118549246Y-140348812D01*
X118508153Y-140132225D01*
X118475334Y-140042334D01*
X118429671Y-139971289D01*
X118405384Y-140040402D01*
X118396618Y-140232834D01*
X118410711Y-140452509D01*
G37*
X118410711Y-140452509D02*
X118453188Y-140579854D01*
X118475334Y-140592667D01*
X118538306Y-140521900D01*
X118549246Y-140348812D01*
X118508153Y-140132225D01*
X118475334Y-140042334D01*
X118429671Y-139971289D01*
X118405384Y-140040402D01*
X118396618Y-140232834D01*
X118410711Y-140452509D01*
G36*
X116727489Y-142767568D02*
G01*
X116905062Y-142744726D01*
X117325351Y-142624890D01*
X117733997Y-142408541D01*
X118087241Y-142127738D01*
X118341325Y-141814540D01*
X118426112Y-141630369D01*
X118536799Y-141482999D01*
X118708750Y-141372658D01*
X118941000Y-141273704D01*
X118687174Y-141321067D01*
X118508818Y-141358307D01*
X118430767Y-141382421D01*
X118430663Y-141382716D01*
X118306203Y-141686398D01*
X118068660Y-142005239D01*
X117763295Y-142294379D01*
X117435365Y-142508957D01*
X117210469Y-142592150D01*
X116950676Y-142661501D01*
X116782000Y-142716867D01*
X116681398Y-142760326D01*
X116727489Y-142767568D01*
G37*
X116727489Y-142767568D02*
X116905062Y-142744726D01*
X117325351Y-142624890D01*
X117733997Y-142408541D01*
X118087241Y-142127738D01*
X118341325Y-141814540D01*
X118426112Y-141630369D01*
X118536799Y-141482999D01*
X118708750Y-141372658D01*
X118941000Y-141273704D01*
X118687174Y-141321067D01*
X118508818Y-141358307D01*
X118430767Y-141382421D01*
X118430663Y-141382716D01*
X118306203Y-141686398D01*
X118068660Y-142005239D01*
X117763295Y-142294379D01*
X117435365Y-142508957D01*
X117210469Y-142592150D01*
X116950676Y-142661501D01*
X116782000Y-142716867D01*
X116681398Y-142760326D01*
X116727489Y-142767568D01*
G36*
X118614442Y-140755316D02*
G01*
X118786635Y-140705094D01*
X118850486Y-140577348D01*
X118779546Y-140430498D01*
X118766634Y-140419157D01*
X118672130Y-140369436D01*
X118644979Y-140464302D01*
X118644667Y-140490578D01*
X118599001Y-140650827D01*
X118538834Y-140705927D01*
X118522422Y-140740818D01*
X118614442Y-140755316D01*
G37*
X118614442Y-140755316D02*
X118786635Y-140705094D01*
X118850486Y-140577348D01*
X118779546Y-140430498D01*
X118766634Y-140419157D01*
X118672130Y-140369436D01*
X118644979Y-140464302D01*
X118644667Y-140490578D01*
X118599001Y-140650827D01*
X118538834Y-140705927D01*
X118522422Y-140740818D01*
X118614442Y-140755316D01*
G36*
X119590756Y-140824278D02*
G01*
X119641463Y-140790485D01*
X119660667Y-140762000D01*
X119730473Y-140604661D01*
X119736011Y-140484724D01*
X119677283Y-140457088D01*
X119660667Y-140465667D01*
X119593031Y-140583601D01*
X119577297Y-140703497D01*
X119590756Y-140824278D01*
G37*
X119590756Y-140824278D02*
X119641463Y-140790485D01*
X119660667Y-140762000D01*
X119730473Y-140604661D01*
X119736011Y-140484724D01*
X119677283Y-140457088D01*
X119660667Y-140465667D01*
X119593031Y-140583601D01*
X119577297Y-140703497D01*
X119590756Y-140824278D01*
G36*
X119713546Y-141406052D02*
G01*
X119830000Y-141312334D01*
X119955217Y-141185104D01*
X119999334Y-141116756D01*
X119946454Y-141133948D01*
X119830000Y-141227667D01*
X119704783Y-141354897D01*
X119660667Y-141423245D01*
X119713546Y-141406052D01*
G37*
X119713546Y-141406052D02*
X119830000Y-141312334D01*
X119955217Y-141185104D01*
X119999334Y-141116756D01*
X119946454Y-141133948D01*
X119830000Y-141227667D01*
X119704783Y-141354897D01*
X119660667Y-141423245D01*
X119713546Y-141406052D01*
G36*
X119684278Y-137939348D02*
G01*
X119892838Y-137938450D01*
X120141208Y-137920364D01*
X120302582Y-137887640D01*
X120337338Y-137862167D01*
X120263821Y-137820560D01*
X120083844Y-137804348D01*
X120062834Y-137804618D01*
X119812187Y-137830620D01*
X119618334Y-137880901D01*
X119571614Y-137921261D01*
X119684278Y-137939348D01*
G37*
X119684278Y-137939348D02*
X119892838Y-137938450D01*
X120141208Y-137920364D01*
X120302582Y-137887640D01*
X120337338Y-137862167D01*
X120263821Y-137820560D01*
X120083844Y-137804348D01*
X120062834Y-137804618D01*
X119812187Y-137830620D01*
X119618334Y-137880901D01*
X119571614Y-137921261D01*
X119684278Y-137939348D01*
G36*
X120371088Y-140133912D02*
G01*
X120453416Y-140320147D01*
X120482402Y-140381736D01*
X120614110Y-140592349D01*
X120753025Y-140662077D01*
X120799037Y-140659775D01*
X120950230Y-140579748D01*
X120999134Y-140441763D01*
X120932434Y-140313567D01*
X120873424Y-140281296D01*
X120707488Y-140177386D01*
X120651293Y-140112218D01*
X120551263Y-140031520D01*
X120421347Y-139995886D01*
X120341097Y-140023794D01*
X120338000Y-140039461D01*
X120371088Y-140133912D01*
G37*
X120371088Y-140133912D02*
X120453416Y-140320147D01*
X120482402Y-140381736D01*
X120614110Y-140592349D01*
X120753025Y-140662077D01*
X120799037Y-140659775D01*
X120950230Y-140579748D01*
X120999134Y-140441763D01*
X120932434Y-140313567D01*
X120873424Y-140281296D01*
X120707488Y-140177386D01*
X120651293Y-140112218D01*
X120551263Y-140031520D01*
X120421347Y-139995886D01*
X120341097Y-140023794D01*
X120338000Y-140039461D01*
X120371088Y-140133912D01*
G36*
X114831132Y-138811988D02*
G01*
X114844781Y-138822296D01*
X115130636Y-138968932D01*
X115569822Y-139098540D01*
X116146859Y-139207371D01*
X116739667Y-139281297D01*
X117357333Y-139347072D01*
X117846303Y-139408299D01*
X118246841Y-139471666D01*
X118599210Y-139543855D01*
X118943675Y-139631553D01*
X119078127Y-139669542D01*
X119547123Y-139834864D01*
X119864037Y-140021389D01*
X120045898Y-140241679D01*
X120102299Y-140424959D01*
X120101418Y-140634740D01*
X120050271Y-140805737D01*
X119970947Y-140896662D01*
X119885535Y-140866222D01*
X119874674Y-140850454D01*
X119801486Y-140787384D01*
X119743295Y-140849965D01*
X119630069Y-140924796D01*
X119505775Y-140871948D01*
X119416863Y-140723007D01*
X119399983Y-140616491D01*
X119382847Y-140483515D01*
X119350672Y-140487338D01*
X119349416Y-140490367D01*
X119283851Y-140555931D01*
X119184721Y-140499469D01*
X119057055Y-140442376D01*
X119004906Y-140458205D01*
X119012715Y-140544786D01*
X119070452Y-140597270D01*
X119141585Y-140692991D01*
X119110334Y-140740834D01*
X119044430Y-140855710D01*
X119005207Y-141039275D01*
X118998600Y-141223777D01*
X119030550Y-141341460D01*
X119056536Y-141354667D01*
X119180890Y-141408750D01*
X119259888Y-141473983D01*
X119401114Y-141545334D01*
X119479218Y-141531488D01*
X119499670Y-141454259D01*
X119365949Y-141355531D01*
X119211500Y-141250913D01*
X119152667Y-141171027D01*
X119200935Y-141104293D01*
X119341125Y-141173134D01*
X119433487Y-141248834D01*
X119549260Y-141345789D01*
X119556057Y-141316618D01*
X119496404Y-141198521D01*
X119366150Y-141051724D01*
X119217888Y-141045617D01*
X119104988Y-141058515D01*
X119132676Y-141002125D01*
X119272736Y-140956152D01*
X119504705Y-141005027D01*
X119757252Y-141051253D01*
X120080454Y-141065145D01*
X120245555Y-141057222D01*
X120529339Y-141024214D01*
X120702451Y-140988040D01*
X120749052Y-140955968D01*
X120653302Y-140935269D01*
X120519832Y-140931334D01*
X120337436Y-140916985D01*
X120281999Y-140848257D01*
X120300944Y-140728786D01*
X120290615Y-140468295D01*
X120166284Y-140185503D01*
X119959594Y-139944487D01*
X119886934Y-139890353D01*
X119694161Y-139789645D01*
X119410939Y-139670192D01*
X119184107Y-139587485D01*
X118956134Y-139500273D01*
X118838683Y-139434015D01*
X118856334Y-139403340D01*
X119123644Y-139401217D01*
X119366693Y-139468166D01*
X119551728Y-139555766D01*
X119727527Y-139631199D01*
X119901485Y-139654750D01*
X120136610Y-139629123D01*
X120341124Y-139589642D01*
X120685898Y-139500569D01*
X121019625Y-139385723D01*
X121191460Y-139309219D01*
X121459910Y-139194305D01*
X121636035Y-139196851D01*
X121744917Y-139332755D01*
X121811637Y-139617917D01*
X121824158Y-139710296D01*
X121848993Y-140032740D01*
X121820143Y-140258692D01*
X121738863Y-140439593D01*
X121652325Y-140644782D01*
X121640246Y-140807661D01*
X121642714Y-140815008D01*
X121628571Y-140971440D01*
X121557750Y-141078346D01*
X121450306Y-141161240D01*
X121336860Y-141152128D01*
X121176993Y-141067268D01*
X120996197Y-140982452D01*
X120932389Y-140994480D01*
X121002292Y-141088894D01*
X121078834Y-141152140D01*
X121279701Y-141235205D01*
X121541988Y-141264061D01*
X121788675Y-141237236D01*
X121929734Y-141168400D01*
X121976598Y-141037139D01*
X122007442Y-140783647D01*
X122021680Y-140454322D01*
X122018726Y-140095562D01*
X121997995Y-139753763D01*
X121958903Y-139475324D01*
X121951511Y-139442276D01*
X121866569Y-139165939D01*
X121765002Y-139024574D01*
X121621943Y-138984018D01*
X121617930Y-138984000D01*
X121495219Y-138916254D01*
X121385364Y-138701838D01*
X121347761Y-138588812D01*
X121234218Y-138315558D01*
X121097236Y-138124046D01*
X120963328Y-138043772D01*
X120883158Y-138071953D01*
X120887935Y-138171472D01*
X120973129Y-138341351D01*
X120988921Y-138365292D01*
X121092124Y-138606784D01*
X121113252Y-138864722D01*
X121058069Y-139085122D01*
X120932343Y-139214003D01*
X120897147Y-139224459D01*
X120781413Y-139214500D01*
X120786232Y-139125903D01*
X120800052Y-138893396D01*
X120716468Y-138614259D01*
X120562604Y-138356609D01*
X120427791Y-138225649D01*
X120201652Y-138090384D01*
X120087288Y-138079246D01*
X120089447Y-138185144D01*
X120212877Y-138400984D01*
X120263305Y-138471379D01*
X120367826Y-138655975D01*
X120390984Y-138793422D01*
X120385308Y-138806618D01*
X120281195Y-138892145D01*
X120191070Y-138870169D01*
X120174987Y-138793500D01*
X120174700Y-138533432D01*
X120094545Y-138403286D01*
X120041667Y-138391334D01*
X119929380Y-138457417D01*
X119914667Y-138515035D01*
X119856971Y-138660609D01*
X119740729Y-138800785D01*
X119566790Y-138962834D01*
X119783062Y-138978709D01*
X120041566Y-138998152D01*
X120200221Y-139010459D01*
X120353417Y-139050423D01*
X120369147Y-139117790D01*
X120271192Y-139188268D01*
X120083333Y-139237562D01*
X119969108Y-139246544D01*
X119338565Y-139254260D01*
X118706067Y-139248164D01*
X118094176Y-139229835D01*
X117525453Y-139200856D01*
X117022463Y-139162807D01*
X116607765Y-139117271D01*
X116303924Y-139065828D01*
X116133501Y-139010060D01*
X116104667Y-138975686D01*
X116180593Y-138945624D01*
X116377415Y-138942888D01*
X116591500Y-138961387D01*
X116856294Y-138983187D01*
X117208821Y-138997935D01*
X117612725Y-139005829D01*
X118031650Y-139007065D01*
X118429239Y-139001841D01*
X118769137Y-138990355D01*
X119014986Y-138972804D01*
X119130432Y-138949386D01*
X119132642Y-138947581D01*
X119155063Y-138868498D01*
X119029614Y-138835849D01*
X118771888Y-138851872D01*
X118623235Y-138874464D01*
X118333233Y-138912289D01*
X118158962Y-138898422D01*
X118059356Y-138835658D01*
X117899321Y-138762589D01*
X117810481Y-138775962D01*
X117601876Y-138834678D01*
X117344109Y-138872878D01*
X117097601Y-138886007D01*
X116922774Y-138869509D01*
X116879079Y-138846177D01*
X116775640Y-138816832D01*
X116543871Y-138802542D01*
X116224242Y-138804909D01*
X116041029Y-138813012D01*
X115698605Y-138824944D01*
X115439884Y-138819761D01*
X115298626Y-138798835D01*
X115282801Y-138782184D01*
X115365726Y-138719107D01*
X115571386Y-138605316D01*
X115867328Y-138457844D01*
X116166639Y-138318273D01*
X116506482Y-138160354D01*
X116776771Y-138027195D01*
X116947907Y-137933898D01*
X116992920Y-137896697D01*
X116908068Y-137917202D01*
X116702145Y-137997414D01*
X116406971Y-138124242D01*
X116088053Y-138268934D01*
X115709090Y-138434256D01*
X115358895Y-138568331D01*
X115081338Y-138655411D01*
X114940983Y-138680659D01*
X114759934Y-138690560D01*
X114729537Y-138725179D01*
X114831132Y-138811988D01*
G37*
X114831132Y-138811988D02*
X114844781Y-138822296D01*
X115130636Y-138968932D01*
X115569822Y-139098540D01*
X116146859Y-139207371D01*
X116739667Y-139281297D01*
X117357333Y-139347072D01*
X117846303Y-139408299D01*
X118246841Y-139471666D01*
X118599210Y-139543855D01*
X118943675Y-139631553D01*
X119078127Y-139669542D01*
X119547123Y-139834864D01*
X119864037Y-140021389D01*
X120045898Y-140241679D01*
X120102299Y-140424959D01*
X120101418Y-140634740D01*
X120050271Y-140805737D01*
X119970947Y-140896662D01*
X119885535Y-140866222D01*
X119874674Y-140850454D01*
X119801486Y-140787384D01*
X119743295Y-140849965D01*
X119630069Y-140924796D01*
X119505775Y-140871948D01*
X119416863Y-140723007D01*
X119399983Y-140616491D01*
X119382847Y-140483515D01*
X119350672Y-140487338D01*
X119349416Y-140490367D01*
X119283851Y-140555931D01*
X119184721Y-140499469D01*
X119057055Y-140442376D01*
X119004906Y-140458205D01*
X119012715Y-140544786D01*
X119070452Y-140597270D01*
X119141585Y-140692991D01*
X119110334Y-140740834D01*
X119044430Y-140855710D01*
X119005207Y-141039275D01*
X118998600Y-141223777D01*
X119030550Y-141341460D01*
X119056536Y-141354667D01*
X119180890Y-141408750D01*
X119259888Y-141473983D01*
X119401114Y-141545334D01*
X119479218Y-141531488D01*
X119499670Y-141454259D01*
X119365949Y-141355531D01*
X119211500Y-141250913D01*
X119152667Y-141171027D01*
X119200935Y-141104293D01*
X119341125Y-141173134D01*
X119433487Y-141248834D01*
X119549260Y-141345789D01*
X119556057Y-141316618D01*
X119496404Y-141198521D01*
X119366150Y-141051724D01*
X119217888Y-141045617D01*
X119104988Y-141058515D01*
X119132676Y-141002125D01*
X119272736Y-140956152D01*
X119504705Y-141005027D01*
X119757252Y-141051253D01*
X120080454Y-141065145D01*
X120245555Y-141057222D01*
X120529339Y-141024214D01*
X120702451Y-140988040D01*
X120749052Y-140955968D01*
X120653302Y-140935269D01*
X120519832Y-140931334D01*
X120337436Y-140916985D01*
X120281999Y-140848257D01*
X120300944Y-140728786D01*
X120290615Y-140468295D01*
X120166284Y-140185503D01*
X119959594Y-139944487D01*
X119886934Y-139890353D01*
X119694161Y-139789645D01*
X119410939Y-139670192D01*
X119184107Y-139587485D01*
X118956134Y-139500273D01*
X118838683Y-139434015D01*
X118856334Y-139403340D01*
X119123644Y-139401217D01*
X119366693Y-139468166D01*
X119551728Y-139555766D01*
X119727527Y-139631199D01*
X119901485Y-139654750D01*
X120136610Y-139629123D01*
X120341124Y-139589642D01*
X120685898Y-139500569D01*
X121019625Y-139385723D01*
X121191460Y-139309219D01*
X121459910Y-139194305D01*
X121636035Y-139196851D01*
X121744917Y-139332755D01*
X121811637Y-139617917D01*
X121824158Y-139710296D01*
X121848993Y-140032740D01*
X121820143Y-140258692D01*
X121738863Y-140439593D01*
X121652325Y-140644782D01*
X121640246Y-140807661D01*
X121642714Y-140815008D01*
X121628571Y-140971440D01*
X121557750Y-141078346D01*
X121450306Y-141161240D01*
X121336860Y-141152128D01*
X121176993Y-141067268D01*
X120996197Y-140982452D01*
X120932389Y-140994480D01*
X121002292Y-141088894D01*
X121078834Y-141152140D01*
X121279701Y-141235205D01*
X121541988Y-141264061D01*
X121788675Y-141237236D01*
X121929734Y-141168400D01*
X121976598Y-141037139D01*
X122007442Y-140783647D01*
X122021680Y-140454322D01*
X122018726Y-140095562D01*
X121997995Y-139753763D01*
X121958903Y-139475324D01*
X121951511Y-139442276D01*
X121866569Y-139165939D01*
X121765002Y-139024574D01*
X121621943Y-138984018D01*
X121617930Y-138984000D01*
X121495219Y-138916254D01*
X121385364Y-138701838D01*
X121347761Y-138588812D01*
X121234218Y-138315558D01*
X121097236Y-138124046D01*
X120963328Y-138043772D01*
X120883158Y-138071953D01*
X120887935Y-138171472D01*
X120973129Y-138341351D01*
X120988921Y-138365292D01*
X121092124Y-138606784D01*
X121113252Y-138864722D01*
X121058069Y-139085122D01*
X120932343Y-139214003D01*
X120897147Y-139224459D01*
X120781413Y-139214500D01*
X120786232Y-139125903D01*
X120800052Y-138893396D01*
X120716468Y-138614259D01*
X120562604Y-138356609D01*
X120427791Y-138225649D01*
X120201652Y-138090384D01*
X120087288Y-138079246D01*
X120089447Y-138185144D01*
X120212877Y-138400984D01*
X120263305Y-138471379D01*
X120367826Y-138655975D01*
X120390984Y-138793422D01*
X120385308Y-138806618D01*
X120281195Y-138892145D01*
X120191070Y-138870169D01*
X120174987Y-138793500D01*
X120174700Y-138533432D01*
X120094545Y-138403286D01*
X120041667Y-138391334D01*
X119929380Y-138457417D01*
X119914667Y-138515035D01*
X119856971Y-138660609D01*
X119740729Y-138800785D01*
X119566790Y-138962834D01*
X119783062Y-138978709D01*
X120041566Y-138998152D01*
X120200221Y-139010459D01*
X120353417Y-139050423D01*
X120369147Y-139117790D01*
X120271192Y-139188268D01*
X120083333Y-139237562D01*
X119969108Y-139246544D01*
X119338565Y-139254260D01*
X118706067Y-139248164D01*
X118094176Y-139229835D01*
X117525453Y-139200856D01*
X117022463Y-139162807D01*
X116607765Y-139117271D01*
X116303924Y-139065828D01*
X116133501Y-139010060D01*
X116104667Y-138975686D01*
X116180593Y-138945624D01*
X116377415Y-138942888D01*
X116591500Y-138961387D01*
X116856294Y-138983187D01*
X117208821Y-138997935D01*
X117612725Y-139005829D01*
X118031650Y-139007065D01*
X118429239Y-139001841D01*
X118769137Y-138990355D01*
X119014986Y-138972804D01*
X119130432Y-138949386D01*
X119132642Y-138947581D01*
X119155063Y-138868498D01*
X119029614Y-138835849D01*
X118771888Y-138851872D01*
X118623235Y-138874464D01*
X118333233Y-138912289D01*
X118158962Y-138898422D01*
X118059356Y-138835658D01*
X117899321Y-138762589D01*
X117810481Y-138775962D01*
X117601876Y-138834678D01*
X117344109Y-138872878D01*
X117097601Y-138886007D01*
X116922774Y-138869509D01*
X116879079Y-138846177D01*
X116775640Y-138816832D01*
X116543871Y-138802542D01*
X116224242Y-138804909D01*
X116041029Y-138813012D01*
X115698605Y-138824944D01*
X115439884Y-138819761D01*
X115298626Y-138798835D01*
X115282801Y-138782184D01*
X115365726Y-138719107D01*
X115571386Y-138605316D01*
X115867328Y-138457844D01*
X116166639Y-138318273D01*
X116506482Y-138160354D01*
X116776771Y-138027195D01*
X116947907Y-137933898D01*
X116992920Y-137896697D01*
X116908068Y-137917202D01*
X116702145Y-137997414D01*
X116406971Y-138124242D01*
X116088053Y-138268934D01*
X115709090Y-138434256D01*
X115358895Y-138568331D01*
X115081338Y-138655411D01*
X114940983Y-138680659D01*
X114759934Y-138690560D01*
X114729537Y-138725179D01*
X114831132Y-138811988D01*
%TD*%
D12*
%TO.C,J16*%
X143020000Y-88160000D03*
X141750000Y-88160000D03*
X143020000Y-86890000D03*
X141750000Y-86890000D03*
X143020000Y-85620000D03*
X141750000Y-85620000D03*
X143020000Y-84350000D03*
D13*
X141750000Y-84350000D03*
%TD*%
D14*
%TO.C,H16*%
X152947056Y-99552944D03*
X151250000Y-98850000D03*
X149552944Y-99552944D03*
X148850000Y-101250000D03*
X149552944Y-102947056D03*
X151250000Y-103650000D03*
X152947056Y-102947056D03*
X153650000Y-101250000D03*
D15*
X151250000Y-101250000D03*
%TD*%
D14*
%TO.C,H15*%
X104947056Y-99552944D03*
X103250000Y-98850000D03*
X101552944Y-99552944D03*
X100850000Y-101250000D03*
X101552944Y-102947056D03*
X103250000Y-103650000D03*
X104947056Y-102947056D03*
X105650000Y-101250000D03*
D15*
X103250000Y-101250000D03*
%TD*%
D14*
%TO.C,H14*%
X152947056Y-147552944D03*
X151250000Y-146850000D03*
X149552944Y-147552944D03*
X148850000Y-149250000D03*
X149552944Y-150947056D03*
X151250000Y-151650000D03*
X152947056Y-150947056D03*
X153650000Y-149250000D03*
D15*
X151250000Y-149250000D03*
%TD*%
D14*
%TO.C,H13*%
X104947056Y-147552944D03*
X103250000Y-146850000D03*
X101552944Y-147552944D03*
X100850000Y-149250000D03*
X101552944Y-150947056D03*
X103250000Y-151650000D03*
X104947056Y-150947056D03*
X105650000Y-149250000D03*
D15*
X103250000Y-149250000D03*
%TD*%
D14*
%TO.C,H4*%
X104947056Y-36552944D03*
X103250000Y-35850000D03*
X101552944Y-36552944D03*
X100850000Y-38250000D03*
X101552944Y-39947056D03*
X103250000Y-40650000D03*
X104947056Y-39947056D03*
X105650000Y-38250000D03*
D15*
X103250000Y-38250000D03*
%TD*%
D14*
%TO.C,H3*%
X104947056Y-84552944D03*
X103250000Y-83850000D03*
X101552944Y-84552944D03*
X100850000Y-86250000D03*
X101552944Y-87947056D03*
X103250000Y-88650000D03*
X104947056Y-87947056D03*
X105650000Y-86250000D03*
D15*
X103250000Y-86250000D03*
%TD*%
D14*
%TO.C,H2*%
X152947056Y-36552944D03*
X151250000Y-35850000D03*
X149552944Y-36552944D03*
X148850000Y-38250000D03*
X149552944Y-39947056D03*
X151250000Y-40650000D03*
X152947056Y-39947056D03*
X153650000Y-38250000D03*
D15*
X151250000Y-38250000D03*
%TD*%
D16*
%TO.C,REF\u002A\u002A*%
X87250000Y-106750000D03*
X87250000Y-105750000D03*
X87250000Y-104750000D03*
X87250000Y-103750000D03*
%TD*%
%TO.C,REF\u002A\u002A*%
X87250000Y-116250000D03*
X87250000Y-115250000D03*
X87250000Y-114250000D03*
X87250000Y-113250000D03*
%TD*%
%TO.C,REF\u002A\u002A*%
X87250000Y-38750000D03*
X87250000Y-39750000D03*
X87250000Y-40750000D03*
X87250000Y-41750000D03*
%TD*%
%TO.C,REF\u002A\u002A*%
X97250000Y-38750000D03*
X97250000Y-39750000D03*
X97250000Y-40750000D03*
X97250000Y-41750000D03*
%TD*%
%TO.C,REF\u002A\u002A*%
X87500000Y-48250000D03*
X87500000Y-49250000D03*
X87500000Y-50250000D03*
X87500000Y-51250000D03*
%TD*%
%TO.C,REF\u002A\u002A*%
X97250000Y-51250000D03*
X97250000Y-50250000D03*
X97250000Y-49250000D03*
X97250000Y-48250000D03*
%TD*%
%TO.C,REF\u002A\u002A*%
X87250000Y-74000000D03*
X87250000Y-73000000D03*
X87250000Y-72000000D03*
X87250000Y-71000000D03*
%TD*%
%TO.C,REF\u002A\u002A*%
X97250000Y-74000000D03*
X97250000Y-73000000D03*
X97250000Y-72000000D03*
X97250000Y-71000000D03*
%TD*%
%TO.C,REF\u002A\u002A*%
X87250000Y-80750000D03*
X87250000Y-81750000D03*
X87250000Y-82750000D03*
X87250000Y-83750000D03*
%TD*%
%TO.C,REF\u002A\u002A*%
X64000000Y-57750000D03*
X63000000Y-57750000D03*
X62000000Y-57750000D03*
X61000000Y-57750000D03*
%TD*%
%TO.C,REF\u002A\u002A*%
X80250000Y-57750000D03*
X79250000Y-57750000D03*
X78250000Y-57750000D03*
X77250000Y-57750000D03*
%TD*%
%TO.C,REF\u002A\u002A*%
X64000000Y-64750000D03*
X63000000Y-64750000D03*
X62000000Y-64750000D03*
X61000000Y-64750000D03*
%TD*%
%TO.C,REF\u002A\u002A*%
X80250000Y-64750000D03*
X79250000Y-64750000D03*
X78250000Y-64750000D03*
X77250000Y-64750000D03*
%TD*%
%TO.C,REF\u002A\u002A*%
X80250000Y-90250000D03*
X79250000Y-90250000D03*
X78250000Y-90250000D03*
X77250000Y-90250000D03*
%TD*%
%TO.C,REF\u002A\u002A*%
X64000000Y-90250000D03*
X63000000Y-90250000D03*
X62000000Y-90250000D03*
X61000000Y-90250000D03*
%TD*%
%TO.C,REF\u002A\u002A*%
X64250000Y-129750000D03*
X63250000Y-129750000D03*
X62250000Y-129750000D03*
X61250000Y-129750000D03*
%TD*%
%TO.C,REF\u002A\u002A*%
X80250000Y-129750000D03*
X79250000Y-129750000D03*
X78250000Y-129750000D03*
X77250000Y-129750000D03*
%TD*%
%TO.C,REF\u002A\u002A*%
X87250000Y-148750000D03*
X87250000Y-147750000D03*
X87250000Y-146750000D03*
X87250000Y-145750000D03*
%TD*%
%TO.C,REF\u002A\u002A*%
X87250000Y-139250000D03*
X87250000Y-138250000D03*
X87250000Y-137250000D03*
X87250000Y-136250000D03*
%TD*%
D17*
%TO.C,MK3*%
X61398000Y-148809330D03*
%TD*%
%TO.C,MK2*%
X61398000Y-83809330D03*
%TD*%
%TO.C,MK1*%
X61398000Y-51309330D03*
%TD*%
D18*
%TO.C,J9*%
X83750000Y-151030000D03*
X83750000Y-148490000D03*
X83750000Y-145950000D03*
X83750000Y-143410000D03*
X83750000Y-140870000D03*
X83750000Y-138330000D03*
X83750000Y-135790000D03*
D19*
X83750000Y-133250000D03*
%TD*%
D18*
%TO.C,J8*%
X83750000Y-86030000D03*
X83750000Y-83490000D03*
X83750000Y-80950000D03*
X83750000Y-78410000D03*
X83750000Y-75870000D03*
X83750000Y-73330000D03*
X83750000Y-70790000D03*
D19*
X83750000Y-68250000D03*
%TD*%
D18*
%TO.C,J4*%
X83750000Y-53530000D03*
X83750000Y-50990000D03*
X83750000Y-48450000D03*
X83750000Y-45910000D03*
X83750000Y-43370000D03*
X83750000Y-40830000D03*
X83750000Y-38290000D03*
D19*
X83750000Y-35750000D03*
%TD*%
D20*
%TO.C,H10*%
X57461000Y-132895000D03*
%TD*%
%TO.C,H9*%
X66696000Y-152159000D03*
%TD*%
%TO.C,H8*%
X57461000Y-67895000D03*
%TD*%
%TO.C,H7*%
X66696000Y-87159000D03*
%TD*%
%TO.C,H6*%
X57461000Y-35395000D03*
%TD*%
%TO.C,H5*%
X66696000Y-54659000D03*
%TD*%
D16*
%TO.C,REF\u002A\u002A*%
X97250000Y-80750000D03*
X97250000Y-81750000D03*
X97250000Y-82750000D03*
X97250000Y-83750000D03*
%TD*%
%TO.C,REF\u002A\u002A*%
X97250000Y-103750000D03*
X97250000Y-104750000D03*
X97250000Y-105750000D03*
X97250000Y-106750000D03*
%TD*%
%TO.C,REF\u002A\u002A*%
X97250000Y-113250000D03*
X97250000Y-114250000D03*
X97250000Y-115250000D03*
X97250000Y-116250000D03*
%TD*%
%TO.C,REF\u002A\u002A*%
X97250000Y-145750000D03*
X97250000Y-146750000D03*
X97250000Y-147750000D03*
X97250000Y-148750000D03*
%TD*%
%TO.C,REF\u002A\u002A*%
X97250000Y-136250000D03*
X97250000Y-137250000D03*
X97250000Y-138250000D03*
X97250000Y-139250000D03*
%TD*%
%TO.C,REF\u002A\u002A*%
X80250000Y-97100000D03*
X79250000Y-97100000D03*
X78250000Y-97100000D03*
X77250000Y-97100000D03*
%TD*%
%TO.C,REF\u002A\u002A*%
X64000000Y-97100000D03*
X63000000Y-97100000D03*
X62000000Y-97100000D03*
X61000000Y-97100000D03*
%TD*%
%TO.C,REF\u002A\u002A*%
X64250000Y-122600000D03*
X63250000Y-122600000D03*
X62250000Y-122600000D03*
X61250000Y-122600000D03*
%TD*%
%TO.C,REF\u002A\u002A*%
X80250000Y-122600000D03*
X79250000Y-122600000D03*
X78250000Y-122600000D03*
X77250000Y-122600000D03*
%TD*%
D21*
%TO.C,J13*%
X151525000Y-54470000D03*
X151525000Y-45830000D03*
X155350000Y-54470000D03*
X155350000Y-45830000D03*
D22*
X152250000Y-53150000D03*
D23*
X152250000Y-47150000D03*
%TD*%
D24*
%TO.C,J11*%
X122310000Y-76500000D03*
X122310000Y-85500000D03*
D25*
X120510000Y-75375000D03*
X112730000Y-75375000D03*
D26*
X108425000Y-76170000D03*
X122715000Y-87650000D03*
D27*
X108325000Y-87500000D03*
D28*
X120370000Y-88125000D03*
X119270000Y-88125000D03*
X118170000Y-88125000D03*
X117070000Y-88125000D03*
X115970000Y-88125000D03*
X114870000Y-88125000D03*
X113770000Y-88125000D03*
X112670000Y-88125000D03*
%TD*%
%TO.C,R4*%
G36*
G01*
X120325000Y-96562500D02*
X120325000Y-96037500D01*
G75*
G02*
X120587500Y-95775000I262500J0D01*
G01*
X121212500Y-95775000D01*
G75*
G02*
X121475000Y-96037500I0J-262500D01*
G01*
X121475000Y-96562500D01*
G75*
G02*
X121212500Y-96825000I-262500J0D01*
G01*
X120587500Y-96825000D01*
G75*
G02*
X120325000Y-96562500I0J262500D01*
G01*
G37*
G36*
G01*
X118575000Y-96562500D02*
X118575000Y-96037500D01*
G75*
G02*
X118837500Y-95775000I262500J0D01*
G01*
X119462500Y-95775000D01*
G75*
G02*
X119725000Y-96037500I0J-262500D01*
G01*
X119725000Y-96562500D01*
G75*
G02*
X119462500Y-96825000I-262500J0D01*
G01*
X118837500Y-96825000D01*
G75*
G02*
X118575000Y-96562500I0J262500D01*
G01*
G37*
%TD*%
%TO.C,R3*%
G36*
G01*
X134175000Y-96037500D02*
X134175000Y-96562500D01*
G75*
G02*
X133912500Y-96825000I-262500J0D01*
G01*
X133287500Y-96825000D01*
G75*
G02*
X133025000Y-96562500I0J262500D01*
G01*
X133025000Y-96037500D01*
G75*
G02*
X133287500Y-95775000I262500J0D01*
G01*
X133912500Y-95775000D01*
G75*
G02*
X134175000Y-96037500I0J-262500D01*
G01*
G37*
G36*
G01*
X135925000Y-96037500D02*
X135925000Y-96562500D01*
G75*
G02*
X135662500Y-96825000I-262500J0D01*
G01*
X135037500Y-96825000D01*
G75*
G02*
X134775000Y-96562500I0J262500D01*
G01*
X134775000Y-96037500D01*
G75*
G02*
X135037500Y-95775000I262500J0D01*
G01*
X135662500Y-95775000D01*
G75*
G02*
X135925000Y-96037500I0J-262500D01*
G01*
G37*
%TD*%
%TO.C,D3*%
G36*
G01*
X124511666Y-96037500D02*
X124511666Y-96562500D01*
G75*
G02*
X124249166Y-96825000I-262500J0D01*
G01*
X123624166Y-96825000D01*
G75*
G02*
X123361666Y-96562500I0J262500D01*
G01*
X123361666Y-96037500D01*
G75*
G02*
X123624166Y-95775000I262500J0D01*
G01*
X124249166Y-95775000D01*
G75*
G02*
X124511666Y-96037500I0J-262500D01*
G01*
G37*
G36*
G01*
X126261666Y-96037500D02*
X126261666Y-96562500D01*
G75*
G02*
X125999166Y-96825000I-262500J0D01*
G01*
X125374166Y-96825000D01*
G75*
G02*
X125111666Y-96562500I0J262500D01*
G01*
X125111666Y-96037500D01*
G75*
G02*
X125374166Y-95775000I262500J0D01*
G01*
X125999166Y-95775000D01*
G75*
G02*
X126261666Y-96037500I0J-262500D01*
G01*
G37*
%TD*%
%TO.C,D2*%
G36*
G01*
X129988332Y-96562500D02*
X129988332Y-96037500D01*
G75*
G02*
X130250832Y-95775000I262500J0D01*
G01*
X130875832Y-95775000D01*
G75*
G02*
X131138332Y-96037500I0J-262500D01*
G01*
X131138332Y-96562500D01*
G75*
G02*
X130875832Y-96825000I-262500J0D01*
G01*
X130250832Y-96825000D01*
G75*
G02*
X129988332Y-96562500I0J262500D01*
G01*
G37*
G36*
G01*
X128238332Y-96562500D02*
X128238332Y-96037500D01*
G75*
G02*
X128500832Y-95775000I262500J0D01*
G01*
X129125832Y-95775000D01*
G75*
G02*
X129388332Y-96037500I0J-262500D01*
G01*
X129388332Y-96562500D01*
G75*
G02*
X129125832Y-96825000I-262500J0D01*
G01*
X128500832Y-96825000D01*
G75*
G02*
X128238332Y-96562500I0J262500D01*
G01*
G37*
%TD*%
D18*
%TO.C,J2*%
X133600000Y-98850000D03*
X131060000Y-98850000D03*
X128520000Y-98850000D03*
X125980000Y-98850000D03*
X123440000Y-98850000D03*
D19*
X120900000Y-98850000D03*
%TD*%
D12*
%TO.C,J14*%
X131690000Y-102250000D03*
X130420000Y-102250000D03*
X129150000Y-102250000D03*
X127880000Y-102250000D03*
X126610000Y-102250000D03*
X125340000Y-102250000D03*
X124070000Y-102250000D03*
D13*
X122800000Y-102250000D03*
%TD*%
D29*
%TO.C,J3*%
X111250000Y-36750000D03*
X111250000Y-34750000D03*
X113250000Y-36750000D03*
X113250000Y-34750000D03*
X115250000Y-36750000D03*
X115250000Y-34750000D03*
X117250000Y-36750000D03*
D30*
X117250000Y-34750000D03*
%TD*%
D29*
%TO.C,J5*%
X101700000Y-47274998D03*
X99700000Y-47274998D03*
X101700000Y-49274998D03*
X99700000Y-49274998D03*
X101700000Y-51274998D03*
X99700000Y-51274998D03*
X101700000Y-53274998D03*
D30*
X99700000Y-53274998D03*
%TD*%
D29*
%TO.C,J6*%
X101700000Y-65250000D03*
X99700000Y-65250000D03*
X101700000Y-63250000D03*
X99700000Y-63250000D03*
X101700000Y-61250000D03*
X99700000Y-61250000D03*
X101700000Y-59250000D03*
D30*
X99700000Y-59250000D03*
%TD*%
D29*
%TO.C,J7*%
X101700000Y-71225000D03*
X99700000Y-71225000D03*
X101700000Y-73225000D03*
X99700000Y-73225000D03*
X101700000Y-75225000D03*
X99700000Y-75225000D03*
X101700000Y-77225000D03*
D30*
X99700000Y-77225000D03*
%TD*%
%TO.C,R19*%
G36*
G01*
X119450000Y-48737500D02*
X119450000Y-49262500D01*
G75*
G02*
X119187500Y-49525000I-262500J0D01*
G01*
X118562500Y-49525000D01*
G75*
G02*
X118300000Y-49262500I0J262500D01*
G01*
X118300000Y-48737500D01*
G75*
G02*
X118562500Y-48475000I262500J0D01*
G01*
X119187500Y-48475000D01*
G75*
G02*
X119450000Y-48737500I0J-262500D01*
G01*
G37*
G36*
G01*
X121200000Y-48737500D02*
X121200000Y-49262500D01*
G75*
G02*
X120937500Y-49525000I-262500J0D01*
G01*
X120312500Y-49525000D01*
G75*
G02*
X120050000Y-49262500I0J262500D01*
G01*
X120050000Y-48737500D01*
G75*
G02*
X120312500Y-48475000I262500J0D01*
G01*
X120937500Y-48475000D01*
G75*
G02*
X121200000Y-48737500I0J-262500D01*
G01*
G37*
%TD*%
%TO.C,C15*%
G36*
G01*
X123737500Y-48150000D02*
X124262500Y-48150000D01*
G75*
G02*
X124525000Y-48412500I0J-262500D01*
G01*
X124525000Y-49037500D01*
G75*
G02*
X124262500Y-49300000I-262500J0D01*
G01*
X123737500Y-49300000D01*
G75*
G02*
X123475000Y-49037500I0J262500D01*
G01*
X123475000Y-48412500D01*
G75*
G02*
X123737500Y-48150000I262500J0D01*
G01*
G37*
G36*
G01*
X123737500Y-46400000D02*
X124262500Y-46400000D01*
G75*
G02*
X124525000Y-46662500I0J-262500D01*
G01*
X124525000Y-47287500D01*
G75*
G02*
X124262500Y-47550000I-262500J0D01*
G01*
X123737500Y-47550000D01*
G75*
G02*
X123475000Y-47287500I0J262500D01*
G01*
X123475000Y-46662500D01*
G75*
G02*
X123737500Y-46400000I262500J0D01*
G01*
G37*
%TD*%
%TO.C,R54*%
G36*
G01*
X107857512Y-65538500D02*
X107857512Y-65013500D01*
G75*
G02*
X108120012Y-64751000I262500J0D01*
G01*
X108745012Y-64751000D01*
G75*
G02*
X109007512Y-65013500I0J-262500D01*
G01*
X109007512Y-65538500D01*
G75*
G02*
X108745012Y-65801000I-262500J0D01*
G01*
X108120012Y-65801000D01*
G75*
G02*
X107857512Y-65538500I0J262500D01*
G01*
G37*
G36*
G01*
X106107512Y-65538500D02*
X106107512Y-65013500D01*
G75*
G02*
X106370012Y-64751000I262500J0D01*
G01*
X106995012Y-64751000D01*
G75*
G02*
X107257512Y-65013500I0J-262500D01*
G01*
X107257512Y-65538500D01*
G75*
G02*
X106995012Y-65801000I-262500J0D01*
G01*
X106370012Y-65801000D01*
G75*
G02*
X106107512Y-65538500I0J262500D01*
G01*
G37*
%TD*%
%TO.C,R42*%
G36*
G01*
X105637500Y-52574998D02*
X106162500Y-52574998D01*
G75*
G02*
X106425000Y-52837498I0J-262500D01*
G01*
X106425000Y-53462498D01*
G75*
G02*
X106162500Y-53724998I-262500J0D01*
G01*
X105637500Y-53724998D01*
G75*
G02*
X105375000Y-53462498I0J262500D01*
G01*
X105375000Y-52837498D01*
G75*
G02*
X105637500Y-52574998I262500J0D01*
G01*
G37*
G36*
G01*
X105637500Y-50824998D02*
X106162500Y-50824998D01*
G75*
G02*
X106425000Y-51087498I0J-262500D01*
G01*
X106425000Y-51712498D01*
G75*
G02*
X106162500Y-51974998I-262500J0D01*
G01*
X105637500Y-51974998D01*
G75*
G02*
X105375000Y-51712498I0J262500D01*
G01*
X105375000Y-51087498D01*
G75*
G02*
X105637500Y-50824998I262500J0D01*
G01*
G37*
%TD*%
D20*
%TO.C,H12*%
X57425500Y-100200000D03*
%TD*%
%TO.C,H11*%
X66660500Y-119464000D03*
%TD*%
%TO.C,R56*%
G36*
G01*
X109250000Y-59171500D02*
X109250000Y-59696500D01*
G75*
G02*
X108987500Y-59959000I-262500J0D01*
G01*
X108362500Y-59959000D01*
G75*
G02*
X108100000Y-59696500I0J262500D01*
G01*
X108100000Y-59171500D01*
G75*
G02*
X108362500Y-58909000I262500J0D01*
G01*
X108987500Y-58909000D01*
G75*
G02*
X109250000Y-59171500I0J-262500D01*
G01*
G37*
G36*
G01*
X111000000Y-59171500D02*
X111000000Y-59696500D01*
G75*
G02*
X110737500Y-59959000I-262500J0D01*
G01*
X110112500Y-59959000D01*
G75*
G02*
X109850000Y-59696500I0J262500D01*
G01*
X109850000Y-59171500D01*
G75*
G02*
X110112500Y-58909000I262500J0D01*
G01*
X110737500Y-58909000D01*
G75*
G02*
X111000000Y-59171500I0J-262500D01*
G01*
G37*
%TD*%
%TO.C,R55*%
G36*
G01*
X105350000Y-59171500D02*
X105350000Y-59696500D01*
G75*
G02*
X105087500Y-59959000I-262500J0D01*
G01*
X104462500Y-59959000D01*
G75*
G02*
X104200000Y-59696500I0J262500D01*
G01*
X104200000Y-59171500D01*
G75*
G02*
X104462500Y-58909000I262500J0D01*
G01*
X105087500Y-58909000D01*
G75*
G02*
X105350000Y-59171500I0J-262500D01*
G01*
G37*
G36*
G01*
X107100000Y-59171500D02*
X107100000Y-59696500D01*
G75*
G02*
X106837500Y-59959000I-262500J0D01*
G01*
X106212500Y-59959000D01*
G75*
G02*
X105950000Y-59696500I0J262500D01*
G01*
X105950000Y-59171500D01*
G75*
G02*
X106212500Y-58909000I262500J0D01*
G01*
X106837500Y-58909000D01*
G75*
G02*
X107100000Y-59171500I0J-262500D01*
G01*
G37*
%TD*%
%TO.C,R44*%
G36*
G01*
X112124500Y-53950000D02*
X111599500Y-53950000D01*
G75*
G02*
X111337000Y-53687500I0J262500D01*
G01*
X111337000Y-53062500D01*
G75*
G02*
X111599500Y-52800000I262500J0D01*
G01*
X112124500Y-52800000D01*
G75*
G02*
X112387000Y-53062500I0J-262500D01*
G01*
X112387000Y-53687500D01*
G75*
G02*
X112124500Y-53950000I-262500J0D01*
G01*
G37*
G36*
G01*
X112124500Y-55700000D02*
X111599500Y-55700000D01*
G75*
G02*
X111337000Y-55437500I0J262500D01*
G01*
X111337000Y-54812500D01*
G75*
G02*
X111599500Y-54550000I262500J0D01*
G01*
X112124500Y-54550000D01*
G75*
G02*
X112387000Y-54812500I0J-262500D01*
G01*
X112387000Y-55437500D01*
G75*
G02*
X112124500Y-55700000I-262500J0D01*
G01*
G37*
%TD*%
%TO.C,R43*%
G36*
G01*
X112124500Y-50050000D02*
X111599500Y-50050000D01*
G75*
G02*
X111337000Y-49787500I0J262500D01*
G01*
X111337000Y-49162500D01*
G75*
G02*
X111599500Y-48900000I262500J0D01*
G01*
X112124500Y-48900000D01*
G75*
G02*
X112387000Y-49162500I0J-262500D01*
G01*
X112387000Y-49787500D01*
G75*
G02*
X112124500Y-50050000I-262500J0D01*
G01*
G37*
G36*
G01*
X112124500Y-51800000D02*
X111599500Y-51800000D01*
G75*
G02*
X111337000Y-51537500I0J262500D01*
G01*
X111337000Y-50912500D01*
G75*
G02*
X111599500Y-50650000I262500J0D01*
G01*
X112124500Y-50650000D01*
G75*
G02*
X112387000Y-50912500I0J-262500D01*
G01*
X112387000Y-51537500D01*
G75*
G02*
X112124500Y-51800000I-262500J0D01*
G01*
G37*
%TD*%
%TO.C,R23*%
G36*
G01*
X120587500Y-54800000D02*
X121112500Y-54800000D01*
G75*
G02*
X121375000Y-55062500I0J-262500D01*
G01*
X121375000Y-55687500D01*
G75*
G02*
X121112500Y-55950000I-262500J0D01*
G01*
X120587500Y-55950000D01*
G75*
G02*
X120325000Y-55687500I0J262500D01*
G01*
X120325000Y-55062500D01*
G75*
G02*
X120587500Y-54800000I262500J0D01*
G01*
G37*
G36*
G01*
X120587500Y-53050000D02*
X121112500Y-53050000D01*
G75*
G02*
X121375000Y-53312500I0J-262500D01*
G01*
X121375000Y-53937500D01*
G75*
G02*
X121112500Y-54200000I-262500J0D01*
G01*
X120587500Y-54200000D01*
G75*
G02*
X120325000Y-53937500I0J262500D01*
G01*
X120325000Y-53312500D01*
G75*
G02*
X120587500Y-53050000I262500J0D01*
G01*
G37*
%TD*%
%TO.C,R22*%
G36*
G01*
X118387500Y-54800000D02*
X118912500Y-54800000D01*
G75*
G02*
X119175000Y-55062500I0J-262500D01*
G01*
X119175000Y-55687500D01*
G75*
G02*
X118912500Y-55950000I-262500J0D01*
G01*
X118387500Y-55950000D01*
G75*
G02*
X118125000Y-55687500I0J262500D01*
G01*
X118125000Y-55062500D01*
G75*
G02*
X118387500Y-54800000I262500J0D01*
G01*
G37*
G36*
G01*
X118387500Y-53050000D02*
X118912500Y-53050000D01*
G75*
G02*
X119175000Y-53312500I0J-262500D01*
G01*
X119175000Y-53937500D01*
G75*
G02*
X118912500Y-54200000I-262500J0D01*
G01*
X118387500Y-54200000D01*
G75*
G02*
X118125000Y-53937500I0J262500D01*
G01*
X118125000Y-53312500D01*
G75*
G02*
X118387500Y-53050000I262500J0D01*
G01*
G37*
%TD*%
%TO.C,R18*%
G36*
G01*
X119450000Y-46487500D02*
X119450000Y-47012500D01*
G75*
G02*
X119187500Y-47275000I-262500J0D01*
G01*
X118562500Y-47275000D01*
G75*
G02*
X118300000Y-47012500I0J262500D01*
G01*
X118300000Y-46487500D01*
G75*
G02*
X118562500Y-46225000I262500J0D01*
G01*
X119187500Y-46225000D01*
G75*
G02*
X119450000Y-46487500I0J-262500D01*
G01*
G37*
G36*
G01*
X121200000Y-46487500D02*
X121200000Y-47012500D01*
G75*
G02*
X120937500Y-47275000I-262500J0D01*
G01*
X120312500Y-47275000D01*
G75*
G02*
X120050000Y-47012500I0J262500D01*
G01*
X120050000Y-46487500D01*
G75*
G02*
X120312500Y-46225000I262500J0D01*
G01*
X120937500Y-46225000D01*
G75*
G02*
X121200000Y-46487500I0J-262500D01*
G01*
G37*
%TD*%
D17*
%TO.C,MK4*%
X61362500Y-116114330D03*
%TD*%
D18*
%TO.C,J10*%
X83714500Y-118335000D03*
X83714500Y-115795000D03*
X83714500Y-113255000D03*
X83714500Y-110715000D03*
X83714500Y-108175000D03*
X83714500Y-105635000D03*
X83714500Y-103095000D03*
D19*
X83714500Y-100555000D03*
%TD*%
D12*
%TO.C,J1*%
X132520000Y-86430000D03*
X132520000Y-87700000D03*
X131250000Y-86430000D03*
X131250000Y-87700000D03*
X129980000Y-86430000D03*
X129980000Y-87700000D03*
X128710000Y-86430000D03*
X128710000Y-87700000D03*
X127440000Y-86430000D03*
X127440000Y-87700000D03*
X126170000Y-86430000D03*
X126170000Y-87700000D03*
X124900000Y-86430000D03*
D13*
X124900000Y-87700000D03*
%TD*%
%TO.C,C33*%
G36*
G01*
X109250000Y-62087500D02*
X109250000Y-62612500D01*
G75*
G02*
X108987500Y-62875000I-262500J0D01*
G01*
X108362500Y-62875000D01*
G75*
G02*
X108100000Y-62612500I0J262500D01*
G01*
X108100000Y-62087500D01*
G75*
G02*
X108362500Y-61825000I262500J0D01*
G01*
X108987500Y-61825000D01*
G75*
G02*
X109250000Y-62087500I0J-262500D01*
G01*
G37*
G36*
G01*
X111000000Y-62087500D02*
X111000000Y-62612500D01*
G75*
G02*
X110737500Y-62875000I-262500J0D01*
G01*
X110112500Y-62875000D01*
G75*
G02*
X109850000Y-62612500I0J262500D01*
G01*
X109850000Y-62087500D01*
G75*
G02*
X110112500Y-61825000I262500J0D01*
G01*
X110737500Y-61825000D01*
G75*
G02*
X111000000Y-62087500I0J-262500D01*
G01*
G37*
%TD*%
%TO.C,C32*%
G36*
G01*
X105350000Y-62087500D02*
X105350000Y-62612500D01*
G75*
G02*
X105087500Y-62875000I-262500J0D01*
G01*
X104462500Y-62875000D01*
G75*
G02*
X104200000Y-62612500I0J262500D01*
G01*
X104200000Y-62087500D01*
G75*
G02*
X104462500Y-61825000I262500J0D01*
G01*
X105087500Y-61825000D01*
G75*
G02*
X105350000Y-62087500I0J-262500D01*
G01*
G37*
G36*
G01*
X107100000Y-62087500D02*
X107100000Y-62612500D01*
G75*
G02*
X106837500Y-62875000I-262500J0D01*
G01*
X106212500Y-62875000D01*
G75*
G02*
X105950000Y-62612500I0J262500D01*
G01*
X105950000Y-62087500D01*
G75*
G02*
X106212500Y-61825000I262500J0D01*
G01*
X106837500Y-61825000D01*
G75*
G02*
X107100000Y-62087500I0J-262500D01*
G01*
G37*
%TD*%
%TO.C,C29*%
G36*
G01*
X109203500Y-53950000D02*
X108678500Y-53950000D01*
G75*
G02*
X108416000Y-53687500I0J262500D01*
G01*
X108416000Y-53062500D01*
G75*
G02*
X108678500Y-52800000I262500J0D01*
G01*
X109203500Y-52800000D01*
G75*
G02*
X109466000Y-53062500I0J-262500D01*
G01*
X109466000Y-53687500D01*
G75*
G02*
X109203500Y-53950000I-262500J0D01*
G01*
G37*
G36*
G01*
X109203500Y-55700000D02*
X108678500Y-55700000D01*
G75*
G02*
X108416000Y-55437500I0J262500D01*
G01*
X108416000Y-54812500D01*
G75*
G02*
X108678500Y-54550000I262500J0D01*
G01*
X109203500Y-54550000D01*
G75*
G02*
X109466000Y-54812500I0J-262500D01*
G01*
X109466000Y-55437500D01*
G75*
G02*
X109203500Y-55700000I-262500J0D01*
G01*
G37*
%TD*%
%TO.C,C28*%
G36*
G01*
X109203500Y-50050000D02*
X108678500Y-50050000D01*
G75*
G02*
X108416000Y-49787500I0J262500D01*
G01*
X108416000Y-49162500D01*
G75*
G02*
X108678500Y-48900000I262500J0D01*
G01*
X109203500Y-48900000D01*
G75*
G02*
X109466000Y-49162500I0J-262500D01*
G01*
X109466000Y-49787500D01*
G75*
G02*
X109203500Y-50050000I-262500J0D01*
G01*
G37*
G36*
G01*
X109203500Y-51800000D02*
X108678500Y-51800000D01*
G75*
G02*
X108416000Y-51537500I0J262500D01*
G01*
X108416000Y-50912500D01*
G75*
G02*
X108678500Y-50650000I262500J0D01*
G01*
X109203500Y-50650000D01*
G75*
G02*
X109466000Y-50912500I0J-262500D01*
G01*
X109466000Y-51537500D01*
G75*
G02*
X109203500Y-51800000I-262500J0D01*
G01*
G37*
%TD*%
%TO.C,C17*%
G36*
G01*
X122087500Y-50750000D02*
X122612500Y-50750000D01*
G75*
G02*
X122875000Y-51012500I0J-262500D01*
G01*
X122875000Y-51637500D01*
G75*
G02*
X122612500Y-51900000I-262500J0D01*
G01*
X122087500Y-51900000D01*
G75*
G02*
X121825000Y-51637500I0J262500D01*
G01*
X121825000Y-51012500D01*
G75*
G02*
X122087500Y-50750000I262500J0D01*
G01*
G37*
G36*
G01*
X122087500Y-49000000D02*
X122612500Y-49000000D01*
G75*
G02*
X122875000Y-49262500I0J-262500D01*
G01*
X122875000Y-49887500D01*
G75*
G02*
X122612500Y-50150000I-262500J0D01*
G01*
X122087500Y-50150000D01*
G75*
G02*
X121825000Y-49887500I0J262500D01*
G01*
X121825000Y-49262500D01*
G75*
G02*
X122087500Y-49000000I262500J0D01*
G01*
G37*
%TD*%
D31*
%TO.C,BT1*%
X127126244Y-125050000D03*
D32*
G36*
X139854166Y-134100967D02*
G01*
X136177211Y-137777922D01*
X132500256Y-134100967D01*
X136177211Y-130424012D01*
X139854166Y-134100967D01*
G37*
G36*
X121752232Y-115999033D02*
G01*
X118075277Y-119675988D01*
X114398322Y-115999033D01*
X118075277Y-112322078D01*
X121752232Y-115999033D01*
G37*
%TD*%
M02*
