M48
; DRILL file {KiCad 7.0.2} date Mon 01 May 2023 18:48:15
; FORMAT={-:-/ absolute / inch / decimal}
; #@! TF.CreationDate,2023-05-01T18:48:15+02:00
; #@! TF.GenerationSoftware,Kicad,Pcbnew,7.0.2
; #@! TF.FileFunction,Plated,1,4,PTH
FMAT,2
INCH
; #@! TA.AperFunction,Plated,PTH,ViaDrill
T1C0.0079
; #@! TA.AperFunction,Plated,PTH,ComponentDrill
T2C0.0079
; #@! TA.AperFunction,Plated,PTH,ViaDrill
T3C0.0098
; #@! TA.AperFunction,Plated,PTH,ComponentDrill
T4C0.0197
; #@! TA.AperFunction,Plated,PTH,ComponentDrill
T5C0.0256
; #@! TA.AperFunction,Plated,PTH,ComponentDrill
T6C0.0394
; #@! TA.AperFunction,Plated,PTH,ComponentDrill
T7C0.1260
%
G90
G05
T1
X4.1126Y-3.0252
X4.1717Y-2.9819
X4.2008Y-2.6457
X4.2071Y-2.852
X4.248Y-2.9386
X4.4311Y-2.6831
X4.435Y-2.7343
X4.4459Y-2.4419
X4.7886Y-2.265
X4.8054Y-2.1985
X4.874Y-2.1749
X4.9921Y-2.2362
X5.0618Y-2.3829
X5.124Y-2.126
X5.1517Y-2.1516
X5.3199Y-1.4862
X7.7165Y-1.8583
X7.7835Y-1.6752
X8.0275Y-2.7205
X8.0276Y-2.3346
X8.4287Y-2.3346
X8.4326Y-2.7205
X8.687Y-1.9469
X8.748Y-1.7638
T2
X4.465Y-1.5752
X4.465Y-1.6217
X4.465Y-2.0398
X4.465Y-2.0862
X4.5114Y-1.5752
X4.5114Y-1.6217
X4.5114Y-2.0398
X4.5114Y-2.0862
X6.0081Y-2.4567
X6.0081Y-2.5032
X6.0545Y-2.4567
X6.0545Y-2.5032
X7.4807Y-2.5043
X7.4807Y-2.5508
X7.5272Y-2.5043
X7.5272Y-2.5508
T3
X1.1811Y-1.7323
X1.1811Y-1.9685
X1.1811Y-2.2047
X1.1811Y-2.4409
X1.1811Y-2.6772
X1.1811Y-2.9134
X1.1811Y-3.1496
X1.4173Y-1.4961
X1.4173Y-1.7323
X1.4173Y-1.9685
X1.4173Y-2.2047
X1.4173Y-2.4409
X1.4173Y-2.6772
X1.4173Y-2.9134
X1.4173Y-3.1496
X1.4173Y-3.3858
X1.6437Y-2.7992
X1.6535Y-1.4961
X1.6535Y-1.7323
X1.6535Y-1.9685
X1.6535Y-2.2047
X1.6535Y-2.4409
X1.6535Y-2.6772
X1.6535Y-2.9134
X1.6535Y-3.1496
X1.6535Y-3.3858
X1.752Y-2.3583
X1.7677Y-2.6732
X1.7697Y-2.9252
X1.8898Y-1.4961
X1.8898Y-1.7323
X1.8898Y-1.9685
X1.8898Y-2.2047
X1.8898Y-2.6772
X1.8898Y-2.9134
X1.8898Y-3.1496
X1.8898Y-3.3858
X1.8937Y-2.7992
X2.0394Y-2.0256
X2.061Y-2.0827
X2.0886Y-2.8264
X2.126Y-1.4961
X2.126Y-1.7323
X2.126Y-1.9685
X2.126Y-2.4409
X2.126Y-2.9134
X2.126Y-3.1496
X2.126Y-3.3858
X2.2195Y-2.0285
X2.2195Y-2.0571
X2.2402Y-2.8474
X2.2569Y-2.0295
X2.2569Y-2.0571
X2.3543Y-2.0866
X2.3622Y-1.4961
X2.3622Y-1.7323
X2.3622Y-1.9685
X2.3622Y-2.2047
X2.3622Y-2.6772
X2.3622Y-2.9134
X2.3622Y-3.1496
X2.3622Y-3.3858
X2.4817Y-2.356
X2.4823Y-1.9606
X2.4823Y-2.2106
X2.4941Y-2.4311
X2.5039Y-2.5256
X2.5039Y-2.563
X2.5295Y-2.5256
X2.5315Y-2.563
X2.5984Y-1.4961
X2.5984Y-1.7323
X2.5984Y-1.9685
X2.5984Y-2.2047
X2.5984Y-2.4409
X2.5984Y-2.6772
X2.5984Y-2.9134
X2.5984Y-3.1496
X2.5984Y-3.3858
X2.6083Y-2.0866
X2.8346Y-1.4961
X2.8346Y-1.7323
X2.8346Y-1.9685
X2.8346Y-2.2047
X2.8346Y-2.4409
X2.8346Y-2.6772
X2.8346Y-2.9134
X2.8346Y-3.1496
X2.8346Y-3.3858
X2.8642Y-2.4665
X2.937Y-2.3258
X2.937Y-2.4262
X2.9478Y-2.5659
X2.9478Y-2.6152
X3.0512Y-2.3071
X3.0512Y-2.3307
X3.0512Y-2.5039
X3.0512Y-2.5276
X3.0709Y-1.7323
X3.0709Y-2.4409
X3.0709Y-2.626
X3.0709Y-3.0394
X3.0709Y-3.1496
X3.0827Y-2.3071
X3.0827Y-2.3307
X3.0827Y-2.5039
X3.0827Y-2.5276
X3.1102Y-2.8819
X3.1308Y-2.9102
X3.1378Y-3.0354
X3.1654Y-1.9685
X3.1654Y-1.9961
X3.1654Y-2.0236
X3.1654Y-2.0472
X3.189Y-1.9685
X3.189Y-1.9961
X3.189Y-2.0217
X3.189Y-2.0472
X3.2047Y-2.8189
X3.2047Y-2.9449
X3.9055Y-2.4606
X3.9075Y-2.374
X3.9134Y-2.5118
X3.9606Y-2.5118
X4.0039Y-1.563
X4.0039Y-1.5866
X4.0039Y-2.0276
X4.0039Y-2.0512
X4.0079Y-2.5118
X4.0079Y-2.5906
X4.0276Y-1.563
X4.0276Y-1.5866
X4.0276Y-2.0276
X4.0276Y-2.0512
X4.0472Y-2.2677
X4.0571Y-3.1083
X4.0591Y-2.4213
X4.0866Y-2.8071
X4.106Y-2.8147
X4.1063Y-2.7913
X4.11Y-3.0468
X4.126Y-1.3465
X4.126Y-1.8307
X4.126Y-2.2677
X4.1575Y-1.4606
X4.1575Y-1.7362
X4.1575Y-1.9291
X4.1575Y-2.1969
X4.1741Y-3.0035
X4.2008Y-1.4528
X4.2008Y-1.7402
X4.2008Y-1.878
X4.2008Y-1.9252
X4.2008Y-2.2008
X4.2047Y-1.3465
X4.2047Y-1.8307
X4.2047Y-2.2677
X4.2087Y-1.4094
X4.2095Y-2.8735
X4.2244Y-1.878
X4.2244Y-3.1063
X4.2303Y-2.8996
X4.2323Y-1.4094
X4.2441Y-3.5
X4.248Y-2.9603
X4.2598Y-2.3346
X4.2835Y-1.3465
X4.2835Y-1.8307
X4.2835Y-2.2677
X4.2992Y-3.4449
X4.3006Y-2.5565
X4.3268Y-2.4882
X4.3622Y-1.3465
X4.3622Y-1.8307
X4.3622Y-2.2677
X4.3844Y-3.4385
X4.3976Y-1.7047
X4.3976Y-1.7441
X4.3976Y-2.1689
X4.3976Y-2.2083
X4.4016Y-3.252
X4.4016Y-3.4685
X4.4111Y-2.73
X4.414Y-2.6697
X4.4252Y-3.252
X4.4252Y-3.4587
X4.435Y-2.8307
X4.4409Y-1.3465
X4.4409Y-1.8307
X4.4409Y-2.2677
X4.4567Y-3.5157
X4.4646Y-3.0177
X4.4724Y-3.1063
X4.4823Y-2.4311
X4.4843Y-1.4531
X4.4843Y-1.4925
X4.4843Y-1.7047
X4.4843Y-1.7441
X4.4843Y-1.9173
X4.4843Y-1.9567
X4.4843Y-2.1689
X4.4843Y-2.2083
X4.4882Y-3.3307
X4.5057Y-2.4073
X4.5146Y-3.4516
X4.5197Y-1.3465
X4.5197Y-1.8307
X4.5433Y-1.7047
X4.5433Y-1.7441
X4.5433Y-2.1689
X4.5433Y-2.2083
X4.5472Y-1.5433
X4.5472Y-2.0079
X4.5512Y-3.3189
X4.5827Y-2.6929
X4.5925Y-2.6713
X4.5984Y-1.3465
X4.5984Y-1.8307
X4.5984Y-2.2677
X4.622Y-2.6496
X4.6378Y-2.6339
X4.6772Y-1.3465
X4.6772Y-1.8307
X4.6772Y-2.2283
X4.685Y-3.1811
X4.685Y-3.2008
X4.689Y-1.3858
X4.7165Y-2.8031
X4.7244Y-1.5
X4.7555Y-3.0071
X4.7559Y-1.3465
X4.7559Y-1.6614
X4.7559Y-1.8307
X4.7559Y-2.0079
X4.7559Y-2.1102
X4.7559Y-2.1496
X4.7559Y-2.9833
X4.7677Y-2.8858
X4.7835Y-2.6063
X4.7835Y-2.6614
X4.7888Y-2.2433
X4.7992Y-2.4724
X4.8009Y-2.2852
X4.8031Y-2.6378
X4.811Y-2.4567
X4.8157Y-2.2176
X4.8189Y-2.0866
X4.8268Y-2.8819
X4.8484Y-2.8189
X4.8504Y-1.3465
X4.8504Y-1.5433
X4.8504Y-1.622
X4.8504Y-1.7008
X4.8504Y-1.7795
X4.8504Y-1.8583
X4.8504Y-1.9331
X4.8504Y-2.0157
X4.8504Y-2.5906
X4.8504Y-2.7047
X4.8504Y-2.7835
X4.8583Y-2.565
X4.8661Y-3.0748
X4.8661Y-3.0984
X4.8703Y-2.1535
X4.874Y-1.4213
X4.874Y-2.685
X4.876Y-3.4941
X4.878Y-2.3858
X4.8937Y-2.3701
X4.8937Y-2.689
X4.9055Y-2.565
X4.9134Y-1.378
X4.9134Y-1.4173
X4.9134Y-1.5354
X4.9134Y-1.5748
X4.9134Y-3.0542
X4.9134Y-3.1575
X4.9173Y-3.2323
X4.9291Y-1.8091
X4.9291Y-1.8583
X4.9449Y-2.5315
X4.9449Y-2.5906
X4.9449Y-2.7835
X4.9449Y-2.8189
X4.9488Y-1.8091
X4.9606Y-1.6693
X4.9646Y-3.0345
X4.9646Y-3.1575
X4.9665Y-3.2116
X4.9665Y-3.3622
X4.9705Y-2.1063
X4.9882Y-1.8091
X5.0079Y-1.378
X5.0079Y-1.4173
X5.0079Y-1.5354
X5.0079Y-1.5748
X5.0079Y-1.7402
X5.0079Y-1.8091
X5.0079Y-1.8583
X5.0079Y-1.9016
X5.0079Y-1.9213
X5.0098Y-1.6614
X5.0098Y-1.7008
X5.0138Y-2.2364
X5.0157Y-2.4134
X5.0157Y-3.126
X5.0197Y-2.7402
X5.0197Y-2.7835
X5.0197Y-2.8425
X5.0197Y-2.8799
X5.0236Y-3.5
X5.0464Y-2.2551
X5.0472Y-1.9016
X5.0472Y-1.9213
X5.061Y-1.5866
X5.061Y-1.6063
X5.063Y-3.3642
X5.064Y-3.1476
X5.065Y-3.1919
X5.0819Y-2.2472
X5.0827Y-3.1713
X5.0855Y-2.3908
X5.0866Y-1.8583
X5.0984Y-1.5551
X5.1004Y-1.7402
X5.1024Y-1.4016
X5.1024Y-1.4764
X5.1063Y-1.3268
X5.1063Y-2.7087
X5.1083Y-2.2913
X5.1122Y-2.4449
X5.1122Y-2.8819
X5.1132Y-3.1673
X5.1142Y-2.8435
X5.1181Y-2.5945
X5.1188Y-1.7795
X5.1211Y-2.2372
X5.122Y-2.811
X5.126Y-1.3268
X5.1299Y-2.7244
X5.1339Y-2.1061
X5.1496Y-1.6594
X5.1496Y-1.7028
X5.1496Y-3.3307
X5.1496Y-3.3504
X5.1496Y-3.3701
X5.1541Y-2.5634
X5.1654Y-1.8583
X5.1673Y-1.626
X5.1673Y-2.2283
X5.1673Y-2.3137
X5.1726Y-1.9423
X5.1732Y-3.3307
X5.1732Y-3.3504
X5.1732Y-3.3701
X5.1758Y-1.4764
X5.1762Y-2.5551
X5.1772Y-1.4016
X5.1774Y-2.1538
X5.1808Y-1.5666
X5.187Y-1.628
X5.1949Y-2.4587
X5.1988Y-2.3327
X5.2008Y-3.3307
X5.2008Y-3.3504
X5.2008Y-3.3701
X5.2087Y-2.5827
X5.2087Y-2.622
X5.2087Y-2.6614
X5.2087Y-2.7008
X5.2087Y-2.7402
X5.2087Y-2.7677
X5.2087Y-2.8425
X5.2087Y-2.876
X5.2244Y-3.3307
X5.2244Y-3.3504
X5.2244Y-3.3701
X5.2267Y-2.4613
X5.2283Y-2.3327
X5.2323Y-1.6713
X5.2323Y-1.7047
X5.2421Y-1.7854
X5.2424Y-1.725
X5.2429Y-1.8248
X5.2441Y-1.3268
X5.2447Y-1.6188
X5.252Y-1.4016
X5.252Y-1.4764
X5.252Y-1.5551
X5.2598Y-2.3937
X5.2638Y-1.3268
X5.2657Y-1.6241
X5.2688Y-2.1368
X5.2721Y-2.1144
X5.2858Y-1.9649
X5.2933Y-2.1063
X5.304Y-1.9479
X5.3287Y-1.9543
X5.3416Y-1.4862
X5.3425Y-1.9321
X5.3602Y-1.3917
X5.3602Y-1.4309
X5.3701Y-1.8838
X5.3976Y-1.8583
X5.4016Y-1.5728
X5.4025Y-2.5748
X5.4028Y-1.5374
X5.4055Y-1.6516
X5.4055Y-1.6752
X5.4094Y-1.9783
X5.4134Y-1.7638
X5.4232Y-2.4705
X5.4311Y-2.0846
X5.4331Y-2.1975
X5.4331Y-2.2369
X5.4449Y-1.3957
X5.4449Y-1.4173
X5.4488Y-1.7028
X5.4488Y-1.7795
X5.4488Y-1.8583
X5.4488Y-2.2559
X5.4528Y-2.2165
X5.4577Y-1.5512
X5.4606Y-3.3996
X5.4646Y-2.4488
X5.4646Y-2.7677
X5.4646Y-2.7874
X5.4843Y-2.0906
X5.4843Y-2.7874
X5.4882Y-3.3465
X5.4896Y-2.3911
X5.5039Y-2.5551
X5.5039Y-2.7677
X5.5039Y-2.7874
X5.5056Y-1.9274
X5.5079Y-2.1654
X5.5102Y-1.4474
X5.5118Y-2.2381
X5.512Y-1.9057
X5.5197Y-2.0787
X5.5197Y-3.2874
X5.5236Y-2.1929
X5.5256Y-2.2185
X5.5354Y-3.2047
X5.5472Y-2.5551
X5.5551Y-2.4862
X5.561Y-2.6575
X5.5709Y-1.6811
X5.5709Y-1.7008
X5.5709Y-2.7264
X5.5709Y-2.7461
X5.5724Y-1.3939
X5.5728Y-1.45
X5.5787Y-1.7795
X5.5787Y-1.7992
X5.5787Y-2.878
X5.5807Y-1.8228
X5.5807Y-1.8425
X5.5827Y-3.5059
X5.5866Y-2.6043
X5.5906Y-1.6811
X5.5906Y-1.7008
X5.5906Y-2.7264
X5.5906Y-2.7461
X5.5984Y-1.7795
X5.5984Y-1.7992
X5.6004Y-1.8228
X5.6004Y-1.8425
X5.6122Y-1.5984
X5.6122Y-1.6181
X5.6221Y-1.437
X5.628Y-1.376
X5.628Y-2.7264
X5.628Y-2.7461
X5.6339Y-3.0472
X5.6339Y-3.0709
X5.6339Y-3.0984
X5.6339Y-3.122
X5.6358Y-1.5984
X5.6358Y-1.6181
X5.6358Y-2.4114
X5.6378Y-1.4587
X5.6476Y-1.8228
X5.6476Y-1.8425
X5.6476Y-2.7264
X5.6476Y-2.7461
X5.6506Y-2.6104
X5.6535Y-3.0472
X5.6535Y-3.0709
X5.6535Y-3.0984
X5.6535Y-3.122
X5.6575Y-1.5157
X5.6575Y-2.878
X5.6575Y-3.3031
X5.6693Y-1.4232
X5.6732Y-3.0472
X5.6732Y-3.0709
X5.6732Y-3.0984
X5.6732Y-3.122
X5.6752Y-2.3091
X5.6772Y-2.7992
X5.6772Y-2.8189
X5.687Y-1.359
X5.687Y-1.4055
X5.6969Y-2.0039
X5.6969Y-2.7992
X5.6969Y-2.8189
X5.7244Y-1.4803
X5.7308Y-1.3415
X5.7323Y-1.4213
X5.7323Y-1.4508
X5.7343Y-1.5098
X5.7343Y-2.4862
X5.7362Y-2.0039
X5.7362Y-2.1969
X5.7362Y-2.626
X5.7366Y-2.1752
X5.7421Y-2.6988
X5.7509Y-1.3574
X5.7598Y-1.9567
X5.7795Y-2.7756
X5.7795Y-2.7953
X5.7835Y-2.6614
X5.7953Y-3.2362
X5.7953Y-3.2835
X5.7992Y-2.7756
X5.7992Y-2.7953
X5.7992Y-3.1496
X5.8012Y-2.0827
X5.8051Y-2.3091
X5.8228Y-1.622
X5.8228Y-3.0866
X5.8228Y-3.3937
X5.8366Y-1.9567
X5.8425Y-1.622
X5.8425Y-2.2559
X5.8425Y-2.4409
X5.8425Y-2.4843
X5.8465Y-2.3228
X5.8504Y-2.4016
X5.8504Y-3.3693
X5.8543Y-2.2795
X5.8622Y-2.0827
X5.8622Y-2.1673
X5.874Y-1.8661
X5.874Y-1.8858
X5.878Y-2.6181
X5.8858Y-2.7185
X5.8858Y-2.7382
X5.8898Y-3.2362
X5.8898Y-3.2835
X5.8957Y-2.6614
X5.8976Y-1.8661
X5.8976Y-1.8858
X5.9035Y-2.0591
X5.9055Y-2.7185
X5.9055Y-2.7382
X5.9173Y-2.6201
X5.9232Y-1.7028
X5.9252Y-1.8228
X5.9252Y-1.8425
X5.9252Y-1.874
X5.9252Y-1.8957
X5.9252Y-2.0591
X5.9252Y-2.0886
X5.9252Y-2.1083
X5.9272Y-1.6417
X5.9409Y-2.4908
X5.9862Y-1.315
X5.9882Y-3.1654
X5.9882Y-3.3307
X5.9921Y-2.2461
X6.0394Y-3.3189
X6.0394Y-3.4843
X6.0827Y-1.6732
X6.0827Y-2.4213
X6.0827Y-2.6161
X6.0827Y-2.6358
X6.1043Y-2.4409
X6.1063Y-2.6161
X6.1063Y-2.6358
X6.122Y-2.4606
X6.1339Y-2.1772
X6.1339Y-2.2087
X6.1457Y-1.874
X6.1457Y-1.9646
X6.1457Y-2.0591
X6.1496Y-3.0827
X6.1496Y-3.3189
X6.1555Y-1.6102
X6.1614Y-2.1772
X6.1614Y-2.2087
X6.1772Y-2.4845
X6.1811Y-2.4606
X6.189Y-2.1772
X6.189Y-2.2087
X6.189Y-2.2362
X6.189Y-2.2677
X6.1909Y-2.5394
X6.1909Y-2.6181
X6.9764Y-1.4843
X7.0472Y-1.4173
X7.0472Y-1.811
X7.0472Y-2.2047
X7.0472Y-2.5984
X7.1063Y-1.5591
X7.1063Y-1.5827
X7.122Y-1.5197
X7.122Y-1.5394
X7.1322Y-1.5597
X7.1339Y-1.5827
X7.1693Y-1.7037
X7.189Y-1.7047
X7.1929Y-1.5197
X7.1929Y-1.5394
X7.1949Y-1.7756
X7.1949Y-1.7953
X7.1969Y-1.9094
X7.2146Y-1.7756
X7.2146Y-1.7953
X7.2343Y-1.7756
X7.2343Y-1.7953
X7.2717Y-1.5217
X7.2717Y-1.5413
X7.315Y-1.7717
X7.315Y-1.7913
X7.3386Y-1.9094
X7.4409Y-1.4173
X7.4409Y-2.2047
X7.4449Y-2.5787
X7.448Y-2.3823
X7.448Y-2.4217
X7.4606Y-1.5217
X7.4606Y-1.5413
X7.5071Y-2.3823
X7.5071Y-2.4217
X7.5071Y-2.6339
X7.5071Y-2.6732
X7.5315Y-1.5217
X7.5315Y-1.5413
X7.5937Y-2.3823
X7.5937Y-2.4217
X7.6948Y-1.8583
X7.7224Y-1.5217
X7.7224Y-1.5413
X7.7362Y-1.7539
X7.7362Y-1.7736
X7.7362Y-1.8012
X7.7362Y-1.8209
X7.762Y-1.6716
X7.7825Y-2.6654
X7.7835Y-2.3839
X7.7972Y-2.4606
X7.8091Y-1.5217
X7.8091Y-1.5413
X7.813Y-1.6181
X7.813Y-1.6378
X7.813Y-1.937
X7.813Y-1.9567
X7.813Y-1.9843
X7.813Y-2.0039
X7.8228Y-2.3898
X7.8346Y-1.4173
X7.8346Y-2.2047
X7.8346Y-2.5984
X7.8681Y-1.4803
X7.8681Y-1.5
X7.8681Y-1.5256
X7.8681Y-1.5453
X7.8878Y-1.4803
X7.8878Y-1.5
X7.8898Y-2.4173
X7.8898Y-2.4606
X7.8898Y-2.5039
X7.9094Y-2.4173
X7.9094Y-2.4606
X7.9094Y-2.5039
X7.9094Y-2.5512
X7.9094Y-2.5945
X7.9094Y-2.6378
X7.9744Y-2.4871
X7.9744Y-2.5315
X8.0157Y-2.4882
X8.0157Y-2.5669
X8.0374Y-1.7618
X8.0374Y-1.811
X8.0374Y-1.8602
X8.0551Y-2.4882
X8.0551Y-2.5669
X8.1142Y-1.5787
X8.1142Y-1.628
X8.1142Y-1.6772
X8.1142Y-1.9429
X8.1142Y-1.9941
X8.1142Y-2.0433
X8.1495Y-2.3505
X8.1693Y-2.5157
X8.1693Y-2.5394
X8.1713Y-1.7835
X8.1791Y-1.4843
X8.1791Y-2.1378
X8.1831Y-2.6831
X8.189Y-2.5157
X8.189Y-2.5394
X8.1909Y-1.7835
X8.2185Y-1.7835
X8.2185Y-1.8386
X8.2283Y-1.4173
X8.2283Y-1.4843
X8.2283Y-2.1378
X8.2283Y-2.2047
X8.2283Y-2.3386
X8.2283Y-2.3622
X8.2283Y-2.3819
X8.2283Y-2.4055
X8.2283Y-2.5984
X8.2283Y-2.6496
X8.2283Y-2.6732
X8.2283Y-2.6929
X8.2382Y-1.7835
X8.2382Y-1.8386
X8.2657Y-1.8386
X8.2677Y-2.5157
X8.2677Y-2.5394
X8.2717Y-2.6831
X8.2776Y-1.4843
X8.2776Y-2.1378
X8.2854Y-1.8386
X8.2874Y-2.5157
X8.2874Y-2.5394
X8.3082Y-2.3494
X8.3425Y-1.5787
X8.3425Y-1.628
X8.3445Y-1.6791
X8.3445Y-1.9439
X8.3445Y-1.9941
X8.3445Y-2.0443
X8.4016Y-2.4862
X8.4035Y-2.5689
X8.4213Y-1.7618
X8.4213Y-1.811
X8.4213Y-1.8602
X8.4523Y-2.4843
X8.4528Y-2.5709
X8.4685Y-2.5276
X8.4921Y-2.5276
X8.5472Y-2.4173
X8.5472Y-2.4606
X8.5472Y-2.5039
X8.5472Y-2.5512
X8.5472Y-2.5945
X8.5472Y-2.6378
X8.622Y-1.4173
X8.622Y-2.2047
X8.622Y-2.5984
X8.6437Y-1.9843
X8.6437Y-2.0039
X8.6437Y-2.0315
X8.6437Y-2.0512
X8.6445Y-1.6181
X8.6445Y-1.6378
X8.6445Y-1.6654
X8.6445Y-1.685
X8.687Y-1.9251
X8.7205Y-1.8012
X8.7205Y-1.8209
X8.7205Y-1.8484
X8.7205Y-1.8681
X8.748Y-1.7421
X9.0157Y-1.4173
X9.0157Y-2.2047
X9.0157Y-2.5984
X9.4094Y-1.4173
X9.4094Y-1.811
X9.4094Y-2.2047
X9.4094Y-2.5984
T4
X1.0866Y-1.4961
X1.0866Y-3.3858
X1.1143Y-1.4292
X1.1143Y-1.5629
X1.1143Y-3.319
X1.1143Y-3.4526
X1.1811Y-1.4016
X1.1811Y-1.5906
X1.1811Y-3.2913
X1.1811Y-3.4803
X1.2479Y-1.4292
X1.2479Y-1.5629
X1.2479Y-3.319
X1.2479Y-3.4526
X1.2756Y-1.4961
X1.2756Y-3.3858
X2.9764Y-1.4961
X2.9764Y-3.3858
X3.0041Y-1.4292
X3.0041Y-1.5629
X3.0041Y-3.319
X3.0041Y-3.4526
X3.0709Y-1.4016
X3.0709Y-1.5906
X3.0709Y-3.2913
X3.0709Y-3.4803
X3.1377Y-1.4292
X3.1377Y-1.5629
X3.1377Y-3.319
X3.1377Y-3.4526
X3.1654Y-1.4961
X3.1654Y-3.3858
X4.0Y-3.3878
X4.0277Y-3.321
X4.0277Y-3.4546
X4.0945Y-3.2933
X4.0945Y-3.4823
X4.1613Y-3.321
X4.1613Y-3.4546
X4.189Y-3.3878
X5.8898Y-1.498
X5.9174Y-1.4312
X5.9174Y-1.5648
X5.9843Y-1.4035
X5.9843Y-1.5925
X6.0511Y-1.4312
X6.0511Y-1.5648
X6.0787Y-1.498
X7.4252Y-1.811
X7.4529Y-1.7442
X7.4529Y-1.8778
X7.5197Y-1.7165
X7.5197Y-1.9055
X7.5865Y-1.7442
X7.5865Y-1.8778
X7.6142Y-1.811
X8.8425Y-1.811
X8.8702Y-1.7442
X8.8702Y-1.8778
X8.937Y-1.7165
X8.937Y-1.9055
X9.0038Y-1.7442
X9.0038Y-1.8778
X9.0315Y-1.811
T5
X4.6457Y-3.0394
X4.6457Y-3.0894
X4.6457Y-3.1394
X4.6457Y-3.1894
T6
X1.063Y-2.2215
X1.063Y-2.3215
X1.063Y-2.4215
X1.063Y-2.5215
X1.063Y-2.6215
T7
X1.1811Y-1.4961
X1.1811Y-3.3858
X3.0709Y-1.4961
X3.0709Y-3.3858
X4.0945Y-3.3878
X5.9843Y-1.498
X7.5197Y-1.811
X8.937Y-1.811
T5
G00X5.9754Y-1.7965
M15
G01X6.0148Y-1.7965
M16
G05
G00X5.9754Y-2.1366
M15
G01X6.0148Y-2.1366
M16
G05
G00X6.126Y-1.7965
M15
G01X6.1654Y-1.7965
M16
G05
G00X6.126Y-2.1366
M15
G01X6.1654Y-2.1366
M16
G05
T0
M30
