M48
; DRILL file {KiCad 5.1.7-1.fc32} date Tue Nov  3 14:00:26 2020
; FORMAT={-:-/ absolute / metric / decimal}
; #@! TF.CreationDate,2020-11-03T14:00:26+02:00
; #@! TF.GenerationSoftware,Kicad,Pcbnew,5.1.7-1.fc32
; #@! TF.FileFunction,Plated,1,4,PTH
FMAT,2
METRIC
T1C0.200
T2C0.381
T3C0.500
T4C0.508
T5C0.635
T6C0.650
T7C0.850
T8C1.000
T9C3.200
%
G90
G05
T1
X181.95Y-37.3
X182.45Y-36.675
X182.45Y-37.925
X182.95Y-37.3
X113.95Y-161.3
X114.45Y-160.675
X114.45Y-161.925
X114.95Y-161.3
X113.95Y-37.3
X114.45Y-36.675
X114.45Y-37.925
X114.95Y-37.3
T2
X85.25Y-75.0
X85.25Y-75.75
X85.25Y-76.5
X85.25Y-77.25
X85.25Y-199.0
X85.25Y-199.75
X85.25Y-200.5
X85.25Y-201.25
X86.458Y-47.484
X86.458Y-171.484
X87.107Y-47.2
X87.107Y-171.2
X87.25Y-99.05
X87.25Y-104.05
X87.25Y-109.05
X87.25Y-114.05
X87.25Y-119.05
X87.25Y-124.05
X87.25Y-129.05
X87.25Y-134.05
X87.25Y-139.05
X87.25Y-223.05
X87.25Y-228.05
X87.25Y-233.05
X87.25Y-238.05
X87.25Y-243.05
X87.25Y-248.05
X87.25Y-253.05
X87.25Y-258.05
X87.25Y-263.05
X88.269Y-47.0
X88.269Y-171.0
X89.55Y-43.2
X89.55Y-167.2
X89.75Y-60.5
X89.75Y-184.5
X90.127Y-47.122
X90.127Y-171.122
X90.5Y-47.75
X90.5Y-171.75
X91.0Y-60.5
X91.0Y-184.5
X91.5Y-54.75
X91.5Y-55.5
X91.5Y-178.75
X91.5Y-179.5
X92.183Y-51.799
X92.183Y-175.799
X92.25Y-94.05
X92.25Y-99.05
X92.25Y-104.05
X92.25Y-109.05
X92.25Y-114.05
X92.25Y-119.05
X92.25Y-124.05
X92.25Y-129.05
X92.25Y-134.05
X92.25Y-139.05
X92.25Y-144.05
X92.25Y-218.05
X92.25Y-223.05
X92.25Y-228.05
X92.25Y-233.05
X92.25Y-238.05
X92.25Y-243.05
X92.25Y-248.05
X92.25Y-253.05
X92.25Y-258.05
X92.25Y-263.05
X92.25Y-268.05
X92.75Y-63.0
X92.75Y-187.0
X93.388Y-68.9
X93.388Y-192.9
X93.55Y-50.2
X93.55Y-174.2
X93.563Y-48.313
X93.563Y-172.313
X94.45Y-47.9
X94.45Y-50.2
X94.45Y-171.9
X94.45Y-174.2
X94.5Y-63.0
X94.5Y-187.0
X94.75Y-60.5
X94.75Y-184.5
X95.35Y-47.9
X95.35Y-171.9
X95.45Y-50.2
X95.45Y-174.2
X96.0Y-60.5
X96.0Y-184.5
X96.25Y-47.9
X96.25Y-63.0
X96.25Y-171.9
X96.25Y-187.0
X96.45Y-50.2
X96.45Y-174.2
X97.0Y-56.5
X97.0Y-180.5
X97.25Y-47.5
X97.25Y-60.5
X97.25Y-94.05
X97.25Y-99.05
X97.25Y-104.05
X97.25Y-109.05
X97.25Y-114.05
X97.25Y-119.05
X97.25Y-124.05
X97.25Y-129.05
X97.25Y-134.05
X97.25Y-139.05
X97.25Y-144.05
X97.25Y-171.5
X97.25Y-184.5
X97.25Y-218.05
X97.25Y-223.05
X97.25Y-228.05
X97.25Y-233.05
X97.25Y-238.05
X97.25Y-243.05
X97.25Y-248.05
X97.25Y-253.05
X97.25Y-258.05
X97.25Y-263.05
X97.25Y-268.05
X97.45Y-50.2
X97.45Y-51.542
X97.45Y-76.35
X97.45Y-77.25
X97.45Y-174.2
X97.45Y-175.542
X97.45Y-200.35
X97.45Y-201.25
X97.5Y-64.25
X97.5Y-65.25
X97.5Y-66.25
X97.5Y-67.25
X97.5Y-80.0
X97.5Y-80.75
X97.5Y-81.5
X97.5Y-188.25
X97.5Y-189.25
X97.5Y-190.25
X97.5Y-191.25
X97.5Y-204.0
X97.5Y-204.75
X97.5Y-205.5
X97.517Y-46.167
X97.517Y-170.167
X97.6Y-74.55
X97.6Y-75.3
X97.6Y-198.55
X97.6Y-199.3
X98.149Y-45.535
X98.149Y-169.535
X98.179Y-52.271
X98.179Y-176.271
X98.4Y-74.55
X98.4Y-75.3
X98.4Y-198.55
X98.4Y-199.3
X98.5Y-60.5
X98.5Y-80.0
X98.5Y-80.75
X98.5Y-81.5
X98.5Y-184.5
X98.5Y-204.0
X98.5Y-204.75
X98.5Y-205.5
X98.75Y-63.25
X98.75Y-187.25
X98.879Y-52.971
X98.879Y-176.971
X99.25Y-80.0
X99.25Y-80.75
X99.25Y-81.5
X99.25Y-204.0
X99.25Y-204.75
X99.25Y-205.5
X99.385Y-45.535
X99.385Y-169.535
X99.55Y-74.7
X99.55Y-198.7
X99.65Y-39.8
X99.65Y-163.8
X99.75Y-60.5
X99.75Y-184.5
X99.95Y-53.0
X99.95Y-177.0
X99.95Y-30.3
X99.95Y-154.3
X100.0Y-64.25
X100.0Y-65.25
X100.0Y-66.25
X100.0Y-67.25
X100.0Y-80.0
X100.0Y-80.75
X100.0Y-81.5
X100.0Y-188.25
X100.0Y-189.25
X100.0Y-190.25
X100.0Y-191.25
X100.0Y-204.0
X100.0Y-204.75
X100.0Y-205.5
X100.1Y-77.25
X100.1Y-201.25
X100.15Y-76.4
X100.15Y-200.4
X100.685Y-45.535
X100.685Y-169.535
X100.95Y-35.4
X100.95Y-159.4
X101.05Y-53.0
X101.05Y-177.0
X101.25Y-63.0
X101.25Y-187.0
X102.1Y-45.55
X102.1Y-169.55
X102.25Y-94.05
X102.25Y-99.05
X102.25Y-104.05
X102.25Y-109.05
X102.25Y-114.05
X102.25Y-124.05
X102.25Y-134.05
X102.25Y-139.05
X102.25Y-144.05
X102.25Y-218.05
X102.25Y-223.05
X102.25Y-228.05
X102.25Y-233.05
X102.25Y-238.05
X102.25Y-248.05
X102.25Y-258.05
X102.25Y-263.05
X102.25Y-268.05
X102.392Y-53.0
X102.392Y-177.0
X102.5Y-41.25
X102.5Y-165.25
X102.7Y-46.15
X102.7Y-170.15
X103.0Y-63.0
X103.0Y-187.0
X103.271Y-52.121
X103.271Y-176.121
X103.273Y-46.723
X103.273Y-48.023
X103.273Y-49.423
X103.273Y-50.864
X103.273Y-170.723
X103.273Y-172.023
X103.273Y-173.423
X103.273Y-174.864
X103.5Y-41.25
X103.5Y-42.25
X103.5Y-165.25
X103.5Y-166.25
X104.45Y-41.3
X104.45Y-42.3
X104.45Y-165.3
X104.45Y-166.3
X104.5Y-63.0
X104.5Y-187.0
X104.602Y-54.966
X104.602Y-178.966
X105.0Y-51.0
X105.0Y-175.0
X105.217Y-54.183
X105.217Y-178.183
X105.25Y-55.25
X105.25Y-179.25
X105.65Y-42.7
X105.65Y-166.7
X106.5Y-60.5
X106.5Y-184.5
X107.05Y-45.0
X107.05Y-169.0
X107.25Y-61.25
X107.25Y-94.05
X107.25Y-99.05
X107.25Y-104.05
X107.25Y-109.05
X107.25Y-114.05
X107.25Y-119.05
X107.25Y-124.05
X107.25Y-129.05
X107.25Y-134.05
X107.25Y-139.05
X107.25Y-144.05
X107.25Y-185.25
X107.25Y-218.05
X107.25Y-223.05
X107.25Y-228.05
X107.25Y-233.05
X107.25Y-238.05
X107.25Y-243.05
X107.25Y-248.05
X107.25Y-253.05
X107.25Y-258.05
X107.25Y-263.05
X107.25Y-268.05
X107.75Y-45.8
X107.75Y-169.8
X107.8Y-68.9
X107.8Y-192.9
X108.0Y-52.25
X108.0Y-61.75
X108.0Y-63.25
X108.0Y-176.25
X108.0Y-185.75
X108.0Y-187.25
X108.75Y-53.0
X108.75Y-177.0
X109.0Y-61.75
X109.0Y-185.75
X109.5Y-60.0
X109.5Y-184.0
X109.794Y-47.956
X109.794Y-171.956
X109.95Y-33.8
X109.95Y-157.8
X110.0Y-61.75
X110.0Y-185.75
X110.09Y-59.355
X110.09Y-183.355
X110.25Y-29.535
X110.25Y-153.535
X110.5Y-55.5
X110.5Y-63.25
X110.5Y-179.5
X110.5Y-187.25
X110.544Y-48.706
X110.544Y-172.706
X110.75Y-48.0
X110.75Y-172.0
X110.818Y-42.588
X110.818Y-166.588
X111.0Y-61.75
X111.0Y-185.75
X111.15Y-33.8
X111.15Y-157.8
X111.5Y-56.25
X111.5Y-180.25
X111.55Y-40.5
X111.55Y-164.5
X111.75Y-63.25
X111.75Y-64.5
X111.75Y-67.0
X111.75Y-74.25
X111.75Y-75.25
X111.75Y-76.25
X111.75Y-77.25
X111.75Y-78.25
X111.75Y-187.25
X111.75Y-188.5
X111.75Y-191.0
X111.75Y-198.25
X111.75Y-199.25
X111.75Y-200.25
X111.75Y-201.25
X111.75Y-202.25
X112.25Y-44.0
X112.25Y-94.05
X112.25Y-99.05
X112.25Y-114.05
X112.25Y-119.05
X112.25Y-134.05
X112.25Y-139.05
X112.25Y-144.05
X112.25Y-168.0
X112.25Y-218.05
X112.25Y-223.05
X112.25Y-238.05
X112.25Y-243.05
X112.25Y-258.05
X112.25Y-263.05
X112.25Y-268.05
X112.35Y-33.8
X112.35Y-157.8
X112.55Y-40.5
X112.55Y-41.4
X112.55Y-164.5
X112.55Y-165.4
X112.777Y-52.223
X112.777Y-176.223
X112.85Y-34.8
X112.85Y-158.8
X112.858Y-44.75
X112.858Y-168.75
X113.25Y-63.5
X113.25Y-64.5
X113.25Y-65.5
X113.25Y-66.5
X113.25Y-67.5
X113.25Y-68.5
X113.25Y-72.5
X113.25Y-73.5
X113.25Y-74.5
X113.25Y-75.5
X113.25Y-76.5
X113.25Y-77.5
X113.25Y-78.5
X113.25Y-79.5
X113.25Y-83.5
X113.25Y-84.5
X113.25Y-85.5
X113.25Y-86.5
X113.25Y-187.5
X113.25Y-188.5
X113.25Y-189.5
X113.25Y-190.5
X113.25Y-191.5
X113.25Y-192.5
X113.25Y-196.5
X113.25Y-197.5
X113.25Y-198.5
X113.25Y-199.5
X113.25Y-200.5
X113.25Y-201.5
X113.25Y-202.5
X113.25Y-203.5
X113.25Y-207.5
X113.25Y-208.5
X113.25Y-209.5
X113.25Y-210.5
X113.45Y-39.6
X113.45Y-40.5
X113.45Y-41.4
X113.45Y-163.6
X113.45Y-164.5
X113.45Y-165.4
X113.456Y-53.544
X113.456Y-177.544
X113.5Y-48.0
X113.5Y-172.0
X113.7Y-32.8
X113.7Y-33.85
X113.7Y-156.8
X113.7Y-157.85
X113.75Y-44.0
X113.75Y-168.0
X114.35Y-39.6
X114.35Y-40.5
X114.35Y-41.4
X114.35Y-48.4
X114.35Y-163.6
X114.35Y-164.5
X114.35Y-165.4
X114.35Y-172.4
X114.95Y-48.0
X114.95Y-172.0
X115.0Y-56.0
X115.0Y-180.0
X116.0Y-52.5
X116.0Y-79.75
X116.0Y-176.5
X116.0Y-203.75
X116.25Y-51.5
X116.25Y-175.5
X116.462Y-50.623
X116.462Y-174.623
X116.5Y-49.75
X116.5Y-173.75
X116.75Y-46.25
X116.75Y-57.0
X116.75Y-170.25
X116.75Y-181.0
X117.25Y-94.05
X117.25Y-99.05
X117.25Y-104.05
X117.25Y-109.05
X117.25Y-114.05
X117.25Y-119.05
X117.25Y-124.05
X117.25Y-134.05
X117.25Y-139.05
X117.25Y-144.05
X117.25Y-218.05
X117.25Y-223.05
X117.25Y-228.05
X117.25Y-233.05
X117.25Y-238.05
X117.25Y-243.05
X117.25Y-248.05
X117.25Y-258.05
X117.25Y-263.05
X117.25Y-268.05
X117.5Y-57.0
X117.5Y-181.0
X119.55Y-51.149
X119.55Y-52.419
X119.55Y-56.483
X119.55Y-57.575
X119.55Y-58.667
X119.55Y-59.76
X119.55Y-60.852
X119.55Y-61.944
X119.55Y-175.149
X119.55Y-176.419
X119.55Y-180.483
X119.55Y-181.575
X119.55Y-182.667
X119.55Y-183.76
X119.55Y-184.852
X119.55Y-185.944
X119.555Y-79.536
X119.555Y-203.536
X119.65Y-54.2
X119.65Y-178.2
X119.75Y-71.0
X119.75Y-195.0
X120.647Y-54.197
X120.647Y-178.197
X120.75Y-63.4
X120.75Y-187.4
X120.788Y-61.944
X120.788Y-185.944
X121.088Y-51.149
X121.088Y-175.149
X121.25Y-71.0
X121.25Y-195.0
X121.45Y-48.1
X121.45Y-172.1
X121.5Y-63.4
X121.5Y-64.15
X121.5Y-187.4
X121.5Y-188.15
X121.647Y-54.197
X121.647Y-178.197
X122.0Y-80.25
X122.0Y-204.25
X122.15Y-59.7
X122.15Y-60.9
X122.15Y-183.7
X122.15Y-184.9
X122.153Y-61.944
X122.153Y-185.944
X122.25Y-48.1
X122.25Y-94.05
X122.25Y-99.05
X122.25Y-104.05
X122.25Y-114.05
X122.25Y-119.05
X122.25Y-124.05
X122.25Y-129.05
X122.25Y-134.05
X122.25Y-139.05
X122.25Y-144.05
X122.25Y-172.1
X122.25Y-218.05
X122.25Y-223.05
X122.25Y-228.05
X122.25Y-238.05
X122.25Y-243.05
X122.25Y-248.05
X122.25Y-253.05
X122.25Y-258.05
X122.25Y-263.05
X122.25Y-268.05
X122.5Y-71.0
X122.5Y-195.0
X122.626Y-51.149
X122.626Y-175.149
X122.647Y-54.197
X122.647Y-178.197
X123.519Y-61.944
X123.519Y-185.944
X123.647Y-54.197
X123.647Y-178.197
X124.0Y-70.763
X124.0Y-194.763
X124.164Y-51.149
X124.164Y-175.149
X124.25Y-80.0
X124.25Y-204.0
X124.45Y-48.1
X124.45Y-172.1
X124.847Y-54.197
X124.847Y-178.197
X124.884Y-55.488
X124.884Y-56.779
X124.884Y-58.071
X124.884Y-59.362
X124.884Y-60.653
X124.884Y-61.944
X124.884Y-179.488
X124.884Y-180.779
X124.884Y-182.071
X124.884Y-183.362
X124.884Y-184.653
X124.884Y-185.944
X125.05Y-53.0
X125.05Y-177.0
X125.25Y-48.1
X125.25Y-172.1
X125.5Y-70.75
X125.5Y-194.75
X125.702Y-51.149
X125.702Y-175.149
X126.0Y-63.25
X126.0Y-64.0
X126.0Y-64.75
X126.0Y-187.25
X126.0Y-188.0
X126.0Y-188.75
X126.25Y-66.75
X126.25Y-190.75
X126.281Y-59.362
X126.281Y-183.362
X126.75Y-63.25
X126.75Y-64.0
X126.75Y-64.75
X126.75Y-187.25
X126.75Y-188.0
X126.75Y-188.75
X127.241Y-51.149
X127.241Y-175.149
X127.25Y-66.75
X127.25Y-94.05
X127.25Y-99.05
X127.25Y-104.05
X127.25Y-109.05
X127.25Y-114.05
X127.25Y-119.05
X127.25Y-124.05
X127.25Y-129.05
X127.25Y-134.05
X127.25Y-139.05
X127.25Y-144.05
X127.25Y-190.75
X127.25Y-218.05
X127.25Y-223.05
X127.25Y-228.05
X127.25Y-233.05
X127.25Y-238.05
X127.25Y-243.05
X127.25Y-248.05
X127.25Y-253.05
X127.25Y-258.05
X127.25Y-263.05
X127.25Y-268.05
X127.5Y-63.25
X127.5Y-64.0
X127.5Y-64.75
X127.5Y-187.25
X127.5Y-188.0
X127.5Y-188.75
X127.678Y-59.362
X127.678Y-183.362
X127.75Y-47.25
X127.75Y-48.2
X127.75Y-171.25
X127.75Y-172.2
X128.0Y-44.0
X128.0Y-45.25
X128.0Y-75.5
X128.0Y-168.0
X128.0Y-169.25
X128.0Y-199.5
X128.186Y-56.483
X128.186Y-180.483
X128.5Y-74.75
X128.5Y-198.75
X128.779Y-51.149
X128.779Y-175.149
X129.0Y-76.5
X129.0Y-200.5
X129.075Y-59.362
X129.075Y-183.362
X129.329Y-56.483
X129.329Y-180.483
X130.25Y-62.0
X130.25Y-63.75
X130.25Y-75.5
X130.25Y-76.5
X130.25Y-77.5
X130.25Y-186.0
X130.25Y-187.75
X130.25Y-199.5
X130.25Y-200.5
X130.25Y-201.5
X130.317Y-51.149
X130.317Y-175.149
X130.472Y-55.594
X130.472Y-56.864
X130.472Y-58.113
X130.472Y-59.362
X130.472Y-179.594
X130.472Y-180.864
X130.472Y-182.113
X130.472Y-183.362
X130.5Y-47.75
X130.5Y-114.55
X130.5Y-171.75
X130.5Y-238.55
X130.55Y-48.9
X130.55Y-49.9
X130.55Y-172.9
X130.55Y-173.9
X131.25Y-75.5
X131.25Y-76.5
X131.25Y-77.5
X131.25Y-199.5
X131.25Y-200.5
X131.25Y-201.5
X131.45Y-48.9
X131.45Y-49.9
X131.45Y-172.9
X131.45Y-173.9
X131.5Y-47.75
X131.5Y-171.75
X131.855Y-51.149
X131.855Y-175.149
X131.933Y-56.864
X131.933Y-180.864
X132.2Y-75.5
X132.2Y-76.5
X132.2Y-199.5
X132.2Y-200.5
X132.25Y-94.05
X132.25Y-99.05
X132.25Y-104.05
X132.25Y-109.05
X132.25Y-114.05
X132.25Y-124.05
X132.25Y-129.05
X132.25Y-134.05
X132.25Y-139.05
X132.25Y-144.05
X132.25Y-218.05
X132.25Y-223.05
X132.25Y-228.05
X132.25Y-233.05
X132.25Y-238.05
X132.25Y-248.05
X132.25Y-253.05
X132.25Y-258.05
X132.25Y-263.05
X132.25Y-268.05
X132.272Y-32.0
X132.272Y-156.0
X133.2Y-75.5
X133.2Y-76.5
X133.2Y-199.5
X133.2Y-200.5
X133.393Y-51.149
X133.393Y-52.578
X133.393Y-54.006
X133.393Y-55.435
X133.393Y-56.864
X133.393Y-175.149
X133.393Y-176.578
X133.393Y-178.006
X133.393Y-179.435
X133.393Y-180.864
X134.25Y-69.5
X134.25Y-72.25
X134.25Y-193.5
X134.25Y-196.25
X135.0Y-109.55
X135.0Y-124.6
X135.0Y-233.55
X135.0Y-248.6
X137.25Y-99.05
X137.25Y-104.05
X137.25Y-109.05
X137.25Y-129.05
X137.25Y-134.05
X137.25Y-139.05
X137.25Y-223.05
X137.25Y-228.05
X137.25Y-233.05
X137.25Y-253.05
X137.25Y-258.05
X137.25Y-263.05
X153.25Y-75.0
X153.25Y-75.75
X153.25Y-76.5
X153.25Y-77.25
X154.458Y-47.484
X155.107Y-47.2
X155.25Y-99.05
X155.25Y-104.05
X155.25Y-109.05
X155.25Y-114.05
X155.25Y-119.05
X155.25Y-124.05
X155.25Y-129.05
X155.25Y-134.05
X155.25Y-139.05
X156.269Y-47.0
X157.55Y-43.2
X157.75Y-60.5
X158.127Y-47.122
X158.5Y-47.75
X159.0Y-60.5
X159.5Y-54.75
X159.5Y-55.5
X160.183Y-51.799
X160.25Y-94.05
X160.25Y-99.05
X160.25Y-104.05
X160.25Y-109.05
X160.25Y-114.05
X160.25Y-119.05
X160.25Y-124.05
X160.25Y-129.05
X160.25Y-134.05
X160.25Y-139.05
X160.25Y-144.05
X160.75Y-63.0
X161.387Y-68.9
X161.55Y-50.2
X161.563Y-48.313
X162.45Y-47.9
X162.45Y-50.2
X162.5Y-63.0
X162.75Y-60.5
X163.35Y-47.9
X163.45Y-50.2
X164.0Y-60.5
X164.25Y-47.9
X164.25Y-63.0
X164.45Y-50.2
X165.0Y-56.5
X165.25Y-47.5
X165.25Y-60.5
X165.25Y-94.05
X165.25Y-99.05
X165.25Y-104.05
X165.25Y-109.05
X165.25Y-114.05
X165.25Y-119.05
X165.25Y-124.05
X165.25Y-129.05
X165.25Y-134.05
X165.25Y-139.05
X165.25Y-144.05
X165.45Y-50.2
X165.45Y-51.542
X165.45Y-76.35
X165.45Y-77.25
X165.5Y-64.25
X165.5Y-65.25
X165.5Y-66.25
X165.5Y-67.25
X165.5Y-80.0
X165.5Y-80.75
X165.5Y-81.5
X165.517Y-46.167
X165.6Y-74.55
X165.6Y-75.3
X166.149Y-45.535
X166.179Y-52.271
X166.4Y-74.55
X166.4Y-75.3
X166.5Y-60.5
X166.5Y-80.0
X166.5Y-80.75
X166.5Y-81.5
X166.75Y-63.25
X166.879Y-52.971
X167.25Y-80.0
X167.25Y-80.75
X167.25Y-81.5
X167.385Y-45.535
X167.55Y-74.7
X167.65Y-39.8
X167.75Y-60.5
X167.95Y-53.0
X167.95Y-30.3
X168.0Y-64.25
X168.0Y-65.25
X168.0Y-66.25
X168.0Y-67.25
X168.0Y-80.0
X168.0Y-80.75
X168.0Y-81.5
X168.1Y-77.25
X168.15Y-76.4
X168.685Y-45.535
X168.95Y-35.4
X169.05Y-53.0
X169.25Y-63.0
X170.1Y-45.55
X170.25Y-94.05
X170.25Y-99.05
X170.25Y-104.05
X170.25Y-109.05
X170.25Y-114.05
X170.25Y-124.05
X170.25Y-134.05
X170.25Y-139.05
X170.25Y-144.05
X170.392Y-53.0
X170.5Y-41.25
X170.7Y-46.15
X171.0Y-63.0
X171.271Y-52.121
X171.273Y-46.723
X171.273Y-48.023
X171.273Y-49.423
X171.273Y-50.864
X171.5Y-41.25
X171.5Y-42.25
X172.45Y-41.3
X172.45Y-42.3
X172.5Y-63.0
X172.602Y-54.966
X173.0Y-51.0
X173.05Y-177.1
X173.05Y-217.1
X173.05Y-257.1
X173.217Y-54.183
X173.25Y-55.25
X173.65Y-42.7
X173.85Y-177.1
X173.85Y-217.1
X173.85Y-257.1
X174.5Y-60.5
X175.05Y-45.0
X175.25Y-61.25
X175.25Y-94.05
X175.25Y-99.05
X175.25Y-104.05
X175.25Y-109.05
X175.25Y-114.05
X175.25Y-119.05
X175.25Y-124.05
X175.25Y-129.05
X175.25Y-134.05
X175.25Y-139.05
X175.25Y-144.05
X175.292Y-174.293
X175.292Y-214.293
X175.292Y-254.293
X175.75Y-45.8
X175.8Y-68.9
X176.0Y-52.25
X176.0Y-61.75
X176.0Y-63.25
X176.15Y-174.3
X176.15Y-214.3
X176.15Y-254.3
X176.75Y-53.0
X177.0Y-61.75
X177.5Y-60.0
X177.794Y-47.956
X177.95Y-33.8
X178.0Y-61.75
X178.09Y-59.355
X178.25Y-29.535
X178.5Y-55.5
X178.5Y-63.25
X178.544Y-48.706
X178.75Y-48.0
X178.818Y-42.588
X179.0Y-61.75
X179.15Y-33.8
X179.5Y-56.25
X179.55Y-40.5
X179.75Y-63.25
X179.75Y-64.5
X179.75Y-67.0
X179.75Y-74.25
X179.75Y-75.25
X179.75Y-76.25
X179.75Y-77.25
X179.75Y-78.25
X180.25Y-44.0
X180.25Y-94.05
X180.25Y-99.05
X180.25Y-114.05
X180.25Y-119.05
X180.25Y-134.05
X180.25Y-139.05
X180.25Y-144.05
X180.35Y-33.8
X180.55Y-40.5
X180.55Y-41.4
X180.777Y-52.223
X180.85Y-34.8
X180.857Y-44.75
X181.25Y-63.5
X181.25Y-64.5
X181.25Y-65.5
X181.25Y-66.5
X181.25Y-67.5
X181.25Y-68.5
X181.25Y-72.5
X181.25Y-73.5
X181.25Y-74.5
X181.25Y-75.5
X181.25Y-76.5
X181.25Y-77.5
X181.25Y-78.5
X181.25Y-79.5
X181.25Y-83.5
X181.25Y-84.5
X181.25Y-85.5
X181.25Y-86.5
X181.45Y-39.6
X181.45Y-40.5
X181.45Y-41.4
X181.456Y-53.544
X181.5Y-48.0
X181.7Y-32.8
X181.7Y-33.85
X181.75Y-44.0
X182.35Y-39.6
X182.35Y-40.5
X182.35Y-41.4
X182.35Y-48.4
X182.95Y-48.0
X183.0Y-56.0
X184.0Y-52.5
X184.0Y-79.75
X184.25Y-51.5
X184.462Y-50.623
X184.5Y-49.75
X184.65Y-181.195
X184.65Y-181.857
X184.65Y-221.194
X184.65Y-221.857
X184.65Y-261.195
X184.65Y-261.858
X184.75Y-46.25
X184.75Y-57.0
X185.25Y-94.05
X185.25Y-99.05
X185.25Y-104.05
X185.25Y-109.05
X185.25Y-114.05
X185.25Y-119.05
X185.25Y-124.05
X185.25Y-134.05
X185.25Y-139.05
X185.25Y-144.05
X185.5Y-57.0
X186.45Y-183.4
X186.45Y-223.4
X186.45Y-263.4
X187.55Y-51.149
X187.55Y-52.419
X187.55Y-56.483
X187.55Y-57.575
X187.55Y-58.667
X187.55Y-59.76
X187.55Y-60.852
X187.55Y-61.944
X187.555Y-79.536
X187.65Y-54.2
X187.75Y-71.0
X188.647Y-54.197
X188.75Y-63.4
X188.788Y-61.944
X189.088Y-51.149
X189.25Y-71.0
X189.45Y-48.1
X189.5Y-63.4
X189.5Y-64.15
X189.647Y-54.197
X190.0Y-80.25
X190.15Y-59.7
X190.15Y-60.9
X190.153Y-61.944
X190.25Y-48.1
X190.25Y-94.05
X190.25Y-99.05
X190.25Y-104.05
X190.25Y-114.05
X190.25Y-119.05
X190.25Y-124.05
X190.25Y-129.05
X190.25Y-134.05
X190.25Y-139.05
X190.25Y-144.05
X190.5Y-71.0
X190.626Y-51.149
X190.647Y-54.197
X191.519Y-61.944
X191.647Y-54.197
X192.0Y-70.763
X192.164Y-51.149
X192.25Y-80.0
X192.45Y-48.1
X192.847Y-54.197
X192.884Y-55.488
X192.884Y-56.779
X192.884Y-58.071
X192.884Y-59.362
X192.884Y-60.653
X192.884Y-61.944
X193.05Y-53.0
X193.25Y-48.1
X193.5Y-70.75
X193.702Y-51.149
X194.0Y-63.25
X194.0Y-64.0
X194.0Y-64.75
X194.25Y-66.75
X194.281Y-59.362
X194.75Y-63.25
X194.75Y-64.0
X194.75Y-64.75
X195.241Y-51.149
X195.25Y-66.75
X195.25Y-94.05
X195.25Y-99.05
X195.25Y-104.05
X195.25Y-109.05
X195.25Y-114.05
X195.25Y-119.05
X195.25Y-124.05
X195.25Y-129.05
X195.25Y-134.05
X195.25Y-139.05
X195.25Y-144.05
X195.5Y-63.25
X195.5Y-64.0
X195.5Y-64.75
X195.678Y-59.362
X195.75Y-47.25
X195.75Y-48.2
X196.0Y-44.0
X196.0Y-45.25
X196.0Y-75.5
X196.186Y-56.483
X196.5Y-74.75
X196.779Y-51.149
X197.0Y-76.5
X197.075Y-59.362
X197.329Y-56.483
X198.25Y-62.0
X198.25Y-63.75
X198.25Y-75.5
X198.25Y-76.5
X198.25Y-77.5
X198.317Y-51.149
X198.472Y-55.594
X198.472Y-56.864
X198.472Y-58.113
X198.472Y-59.362
X198.5Y-47.75
X198.5Y-114.55
X198.55Y-48.9
X198.55Y-49.9
X199.25Y-75.5
X199.25Y-76.5
X199.25Y-77.5
X199.45Y-48.9
X199.45Y-49.9
X199.5Y-47.75
X199.855Y-51.149
X199.933Y-56.864
X200.2Y-75.5
X200.2Y-76.5
X200.25Y-94.05
X200.25Y-99.05
X200.25Y-104.05
X200.25Y-109.05
X200.25Y-114.05
X200.25Y-124.05
X200.25Y-129.05
X200.25Y-134.05
X200.25Y-139.05
X200.25Y-144.05
X200.272Y-32.0
X201.2Y-75.5
X201.2Y-76.5
X201.393Y-51.149
X201.393Y-52.578
X201.393Y-54.006
X201.393Y-55.435
X201.393Y-56.864
X202.25Y-69.5
X202.25Y-72.25
X203.0Y-109.55
X203.0Y-124.6
X205.25Y-99.05
X205.25Y-104.05
X205.25Y-109.05
X205.25Y-129.05
X205.25Y-134.05
X205.25Y-139.05
X240.543Y-66.958
X240.543Y-170.958
X240.543Y-240.958
X240.55Y-66.1
X240.55Y-170.1
X240.55Y-240.1
X243.35Y-68.4
X243.35Y-69.2
X243.35Y-172.4
X243.35Y-173.2
X243.35Y-242.4
X243.35Y-243.2
X247.444Y-57.6
X247.444Y-161.6
X247.444Y-231.6
X248.107Y-57.6
X248.107Y-161.6
X248.107Y-231.6
X249.65Y-55.8
X249.65Y-159.8
X249.65Y-229.8
T3
X133.85Y-81.0
X134.553Y-79.303
X134.553Y-82.697
X136.25Y-78.6
X136.25Y-83.4
X137.947Y-79.303
X137.947Y-82.697
X138.65Y-81.0
X153.85Y-143.0
X154.553Y-141.303
X154.553Y-144.697
X156.25Y-140.6
X156.25Y-145.4
X157.947Y-141.303
X157.947Y-144.697
X158.65Y-143.0
X196.85Y-245.0
X197.553Y-243.303
X197.553Y-246.697
X199.25Y-242.6
X199.25Y-247.4
X200.947Y-243.303
X200.947Y-246.697
X201.65Y-245.0
X228.85Y-183.0
X229.553Y-181.303
X229.553Y-184.697
X231.25Y-180.6
X231.25Y-185.4
X232.947Y-181.303
X232.947Y-184.697
X233.65Y-183.0
X133.85Y-267.0
X134.553Y-265.303
X134.553Y-268.697
X136.25Y-264.6
X136.25Y-269.4
X137.947Y-265.303
X137.947Y-268.697
X138.65Y-267.0
X85.85Y-143.0
X86.553Y-141.303
X86.553Y-144.697
X88.25Y-140.6
X88.25Y-145.4
X89.947Y-141.303
X89.947Y-144.697
X90.65Y-143.0
X133.85Y-95.0
X134.553Y-93.303
X134.553Y-96.697
X136.25Y-92.6
X136.25Y-97.4
X137.947Y-93.303
X137.947Y-96.697
X138.65Y-95.0
X85.85Y-157.0
X86.553Y-155.303
X86.553Y-158.697
X88.25Y-154.6
X88.25Y-159.4
X89.947Y-155.303
X89.947Y-158.697
X90.65Y-157.0
X228.85Y-79.0
X229.553Y-77.303
X229.553Y-80.697
X231.25Y-76.6
X231.25Y-81.4
X232.947Y-77.303
X232.947Y-80.697
X233.65Y-79.0
X85.85Y-95.0
X86.553Y-93.303
X86.553Y-96.697
X88.25Y-92.6
X88.25Y-97.4
X89.947Y-93.303
X89.947Y-96.697
X90.65Y-95.0
X85.85Y-219.0
X86.553Y-217.303
X86.553Y-220.697
X88.25Y-216.6
X88.25Y-221.4
X89.947Y-217.303
X89.947Y-220.697
X90.65Y-219.0
X160.85Y-165.0
X161.553Y-163.303
X161.553Y-166.697
X163.25Y-162.6
X163.25Y-167.4
X164.947Y-163.303
X164.947Y-166.697
X165.65Y-165.0
X228.85Y-147.0
X229.553Y-145.303
X229.553Y-148.697
X231.25Y-144.6
X231.25Y-149.4
X232.947Y-145.303
X232.947Y-148.697
X233.65Y-147.0
X201.85Y-143.0
X202.553Y-141.303
X202.553Y-144.697
X204.25Y-140.6
X204.25Y-145.4
X205.947Y-141.303
X205.947Y-144.697
X206.65Y-143.0
X228.85Y-253.0
X229.553Y-251.303
X229.553Y-254.697
X231.25Y-250.6
X231.25Y-255.4
X232.947Y-251.303
X232.947Y-254.697
X233.65Y-253.0
X228.85Y-43.0
X229.553Y-41.303
X229.553Y-44.697
X231.25Y-40.6
X231.25Y-45.4
X232.947Y-41.303
X232.947Y-44.697
X233.65Y-43.0
X133.85Y-143.0
X134.553Y-141.303
X134.553Y-144.697
X136.25Y-140.6
X136.25Y-145.4
X137.947Y-141.303
X137.947Y-144.697
X138.65Y-143.0
X196.85Y-165.0
X197.553Y-163.303
X197.553Y-166.697
X199.25Y-162.6
X199.25Y-167.4
X200.947Y-163.303
X200.947Y-166.697
X201.65Y-165.0
X201.85Y-81.0
X202.553Y-79.303
X202.553Y-82.697
X204.25Y-78.6
X204.25Y-83.4
X205.947Y-79.303
X205.947Y-82.697
X206.65Y-81.0
X196.85Y-205.0
X197.553Y-203.303
X197.553Y-206.697
X199.25Y-202.6
X199.25Y-207.4
X200.947Y-203.303
X200.947Y-206.697
X201.65Y-205.0
X85.85Y-267.0
X86.553Y-265.303
X86.553Y-268.697
X88.25Y-264.6
X88.25Y-269.4
X89.947Y-265.303
X89.947Y-268.697
X90.65Y-267.0
X133.85Y-219.0
X134.553Y-217.303
X134.553Y-220.697
X136.25Y-216.6
X136.25Y-221.4
X137.947Y-217.303
X137.947Y-220.697
X138.65Y-219.0
X85.85Y-33.0
X86.553Y-31.303
X86.553Y-34.697
X88.25Y-30.6
X88.25Y-35.4
X89.947Y-31.303
X89.947Y-34.697
X90.65Y-33.0
X153.85Y-33.0
X154.553Y-31.303
X154.553Y-34.697
X156.25Y-30.6
X156.25Y-35.4
X157.947Y-31.303
X157.947Y-34.697
X158.65Y-33.0
X153.85Y-95.0
X154.553Y-93.303
X154.553Y-96.697
X156.25Y-92.6
X156.25Y-97.4
X157.947Y-93.303
X157.947Y-96.697
X158.65Y-95.0
X228.85Y-217.0
X229.553Y-215.303
X229.553Y-218.697
X231.25Y-214.6
X231.25Y-219.4
X232.947Y-215.303
X232.947Y-218.697
X233.65Y-217.0
X160.85Y-205.0
X161.553Y-203.303
X161.553Y-206.697
X163.25Y-202.6
X163.25Y-207.4
X164.947Y-203.303
X164.947Y-206.697
X165.65Y-205.0
X133.85Y-205.0
X134.553Y-203.303
X134.553Y-206.697
X136.25Y-202.6
X136.25Y-207.4
X137.947Y-203.303
X137.947Y-206.697
X138.65Y-205.0
X160.85Y-245.0
X161.553Y-243.303
X161.553Y-246.697
X163.25Y-242.6
X163.25Y-247.4
X164.947Y-243.303
X164.947Y-246.697
X165.65Y-245.0
X201.85Y-95.0
X202.553Y-93.303
X202.553Y-96.697
X204.25Y-92.6
X204.25Y-97.4
X205.947Y-93.303
X205.947Y-96.697
X206.65Y-95.0
T4
X83.25Y-49.5
X83.25Y-50.75
X83.25Y-52.0
X83.25Y-53.25
X83.25Y-54.5
X83.25Y-173.5
X83.25Y-174.75
X83.25Y-176.0
X83.25Y-177.25
X83.25Y-178.5
X83.35Y-40.0
X83.35Y-42.9
X83.35Y-164.0
X83.35Y-166.9
X84.25Y-60.25
X84.25Y-61.5
X84.25Y-63.0
X84.25Y-64.25
X84.25Y-184.25
X84.25Y-185.5
X84.25Y-187.0
X84.25Y-188.25
X85.25Y-60.25
X85.25Y-61.5
X85.25Y-63.0
X85.25Y-64.25
X85.25Y-184.25
X85.25Y-185.5
X85.25Y-187.0
X85.25Y-188.25
X86.1Y-49.75
X86.1Y-51.7
X86.1Y-53.7
X86.1Y-173.75
X86.1Y-175.7
X86.1Y-177.7
X86.15Y-37.3
X86.15Y-42.9
X86.15Y-161.3
X86.15Y-166.9
X86.5Y-60.25
X86.5Y-61.5
X86.5Y-184.25
X86.5Y-185.5
X88.05Y-49.75
X88.05Y-173.75
X88.1Y-51.7
X88.1Y-175.7
X89.737Y-67.35
X89.737Y-191.35
X89.987Y-70.6
X89.987Y-194.6
X90.1Y-49.7
X90.1Y-51.7
X90.1Y-53.7
X90.1Y-173.7
X90.1Y-175.7
X90.1Y-177.7
X90.25Y-36.5
X90.25Y-38.0
X90.25Y-160.5
X90.25Y-162.0
X90.5Y-42.5
X90.5Y-166.5
X90.688Y-67.35
X90.688Y-191.35
X91.25Y-36.5
X91.25Y-38.0
X91.25Y-160.5
X91.25Y-162.0
X92.25Y-42.5
X92.25Y-60.5
X92.25Y-166.5
X92.25Y-184.5
X92.638Y-67.3
X92.638Y-191.3
X92.75Y-36.5
X92.75Y-38.0
X92.75Y-160.5
X92.75Y-162.0
X93.388Y-70.45
X93.388Y-194.45
X93.5Y-60.5
X93.5Y-184.5
X93.587Y-67.2
X93.587Y-191.2
X93.75Y-36.5
X93.75Y-38.0
X93.75Y-160.5
X93.75Y-162.0
X94.1Y-52.5
X94.1Y-176.5
X94.25Y-42.5
X94.25Y-166.5
X95.8Y-34.5
X95.8Y-35.75
X95.8Y-37.0
X95.8Y-158.5
X95.8Y-159.75
X95.8Y-161.0
X95.95Y-51.621
X95.95Y-175.621
X96.25Y-52.4
X96.25Y-176.4
X96.5Y-42.5
X96.5Y-166.5
X96.8Y-35.75
X96.8Y-159.75
X97.85Y-115.05
X97.85Y-239.05
X98.25Y-121.5
X98.25Y-122.5
X98.25Y-245.5
X98.25Y-246.5
X98.744Y-69.194
X98.744Y-70.594
X98.744Y-193.194
X98.744Y-194.594
X98.75Y-53.75
X98.75Y-54.75
X98.75Y-55.75
X98.75Y-177.75
X98.75Y-178.75
X98.75Y-179.75
X98.95Y-115.05
X98.95Y-239.05
X99.0Y-57.5
X99.0Y-181.5
X99.25Y-52.2
X99.25Y-176.2
X100.65Y-52.2
X100.65Y-176.2
X101.102Y-39.342
X101.102Y-163.342
X101.5Y-60.25
X101.5Y-184.25
X102.1Y-52.15
X102.1Y-176.15
X102.35Y-47.1
X102.35Y-171.1
X102.5Y-60.25
X102.5Y-184.25
X103.642Y-39.088
X103.642Y-163.088
X103.65Y-34.9
X103.65Y-158.9
X103.75Y-54.25
X103.75Y-55.25
X103.75Y-56.25
X103.75Y-58.0
X103.75Y-59.0
X103.75Y-178.25
X103.75Y-179.25
X103.75Y-180.25
X103.75Y-182.0
X103.75Y-183.0
X104.15Y-67.35
X104.15Y-191.35
X104.4Y-70.6
X104.4Y-194.6
X104.55Y-34.4
X104.55Y-158.4
X105.1Y-67.35
X105.1Y-191.35
X106.05Y-32.3
X106.05Y-33.8
X106.05Y-156.3
X106.05Y-157.8
X106.25Y-37.0
X106.25Y-38.4
X106.25Y-161.0
X106.25Y-162.4
X107.0Y-42.75
X107.0Y-166.75
X107.05Y-56.8
X107.05Y-57.75
X107.05Y-67.3
X107.05Y-180.8
X107.05Y-181.75
X107.05Y-191.3
X107.45Y-35.6
X107.45Y-37.0
X107.45Y-38.4
X107.45Y-159.6
X107.45Y-161.0
X107.45Y-162.4
X107.8Y-70.45
X107.8Y-194.45
X108.0Y-67.2
X108.0Y-191.2
X108.25Y-42.75
X108.25Y-166.75
X110.35Y-107.25
X110.35Y-231.25
X111.75Y-129.4
X111.75Y-253.4
X112.25Y-104.65
X112.25Y-228.65
X112.5Y-130.4
X112.5Y-254.4
X114.2Y-104.6
X114.2Y-228.6
X114.25Y-103.35
X114.25Y-227.35
X114.65Y-60.4
X114.65Y-184.4
X115.179Y-61.271
X115.179Y-185.271
X116.85Y-85.35
X116.85Y-209.35
X118.6Y-85.35
X118.6Y-209.35
X119.65Y-35.8
X119.65Y-37.5
X119.65Y-38.8
X119.65Y-159.8
X119.65Y-161.5
X119.65Y-162.8
X120.65Y-35.8
X120.65Y-37.5
X120.65Y-38.8
X120.65Y-159.8
X120.65Y-161.5
X120.65Y-162.8
X121.45Y-33.6
X121.45Y-157.6
X121.75Y-35.8
X121.75Y-37.5
X121.75Y-38.8
X121.75Y-159.8
X121.75Y-161.5
X121.75Y-162.8
X122.65Y-65.4
X122.65Y-189.4
X122.85Y-33.6
X122.85Y-35.8
X122.85Y-37.5
X122.85Y-38.8
X122.85Y-157.6
X122.85Y-159.8
X122.85Y-161.5
X122.85Y-162.8
X122.95Y-117.05
X122.95Y-241.05
X123.45Y-65.4
X123.45Y-189.4
X124.25Y-33.6
X124.25Y-157.6
X125.0Y-37.25
X125.0Y-115.15
X125.0Y-161.25
X125.0Y-239.15
X125.975Y-85.225
X125.975Y-209.225
X126.0Y-37.25
X126.0Y-161.25
X127.0Y-37.25
X127.0Y-161.25
X127.725Y-85.225
X127.725Y-209.225
X128.0Y-37.25
X128.0Y-161.25
X129.0Y-36.25
X129.0Y-37.25
X129.0Y-160.25
X129.0Y-161.25
X130.0Y-36.25
X130.0Y-37.25
X130.0Y-160.25
X130.0Y-161.25
X131.0Y-36.25
X131.0Y-37.25
X131.0Y-160.25
X131.0Y-161.25
X132.5Y-40.0
X132.5Y-43.75
X132.5Y-164.0
X132.5Y-167.75
X133.25Y-32.25
X133.25Y-156.25
X134.25Y-32.5
X134.25Y-156.5
X134.35Y-36.3
X134.35Y-37.4
X134.35Y-160.3
X134.35Y-161.4
X135.65Y-29.8
X135.65Y-153.8
X136.55Y-30.8
X136.55Y-154.8
X136.65Y-29.8
X136.65Y-153.8
X151.25Y-49.5
X151.25Y-50.75
X151.25Y-52.0
X151.25Y-53.25
X151.25Y-54.5
X151.35Y-40.0
X151.35Y-42.9
X152.25Y-60.25
X152.25Y-61.5
X152.25Y-63.0
X152.25Y-64.25
X153.25Y-60.25
X153.25Y-61.5
X153.25Y-63.0
X153.25Y-64.25
X154.1Y-49.75
X154.1Y-51.7
X154.1Y-53.7
X154.15Y-37.3
X154.15Y-42.9
X154.5Y-60.25
X154.5Y-61.5
X156.05Y-49.75
X156.1Y-51.7
X157.737Y-67.35
X157.987Y-70.6
X158.1Y-49.7
X158.1Y-51.7
X158.1Y-53.7
X158.25Y-36.5
X158.25Y-38.0
X158.5Y-42.5
X158.688Y-67.35
X159.25Y-36.5
X159.25Y-38.0
X160.25Y-42.5
X160.25Y-60.5
X160.637Y-67.3
X160.75Y-36.5
X160.75Y-38.0
X161.387Y-70.45
X161.5Y-60.5
X161.588Y-67.2
X161.75Y-36.5
X161.75Y-38.0
X162.1Y-52.5
X162.25Y-42.5
X163.8Y-34.5
X163.8Y-35.75
X163.8Y-37.0
X163.95Y-51.621
X164.25Y-52.4
X164.5Y-42.5
X164.8Y-35.75
X165.85Y-115.05
X166.25Y-121.5
X166.25Y-122.5
X166.744Y-69.194
X166.744Y-70.594
X166.75Y-53.75
X166.75Y-54.75
X166.75Y-55.75
X166.95Y-115.05
X167.0Y-57.5
X167.25Y-52.2
X168.45Y-171.5
X168.45Y-211.5
X168.45Y-251.5
X168.65Y-52.2
X169.102Y-39.342
X169.5Y-60.25
X169.55Y-171.5
X169.55Y-211.5
X169.55Y-251.5
X169.75Y-158.7
X169.75Y-159.7
X169.75Y-198.7
X169.75Y-199.7
X169.75Y-238.7
X169.75Y-239.7
X170.1Y-52.15
X170.35Y-47.1
X170.5Y-60.25
X170.85Y-167.5
X170.85Y-168.5
X170.85Y-207.5
X170.85Y-208.5
X170.85Y-247.5
X170.85Y-248.5
X171.05Y-161.5
X171.05Y-162.4
X171.05Y-201.5
X171.05Y-202.4
X171.05Y-241.5
X171.05Y-242.4
X171.642Y-39.088
X171.65Y-34.9
X171.75Y-54.25
X171.75Y-55.25
X171.75Y-56.25
X171.75Y-58.0
X171.75Y-59.0
X172.15Y-67.35
X172.4Y-70.6
X172.45Y-162.7
X172.45Y-167.3
X172.45Y-202.7
X172.45Y-207.3
X172.45Y-242.7
X172.45Y-247.3
X172.55Y-34.4
X172.65Y-183.6
X172.65Y-223.6
X172.65Y-263.6
X173.0Y-168.5
X173.0Y-208.5
X173.0Y-248.5
X173.1Y-67.35
X173.55Y-183.6
X173.55Y-223.6
X173.55Y-263.6
X174.05Y-32.3
X174.05Y-33.8
X174.25Y-37.0
X174.25Y-38.4
X174.575Y-158.275
X174.575Y-163.75
X174.575Y-198.275
X174.575Y-203.75
X174.575Y-238.275
X174.575Y-243.75
X174.65Y-187.0
X174.65Y-187.9
X174.65Y-227.0
X174.65Y-227.9
X174.65Y-267.0
X174.65Y-267.9
X175.0Y-42.75
X175.05Y-56.8
X175.05Y-57.75
X175.05Y-67.3
X175.35Y-169.4
X175.35Y-182.4
X175.35Y-209.4
X175.35Y-222.4
X175.35Y-249.4
X175.35Y-262.4
X175.45Y-35.6
X175.45Y-37.0
X175.45Y-38.4
X175.8Y-70.45
X175.95Y-157.4
X175.95Y-197.4
X175.95Y-237.4
X176.0Y-67.2
X176.25Y-42.75
X176.25Y-182.4
X176.25Y-222.4
X176.25Y-262.4
X176.75Y-173.4
X176.75Y-213.4
X176.75Y-253.4
X177.15Y-187.0
X177.15Y-187.9
X177.15Y-227.0
X177.15Y-227.9
X177.15Y-267.0
X177.15Y-267.9
X177.35Y-160.3
X177.35Y-162.9
X177.35Y-200.3
X177.35Y-202.9
X177.35Y-240.3
X177.35Y-242.9
X177.55Y-167.3
X177.55Y-168.2
X177.55Y-207.3
X177.55Y-208.2
X177.55Y-247.3
X177.55Y-248.2
X178.15Y-161.9
X178.15Y-201.9
X178.15Y-241.9
X178.25Y-162.9
X178.25Y-202.9
X178.25Y-242.9
X178.35Y-107.25
X178.95Y-156.2
X178.95Y-167.3
X178.95Y-168.2
X178.95Y-173.8
X178.95Y-196.2
X178.95Y-207.3
X178.95Y-208.2
X178.95Y-213.8
X178.95Y-236.2
X178.95Y-247.3
X178.95Y-248.2
X178.95Y-253.8
X179.15Y-161.9
X179.15Y-201.9
X179.15Y-241.9
X179.75Y-129.4
X180.25Y-104.65
X180.5Y-130.4
X180.5Y-158.5
X180.5Y-198.5
X180.5Y-238.5
X180.65Y-163.1
X180.65Y-166.8
X180.65Y-203.1
X180.65Y-206.8
X180.65Y-243.1
X180.65Y-246.8
X181.15Y-165.9
X181.15Y-205.9
X181.15Y-245.9
X181.55Y-163.1
X181.55Y-203.1
X181.55Y-243.1
X182.0Y-171.5
X182.0Y-211.5
X182.0Y-251.5
X182.2Y-104.6
X182.25Y-103.35
X182.55Y-167.0
X182.55Y-207.0
X182.55Y-247.0
X182.65Y-60.4
X183.15Y-164.2
X183.15Y-204.2
X183.15Y-244.2
X183.179Y-61.271
X183.25Y-162.2
X183.25Y-163.1
X183.25Y-165.2
X183.25Y-202.2
X183.25Y-203.1
X183.25Y-205.2
X183.25Y-242.2
X183.25Y-243.1
X183.25Y-245.2
X183.45Y-168.1
X183.45Y-173.8
X183.45Y-208.1
X183.45Y-213.8
X183.45Y-248.1
X183.45Y-253.8
X183.55Y-156.2
X183.55Y-167.0
X183.55Y-196.2
X183.55Y-207.0
X183.55Y-236.2
X183.55Y-247.0
X183.95Y-188.394
X183.95Y-228.394
X183.95Y-268.394
X184.25Y-161.8
X184.25Y-162.8
X184.25Y-201.8
X184.25Y-202.8
X184.25Y-241.8
X184.25Y-242.8
X184.45Y-168.1
X184.45Y-208.1
X184.45Y-248.1
X184.85Y-85.35
X184.95Y-167.1
X184.95Y-207.1
X184.95Y-247.1
X185.05Y-171.7
X185.05Y-188.394
X185.05Y-211.7
X185.05Y-228.394
X185.05Y-251.7
X185.05Y-268.394
X185.25Y-169.4
X185.25Y-209.4
X185.25Y-249.4
X185.75Y-173.0
X185.75Y-213.0
X185.75Y-253.0
X185.85Y-167.2
X185.85Y-207.2
X185.85Y-247.2
X186.15Y-157.2
X186.15Y-197.2
X186.15Y-237.2
X186.181Y-174.116
X186.181Y-214.116
X186.181Y-254.116
X186.6Y-85.35
X186.95Y-160.8
X186.95Y-200.8
X186.95Y-240.8
X187.15Y-174.1
X187.15Y-214.1
X187.15Y-254.1
X187.65Y-35.8
X187.65Y-37.5
X187.65Y-38.8
X187.75Y-165.5
X187.75Y-205.5
X187.75Y-245.5
X188.0Y-161.75
X188.0Y-201.75
X188.0Y-241.75
X188.65Y-35.8
X188.65Y-37.5
X188.65Y-38.8
X189.45Y-33.6
X189.65Y-179.4
X189.65Y-219.4
X189.65Y-259.4
X189.75Y-35.8
X189.75Y-37.5
X189.75Y-38.8
X189.75Y-183.6
X189.75Y-223.6
X189.75Y-263.6
X190.05Y-162.7
X190.05Y-167.4
X190.05Y-202.7
X190.05Y-207.4
X190.05Y-242.7
X190.05Y-247.4
X190.259Y-168.339
X190.259Y-208.339
X190.259Y-248.339
X190.35Y-156.7
X190.35Y-196.7
X190.35Y-236.7
X190.45Y-179.4
X190.45Y-219.4
X190.45Y-259.4
X190.65Y-65.4
X190.65Y-183.6
X190.65Y-223.6
X190.65Y-263.6
X190.85Y-33.6
X190.85Y-35.8
X190.85Y-37.5
X190.85Y-38.8
X190.95Y-117.05
X191.25Y-157.2
X191.25Y-168.5
X191.25Y-197.2
X191.25Y-208.5
X191.25Y-237.2
X191.25Y-248.5
X191.45Y-65.4
X191.45Y-172.8
X191.45Y-173.7
X191.45Y-212.8
X191.45Y-213.7
X191.45Y-252.8
X191.45Y-253.7
X191.55Y-161.5
X191.55Y-162.4
X191.55Y-179.4
X191.55Y-201.5
X191.55Y-202.4
X191.55Y-219.4
X191.55Y-241.5
X191.55Y-242.4
X191.55Y-259.4
X191.85Y-183.6
X191.85Y-223.6
X191.85Y-263.6
X192.25Y-33.6
X192.45Y-179.4
X192.45Y-219.4
X192.45Y-259.4
X192.65Y-183.6
X192.65Y-223.6
X192.65Y-263.6
X193.0Y-37.25
X193.0Y-115.15
X193.85Y-180.7
X193.85Y-182.3
X193.85Y-220.7
X193.85Y-222.3
X193.85Y-260.7
X193.85Y-262.3
X193.975Y-85.225
X194.0Y-37.25
X194.75Y-180.7
X194.75Y-182.3
X194.75Y-220.7
X194.75Y-222.3
X194.75Y-260.7
X194.75Y-262.3
X195.0Y-37.25
X195.725Y-85.225
X196.0Y-37.25
X197.0Y-36.25
X197.0Y-37.25
X198.0Y-36.25
X198.0Y-37.25
X199.0Y-36.25
X199.0Y-37.25
X200.5Y-40.0
X200.5Y-43.75
X201.25Y-32.25
X202.25Y-32.5
X202.35Y-36.3
X202.35Y-37.4
X203.65Y-29.8
X204.55Y-30.8
X204.65Y-29.8
X208.65Y-173.7
X208.65Y-213.7
X208.65Y-253.7
X208.75Y-178.7
X208.75Y-179.7
X208.75Y-182.3
X208.75Y-183.5
X208.75Y-218.7
X208.75Y-219.7
X208.75Y-222.3
X208.75Y-223.5
X208.75Y-258.7
X208.75Y-259.7
X208.75Y-262.3
X208.75Y-263.5
X209.35Y-188.1
X209.35Y-228.1
X209.35Y-268.1
X209.65Y-173.7
X209.65Y-178.7
X209.65Y-179.7
X209.65Y-213.7
X209.65Y-218.7
X209.65Y-219.7
X209.65Y-253.7
X209.65Y-258.7
X209.65Y-259.7
X209.75Y-182.3
X209.75Y-183.5
X209.75Y-222.3
X209.75Y-223.5
X209.75Y-262.3
X209.75Y-263.5
X210.25Y-188.1
X210.25Y-228.1
X210.25Y-268.1
X210.419Y-184.825
X210.419Y-224.825
X210.419Y-264.825
X210.425Y-186.9
X210.425Y-226.9
X210.425Y-266.9
X210.65Y-173.7
X210.65Y-213.7
X210.65Y-253.7
X210.75Y-183.5
X210.75Y-223.5
X210.75Y-263.5
X210.85Y-178.1
X210.85Y-218.1
X210.85Y-258.1
X211.15Y-188.1
X211.15Y-228.1
X211.15Y-268.1
X211.75Y-173.7
X211.75Y-213.7
X211.75Y-253.7
X212.05Y-188.1
X212.05Y-228.1
X212.05Y-268.1
X214.05Y-178.2
X214.05Y-179.1
X214.05Y-180.1
X214.05Y-181.1
X214.05Y-182.1
X214.05Y-183.2
X214.05Y-218.2
X214.05Y-219.1
X214.05Y-220.1
X214.05Y-221.1
X214.05Y-222.1
X214.05Y-223.2
X214.05Y-258.2
X214.05Y-259.1
X214.05Y-260.1
X214.05Y-261.1
X214.05Y-262.1
X214.05Y-263.2
X222.45Y-58.7
X222.45Y-63.3
X222.45Y-162.7
X222.45Y-167.3
X222.45Y-232.7
X222.45Y-237.3
X222.95Y-51.9
X222.95Y-155.9
X222.95Y-225.9
X223.45Y-51.0
X223.45Y-56.1
X223.45Y-155.0
X223.45Y-160.1
X223.45Y-225.0
X223.45Y-230.1
X223.65Y-66.3
X223.65Y-170.3
X223.65Y-240.3
X224.525Y-67.675
X224.525Y-171.675
X224.525Y-241.675
X224.75Y-61.75
X224.75Y-165.75
X224.75Y-235.75
X224.95Y-72.5
X224.95Y-176.5
X224.95Y-246.5
X225.95Y-72.5
X225.95Y-176.5
X225.95Y-246.5
X226.55Y-64.9
X226.55Y-168.9
X226.55Y-238.9
X227.05Y-55.3
X227.05Y-159.3
X227.05Y-229.3
X227.75Y-50.7
X227.75Y-71.2
X227.75Y-154.7
X227.75Y-175.2
X227.75Y-224.7
X227.75Y-245.2
X228.0Y-54.25
X228.0Y-158.25
X228.0Y-228.25
X228.05Y-58.0
X228.05Y-162.0
X228.05Y-232.0
X228.15Y-63.1
X228.15Y-64.1
X228.15Y-167.1
X228.15Y-168.1
X228.15Y-237.1
X228.15Y-238.1
X228.45Y-59.0
X228.45Y-163.0
X228.45Y-233.0
X228.65Y-50.7
X228.65Y-71.2
X228.65Y-154.7
X228.65Y-175.2
X228.65Y-224.7
X228.65Y-245.2
X228.95Y-52.2
X228.95Y-69.8
X228.95Y-156.2
X228.95Y-173.8
X228.95Y-226.2
X228.95Y-243.8
X229.05Y-58.0
X229.05Y-162.0
X229.05Y-232.0
X229.15Y-64.0
X229.15Y-64.9
X229.15Y-168.0
X229.15Y-168.9
X229.15Y-238.0
X229.15Y-238.9
X229.35Y-59.0
X229.35Y-60.7
X229.35Y-61.6
X229.35Y-163.0
X229.35Y-164.7
X229.35Y-165.6
X229.35Y-233.0
X229.35Y-234.7
X229.35Y-235.6
X230.0Y-67.675
X230.0Y-171.675
X230.0Y-241.675
X230.45Y-59.1
X230.45Y-163.1
X230.45Y-233.1
X231.45Y-59.0
X231.45Y-163.0
X231.45Y-233.0
X231.75Y-54.5
X231.75Y-158.5
X231.75Y-228.5
X232.15Y-61.1
X232.15Y-165.1
X232.15Y-235.1
X233.05Y-61.6
X233.05Y-165.6
X233.05Y-235.6
X233.25Y-58.7
X233.25Y-59.7
X233.25Y-162.7
X233.25Y-163.7
X233.25Y-232.7
X233.25Y-233.7
X233.35Y-57.3
X233.35Y-161.3
X233.35Y-231.3
X233.45Y-56.4
X233.45Y-160.4
X233.45Y-230.4
X233.55Y-63.3
X233.55Y-64.7
X233.55Y-69.8
X233.55Y-167.3
X233.55Y-168.7
X233.55Y-173.8
X233.55Y-237.3
X233.55Y-238.7
X233.55Y-243.8
X233.65Y-52.2
X233.65Y-156.2
X233.65Y-226.2
X233.75Y-71.4
X233.75Y-175.4
X233.75Y-245.4
X234.35Y-57.8
X234.35Y-58.8
X234.35Y-161.8
X234.35Y-162.8
X234.35Y-231.8
X234.35Y-232.8
X234.45Y-63.3
X234.45Y-64.7
X234.45Y-167.3
X234.45Y-168.7
X234.45Y-237.3
X234.45Y-238.7
X234.589Y-51.991
X234.589Y-155.991
X234.589Y-225.991
X234.75Y-51.0
X234.75Y-69.25
X234.75Y-71.4
X234.75Y-155.0
X234.75Y-173.25
X234.75Y-175.4
X234.75Y-225.0
X234.75Y-243.25
X234.75Y-245.4
X235.65Y-57.0
X235.65Y-66.9
X235.65Y-161.0
X235.65Y-170.9
X235.65Y-231.0
X235.65Y-240.9
X237.75Y-60.25
X237.75Y-72.7
X237.75Y-73.8
X237.75Y-164.25
X237.75Y-176.7
X237.75Y-177.8
X237.75Y-234.25
X237.75Y-246.7
X237.75Y-247.8
X237.95Y-57.2
X237.95Y-161.2
X237.95Y-231.2
X239.05Y-50.8
X239.05Y-154.8
X239.05Y-224.8
X239.25Y-56.5
X239.25Y-160.5
X239.25Y-230.5
X239.65Y-65.5
X239.65Y-169.5
X239.65Y-239.5
X239.95Y-30.5
X239.95Y-31.6
X239.95Y-32.6
X239.95Y-33.6
X239.95Y-50.8
X239.95Y-134.5
X239.95Y-135.6
X239.95Y-136.6
X239.95Y-137.6
X239.95Y-154.8
X239.95Y-204.5
X239.95Y-205.6
X239.95Y-206.6
X239.95Y-207.6
X239.95Y-224.8
X240.05Y-58.8
X240.05Y-63.3
X240.05Y-162.8
X240.05Y-167.3
X240.05Y-232.8
X240.05Y-237.3
X240.35Y-55.1
X240.35Y-159.1
X240.35Y-229.1
X240.366Y-56.069
X240.366Y-160.069
X240.366Y-230.069
X244.35Y-31.4
X244.35Y-135.4
X244.35Y-205.4
X244.45Y-28.2
X244.45Y-132.2
X244.45Y-202.2
X244.95Y-32.6
X244.95Y-33.5
X244.95Y-136.6
X244.95Y-137.5
X244.95Y-206.6
X244.95Y-207.5
X245.35Y-28.2
X245.35Y-132.2
X245.35Y-202.2
X245.65Y-49.8
X245.65Y-50.7
X245.65Y-51.8
X245.65Y-52.6
X245.65Y-153.8
X245.65Y-154.7
X245.65Y-155.8
X245.65Y-156.6
X245.65Y-223.8
X245.65Y-224.7
X245.65Y-225.8
X245.65Y-226.6
X245.95Y-32.6
X245.95Y-33.5
X245.95Y-136.6
X245.95Y-137.5
X245.95Y-206.6
X245.95Y-207.5
X246.35Y-28.2
X246.35Y-132.2
X246.35Y-202.2
X246.95Y-47.5
X246.95Y-48.4
X246.95Y-151.5
X246.95Y-152.4
X246.95Y-221.5
X246.95Y-222.4
X247.35Y-28.2
X247.35Y-132.2
X247.35Y-202.2
X248.35Y-28.2
X248.35Y-132.2
X248.35Y-202.2
X248.55Y-32.5
X248.55Y-33.5
X248.55Y-47.5
X248.55Y-48.4
X248.55Y-136.5
X248.55Y-137.5
X248.55Y-151.5
X248.55Y-152.4
X248.55Y-206.5
X248.55Y-207.5
X248.55Y-221.5
X248.55Y-222.4
X248.65Y-66.0
X248.65Y-66.9
X248.65Y-170.0
X248.65Y-170.9
X248.65Y-240.0
X248.65Y-240.9
X249.45Y-28.2
X249.45Y-132.2
X249.45Y-202.2
X249.75Y-31.5
X249.75Y-32.5
X249.75Y-33.5
X249.75Y-135.5
X249.75Y-136.5
X249.75Y-137.5
X249.75Y-205.5
X249.75Y-206.5
X249.75Y-207.5
X249.85Y-49.6
X249.85Y-50.4
X249.85Y-51.6
X249.85Y-52.5
X249.85Y-68.7
X249.85Y-69.6
X249.85Y-153.6
X249.85Y-154.4
X249.85Y-155.6
X249.85Y-156.5
X249.85Y-172.7
X249.85Y-173.6
X249.85Y-223.6
X249.85Y-224.4
X249.85Y-225.6
X249.85Y-226.5
X249.85Y-242.7
X249.85Y-243.6
X251.075Y-31.831
X251.075Y-135.831
X251.075Y-205.831
X253.15Y-31.825
X253.15Y-135.825
X253.15Y-205.825
X253.25Y-65.1
X253.25Y-67.6
X253.25Y-169.1
X253.25Y-171.6
X253.25Y-239.1
X253.25Y-241.6
X254.15Y-65.1
X254.15Y-67.6
X254.15Y-169.1
X254.15Y-171.6
X254.15Y-239.1
X254.15Y-241.6
X254.35Y-30.2
X254.35Y-31.1
X254.35Y-32.0
X254.35Y-32.9
X254.35Y-134.2
X254.35Y-135.1
X254.35Y-136.0
X254.35Y-136.9
X254.35Y-204.2
X254.35Y-205.1
X254.35Y-206.0
X254.35Y-206.9
X254.644Y-57.2
X254.644Y-58.3
X254.644Y-161.2
X254.644Y-162.3
X254.644Y-231.2
X254.644Y-232.3
T5
X102.5Y-30.5
X102.5Y-154.5
X115.5Y-43.0
X115.5Y-167.0
X116.25Y-42.25
X116.25Y-166.25
X117.25Y-42.75
X117.25Y-166.75
X118.25Y-42.75
X118.25Y-166.75
X121.75Y-81.0
X121.75Y-83.5
X121.75Y-84.5
X121.75Y-85.5
X121.75Y-205.0
X121.75Y-207.5
X121.75Y-208.5
X121.75Y-209.5
X123.0Y-83.5
X123.0Y-207.5
X124.0Y-80.944
X124.0Y-83.5
X124.0Y-204.944
X124.0Y-207.5
X137.775Y-35.525
X137.775Y-159.525
X170.5Y-30.5
X183.5Y-43.0
X184.25Y-42.25
X185.25Y-42.75
X186.25Y-42.75
X189.75Y-81.0
X189.75Y-83.5
X189.75Y-84.5
X189.75Y-85.5
X191.0Y-83.5
X192.0Y-80.944
X192.0Y-83.5
X205.775Y-35.525
X211.85Y-183.3
X211.85Y-223.3
X211.85Y-263.3
X212.75Y-183.3
X212.75Y-223.3
X212.75Y-263.3
X249.55Y-29.5
X249.55Y-30.4
X249.55Y-133.5
X249.55Y-134.4
X249.55Y-203.5
X249.55Y-204.4
T6
X132.25Y-117.09
X132.25Y-118.36
X132.25Y-119.63
X132.25Y-120.9
X133.52Y-117.09
X133.52Y-118.36
X133.52Y-119.63
X133.52Y-120.9
X190.48Y-41.0
X190.48Y-42.27
X191.75Y-41.0
X191.75Y-42.27
X193.02Y-41.0
X193.02Y-42.27
X194.29Y-41.0
X194.29Y-42.27
X200.25Y-117.09
X200.25Y-118.36
X200.25Y-119.63
X200.25Y-120.9
X201.52Y-117.09
X201.52Y-118.36
X201.52Y-119.63
X201.52Y-120.9
X122.48Y-41.0
X122.48Y-42.27
X123.75Y-41.0
X123.75Y-42.27
X125.02Y-41.0
X125.02Y-42.27
X126.29Y-41.0
X126.29Y-42.27
X132.25Y-241.09
X132.25Y-242.36
X132.25Y-243.63
X132.25Y-244.9
X133.52Y-241.09
X133.52Y-242.36
X133.52Y-243.63
X133.52Y-244.9
X122.48Y-165.0
X122.48Y-166.27
X123.75Y-165.0
X123.75Y-166.27
X125.02Y-165.0
X125.02Y-166.27
X126.29Y-165.0
X126.29Y-166.27
T7
X168.92Y-84.5
X170.19Y-81.96
X171.46Y-84.5
X172.73Y-81.96
X174.0Y-84.5
X175.27Y-81.96
X176.54Y-84.5
X177.81Y-81.96
X100.92Y-208.5
X102.19Y-205.96
X103.46Y-208.5
X104.73Y-205.96
X106.0Y-208.5
X107.27Y-205.96
X108.54Y-208.5
X109.81Y-205.96
X227.25Y-203.75
X228.52Y-206.29
X229.79Y-203.75
X231.06Y-206.29
X232.33Y-203.75
X233.6Y-206.29
X234.87Y-203.75
X236.14Y-206.29
X86.38Y-208.5
X87.65Y-205.96
X88.92Y-208.5
X90.19Y-205.96
X91.46Y-208.5
X92.73Y-205.96
X94.0Y-208.5
X95.27Y-205.96
X86.38Y-84.5
X87.65Y-81.96
X88.92Y-84.5
X90.19Y-81.96
X91.46Y-84.5
X92.73Y-81.96
X94.0Y-84.5
X95.27Y-81.96
X209.96Y-202.27
X209.96Y-204.81
X209.96Y-207.35
X209.96Y-209.89
X212.5Y-201.0
X212.5Y-203.54
X212.5Y-206.08
X212.5Y-208.62
X154.38Y-84.5
X155.65Y-81.96
X156.92Y-84.5
X158.19Y-81.96
X159.46Y-84.5
X160.73Y-81.96
X162.0Y-84.5
X163.27Y-81.96
X209.96Y-242.27
X209.96Y-244.81
X209.96Y-247.35
X209.96Y-249.89
X212.5Y-241.0
X212.5Y-243.54
X212.5Y-246.08
X212.5Y-248.62
X209.96Y-162.27
X209.96Y-164.81
X209.96Y-167.35
X209.96Y-169.89
X212.5Y-161.0
X212.5Y-163.54
X212.5Y-166.08
X212.5Y-168.62
X227.25Y-133.75
X228.52Y-136.29
X229.79Y-133.75
X231.06Y-136.29
X232.33Y-133.75
X233.6Y-136.29
X234.87Y-133.75
X236.14Y-136.29
X227.25Y-29.75
X228.52Y-32.29
X229.79Y-29.75
X231.06Y-32.29
X232.33Y-29.75
X233.6Y-32.29
X234.87Y-29.75
X236.14Y-32.29
X100.92Y-84.5
X102.19Y-81.96
X103.46Y-84.5
X104.73Y-81.96
X106.0Y-84.5
X107.27Y-81.96
X108.54Y-84.5
X109.81Y-81.96
T8
X207.5Y-112.65
X207.5Y-115.19
X207.5Y-117.73
X207.5Y-120.27
X207.5Y-122.81
X207.5Y-125.35
X139.5Y-112.65
X139.5Y-115.19
X139.5Y-117.73
X139.5Y-120.27
X139.5Y-122.81
X139.5Y-125.35
X139.5Y-236.65
X139.5Y-239.19
X139.5Y-241.73
X139.5Y-244.27
X139.5Y-246.81
X139.5Y-249.35
T9
X231.25Y-79.0
X88.25Y-95.0
X88.25Y-219.0
X163.25Y-165.0
X231.25Y-147.0
X204.25Y-143.0
X231.25Y-253.0
X231.25Y-43.0
X136.25Y-143.0
X199.25Y-165.0
X204.25Y-81.0
X199.25Y-205.0
X88.25Y-267.0
X136.25Y-219.0
X88.25Y-33.0
X156.25Y-33.0
X156.25Y-95.0
X231.25Y-217.0
X163.25Y-205.0
X136.25Y-205.0
X163.25Y-245.0
X204.25Y-95.0
X136.25Y-81.0
X156.25Y-143.0
X199.25Y-245.0
X231.25Y-183.0
X136.25Y-267.0
X88.25Y-143.0
X136.25Y-95.0
X88.25Y-157.0
T6
G00X163.83Y-29.4
M15
G01X163.83Y-28.4
M16
G05
G00X163.83Y-33.225
M15
G01X163.83Y-32.225
M16
G05
G00X172.47Y-29.4
M15
G01X172.47Y-28.4
M16
G05
G00X172.47Y-33.225
M15
G01X172.47Y-32.225
M16
G05
G00X95.83Y-29.4
M15
G01X95.83Y-28.4
M16
G05
G00X95.83Y-33.225
M15
G01X95.83Y-32.225
M16
G05
G00X104.47Y-29.4
M15
G01X104.47Y-28.4
M16
G05
G00X104.47Y-33.225
M15
G01X104.47Y-32.225
M16
G05
G00X95.83Y-153.4
M15
G01X95.83Y-152.4
M16
G05
G00X95.83Y-157.225
M15
G01X95.83Y-156.225
M16
G05
G00X104.47Y-153.4
M15
G01X104.47Y-152.4
M16
G05
G00X104.47Y-157.225
M15
G01X104.47Y-156.225
M16
G05
T0
M30
