%TF.GenerationSoftware,KiCad,Pcbnew,5.1.7-a382d34a8~87~ubuntu18.04.1*%
%TF.CreationDate,2020-11-13T15:53:22+02:00*%
%TF.ProjectId,panel,70616e65-6c2e-46b6-9963-61645f706362,Rev. A*%
%TF.SameCoordinates,Original*%
%TF.FileFunction,Profile,NP*%
%FSLAX46Y46*%
G04 Gerber Fmt 4.6, Leading zero omitted, Abs format (unit mm)*
G04 Created by KiCad (PCBNEW 5.1.7-a382d34a8~87~ubuntu18.04.1) date 2020-11-13 15:53:22*
%MOMM*%
%LPD*%
G01*
G04 APERTURE LIST*
%TA.AperFunction,Profile*%
%ADD10C,0.050000*%
%TD*%
G04 APERTURE END LIST*
D10*
X210250000Y-122500000D02*
X210250000Y-115500000D01*
X217250000Y-115500000D02*
X217250000Y-122500000D01*
X211250000Y-110500000D02*
X216250000Y-110500000D01*
X216250000Y-114500000D02*
G75*
G02*
X217250000Y-115500000I0J-1000000D01*
G01*
X210250000Y-115500000D02*
G75*
G02*
X211250000Y-114500000I1000000J0D01*
G01*
X211250000Y-110500000D02*
G75*
G02*
X210250000Y-109500000I0J1000000D01*
G01*
X217250000Y-109500000D02*
G75*
G02*
X216250000Y-110500000I-1000000J0D01*
G01*
X216250000Y-114500000D02*
X211250000Y-114500000D01*
X142250000Y-115500000D02*
X142250000Y-122500000D01*
X150250000Y-115500000D02*
X150250000Y-122500000D01*
X149250000Y-123500000D02*
X143250000Y-123500000D01*
X149250000Y-127500000D02*
G75*
G02*
X150250000Y-128500000I0J-1000000D01*
G01*
X143250000Y-123500000D02*
G75*
G02*
X142250000Y-122500000I0J1000000D01*
G01*
X142250000Y-128500000D02*
G75*
G02*
X143250000Y-127500000I1000000J0D01*
G01*
X149250000Y-127500000D02*
X143250000Y-127500000D01*
X150250000Y-122500000D02*
G75*
G02*
X149250000Y-123500000I-1000000J0D01*
G01*
X142250000Y-53500000D02*
X142250000Y-60500000D01*
X150250000Y-60500000D02*
X150250000Y-53500000D01*
X149250000Y-65500000D02*
G75*
G02*
X150250000Y-66500000I0J-1000000D01*
G01*
X149250000Y-61500000D02*
X143250000Y-61500000D01*
X143250000Y-61500000D02*
G75*
G02*
X142250000Y-60500000I0J1000000D01*
G01*
X149250000Y-65500000D02*
X143250000Y-65500000D01*
X142250000Y-66500000D02*
G75*
G02*
X143250000Y-65500000I1000000J0D01*
G01*
X150250000Y-60500000D02*
G75*
G02*
X149250000Y-61500000I-1000000J0D01*
G01*
X210250000Y-53500000D02*
X210250000Y-60500000D01*
X217250000Y-60500000D02*
X217250000Y-53500000D01*
X217250000Y-60500000D02*
G75*
G02*
X216250000Y-61500000I-1000000J0D01*
G01*
X210250000Y-66500000D02*
G75*
G02*
X211250000Y-65500000I1000000J0D01*
G01*
X216250000Y-61500000D02*
X211250000Y-61500000D01*
X211250000Y-61500000D02*
G75*
G02*
X210250000Y-60500000I0J1000000D01*
G01*
X216250000Y-65500000D02*
G75*
G02*
X217250000Y-66500000I0J-1000000D01*
G01*
X211250000Y-65500000D02*
X216250000Y-65500000D01*
X202250000Y-191000000D02*
X194750000Y-191000000D01*
X202250000Y-189000000D02*
X194750000Y-189000000D01*
X167750000Y-191000000D02*
X160250000Y-191000000D01*
X167750000Y-189000000D02*
X160250000Y-189000000D01*
X194750000Y-191000000D02*
G75*
G02*
X194750000Y-189000000I0J1000000D01*
G01*
X188750000Y-189000000D02*
G75*
G02*
X188750000Y-191000000I0J-1000000D01*
G01*
X173750000Y-191000000D02*
G75*
G02*
X173750000Y-189000000I0J1000000D01*
G01*
X167750000Y-189000000D02*
G75*
G02*
X167750000Y-191000000I0J-1000000D01*
G01*
X143250000Y-173750000D02*
X146250000Y-173750000D01*
X143250000Y-177750000D02*
X146250000Y-177750000D01*
X147250000Y-172750000D02*
X147250000Y-153000000D01*
X142250000Y-172750000D02*
X142250000Y-167500000D01*
X146250000Y-177750000D02*
G75*
G02*
X147250000Y-178750000I0J-1000000D01*
G01*
X142250000Y-178750000D02*
G75*
G02*
X143250000Y-177750000I1000000J0D01*
G01*
X147250000Y-172750000D02*
G75*
G02*
X146250000Y-173750000I-1000000J0D01*
G01*
X143250000Y-173750000D02*
G75*
G02*
X142250000Y-172750000I0J1000000D01*
G01*
X205250000Y-89000000D02*
X194750000Y-89000000D01*
X194750000Y-87000000D02*
X205250000Y-87000000D01*
X194750000Y-89000000D02*
G75*
G02*
X194750000Y-87000000I0J1000000D01*
G01*
X188750000Y-87000000D02*
G75*
G02*
X188750000Y-89000000I0J-1000000D01*
G01*
X167750000Y-89000000D02*
X154750001Y-89000001D01*
X167750000Y-87000000D02*
X154750000Y-87000000D01*
X173750000Y-89000000D02*
G75*
G02*
X173750000Y-87000000I0J1000000D01*
G01*
X167750000Y-87000000D02*
G75*
G02*
X167750000Y-89000000I0J-1000000D01*
G01*
X137250000Y-89000000D02*
X133250000Y-89000000D01*
X133250000Y-87000000D02*
X137250000Y-87000000D01*
X133250000Y-89000000D02*
G75*
G02*
X133250000Y-87000000I0J1000000D01*
G01*
X127250000Y-87000000D02*
G75*
G02*
X127250000Y-89000000I0J-1000000D01*
G01*
X91250000Y-89000000D02*
X86750001Y-89000001D01*
X91250000Y-87000000D02*
X86750000Y-87000000D01*
X97250000Y-89000000D02*
G75*
G02*
X97250000Y-87000000I0J1000000D01*
G01*
X91250000Y-87000000D02*
G75*
G02*
X91250000Y-89000000I0J-1000000D01*
G01*
X142250000Y-105500000D02*
X142250000Y-109500000D01*
X150250000Y-109500000D02*
X150250000Y-105500000D01*
X137250000Y-151000000D02*
X133250000Y-151000000D01*
X133250000Y-149000000D02*
X137250000Y-149000000D01*
X133250000Y-151000000D02*
G75*
G02*
X133250000Y-149000000I0J1000000D01*
G01*
X127250000Y-149000000D02*
G75*
G02*
X127250000Y-151000000I0J-1000000D01*
G01*
X91250000Y-151000000D02*
X87250000Y-151000000D01*
X91250000Y-149000000D02*
X87250000Y-149000000D01*
X97250000Y-151000000D02*
G75*
G02*
X97250000Y-149000000I0J1000000D01*
G01*
X91250000Y-149000000D02*
G75*
G02*
X91250000Y-151000000I0J-1000000D01*
G01*
X91250000Y-211000000D02*
X86750000Y-211000000D01*
X91250000Y-213000000D02*
X86750001Y-213000001D01*
X97250000Y-213000000D02*
G75*
G02*
X97250000Y-211000000I0J1000000D01*
G01*
X91250000Y-211000000D02*
G75*
G02*
X91250000Y-213000000I0J-1000000D01*
G01*
X133250000Y-211000000D02*
X137250000Y-211000000D01*
X133250000Y-213000000D02*
X137250000Y-213000000D01*
X127250000Y-211000000D02*
G75*
G02*
X127250000Y-213000000I0J-1000000D01*
G01*
X133250000Y-213000000D02*
G75*
G02*
X133250000Y-211000000I0J1000000D01*
G01*
X142250000Y-242000000D02*
X142250000Y-229500000D01*
X147250000Y-242000000D02*
X147250000Y-233000000D01*
X146250000Y-247000000D02*
X143250000Y-247000000D01*
X146250000Y-243000000D02*
X143250000Y-243000000D01*
X146250000Y-247000000D02*
G75*
G02*
X147250000Y-248000000I0J-1000000D01*
G01*
X142250000Y-248000000D02*
G75*
G02*
X143250000Y-247000000I1000000J0D01*
G01*
X147250000Y-242000000D02*
G75*
G02*
X146250000Y-243000000I-1000000J0D01*
G01*
X143250000Y-243000000D02*
G75*
G02*
X142250000Y-242000000I0J1000000D01*
G01*
X167750000Y-231000000D02*
X160250000Y-231000000D01*
X167750000Y-229000000D02*
X160250000Y-229000000D01*
X173750000Y-231000000D02*
G75*
G02*
X173750000Y-229000000I0J1000000D01*
G01*
X167750000Y-229000000D02*
G75*
G02*
X167750000Y-231000000I0J-1000000D01*
G01*
X194750000Y-231000000D02*
X202250000Y-231000000D01*
X194750000Y-229000000D02*
X202250000Y-229000000D01*
X188750000Y-229000000D02*
G75*
G02*
X188750000Y-231000000I0J-1000000D01*
G01*
X194750000Y-231000000D02*
G75*
G02*
X194750000Y-229000000I0J1000000D01*
G01*
X217250000Y-255000000D02*
X217250000Y-256000000D01*
X217250000Y-249000000D02*
G75*
G02*
X215250000Y-249000000I-1000000J0D01*
G01*
X215250000Y-255000000D02*
G75*
G02*
X217250000Y-255000000I1000000J0D01*
G01*
X201250000Y-271000000D02*
X233250000Y-271000000D01*
X202250000Y-269000000D02*
X201250000Y-269000000D01*
X201250000Y-271000000D02*
G75*
G02*
X201250000Y-269000000I0J1000000D01*
G01*
X195250000Y-269000000D02*
G75*
G02*
X195250000Y-271000000I0J-1000000D01*
G01*
X167250000Y-271000000D02*
X195250000Y-271000000D01*
X161250000Y-269000000D02*
X160250000Y-269000000D01*
X167250000Y-271000000D02*
G75*
G02*
X167250000Y-269000000I0J1000000D01*
G01*
X161250000Y-269000000D02*
G75*
G02*
X161250000Y-271000000I0J-1000000D01*
G01*
X144250000Y-271000000D02*
X161250000Y-271000000D01*
X144250000Y-277250000D02*
X144250000Y-271000000D01*
X256250000Y-277250000D02*
X144250000Y-277250000D01*
X256250000Y-271000000D02*
X256250000Y-277250000D01*
X239250000Y-271000000D02*
X256250000Y-271000000D01*
X239250000Y-269000000D02*
X253250000Y-269000000D01*
X239250000Y-271000000D02*
G75*
G02*
X239250000Y-269000000I0J1000000D01*
G01*
X233250000Y-269000000D02*
G75*
G02*
X233250000Y-271000000I0J-1000000D01*
G01*
X239250000Y-199000000D02*
X253250000Y-199000000D01*
X239250000Y-201000000D02*
G75*
G02*
X239250000Y-199000000I0J1000000D01*
G01*
X233250000Y-199000000D02*
G75*
G02*
X233250000Y-201000000I0J-1000000D01*
G01*
X217250000Y-173000000D02*
X217250000Y-186000000D01*
X217250000Y-167000000D02*
G75*
G02*
X215250000Y-167000000I-1000000J0D01*
G01*
X215250000Y-173000000D02*
G75*
G02*
X217250000Y-173000000I1000000J0D01*
G01*
X167750000Y-151000000D02*
X160250000Y-151000000D01*
X167750000Y-149000000D02*
X155250000Y-149000000D01*
X167750000Y-149000000D02*
G75*
G02*
X167750000Y-151000000I0J-1000000D01*
G01*
X173750000Y-151000000D02*
G75*
G02*
X173750000Y-149000000I0J1000000D01*
G01*
X194750000Y-151000000D02*
X202250000Y-151000000D01*
X194750000Y-149000000D02*
X205250000Y-149000000D01*
X188750000Y-149000000D02*
G75*
G02*
X188750000Y-151000000I0J-1000000D01*
G01*
X194750000Y-151000000D02*
G75*
G02*
X194750000Y-149000000I0J1000000D01*
G01*
X210250000Y-128500000D02*
X210250000Y-132500000D01*
X217250000Y-97000000D02*
X233250000Y-97000000D01*
X217250000Y-109500000D02*
X217250000Y-97000000D01*
X216250000Y-127500000D02*
X211250000Y-127500000D01*
X211250000Y-123500000D02*
X216250000Y-123500000D01*
X217250000Y-122500000D02*
G75*
G02*
X216250000Y-123500000I-1000000J0D01*
G01*
X211250000Y-123500000D02*
G75*
G02*
X210250000Y-122500000I0J1000000D01*
G01*
X210250000Y-128500000D02*
G75*
G02*
X211250000Y-127500000I1000000J0D01*
G01*
X216250000Y-127500000D02*
G75*
G02*
X217250000Y-128500000I0J-1000000D01*
G01*
X217250000Y-129000000D02*
X217250000Y-128500000D01*
X233250000Y-129000000D02*
X217250000Y-129000000D01*
X233250000Y-129000000D02*
G75*
G02*
X233250000Y-131000000I0J-1000000D01*
G01*
X239250000Y-131000000D02*
G75*
G02*
X239250000Y-129000000I0J1000000D01*
G01*
X256250000Y-129000000D02*
X239250000Y-129000000D01*
X256250000Y-97000000D02*
X256250000Y-129000000D01*
X239250000Y-97000000D02*
X256250000Y-97000000D01*
X239250000Y-95000000D02*
X253250000Y-95000000D01*
X239250000Y-97000000D02*
G75*
G02*
X239250000Y-95000000I0J1000000D01*
G01*
X233250000Y-95000000D02*
G75*
G02*
X233250000Y-97000000I0J-1000000D01*
G01*
X210250000Y-66500000D02*
X210250000Y-70500000D01*
X217250000Y-66500000D02*
X217250000Y-82000000D01*
X216250000Y-48500000D02*
X211250000Y-48500000D01*
X211250000Y-52500000D02*
X216250000Y-52500000D01*
X216250000Y-52500000D02*
G75*
G02*
X217250000Y-53500000I0J-1000000D01*
G01*
X210250000Y-53500000D02*
G75*
G02*
X211250000Y-52500000I1000000J0D01*
G01*
X217250000Y-47500000D02*
G75*
G02*
X216250000Y-48500000I-1000000J0D01*
G01*
X211250000Y-48500000D02*
G75*
G02*
X210250000Y-47500000I0J1000000D01*
G01*
X142250000Y-66500000D02*
X142250000Y-70500000D01*
X150250000Y-66500000D02*
X150250000Y-70500000D01*
X149250000Y-114500000D02*
G75*
G02*
X150250000Y-115500000I0J-1000000D01*
G01*
X149250000Y-110500000D02*
X143250000Y-110500000D01*
X143250000Y-110500000D02*
G75*
G02*
X142250000Y-109500000I0J1000000D01*
G01*
X149250000Y-114500000D02*
X143250000Y-114500000D01*
X142250000Y-115500000D02*
G75*
G02*
X143250000Y-114500000I1000000J0D01*
G01*
X150250000Y-109500000D02*
G75*
G02*
X149250000Y-110500000I-1000000J0D01*
G01*
X149250000Y-52500000D02*
X143250000Y-52500000D01*
X149250000Y-48500000D02*
X143250000Y-48500000D01*
X149250000Y-52500000D02*
G75*
G02*
X150250000Y-53500000I0J-1000000D01*
G01*
X142250000Y-53500000D02*
G75*
G02*
X143250000Y-52500000I1000000J0D01*
G01*
X150250000Y-47500000D02*
G75*
G02*
X149250000Y-48500000I-1000000J0D01*
G01*
X143250000Y-48500000D02*
G75*
G02*
X142250000Y-47500000I0J1000000D01*
G01*
X91250000Y-27000000D02*
X87250000Y-27000000D01*
X134250000Y-27000000D02*
X137250000Y-27000000D01*
X159250000Y-27000000D02*
X155250000Y-27000000D01*
X202250000Y-27000000D02*
X205250000Y-27000000D01*
X233250000Y-25000000D02*
G75*
G02*
X233250000Y-27000000I0J-1000000D01*
G01*
X202250000Y-25000000D02*
X233250000Y-25000000D01*
X202250000Y-27000000D02*
G75*
G02*
X202250000Y-25000000I0J1000000D01*
G01*
X196250000Y-25000000D02*
G75*
G02*
X196250000Y-27000000I0J-1000000D01*
G01*
X165250000Y-25000000D02*
X196250000Y-25000000D01*
X165250000Y-27000000D02*
G75*
G02*
X165250000Y-25000000I0J1000000D01*
G01*
X159250000Y-25000000D02*
G75*
G02*
X159250000Y-27000000I0J-1000000D01*
G01*
X134250000Y-25000000D02*
X159250000Y-25000000D01*
X134250000Y-27000000D02*
G75*
G02*
X134250000Y-25000000I0J1000000D01*
G01*
X128250000Y-25000000D02*
G75*
G02*
X128250000Y-27000000I0J-1000000D01*
G01*
X97250000Y-25000000D02*
X128250000Y-25000000D01*
X97250000Y-27000000D02*
G75*
G02*
X97250000Y-25000000I0J1000000D01*
G01*
X239250000Y-27000000D02*
G75*
G02*
X239250000Y-25000000I0J1000000D01*
G01*
X256250000Y-25000000D02*
X239250000Y-25000000D01*
X256250000Y-22250000D02*
X256250000Y-25000000D01*
X77250000Y-22250000D02*
X256250000Y-22250000D01*
X77250000Y-25000000D02*
X77250000Y-22250000D01*
X91250000Y-25000000D02*
X77250000Y-25000000D01*
X91250000Y-25000000D02*
G75*
G02*
X91250000Y-27000000I0J-1000000D01*
G01*
X241250000Y-46500000D02*
G75*
G02*
X240250000Y-45500000I0J1000000D01*
G01*
X243750000Y-45500000D02*
X243750000Y-42500000D01*
X242750000Y-75500000D02*
X241250000Y-75500000D01*
X254250000Y-39000000D02*
G75*
G02*
X255250000Y-40000000I0J-1000000D01*
G01*
X243750000Y-45500000D02*
G75*
G02*
X242750000Y-46500000I-1000000J0D01*
G01*
X242750000Y-41500000D02*
G75*
G02*
X243750000Y-42500000I0J-1000000D01*
G01*
X253250000Y-84000000D02*
G75*
G02*
X254250000Y-83000000I1000000J0D01*
G01*
X219750000Y-46500000D02*
X221250000Y-46500000D01*
X217250000Y-89000000D02*
X217250000Y-93000000D01*
X219250000Y-95000000D02*
X233250000Y-95000000D01*
X255250000Y-82000000D02*
G75*
G02*
X254250000Y-83000000I-1000000J0D01*
G01*
X254250000Y-88000000D02*
G75*
G02*
X255250000Y-89000000I0J-1000000D01*
G01*
X221250000Y-41500000D02*
X219750000Y-41500000D01*
X253250000Y-84000000D02*
X253250000Y-87000000D01*
X255250000Y-93000000D02*
G75*
G02*
X253250000Y-95000000I-2000000J0D01*
G01*
X255250000Y-82000000D02*
X255250000Y-40000000D01*
X219250000Y-38000000D02*
X219250000Y-35000000D01*
X241250000Y-46500000D02*
X242750000Y-46500000D01*
X242750000Y-41500000D02*
X241250000Y-41500000D01*
X253250000Y-27000000D02*
X239250000Y-27000000D01*
X255250000Y-89000000D02*
X255250000Y-93000000D01*
X253250000Y-27000000D02*
G75*
G02*
X255250000Y-29000000I0J-2000000D01*
G01*
X217250000Y-40000000D02*
X217250000Y-47500000D01*
X219250000Y-95000000D02*
G75*
G02*
X217250000Y-93000000I0J2000000D01*
G01*
X217250000Y-33000000D02*
X217250000Y-29000000D01*
X221250000Y-75500000D02*
X219750000Y-75500000D01*
X221250000Y-75500000D02*
G75*
G02*
X222250000Y-76500000I0J-1000000D01*
G01*
X217250000Y-40000000D02*
G75*
G02*
X218250000Y-39000000I1000000J0D01*
G01*
X253250000Y-35000000D02*
X253250000Y-38000000D01*
X254250000Y-88000000D02*
G75*
G02*
X253250000Y-87000000I0J1000000D01*
G01*
X219250000Y-38000000D02*
G75*
G02*
X218250000Y-39000000I-1000000J0D01*
G01*
X218750000Y-42500000D02*
X218750000Y-45500000D01*
X219750000Y-46500000D02*
G75*
G02*
X218750000Y-45500000I0J1000000D01*
G01*
X219250000Y-87000000D02*
G75*
G02*
X218250000Y-88000000I-1000000J0D01*
G01*
X243750000Y-79500000D02*
X243750000Y-76500000D01*
X219750000Y-80500000D02*
G75*
G02*
X218750000Y-79500000I0J1000000D01*
G01*
X255250000Y-33000000D02*
G75*
G02*
X254250000Y-34000000I-1000000J0D01*
G01*
X240250000Y-76500000D02*
X240250000Y-79500000D01*
X222250000Y-79500000D02*
X222250000Y-76500000D01*
X222250000Y-79500000D02*
G75*
G02*
X221250000Y-80500000I-1000000J0D01*
G01*
X241250000Y-80500000D02*
G75*
G02*
X240250000Y-79500000I0J1000000D01*
G01*
X218250000Y-34000000D02*
G75*
G02*
X217250000Y-33000000I0J1000000D01*
G01*
X221250000Y-41500000D02*
G75*
G02*
X222250000Y-42500000I0J-1000000D01*
G01*
X253250000Y-35000000D02*
G75*
G02*
X254250000Y-34000000I1000000J0D01*
G01*
X218250000Y-83000000D02*
G75*
G02*
X217250000Y-82000000I0J1000000D01*
G01*
X218750000Y-76500000D02*
G75*
G02*
X219750000Y-75500000I1000000J0D01*
G01*
X254250000Y-39000000D02*
G75*
G02*
X253250000Y-38000000I0J1000000D01*
G01*
X222250000Y-45500000D02*
X222250000Y-42500000D01*
X240250000Y-42500000D02*
X240250000Y-45500000D01*
X242750000Y-75500000D02*
G75*
G02*
X243750000Y-76500000I0J-1000000D01*
G01*
X217250000Y-89000000D02*
G75*
G02*
X218250000Y-88000000I1000000J0D01*
G01*
X240250000Y-76500000D02*
G75*
G02*
X241250000Y-75500000I1000000J0D01*
G01*
X243750000Y-79500000D02*
G75*
G02*
X242750000Y-80500000I-1000000J0D01*
G01*
X219250000Y-87000000D02*
X219250000Y-84000000D01*
X218750000Y-42500000D02*
G75*
G02*
X219750000Y-41500000I1000000J0D01*
G01*
X218250000Y-34000000D02*
G75*
G02*
X219250000Y-35000000I0J-1000000D01*
G01*
X240250000Y-42500000D02*
G75*
G02*
X241250000Y-41500000I1000000J0D01*
G01*
X218250000Y-83000000D02*
G75*
G02*
X219250000Y-84000000I0J-1000000D01*
G01*
X222250000Y-45500000D02*
G75*
G02*
X221250000Y-46500000I-1000000J0D01*
G01*
X255250000Y-29000000D02*
X255250000Y-33000000D01*
X217250000Y-29000000D02*
G75*
G02*
X219250000Y-27000000I2000000J0D01*
G01*
X233250000Y-27000000D02*
X219250000Y-27000000D01*
X218750000Y-76500000D02*
X218750000Y-79500000D01*
X241250000Y-80500000D02*
X242750000Y-80500000D01*
X219750000Y-80500000D02*
X221250000Y-80500000D01*
X241250000Y-150500000D02*
G75*
G02*
X240250000Y-149500000I0J1000000D01*
G01*
X243750000Y-149500000D02*
X243750000Y-146500000D01*
X242750000Y-179500000D02*
X241250000Y-179500000D01*
X254250000Y-143000000D02*
G75*
G02*
X255250000Y-144000000I0J-1000000D01*
G01*
X243750000Y-149500000D02*
G75*
G02*
X242750000Y-150500000I-1000000J0D01*
G01*
X242750000Y-145500000D02*
G75*
G02*
X243750000Y-146500000I0J-1000000D01*
G01*
X253250000Y-188000000D02*
G75*
G02*
X254250000Y-187000000I1000000J0D01*
G01*
X219750000Y-150500000D02*
X221250000Y-150500000D01*
X217250000Y-193000000D02*
X217250000Y-197000000D01*
X219250000Y-199000000D02*
X233250000Y-199000000D01*
X255250000Y-186000000D02*
G75*
G02*
X254250000Y-187000000I-1000000J0D01*
G01*
X254250000Y-192000000D02*
G75*
G02*
X255250000Y-193000000I0J-1000000D01*
G01*
X221250000Y-145500000D02*
X219750000Y-145500000D01*
X253250000Y-188000000D02*
X253250000Y-191000000D01*
X255250000Y-197000000D02*
G75*
G02*
X253250000Y-199000000I-2000000J0D01*
G01*
X255250000Y-186000000D02*
X255250000Y-144000000D01*
X219250000Y-142000000D02*
X219250000Y-139000000D01*
X241250000Y-150500000D02*
X242750000Y-150500000D01*
X242750000Y-145500000D02*
X241250000Y-145500000D01*
X253250000Y-131000000D02*
X239250000Y-131000000D01*
X255250000Y-193000000D02*
X255250000Y-197000000D01*
X253250000Y-131000000D02*
G75*
G02*
X255250000Y-133000000I0J-2000000D01*
G01*
X217250000Y-144000000D02*
X217250000Y-167000000D01*
X219250000Y-199000000D02*
G75*
G02*
X217250000Y-197000000I0J2000000D01*
G01*
X217250000Y-137000000D02*
X217250000Y-133000000D01*
X221250000Y-179500000D02*
X219750000Y-179500000D01*
X221250000Y-179500000D02*
G75*
G02*
X222250000Y-180500000I0J-1000000D01*
G01*
X217250000Y-144000000D02*
G75*
G02*
X218250000Y-143000000I1000000J0D01*
G01*
X253250000Y-139000000D02*
X253250000Y-142000000D01*
X254250000Y-192000000D02*
G75*
G02*
X253250000Y-191000000I0J1000000D01*
G01*
X219250000Y-142000000D02*
G75*
G02*
X218250000Y-143000000I-1000000J0D01*
G01*
X218750000Y-146500000D02*
X218750000Y-149500000D01*
X219750000Y-150500000D02*
G75*
G02*
X218750000Y-149500000I0J1000000D01*
G01*
X219250000Y-191000000D02*
G75*
G02*
X218250000Y-192000000I-1000000J0D01*
G01*
X243750000Y-183500000D02*
X243750000Y-180500000D01*
X219750000Y-184500000D02*
G75*
G02*
X218750000Y-183500000I0J1000000D01*
G01*
X255250000Y-137000000D02*
G75*
G02*
X254250000Y-138000000I-1000000J0D01*
G01*
X240250000Y-180500000D02*
X240250000Y-183500000D01*
X222250000Y-183500000D02*
X222250000Y-180500000D01*
X222250000Y-183500000D02*
G75*
G02*
X221250000Y-184500000I-1000000J0D01*
G01*
X241250000Y-184500000D02*
G75*
G02*
X240250000Y-183500000I0J1000000D01*
G01*
X218250000Y-138000000D02*
G75*
G02*
X217250000Y-137000000I0J1000000D01*
G01*
X221250000Y-145500000D02*
G75*
G02*
X222250000Y-146500000I0J-1000000D01*
G01*
X253250000Y-139000000D02*
G75*
G02*
X254250000Y-138000000I1000000J0D01*
G01*
X218250000Y-187000000D02*
G75*
G02*
X217250000Y-186000000I0J1000000D01*
G01*
X218750000Y-180500000D02*
G75*
G02*
X219750000Y-179500000I1000000J0D01*
G01*
X254250000Y-143000000D02*
G75*
G02*
X253250000Y-142000000I0J1000000D01*
G01*
X222250000Y-149500000D02*
X222250000Y-146500000D01*
X240250000Y-146500000D02*
X240250000Y-149500000D01*
X242750000Y-179500000D02*
G75*
G02*
X243750000Y-180500000I0J-1000000D01*
G01*
X217250000Y-193000000D02*
G75*
G02*
X218250000Y-192000000I1000000J0D01*
G01*
X240250000Y-180500000D02*
G75*
G02*
X241250000Y-179500000I1000000J0D01*
G01*
X243750000Y-183500000D02*
G75*
G02*
X242750000Y-184500000I-1000000J0D01*
G01*
X219250000Y-191000000D02*
X219250000Y-188000000D01*
X218750000Y-146500000D02*
G75*
G02*
X219750000Y-145500000I1000000J0D01*
G01*
X218250000Y-138000000D02*
G75*
G02*
X219250000Y-139000000I0J-1000000D01*
G01*
X240250000Y-146500000D02*
G75*
G02*
X241250000Y-145500000I1000000J0D01*
G01*
X218250000Y-187000000D02*
G75*
G02*
X219250000Y-188000000I0J-1000000D01*
G01*
X222250000Y-149500000D02*
G75*
G02*
X221250000Y-150500000I-1000000J0D01*
G01*
X255250000Y-133000000D02*
X255250000Y-137000000D01*
X217250000Y-133000000D02*
G75*
G02*
X219250000Y-131000000I2000000J0D01*
G01*
X233250000Y-131000000D02*
X219250000Y-131000000D01*
X218750000Y-180500000D02*
X218750000Y-183500000D01*
X241250000Y-184500000D02*
X242750000Y-184500000D01*
X219750000Y-184500000D02*
X221250000Y-184500000D01*
X241250000Y-220500000D02*
G75*
G02*
X240250000Y-219500000I0J1000000D01*
G01*
X243750000Y-219500000D02*
X243750000Y-216500000D01*
X242750000Y-249500000D02*
X241250000Y-249500000D01*
X254250000Y-213000000D02*
G75*
G02*
X255250000Y-214000000I0J-1000000D01*
G01*
X243750000Y-219500000D02*
G75*
G02*
X242750000Y-220500000I-1000000J0D01*
G01*
X242750000Y-215500000D02*
G75*
G02*
X243750000Y-216500000I0J-1000000D01*
G01*
X253250000Y-258000000D02*
G75*
G02*
X254250000Y-257000000I1000000J0D01*
G01*
X219750000Y-220500000D02*
X221250000Y-220500000D01*
X217250000Y-263000000D02*
X217250000Y-267000000D01*
X219250000Y-269000000D02*
X233250000Y-269000000D01*
X255250000Y-256000000D02*
G75*
G02*
X254250000Y-257000000I-1000000J0D01*
G01*
X254250000Y-262000000D02*
G75*
G02*
X255250000Y-263000000I0J-1000000D01*
G01*
X221250000Y-215500000D02*
X219750000Y-215500000D01*
X253250000Y-258000000D02*
X253250000Y-261000000D01*
X255250000Y-267000000D02*
G75*
G02*
X253250000Y-269000000I-2000000J0D01*
G01*
X255250000Y-256000000D02*
X255250000Y-214000000D01*
X219250000Y-212000000D02*
X219250000Y-209000000D01*
X241250000Y-220500000D02*
X242750000Y-220500000D01*
X242750000Y-215500000D02*
X241250000Y-215500000D01*
X253250000Y-201000000D02*
X239250000Y-201000000D01*
X255250000Y-263000000D02*
X255250000Y-267000000D01*
X253250000Y-201000000D02*
G75*
G02*
X255250000Y-203000000I0J-2000000D01*
G01*
X217250000Y-214000000D02*
X217250000Y-249000000D01*
X219250000Y-269000000D02*
G75*
G02*
X217250000Y-267000000I0J2000000D01*
G01*
X217250000Y-207000000D02*
X217250000Y-203000000D01*
X221250000Y-249500000D02*
X219750000Y-249500000D01*
X221250000Y-249500000D02*
G75*
G02*
X222250000Y-250500000I0J-1000000D01*
G01*
X217250000Y-214000000D02*
G75*
G02*
X218250000Y-213000000I1000000J0D01*
G01*
X253250000Y-209000000D02*
X253250000Y-212000000D01*
X254250000Y-262000000D02*
G75*
G02*
X253250000Y-261000000I0J1000000D01*
G01*
X219250000Y-212000000D02*
G75*
G02*
X218250000Y-213000000I-1000000J0D01*
G01*
X218750000Y-216500000D02*
X218750000Y-219500000D01*
X219750000Y-220500000D02*
G75*
G02*
X218750000Y-219500000I0J1000000D01*
G01*
X219250000Y-261000000D02*
G75*
G02*
X218250000Y-262000000I-1000000J0D01*
G01*
X243750000Y-253500000D02*
X243750000Y-250500000D01*
X219750000Y-254500000D02*
G75*
G02*
X218750000Y-253500000I0J1000000D01*
G01*
X255250000Y-207000000D02*
G75*
G02*
X254250000Y-208000000I-1000000J0D01*
G01*
X240250000Y-250500000D02*
X240250000Y-253500000D01*
X222250000Y-253500000D02*
X222250000Y-250500000D01*
X222250000Y-253500000D02*
G75*
G02*
X221250000Y-254500000I-1000000J0D01*
G01*
X241250000Y-254500000D02*
G75*
G02*
X240250000Y-253500000I0J1000000D01*
G01*
X218250000Y-208000000D02*
G75*
G02*
X217250000Y-207000000I0J1000000D01*
G01*
X221250000Y-215500000D02*
G75*
G02*
X222250000Y-216500000I0J-1000000D01*
G01*
X253250000Y-209000000D02*
G75*
G02*
X254250000Y-208000000I1000000J0D01*
G01*
X218250000Y-257000000D02*
G75*
G02*
X217250000Y-256000000I0J1000000D01*
G01*
X218750000Y-250500000D02*
G75*
G02*
X219750000Y-249500000I1000000J0D01*
G01*
X254250000Y-213000000D02*
G75*
G02*
X253250000Y-212000000I0J1000000D01*
G01*
X222250000Y-219500000D02*
X222250000Y-216500000D01*
X240250000Y-216500000D02*
X240250000Y-219500000D01*
X242750000Y-249500000D02*
G75*
G02*
X243750000Y-250500000I0J-1000000D01*
G01*
X217250000Y-263000000D02*
G75*
G02*
X218250000Y-262000000I1000000J0D01*
G01*
X240250000Y-250500000D02*
G75*
G02*
X241250000Y-249500000I1000000J0D01*
G01*
X243750000Y-253500000D02*
G75*
G02*
X242750000Y-254500000I-1000000J0D01*
G01*
X219250000Y-261000000D02*
X219250000Y-258000000D01*
X218750000Y-216500000D02*
G75*
G02*
X219750000Y-215500000I1000000J0D01*
G01*
X218250000Y-208000000D02*
G75*
G02*
X219250000Y-209000000I0J-1000000D01*
G01*
X240250000Y-216500000D02*
G75*
G02*
X241250000Y-215500000I1000000J0D01*
G01*
X218250000Y-257000000D02*
G75*
G02*
X219250000Y-258000000I0J-1000000D01*
G01*
X222250000Y-219500000D02*
G75*
G02*
X221250000Y-220500000I-1000000J0D01*
G01*
X255250000Y-203000000D02*
X255250000Y-207000000D01*
X217250000Y-203000000D02*
G75*
G02*
X219250000Y-201000000I2000000J0D01*
G01*
X233250000Y-201000000D02*
X219250000Y-201000000D01*
X218750000Y-250500000D02*
X218750000Y-253500000D01*
X241250000Y-254500000D02*
X242750000Y-254500000D01*
X219750000Y-254500000D02*
X221250000Y-254500000D01*
X195750000Y-255000000D02*
G75*
G02*
X196750000Y-254000000I1000000J0D01*
G01*
X196750000Y-257500000D02*
X199750000Y-257500000D01*
X166750000Y-256500000D02*
X166750000Y-255000000D01*
X203250000Y-268000000D02*
G75*
G02*
X202250000Y-269000000I-1000000J0D01*
G01*
X196750000Y-257500000D02*
G75*
G02*
X195750000Y-256500000I0J1000000D01*
G01*
X200750000Y-256500000D02*
G75*
G02*
X199750000Y-257500000I-1000000J0D01*
G01*
X158250000Y-267000000D02*
G75*
G02*
X159250000Y-268000000I0J-1000000D01*
G01*
X195750000Y-233500000D02*
X195750000Y-235000000D01*
X153250000Y-231000000D02*
X149250000Y-231000000D01*
X147250000Y-248000000D02*
X147250000Y-267000000D01*
X160250000Y-269000000D02*
G75*
G02*
X159250000Y-268000000I0J1000000D01*
G01*
X154250000Y-268000000D02*
G75*
G02*
X153250000Y-269000000I-1000000J0D01*
G01*
X200750000Y-235000000D02*
X200750000Y-233500000D01*
X158250000Y-267000000D02*
X155250000Y-267000000D01*
X149250000Y-269000000D02*
G75*
G02*
X147250000Y-267000000I0J2000000D01*
G01*
X167250000Y-269000000D02*
X195250000Y-269000000D01*
X204250000Y-233000000D02*
X207250000Y-233000000D01*
X195750000Y-255000000D02*
X195750000Y-256500000D01*
X200750000Y-256500000D02*
X200750000Y-255000000D01*
X215250000Y-267000000D02*
X215250000Y-255000000D01*
X153250000Y-269000000D02*
X149250000Y-269000000D01*
X215250000Y-267000000D02*
G75*
G02*
X213250000Y-269000000I-2000000J0D01*
G01*
X188750000Y-231000000D02*
X173750000Y-231000000D01*
X147250000Y-233000000D02*
G75*
G02*
X149250000Y-231000000I2000000J0D01*
G01*
X209250000Y-231000000D02*
X213250000Y-231000000D01*
X166750000Y-235000000D02*
X166750000Y-233500000D01*
X166750000Y-235000000D02*
G75*
G02*
X165750000Y-236000000I-1000000J0D01*
G01*
X202250000Y-231000000D02*
G75*
G02*
X203250000Y-232000000I0J-1000000D01*
G01*
X207250000Y-267000000D02*
X204250000Y-267000000D01*
X154250000Y-268000000D02*
G75*
G02*
X155250000Y-267000000I1000000J0D01*
G01*
X204250000Y-233000000D02*
G75*
G02*
X203250000Y-232000000I0J1000000D01*
G01*
X199750000Y-232500000D02*
X196750000Y-232500000D01*
X195750000Y-233500000D02*
G75*
G02*
X196750000Y-232500000I1000000J0D01*
G01*
X155250000Y-233000000D02*
G75*
G02*
X154250000Y-232000000I0J1000000D01*
G01*
X162750000Y-257500000D02*
X165750000Y-257500000D01*
X161750000Y-233500000D02*
G75*
G02*
X162750000Y-232500000I1000000J0D01*
G01*
X209250000Y-269000000D02*
G75*
G02*
X208250000Y-268000000I0J1000000D01*
G01*
X165750000Y-254000000D02*
X162750000Y-254000000D01*
X162750000Y-236000000D02*
X165750000Y-236000000D01*
X162750000Y-236000000D02*
G75*
G02*
X161750000Y-235000000I0J1000000D01*
G01*
X161750000Y-255000000D02*
G75*
G02*
X162750000Y-254000000I1000000J0D01*
G01*
X208250000Y-232000000D02*
G75*
G02*
X209250000Y-231000000I1000000J0D01*
G01*
X200750000Y-235000000D02*
G75*
G02*
X199750000Y-236000000I-1000000J0D01*
G01*
X207250000Y-267000000D02*
G75*
G02*
X208250000Y-268000000I0J-1000000D01*
G01*
X159250000Y-232000000D02*
G75*
G02*
X160250000Y-231000000I1000000J0D01*
G01*
X165750000Y-232500000D02*
G75*
G02*
X166750000Y-233500000I0J-1000000D01*
G01*
X203250000Y-268000000D02*
G75*
G02*
X204250000Y-267000000I1000000J0D01*
G01*
X196750000Y-236000000D02*
X199750000Y-236000000D01*
X199750000Y-254000000D02*
X196750000Y-254000000D01*
X166750000Y-256500000D02*
G75*
G02*
X165750000Y-257500000I-1000000J0D01*
G01*
X153250000Y-231000000D02*
G75*
G02*
X154250000Y-232000000I0J-1000000D01*
G01*
X165750000Y-254000000D02*
G75*
G02*
X166750000Y-255000000I0J-1000000D01*
G01*
X162750000Y-257500000D02*
G75*
G02*
X161750000Y-256500000I0J1000000D01*
G01*
X155250000Y-233000000D02*
X158250000Y-233000000D01*
X199750000Y-232500000D02*
G75*
G02*
X200750000Y-233500000I0J-1000000D01*
G01*
X208250000Y-232000000D02*
G75*
G02*
X207250000Y-233000000I-1000000J0D01*
G01*
X199750000Y-254000000D02*
G75*
G02*
X200750000Y-255000000I0J-1000000D01*
G01*
X159250000Y-232000000D02*
G75*
G02*
X158250000Y-233000000I-1000000J0D01*
G01*
X196750000Y-236000000D02*
G75*
G02*
X195750000Y-235000000I0J1000000D01*
G01*
X213250000Y-269000000D02*
X209250000Y-269000000D01*
X213250000Y-231000000D02*
G75*
G02*
X215250000Y-233000000I0J-2000000D01*
G01*
X215250000Y-249000000D02*
X215250000Y-233000000D01*
X165750000Y-232500000D02*
X162750000Y-232500000D01*
X161750000Y-255000000D02*
X161750000Y-256500000D01*
X161750000Y-233500000D02*
X161750000Y-235000000D01*
X195750000Y-215000000D02*
G75*
G02*
X196750000Y-214000000I1000000J0D01*
G01*
X196750000Y-217500000D02*
X199750000Y-217500000D01*
X166750000Y-216500000D02*
X166750000Y-215000000D01*
X203250000Y-228000000D02*
G75*
G02*
X202250000Y-229000000I-1000000J0D01*
G01*
X196750000Y-217500000D02*
G75*
G02*
X195750000Y-216500000I0J1000000D01*
G01*
X200750000Y-216500000D02*
G75*
G02*
X199750000Y-217500000I-1000000J0D01*
G01*
X158250000Y-227000000D02*
G75*
G02*
X159250000Y-228000000I0J-1000000D01*
G01*
X195750000Y-193500000D02*
X195750000Y-195000000D01*
X153250000Y-191000000D02*
X149250000Y-191000000D01*
X147250000Y-193000000D02*
X147250000Y-227000000D01*
X160250000Y-229000000D02*
G75*
G02*
X159250000Y-228000000I0J1000000D01*
G01*
X154250000Y-228000000D02*
G75*
G02*
X153250000Y-229000000I-1000000J0D01*
G01*
X200750000Y-195000000D02*
X200750000Y-193500000D01*
X158250000Y-227000000D02*
X155250000Y-227000000D01*
X149250000Y-229000000D02*
G75*
G02*
X147250000Y-227000000I0J2000000D01*
G01*
X173750000Y-229000000D02*
X188750000Y-229000000D01*
X204250000Y-193000000D02*
X207250000Y-193000000D01*
X195750000Y-215000000D02*
X195750000Y-216500000D01*
X200750000Y-216500000D02*
X200750000Y-215000000D01*
X215250000Y-227000000D02*
X215250000Y-214000000D01*
X153250000Y-229000000D02*
X149250000Y-229000000D01*
X215250000Y-227000000D02*
G75*
G02*
X213250000Y-229000000I-2000000J0D01*
G01*
X188750000Y-191000000D02*
X173750000Y-191000000D01*
X147250000Y-193000000D02*
G75*
G02*
X149250000Y-191000000I2000000J0D01*
G01*
X209250000Y-191000000D02*
X213250000Y-191000000D01*
X166750000Y-195000000D02*
X166750000Y-193500000D01*
X166750000Y-195000000D02*
G75*
G02*
X165750000Y-196000000I-1000000J0D01*
G01*
X202250000Y-191000000D02*
G75*
G02*
X203250000Y-192000000I0J-1000000D01*
G01*
X207250000Y-227000000D02*
X204250000Y-227000000D01*
X154250000Y-228000000D02*
G75*
G02*
X155250000Y-227000000I1000000J0D01*
G01*
X204250000Y-193000000D02*
G75*
G02*
X203250000Y-192000000I0J1000000D01*
G01*
X199750000Y-192500000D02*
X196750000Y-192500000D01*
X195750000Y-193500000D02*
G75*
G02*
X196750000Y-192500000I1000000J0D01*
G01*
X155250000Y-193000000D02*
G75*
G02*
X154250000Y-192000000I0J1000000D01*
G01*
X162750000Y-217500000D02*
X165750000Y-217500000D01*
X161750000Y-193500000D02*
G75*
G02*
X162750000Y-192500000I1000000J0D01*
G01*
X209250000Y-229000000D02*
G75*
G02*
X208250000Y-228000000I0J1000000D01*
G01*
X165750000Y-214000000D02*
X162750000Y-214000000D01*
X162750000Y-196000000D02*
X165750000Y-196000000D01*
X162750000Y-196000000D02*
G75*
G02*
X161750000Y-195000000I0J1000000D01*
G01*
X161750000Y-215000000D02*
G75*
G02*
X162750000Y-214000000I1000000J0D01*
G01*
X208250000Y-192000000D02*
G75*
G02*
X209250000Y-191000000I1000000J0D01*
G01*
X200750000Y-195000000D02*
G75*
G02*
X199750000Y-196000000I-1000000J0D01*
G01*
X207250000Y-227000000D02*
G75*
G02*
X208250000Y-228000000I0J-1000000D01*
G01*
X159250000Y-192000000D02*
G75*
G02*
X160250000Y-191000000I1000000J0D01*
G01*
X165750000Y-192500000D02*
G75*
G02*
X166750000Y-193500000I0J-1000000D01*
G01*
X203250000Y-228000000D02*
G75*
G02*
X204250000Y-227000000I1000000J0D01*
G01*
X196750000Y-196000000D02*
X199750000Y-196000000D01*
X199750000Y-214000000D02*
X196750000Y-214000000D01*
X166750000Y-216500000D02*
G75*
G02*
X165750000Y-217500000I-1000000J0D01*
G01*
X153250000Y-191000000D02*
G75*
G02*
X154250000Y-192000000I0J-1000000D01*
G01*
X165750000Y-214000000D02*
G75*
G02*
X166750000Y-215000000I0J-1000000D01*
G01*
X162750000Y-217500000D02*
G75*
G02*
X161750000Y-216500000I0J1000000D01*
G01*
X155250000Y-193000000D02*
X158250000Y-193000000D01*
X199750000Y-192500000D02*
G75*
G02*
X200750000Y-193500000I0J-1000000D01*
G01*
X208250000Y-192000000D02*
G75*
G02*
X207250000Y-193000000I-1000000J0D01*
G01*
X199750000Y-214000000D02*
G75*
G02*
X200750000Y-215000000I0J-1000000D01*
G01*
X159250000Y-192000000D02*
G75*
G02*
X158250000Y-193000000I-1000000J0D01*
G01*
X196750000Y-196000000D02*
G75*
G02*
X195750000Y-195000000I0J1000000D01*
G01*
X213250000Y-229000000D02*
X209250000Y-229000000D01*
X213250000Y-191000000D02*
G75*
G02*
X215250000Y-193000000I0J-2000000D01*
G01*
X215250000Y-214000000D02*
X215250000Y-193000000D01*
X165750000Y-192500000D02*
X162750000Y-192500000D01*
X161750000Y-215000000D02*
X161750000Y-216500000D01*
X161750000Y-193500000D02*
X161750000Y-195000000D01*
X195750000Y-175000000D02*
G75*
G02*
X196750000Y-174000000I1000000J0D01*
G01*
X196750000Y-177500000D02*
X199750000Y-177500000D01*
X166750000Y-176500000D02*
X166750000Y-175000000D01*
X203250000Y-188000000D02*
G75*
G02*
X202250000Y-189000000I-1000000J0D01*
G01*
X196750000Y-177500000D02*
G75*
G02*
X195750000Y-176500000I0J1000000D01*
G01*
X200750000Y-176500000D02*
G75*
G02*
X199750000Y-177500000I-1000000J0D01*
G01*
X158250000Y-187000000D02*
G75*
G02*
X159250000Y-188000000I0J-1000000D01*
G01*
X195750000Y-153500000D02*
X195750000Y-155000000D01*
X153250000Y-151000000D02*
X149250000Y-151000000D01*
X147250000Y-178750000D02*
X147250000Y-187000000D01*
X160250000Y-189000000D02*
G75*
G02*
X159250000Y-188000000I0J1000000D01*
G01*
X154250000Y-188000000D02*
G75*
G02*
X153250000Y-189000000I-1000000J0D01*
G01*
X200750000Y-155000000D02*
X200750000Y-153500000D01*
X158250000Y-187000000D02*
X155250000Y-187000000D01*
X149250000Y-189000000D02*
G75*
G02*
X147250000Y-187000000I0J2000000D01*
G01*
X173750000Y-189000000D02*
X188750000Y-189000000D01*
X204250000Y-153000000D02*
X207250000Y-153000000D01*
X195750000Y-175000000D02*
X195750000Y-176500000D01*
X200750000Y-176500000D02*
X200750000Y-175000000D01*
X215250000Y-187000000D02*
X215250000Y-173000000D01*
X153250000Y-189000000D02*
X149250000Y-189000000D01*
X215250000Y-187000000D02*
G75*
G02*
X213250000Y-189000000I-2000000J0D01*
G01*
X188750000Y-151000000D02*
X173750000Y-151000000D01*
X147250000Y-153000000D02*
G75*
G02*
X149250000Y-151000000I2000000J0D01*
G01*
X209250000Y-151000000D02*
X213250000Y-151000000D01*
X166750000Y-155000000D02*
X166750000Y-153500000D01*
X166750000Y-155000000D02*
G75*
G02*
X165750000Y-156000000I-1000000J0D01*
G01*
X202250000Y-151000000D02*
G75*
G02*
X203250000Y-152000000I0J-1000000D01*
G01*
X207250000Y-187000000D02*
X204250000Y-187000000D01*
X154250000Y-188000000D02*
G75*
G02*
X155250000Y-187000000I1000000J0D01*
G01*
X204250000Y-153000000D02*
G75*
G02*
X203250000Y-152000000I0J1000000D01*
G01*
X199750000Y-152500000D02*
X196750000Y-152500000D01*
X195750000Y-153500000D02*
G75*
G02*
X196750000Y-152500000I1000000J0D01*
G01*
X155250000Y-153000000D02*
G75*
G02*
X154250000Y-152000000I0J1000000D01*
G01*
X162750000Y-177500000D02*
X165750000Y-177500000D01*
X161750000Y-153500000D02*
G75*
G02*
X162750000Y-152500000I1000000J0D01*
G01*
X209250000Y-189000000D02*
G75*
G02*
X208250000Y-188000000I0J1000000D01*
G01*
X165750000Y-174000000D02*
X162750000Y-174000000D01*
X162750000Y-156000000D02*
X165750000Y-156000000D01*
X162750000Y-156000000D02*
G75*
G02*
X161750000Y-155000000I0J1000000D01*
G01*
X161750000Y-175000000D02*
G75*
G02*
X162750000Y-174000000I1000000J0D01*
G01*
X208250000Y-152000000D02*
G75*
G02*
X209250000Y-151000000I1000000J0D01*
G01*
X200750000Y-155000000D02*
G75*
G02*
X199750000Y-156000000I-1000000J0D01*
G01*
X207250000Y-187000000D02*
G75*
G02*
X208250000Y-188000000I0J-1000000D01*
G01*
X159250000Y-152000000D02*
G75*
G02*
X160250000Y-151000000I1000000J0D01*
G01*
X165750000Y-152500000D02*
G75*
G02*
X166750000Y-153500000I0J-1000000D01*
G01*
X203250000Y-188000000D02*
G75*
G02*
X204250000Y-187000000I1000000J0D01*
G01*
X196750000Y-156000000D02*
X199750000Y-156000000D01*
X199750000Y-174000000D02*
X196750000Y-174000000D01*
X166750000Y-176500000D02*
G75*
G02*
X165750000Y-177500000I-1000000J0D01*
G01*
X153250000Y-151000000D02*
G75*
G02*
X154250000Y-152000000I0J-1000000D01*
G01*
X165750000Y-174000000D02*
G75*
G02*
X166750000Y-175000000I0J-1000000D01*
G01*
X162750000Y-177500000D02*
G75*
G02*
X161750000Y-176500000I0J1000000D01*
G01*
X155250000Y-153000000D02*
X158250000Y-153000000D01*
X199750000Y-152500000D02*
G75*
G02*
X200750000Y-153500000I0J-1000000D01*
G01*
X208250000Y-152000000D02*
G75*
G02*
X207250000Y-153000000I-1000000J0D01*
G01*
X199750000Y-174000000D02*
G75*
G02*
X200750000Y-175000000I0J-1000000D01*
G01*
X159250000Y-152000000D02*
G75*
G02*
X158250000Y-153000000I-1000000J0D01*
G01*
X196750000Y-156000000D02*
G75*
G02*
X195750000Y-155000000I0J1000000D01*
G01*
X213250000Y-189000000D02*
X209250000Y-189000000D01*
X213250000Y-151000000D02*
G75*
G02*
X215250000Y-153000000I0J-2000000D01*
G01*
X215250000Y-167000000D02*
X215250000Y-153000000D01*
X165750000Y-152500000D02*
X162750000Y-152500000D01*
X161750000Y-175000000D02*
X161750000Y-176500000D01*
X161750000Y-153500000D02*
X161750000Y-155000000D01*
X150250000Y-36750000D02*
X150250000Y-36500000D01*
X150225063Y-93999999D02*
G75*
G02*
X154750001Y-89000001I5024937J-1D01*
G01*
X150250000Y-139500000D02*
X150250000Y-144000000D01*
X150250000Y-98750000D02*
X150250000Y-98500000D01*
X210250000Y-36500000D02*
X210250000Y-32000000D01*
X150250000Y-132750000D02*
X150250000Y-132500000D01*
X210250000Y-132500000D02*
X210250000Y-132750000D01*
X147250000Y-38750000D02*
G75*
G02*
X148250000Y-37750000I1000000J0D01*
G01*
X149250000Y-76250000D02*
X148250000Y-76250000D01*
X210250000Y-70500000D02*
X210250000Y-70750000D01*
X210250000Y-139250000D02*
G75*
G02*
X211250000Y-138250000I1000000J0D01*
G01*
X150250000Y-98750000D02*
G75*
G02*
X149250000Y-99750000I-1000000J0D01*
G01*
X205250000Y-27000000D02*
G75*
G02*
X210250000Y-32000000I0J-5000000D01*
G01*
X149250000Y-42250000D02*
G75*
G02*
X150250000Y-43250000I0J-1000000D01*
G01*
X213250000Y-100750000D02*
X213250000Y-103250000D01*
X147250000Y-137250000D02*
X147250000Y-134750000D01*
X213250000Y-41250000D02*
G75*
G02*
X212250000Y-42250000I-1000000J0D01*
G01*
X147250000Y-134750000D02*
G75*
G02*
X148250000Y-133750000I1000000J0D01*
G01*
X212250000Y-99750000D02*
G75*
G02*
X213250000Y-100750000I0J-1000000D01*
G01*
X150250000Y-132750000D02*
G75*
G02*
X149250000Y-133750000I-1000000J0D01*
G01*
X147250000Y-75250000D02*
X147250000Y-72750000D01*
X149250000Y-104250000D02*
X148250000Y-104250000D01*
X211250000Y-104250000D02*
X212250000Y-104250000D01*
X213250000Y-134750000D02*
X213250000Y-137250000D01*
X150250000Y-43500000D02*
X150250000Y-43250000D01*
X149250000Y-104250000D02*
G75*
G02*
X150250000Y-105250000I0J-1000000D01*
G01*
X211250000Y-133750000D02*
G75*
G02*
X210250000Y-132750000I0J1000000D01*
G01*
X150250000Y-32000000D02*
X150250000Y-36500000D01*
X148250000Y-76250000D02*
G75*
G02*
X147250000Y-75250000I0J1000000D01*
G01*
X149250000Y-71750000D02*
X148250000Y-71750000D01*
X147250000Y-103250000D02*
X147250000Y-100750000D01*
X211250000Y-99750000D02*
X212250000Y-99750000D01*
X173750000Y-149000000D02*
X188750000Y-149000000D01*
X212250000Y-133750000D02*
G75*
G02*
X213250000Y-134750000I0J-1000000D01*
G01*
X149250000Y-138250000D02*
X148250000Y-138250000D01*
X148250000Y-104250000D02*
G75*
G02*
X147250000Y-103250000I0J1000000D01*
G01*
X150250000Y-70750000D02*
G75*
G02*
X149250000Y-71750000I-1000000J0D01*
G01*
X147250000Y-100750000D02*
G75*
G02*
X148250000Y-99750000I1000000J0D01*
G01*
X150250000Y-43500000D02*
X150250000Y-47500000D01*
X149250000Y-99750000D02*
X148250000Y-99750000D01*
X149250000Y-76250000D02*
G75*
G02*
X150250000Y-77250000I0J-1000000D01*
G01*
X149250000Y-138250000D02*
G75*
G02*
X150250000Y-139250000I0J-1000000D01*
G01*
X210250000Y-43250000D02*
X210250000Y-43500000D01*
X150250000Y-36750000D02*
G75*
G02*
X149250000Y-37750000I-1000000J0D01*
G01*
X147250000Y-72750000D02*
G75*
G02*
X148250000Y-71750000I1000000J0D01*
G01*
X210250000Y-43250000D02*
G75*
G02*
X211250000Y-42250000I1000000J0D01*
G01*
X210250000Y-77250000D02*
X210250000Y-77500000D01*
X150250000Y-70750000D02*
X150250000Y-70500000D01*
X149250000Y-133750000D02*
X148250000Y-133750000D01*
X196250000Y-27000000D02*
X165250000Y-27000000D01*
X211250000Y-37750000D02*
G75*
G02*
X210250000Y-36750000I0J1000000D01*
G01*
X205250000Y-89000000D02*
G75*
G02*
X210250000Y-94000000I0J-5000000D01*
G01*
X210250000Y-98500000D02*
X210250000Y-98750000D01*
X210250000Y-36500000D02*
X210250000Y-36750000D01*
X213250000Y-75250000D02*
G75*
G02*
X212250000Y-76250000I-1000000J0D01*
G01*
X211250000Y-42250000D02*
X212250000Y-42250000D01*
X147250000Y-41250000D02*
X147250000Y-38750000D01*
X149250000Y-37750000D02*
X148250000Y-37750000D01*
X211250000Y-133750000D02*
X212250000Y-133750000D01*
X213250000Y-137250000D02*
G75*
G02*
X212250000Y-138250000I-1000000J0D01*
G01*
X148250000Y-42250000D02*
G75*
G02*
X147250000Y-41250000I0J1000000D01*
G01*
X211250000Y-99750000D02*
G75*
G02*
X210250000Y-98750000I0J1000000D01*
G01*
X212250000Y-71750000D02*
G75*
G02*
X213250000Y-72750000I0J-1000000D01*
G01*
X213250000Y-103250000D02*
G75*
G02*
X212250000Y-104250000I-1000000J0D01*
G01*
X210250000Y-77500000D02*
X210250000Y-82000000D01*
X150250000Y-77500000D02*
X150250000Y-82000000D01*
X210250000Y-77250000D02*
G75*
G02*
X211250000Y-76250000I1000000J0D01*
G01*
X211250000Y-71750000D02*
G75*
G02*
X210250000Y-70750000I0J1000000D01*
G01*
X154264718Y-86901961D02*
X154750000Y-87000000D01*
X150250000Y-32000000D02*
G75*
G02*
X155250000Y-27000000I5000000J0D01*
G01*
X210250000Y-144000000D02*
X210250000Y-139500000D01*
X211250000Y-138250000D02*
X212250000Y-138250000D01*
X173750000Y-89000000D02*
X188750000Y-89000000D01*
X210250000Y-144000000D02*
G75*
G02*
X205250000Y-149000000I-5000000J0D01*
G01*
X173750000Y-87000000D02*
X188750000Y-87000000D01*
X213250000Y-72750000D02*
X213250000Y-75250000D01*
X150250000Y-98500000D02*
X150225063Y-93999999D01*
X210250000Y-43500000D02*
X210250000Y-47500000D01*
X210250000Y-109500000D02*
X210250000Y-105500000D01*
X210250000Y-98500000D02*
X210250000Y-94000000D01*
X150250000Y-132500000D02*
X150250000Y-128500000D01*
X150250000Y-77500000D02*
X150250000Y-77250000D01*
X211250000Y-71750000D02*
X212250000Y-71750000D01*
X154264718Y-86901961D02*
G75*
G02*
X150250000Y-82000000I985282J4901961D01*
G01*
X211250000Y-76250000D02*
X212250000Y-76250000D01*
X210250000Y-139250000D02*
X210250000Y-139500000D01*
X148250000Y-138250000D02*
G75*
G02*
X147250000Y-137250000I0J1000000D01*
G01*
X150250000Y-139500000D02*
X150250000Y-139250000D01*
X212250000Y-37750000D02*
G75*
G02*
X213250000Y-38750000I0J-1000000D01*
G01*
X210250000Y-105250000D02*
G75*
G02*
X211250000Y-104250000I1000000J0D01*
G01*
X210250000Y-105250000D02*
X210250000Y-105500000D01*
X150250000Y-105500000D02*
X150250000Y-105250000D01*
X213250000Y-38750000D02*
X213250000Y-41250000D01*
X155250000Y-149000000D02*
G75*
G02*
X150250000Y-144000000I0J5000000D01*
G01*
X210250000Y-82000000D02*
G75*
G02*
X205250000Y-87000000I-5000000J0D01*
G01*
X149250000Y-42250000D02*
X148250000Y-42250000D01*
X211250000Y-37750000D02*
X212250000Y-37750000D01*
X82250000Y-160750000D02*
X82250000Y-160500000D01*
X82225063Y-217999999D02*
G75*
G02*
X86750001Y-213000001I5024937J-1D01*
G01*
X82250000Y-263500000D02*
X82250000Y-268000000D01*
X82250000Y-222750000D02*
X82250000Y-222500000D01*
X142250000Y-160500000D02*
X142250000Y-156000000D01*
X82250000Y-256750000D02*
X82250000Y-256500000D01*
X142250000Y-256500000D02*
X142250000Y-256750000D01*
X79250000Y-162750000D02*
G75*
G02*
X80250000Y-161750000I1000000J0D01*
G01*
X81250000Y-200250000D02*
X80250000Y-200250000D01*
X142250000Y-194500000D02*
X142250000Y-194750000D01*
X142250000Y-263250000D02*
G75*
G02*
X143250000Y-262250000I1000000J0D01*
G01*
X82250000Y-222750000D02*
G75*
G02*
X81250000Y-223750000I-1000000J0D01*
G01*
X137250000Y-151000000D02*
G75*
G02*
X142250000Y-156000000I0J-5000000D01*
G01*
X81250000Y-166250000D02*
G75*
G02*
X82250000Y-167250000I0J-1000000D01*
G01*
X145250000Y-224750000D02*
X145250000Y-227250000D01*
X79250000Y-261250000D02*
X79250000Y-258750000D01*
X145250000Y-165250000D02*
G75*
G02*
X144250000Y-166250000I-1000000J0D01*
G01*
X79250000Y-258750000D02*
G75*
G02*
X80250000Y-257750000I1000000J0D01*
G01*
X144250000Y-223750000D02*
G75*
G02*
X145250000Y-224750000I0J-1000000D01*
G01*
X82250000Y-256750000D02*
G75*
G02*
X81250000Y-257750000I-1000000J0D01*
G01*
X79250000Y-199250000D02*
X79250000Y-196750000D01*
X81250000Y-228250000D02*
X80250000Y-228250000D01*
X143250000Y-228250000D02*
X144250000Y-228250000D01*
X145250000Y-258750000D02*
X145250000Y-261250000D01*
X82250000Y-167500000D02*
X82250000Y-167250000D01*
X81250000Y-228250000D02*
G75*
G02*
X82250000Y-229250000I0J-1000000D01*
G01*
X143250000Y-257750000D02*
G75*
G02*
X142250000Y-256750000I0J1000000D01*
G01*
X82250000Y-156000000D02*
X82250000Y-160500000D01*
X80250000Y-200250000D02*
G75*
G02*
X79250000Y-199250000I0J1000000D01*
G01*
X81250000Y-195750000D02*
X80250000Y-195750000D01*
X79250000Y-227250000D02*
X79250000Y-224750000D01*
X143250000Y-223750000D02*
X144250000Y-223750000D01*
X87250000Y-273000000D02*
X137250000Y-273000000D01*
X144250000Y-257750000D02*
G75*
G02*
X145250000Y-258750000I0J-1000000D01*
G01*
X81250000Y-262250000D02*
X80250000Y-262250000D01*
X80250000Y-228250000D02*
G75*
G02*
X79250000Y-227250000I0J1000000D01*
G01*
X82250000Y-194750000D02*
G75*
G02*
X81250000Y-195750000I-1000000J0D01*
G01*
X79250000Y-224750000D02*
G75*
G02*
X80250000Y-223750000I1000000J0D01*
G01*
X82250000Y-167500000D02*
X82250000Y-194500000D01*
X81250000Y-223750000D02*
X80250000Y-223750000D01*
X81250000Y-200250000D02*
G75*
G02*
X82250000Y-201250000I0J-1000000D01*
G01*
X81250000Y-262250000D02*
G75*
G02*
X82250000Y-263250000I0J-1000000D01*
G01*
X142250000Y-167250000D02*
X142250000Y-167500000D01*
X82250000Y-160750000D02*
G75*
G02*
X81250000Y-161750000I-1000000J0D01*
G01*
X79250000Y-196750000D02*
G75*
G02*
X80250000Y-195750000I1000000J0D01*
G01*
X142250000Y-167250000D02*
G75*
G02*
X143250000Y-166250000I1000000J0D01*
G01*
X142250000Y-201250000D02*
X142250000Y-201500000D01*
X82250000Y-194750000D02*
X82250000Y-194500000D01*
X81250000Y-257750000D02*
X80250000Y-257750000D01*
X127250000Y-151000000D02*
X97250000Y-151000000D01*
X143250000Y-161750000D02*
G75*
G02*
X142250000Y-160750000I0J1000000D01*
G01*
X137250000Y-213000000D02*
G75*
G02*
X142250000Y-218000000I0J-5000000D01*
G01*
X142250000Y-222500000D02*
X142250000Y-222750000D01*
X142250000Y-160500000D02*
X142250000Y-160750000D01*
X145250000Y-199250000D02*
G75*
G02*
X144250000Y-200250000I-1000000J0D01*
G01*
X143250000Y-166250000D02*
X144250000Y-166250000D01*
X79250000Y-165250000D02*
X79250000Y-162750000D01*
X81250000Y-161750000D02*
X80250000Y-161750000D01*
X143250000Y-257750000D02*
X144250000Y-257750000D01*
X145250000Y-261250000D02*
G75*
G02*
X144250000Y-262250000I-1000000J0D01*
G01*
X80250000Y-166250000D02*
G75*
G02*
X79250000Y-165250000I0J1000000D01*
G01*
X143250000Y-223750000D02*
G75*
G02*
X142250000Y-222750000I0J1000000D01*
G01*
X144250000Y-195750000D02*
G75*
G02*
X145250000Y-196750000I0J-1000000D01*
G01*
X145250000Y-227250000D02*
G75*
G02*
X144250000Y-228250000I-1000000J0D01*
G01*
X142250000Y-201500000D02*
X142250000Y-206000000D01*
X82250000Y-201500000D02*
X82250000Y-206000000D01*
X142250000Y-201250000D02*
G75*
G02*
X143250000Y-200250000I1000000J0D01*
G01*
X143250000Y-195750000D02*
G75*
G02*
X142250000Y-194750000I0J1000000D01*
G01*
X86264718Y-210901961D02*
X86750000Y-211000000D01*
X82250000Y-156000000D02*
G75*
G02*
X87250000Y-151000000I5000000J0D01*
G01*
X142250000Y-268000000D02*
X142250000Y-263500000D01*
X143250000Y-262250000D02*
X144250000Y-262250000D01*
X97250000Y-213000000D02*
X127250000Y-213000000D01*
X142250000Y-268000000D02*
G75*
G02*
X137250000Y-273000000I-5000000J0D01*
G01*
X97250000Y-211000000D02*
X127250000Y-211000000D01*
X145250000Y-196750000D02*
X145250000Y-199250000D01*
X82250000Y-222500000D02*
X82225063Y-217999999D01*
X142250000Y-178750000D02*
X142250000Y-194500000D01*
X142250000Y-256500000D02*
X142250000Y-248000000D01*
X142250000Y-222500000D02*
X142250000Y-218000000D01*
X82250000Y-256500000D02*
X82250000Y-229500000D01*
X82250000Y-201500000D02*
X82250000Y-201250000D01*
X143250000Y-195750000D02*
X144250000Y-195750000D01*
X86264718Y-210901961D02*
G75*
G02*
X82250000Y-206000000I985282J4901961D01*
G01*
X143250000Y-200250000D02*
X144250000Y-200250000D01*
X142250000Y-263250000D02*
X142250000Y-263500000D01*
X80250000Y-262250000D02*
G75*
G02*
X79250000Y-261250000I0J1000000D01*
G01*
X82250000Y-263500000D02*
X82250000Y-263250000D01*
X144250000Y-161750000D02*
G75*
G02*
X145250000Y-162750000I0J-1000000D01*
G01*
X142250000Y-229250000D02*
G75*
G02*
X143250000Y-228250000I1000000J0D01*
G01*
X142250000Y-229250000D02*
X142250000Y-229500000D01*
X82250000Y-229500000D02*
X82250000Y-229250000D01*
X145250000Y-162750000D02*
X145250000Y-165250000D01*
X87250000Y-273000000D02*
G75*
G02*
X82250000Y-268000000I0J5000000D01*
G01*
X142250000Y-206000000D02*
G75*
G02*
X137250000Y-211000000I-5000000J0D01*
G01*
X81250000Y-166250000D02*
X80250000Y-166250000D01*
X143250000Y-161750000D02*
X144250000Y-161750000D01*
X82250000Y-36750000D02*
X82250000Y-36500000D01*
X82225063Y-93999999D02*
G75*
G02*
X86750001Y-89000001I5024937J-1D01*
G01*
X82250000Y-139500000D02*
X82250000Y-144000000D01*
X82250000Y-98750000D02*
X82250000Y-98500000D01*
X142250000Y-36500000D02*
X142250000Y-32000000D01*
X82250000Y-132750000D02*
X82250000Y-132500000D01*
X142250000Y-132500000D02*
X142250000Y-132750000D01*
X79250000Y-38750000D02*
G75*
G02*
X80250000Y-37750000I1000000J0D01*
G01*
X81250000Y-76250000D02*
X80250000Y-76250000D01*
X142250000Y-70500000D02*
X142250000Y-70750000D01*
X142250000Y-139250000D02*
G75*
G02*
X143250000Y-138250000I1000000J0D01*
G01*
X82250000Y-98750000D02*
G75*
G02*
X81250000Y-99750000I-1000000J0D01*
G01*
X137250000Y-27000000D02*
G75*
G02*
X142250000Y-32000000I0J-5000000D01*
G01*
X81250000Y-42250000D02*
G75*
G02*
X82250000Y-43250000I0J-1000000D01*
G01*
X145250000Y-100750000D02*
X145250000Y-103250000D01*
X79250000Y-137250000D02*
X79250000Y-134750000D01*
X145250000Y-41250000D02*
G75*
G02*
X144250000Y-42250000I-1000000J0D01*
G01*
X79250000Y-134750000D02*
G75*
G02*
X80250000Y-133750000I1000000J0D01*
G01*
X144250000Y-99750000D02*
G75*
G02*
X145250000Y-100750000I0J-1000000D01*
G01*
X82250000Y-132750000D02*
G75*
G02*
X81250000Y-133750000I-1000000J0D01*
G01*
X79250000Y-75250000D02*
X79250000Y-72750000D01*
X81250000Y-104250000D02*
X80250000Y-104250000D01*
X143250000Y-104250000D02*
X144250000Y-104250000D01*
X145250000Y-134750000D02*
X145250000Y-137250000D01*
X82250000Y-43500000D02*
X82250000Y-43250000D01*
X81250000Y-104250000D02*
G75*
G02*
X82250000Y-105250000I0J-1000000D01*
G01*
X143250000Y-133750000D02*
G75*
G02*
X142250000Y-132750000I0J1000000D01*
G01*
X82250000Y-32000000D02*
X82250000Y-36500000D01*
X80250000Y-76250000D02*
G75*
G02*
X79250000Y-75250000I0J1000000D01*
G01*
X81250000Y-71750000D02*
X80250000Y-71750000D01*
X79250000Y-103250000D02*
X79250000Y-100750000D01*
X143250000Y-99750000D02*
X144250000Y-99750000D01*
X97250000Y-149000000D02*
X127250000Y-149000000D01*
X144250000Y-133750000D02*
G75*
G02*
X145250000Y-134750000I0J-1000000D01*
G01*
X81250000Y-138250000D02*
X80250000Y-138250000D01*
X80250000Y-104250000D02*
G75*
G02*
X79250000Y-103250000I0J1000000D01*
G01*
X82250000Y-70750000D02*
G75*
G02*
X81250000Y-71750000I-1000000J0D01*
G01*
X79250000Y-100750000D02*
G75*
G02*
X80250000Y-99750000I1000000J0D01*
G01*
X82250000Y-43500000D02*
X82250000Y-70500000D01*
X81250000Y-99750000D02*
X80250000Y-99750000D01*
X81250000Y-76250000D02*
G75*
G02*
X82250000Y-77250000I0J-1000000D01*
G01*
X81250000Y-138250000D02*
G75*
G02*
X82250000Y-139250000I0J-1000000D01*
G01*
X142250000Y-43250000D02*
X142250000Y-43500000D01*
X82250000Y-36750000D02*
G75*
G02*
X81250000Y-37750000I-1000000J0D01*
G01*
X79250000Y-72750000D02*
G75*
G02*
X80250000Y-71750000I1000000J0D01*
G01*
X142250000Y-43250000D02*
G75*
G02*
X143250000Y-42250000I1000000J0D01*
G01*
X142250000Y-77250000D02*
X142250000Y-77500000D01*
X82250000Y-70750000D02*
X82250000Y-70500000D01*
X81250000Y-133750000D02*
X80250000Y-133750000D01*
X128250000Y-27000000D02*
X97250000Y-27000000D01*
X143250000Y-37750000D02*
G75*
G02*
X142250000Y-36750000I0J1000000D01*
G01*
X137250000Y-89000000D02*
G75*
G02*
X142250000Y-94000000I0J-5000000D01*
G01*
X142250000Y-98500000D02*
X142250000Y-98750000D01*
X142250000Y-36500000D02*
X142250000Y-36750000D01*
X145250000Y-75250000D02*
G75*
G02*
X144250000Y-76250000I-1000000J0D01*
G01*
X143250000Y-42250000D02*
X144250000Y-42250000D01*
X79250000Y-41250000D02*
X79250000Y-38750000D01*
X81250000Y-37750000D02*
X80250000Y-37750000D01*
X143250000Y-133750000D02*
X144250000Y-133750000D01*
X145250000Y-137250000D02*
G75*
G02*
X144250000Y-138250000I-1000000J0D01*
G01*
X80250000Y-42250000D02*
G75*
G02*
X79250000Y-41250000I0J1000000D01*
G01*
X143250000Y-99750000D02*
G75*
G02*
X142250000Y-98750000I0J1000000D01*
G01*
X144250000Y-71750000D02*
G75*
G02*
X145250000Y-72750000I0J-1000000D01*
G01*
X145250000Y-103250000D02*
G75*
G02*
X144250000Y-104250000I-1000000J0D01*
G01*
X142250000Y-77500000D02*
X142250000Y-82000000D01*
X82250000Y-77500000D02*
X82250000Y-82000000D01*
X142250000Y-77250000D02*
G75*
G02*
X143250000Y-76250000I1000000J0D01*
G01*
X143250000Y-71750000D02*
G75*
G02*
X142250000Y-70750000I0J1000000D01*
G01*
X86264718Y-86901961D02*
X86750000Y-87000000D01*
X82250000Y-32000000D02*
G75*
G02*
X87250000Y-27000000I5000000J0D01*
G01*
X142250000Y-144000000D02*
X142250000Y-139500000D01*
X143250000Y-138250000D02*
X144250000Y-138250000D01*
X97250000Y-89000000D02*
X127250000Y-89000000D01*
X142250000Y-144000000D02*
G75*
G02*
X137250000Y-149000000I-5000000J0D01*
G01*
X97250000Y-87000000D02*
X127250000Y-87000000D01*
X145250000Y-72750000D02*
X145250000Y-75250000D01*
X82250000Y-98500000D02*
X82225063Y-93999999D01*
X142250000Y-43500000D02*
X142250000Y-47500000D01*
X142250000Y-132500000D02*
X142250000Y-128500000D01*
X142250000Y-98500000D02*
X142250000Y-94000000D01*
X82250000Y-132500000D02*
X82250000Y-105500000D01*
X82250000Y-77500000D02*
X82250000Y-77250000D01*
X143250000Y-71750000D02*
X144250000Y-71750000D01*
X86264718Y-86901961D02*
G75*
G02*
X82250000Y-82000000I985282J4901961D01*
G01*
X143250000Y-76250000D02*
X144250000Y-76250000D01*
X142250000Y-139250000D02*
X142250000Y-139500000D01*
X80250000Y-138250000D02*
G75*
G02*
X79250000Y-137250000I0J1000000D01*
G01*
X82250000Y-139500000D02*
X82250000Y-139250000D01*
X144250000Y-37750000D02*
G75*
G02*
X145250000Y-38750000I0J-1000000D01*
G01*
X142250000Y-105250000D02*
G75*
G02*
X143250000Y-104250000I1000000J0D01*
G01*
X142250000Y-105250000D02*
X142250000Y-105500000D01*
X82250000Y-105500000D02*
X82250000Y-105250000D01*
X145250000Y-38750000D02*
X145250000Y-41250000D01*
X87250000Y-149000000D02*
G75*
G02*
X82250000Y-144000000I0J5000000D01*
G01*
X142250000Y-82000000D02*
G75*
G02*
X137250000Y-87000000I-5000000J0D01*
G01*
X81250000Y-42250000D02*
X80250000Y-42250000D01*
X143250000Y-37750000D02*
X144250000Y-37750000D01*
M02*
