%TF.GenerationSoftware,KiCad,Pcbnew,5.1.7-1.fc32*%
%TF.CreationDate,2020-11-03T14:01:07+02:00*%
%TF.ProjectId,panel,70616e65-6c2e-46b6-9963-61645f706362,Rev. A*%
%TF.SameCoordinates,Original*%
%TF.FileFunction,Other,ECO1*%
%FSLAX46Y46*%
G04 Gerber Fmt 4.6, Leading zero omitted, Abs format (unit mm)*
G04 Created by KiCad (PCBNEW 5.1.7-1.fc32) date 2020-11-03 14:01:07*
%MOMM*%
%LPD*%
G01*
G04 APERTURE LIST*
%ADD10C,2.000000*%
G04 APERTURE END LIST*
D10*
X253250000Y-270000000D02*
X256250000Y-270000000D01*
X149250000Y-270000000D02*
X143250000Y-270000000D01*
X253500000Y-130000000D02*
X256250000Y-130000000D01*
X253250000Y-96000000D02*
X256250000Y-96000000D01*
X219250000Y-96000000D02*
X216250000Y-96000000D01*
X219250000Y-130000000D02*
X216250000Y-130000000D01*
X81250000Y-206000000D02*
X81250000Y-201250000D01*
X81250000Y-105250000D02*
X81250000Y-132750000D01*
X232250000Y-270000000D02*
X219250000Y-270000000D01*
X253250000Y-270000000D02*
X240250000Y-270000000D01*
X233250000Y-200000000D02*
X219250000Y-200000000D01*
X239250000Y-200000000D02*
X253250000Y-200000000D01*
X143208351Y-268041649D02*
X143208351Y-277250000D01*
X194250000Y-270000000D02*
X168250000Y-270000000D01*
X143208351Y-268041649D02*
X143250000Y-263250000D01*
X87250000Y-26000000D02*
X77250000Y-26000000D01*
X89250000Y-274000000D02*
X87208351Y-273958351D01*
X137250000Y-274000000D02*
X89250000Y-274000000D01*
X205291649Y-26041649D02*
X219250000Y-26000000D01*
X135250000Y-26000000D02*
X158250000Y-26000000D01*
X240250000Y-26000000D02*
X253250000Y-26000000D01*
X232250000Y-26000000D02*
X219250000Y-26000000D01*
X203250000Y-26000000D02*
X205291649Y-26041649D01*
X166250000Y-26000000D02*
X195250000Y-26000000D01*
X158250000Y-26000000D02*
X155250000Y-26000000D01*
X135250000Y-26000000D02*
X137291649Y-26041649D01*
X90250000Y-26000000D02*
X87250000Y-26000000D01*
X127250000Y-26000000D02*
X98250000Y-26000000D01*
X256250000Y-82000000D02*
X256250000Y-40000000D01*
X256250000Y-186000000D02*
X256250000Y-144000000D01*
X256250000Y-197000000D02*
X256250000Y-193000000D01*
X256250000Y-207000000D02*
X256250000Y-203000000D01*
X256250000Y-256000000D02*
X256250000Y-214000000D01*
X256250000Y-267000000D02*
X256250000Y-263000000D01*
X209250000Y-270000000D02*
X213250000Y-270000000D01*
X149250000Y-270000000D02*
X153250000Y-270000000D01*
X81250000Y-256750000D02*
X81250000Y-229250000D01*
X81250000Y-194750000D02*
X81250000Y-167250000D01*
X81250000Y-160750000D02*
X81291649Y-155958351D01*
X81250000Y-139250000D02*
X81250000Y-144000000D01*
X81250000Y-36750000D02*
X81291649Y-31958351D01*
X81250000Y-70750000D02*
X81250000Y-43250000D01*
X146250000Y-267000000D02*
X146250000Y-261250000D01*
X146250000Y-248000000D02*
X146250000Y-258750000D01*
X143250000Y-248000000D02*
X143250000Y-256750000D01*
X143250000Y-242000000D02*
X143250000Y-229250000D01*
X146250000Y-233000000D02*
X146250000Y-242000000D01*
X149250000Y-230000000D02*
X153250000Y-230000000D01*
X143250000Y-178750000D02*
X143250000Y-194750000D01*
X146250000Y-178750000D02*
X146250000Y-187000000D01*
X146250000Y-172750000D02*
X146250000Y-165250000D01*
X143250000Y-172750000D02*
X143250000Y-167250000D01*
X216250000Y-137000000D02*
X216250000Y-133000000D01*
X216250000Y-144000000D02*
X216250000Y-153000000D01*
X216250000Y-227000000D02*
X216250000Y-233000000D01*
X216250000Y-263000000D02*
X216250000Y-267000000D01*
X216250000Y-256000000D02*
X216250000Y-263000000D01*
X146250000Y-199250000D02*
X146250000Y-224750000D01*
X146250000Y-193000000D02*
X146250000Y-196750000D01*
X216250000Y-203000000D02*
X216250000Y-193000000D01*
X216250000Y-207000000D02*
X216250000Y-203000000D01*
X216250000Y-215000000D02*
X216250000Y-207000000D01*
X216250000Y-227000000D02*
X216250000Y-221000000D01*
X216250000Y-249000000D02*
X216250000Y-233000000D01*
X216250000Y-255000000D02*
X216250000Y-256000000D01*
X216250000Y-214000000D02*
X216250000Y-215000000D01*
X209250000Y-230000000D02*
X213250000Y-230000000D01*
X201250000Y-230000000D02*
X202250000Y-230000000D01*
X195250000Y-230000000D02*
X167250000Y-230000000D01*
X161250000Y-230000000D02*
X160250000Y-230000000D01*
X201250000Y-190000000D02*
X202250000Y-190000000D01*
X167250000Y-190000000D02*
X195250000Y-190000000D01*
X161250000Y-190000000D02*
X160250000Y-190000000D01*
X216250000Y-173000000D02*
X216250000Y-186000000D01*
X216250000Y-167000000D02*
X216250000Y-153000000D01*
X216250000Y-82000000D02*
X216250000Y-60000000D01*
X216250000Y-122000000D02*
X216250000Y-133000000D01*
X211250000Y-132750000D02*
X211250000Y-122000000D01*
X211250000Y-105250000D02*
X211250000Y-116000000D01*
X216250000Y-116000000D02*
X216250000Y-93000000D01*
X256250000Y-29000000D02*
X256250000Y-33000000D01*
X216250000Y-33000000D02*
X216250000Y-29000000D01*
X211250000Y-70750000D02*
X211250000Y-60000000D01*
X211250000Y-43250000D02*
X211250000Y-54000000D01*
X216250000Y-40000000D02*
X216250000Y-54000000D01*
X256250000Y-133000000D02*
X256250000Y-137000000D01*
X240250000Y-130000000D02*
X253250000Y-130000000D01*
X232250000Y-130000000D02*
X219250000Y-130000000D01*
X216250000Y-93000000D02*
X216250000Y-89000000D01*
X232250000Y-96000000D02*
X219250000Y-96000000D01*
X209250000Y-190000000D02*
X213250000Y-190000000D01*
X149250000Y-190000000D02*
X153250000Y-190000000D01*
X146250000Y-153000000D02*
X146250000Y-162750000D01*
X149250000Y-150000000D02*
X153250000Y-150000000D01*
X213250000Y-150000000D02*
X209250000Y-150000000D01*
X213250000Y-150000000D02*
G75*
G02*
X216250000Y-153000000I0J-3000000D01*
G01*
X216250000Y-187000000D02*
G75*
G02*
X213250000Y-190000000I-3000000J0D01*
G01*
X146250000Y-153000000D02*
G75*
G02*
X149250000Y-150000000I3000000J0D01*
G01*
X149250000Y-190000000D02*
G75*
G02*
X146250000Y-187000000I0J3000000D01*
G01*
X213250000Y-190000000D02*
G75*
G02*
X216250000Y-193000000I0J-3000000D01*
G01*
X216250000Y-227000000D02*
G75*
G02*
X213250000Y-230000000I-3000000J0D01*
G01*
X146250000Y-193000000D02*
G75*
G02*
X149250000Y-190000000I3000000J0D01*
G01*
X149250000Y-230000000D02*
G75*
G02*
X146250000Y-227000000I0J3000000D01*
G01*
X213250000Y-230000000D02*
G75*
G02*
X216250000Y-233000000I0J-3000000D01*
G01*
X216250000Y-267000000D02*
G75*
G02*
X213250000Y-270000000I-3000000J0D01*
G01*
X146250000Y-233000000D02*
G75*
G02*
X149250000Y-230000000I3000000J0D01*
G01*
X149250000Y-270000000D02*
G75*
G02*
X146250000Y-267000000I0J3000000D01*
G01*
X256250000Y-267000000D02*
G75*
G02*
X253250000Y-270000000I-3000000J0D01*
G01*
X219250000Y-270000000D02*
G75*
G02*
X216250000Y-267000000I0J3000000D01*
G01*
X253250000Y-200000000D02*
G75*
G02*
X256250000Y-203000000I0J-3000000D01*
G01*
X216250000Y-203000000D02*
G75*
G02*
X219250000Y-200000000I3000000J0D01*
G01*
X256250000Y-197000000D02*
G75*
G02*
X253250000Y-200000000I-3000000J0D01*
G01*
X219250000Y-200000000D02*
G75*
G02*
X216250000Y-197000000I0J3000000D01*
G01*
X253250000Y-130000000D02*
G75*
G02*
X256250000Y-133000000I0J-3000000D01*
G01*
X216250000Y-133000000D02*
G75*
G02*
X219250000Y-130000000I3000000J0D01*
G01*
X253250000Y-26000000D02*
G75*
G02*
X256250000Y-29000000I0J-3000000D01*
G01*
X216250000Y-29000000D02*
G75*
G02*
X219250000Y-26000000I3000000J0D01*
G01*
X219250000Y-96000000D02*
G75*
G02*
X216250000Y-93000000I0J3000000D01*
G01*
X253250000Y-96000000D02*
X240250000Y-96000000D01*
X256250000Y-89000000D02*
X256250000Y-93000000D01*
X256250000Y-93000000D02*
G75*
G02*
X253250000Y-96000000I-3000000J0D01*
G01*
X207250000Y-232000000D02*
G75*
G02*
X209250000Y-230000000I2000000J0D01*
G01*
X162750000Y-256500000D02*
X162750000Y-255000000D01*
X199750000Y-256500000D02*
X196750000Y-256500000D01*
X162750000Y-233500000D02*
X165750000Y-233500000D01*
X196750000Y-233500000D02*
X199750000Y-233500000D01*
X162750000Y-255000000D02*
X165750000Y-255000000D01*
X158250000Y-232000000D02*
X155250000Y-232000000D01*
X199750000Y-255000000D02*
X199750000Y-256500000D01*
X196750000Y-256500000D02*
X196750000Y-255000000D01*
X165750000Y-255000000D02*
X165750000Y-256500000D01*
X207250000Y-232000000D02*
X204250000Y-232000000D01*
X160250000Y-270000000D02*
G75*
G02*
X158250000Y-268000000I0J2000000D01*
G01*
X155250000Y-268000000D02*
X158250000Y-268000000D01*
X202250000Y-230000000D02*
G75*
G02*
X204250000Y-232000000I0J-2000000D01*
G01*
X165750000Y-235000000D02*
X162750000Y-235000000D01*
X199750000Y-235000000D02*
X196750000Y-235000000D01*
X165750000Y-256500000D02*
X162750000Y-256500000D01*
X153250000Y-230000000D02*
G75*
G02*
X155250000Y-232000000I0J-2000000D01*
G01*
X199750000Y-233500000D02*
X199750000Y-235000000D01*
X209250000Y-270000000D02*
G75*
G02*
X207250000Y-268000000I0J2000000D01*
G01*
X204250000Y-268000000D02*
X207250000Y-268000000D01*
X158250000Y-232000000D02*
G75*
G02*
X160250000Y-230000000I2000000J0D01*
G01*
X162750000Y-235000000D02*
X162750000Y-233500000D01*
X196750000Y-255000000D02*
X199750000Y-255000000D01*
X196750000Y-235000000D02*
X196750000Y-233500000D01*
X165750000Y-233500000D02*
X165750000Y-235000000D01*
X155250000Y-268000000D02*
G75*
G02*
X153250000Y-270000000I-2000000J0D01*
G01*
X204250000Y-268000000D02*
G75*
G02*
X202250000Y-270000000I-2000000J0D01*
G01*
X207250000Y-192000000D02*
G75*
G02*
X209250000Y-190000000I2000000J0D01*
G01*
X162750000Y-216500000D02*
X162750000Y-215000000D01*
X199750000Y-216500000D02*
X196750000Y-216500000D01*
X162750000Y-193500000D02*
X165750000Y-193500000D01*
X196750000Y-193500000D02*
X199750000Y-193500000D01*
X162750000Y-215000000D02*
X165750000Y-215000000D01*
X158250000Y-192000000D02*
X155250000Y-192000000D01*
X199750000Y-215000000D02*
X199750000Y-216500000D01*
X196750000Y-216500000D02*
X196750000Y-215000000D01*
X165750000Y-215000000D02*
X165750000Y-216500000D01*
X207250000Y-192000000D02*
X204250000Y-192000000D01*
X160250000Y-230000000D02*
G75*
G02*
X158250000Y-228000000I0J2000000D01*
G01*
X155250000Y-228000000D02*
X158250000Y-228000000D01*
X202250000Y-190000000D02*
G75*
G02*
X204250000Y-192000000I0J-2000000D01*
G01*
X165750000Y-195000000D02*
X162750000Y-195000000D01*
X199750000Y-195000000D02*
X196750000Y-195000000D01*
X165750000Y-216500000D02*
X162750000Y-216500000D01*
X153250000Y-190000000D02*
G75*
G02*
X155250000Y-192000000I0J-2000000D01*
G01*
X199750000Y-193500000D02*
X199750000Y-195000000D01*
X209250000Y-230000000D02*
G75*
G02*
X207250000Y-228000000I0J2000000D01*
G01*
X204250000Y-228000000D02*
X207250000Y-228000000D01*
X158250000Y-192000000D02*
G75*
G02*
X160250000Y-190000000I2000000J0D01*
G01*
X162750000Y-195000000D02*
X162750000Y-193500000D01*
X196750000Y-215000000D02*
X199750000Y-215000000D01*
X196750000Y-195000000D02*
X196750000Y-193500000D01*
X165750000Y-193500000D02*
X165750000Y-195000000D01*
X155250000Y-228000000D02*
G75*
G02*
X153250000Y-230000000I-2000000J0D01*
G01*
X204250000Y-228000000D02*
G75*
G02*
X202250000Y-230000000I-2000000J0D01*
G01*
X207250000Y-152000000D02*
G75*
G02*
X209250000Y-150000000I2000000J0D01*
G01*
X162750000Y-176500000D02*
X162750000Y-175000000D01*
X199750000Y-176500000D02*
X196750000Y-176500000D01*
X162750000Y-153500000D02*
X165750000Y-153500000D01*
X196750000Y-153500000D02*
X199750000Y-153500000D01*
X162750000Y-175000000D02*
X165750000Y-175000000D01*
X158250000Y-152000000D02*
X155250000Y-152000000D01*
X199750000Y-175000000D02*
X199750000Y-176500000D01*
X196750000Y-176500000D02*
X196750000Y-175000000D01*
X165750000Y-175000000D02*
X165750000Y-176500000D01*
X207250000Y-152000000D02*
X204250000Y-152000000D01*
X160250000Y-190000000D02*
G75*
G02*
X158250000Y-188000000I0J2000000D01*
G01*
X155250000Y-188000000D02*
X158250000Y-188000000D01*
X202250000Y-150000000D02*
G75*
G02*
X204250000Y-152000000I0J-2000000D01*
G01*
X165750000Y-155000000D02*
X162750000Y-155000000D01*
X199750000Y-155000000D02*
X196750000Y-155000000D01*
X165750000Y-176500000D02*
X162750000Y-176500000D01*
X153250000Y-150000000D02*
G75*
G02*
X155250000Y-152000000I0J-2000000D01*
G01*
X199750000Y-153500000D02*
X199750000Y-155000000D01*
X209250000Y-190000000D02*
G75*
G02*
X207250000Y-188000000I0J2000000D01*
G01*
X204250000Y-188000000D02*
X207250000Y-188000000D01*
X158250000Y-152000000D02*
G75*
G02*
X160250000Y-150000000I2000000J0D01*
G01*
X162750000Y-155000000D02*
X162750000Y-153500000D01*
X196750000Y-175000000D02*
X199750000Y-175000000D01*
X196750000Y-155000000D02*
X196750000Y-153500000D01*
X165750000Y-153500000D02*
X165750000Y-155000000D01*
X155250000Y-188000000D02*
G75*
G02*
X153250000Y-190000000I-2000000J0D01*
G01*
X204250000Y-188000000D02*
G75*
G02*
X202250000Y-190000000I-2000000J0D01*
G01*
X218250000Y-209000000D02*
G75*
G02*
X216250000Y-207000000I0J2000000D01*
G01*
X242750000Y-253500000D02*
X241250000Y-253500000D01*
X242750000Y-216500000D02*
X242750000Y-219500000D01*
X219750000Y-253500000D02*
X219750000Y-250500000D01*
X219750000Y-219500000D02*
X219750000Y-216500000D01*
X241250000Y-253500000D02*
X241250000Y-250500000D01*
X218250000Y-258000000D02*
X218250000Y-261000000D01*
X241250000Y-216500000D02*
X242750000Y-216500000D01*
X242750000Y-219500000D02*
X241250000Y-219500000D01*
X241250000Y-250500000D02*
X242750000Y-250500000D01*
X218250000Y-209000000D02*
X218250000Y-212000000D01*
X256250000Y-256000000D02*
G75*
G02*
X254250000Y-258000000I-2000000J0D01*
G01*
X254250000Y-261000000D02*
X254250000Y-258000000D01*
X216250000Y-214000000D02*
G75*
G02*
X218250000Y-212000000I2000000J0D01*
G01*
X221250000Y-250500000D02*
X221250000Y-253500000D01*
X221250000Y-216500000D02*
X221250000Y-219500000D01*
X242750000Y-250500000D02*
X242750000Y-253500000D01*
X216250000Y-263000000D02*
G75*
G02*
X218250000Y-261000000I2000000J0D01*
G01*
X219750000Y-216500000D02*
X221250000Y-216500000D01*
X256250000Y-207000000D02*
G75*
G02*
X254250000Y-209000000I-2000000J0D01*
G01*
X254250000Y-212000000D02*
X254250000Y-209000000D01*
X218250000Y-258000000D02*
G75*
G02*
X216250000Y-256000000I0J2000000D01*
G01*
X221250000Y-253500000D02*
X219750000Y-253500000D01*
X241250000Y-219500000D02*
X241250000Y-216500000D01*
X221250000Y-219500000D02*
X219750000Y-219500000D01*
X219750000Y-250500000D02*
X221250000Y-250500000D01*
X254250000Y-261000000D02*
G75*
G02*
X256250000Y-263000000I0J-2000000D01*
G01*
X254250000Y-212000000D02*
G75*
G02*
X256250000Y-214000000I0J-2000000D01*
G01*
X218250000Y-139000000D02*
G75*
G02*
X216250000Y-137000000I0J2000000D01*
G01*
X242750000Y-183500000D02*
X241250000Y-183500000D01*
X242750000Y-146500000D02*
X242750000Y-149500000D01*
X219750000Y-183500000D02*
X219750000Y-180500000D01*
X219750000Y-149500000D02*
X219750000Y-146500000D01*
X241250000Y-183500000D02*
X241250000Y-180500000D01*
X218250000Y-188000000D02*
X218250000Y-191000000D01*
X241250000Y-146500000D02*
X242750000Y-146500000D01*
X242750000Y-149500000D02*
X241250000Y-149500000D01*
X241250000Y-180500000D02*
X242750000Y-180500000D01*
X218250000Y-139000000D02*
X218250000Y-142000000D01*
X256250000Y-186000000D02*
G75*
G02*
X254250000Y-188000000I-2000000J0D01*
G01*
X254250000Y-191000000D02*
X254250000Y-188000000D01*
X216250000Y-144000000D02*
G75*
G02*
X218250000Y-142000000I2000000J0D01*
G01*
X221250000Y-180500000D02*
X221250000Y-183500000D01*
X221250000Y-146500000D02*
X221250000Y-149500000D01*
X242750000Y-180500000D02*
X242750000Y-183500000D01*
X216250000Y-193000000D02*
G75*
G02*
X218250000Y-191000000I2000000J0D01*
G01*
X219750000Y-146500000D02*
X221250000Y-146500000D01*
X256250000Y-137000000D02*
G75*
G02*
X254250000Y-139000000I-2000000J0D01*
G01*
X254250000Y-142000000D02*
X254250000Y-139000000D01*
X218250000Y-188000000D02*
G75*
G02*
X216250000Y-186000000I0J2000000D01*
G01*
X221250000Y-183500000D02*
X219750000Y-183500000D01*
X241250000Y-149500000D02*
X241250000Y-146500000D01*
X221250000Y-149500000D02*
X219750000Y-149500000D01*
X219750000Y-180500000D02*
X221250000Y-180500000D01*
X254250000Y-191000000D02*
G75*
G02*
X256250000Y-193000000I0J-2000000D01*
G01*
X254250000Y-142000000D02*
G75*
G02*
X256250000Y-144000000I0J-2000000D01*
G01*
X91250000Y-150000000D02*
X87250000Y-150000000D01*
X91250000Y-212000000D02*
X87250000Y-212000000D01*
X211250000Y-32000000D02*
X211250000Y-36750000D01*
X149291649Y-31958351D02*
X149250000Y-36750000D01*
X143250000Y-32000000D02*
X143250000Y-36750000D01*
X91250000Y-88000000D02*
X87208351Y-87958351D01*
X81291649Y-93958351D02*
X81250000Y-98750000D01*
X81250000Y-82000000D02*
X81250000Y-77250000D01*
X81250000Y-268000000D02*
X81250000Y-263250000D01*
X81291649Y-217958351D02*
X81250000Y-222750000D01*
X143250000Y-218000000D02*
X143250000Y-222750000D01*
X137250000Y-212000000D02*
X133250000Y-212000000D01*
X143250000Y-201250000D02*
X143208351Y-206041649D01*
X143250000Y-156000000D02*
X143250000Y-160750000D01*
X161250000Y-150000000D02*
X155208351Y-149958351D01*
X149250000Y-144000000D02*
X149250000Y-139250000D01*
X143208351Y-144041649D02*
X143250000Y-139250000D01*
X133250000Y-150000000D02*
X137291649Y-150041649D01*
X211250000Y-94000000D02*
X211250000Y-98750000D01*
X211208351Y-82041649D02*
X211250000Y-77500000D01*
X211208351Y-144041649D02*
X211250000Y-139250000D01*
X201250000Y-150000000D02*
X205250000Y-150000000D01*
X212250000Y-36750000D02*
G75*
G02*
X214250000Y-38750000I0J-2000000D01*
G01*
X212250000Y-43250000D02*
X211250000Y-43250000D01*
X214250000Y-41250000D02*
X214250000Y-38750000D01*
X212250000Y-36750000D02*
X211250000Y-36750000D01*
X214250000Y-41250000D02*
G75*
G02*
X212250000Y-43250000I-2000000J0D01*
G01*
X212250000Y-70750000D02*
G75*
G02*
X214250000Y-72750000I0J-2000000D01*
G01*
X212250000Y-77250000D02*
X211250000Y-77250000D01*
X214250000Y-75250000D02*
X214250000Y-72750000D01*
X212250000Y-70750000D02*
X211250000Y-70750000D01*
X214250000Y-75250000D02*
G75*
G02*
X212250000Y-77250000I-2000000J0D01*
G01*
X212250000Y-98750000D02*
G75*
G02*
X214250000Y-100750000I0J-2000000D01*
G01*
X212250000Y-105250000D02*
X211250000Y-105250000D01*
X214250000Y-103250000D02*
X214250000Y-100750000D01*
X212250000Y-98750000D02*
X211250000Y-98750000D01*
X214250000Y-103250000D02*
G75*
G02*
X212250000Y-105250000I-2000000J0D01*
G01*
X212250000Y-132750000D02*
G75*
G02*
X214250000Y-134750000I0J-2000000D01*
G01*
X212250000Y-139250000D02*
X211250000Y-139250000D01*
X214250000Y-137250000D02*
X214250000Y-134750000D01*
X212250000Y-132750000D02*
X211250000Y-132750000D01*
X214250000Y-137250000D02*
G75*
G02*
X212250000Y-139250000I-2000000J0D01*
G01*
X144250000Y-160750000D02*
G75*
G02*
X146250000Y-162750000I0J-2000000D01*
G01*
X144250000Y-167250000D02*
X143250000Y-167250000D01*
X146250000Y-165250000D02*
X146250000Y-162750000D01*
X144250000Y-160750000D02*
X143250000Y-160750000D01*
X146250000Y-165250000D02*
G75*
G02*
X144250000Y-167250000I-2000000J0D01*
G01*
X144250000Y-194750000D02*
G75*
G02*
X146250000Y-196750000I0J-2000000D01*
G01*
X144250000Y-201250000D02*
X143250000Y-201250000D01*
X146250000Y-199250000D02*
X146250000Y-196750000D01*
X144250000Y-194750000D02*
X143250000Y-194750000D01*
X146250000Y-199250000D02*
G75*
G02*
X144250000Y-201250000I-2000000J0D01*
G01*
X144250000Y-222750000D02*
G75*
G02*
X146250000Y-224750000I0J-2000000D01*
G01*
X144250000Y-229250000D02*
X143250000Y-229250000D01*
X146250000Y-227250000D02*
X146250000Y-224750000D01*
X144250000Y-222750000D02*
X143250000Y-222750000D01*
X146250000Y-227250000D02*
G75*
G02*
X144250000Y-229250000I-2000000J0D01*
G01*
X144250000Y-256750000D02*
G75*
G02*
X146250000Y-258750000I0J-2000000D01*
G01*
X144250000Y-263250000D02*
X143250000Y-263250000D01*
X146250000Y-261250000D02*
X146250000Y-258750000D01*
X144250000Y-256750000D02*
X143250000Y-256750000D01*
X146250000Y-261250000D02*
G75*
G02*
X144250000Y-263250000I-2000000J0D01*
G01*
X80250000Y-263250000D02*
G75*
G02*
X78250000Y-261250000I0J2000000D01*
G01*
X80250000Y-256750000D02*
X81250000Y-256750000D01*
X78250000Y-258750000D02*
X78250000Y-261250000D01*
X80250000Y-263250000D02*
X81250000Y-263250000D01*
X78250000Y-258750000D02*
G75*
G02*
X80250000Y-256750000I2000000J0D01*
G01*
X80250000Y-229250000D02*
G75*
G02*
X78250000Y-227250000I0J2000000D01*
G01*
X80250000Y-222750000D02*
X81250000Y-222750000D01*
X78250000Y-224750000D02*
X78250000Y-227250000D01*
X80250000Y-229250000D02*
X81250000Y-229250000D01*
X78250000Y-224750000D02*
G75*
G02*
X80250000Y-222750000I2000000J0D01*
G01*
X80250000Y-201250000D02*
G75*
G02*
X78250000Y-199250000I0J2000000D01*
G01*
X80250000Y-194750000D02*
X81250000Y-194750000D01*
X78250000Y-196750000D02*
X78250000Y-199250000D01*
X80250000Y-201250000D02*
X81250000Y-201250000D01*
X78250000Y-196750000D02*
G75*
G02*
X80250000Y-194750000I2000000J0D01*
G01*
X80250000Y-167250000D02*
G75*
G02*
X78250000Y-165250000I0J2000000D01*
G01*
X80250000Y-160750000D02*
X81250000Y-160750000D01*
X78250000Y-162750000D02*
X78250000Y-165250000D01*
X80250000Y-167250000D02*
X81250000Y-167250000D01*
X78250000Y-162750000D02*
G75*
G02*
X80250000Y-160750000I2000000J0D01*
G01*
X80250000Y-139250000D02*
G75*
G02*
X78250000Y-137250000I0J2000000D01*
G01*
X80250000Y-132750000D02*
X81250000Y-132750000D01*
X78250000Y-134750000D02*
X78250000Y-137250000D01*
X80250000Y-139250000D02*
X81250000Y-139250000D01*
X78250000Y-134750000D02*
G75*
G02*
X80250000Y-132750000I2000000J0D01*
G01*
X80250000Y-105250000D02*
G75*
G02*
X78250000Y-103250000I0J2000000D01*
G01*
X80250000Y-98750000D02*
X81250000Y-98750000D01*
X78250000Y-100750000D02*
X78250000Y-103250000D01*
X80250000Y-105250000D02*
X81250000Y-105250000D01*
X78250000Y-100750000D02*
G75*
G02*
X80250000Y-98750000I2000000J0D01*
G01*
X80250000Y-77250000D02*
G75*
G02*
X78250000Y-75250000I0J2000000D01*
G01*
X80250000Y-70750000D02*
X81250000Y-70750000D01*
X78250000Y-72750000D02*
X78250000Y-75250000D01*
X80250000Y-77250000D02*
X81250000Y-77250000D01*
X78250000Y-72750000D02*
G75*
G02*
X80250000Y-70750000I2000000J0D01*
G01*
X80250000Y-43250000D02*
G75*
G02*
X78250000Y-41250000I0J2000000D01*
G01*
X78250000Y-38750000D02*
G75*
G02*
X80250000Y-36750000I2000000J0D01*
G01*
X80250000Y-43250000D02*
X81250000Y-43250000D01*
X78250000Y-38750000D02*
X78250000Y-41250000D01*
X80250000Y-36750000D02*
X81250000Y-36750000D01*
X148250000Y-139250000D02*
G75*
G02*
X146250000Y-137250000I0J2000000D01*
G01*
X146250000Y-137250000D02*
G75*
G02*
X144250000Y-139250000I-2000000J0D01*
G01*
X146250000Y-134750000D02*
G75*
G02*
X148250000Y-132750000I2000000J0D01*
G01*
X148250000Y-139250000D02*
X149250000Y-139250000D01*
X144250000Y-139250000D02*
X143250000Y-139250000D01*
X146250000Y-134750000D02*
X146250000Y-137250000D01*
X144250000Y-132750000D02*
X143250000Y-132750000D01*
X144250000Y-132750000D02*
G75*
G02*
X146250000Y-134750000I0J-2000000D01*
G01*
X148250000Y-132750000D02*
X149250000Y-132750000D01*
X148250000Y-105250000D02*
G75*
G02*
X146250000Y-103250000I0J2000000D01*
G01*
X146250000Y-103250000D02*
G75*
G02*
X144250000Y-105250000I-2000000J0D01*
G01*
X146250000Y-100750000D02*
G75*
G02*
X148250000Y-98750000I2000000J0D01*
G01*
X148250000Y-105250000D02*
X149250000Y-105250000D01*
X144250000Y-105250000D02*
X143250000Y-105250000D01*
X146250000Y-100750000D02*
X146250000Y-103250000D01*
X144250000Y-98750000D02*
X143250000Y-98750000D01*
X144250000Y-98750000D02*
G75*
G02*
X146250000Y-100750000I0J-2000000D01*
G01*
X148250000Y-98750000D02*
X149250000Y-98750000D01*
X148250000Y-77250000D02*
G75*
G02*
X146250000Y-75250000I0J2000000D01*
G01*
X146250000Y-75250000D02*
G75*
G02*
X144250000Y-77250000I-2000000J0D01*
G01*
X146250000Y-72750000D02*
G75*
G02*
X148250000Y-70750000I2000000J0D01*
G01*
X148250000Y-77250000D02*
X149250000Y-77250000D01*
X144250000Y-77250000D02*
X143250000Y-77250000D01*
X146250000Y-72750000D02*
X146250000Y-75250000D01*
X144250000Y-70750000D02*
X143250000Y-70750000D01*
X144250000Y-70750000D02*
G75*
G02*
X146250000Y-72750000I0J-2000000D01*
G01*
X148250000Y-70750000D02*
X149250000Y-70750000D01*
X148250000Y-36750000D02*
X149250000Y-36750000D01*
X144250000Y-36750000D02*
X143250000Y-36750000D01*
X146250000Y-38750000D02*
X146250000Y-41250000D01*
X144250000Y-36750000D02*
G75*
G02*
X146250000Y-38750000I0J-2000000D01*
G01*
X146250000Y-38750000D02*
G75*
G02*
X148250000Y-36750000I2000000J0D01*
G01*
X148250000Y-43250000D02*
X149250000Y-43250000D01*
X148250000Y-43250000D02*
G75*
G02*
X146250000Y-41250000I0J2000000D01*
G01*
X144250000Y-43250000D02*
X143250000Y-43250000D01*
X146250000Y-41250000D02*
G75*
G02*
X144250000Y-43250000I-2000000J0D01*
G01*
X201250000Y-88000000D02*
X205291649Y-88041649D01*
X159250000Y-88000000D02*
X155208351Y-87958351D01*
X143208351Y-268041649D02*
G75*
G02*
X137250000Y-274000000I-5958351J0D01*
G01*
X81291649Y-217958351D02*
G75*
G02*
X87250000Y-212000000I5958351J0D01*
G01*
X87208351Y-273958351D02*
G75*
G02*
X81250000Y-268000000I0J5958351D01*
G01*
X137291649Y-212041649D02*
G75*
G02*
X143250000Y-218000000I0J-5958351D01*
G01*
X143208351Y-206041649D02*
G75*
G02*
X137250000Y-212000000I-5958351J0D01*
G01*
X81291649Y-155958351D02*
G75*
G02*
X87250000Y-150000000I5958351J0D01*
G01*
X87208351Y-211958351D02*
G75*
G02*
X81250000Y-206000000I0J5958351D01*
G01*
X137291649Y-150041649D02*
G75*
G02*
X143250000Y-156000000I0J-5958351D01*
G01*
X143208351Y-144041649D02*
G75*
G02*
X137250000Y-150000000I-5958351J0D01*
G01*
X81291649Y-93958351D02*
G75*
G02*
X87250000Y-88000000I5958351J0D01*
G01*
X87208351Y-149958351D02*
G75*
G02*
X81250000Y-144000000I0J5958351D01*
G01*
X137291649Y-88041649D02*
G75*
G02*
X143250000Y-94000000I0J-5958351D01*
G01*
X211208351Y-144041649D02*
G75*
G02*
X205250000Y-150000000I-5958351J0D01*
G01*
X149291649Y-93958351D02*
G75*
G02*
X155250000Y-88000000I5958351J0D01*
G01*
X155208351Y-149958351D02*
G75*
G02*
X149250000Y-144000000I0J5958351D01*
G01*
X205291649Y-88041649D02*
G75*
G02*
X211250000Y-94000000I0J-5958351D01*
G01*
X211208351Y-82041649D02*
G75*
G02*
X205250000Y-88000000I-5958351J0D01*
G01*
X149291649Y-31958351D02*
G75*
G02*
X155250000Y-26000000I5958351J0D01*
G01*
X155208351Y-87958351D02*
G75*
G02*
X149250000Y-82000000I0J5958351D01*
G01*
X205291649Y-26041649D02*
G75*
G02*
X211250000Y-32000000I0J-5958351D01*
G01*
X87208351Y-87958351D02*
G75*
G02*
X81250000Y-82000000I0J5958351D01*
G01*
X81291649Y-31958351D02*
G75*
G02*
X87250000Y-26000000I5958351J0D01*
G01*
X137291649Y-26041649D02*
G75*
G02*
X143250000Y-32000000I0J-5958351D01*
G01*
X143250000Y-105250000D02*
X143250000Y-116000000D01*
X149250000Y-132750000D02*
X149250000Y-122000000D01*
X143250000Y-122000000D02*
X143250000Y-132750000D01*
X149250000Y-116000000D02*
X149250000Y-105250000D01*
X143250000Y-43250000D02*
X143250000Y-54000000D01*
X149250000Y-54000000D02*
X149250000Y-43250000D01*
X149250000Y-70750000D02*
X149250000Y-60000000D01*
X143250000Y-60000000D02*
X143250000Y-70750000D01*
X143208351Y-94000000D02*
X143250000Y-98750000D01*
X149291649Y-93958351D02*
X149250000Y-98750000D01*
X149291649Y-82000000D02*
X149250000Y-77250000D01*
X143208351Y-82041649D02*
X143250000Y-77250000D01*
X137250000Y-88000000D02*
X133250000Y-88000000D01*
X143208351Y-82041649D02*
G75*
G02*
X137250000Y-88000000I-5958351J0D01*
G01*
X218250000Y-35000000D02*
G75*
G02*
X216250000Y-33000000I0J2000000D01*
G01*
X242750000Y-79500000D02*
X241250000Y-79500000D01*
X242750000Y-42500000D02*
X242750000Y-45500000D01*
X219750000Y-79500000D02*
X219750000Y-76500000D01*
X219750000Y-45500000D02*
X219750000Y-42500000D01*
X241250000Y-79500000D02*
X241250000Y-76500000D01*
X218250000Y-84000000D02*
X218250000Y-87000000D01*
X241250000Y-42500000D02*
X242750000Y-42500000D01*
X242750000Y-45500000D02*
X241250000Y-45500000D01*
X241250000Y-76500000D02*
X242750000Y-76500000D01*
X218250000Y-35000000D02*
X218250000Y-38000000D01*
X256250000Y-82000000D02*
G75*
G02*
X254250000Y-84000000I-2000000J0D01*
G01*
X254250000Y-87000000D02*
X254250000Y-84000000D01*
X216250000Y-40000000D02*
G75*
G02*
X218250000Y-38000000I2000000J0D01*
G01*
X221250000Y-76500000D02*
X221250000Y-79500000D01*
X221250000Y-42500000D02*
X221250000Y-45500000D01*
X242750000Y-76500000D02*
X242750000Y-79500000D01*
X216250000Y-89000000D02*
G75*
G02*
X218250000Y-87000000I2000000J0D01*
G01*
X219750000Y-42500000D02*
X221250000Y-42500000D01*
X256250000Y-33000000D02*
G75*
G02*
X254250000Y-35000000I-2000000J0D01*
G01*
X254250000Y-38000000D02*
X254250000Y-35000000D01*
X218250000Y-84000000D02*
G75*
G02*
X216250000Y-82000000I0J2000000D01*
G01*
X221250000Y-79500000D02*
X219750000Y-79500000D01*
X241250000Y-45500000D02*
X241250000Y-42500000D01*
X221250000Y-45500000D02*
X219750000Y-45500000D01*
X219750000Y-76500000D02*
X221250000Y-76500000D01*
X254250000Y-87000000D02*
G75*
G02*
X256250000Y-89000000I0J-2000000D01*
G01*
X254250000Y-38000000D02*
G75*
G02*
X256250000Y-40000000I0J-2000000D01*
G01*
X127250000Y-212000000D02*
X97250000Y-212000000D01*
X167250000Y-150000000D02*
X195250000Y-150000000D01*
X97250000Y-150000000D02*
X127250000Y-150000000D01*
X165250000Y-88000000D02*
X195250000Y-88000000D01*
X127250000Y-88000000D02*
X97250000Y-88000000D01*
%TO.C,Ref\u002A\u002A*%
X240250000Y-270000000D02*
X239250000Y-270000000D01*
X232250000Y-270000000D02*
X233250000Y-270000000D01*
X239250000Y-200000000D02*
X239250000Y-200000000D01*
X233250000Y-200000000D02*
X233250000Y-200000000D01*
X202250000Y-270000000D02*
X201250000Y-270000000D01*
X194250000Y-270000000D02*
X195250000Y-270000000D01*
X168250000Y-270000000D02*
X167250000Y-270000000D01*
X160250000Y-270000000D02*
X161250000Y-270000000D01*
X232250000Y-26000000D02*
X233250000Y-26000000D01*
X240250000Y-26000000D02*
X239250000Y-26000000D01*
X195250000Y-26000000D02*
X196250000Y-26000000D01*
X203250000Y-26000000D02*
X202250000Y-26000000D01*
X158250000Y-26000000D02*
X159250000Y-26000000D01*
X166250000Y-26000000D02*
X165250000Y-26000000D01*
X127250000Y-26000000D02*
X128250000Y-26000000D01*
X135250000Y-26000000D02*
X134250000Y-26000000D01*
X90250000Y-26000000D02*
X91250000Y-26000000D01*
X98250000Y-26000000D02*
X97250000Y-26000000D01*
X146250000Y-248000000D02*
X143250000Y-248000000D01*
X146250000Y-242000000D02*
X143250000Y-242000000D01*
X146250000Y-178750000D02*
X143250000Y-178750000D01*
X146250000Y-172750000D02*
X143250000Y-172750000D01*
X216250000Y-249000000D02*
X216250000Y-249000000D01*
X216250000Y-255000000D02*
X216250000Y-255000000D01*
X216250000Y-215000000D02*
X216250000Y-215000000D01*
X216250000Y-221000000D02*
X216250000Y-221000000D01*
X167250000Y-230000000D02*
X167250000Y-230000000D01*
X161250000Y-230000000D02*
X161250000Y-230000000D01*
X201250000Y-230000000D02*
X201250000Y-230000000D01*
X195250000Y-230000000D02*
X195250000Y-230000000D01*
X167250000Y-190000000D02*
X167250000Y-190000000D01*
X161250000Y-190000000D02*
X161250000Y-190000000D01*
X201250000Y-190000000D02*
X201250000Y-190000000D01*
X195250000Y-190000000D02*
X195250000Y-190000000D01*
X216250000Y-167000000D02*
X216250000Y-167000000D01*
X216250000Y-173000000D02*
X216250000Y-173000000D01*
X216250000Y-122000000D02*
X211250000Y-122000000D01*
X216250000Y-116000000D02*
X211250000Y-116000000D01*
X216250000Y-60000000D02*
X211250000Y-60000000D01*
X216250000Y-54000000D02*
X211250000Y-54000000D01*
X240250000Y-96000000D02*
X239250000Y-96000000D01*
X232250000Y-96000000D02*
X233250000Y-96000000D01*
X232250000Y-130000000D02*
X233250000Y-130000000D01*
X240250000Y-130000000D02*
X239250000Y-130000000D01*
X149250000Y-116000000D02*
X143250000Y-116000000D01*
X149250000Y-122000000D02*
X143250000Y-122000000D01*
X149250000Y-54000000D02*
X143250000Y-54000000D01*
X149250000Y-60000000D02*
X143250000Y-60000000D01*
X127250000Y-212000000D02*
X127250000Y-212000000D01*
X133250000Y-212000000D02*
X133250000Y-212000000D01*
X97250000Y-212000000D02*
X97250000Y-212000000D01*
X91250000Y-212000000D02*
X91250000Y-212000000D01*
X201250000Y-150000000D02*
X201250000Y-150000000D01*
X195250000Y-150000000D02*
X195250000Y-150000000D01*
X167250000Y-150000000D02*
X167250000Y-150000000D01*
X161250000Y-150000000D02*
X161250000Y-150000000D01*
X127250000Y-150000000D02*
X127250000Y-150000000D01*
X133250000Y-150000000D02*
X133250000Y-150000000D01*
X97250000Y-150000000D02*
X97250000Y-150000000D01*
X91250000Y-150000000D02*
X91250000Y-150000000D01*
X195250000Y-88000000D02*
X195250000Y-88000000D01*
X201250000Y-88000000D02*
X201250000Y-88000000D01*
X97250000Y-88000000D02*
X97250000Y-88000000D01*
X91250000Y-88000000D02*
X91250000Y-88000000D01*
X165250000Y-88000000D02*
X165250000Y-88000000D01*
X159250000Y-88000000D02*
X159250000Y-88000000D01*
X127250000Y-88000000D02*
X127250000Y-88000000D01*
X133250000Y-88000000D02*
X133250000Y-88000000D01*
%TD*%
M02*
