M48
; DRILL file {KiCad 5.1.7-1.fc32} date Tue Nov  3 14:00:26 2020
; FORMAT={-:-/ absolute / metric / decimal}
; #@! TF.CreationDate,2020-11-03T14:00:26+02:00
; #@! TF.GenerationSoftware,Kicad,Pcbnew,5.1.7-1.fc32
; #@! TF.FileFunction,NonPlated,1,4,NPTH
FMAT,2
METRIC
T1C0.500
T2C0.600
T3C0.650
T4C1.550
%
G90
G05
T1
X142.0Y-243.0
X142.0Y-244.0
X142.0Y-245.0
X142.0Y-246.0
X142.0Y-247.0
X147.5Y-243.0
X147.5Y-244.0
X147.5Y-245.0
X147.5Y-246.0
X147.5Y-247.0
X215.0Y-250.0
X215.0Y-251.0
X215.0Y-252.0
X215.0Y-253.0
X215.0Y-254.0
X217.5Y-250.0
X217.5Y-251.0
X217.5Y-252.0
X217.5Y-253.0
X217.5Y-254.0
X234.25Y-198.75
X234.25Y-201.25
X235.25Y-198.75
X235.25Y-201.25
X236.25Y-198.75
X236.25Y-201.25
X237.25Y-198.75
X237.25Y-201.25
X238.25Y-198.75
X238.25Y-201.25
X234.25Y-268.75
X235.25Y-268.75
X236.25Y-268.75
X237.25Y-268.75
X238.25Y-268.75
X142.0Y-55.0
X142.0Y-56.0
X142.0Y-57.0
X142.0Y-58.0
X142.0Y-59.0
X150.5Y-55.0
X150.5Y-56.0
X150.5Y-57.0
X150.5Y-58.0
X150.5Y-59.0
X215.0Y-168.0
X215.0Y-169.0
X215.0Y-170.0
X215.0Y-171.0
X215.0Y-172.0
X217.5Y-168.0
X217.5Y-169.0
X217.5Y-170.0
X217.5Y-171.0
X217.5Y-172.0
X162.25Y-268.75
X163.25Y-268.75
X164.25Y-268.75
X165.25Y-268.75
X166.25Y-268.75
X160.25Y-27.25
X161.25Y-27.25
X162.25Y-27.25
X163.25Y-27.25
X164.25Y-27.25
X234.25Y-131.25
X235.25Y-131.25
X236.25Y-131.25
X237.25Y-131.25
X238.25Y-131.25
X210.0Y-55.0
X210.0Y-56.0
X210.0Y-57.0
X210.0Y-58.0
X210.0Y-59.0
X217.5Y-55.0
X217.5Y-56.0
X217.5Y-57.0
X217.5Y-58.0
X217.5Y-59.0
X215.0Y-216.0
X215.0Y-217.0
X215.0Y-218.0
X215.0Y-219.0
X215.0Y-220.0
X217.5Y-216.0
X217.5Y-217.0
X217.5Y-218.0
X217.5Y-219.0
X217.5Y-220.0
X128.25Y-86.75
X128.25Y-89.25
X129.25Y-86.75
X129.25Y-89.25
X130.25Y-86.75
X130.25Y-89.25
X131.25Y-86.75
X131.25Y-89.25
X132.25Y-86.75
X132.25Y-89.25
X160.25Y-86.75
X160.25Y-89.25
X161.25Y-86.75
X161.25Y-89.25
X162.25Y-86.75
X162.25Y-89.25
X163.25Y-86.75
X163.25Y-89.25
X164.25Y-86.75
X164.25Y-89.25
X92.25Y-86.75
X92.25Y-89.25
X93.25Y-86.75
X93.25Y-89.25
X94.25Y-86.75
X94.25Y-89.25
X95.25Y-86.75
X95.25Y-89.25
X96.25Y-86.75
X96.25Y-89.25
X142.0Y-117.0
X142.0Y-118.0
X142.0Y-119.0
X142.0Y-120.0
X142.0Y-121.0
X150.5Y-117.0
X150.5Y-118.0
X150.5Y-119.0
X150.5Y-120.0
X150.5Y-121.0
X142.0Y-173.75
X142.0Y-174.75
X142.0Y-175.75
X142.0Y-176.75
X142.0Y-177.75
X147.5Y-173.75
X147.5Y-174.75
X147.5Y-175.75
X147.5Y-176.75
X147.5Y-177.75
X162.25Y-228.75
X162.25Y-231.25
X163.25Y-228.75
X163.25Y-231.25
X164.25Y-228.75
X164.25Y-231.25
X165.25Y-228.75
X165.25Y-231.25
X166.25Y-228.75
X166.25Y-231.25
X196.25Y-148.75
X196.25Y-151.25
X197.25Y-148.75
X197.25Y-151.25
X198.25Y-148.75
X198.25Y-151.25
X199.25Y-148.75
X199.25Y-151.25
X200.25Y-148.75
X200.25Y-151.25
X196.25Y-188.75
X196.25Y-191.25
X197.25Y-188.75
X197.25Y-191.25
X198.25Y-188.75
X198.25Y-191.25
X199.25Y-188.75
X199.25Y-191.25
X200.25Y-188.75
X200.25Y-191.25
X162.25Y-188.75
X162.25Y-191.25
X163.25Y-188.75
X163.25Y-191.25
X164.25Y-188.75
X164.25Y-191.25
X165.25Y-188.75
X165.25Y-191.25
X166.25Y-188.75
X166.25Y-191.25
X162.25Y-148.75
X162.25Y-151.25
X163.25Y-148.75
X163.25Y-151.25
X164.25Y-148.75
X164.25Y-151.25
X165.25Y-148.75
X165.25Y-151.25
X166.25Y-148.75
X166.25Y-151.25
X196.25Y-228.75
X196.25Y-231.25
X197.25Y-228.75
X197.25Y-231.25
X198.25Y-228.75
X198.25Y-231.25
X199.25Y-228.75
X199.25Y-231.25
X200.25Y-228.75
X200.25Y-231.25
X92.25Y-210.75
X92.25Y-213.25
X93.25Y-210.75
X93.25Y-213.25
X94.25Y-210.75
X94.25Y-213.25
X95.25Y-210.75
X95.25Y-213.25
X96.25Y-210.75
X96.25Y-213.25
X129.25Y-27.25
X130.25Y-27.25
X131.25Y-27.25
X132.25Y-27.25
X133.25Y-27.25
X210.0Y-117.0
X210.0Y-118.0
X210.0Y-119.0
X210.0Y-120.0
X210.0Y-121.0
X217.5Y-117.0
X217.5Y-118.0
X217.5Y-119.0
X217.5Y-120.0
X217.5Y-121.0
X197.25Y-27.25
X198.25Y-27.25
X199.25Y-27.25
X200.25Y-27.25
X201.25Y-27.25
X128.25Y-148.75
X128.25Y-151.25
X129.25Y-148.75
X129.25Y-151.25
X130.25Y-148.75
X130.25Y-151.25
X131.25Y-148.75
X131.25Y-151.25
X132.25Y-148.75
X132.25Y-151.25
X196.25Y-268.75
X197.25Y-268.75
X198.25Y-268.75
X199.25Y-268.75
X200.25Y-268.75
X196.25Y-86.75
X196.25Y-89.25
X197.25Y-86.75
X197.25Y-89.25
X198.25Y-86.75
X198.25Y-89.25
X199.25Y-86.75
X199.25Y-89.25
X200.25Y-86.75
X200.25Y-89.25
X234.25Y-94.75
X235.25Y-94.75
X236.25Y-94.75
X237.25Y-94.75
X238.25Y-94.75
X234.25Y-27.25
X235.25Y-27.25
X236.25Y-27.25
X237.25Y-27.25
X238.25Y-27.25
X92.25Y-148.75
X92.25Y-151.25
X93.25Y-148.75
X93.25Y-151.25
X94.25Y-148.75
X94.25Y-151.25
X95.25Y-148.75
X95.25Y-151.25
X96.25Y-148.75
X96.25Y-151.25
X92.25Y-27.25
X93.25Y-27.25
X94.25Y-27.25
X95.25Y-27.25
X96.25Y-27.25
X128.25Y-210.75
X128.25Y-213.25
X129.25Y-210.75
X129.25Y-213.25
X130.25Y-210.75
X130.25Y-213.25
X131.25Y-210.75
X131.25Y-213.25
X132.25Y-210.75
X132.25Y-213.25
T2
X225.625Y-159.375
X236.925Y-66.65
X181.25Y-157.0
X225.625Y-170.625
X175.6Y-210.675
X175.6Y-250.675
X231.25Y-227.0
X223.25Y-61.0
X186.85Y-210.65
X173.25Y-165.0
X225.625Y-229.375
X175.6Y-170.675
X225.625Y-66.625
X181.25Y-253.0
X186.85Y-250.65
X181.25Y-237.0
X225.625Y-240.625
X186.875Y-239.375
X239.25Y-165.0
X236.9Y-159.4
X231.25Y-157.0
X186.85Y-170.65
X175.625Y-199.375
X223.25Y-165.0
X173.25Y-245.0
X181.25Y-213.0
X236.9Y-55.4
X181.25Y-173.0
X239.25Y-235.0
X236.9Y-229.4
X231.25Y-173.0
X236.925Y-170.65
X186.875Y-199.375
X186.875Y-159.375
X189.25Y-205.0
X231.25Y-53.0
X225.625Y-55.375
X189.25Y-245.0
X175.625Y-159.375
X231.25Y-69.0
X173.25Y-205.0
X181.25Y-197.0
X236.925Y-240.65
X239.25Y-61.0
X223.25Y-235.0
X231.25Y-243.0
X189.25Y-165.0
X175.625Y-239.375
T3
X171.15Y-32.0
X103.15Y-32.0
X103.15Y-156.0
T4
X96.67Y-83.76
X210.7Y-199.6
X164.67Y-83.76
X210.7Y-239.6
X210.7Y-159.6
X225.85Y-135.55
X225.85Y-31.55
X111.21Y-83.76
X179.21Y-83.76
X111.21Y-207.76
X225.85Y-205.55
X96.67Y-207.76
T3
G00X165.275Y-32.0
M15
G01X165.025Y-32.0
M16
G05
G00X97.275Y-32.0
M15
G01X97.025Y-32.0
M16
G05
G00X97.275Y-156.0
M15
G01X97.025Y-156.0
M16
G05
T0
M30
